<svg width="29" height="29" viewBox="0 0 29 29" fill="none" xmlns="http://www.w3.org/2000/svg">
<path d="M23 0H6C2.68629 0 0 2.68629 0 6V23C0 26.3137 2.68629 29 6 29H23C26.3137 29 29 26.3137 29 23V6C29 2.68629 26.3137 0 23 0Z" fill="#FF2D55"/>
<path d="M21.2637 18.0135L19.0097 15.7605C18.7855 15.5457 18.4853 15.4283 18.1748 15.4341C17.8643 15.4399 17.5688 15.5684 17.3527 15.7915L16.2187 16.9265L15.9937 16.8055C14.9899 16.2861 14.0696 15.619 13.2637 14.8265C12.4715 14.0185 11.8045 13.0967 11.2847 12.0915L11.1627 11.8725L11.9247 11.1115L12.2997 10.7365C12.5229 10.5205 12.6514 10.2248 12.657 9.91421C12.6626 9.60363 12.5449 9.30349 12.3297 9.07951L10.0757 6.82651C9.85165 6.61172 9.55165 6.4944 9.24131 6.50021C8.93098 6.50602 8.63558 6.63448 8.41971 6.85751L7.78371 7.49551L7.79971 7.51351C7.58162 7.79424 7.40545 8.10515 7.27671 8.43651C7.15988 8.73743 7.08159 9.05193 7.04371 9.37251C6.74371 11.8395 7.87371 14.0935 10.9327 17.1525C15.1617 21.3805 18.5687 21.0615 18.7157 21.0455C19.0375 21.0071 19.353 20.9278 19.6547 20.8095C19.985 20.6813 20.2949 20.5058 20.5747 20.2885L20.5887 20.3005L21.2317 19.6705C21.4547 19.4545 21.5832 19.159 21.5892 18.8486C21.5952 18.5382 21.4782 18.238 21.2637 18.0135V18.0135Z" fill="white"/>
</svg>
