<svg width="29" height="29" viewBox="0 0 29 29" fill="none" xmlns="http://www.w3.org/2000/svg">
<path d="M23 0H6C2.68629 0 0 2.68629 0 6V23C0 26.3137 2.68629 29 6 29H23C26.3137 29 29 26.3137 29 23V6C29 2.68629 26.3137 0 23 0Z" fill="black"/>
<path d="M3 3H26V26H3V3Z" fill="black"/>
<path d="M14.5001 22.7132C12.8756 22.7132 11.2875 22.2314 9.93668 21.3289C8.5859 20.4263 7.53309 19.1434 6.91139 17.6425C6.28969 16.1416 6.12703 14.49 6.44397 12.8967C6.76091 11.3033 7.54321 9.83973 8.69196 8.69098C9.84071 7.54224 11.3043 6.75993 12.8977 6.44299C14.491 6.12605 16.1426 6.28872 17.6435 6.91041C19.1444 7.53211 20.4273 8.58492 21.3298 9.93571C22.2324 11.2865 22.7141 12.8746 22.7141 14.4992C22.7115 16.6768 21.8452 18.7646 20.3054 20.3044C18.7655 21.8443 16.6778 22.7105 14.5001 22.7132V22.7132ZM14.5001 17.9222C14.3647 17.9222 14.2322 17.9623 14.1196 18.0376C14.0069 18.1129 13.9191 18.2199 13.8673 18.345C13.8154 18.4702 13.8019 18.6079 13.8283 18.7408C13.8547 18.8737 13.92 18.9957 14.0158 19.0915C14.1116 19.1873 14.2336 19.2526 14.3665 19.279C14.4994 19.3054 14.6371 19.2919 14.7623 19.24C14.8874 19.1882 14.9944 19.1004 15.0697 18.9877C15.145 18.8751 15.1851 18.7426 15.1851 18.6072C15.1851 18.5172 15.1674 18.4281 15.133 18.345C15.0986 18.2619 15.0481 18.1864 14.9845 18.1228C14.9209 18.0592 14.8454 18.0087 14.7623 17.9743C14.6792 17.9399 14.5901 17.9222 14.5001 17.9222V17.9222ZM14.4861 11.0762H14.5181C14.9171 11.0881 15.2966 11.2517 15.5793 11.5335C15.8621 11.8153 16.0268 12.1942 16.0401 12.5932C16.0459 12.9054 15.9564 13.2119 15.7834 13.4719C15.6105 13.7318 15.3623 13.9329 15.0721 14.0482C14.7061 14.185 14.3901 14.4296 14.1659 14.7497C13.9416 15.0698 13.8197 15.4504 13.8161 15.8412V16.2112C13.8229 16.3882 13.898 16.5557 14.0256 16.6785C14.1532 16.8014 14.3235 16.87 14.5006 16.87C14.6778 16.87 14.848 16.8014 14.9757 16.6785C15.1033 16.5557 15.1784 16.3882 15.1851 16.2112V15.8412C15.191 15.7251 15.2316 15.6135 15.3017 15.5207C15.3718 15.428 15.4681 15.3585 15.5781 15.3212H15.5681C16.1937 15.0732 16.714 14.6161 17.0404 14.0276C17.3667 13.4391 17.4789 12.7557 17.3579 12.0937C17.2369 11.4318 16.8902 10.8322 16.3768 10.3973C15.8633 9.96228 15.215 9.71875 14.5421 9.70816H14.5001C13.7289 9.70895 12.9894 10.0157 12.444 10.5611C11.8987 11.1064 11.5919 11.8459 11.5911 12.6172C11.5979 12.7942 11.673 12.9617 11.8006 13.0845C11.9282 13.2074 12.0985 13.276 12.2756 13.276C12.4528 13.276 12.623 13.2074 12.7507 13.0845C12.8783 12.9617 12.9534 12.7942 12.9601 12.6172C12.9598 12.4126 13 12.21 13.0787 12.0212C13.1573 11.8323 13.2727 11.661 13.4181 11.5172C13.5582 11.3767 13.7246 11.2654 13.908 11.1897C14.0913 11.114 14.2878 11.0754 14.4861 11.0762V11.0762Z" fill="white"/>
</svg>
