<svg width="29" height="29" viewBox="0 0 29 29" fill="none" xmlns="http://www.w3.org/2000/svg">
<path d="M6 0H23C24.5913 0 26.1174 0.632141 27.2426 1.75736C28.3679 2.88258 29 4.4087 29 6V23C29 24.5913 28.3679 26.1174 27.2426 27.2426C26.1174 28.3679 24.5913 29 23 29H6C4.4087 29 2.88258 28.3679 1.75736 27.2426C0.632141 26.1174 0 24.5913 0 23L0 6C0 4.4087 0.632141 2.88258 1.75736 1.75736C2.88258 0.632141 4.4087 0 6 0V0Z" fill="#FFCC00"/>
<path d="M18.511 20.498H11C10.6153 20.4595 10.2557 20.2891 9.98228 20.0157C9.70888 19.7423 9.53848 19.3827 9.5 18.998V10.502C9.5 10.402 9.559 10.356 9.676 10.356H12.434C12.5496 10.3525 12.6595 10.305 12.7412 10.2232C12.823 10.1415 12.8705 10.0316 12.874 9.91599V7.15799C12.8705 7.13415 12.8726 7.10983 12.8801 7.08695C12.8877 7.06407 12.9005 7.04326 12.9174 7.02618C12.9344 7.0091 12.9552 6.99621 12.978 6.98854C13.0008 6.98087 13.0251 6.97862 13.049 6.98199H18.511C18.8957 7.02046 19.2553 7.19086 19.5287 7.46427C19.8021 7.73768 19.9725 8.09725 20.011 8.48199V18.997C19.9727 19.3819 19.8024 19.7417 19.529 20.0153C19.2556 20.2889 18.8959 20.4595 18.511 20.498V20.498ZM12.178 17.12C12.0652 17.1131 11.9538 17.1488 11.866 17.22C11.8287 17.2526 11.7991 17.2931 11.7794 17.3386C11.7596 17.3841 11.7503 17.4334 11.752 17.483C11.751 17.5344 11.7606 17.5854 11.7803 17.6329C11.7999 17.6803 11.8291 17.7233 11.866 17.759C11.9077 17.7979 11.9568 17.828 12.0104 17.8474C12.0641 17.8669 12.1211 17.8752 12.178 17.872H14.332C14.4428 17.874 14.5501 17.8336 14.632 17.759C14.6725 17.7253 14.7049 17.6831 14.7271 17.6354C14.7492 17.5877 14.7605 17.5356 14.76 17.483C14.7612 17.4321 14.7502 17.3817 14.7279 17.336C14.7057 17.2902 14.6728 17.2504 14.632 17.22C14.5468 17.1526 14.4406 17.1172 14.332 17.12H12.178ZM12.162 15.242C12.1069 15.2391 12.0518 15.2477 12.0002 15.2671C11.9486 15.2866 11.9015 15.3165 11.862 15.355C11.8274 15.3895 11.7999 15.4304 11.7811 15.4756C11.7623 15.5207 11.7527 15.5691 11.7527 15.618C11.7527 15.6669 11.7623 15.7153 11.7811 15.7604C11.7999 15.8055 11.8274 15.8465 11.862 15.881C11.9015 15.9195 11.9486 15.9494 12.0002 15.9689C12.0518 15.9883 12.1069 15.9969 12.162 15.994H17.351C17.4572 15.9947 17.5596 15.9546 17.637 15.882C17.6755 15.8498 17.7064 15.8096 17.7276 15.7641C17.7488 15.7187 17.7598 15.6691 17.7598 15.619C17.7598 15.5688 17.7488 15.5193 17.7276 15.4739C17.7064 15.4284 17.6755 15.3882 17.637 15.356C17.5595 15.2828 17.4567 15.2423 17.35 15.243L12.162 15.242ZM12.162 13.365C12.0529 13.3589 11.9456 13.3947 11.862 13.465C11.826 13.4984 11.7976 13.5392 11.7787 13.5846C11.7599 13.63 11.7511 13.6789 11.753 13.728C11.7518 13.7789 11.7609 13.8296 11.7796 13.877C11.7983 13.9244 11.8263 13.9676 11.862 14.004C11.9015 14.0425 11.9486 14.0724 12.0002 14.0919C12.0518 14.1113 12.1069 14.1199 12.162 14.117H17.351C17.4577 14.1177 17.5605 14.0772 17.638 14.004C17.6773 13.9696 17.7086 13.9272 17.7299 13.8795C17.7511 13.8319 17.7617 13.7802 17.761 13.728C17.7624 13.6776 17.752 13.6276 17.7306 13.5819C17.7093 13.5363 17.6775 13.4962 17.638 13.465C17.5571 13.3989 17.4555 13.3634 17.351 13.365H12.162ZM12.162 11.488C12.0529 11.4819 11.9456 11.5177 11.862 11.588C11.826 11.6214 11.7976 11.6622 11.7787 11.7076C11.7599 11.753 11.7511 11.8019 11.753 11.851C11.7518 11.9019 11.7609 11.9526 11.7796 12C11.7983 12.0474 11.8263 12.0906 11.862 12.127C11.9015 12.1655 11.9486 12.1954 12.0002 12.2149C12.0518 12.2343 12.1069 12.2429 12.162 12.24H17.351C17.4577 12.2407 17.5605 12.2002 17.638 12.127C17.6773 12.0926 17.7086 12.0502 17.7299 12.0025C17.7511 11.9549 17.7617 11.9032 17.761 11.851C17.7624 11.8006 17.752 11.7506 17.7306 11.7049C17.7093 11.6593 17.6775 11.6192 17.638 11.588C17.5571 11.5219 17.4555 11.4864 17.351 11.488H12.162ZM11.817 9.47499H10.175C10.1388 9.47658 10.1031 9.4659 10.0737 9.44466C10.0442 9.42343 10.0229 9.39289 10.013 9.35799C9.99703 9.32836 9.99279 9.29381 10.0011 9.2612C10.0095 9.22859 10.0298 9.20031 10.058 9.18199L11.7 7.50999C11.7311 7.48821 11.768 7.47636 11.806 7.47599C11.835 7.47654 11.8636 7.483 11.89 7.49499C11.9218 7.50772 11.9487 7.53033 11.9667 7.5595C11.9847 7.58866 11.9929 7.62284 11.99 7.65699V9.29899C11.9936 9.32267 11.9917 9.34688 11.9843 9.36968C11.977 9.39249 11.9644 9.41326 11.9476 9.43035C11.9308 9.44744 11.9103 9.46037 11.8876 9.46812C11.8649 9.47587 11.8407 9.47822 11.817 9.47499V9.47499Z" fill="white"/>
</svg>
