<svg width="29" height="29" viewBox="0 0 29 29" fill="none" xmlns="http://www.w3.org/2000/svg">
<path d="M23 0H6C2.68629 0 0 2.68629 0 6V23C0 26.3137 2.68629 29 6 29H23C26.3137 29 29 26.3137 29 23V6C29 2.68629 26.3137 0 23 0Z" fill="#4CD964"/>
<path d="M14.161 22.413C13.986 22.4128 13.814 22.3681 13.661 22.283L11.169 20.915C10.2084 20.3811 9.40796 19.6 8.85076 18.6526C8.29356 17.7052 7.99984 16.6261 8.00003 15.527V10.017C7.998 9.69848 8.08552 9.38577 8.2526 9.11454C8.41969 8.84332 8.65961 8.6245 8.94503 8.48303L13.7 6.10803C13.8424 6.03698 13.9994 6 14.1585 6C14.3177 6 14.4746 6.03698 14.617 6.10803L19.374 8.48303C19.6593 8.62443 19.8991 8.84309 20.0662 9.11412C20.2333 9.38515 20.3209 9.69765 20.319 10.016V15.527C20.3187 16.6259 20.0248 17.7047 19.4676 18.6518C18.9105 19.5989 18.1103 20.3799 17.15 20.914L14.66 22.284C14.5073 22.3687 14.3356 22.4131 14.161 22.413V22.413ZM12.283 13.362C12.1475 13.3622 12.0151 13.4025 11.9026 13.4779C11.79 13.5533 11.7023 13.6604 11.6506 13.7856C11.5989 13.9109 11.5855 14.0486 11.6121 14.1815C11.6387 14.3144 11.7041 14.4363 11.8 14.532L13.192 15.924C13.2556 15.9876 13.331 16.0381 13.4141 16.0725C13.4971 16.107 13.5861 16.1247 13.676 16.1247C13.7659 16.1247 13.855 16.107 13.938 16.0725C14.0211 16.0381 14.0965 15.9876 14.16 15.924L16.56 13.487C16.6469 13.3556 16.6859 13.1982 16.6704 13.0414C16.6549 12.8846 16.5859 12.738 16.475 12.626C16.3641 12.5141 16.2179 12.444 16.0612 12.4274C15.9045 12.4108 15.7469 12.4488 15.615 12.535L13.678 14.473L12.767 13.563C12.7036 13.4992 12.6282 13.4486 12.5451 13.4141C12.4621 13.3796 12.373 13.3619 12.283 13.362V13.362Z" fill="white"/>
</svg>
