<svg width="29" height="29" viewBox="0 0 29 29" fill="none" xmlns="http://www.w3.org/2000/svg">
<path d="M23 0H6C2.68629 0 0 2.68629 0 6V23C0 26.3137 2.68629 29 6 29H23C26.3137 29 29 26.3137 29 23V6C29 2.68629 26.3137 0 23 0Z" fill="#007AFF"/>
<path d="M14.214 22.428C12.5894 22.428 11.0013 21.9463 9.65055 21.0437C8.29976 20.1411 7.24696 18.8583 6.62526 17.3574C6.00356 15.8565 5.84089 14.2049 6.15783 12.6115C6.47477 11.0182 7.25708 9.55458 8.40583 8.40583C9.55458 7.25708 11.0182 6.47477 12.6115 6.15783C14.2049 5.84089 15.8565 6.00356 17.3574 6.62526C18.8583 7.24696 20.1411 8.29976 21.0437 9.65055C21.9463 11.0013 22.428 12.5894 22.428 14.214C22.4254 16.3917 21.5591 18.4794 20.0193 20.0193C18.4794 21.5591 16.3917 22.4254 14.214 22.428V22.428ZM14.214 12.502C14.0323 12.502 13.8581 12.5742 13.7296 12.7026C13.6012 12.8311 13.529 13.0053 13.529 13.187V17.637C13.5255 17.7291 13.5406 17.8209 13.5734 17.9071C13.6062 17.9932 13.6561 18.0718 13.72 18.1382C13.7839 18.2046 13.8605 18.2574 13.9453 18.2935C14.0301 18.3296 14.1213 18.3482 14.2135 18.3482C14.3057 18.3482 14.3969 18.3296 14.4817 18.2935C14.5665 18.2574 14.6431 18.2046 14.707 18.1382C14.7709 18.0718 14.8208 17.9932 14.8536 17.9071C14.8864 17.8209 14.9015 17.7291 14.898 17.637V13.187C14.8983 13.097 14.8808 13.0078 14.8465 12.9245C14.8123 12.8412 14.762 12.7655 14.6984 12.7017C14.6349 12.6379 14.5594 12.5872 14.4763 12.5526C14.3932 12.518 14.304 12.5001 14.214 12.5V12.502ZM14.214 10.102C14.0788 10.1022 13.9466 10.1425 13.8343 10.2178C13.7219 10.293 13.6344 10.3999 13.5828 10.5249C13.5312 10.6499 13.5178 10.7874 13.5443 10.9201C13.5708 11.0527 13.636 11.1745 13.7317 11.27C13.8274 11.3656 13.9493 11.4306 14.0819 11.4569C14.2146 11.4832 14.3521 11.4696 14.477 11.4178C14.6019 11.366 14.7087 11.2784 14.7838 11.1659C14.8589 11.0534 14.899 10.9212 14.899 10.786C14.8974 10.6054 14.8246 10.4327 14.6963 10.3055C14.568 10.1783 14.3946 10.107 14.214 10.107V10.102Z" fill="white"/>
</svg>
