<svg width="46" height="30" viewBox="0 0 46 30" fill="none" xmlns="http://www.w3.org/2000/svg">
<g clip-path="url(#clip0)">
<path d="M37.545 24.893H8.30601C8.08599 24.893 7.8693 24.8393 7.6748 24.7365C7.48029 24.6336 7.31387 24.4848 7.19001 24.303C3.33201 18.646 3.03601 7.763 3.01401 6.148C3.01401 6.085 3.01401 6.02099 3.01401 5.95699C3.01401 5.5993 3.15596 5.25622 3.40871 5.00311C3.66145 4.74999 4.00431 4.60752 4.36201 4.60699V4.60699C4.71918 4.60699 5.06181 4.74854 5.31484 5.00063C5.56787 5.25272 5.71068 5.59482 5.71201 5.95199C5.71201 5.96099 5.71201 6.04099 5.71201 6.18199C5.72671 7.1218 5.92639 8.04951 6.29963 8.91214C6.67286 9.77478 7.21235 10.5555 7.88729 11.2096C9.2504 12.5307 11.0825 13.2562 12.9805 13.2265C13.9203 13.2118 14.848 13.0121 15.7107 12.6389C16.5733 12.2656 17.354 11.7262 18.0081 11.0512C18.6623 10.3763 19.1771 9.57909 19.5231 8.70519C19.8692 7.8313 20.0397 6.8978 20.025 5.95799C20.0249 5.78054 20.0597 5.6048 20.1276 5.44083C20.1954 5.27686 20.2949 5.12788 20.4204 5.0024C20.5459 4.87692 20.6949 4.77741 20.8588 4.70956C21.0228 4.64172 21.1986 4.60686 21.376 4.60699H24.476C24.834 4.60699 25.1774 4.74923 25.4306 5.0024C25.6838 5.25557 25.826 5.59895 25.826 5.95699C25.8323 7.83218 26.5744 9.62997 27.8927 10.9636C29.2109 12.2972 31 13.0601 32.875 13.0882C34.7499 13.1162 36.561 12.4072 37.9186 11.1136C39.2761 9.81994 40.0716 8.04515 40.134 6.17099C40.134 6.03599 40.134 5.95999 40.134 5.95199C40.1353 5.59482 40.2781 5.25272 40.5312 5.00063C40.7842 4.74854 41.1268 4.60699 41.484 4.60699V4.60699C41.8417 4.60752 42.1846 4.74999 42.4373 5.00311C42.6901 5.25622 42.832 5.5993 42.832 5.95699C42.832 6.02099 42.832 6.085 42.832 6.148C42.809 7.763 42.513 18.648 38.656 24.303C38.5326 24.4841 38.3669 24.6324 38.1734 24.7352C37.9798 24.838 37.7642 24.8921 37.545 24.893Z" fill="#FFF780"/>
<path d="M41.491 4.60699C41.1338 4.60699 40.7912 4.74854 40.5382 5.00063C40.2851 5.25272 40.1423 5.59482 40.141 5.95199C40.141 5.96099 40.141 6.03699 40.141 6.17199C40.1126 8.07081 39.3311 9.88059 37.9684 11.2032C36.6056 12.5258 34.7733 13.2529 32.8745 13.2245C30.9757 13.1961 29.1659 12.4146 27.8433 11.0519C26.5207 9.68913 25.7936 7.85681 25.822 5.95799C25.822 5.59995 25.6798 5.25657 25.4266 5.0034C25.1734 4.75022 24.83 4.60799 24.472 4.60799H22.922V24.893H37.541C37.7609 24.8931 37.9776 24.8396 38.1721 24.7369C38.3666 24.6343 38.533 24.4856 38.657 24.304C42.515 18.647 42.811 7.76399 42.833 6.14899C42.833 6.08599 42.833 6.02199 42.833 5.95799C42.833 5.60124 42.6919 5.25896 42.4405 5.00586C42.1891 4.75275 41.8477 4.60937 41.491 4.60699V4.60699Z" fill="#FFC02E"/>
<path d="M22.925 0C22.0621 0 21.2185 0.255885 20.5011 0.735298C19.7836 1.21471 19.2243 1.89612 18.8941 2.69335C18.5639 3.49059 18.4775 4.36784 18.6458 5.21418C18.8142 6.06052 19.2297 6.83793 19.8399 7.44811C20.4501 8.05828 21.2275 8.47382 22.0738 8.64217C22.9202 8.81051 23.7974 8.72411 24.5947 8.39389C25.3919 8.06366 26.0733 7.50444 26.5527 6.78695C27.0321 6.06946 27.288 5.22592 27.288 4.363C27.2867 3.20627 26.8266 2.09729 26.0087 1.27935C25.1907 0.46142 24.0817 0.00132334 22.925 0V0Z" fill="#FFC02E"/>
<path d="M22.922 0V8.726C24.0791 8.726 25.1889 8.26633 26.0071 7.44811C26.8253 6.62989 27.285 5.52014 27.285 4.363C27.285 3.20586 26.8253 2.09611 26.0071 1.27789C25.1889 0.459672 24.0791 0 22.922 0V0Z" fill="#FFA73B"/>
<path d="M4.363 3.369C3.50008 3.369 2.65654 3.62489 1.93905 4.1043C1.22156 4.58371 0.662341 5.26512 0.332116 6.06236C0.00189042 6.85959 -0.0845115 7.73684 0.0838358 8.58318C0.252183 9.42952 0.667718 10.2069 1.27789 10.8171C1.88807 11.4273 2.66548 11.8428 3.51182 12.0112C4.35816 12.1795 5.23542 12.0931 6.03265 11.7629C6.82988 11.4327 7.51129 10.8734 7.9907 10.156C8.47012 9.43846 8.726 8.59493 8.726 7.73201C8.72468 6.57527 8.26458 5.4663 7.44665 4.64836C6.62871 3.83043 5.51974 3.37033 4.363 3.369V3.369Z" fill="#FFC02E"/>
<path d="M41.488 3.369C40.6251 3.369 39.7815 3.62489 39.064 4.1043C38.3465 4.58371 37.7873 5.26512 37.4571 6.06236C37.1269 6.85959 37.0405 7.73684 37.2088 8.58318C37.3772 9.42952 37.7927 10.2069 38.4029 10.8171C39.0131 11.4273 39.7905 11.8428 40.6368 12.0112C41.4832 12.1795 42.3604 12.0931 43.1576 11.7629C43.9549 11.4327 44.6363 10.8734 45.1157 10.156C45.5951 9.43846 45.851 8.59493 45.851 7.73201C45.8497 6.57527 45.3896 5.4663 44.5716 4.64836C43.7537 3.83043 42.6447 3.37033 41.488 3.369V3.369Z" fill="#FFA73B"/>
<path d="M37.545 29.323H8.306C7.94796 29.323 7.60458 29.1808 7.3514 28.9276C7.09823 28.6744 6.95599 28.331 6.95599 27.973V23.948H38.895V27.975C38.8945 28.3327 38.752 28.6756 38.4989 28.9283C38.2458 29.1811 37.9027 29.323 37.545 29.323V29.323Z" fill="#FFC02E"/>
<path d="M22.922 29.323H37.541C37.899 29.323 38.2424 29.1808 38.4956 28.9276C38.7488 28.6744 38.891 28.331 38.891 27.973V23.948H22.922V29.323Z" fill="#FFA73B"/>
</g>
</svg>
