<svg width="119" height="119" viewBox="0 0 119 119" fill="none" xmlns="http://www.w3.org/2000/svg">
<path d="M59.5 119C92.3609 119 119 92.3609 119 59.5C119 26.6391 92.3609 0 59.5 0C26.6391 0 0 26.6391 0 59.5C0 92.3609 26.6391 119 59.5 119Z" fill="#F2F3F6"/>
<path d="M51.714 52.649L40.627 50.479L40.314 52.268L35.849 51.487C35.1447 51.3635 34.4229 51.3801 33.725 51.5357C33.0271 51.6914 32.3667 51.9831 31.7816 52.3941C31.1965 52.8052 30.6981 53.3276 30.315 53.9314C29.9319 54.5351 29.6716 55.2085 29.549 55.913L26.57 72.902C26.3227 74.3234 26.6495 75.7848 27.4785 76.9655C28.3075 78.1462 29.5711 78.9499 30.992 79.2L35.457 79.983L34.992 82.66C34.5178 82.577 34.03 82.6858 33.636 82.9624C33.242 83.239 32.974 83.6608 32.891 84.135C32.808 84.6092 32.9167 85.097 33.1934 85.491C33.47 85.885 33.8918 86.153 34.366 86.236L59.392 90.619C59.6292 90.6656 59.8732 90.6644 60.1099 90.6155C60.3466 90.5665 60.5712 90.4708 60.7704 90.334C60.9696 90.1971 61.1396 90.0219 61.2702 89.8185C61.4008 89.6152 61.4895 89.3878 61.5311 89.1497C61.5727 88.9116 61.5664 88.6676 61.5125 88.4319C61.4585 88.1963 61.3581 87.9739 61.2171 87.7776C61.0761 87.5813 60.8973 87.4151 60.6912 87.2888C60.4851 87.1625 60.2559 87.0786 60.017 87.042L61.037 81.271C61.037 81.271 51.86 54.514 51.8 54.16L51.714 52.649ZM36.092 76.406L32.516 75.781C32.1638 75.7194 31.8273 75.589 31.5255 75.3973C31.2237 75.2056 30.9627 74.9563 30.7573 74.6637C30.5519 74.3711 30.4061 74.0409 30.3284 73.6919C30.2506 73.343 30.2423 72.9821 30.304 72.63L32.962 57.43C33.0235 57.0778 33.1538 56.7411 33.3455 56.4392C33.5371 56.1373 33.7864 55.8762 34.079 55.6707C34.3716 55.4652 34.7019 55.3193 35.0509 55.2415C35.3999 55.1636 35.7608 55.1553 36.113 55.217L39.689 55.842L36.092 76.406Z" fill="#CFCFCF"/>
<path d="M51.64 54.176L51.797 54.124L51.714 52.649L40.851 50.524L35.186 82.42C35.1373 82.7278 35.2129 83.0423 35.3962 83.2943C35.5794 83.5464 35.8552 83.7153 36.163 83.764L59.696 88.084C60.0017 88.1326 60.3142 88.0586 60.5657 87.8781C60.8172 87.6976 60.9872 87.4252 61.039 87.12L60.39 80.483L51.64 54.176Z" fill="#F4C734"/>
<path d="M52.184 54.66L62.708 85.593C62.4781 85.6668 62.2653 85.7856 62.082 85.9426C61.8986 86.0996 61.7484 86.2915 61.6401 86.5072C61.5318 86.7229 61.4676 86.958 61.4512 87.1988C61.4348 87.4397 61.4666 87.6813 61.5447 87.9097C61.6228 88.1381 61.7457 88.3486 61.9061 88.5289C62.0665 88.7093 62.2612 88.8559 62.4789 88.9601C62.6966 89.0643 62.9329 89.1241 63.174 89.1359C63.4151 89.1477 63.6561 89.1114 63.883 89.029L87.941 80.844C88.1706 80.7704 88.3832 80.6519 88.5665 80.4953C88.7498 80.3386 88.9 80.147 89.0084 79.9317C89.1168 79.7164 89.1813 79.4816 89.1979 79.2411C89.2146 79.0006 89.1832 78.7591 89.1056 78.5309C89.0279 78.3027 88.9056 78.0922 88.7457 77.9117C88.5858 77.7313 88.3915 77.5845 88.1743 77.48C87.957 77.3755 87.7211 77.3153 87.4804 77.3029C87.2396 77.2905 86.9988 77.3263 86.772 77.408L85.721 74.315L89.338 73.085C90.7048 72.6194 91.8309 71.6301 92.4685 70.3345C93.106 69.0388 93.203 67.5431 92.738 66.176L87.178 49.849C86.9477 49.1719 86.5862 48.5468 86.1143 48.0095C85.6423 47.4721 85.0691 47.0331 84.4274 46.7173C83.7857 46.4016 83.0881 46.2154 82.3744 46.1693C81.6607 46.1233 80.9449 46.2183 80.268 46.449L76.652 47.679L76.244 46.479L52.184 54.66ZM87.3 69.937L84.543 70.877L77.821 51.115L80.578 50.175C81.2616 49.9426 82.0095 49.9911 82.6573 50.3099C83.3052 50.6287 83.8 51.1916 84.033 51.875L89.003 66.482C89.1185 66.8206 89.1661 67.1786 89.1432 67.5357C89.1203 67.8927 89.0272 68.2417 88.8693 68.5628C88.7114 68.8838 88.4918 69.1706 88.2231 69.4067C87.9543 69.6429 87.6417 69.8237 87.303 69.939L87.3 69.937Z" fill="#CFCFCF"/>
<path d="M76.318 45.991L51.64 54.176L61.818 84.77C61.9382 85.0688 62.1678 85.3106 62.4601 85.446C62.7523 85.5815 63.0852 85.6004 63.391 85.499L86.109 78.032C86.2604 77.9893 86.4016 77.9162 86.5239 77.8173C86.6462 77.7183 86.7471 77.5955 86.8206 77.4564C86.894 77.3172 86.9383 77.1646 86.951 77.0077C86.9636 76.8509 86.9442 76.6931 86.894 76.544L76.318 45.991Z" fill="#F4C734"/>
<path d="M51.7499 51.998C51.9156 50.6616 52.5787 49.4367 53.6071 48.5674C54.6355 47.698 55.9536 47.248 57.2989 47.307C57.4053 47.1447 57.5198 46.9878 57.6419 46.837C57.4981 46.7902 57.3519 46.7508 57.2039 46.719C55.8846 46.5553 54.5465 46.6349 53.2559 46.954C52.3557 45.9191 51.1805 45.1605 49.8667 44.7661C48.5529 44.3717 47.1543 44.3577 45.8328 44.7256C44.5114 45.0936 43.3213 45.8285 42.4005 46.8452C41.4796 47.8619 40.8657 49.1187 40.6299 50.47L51.7169 52.64C51.7229 52.431 51.7199 52.212 51.7499 51.998V51.998Z" fill="#F9F2CC"/>
<path d="M71.6179 28.364C72.9158 28.364 73.9679 27.3119 73.9679 26.014C73.9679 24.7161 72.9158 23.664 71.6179 23.664C70.3201 23.664 69.2679 24.7161 69.2679 26.014C69.2679 27.3119 70.3201 28.364 71.6179 28.364Z" fill="#F9F2CC"/>
<path d="M61.0409 38.94C63.6367 38.94 65.7409 36.8357 65.7409 34.24C65.7409 31.6442 63.6367 29.54 61.0409 29.54C58.4452 29.54 56.3409 31.6442 56.3409 34.24C56.3409 36.8357 58.4452 38.94 61.0409 38.94Z" fill="#F9F2CC"/>
<path d="M44.5899 38.94C46.5367 38.94 48.1149 37.3618 48.1149 35.415C48.1149 33.4682 46.5367 31.89 44.5899 31.89C42.6431 31.89 41.0649 33.4682 41.0649 35.415C41.0649 37.3618 42.6431 38.94 44.5899 38.94Z" fill="#F9F2CC"/>
<path d="M37.539 28.364C38.8368 28.364 39.889 27.3119 39.889 26.014C39.889 24.7161 38.8368 23.664 37.539 23.664C36.2411 23.664 35.189 24.7161 35.189 26.014C35.189 27.3119 36.2411 28.364 37.539 28.364Z" fill="#F9F2CC"/>
<path d="M51.748 51.999C51.654 52.717 51.6705 53.4451 51.797 54.158C51.857 54.511 52.041 54.447 52.311 54.371C52.962 54.185 53.604 53.932 54.255 53.709C54.5499 53.6086 54.8726 53.6293 55.1522 53.7668C55.4319 53.9043 55.6454 54.1471 55.746 54.442L56.486 56.62C56.6953 57.2818 57.1405 57.8435 57.737 58.1984C58.3334 58.5533 59.0395 58.6767 59.721 58.545C60.0926 58.46 60.4422 58.298 60.7472 58.0694C61.0522 57.8407 61.3058 57.5506 61.4916 57.2178C61.6774 56.8849 61.7912 56.5168 61.8257 56.1372C61.8602 55.7575 61.8147 55.3749 61.692 55.014L62.227 56.585C62.4371 57.246 62.8827 57.8068 63.479 58.1609C64.0754 58.5151 64.781 58.6379 65.462 58.506C65.8336 58.421 66.1832 58.259 66.4882 58.0303C66.7933 57.8017 67.0469 57.5116 67.2328 57.1788C67.4186 56.846 67.5326 56.4779 67.5673 56.0983C67.6019 55.7187 67.5565 55.336 67.434 54.975L66.058 50.934C65.9579 50.6391 65.9789 50.3165 66.1166 50.0371C66.2542 49.7577 66.4971 49.5444 66.792 49.444L75.992 46.315C75.5507 45.0162 74.7505 43.869 73.6839 43.0064C72.6174 42.1438 71.3283 41.6011 69.9659 41.4412C68.6036 41.2813 67.2238 41.5107 65.9865 42.1029C64.7492 42.695 63.705 43.6257 62.975 44.787C61.8845 44.5756 60.7554 44.7038 59.7401 45.1542C58.7248 45.6047 57.8721 46.3557 57.297 47.306C55.9543 47.2589 54.6421 47.7134 53.6162 48.581C52.5904 49.4486 51.9243 50.6671 51.748 51.999V51.999Z" fill="#F9F2CC"/>
<path d="M68.092 26.014C68.092 26.7112 68.2987 27.3927 68.6861 27.9724C69.0734 28.5521 69.6239 29.0039 70.268 29.2707C70.9121 29.5375 71.6209 29.6073 72.3047 29.4713C72.9885 29.3353 73.6166 28.9995 74.1095 28.5066C74.6025 28.0136 74.9382 27.3855 75.0742 26.7017C75.2103 26.0179 75.1405 25.3092 74.8737 24.6651C74.6069 24.0209 74.155 23.4704 73.5754 23.0831C72.9957 22.6958 72.3142 22.489 71.617 22.489C70.6821 22.489 69.7855 22.8604 69.1244 23.5215C68.4634 24.1825 68.092 25.0791 68.092 26.014ZM72.792 26.014C72.792 26.2464 72.7231 26.4736 72.594 26.6668C72.4648 26.86 72.2813 27.0106 72.0666 27.0996C71.8519 27.1885 71.6157 27.2118 71.3877 27.1664C71.1598 27.1211 70.9505 27.0092 70.7861 26.8449C70.6218 26.6805 70.5099 26.4712 70.4646 26.2432C70.4192 26.0153 70.4425 25.7791 70.5314 25.5644C70.6204 25.3497 70.771 25.1661 70.9642 25.037C71.1574 24.9079 71.3846 24.839 71.617 24.839C71.9286 24.839 72.2275 24.9628 72.4478 25.1832C72.6682 25.4035 72.792 25.7024 72.792 26.014V26.014Z" fill="black"/>
<path d="M61.042 28.365C59.8798 28.365 58.7437 28.7096 57.7774 29.3553C56.8111 30.0009 56.058 30.9186 55.6132 31.9923C55.1685 33.066 55.0521 34.2475 55.2789 35.3873C55.5056 36.5272 56.0652 37.5742 56.887 38.396C57.7088 39.2177 58.7558 39.7774 59.8956 40.0041C61.0354 40.2308 62.2169 40.1144 63.2906 39.6697C64.3643 39.225 65.282 38.4718 65.9277 37.5055C66.5733 36.5392 66.918 35.4032 66.918 34.241C66.918 33.4693 66.766 32.7053 66.4707 31.9923C66.1754 31.2794 65.7426 30.6317 65.1969 30.086C64.6513 29.5404 64.0035 29.1076 63.2906 28.8123C62.5777 28.517 61.8136 28.365 61.042 28.365ZM61.042 37.765C60.3447 37.7652 59.663 37.5586 59.0832 37.1713C58.5034 36.7841 58.0514 36.2336 57.7845 35.5894C57.5176 34.9453 57.4477 34.2364 57.5836 33.5525C57.7196 32.8687 58.0554 32.2405 58.5484 31.7474C59.0414 31.2544 59.6696 30.9187 60.3535 30.7827C61.0374 30.6467 61.7462 30.7166 62.3904 30.9835C63.0345 31.2504 63.585 31.7024 63.9723 32.2822C64.3596 32.8621 64.5662 33.5437 64.566 34.241C64.5657 35.1755 64.1943 36.0717 63.5335 36.7325C62.8727 37.3934 61.9765 37.7647 61.042 37.765V37.765Z" fill="black"/>
<path d="M44.589 40.115C45.5185 40.115 46.4272 39.8394 47.2002 39.3229C47.9731 38.8065 48.5755 38.0725 48.9312 37.2136C49.2869 36.3548 49.38 35.4098 49.1987 34.4981C49.0173 33.5864 48.5697 32.7489 47.9124 32.0916C47.2551 31.4343 46.4176 30.9867 45.5059 30.8053C44.5942 30.624 43.6492 30.7171 42.7904 31.0728C41.9316 31.4285 41.1975 32.0309 40.6811 32.8038C40.1646 33.5768 39.889 34.4855 39.889 35.415C39.889 36.6615 40.3842 37.857 41.2656 38.7384C42.147 39.6199 43.3425 40.115 44.589 40.115V40.115ZM44.589 33.064C45.0538 33.064 45.5081 33.2019 45.8946 33.4601C46.281 33.7183 46.5822 34.0853 46.7601 34.5147C46.938 34.9441 46.9845 35.4166 46.8938 35.8725C46.8031 36.3283 46.5793 36.7471 46.2507 37.0757C45.922 37.4044 45.5033 37.6282 45.0474 37.7189C44.5916 37.8095 44.1191 37.763 43.6897 37.5851C43.2603 37.4073 42.8932 37.1061 42.635 36.7196C42.3768 36.3332 42.239 35.8788 42.239 35.414C42.2392 34.7909 42.4869 34.1935 42.9276 33.753C43.3683 33.3125 43.9659 33.065 44.589 33.065V33.064Z" fill="black"/>
<path d="M37.538 22.489C36.8408 22.489 36.1593 22.6958 35.5796 23.0831C34.9999 23.4704 34.5481 24.0209 34.2813 24.6651C34.0145 25.3092 33.9447 26.0179 34.0807 26.7017C34.2167 27.3855 34.5525 28.0136 35.0455 28.5066C35.5384 28.9995 36.1665 29.3353 36.8503 29.4713C37.5341 29.6073 38.2429 29.5375 38.887 29.2707C39.5311 29.0039 40.0816 28.5521 40.4689 27.9724C40.8563 27.3927 41.063 26.7112 41.063 26.014C41.063 25.0791 40.6916 24.1825 40.0306 23.5215C39.3695 22.8604 38.4729 22.489 37.538 22.489V22.489ZM37.538 27.189C37.3056 27.189 37.0784 27.1201 36.8852 26.991C36.692 26.8619 36.5414 26.6784 36.4524 26.4637C36.3635 26.249 36.3402 26.0127 36.3856 25.7848C36.4309 25.5569 36.5428 25.3475 36.7072 25.1832C36.8715 25.0188 37.0808 24.9069 37.3088 24.8616C37.5367 24.8163 37.773 24.8395 37.9877 24.9285C38.2024 25.0174 38.3859 25.168 38.515 25.3612C38.6441 25.5544 38.713 25.7816 38.713 26.014C38.713 26.3256 38.5892 26.6245 38.3689 26.8449C38.1485 27.0652 37.8496 27.189 37.538 27.189V27.189Z" fill="black"/>
<path d="M66.0641 60.2371L68.2879 59.4805L75.8891 81.8229L73.6653 82.5795L66.0641 60.2371Z" fill="black"/>
<path d="M60.0491 62.2819L62.2729 61.5253L69.8741 83.8677L67.6503 84.6243L60.0491 62.2819Z" fill="black"/>
<path d="M72.0809 58.1902L74.3048 57.4337L81.9052 79.7763L79.6813 80.5328L72.0809 58.1902Z" fill="black"/>
<path d="M30.795 80.358L34.108 80.937L34.002 81.537C33.3308 81.6942 32.7346 82.0784 32.3142 82.6246C31.8937 83.1708 31.675 83.8455 31.6948 84.5345C31.7147 85.2235 31.972 85.8845 32.4233 86.4056C32.8745 86.9267 33.4919 87.2759 34.171 87.394L59.201 91.771C59.371 91.8014 59.5433 91.8168 59.716 91.817C60.288 91.8145 60.8473 91.648 61.3276 91.3373C61.8079 91.0266 62.1891 90.5847 62.426 90.064C62.9491 90.1835 63.4952 90.1533 64.002 89.977L88.06 81.792C88.7118 81.5696 89.2669 81.1291 89.6315 80.5448C89.9962 79.9605 90.148 79.2683 90.0614 78.5851C89.9748 77.9018 89.655 77.2694 89.1561 76.7946C88.6572 76.3198 88.0097 76.0317 87.323 75.979L87.123 75.4L90.306 74.317C91.9668 73.7495 93.3348 72.5465 94.11 70.9718C94.8851 69.3972 95.0042 67.5793 94.441 65.917L88.892 49.593C88.6121 48.7699 88.1728 48.0099 87.5991 47.3566C87.0254 46.7032 86.3287 46.1693 85.5486 45.7853C84.7686 45.4013 83.9205 45.1748 83.0529 45.1186C82.1852 45.0625 81.315 45.1778 80.492 45.458L77.307 46.541L77.101 45.935C76.6089 44.4884 75.733 43.2026 74.5669 42.2152C73.4007 41.2277 71.9882 40.5756 70.4803 40.3287C68.9723 40.0817 67.4256 40.2491 66.0054 40.8129C64.5852 41.3768 63.3448 42.3159 62.417 43.53C61.4029 43.4544 60.3853 43.617 59.4452 44.0047C58.5052 44.3924 57.6689 44.9945 57.003 45.763C56.7493 45.6784 56.49 45.6116 56.227 45.563C55.3583 45.4126 54.4683 45.4367 53.609 45.634C52.5049 44.5772 51.1344 43.8403 49.6439 43.502C48.1535 43.1637 46.5991 43.2367 45.1469 43.7134C43.6948 44.19 42.3995 45.0522 41.3994 46.208C40.3993 47.3637 39.7321 48.7695 39.469 50.275L39.359 50.906L36.041 50.33C35.1845 50.1801 34.3069 50.2003 33.4583 50.3896C32.6097 50.5788 31.8067 50.9335 31.0952 51.4332C30.3837 51.9329 29.7776 52.5679 29.3115 53.3019C28.8454 54.0359 28.5286 54.8545 28.379 55.711L25.417 72.696C25.1169 74.4255 25.5149 76.2034 26.5239 77.6397C27.5328 79.0761 29.0703 80.0537 30.799 80.358H30.795ZM50.509 53.448C50.5557 53.892 50.6478 54.3299 50.784 54.755L41.362 53.11L41.582 51.853L50.509 53.448ZM53.423 55.239L54.635 54.828L55.047 56.04L53.834 56.452L53.423 55.239ZM35.138 75.046L32.717 74.623C32.5167 74.588 32.3252 74.5138 32.1536 74.4047C31.982 74.2956 31.8336 74.1537 31.717 73.9871C31.6003 73.8206 31.5176 73.6326 31.4737 73.4341C31.4298 73.2355 31.4254 73.0303 31.461 72.83L34.117 57.63C34.189 57.2264 34.4177 56.8677 34.7533 56.6322C35.0888 56.3967 35.5039 56.3035 35.908 56.373L38.326 56.796L35.138 75.046ZM59.606 89.461L34.576 85.082C34.4932 85.0675 34.414 85.0368 34.3431 84.9917C34.2722 84.9467 34.2108 84.888 34.1625 84.8192C34.1142 84.7504 34.08 84.6728 34.0617 84.5907C34.0434 84.5087 34.0415 84.4238 34.056 84.341C34.0705 84.2582 34.1012 84.1791 34.1463 84.1082C34.1913 84.0372 34.25 83.9758 34.3188 83.9276C34.3876 83.8793 34.4652 83.845 34.5473 83.8267C34.6293 83.8085 34.7142 83.8065 34.797 83.821C34.949 83.8476 35.1047 83.844 35.2554 83.8104C35.406 83.7768 35.5485 83.7139 35.6748 83.6252C35.8011 83.5365 35.9087 83.4238 35.9914 83.2936C36.0741 83.1633 36.1304 83.018 36.157 82.866L40.957 55.414L51.639 57.282L59.828 81.361L58.87 86.836C58.8434 86.9882 58.8471 87.1441 58.8808 87.2948C58.9145 87.4455 58.9776 87.5881 59.0665 87.7144C59.1554 87.8408 59.2683 87.9483 59.3988 88.0309C59.5293 88.1136 59.6748 88.1697 59.827 88.196C59.912 88.2083 59.9936 88.2374 60.0671 88.2818C60.1406 88.3262 60.2044 88.3849 60.2548 88.4545C60.3051 88.524 60.341 88.603 60.3603 88.6866C60.3796 88.7703 60.3818 88.857 60.367 88.9415C60.3521 89.0261 60.3204 89.1068 60.2737 89.1789C60.227 89.2509 60.1664 89.3129 60.0953 89.3611C60.0242 89.4093 59.9442 89.4427 59.86 89.4593C59.7757 89.476 59.689 89.4755 59.605 89.458L59.606 89.461ZM87.706 78.761C87.7332 78.8406 87.7444 78.9248 87.739 79.0087C87.7336 79.0926 87.7117 79.1746 87.6745 79.2501C87.6374 79.3255 87.5857 79.3929 87.5224 79.4483C87.4592 79.5037 87.3856 79.5461 87.306 79.573L63.247 87.756C63.0861 87.8111 62.91 87.7999 62.7573 87.7251C62.6047 87.6503 62.488 87.5179 62.433 87.357C62.3779 87.1962 62.3891 87.02 62.4639 86.8674C62.5387 86.7147 62.6711 86.5981 62.832 86.543C62.9781 86.4933 63.113 86.4153 63.2289 86.3135C63.3449 86.2117 63.4397 86.088 63.5078 85.9496C63.576 85.8111 63.6162 85.6606 63.6262 85.5066C63.6362 85.3526 63.6157 85.1981 63.566 85.052L54.592 58.67L55.992 58.194C56.3322 58.6587 56.7714 59.0418 57.2779 59.3158C57.7844 59.5898 58.3455 59.7477 58.9205 59.7782C59.4956 59.8086 60.0702 59.7108 60.6028 59.4918C61.1354 59.2728 61.6126 58.9382 62 58.512C62.6085 59.1635 63.422 59.5869 64.3047 59.7115C65.1875 59.8361 66.0863 59.6546 66.8515 59.197C67.6166 58.7395 68.202 58.0336 68.5099 57.197C68.8179 56.3604 68.8299 55.4435 68.544 54.599L68.337 53.994L76.424 51.242L85.4 77.625C85.4497 77.7712 85.5277 77.9062 85.6296 78.0223C85.7315 78.1383 85.8552 78.2331 85.9938 78.3013C86.1324 78.3695 86.283 78.4097 86.4372 78.4196C86.5913 78.4295 86.7458 78.4089 86.892 78.359C87.0524 78.305 87.2278 78.3167 87.3796 78.3917C87.5314 78.4667 87.6473 78.5988 87.702 78.759L87.706 78.761ZM67.173 50.561L75.263 47.81L75.675 49.023L67.587 51.768L67.173 50.561ZM79.238 52.206L81.562 51.415C81.7545 51.3493 81.9581 51.3222 82.161 51.3354C82.364 51.3485 82.5624 51.4015 82.7449 51.4914C82.9273 51.5813 83.0902 51.7064 83.2243 51.8594C83.3583 52.0124 83.4608 52.1903 83.526 52.383L88.496 66.989C88.6279 67.3777 88.6002 67.8029 88.4188 68.1711C88.2375 68.5394 87.9175 68.8206 87.529 68.953L85.205 69.744L79.238 52.206ZM81.256 47.689C82.3285 47.3242 83.5021 47.4003 84.5185 47.9006C85.5349 48.401 86.311 49.2845 86.676 50.357L92.225 66.679C92.5881 67.7512 92.5111 68.9236 92.0109 69.9391C91.5108 70.9546 90.6283 71.7303 89.557 72.096L86.374 73.179L85.957 71.966L88.283 71.175C88.7679 71.0099 89.2154 70.7508 89.6002 70.4127C89.9849 70.0745 90.2993 69.6639 90.5253 69.2042C90.7513 68.7445 90.8846 68.2449 90.9175 67.7337C90.9504 67.2225 90.8822 66.7099 90.717 66.225L85.742 51.618C85.4086 50.6398 84.7005 49.8338 83.7733 49.3773C82.8461 48.9207 81.7756 48.8509 80.797 49.183L78.473 49.974L78.062 48.762L81.256 47.689ZM58.308 47.924C58.7581 47.1788 59.4261 46.5897 60.2217 46.2362C61.0173 45.8826 61.9022 45.7817 62.757 45.947C62.9896 45.9917 63.2303 45.9649 63.4475 45.8703C63.6647 45.7758 63.8482 45.6177 63.974 45.417C64.7098 44.2336 65.8339 43.3425 67.154 42.896C68.4886 42.4439 69.9386 42.4684 71.2571 42.9655C72.5756 43.4625 73.681 44.4014 74.385 45.622L65.299 48.714C65.0046 48.8152 64.7625 49.029 64.6256 49.3085C64.4887 49.5881 64.4684 49.9105 64.569 50.205L66.317 55.356C66.4331 55.7399 66.3956 56.1539 66.2126 56.5107C66.0295 56.8676 65.7151 57.1394 65.3356 57.269C64.956 57.3987 64.541 57.3759 64.1779 57.2056C63.8148 57.0353 63.532 56.7307 63.389 56.356L62.804 54.63C62.7581 54.4792 62.6824 54.3392 62.5813 54.2182C62.4803 54.0973 62.3559 53.9979 62.2156 53.926C62.0753 53.8542 61.922 53.8112 61.7648 53.7998C61.6076 53.7884 61.4497 53.8087 61.3005 53.8596C61.1514 53.9105 61.0139 53.9909 60.8965 54.0959C60.779 54.201 60.6838 54.3286 60.6167 54.4712C60.5495 54.6139 60.5118 54.7685 60.5057 54.926C60.4995 55.0835 60.5251 55.2406 60.581 55.388C60.6524 55.582 60.6843 55.7882 60.6747 55.9947C60.6651 56.2011 60.6143 56.4035 60.5253 56.59C60.4362 56.7765 60.3107 56.9433 60.1562 57.0805C60.0017 57.2177 59.8212 57.3226 59.6255 57.389C59.4298 57.4553 59.2228 57.4818 59.0167 57.4669C58.8105 57.452 58.6095 57.396 58.4254 57.3021C58.2413 57.2083 58.0778 57.0785 57.9446 56.9205C57.8114 56.7625 57.7113 56.5794 57.65 56.382L56.475 52.945C56.3744 52.6504 56.161 52.4077 55.8816 52.2702C55.6023 52.1328 55.2798 52.1119 54.985 52.212L52.836 52.943C52.7892 52.0198 53.0438 51.1063 53.5615 50.3405C54.0792 49.5746 54.8318 48.9978 55.706 48.697C56.2014 48.5283 56.7241 48.4537 57.247 48.477C57.4576 48.4876 57.6671 48.4407 57.8531 48.3413C58.0391 48.242 58.1946 48.0939 58.303 47.913L58.308 47.924ZM48.833 45.742C50.2086 45.978 51.4594 46.6851 52.371 47.742C52.4329 47.8085 52.5024 47.8676 52.578 47.918C51.6624 48.7768 51.0079 49.8766 50.69 51.091L42.112 49.555C42.6184 48.241 43.5646 47.143 44.7895 46.448C46.0143 45.7529 47.4421 45.5038 48.83 45.743L48.833 45.742ZM27.728 73.1L30.7 56.114C30.7963 55.5614 31.0006 55.0332 31.3012 54.5596C31.6018 54.0861 31.9929 53.6764 32.452 53.3541C32.9111 53.0318 33.4292 52.8032 33.9768 52.6814C34.5243 52.5595 35.0905 52.5468 35.643 52.644L38.955 53.222L38.735 54.484L36.317 54.061C35.2981 53.8827 34.2502 54.1164 33.4037 54.7107C32.5571 55.305 31.9814 56.2112 31.803 57.23L29.145 72.43C29.0568 72.9346 29.069 73.4517 29.1807 73.9516C29.2924 74.4515 29.5016 74.9245 29.7961 75.3436C30.0907 75.7627 30.4649 76.1196 30.8974 76.3941C31.33 76.6685 31.8123 76.855 32.317 76.943L34.735 77.366L34.517 78.63L31.194 78.045C30.0795 77.8472 29.0889 77.2156 28.4392 76.2887C27.7895 75.3618 27.5338 74.2152 27.728 73.1Z" fill="black"/>
<path d="M46.2 85.5455L50.2664 62.2985L52.5822 62.7036L48.5158 85.9506L46.2 85.5455Z" fill="black"/>
<path d="M52.458 86.6501L54.7368 72.8267L57.0545 73.2087L54.7757 87.0322L52.458 86.6501Z" fill="black"/>
<path d="M39.943 84.4563L44.0005 61.2077L46.3165 61.6119L42.259 84.8605L39.943 84.4563Z" fill="black"/>
</svg>
