<svg width="119" height="119" viewBox="0 0 119 119" fill="none" xmlns="http://www.w3.org/2000/svg">
<path d="M59.5 119C92.3609 119 119 92.3609 119 59.5C119 26.6391 92.3609 0 59.5 0C26.6391 0 0 26.6391 0 59.5C0 92.3609 26.6391 119 59.5 119Z" fill="#F2F3F6"/>
<path d="M63.018 66.867C62.046 67.418 60.9478 67.7077 59.8305 67.7077C58.7132 67.7077 57.615 67.418 56.643 66.867L42.212 58.017C42.212 58.017 40.912 57.217 40.912 59.027V67.865C40.912 72.521 49.383 77.54 59.832 77.54C70.281 77.54 78.752 72.521 78.752 67.865V58.529C78.752 57.077 77.826 57.787 77.826 57.787L63.018 66.867Z" fill="#6C61F6"/>
<path d="M83.831 50.976C84.0768 50.8759 84.2873 50.7048 84.4354 50.4846C84.5836 50.2644 84.6627 50.0049 84.6627 49.7395C84.6627 49.4741 84.5836 49.2147 84.4354 48.9944C84.2873 48.7742 84.0768 48.6031 83.831 48.503L61.847 37.51C61.2277 37.1753 60.5349 37.0001 59.831 37.0001C59.1271 37.0001 58.4342 37.1753 57.815 37.51L35.832 48.503C35.5861 48.6031 35.3757 48.7742 35.2275 48.9944C35.0794 49.2147 35.0002 49.4741 35.0002 49.7395C35.0002 50.0049 35.0794 50.2644 35.2275 50.4846C35.3757 50.7048 35.5861 50.8759 35.832 50.976L57.815 64.458C58.4342 64.7927 59.1271 64.9679 59.831 64.9679C60.5349 64.9679 61.2277 64.7927 61.847 64.458" fill="#6C61F6"/>
<path d="M82.921 70.96V56.074C82.921 56.074 82.931 55.369 82.513 55.602C82.0095 55.8677 81.5253 56.1684 81.064 56.502C80.9595 56.6338 80.8827 56.7854 80.8382 56.9476C80.7937 57.1098 80.7824 57.2793 80.805 57.446V70.967C80.7979 71.0389 80.7715 71.1075 80.7286 71.1656C80.6856 71.2237 80.6277 71.2691 80.561 71.297C80.0737 71.583 79.6941 72.0215 79.4809 72.5447C79.2677 73.068 79.2327 73.647 79.3814 74.1921C79.5302 74.7372 79.8542 75.2182 80.3036 75.5607C80.753 75.9033 81.3027 76.0883 81.8677 76.0872C82.4328 76.0861 82.9817 75.899 83.4298 75.5547C83.8778 75.2104 84.2001 74.7282 84.3467 74.1825C84.4933 73.6368 84.4561 73.058 84.2409 72.5356C84.0257 72.0131 83.6444 71.5761 83.156 71.292C83.0896 71.2643 83.0324 71.2185 82.9908 71.1598C82.9492 71.101 82.925 71.0318 82.921 70.96Z" fill="#6C61F6"/>
</svg>
