<svg width="119" height="119" viewBox="0 0 119 119" fill="none" xmlns="http://www.w3.org/2000/svg">
<path d="M59.5 119C92.3609 119 119 92.3609 119 59.5C119 26.6391 92.3609 0 59.5 0C26.6391 0 0 26.6391 0 59.5C0 92.3609 26.6391 119 59.5 119Z" fill="#F2F3F6"/>
<path d="M46.556 36.384H80.607L88.334 70.492L85.504 70.506L85.437 82.548L88.354 82.563L88.335 84.575H42.305C37.949 84.237 38.337 76.494 38.105 74.421L41.983 39.749C41.998 38.208 43.601 36.384 46.558 36.384H46.556Z" fill="#39D2C0"/>
<path d="M46.556 36.383H49.817L46.848 84.574H42.303C36.965 83.974 36.761 75.474 38.495 70.915L41.981 39.747C41.996 38.206 43.599 36.382 46.556 36.382V36.383Z" fill="#1A91A1"/>
<path d="M42.897 70.4869H87.451C86.4678 72.3741 85.9544 74.4706 85.9544 76.5984C85.9544 78.7263 86.4678 80.8228 87.451 82.71H42.897C38.121 82.711 38.121 70.4869 42.897 70.4869Z" fill="white"/>
<path d="M39.658 73.848H86.258C86.2306 73.9706 86.2053 74.093 86.182 74.215H39.569C39.596 74.091 39.625 73.968 39.658 73.848ZM86.042 75.134C86.027 75.256 86.015 75.379 86.004 75.501H39.365C39.376 75.378 39.391 75.256 39.407 75.134H86.042ZM85.957 76.42V76.787H39.316V76.42H85.957ZM86.005 77.705C86.0157 77.8276 86.0283 77.95 86.043 78.072H39.408C39.392 77.95 39.378 77.8276 39.366 77.705H86.005ZM86.185 78.991C86.2083 79.1136 86.2337 79.236 86.261 79.358H39.661C39.6287 79.2362 39.5987 79.1138 39.571 78.991H86.185ZM86.497 80.277C86.533 80.3996 86.571 80.522 86.611 80.644H40.131C40.0729 80.5234 40.0185 80.401 39.968 80.277H86.497ZM86.942 81.563C86.991 81.685 87.042 81.808 87.093 81.93H41.029C40.9102 81.8152 40.7993 81.6926 40.697 81.563H86.941H86.942Z" fill="#ECF0F1"/>
<path d="M56.45 76.75H63.412V92.195L59.902 87.156L56.45 92.195V76.75Z" fill="#FF5B61"/>
<path d="M34.934 57.996L82.134 41.112C87.421 40.674 89.004 51.429 85.534 52.444L39.422 69.752C36.803 70.739 34.242 66.527 34.014 62.398C33.893 60.205 34.489 60.271 36.987 59.293L34.934 57.993V57.996Z" fill="white"/>
<path d="M87.022 50.835C86.92 51.2016 86.7322 51.5387 86.4741 51.8185C86.2161 52.0983 85.8952 52.3127 85.538 52.444L39.422 69.752C39.033 69.891 38.6146 69.9271 38.2075 69.8571C37.8004 69.787 37.4182 69.613 37.098 69.352C37.7018 69.4559 38.3224 69.398 38.8966 69.1842C39.4708 68.9705 39.9781 68.6084 40.367 68.135L87.022 50.835Z" fill="#ECF0F1"/>
<path d="M65.911 46.92C69.417 47.425 71.921 55.748 70.169 58.212L63.796 60.604C64.952 56.704 62.433 50.195 58.931 49.419L65.911 46.92Z" fill="#FFBA1B"/>
<path d="M77.202 63.763L70.169 58.212L63.796 60.604L69.118 66.789L71.577 63.114L77.202 63.763Z" fill="#F5A209"/>
<path d="M36.679 59.421L36.987 59.292C38.914 59.682 42.295 66.592 38.587 68.123C35.952 69.213 34.725 63.499 34.821 61.604C35.95 60.795 37.17 64.204 36.779 64.285L35.997 64.44C35.997 64.44 36.021 65.934 36.779 66.04L39.804 65.061C39.804 65.061 39.558 60.661 36.675 59.424L36.679 59.421Z" fill="#ECF0F1"/>
<path d="M47.559 73.05H86.459C86.7117 72.171 87.0424 71.3162 87.447 70.496V70.488H42.897C38.475 70.488 38.144 80.956 41.907 82.518C40.633 78.913 41.651 73.051 44.961 73.051H47.561L47.559 73.05Z" fill="#ECF0F1"/>
<path d="M62.4 34.937L62.783 41.637C60.606 45.327 53.656 48.066 46.814 47.997C40.293 47.931 33.86 45.226 32.092 41.818L32.056 35.258L46.625 39.28L62.4 34.942V34.937Z" fill="#666666"/>
<path d="M23.068 32.607L46.625 24.649L70.182 32.607L46.625 40.565L23.068 32.607Z" fill="#807D7D"/>
<path d="M31.441 48.899L30.363 55.807C30.346 55.919 30.725 56.072 30.906 55.847C30.9415 55.9021 30.9909 55.9468 31.0491 55.9769C31.1073 56.0069 31.1724 56.0212 31.2378 56.0182C31.3032 56.0153 31.3668 55.9953 31.4221 55.9601C31.4774 55.925 31.5225 55.876 31.553 55.818C31.5804 55.8743 31.6228 55.9218 31.6755 55.9555C31.7283 55.9892 31.7893 56.0076 31.8518 56.0089C31.9144 56.0101 31.976 55.9941 32.0301 55.9625C32.0841 55.931 32.1283 55.8851 32.158 55.83C32.339 56.055 32.744 55.898 32.714 55.71L31.642 48.895C31.6341 48.8745 31.62 48.8569 31.6017 48.8448C31.5834 48.8326 31.5618 48.8264 31.5399 48.8271C31.5179 48.8277 31.4967 48.8352 31.4791 48.8485C31.4616 48.8617 31.4486 48.8801 31.442 48.901L31.441 48.899Z" fill="#FF5B61"/>
<path d="M46.782 30.591C46.8159 30.5808 46.8514 30.5775 46.8866 30.5811C46.9217 30.5848 46.9559 30.5953 46.987 30.6121C47.0181 30.6289 47.0456 30.6517 47.0679 30.6791C47.0902 30.7065 47.1069 30.7381 47.117 30.772C47.1271 30.8058 47.1304 30.8414 47.1268 30.8766C47.1232 30.9117 47.1127 30.9458 47.0959 30.9769C47.079 31.0081 47.0563 31.0355 47.0288 31.0579C47.0014 31.0802 46.9699 31.0969 46.936 31.107L31.785 35.662V48.874C31.785 48.9454 31.7566 49.014 31.706 49.0645C31.6555 49.1151 31.5869 49.1435 31.5155 49.1435C31.444 49.1435 31.3754 49.1151 31.3249 49.0645C31.2744 49.014 31.246 48.9454 31.246 48.874V35.462C31.2459 35.404 31.2646 35.3476 31.2992 35.3011C31.3338 35.2546 31.3825 35.2206 31.438 35.204L46.782 30.591Z" fill="white"/>
<path d="M31.539 49.7759C31.7504 49.7759 31.9571 49.7132 32.1329 49.5958C32.3087 49.4783 32.4457 49.3114 32.5266 49.116C32.6075 48.9207 32.6287 48.7058 32.5874 48.4984C32.5462 48.291 32.4444 48.1005 32.2949 47.951C32.1454 47.8015 31.9549 47.6997 31.7475 47.6585C31.5402 47.6172 31.3252 47.6384 31.1299 47.7193C30.9345 47.8002 30.7676 47.9372 30.6501 48.113C30.5327 48.2888 30.47 48.4955 30.47 48.7069C30.4705 48.9903 30.5833 49.2619 30.7837 49.4623C30.984 49.6626 31.2556 49.7754 31.539 49.7759Z" fill="white"/>
<path d="M32.406 48.435C32.4062 48.5706 32.3795 48.7048 32.3277 48.8301C32.2759 48.9554 32.1999 49.0692 32.104 49.165C32.0082 49.2609 31.8944 49.3369 31.7691 49.3887C31.6438 49.4405 31.5096 49.4671 31.374 49.467H31.354C31.1866 49.4638 31.0224 49.4199 30.8757 49.339C30.729 49.2582 30.6042 49.1429 30.512 49.003C30.5657 49.1883 30.6683 49.3556 30.8091 49.4875C30.9499 49.6193 31.1236 49.7107 31.312 49.752C31.3876 49.7685 31.4647 49.7769 31.542 49.777C31.7557 49.7767 31.9645 49.7123 32.1413 49.5923C32.3181 49.4722 32.4549 49.302 32.5341 49.1035C32.6133 48.905 32.6312 48.6873 32.5856 48.4785C32.5399 48.2697 32.4328 48.0794 32.278 47.932C32.3631 48.0849 32.4078 48.257 32.408 48.432L32.406 48.435Z" fill="#ECF0F1"/>
</svg>
