<svg width="17" height="22" viewBox="0 0 17 22" fill="none" xmlns="http://www.w3.org/2000/svg">
<g clip-path="url(#clip0)">
<path d="M11.988 7.54L14.827 7.035L16.336 5.45C16.2892 5.3477 16.2156 5.25995 16.123 5.196L8.55202 0.106C8.44842 0.0367829 8.3266 -0.000110038 8.20201 -2.32436e-07L7.57501 3.828L8.20601 5.521L9.52002 6.983L11.988 7.54Z" fill="#FF0059"/>
<path d="M4.417 7.54L2.682 5.77301L0.068 5.45001C0.0252387 5.53408 0.00199497 5.62671 0 5.721L0 15.816C0.00199497 15.9103 0.0252387 16.0029 0.068 16.087L3 15.711L4.42 13.997L5.261 10.559L4.417 7.54Z" fill="#FF0059"/>
<path d="M11.988 13.996L9.78001 14.396L8.20302 16.015L7.57501 18.644L8.20601 21.536C8.3306 21.5361 8.45242 21.4992 8.55602 21.43L16.127 16.34C16.2196 16.2761 16.2933 16.1883 16.34 16.086L14.515 14.343L11.988 13.996Z" fill="#FF0059"/>
<path d="M8.20199 5.521V0C8.07843 0.000481786 7.95774 0.0373492 7.85499 0.106L0.280993 5.2C0.188425 5.26395 0.114837 5.3517 0.0679932 5.454L4.41699 7.54L8.20199 5.521Z" fill="#FF5E95"/>
<path d="M11.992 13.996L16.341 16.086C16.3838 16.0019 16.407 15.9093 16.409 15.815V5.721C16.407 5.6267 16.3838 5.53406 16.341 5.45001L11.992 7.54V13.996Z" fill="#E50048"/>
<path d="M4.41699 13.996L0.0679932 16.086C0.114837 16.1883 0.188425 16.276 0.280993 16.34L7.85499 21.43C7.95859 21.4992 8.0804 21.5361 8.20499 21.536V16.015L4.41699 13.996Z" fill="#FF5E95"/>
<path d="M11.988 7.538V13.999L8.202 16.018L4.41699 13.999V7.538L8.202 5.519L11.988 7.538Z" fill="#FFA2C3"/>
<path d="M11.988 7.538V13.999L8.20599 16.016V5.516L11.988 7.538Z" fill="#FF5E95"/>
</g>
</svg>
