<svg width="119" height="119" viewBox="0 0 119 119" fill="none" xmlns="http://www.w3.org/2000/svg">
<path d="M59.5 119C92.3609 119 119 92.3609 119 59.5C119 26.6391 92.3609 0 59.5 0C26.6391 0 0 26.6391 0 59.5C0 92.3609 26.6391 119 59.5 119Z" fill="#F2F3F6"/>
<path d="M65.2666 67.4286C63.1184 69.6511 60.3593 71.1867 57.3384 71.8411C54.3174 72.4955 51.1703 72.2393 48.2949 71.1051C45.4195 69.9708 42.9451 68.0093 41.1845 65.4687C39.4239 62.9281 38.4563 59.9224 38.404 56.8319C38.3516 53.7413 39.217 50.7046 40.8905 48.1059C42.5641 45.5071 44.9707 43.463 47.806 42.232C50.6414 41.0011 53.778 40.6386 56.8194 41.1903C59.8608 41.7421 62.6702 43.1834 64.8924 45.3319C67.8679 48.2149 69.5783 52.1604 69.6485 56.3029C69.7186 60.4454 68.1427 64.4465 65.2666 67.4286ZM46.9974 49.7678C45.6526 51.1589 44.7505 52.9176 44.4052 54.8214C44.0599 56.7253 44.2869 58.6887 45.0575 60.4636C45.8281 62.2384 47.1077 63.7448 48.7345 64.7924C50.3612 65.84 52.2621 66.3816 54.1968 66.3489C56.1314 66.3161 58.0128 65.7104 59.6032 64.6084C61.1936 63.5063 62.4214 61.9574 63.1315 60.1575C63.8416 58.3577 64.002 56.3876 63.5925 54.4966C63.1829 52.6055 62.2218 50.8784 60.8307 49.5336C58.9638 47.7329 56.4589 46.7463 53.8656 46.7902C51.2722 46.8342 48.8022 47.905 46.9974 49.7678Z" fill="#F05228"/>
<path d="M57.4731 87.1871L51.63 87.286L51.3258 69.3206L57.1689 69.2216L57.4731 87.1871Z" fill="#F05228"/>
<path d="M63.4287 81.0236L45.4633 81.3278L45.3644 75.4846L63.3298 75.1805L63.4287 81.0236Z" fill="#F05228"/>
<path d="M66.1797 68.239C63.0891 68.239 60.0678 67.3225 57.4979 65.6054C54.9281 63.8884 52.9252 61.4478 51.7424 58.5924C50.5596 55.737 50.25 52.595 50.8529 49.5637C51.4558 46.5324 52.9441 43.7479 55.1294 41.5624C57.3148 39.3769 60.0992 37.8885 63.1305 37.2854C66.1617 36.6823 69.3038 36.9916 72.1592 38.1742C75.0147 39.3569 77.4554 41.3596 79.1726 43.9294C80.8899 46.4991 81.8065 49.5203 81.8067 52.611C81.8022 56.7542 80.1544 60.7265 77.2248 63.6563C74.2952 66.5861 70.323 68.2342 66.1797 68.239ZM66.1797 42.829C64.2448 42.829 62.3534 43.4028 60.7446 44.4777C59.1358 45.5527 57.8819 47.0806 57.1414 48.8682C56.401 50.6558 56.2072 52.6228 56.5847 54.5206C56.9622 56.4183 57.8939 58.1614 59.2621 59.5296C60.6303 60.8978 62.3735 61.8295 64.2712 62.207C66.1689 62.5845 68.1359 62.3908 69.9235 61.6503C71.7111 60.9099 73.239 59.6559 74.314 58.0471C75.389 56.4383 75.9627 54.5469 75.9627 52.612C75.9598 50.0183 74.9282 47.5316 73.0942 45.6976C71.2601 43.8635 68.7735 42.8319 66.1797 42.829Z" fill="#50C8EF"/>
<path d="M90.7907 43.628H84.9467V33.844H75.1638V28H90.7907V43.628Z" fill="#50C8EF"/>
<path d="M77.2287 45.694L73.0963 41.5616L85.8016 28.8563L89.934 32.9887L77.2287 45.694Z" fill="#50C8EF"/>
</svg>
