<svg width="16" height="16" viewBox="0 0 16 16" fill="none" xmlns="http://www.w3.org/2000/svg">
<path fill-rule="evenodd" clip-rule="evenodd" d="M2.02296 8.13794C3.79796 10.3379 6.62297 11.965 7.69797 13.983C9.31297 10.947 14.898 8.79897 14.898 4.24597C14.8439 3.27023 14.432 2.3487 13.7411 1.65759C13.0501 0.966488 12.1287 0.554351 11.153 0.5C10.4148 0.50072 9.69317 0.719379 9.07872 1.12854C8.46427 1.5377 7.9843 2.1192 7.69897 2.80005C7.41405 2.11912 6.93429 1.53749 6.31996 1.1283C5.70563 0.719098 4.98411 0.500525 4.24597 0.5C3.27025 0.554351 2.3488 0.966488 1.65788 1.65759C0.966963 2.3487 0.555067 3.27023 0.500977 4.24597C0.516798 5.4726 0.9204 6.66277 1.65398 7.646L2.02296 8.13794Z" stroke="#202E75"/>
</svg>
