<svg width="15" height="14" viewBox="0 0 15 14" fill="none" xmlns="http://www.w3.org/2000/svg">
<g clip-path="url(#clip0)">
<path fill-rule="evenodd" clip-rule="evenodd" d="M1.52296 7.63794C3.29796 9.83794 6.12297 11.465 7.19797 13.483C8.81297 10.447 14.398 8.29897 14.398 3.74597C14.3439 2.77023 13.932 1.8487 13.2411 1.15759C12.5501 0.466488 11.6287 0.0543511 10.653 0C9.91475 0.000720479 9.19317 0.219379 8.57872 0.62854C7.96427 1.0377 7.4843 1.6192 7.19897 2.30005C6.91405 1.61912 6.43429 1.03749 5.81996 0.628296C5.20563 0.219098 4.48411 0.000524619 3.74597 0C2.77025 0.0543511 1.8488 0.466488 1.15788 1.15759C0.466963 1.8487 0.0550672 2.77023 0.000976562 3.74597C0.0167983 4.9726 0.4204 6.16277 1.15398 7.146L1.52296 7.63794Z" fill="#FF0031"/>
</g>
</svg>
