<svg width="119" height="119" viewBox="0 0 119 119" fill="none" xmlns="http://www.w3.org/2000/svg">
<path d="M59.5 119C92.3609 119 119 92.3609 119 59.5C119 26.6391 92.3609 0 59.5 0C26.6391 0 0 26.6391 0 59.5C0 92.3609 26.6391 119 59.5 119Z" fill="#F2F3F6"/>
<path d="M63.969 33.334C63.2413 33.334 62.53 33.5498 61.925 33.954C61.32 34.3583 60.8485 34.9328 60.57 35.6051C60.2916 36.2773 60.2187 37.0171 60.3607 37.7307C60.5026 38.4444 60.853 39.0999 61.3675 39.6144C61.8821 40.1289 62.5376 40.4793 63.2512 40.6213C63.9649 40.7632 64.7046 40.6904 65.3769 40.4119C66.0491 40.1335 66.6237 39.6619 67.028 39.0569C67.4322 38.4519 67.648 37.7406 67.648 37.013C67.648 36.0373 67.2604 35.1015 66.5704 34.4115C65.8805 33.7216 64.9447 33.334 63.969 33.334V33.334Z" fill="#FFC10D"/>
<path d="M63.97 30.01C62.5842 30.013 61.2305 30.4267 60.0798 31.1989C58.9292 31.9711 58.0333 33.0671 57.5054 34.3484C56.9775 35.6297 56.8413 37.0387 57.1141 38.3973C57.3868 39.756 58.0563 41.0033 59.0377 41.9815C60.0192 42.9598 61.2687 43.6251 62.6282 43.8934C63.9878 44.1617 65.3963 44.0209 66.6758 43.4888C67.9554 42.9567 69.0484 42.0573 69.8168 40.9041C70.5853 39.7509 70.9946 38.3958 70.993 37.01C70.9916 36.0892 70.8087 35.1778 70.455 34.3276C70.1013 33.4775 69.5836 32.7054 68.9314 32.0554C68.2792 31.4053 67.5054 30.8901 66.6541 30.5392C65.8028 30.1883 64.8908 30.0084 63.97 30.01V30.01ZM63.97 40.702C63.2423 40.702 62.5311 40.4862 61.9261 40.082C61.321 39.6777 60.8495 39.1032 60.571 38.4309C60.2926 37.7587 60.2197 37.0189 60.3617 36.3053C60.5036 35.5916 60.854 34.9361 61.3685 34.4216C61.8831 33.9071 62.5386 33.5567 63.2523 33.4147C63.9659 33.2728 64.7056 33.3456 65.3779 33.6241C66.0501 33.9025 66.6247 34.3741 67.029 34.9791C67.4332 35.5841 67.649 36.2954 67.649 37.023C67.649 37.9988 67.2614 38.9345 66.5714 39.6245C65.8815 40.3144 64.9457 40.702 63.97 40.702V40.702Z" fill="#194F82"/>
<path d="M72.058 51.265C72.058 50.9671 71.9993 50.672 71.8853 50.3967C71.7712 50.1214 71.6041 49.8713 71.3934 49.6606C71.1827 49.4499 70.9326 49.2828 70.6573 49.1687C70.382 49.0547 70.087 48.996 69.789 48.996H68.951L65.499 57.38C65.372 57.6833 65.1582 57.9422 64.8844 58.1243C64.6107 58.3065 64.2893 58.4036 63.9605 58.4036C63.6317 58.4036 63.3103 58.3065 63.0365 58.1243C62.7628 57.9422 62.549 57.6833 62.422 57.38L58.97 48.986H58.142C57.543 48.9865 56.9685 49.2241 56.5441 49.6468C56.1197 50.0695 55.8799 50.643 55.877 51.242V69.42H72.053V51.265H72.058Z" fill="#56ACE0"/>
<path d="M58.476 86.576H62.303V78.843C62.303 78.4009 62.4786 77.9769 62.7912 77.6643C63.1039 77.3517 63.5279 77.176 63.97 77.176C64.4121 77.176 64.8361 77.3517 65.1487 77.6643C65.4614 77.9769 65.637 78.4009 65.637 78.843V86.576H69.464V72.767H58.464V86.576H58.476Z" fill="#FFC10D"/>
<path d="M69.798 45.663H67.855C67.5273 45.6638 67.2071 45.7616 66.935 45.9443C66.6628 46.1269 66.4509 46.386 66.326 46.689L63.988 52.37L61.641 46.689C61.5166 46.3856 61.3048 46.1261 61.0326 45.9434C60.7603 45.7607 60.4399 45.6631 60.112 45.663H58.159C56.6762 45.6649 55.2547 46.2547 54.2062 47.3032C53.1577 48.3517 52.5678 49.7732 52.566 51.256V71.104C52.5657 71.323 52.6087 71.5399 52.6923 71.7423C52.776 71.9446 52.8988 72.1285 53.0537 72.2834C53.2085 72.4382 53.3924 72.561 53.5947 72.6447C53.7971 72.7283 54.014 72.7713 54.233 72.771H55.16V88.237C55.1597 88.4562 55.2027 88.6732 55.2865 88.8757C55.3703 89.0782 55.4933 89.2622 55.6483 89.4171C55.8034 89.5719 55.9875 89.6947 56.1901 89.7782C56.3927 89.8618 56.6098 89.9045 56.829 89.904H71.149C71.368 89.9043 71.5848 89.8613 71.7872 89.7777C71.9896 89.694 72.1735 89.5712 72.3283 89.4164C72.4832 89.2615 72.6059 89.0776 72.6896 88.8753C72.7733 88.6729 72.8162 88.456 72.816 88.237V72.767H73.733C73.952 72.7673 74.1688 72.7244 74.3712 72.6407C74.5736 72.557 74.7575 72.4342 74.9123 72.2794C75.0672 72.1245 75.1899 71.9406 75.2736 71.7383C75.3573 71.5359 75.4002 71.319 75.4 71.1V51.265C75.3976 49.78 74.8066 48.3565 73.7566 47.3064C72.7065 46.2564 71.283 45.6654 69.798 45.663V45.663ZM69.482 86.576H65.655V78.843C65.655 78.4009 65.4793 77.9769 65.1667 77.6643C64.8541 77.3517 64.4301 77.176 63.988 77.176C63.5459 77.176 63.1219 77.3517 62.8092 77.6643C62.4966 77.9769 62.321 78.4009 62.321 78.843V86.576H58.494V72.767H69.494V86.576H69.482ZM55.882 69.444V51.265C55.882 50.9671 55.9407 50.672 56.0547 50.3967C56.1687 50.1214 56.3359 49.8713 56.5466 49.6606C56.7573 49.4499 57.0074 49.2828 57.2827 49.1687C57.558 49.0547 57.853 48.996 58.151 48.996H58.989L62.441 57.39C62.568 57.6933 62.7818 57.9522 63.0555 58.1344C63.3293 58.3165 63.6507 58.4136 63.9795 58.4136C64.3083 58.4136 64.6297 58.3165 64.9034 58.1344C65.1772 57.9522 65.391 57.6933 65.518 57.39L68.97 49.004H69.808C70.106 49.004 70.401 49.0627 70.6763 49.1767C70.9516 49.2908 71.2017 49.4579 71.4124 49.6686C71.6231 49.8793 71.7902 50.1294 71.9043 50.4047C72.0183 50.68 72.077 50.9751 72.077 51.273V69.451H55.877L55.882 69.444Z" fill="#194F82"/>
<path d="M45.535 33.334C45.9771 33.334 46.4011 33.1584 46.7137 32.8458C47.0264 32.5331 47.202 32.1091 47.202 31.667C47.202 31.2249 47.0264 30.8009 46.7137 30.4883C46.4011 30.1756 45.9771 30 45.535 30H36.668C36.4487 29.9993 36.2315 30.042 36.0288 30.1255C35.8261 30.209 35.6419 30.3317 35.4867 30.4866C35.3315 30.6415 35.2085 30.8255 35.1246 31.0281C35.0408 31.2306 34.9977 31.4478 34.998 31.667V88.233C34.9977 88.4522 35.0408 88.6694 35.1246 88.8719C35.2085 89.0745 35.3315 89.2585 35.4867 89.4134C35.6419 89.5683 35.8261 89.691 36.0288 89.7745C36.2315 89.858 36.4487 89.9007 36.668 89.9H45.535C45.9771 89.9 46.4011 89.7244 46.7137 89.4118C47.0264 89.0991 47.202 88.6751 47.202 88.233C47.202 87.7909 47.0264 87.3669 46.7137 87.0543C46.4011 86.7416 45.9771 86.566 45.535 86.566H38.345V81.9H45.535C45.9771 81.9 46.4011 81.7244 46.7137 81.4118C47.0264 81.0991 47.202 80.6751 47.202 80.233C47.202 79.7909 47.0264 79.3669 46.7137 79.0543C46.4011 78.7416 45.9771 78.566 45.535 78.566H38.345V73.675H41.777C42.2191 73.675 42.6431 73.4994 42.9557 73.1868C43.2684 72.8741 43.444 72.4501 43.444 72.008C43.444 71.5659 43.2684 71.1419 42.9557 70.8293C42.6431 70.5166 42.2191 70.341 41.777 70.341H38.345V65.7H45.535C45.9771 65.7 46.4011 65.5244 46.7137 65.2118C47.0264 64.8991 47.202 64.4751 47.202 64.033C47.202 63.5909 47.0264 63.1669 46.7137 62.8543C46.4011 62.5416 45.9771 62.366 45.535 62.366H38.345V57.479H41.777C42.2191 57.479 42.6431 57.3034 42.9557 56.9908C43.2684 56.6781 43.444 56.2541 43.444 55.812C43.444 55.3699 43.2684 54.9459 42.9557 54.6333C42.6431 54.3206 42.2191 54.145 41.777 54.145H38.345V49.519H45.535C45.9771 49.519 46.4011 49.3434 46.7137 49.0308C47.0264 48.7181 47.202 48.2941 47.202 47.852C47.202 47.4099 47.0264 46.9859 46.7137 46.6733C46.4011 46.3606 45.9771 46.185 45.535 46.185H38.345V41.285H41.777C42.2191 41.285 42.6431 41.1094 42.9557 40.7968C43.2684 40.4841 43.444 40.0601 43.444 39.618C43.444 39.1759 43.2684 38.7519 42.9557 38.4393C42.6431 38.1266 42.2191 37.951 41.777 37.951H38.345V33.265H45.535V33.334Z" fill="#194F82"/>
</svg>
