<svg width="119" height="119" viewBox="0 0 119 119" fill="none" xmlns="http://www.w3.org/2000/svg">
<path d="M59.5 119C92.3609 119 119 92.3609 119 59.5C119 26.6391 92.3609 0 59.5 0C26.6391 0 0 26.6391 0 59.5C0 92.3609 26.6391 119 59.5 119Z" fill="#F2F3F6"/>
<path d="M59.543 29.636C53.4169 29.636 47.4284 31.4526 42.3348 34.8561C37.2411 38.2595 33.2711 43.097 30.9267 48.7568C28.5824 54.4165 27.969 60.6444 29.1641 66.6527C30.3593 72.6611 33.3093 78.1801 37.6411 82.5119C41.9729 86.8437 47.4919 89.7937 53.5003 90.9888C59.5086 92.184 65.7365 91.5706 71.3962 89.2262C77.056 86.8819 81.8935 82.9119 85.2969 77.8182C88.7004 72.7246 90.517 66.7361 90.517 60.61C90.5188 56.5419 89.7189 52.5134 88.163 48.7546C86.607 44.9958 84.3256 41.5805 81.449 38.704C78.5724 35.8274 75.1572 33.546 71.3984 31.99C67.6396 30.4341 63.6111 29.6342 59.543 29.636V29.636Z" fill="#F3F3F3"/>
<path d="M59.544 38.719L42.077 55.953V80.872H77.01V55.953L59.544 38.719Z" fill="#FCAE3D"/>
<path d="M65.5979 66.898H53.7209V80.871H65.5979V66.898Z" fill="#435B6C"/>
<path d="M81.434 56.884L61.406 36.857C60.8902 36.4057 60.2282 36.157 59.543 36.157C58.8577 36.157 58.1957 36.4057 57.68 36.857L37.652 56.885C37.1705 57.3817 36.9037 58.0478 36.9091 58.7395C36.9145 59.4312 37.1916 60.0931 37.6808 60.5822C38.1699 61.0713 38.8318 61.3485 39.5235 61.3539C40.2152 61.3593 40.8813 61.0925 41.378 60.611L59.543 42.211L77.708 60.376C78.2241 60.8265 78.8859 61.0747 79.571 61.0747C80.256 61.0747 80.9179 60.8265 81.434 60.376C81.882 59.9051 82.1319 59.28 82.1319 58.63C82.1319 57.98 81.882 57.3549 81.434 56.884V56.884Z" fill="#435B6C"/>
</svg>
