<svg width="119" height="119" viewBox="0 0 119 119" fill="none" xmlns="http://www.w3.org/2000/svg">
<path d="M59.5 119C92.3609 119 119 92.3609 119 59.5C119 26.6391 92.3609 0 59.5 0C26.6391 0 0 26.6391 0 59.5C0 92.3609 26.6391 119 59.5 119Z" fill="#F2F3F6"/>
<path d="M83.057 51.01H37.057L33.4 80.01H86.171L83.057 51.01Z" fill="white"/>
<path d="M83.057 51.01L86.171 80.01H33.4L37.055 51.01H83.055H83.057ZM85.75 48.01H34.411L34.08 50.635L30.425 79.635L30 83.01H89.51L89.153 79.69L86.039 50.69L85.752 48.01H85.75Z" fill="#556080"/>
<path d="M43.684 76.01C43.427 76.0098 43.1702 75.9941 42.915 75.963C42.6947 75.937 42.4765 75.8955 42.262 75.839C42.1324 75.8085 42.0101 75.7525 41.9025 75.6741C41.7948 75.5958 41.7039 75.4967 41.635 75.3827C41.5661 75.2688 41.5207 75.1422 41.5014 75.0104C41.4821 74.8787 41.4893 74.7444 41.5226 74.6155C41.5559 74.4866 41.6147 74.3656 41.6953 74.2596C41.776 74.1537 41.877 74.065 41.9925 73.9986C42.1079 73.9322 42.2355 73.8896 42.3676 73.8732C42.4997 73.8568 42.6338 73.8669 42.762 73.903C42.8936 73.9363 43.0272 73.9614 43.162 73.978C43.566 74.024 43.9742 74.019 44.377 73.963C44.6376 73.9348 44.8989 74.0101 45.1046 74.1727C45.3103 74.3352 45.4439 74.5721 45.4767 74.8322C45.5094 75.0923 45.4388 75.3549 45.2798 75.5634C45.1209 75.7719 44.8865 75.9096 44.627 75.947C44.3144 75.9885 43.9994 76.0095 43.684 76.01ZM48.334 74.852C48.1004 74.8523 47.8742 74.7708 47.6944 74.6216C47.5146 74.4725 47.3927 74.2652 47.3499 74.0356C47.307 73.806 47.3458 73.5686 47.4596 73.3647C47.5735 73.1607 47.7551 73.0031 47.973 72.919C48.565 72.69 49.161 72.436 49.747 72.16C49.9862 72.0531 50.2577 72.0443 50.5033 72.1356C50.7489 72.2268 50.9489 72.4107 51.0602 72.6479C51.1716 72.885 51.1854 73.1564 51.0988 73.4036C51.0122 73.6509 50.832 73.8542 50.597 73.97C49.969 74.265 49.328 74.538 48.697 74.783C48.5815 74.8288 48.4582 74.8516 48.334 74.85V74.852ZM39.987 73.12C39.7393 73.1198 39.5004 73.0276 39.3168 72.8613C39.1332 72.695 39.0178 72.4665 38.993 72.22C38.9737 72.0233 38.9643 71.8257 38.965 71.628C38.965 71.512 38.965 71.396 38.974 71.281C38.9986 70.8062 39.0744 70.3355 39.2 69.877C39.2315 69.7473 39.2887 69.6252 39.3682 69.518C39.4476 69.4107 39.5478 69.3205 39.6627 69.2526C39.7775 69.1846 39.9049 69.1404 40.0371 69.1224C40.1694 69.1044 40.3039 69.1132 40.4328 69.148C40.5616 69.1828 40.6822 69.2431 40.7873 69.3253C40.8925 69.4075 40.9802 69.5099 41.0452 69.6265C41.1101 69.7431 41.1511 69.8715 41.1657 70.0042C41.1803 70.1368 41.1681 70.2711 41.13 70.399C41.0425 70.72 40.9902 71.0497 40.974 71.382C40.974 71.464 40.967 71.547 40.967 71.63C40.9663 71.7599 40.9727 71.8898 40.986 72.019C40.9998 72.15 40.9877 72.2824 40.9502 72.4087C40.9127 72.5349 40.8506 72.6525 40.7676 72.7548C40.6845 72.857 40.582 72.9418 40.4661 73.0043C40.3502 73.0668 40.223 73.1058 40.092 73.119C40.055 73.118 40.021 73.12 39.987 73.12ZM53.666 72.12C53.4501 72.1204 53.2399 72.0509 53.0668 71.922C52.8937 71.7931 52.7669 71.6116 52.7055 71.4046C52.644 71.1977 52.6512 70.9764 52.7259 70.7739C52.8006 70.5714 52.9389 70.3985 53.12 70.281C53.655 69.934 54.186 69.561 54.7 69.174C54.9122 69.0142 55.1791 68.9452 55.4422 68.9823C55.7052 69.0193 55.9427 69.1593 56.1025 69.3715C56.2623 69.5837 56.3313 69.8506 56.2942 70.1137C56.2572 70.3767 56.1172 70.6142 55.905 70.774C55.353 71.189 54.783 71.589 54.21 71.962C54.0478 72.0664 53.8589 72.1216 53.666 72.121V72.12ZM58.425 68.47C58.2139 68.4702 58.0082 68.4035 57.8372 68.2796C57.6663 68.1557 57.539 67.9809 57.4735 67.7802C57.408 67.5795 57.4077 67.3633 57.4727 67.1624C57.5376 66.9615 57.6644 66.7864 57.835 66.662C58.044 66.511 58.257 66.362 58.476 66.221C58.8632 65.97 59.2638 65.7403 59.676 65.533C59.7933 65.4739 59.9212 65.4385 60.0522 65.4288C60.1832 65.4191 60.3148 65.4353 60.4396 65.4765C60.5644 65.5177 60.6798 65.583 60.7793 65.6688C60.8788 65.7546 60.9604 65.8592 61.0195 65.9765C61.0786 66.0938 61.114 66.2217 61.1237 66.3527C61.1334 66.4837 61.1172 66.6153 61.076 66.7401C61.0348 66.8649 60.9695 66.9803 60.8837 67.0798C60.7979 67.1793 60.6933 67.2609 60.576 67.32C60.2292 67.4941 59.8921 67.6867 59.566 67.897C59.378 68.0203 59.194 68.1477 59.014 68.279C58.8429 68.4037 58.6367 68.471 58.425 68.471V68.47ZM42.469 67.997C42.2468 67.9969 42.031 67.9227 41.8557 67.7863C41.6803 67.6499 41.5554 67.459 41.5006 67.2437C41.4458 67.0284 41.4642 66.8009 41.553 66.5973C41.6418 66.3936 41.7959 66.2253 41.991 66.119C42.5001 65.8408 43.0585 65.6641 43.635 65.599C43.9312 65.5652 44.2304 65.5679 44.526 65.607C44.7832 65.6482 45.0141 65.7882 45.1697 65.997C45.3253 66.2059 45.3932 66.4672 45.3591 66.7254C45.3249 66.9836 45.1914 67.2183 44.9869 67.3796C44.7824 67.5409 44.523 67.616 44.264 67.589C44.1292 67.572 43.9928 67.572 43.858 67.589C43.5377 67.6248 43.2275 67.723 42.945 67.878C42.7988 67.9569 42.6352 67.9982 42.469 67.998V67.997ZM63.9 66.15C63.653 66.1499 63.4148 66.0583 63.2313 65.893C63.0478 65.7276 62.9319 65.5002 62.9061 65.2546C62.8803 65.0089 62.9462 64.7624 63.0914 64.5625C63.2365 64.3626 63.4504 64.2235 63.692 64.172C64.335 64.034 65.027 63.92 65.75 63.83C65.8805 63.8121 66.0133 63.8205 66.1405 63.8548C66.2678 63.889 66.3868 63.9484 66.4908 64.0294C66.5947 64.1104 66.6813 64.2113 66.7456 64.3263C66.8099 64.4413 66.8505 64.5681 66.865 64.699C66.8964 64.9608 66.8232 65.2245 66.6612 65.4325C66.4992 65.6406 66.2615 65.7763 66 65.81C65.335 65.893 64.7 65.998 64.114 66.123C64.0439 66.1401 63.9721 66.1491 63.9 66.15ZM69.86 65.533C69.7287 65.5356 69.5981 65.5124 69.4758 65.4645C69.3535 65.4167 69.2417 65.3453 69.147 65.2542C69.0523 65.1632 68.9765 65.0545 68.9238 64.9342C68.8711 64.8138 68.8426 64.6843 68.84 64.553C68.8374 64.4217 68.8606 64.2911 68.9085 64.1688C68.9563 64.0465 69.0277 63.9348 69.1187 63.84C69.2098 63.7453 69.3185 63.6695 69.4388 63.6168C69.5592 63.5641 69.6887 63.5356 69.82 63.533L71.813 63.451C71.9447 63.4429 72.0768 63.4614 72.2012 63.5053C72.3257 63.5492 72.4401 63.6177 72.5375 63.7067C72.635 63.7957 72.7136 63.9034 72.7687 64.0233C72.8237 64.1433 72.8541 64.2731 72.858 64.405C72.8639 64.5362 72.8439 64.6673 72.7992 64.7907C72.7544 64.9142 72.6858 65.0276 72.5972 65.1246C72.5086 65.2215 72.4018 65.3001 72.2829 65.3557C72.1639 65.4114 72.0352 65.4431 71.904 65.449L69.904 65.531L69.86 65.533ZM75.839 65.09C75.591 65.0902 75.3518 64.9983 75.1677 64.8321C74.9837 64.6659 74.868 64.4372 74.8431 64.1905C74.8181 63.9438 74.8858 63.6966 75.0329 63.4969C75.1799 63.2972 75.396 63.1593 75.639 63.11C76.1194 63.0298 76.578 62.8511 76.986 62.585C77.198 62.418 77.4668 62.3402 77.7352 62.368C78.0036 62.3958 78.2507 62.5271 78.424 62.734C78.5071 62.8329 78.5696 62.9474 78.6076 63.0708C78.6457 63.1943 78.6585 63.3241 78.6455 63.4526C78.6324 63.5811 78.5937 63.7057 78.5316 63.819C78.4695 63.9322 78.3853 64.0319 78.284 64.112C78.229 64.154 78.174 64.195 78.115 64.234C77.4893 64.6522 76.7838 64.9364 76.043 65.069C75.9767 65.0814 75.9094 65.0871 75.842 65.086L75.839 65.09ZM79.908 61.06C79.8063 61.0601 79.7052 61.0449 79.608 61.015C79.3547 60.9365 79.1431 60.7605 79.0195 60.5259C78.8959 60.2914 78.8705 60.0173 78.949 59.764C79.0019 59.5998 79.0355 59.43 79.049 59.258V59.142C79.0473 58.9048 79.0033 58.6698 78.919 58.448C78.8732 58.3245 78.8521 58.1932 78.857 58.0615C78.862 57.9299 78.8928 57.8005 78.9477 57.6807C79.0026 57.561 79.0806 57.4533 79.1771 57.3636C79.2737 57.274 79.387 57.2043 79.5105 57.1585C79.634 57.1127 79.7653 57.0916 79.897 57.0965C80.0286 57.1015 80.158 57.1323 80.2777 57.1872C80.3975 57.2421 80.5052 57.3201 80.5948 57.4167C80.6845 57.5132 80.7542 57.6265 80.8 57.75C80.9671 58.1944 81.0535 58.6652 81.055 59.14C81.055 59.224 81.055 59.307 81.047 59.39C81.0239 59.7174 80.9624 60.0409 80.864 60.354C80.8006 60.5572 80.6739 60.7349 80.5025 60.8611C80.3311 60.9874 80.1239 61.0557 79.911 61.056L79.908 61.06ZM74.851 56.95C74.6098 56.9495 74.377 56.8619 74.1953 56.7033C74.0137 56.5446 73.8954 56.3257 73.8624 56.0868C73.8294 55.8479 73.8839 55.6052 74.0158 55.4032C74.1476 55.2013 74.348 55.0538 74.58 54.988C75.3548 54.7662 76.1667 54.7049 76.966 54.808C77.2288 54.8435 77.4668 54.982 77.6275 55.193C77.7882 55.404 77.8585 55.6702 77.823 55.933C77.7875 56.1958 77.649 56.4338 77.438 56.5945C77.227 56.7552 76.9608 56.8255 76.698 56.79C76.1702 56.7239 75.6345 56.7651 75.123 56.911C75.0347 56.9372 74.9431 56.9503 74.851 56.95Z" fill="#EBBA16"/>
<path d="M70.844 38.181C70.32 34.181 68.23 29 60.022 29C51.814 29 49.724 34.182 49.2 38.181C48.9379 40.3779 49.0495 42.6033 49.53 44.763C51.0468 52.4 54.5581 59.4994 59.707 65.34C59.7474 65.383 59.7962 65.4174 59.8504 65.4408C59.9046 65.4643 59.963 65.4764 60.022 65.4764C60.0811 65.4764 60.1395 65.4643 60.1936 65.4408C60.2478 65.4174 60.2966 65.383 60.337 65.34C65.4859 59.4994 68.9972 52.4 70.514 44.763C70.9955 42.6035 71.1071 40.3779 70.844 38.181ZM60.022 45.922C58.7669 45.922 57.54 45.5498 56.4964 44.8525C55.4528 44.1552 54.6394 43.1641 54.1591 42.0045C53.6788 40.8449 53.5531 39.569 53.798 38.338C54.0428 37.107 54.6472 35.9762 55.5347 35.0887C56.4222 34.2012 57.553 33.5968 58.784 33.3519C60.015 33.1071 61.2909 33.2327 62.4505 33.7131C63.6101 34.1934 64.6012 35.0068 65.2985 36.0504C65.9958 37.0939 66.368 38.3209 66.368 39.576C66.368 41.2591 65.6994 42.8732 64.5093 44.0633C63.3192 45.2534 61.7051 45.922 60.022 45.922Z" fill="#DD352E"/>
<path d="M60.023 32.231C58.5701 32.231 57.1497 32.6619 55.9417 33.4691C54.7336 34.2763 53.7921 35.4237 53.2361 36.766C52.6801 38.1084 52.5347 39.5855 52.8182 41.0105C53.1018 42.4355 53.8015 43.7444 54.829 44.7718C55.8564 45.7991 57.1654 46.4986 58.5905 46.782C60.0155 47.0653 61.4926 46.9197 62.8349 46.3635C64.1772 45.8074 65.3244 44.8657 66.1315 43.6575C66.9385 42.4493 67.3692 41.0289 67.369 39.576C67.3666 37.6285 66.5919 35.7615 65.2147 34.3846C63.8376 33.0076 61.9705 32.2331 60.023 32.231ZM60.023 44.922C58.9657 44.922 57.9321 44.6085 57.0529 44.021C56.1738 43.4336 55.4886 42.5987 55.0839 41.6218C54.6793 40.645 54.5735 39.5701 54.7797 38.533C54.986 37.496 55.4952 36.5435 56.2428 35.7958C56.9905 35.0482 57.943 34.539 58.9801 34.3327C60.0171 34.1264 61.092 34.2323 62.0688 34.6369C63.0457 35.0416 63.8806 35.7268 64.468 36.6059C65.0555 37.4851 65.369 38.5187 65.369 39.576C65.3674 40.9934 64.8037 42.3522 63.8014 43.3544C62.7992 44.3567 61.4404 44.9204 60.023 44.922Z" fill="#B02721"/>
</svg>
