<svg width="15" height="15" viewBox="0 0 15 15" fill="none" xmlns="http://www.w3.org/2000/svg">
<path d="M13.581 0.666836C13.154 0.239866 12.5748 0 11.971 0C11.3671 0 10.788 0.239866 10.361 0.666836L1.33499 9.69284C1.2731 9.75468 1.22831 9.83151 1.20498 9.91584L0.0179843 14.2008C-0.0060083 14.2872 -0.00664054 14.3783 0.0161532 14.465C0.038947 14.5517 0.0843476 14.6307 0.147715 14.6941C0.211081 14.7575 0.290143 14.8029 0.37681 14.8257C0.463477 14.8485 0.554643 14.8478 0.640985 14.8238L4.92598 13.6368C5.0103 13.6135 5.08714 13.5687 5.14898 13.5068L14.175 4.48084C14.6015 4.05356 14.841 3.47453 14.841 2.87084C14.841 2.26714 14.6015 1.68811 14.175 1.26084L13.581 0.666836ZM2.43698 10.0218L9.82498 2.63884L12.21 5.01684L4.82199 12.4048L2.43698 10.0218ZM1.96099 10.9768L3.86099 12.8768L1.22798 13.6058L1.96099 10.9768ZM13.461 3.76484L12.924 4.30184L10.54 1.91884L11.077 1.38184C11.1944 1.26437 11.3339 1.17118 11.4874 1.10761C11.6409 1.04404 11.8054 1.01132 11.9715 1.01132C12.1376 1.01132 12.3021 1.04404 12.4556 1.10761C12.6091 1.17118 12.7485 1.26437 12.866 1.38184L13.46 1.97584C13.6966 2.21346 13.8294 2.5352 13.8292 2.87054C13.829 3.20588 13.6959 3.52747 13.459 3.76484H13.461Z" fill="#202E75"/>
</svg>
