<svg width="13" height="16" viewBox="0 0 13 16" fill="none" xmlns="http://www.w3.org/2000/svg">
<path d="M0.0393223 8.26178C-0.0558043 7.44267 0.0221273 6.61271 0.268071 5.82562C0.514014 5.03853 0.922489 4.31186 1.46706 3.69263C2.01162 3.07341 2.68015 2.57543 3.42936 2.23093C4.17857 1.88643 4.99177 1.7031 5.81632 1.69278V0.10478C5.81797 0.0844621 5.82504 0.0649578 5.83679 0.0482989C5.84854 0.0316401 5.86454 0.0184361 5.88312 0.0100624C5.90171 0.00168868 5.9222 -0.00154837 5.94246 0.000688422C5.96272 0.00292521 5.98201 0.010554 5.99833 0.0227801L9.25632 2.41678C9.26874 2.42609 9.27882 2.43817 9.28577 2.45206C9.29271 2.46594 9.29632 2.48126 9.29632 2.49678C9.29632 2.5123 9.29271 2.52762 9.28577 2.5415C9.27882 2.55539 9.26874 2.56747 9.25632 2.57678L6.00132 4.97478C5.98511 4.98735 5.96578 4.99527 5.9454 4.99769C5.92503 5.00011 5.90438 4.99693 5.88567 4.9885C5.86696 4.98007 5.8509 4.96671 5.83921 4.94985C5.82753 4.93298 5.82065 4.91326 5.81932 4.89278V3.31378C4.99229 3.32839 4.18734 3.58318 3.50253 4.04712C2.81772 4.51106 2.28259 5.16413 1.96232 5.92678C1.66364 6.62967 1.56169 7.40054 1.66738 8.15691C1.77307 8.91328 2.08242 9.62668 2.56233 10.2208C2.62831 10.3048 2.67712 10.4009 2.70594 10.5038C2.73477 10.6066 2.74306 10.7141 2.73034 10.8202C2.71762 10.9262 2.68413 11.0287 2.6318 11.1218C2.57946 11.2149 2.5093 11.2968 2.42532 11.3628C2.34134 11.4288 2.24519 11.4776 2.14235 11.5064C2.03951 11.5352 1.932 11.5435 1.82595 11.5308C1.71991 11.5181 1.6174 11.4846 1.5243 11.4323C1.4312 11.3799 1.34931 11.3098 1.28333 11.2258C0.598112 10.3745 0.166932 9.34713 0.0393223 8.26178V8.26178ZM9.44532 5.22078C9.92523 5.81488 10.2346 6.52828 10.3403 7.28465C10.446 8.04102 10.344 8.81189 10.0453 9.51478C9.72567 10.2781 9.19059 10.9319 8.50545 11.3961C7.82032 11.8603 7.0148 12.1149 6.18733 12.1288V10.5488C6.18568 10.5285 6.17861 10.509 6.16686 10.4923C6.15511 10.4756 6.13911 10.4624 6.12053 10.4541C6.10194 10.4457 6.08145 10.4425 6.06119 10.4447C6.04093 10.4469 6.02164 10.4546 6.00533 10.4668L2.74732 12.8608C2.7349 12.8701 2.72482 12.8822 2.71788 12.8961C2.71094 12.9099 2.70733 12.9253 2.70733 12.9408C2.70733 12.9563 2.71094 12.9716 2.71788 12.9855C2.72482 12.9994 2.7349 13.0115 2.74732 13.0208L6.00232 15.4148C6.01854 15.4274 6.03787 15.4353 6.05825 15.4377C6.07862 15.4401 6.09927 15.4369 6.11798 15.4285C6.13668 15.4201 6.15274 15.4067 6.16443 15.3898C6.17612 15.373 6.183 15.3533 6.18432 15.3328V13.7498C7.00896 13.7396 7.82227 13.5564 8.5716 13.2119C9.32093 12.8675 9.98958 12.3695 10.5343 11.7503C11.0789 11.1311 11.4875 10.4043 11.7335 9.61718C11.9795 8.83002 12.0575 7.99998 11.9623 7.18078C11.8373 6.09452 11.4066 5.06604 10.7203 4.21478C10.6554 4.12797 10.5738 4.05504 10.4803 4.00027C10.3868 3.9455 10.2832 3.91001 10.1758 3.89589C10.0683 3.88177 9.95911 3.8893 9.85461 3.91805C9.75011 3.94679 9.65242 3.99616 9.5673 4.06326C9.48218 4.13035 9.41135 4.2138 9.359 4.3087C9.30664 4.4036 9.27381 4.50801 9.26244 4.6158C9.25108 4.72358 9.2614 4.83255 9.29281 4.93628C9.32422 5.04001 9.37608 5.13641 9.44532 5.21978V5.22078Z" fill="#4D4B4B"/>
</svg>
