<svg width="30" height="30" viewBox="0 0 30 30" fill="none" xmlns="http://www.w3.org/2000/svg">
<g clip-path="url(#clip0)">
<path d="M14.984 18.4074C16.5398 18.4074 17.801 17.1462 17.801 15.5904C17.801 14.0347 16.5398 12.7734 14.984 12.7734C13.4282 12.7734 12.167 14.0347 12.167 15.5904C12.167 17.1462 13.4282 18.4074 14.984 18.4074Z" fill="white"/>
<path d="M14.984 0C12.0205 0 9.12345 0.878796 6.65934 2.52526C4.19524 4.17172 2.2747 6.5119 1.1406 9.24987C0.00649226 11.9878 -0.290241 15.0006 0.28792 17.9072C0.866081 20.8138 2.29317 23.4837 4.38872 25.5793C6.48427 27.6748 9.15416 29.1019 12.0608 29.6801C14.9674 30.2582 17.9802 29.9615 20.7181 28.8274C23.4561 27.6933 25.7963 25.7728 27.4427 23.3087C29.0892 20.8446 29.968 17.9476 29.968 14.984C29.968 13.0163 29.5804 11.0678 28.8274 9.24987C28.0744 7.43193 26.9707 5.7801 25.5793 4.38871C24.1879 2.99732 22.5361 1.89361 20.7181 1.14059C18.9002 0.387573 16.9517 0 14.984 0V0ZM22.858 17.162L20.729 17.3C20.6114 17.6978 20.4525 18.0822 20.255 18.447L21.662 20.047L19.44 22.27L17.84 20.862C17.4752 21.0595 17.0908 21.2184 16.693 21.336L16.555 23.465H13.412L13.275 21.336C12.8772 21.2184 12.4928 21.0595 12.128 20.862L10.528 22.27L8.30401 20.047L9.71101 18.447C9.51388 18.0822 9.35535 17.6977 9.23801 17.3L7.10901 17.161V14.019L9.23701 13.882C9.35479 13.4843 9.51365 13.0999 9.71101 12.735L8.30401 11.135L10.526 8.913L12.126 10.32C12.4908 10.1225 12.8752 9.96364 13.273 9.846L13.41 7.717H16.552L16.69 9.846C17.0808 9.98262 17.4638 10.1409 17.837 10.32L19.437 8.913L21.659 11.135L20.252 12.735C20.4494 13.0999 20.6082 13.4843 20.726 13.882L22.854 14.019L22.858 17.162Z" fill="white"/>
</g>
</svg>
