<svg width="119" height="119" viewBox="0 0 119 119" fill="none" xmlns="http://www.w3.org/2000/svg">
<path d="M59.5 119C92.3609 119 119 92.3609 119 59.5C119 26.6391 92.3609 0 59.5 0C26.6391 0 0 26.6391 0 59.5C0 92.3609 26.6391 119 59.5 119Z" fill="#F2F3F6"/>
<path d="M27.326 61.542H91.256V73.48H27.326V61.542Z" fill="#E4E9ED"/>
<path d="M84.89 27C84.89 27 79.49 29.354 79.49 37.9C79.49 45.135 87.074 45.832 87.074 51.585C87.074 55.856 85.854 57.164 85.854 57.164C85.854 57.164 91.346 52.806 91.346 46.617C91.341 37.547 82.885 42.254 84.89 27Z" fill="#B7B7B7"/>
<path d="M27.326 61.542H48.667V73.48H27.326V61.542Z" fill="#F49F00"/>
<path d="M46.514 61.542H50.819V73.48H46.514V61.542Z" fill="#BABECB"/>
<path d="M27.326 69.174H91.256V73.479H27.326V69.174Z" fill="#D7D9DB"/>
<path d="M85.458 61.542H91.256V73.48H85.458V61.542Z" fill="#A5A7B7"/>
<path d="M85.458 69.174H91.256V73.479H85.458V69.174Z" fill="#9396A3"/>
<path d="M27.326 69.174H48.667V73.479H27.326V69.174Z" fill="#DD8903"/>
<path d="M46.514 69.174H50.819V73.479H46.514V69.174Z" fill="#9EA3B2"/>
</svg>
