<svg width="11" height="13" viewBox="0 0 11 13" fill="none" xmlns="http://www.w3.org/2000/svg">
<path d="M7.01802 4.69531C6.97862 4.69531 6.93961 4.70308 6.90321 4.71815C6.86682 4.73323 6.83375 4.75533 6.80589 4.78319C6.77804 4.81105 6.75594 4.84411 6.74086 4.88051C6.72578 4.91691 6.71802 4.95592 6.71802 4.99532V10.6133C6.72821 10.6848 6.76386 10.7503 6.81842 10.7976C6.87298 10.8449 6.9428 10.871 7.01503 10.871C7.08726 10.871 7.15706 10.8449 7.21162 10.7976C7.26618 10.7503 7.30184 10.6848 7.31203 10.6133V4.99532C7.31204 4.91678 7.28126 4.84137 7.22629 4.78528C7.17132 4.72919 7.09654 4.69688 7.01802 4.69531V4.69531Z" fill="#202E75" stroke="#202E75" stroke-width="0.2"/>
<path d="M3.51093 4.69531C3.43137 4.69531 3.35507 4.72693 3.29881 4.78319C3.24254 4.83945 3.21094 4.91575 3.21094 4.99532V10.6133C3.22113 10.6848 3.25677 10.7503 3.31133 10.7976C3.36589 10.8449 3.4357 10.871 3.50793 10.871C3.58017 10.871 3.64998 10.8449 3.70454 10.7976C3.7591 10.7503 3.79475 10.6848 3.80494 10.6133V4.99532C3.80495 4.91678 3.77417 4.84137 3.7192 4.78528C3.66423 4.72919 3.58945 4.69688 3.51093 4.69531V4.69531Z" fill="#202E75" stroke="#202E75" stroke-width="0.2"/>
<path d="M0.949972 3.8786V11.2016C0.94554 11.6204 1.10154 12.0251 1.38597 12.3326C1.52252 12.4772 1.68712 12.5925 1.86971 12.6715C2.0523 12.7504 2.24906 12.7912 2.44797 12.7916H8.07197C8.2709 12.7913 8.46767 12.7505 8.65027 12.6715C8.83287 12.5926 8.99746 12.4773 9.13397 12.3326C9.41841 12.0251 9.57441 11.6204 9.56997 11.2016V3.8786C9.8372 3.80865 10.0698 3.64364 10.224 3.41451C10.3783 3.18537 10.4437 2.90784 10.408 2.63392C10.3723 2.36 10.238 2.10851 10.0301 1.92656C9.82227 1.74462 9.55521 1.64473 9.27897 1.6456H7.75697V1.2746C7.75764 1.12003 7.72762 0.966873 7.66866 0.823996C7.60969 0.681119 7.52296 0.551366 7.41348 0.442257C7.304 0.333149 7.17395 0.246855 7.03087 0.188379C6.88779 0.129902 6.73453 0.100405 6.57997 0.101597H3.93997C3.78541 0.100405 3.63215 0.129902 3.48907 0.188379C3.346 0.246855 3.21595 0.333149 3.10647 0.442257C2.99699 0.551366 2.91025 0.681119 2.85129 0.823996C2.79232 0.966873 2.76231 1.12003 2.76297 1.2746V1.6466H1.24097C0.965407 1.64665 0.699273 1.74696 0.492224 1.92881C0.285176 2.11065 0.151355 2.36161 0.115729 2.63486C0.0801033 2.90811 0.145106 3.185 0.29861 3.41385C0.452113 3.6427 0.683632 3.80789 0.949972 3.8786V3.8786ZM8.07197 12.2016H2.44797C2.32276 12.1964 2.19985 12.1662 2.08646 12.1129C1.97306 12.0595 1.87146 11.9841 1.78763 11.8909C1.7038 11.7978 1.63941 11.6888 1.59826 11.5704C1.5571 11.4521 1.54001 11.3267 1.54797 11.2016V3.9016H8.97597V11.2016C8.98394 11.327 8.96671 11.4527 8.92531 11.5713C8.88391 11.69 8.81917 11.7991 8.73491 11.8923C8.65066 11.9855 8.54859 12.0609 8.43473 12.114C8.32087 12.1671 8.19753 12.1969 8.07197 12.2016V12.2016ZM3.35797 1.2746C3.35702 1.19791 3.37148 1.12182 3.40048 1.05083C3.42948 0.979831 3.47244 0.915381 3.5268 0.861293C3.58117 0.807206 3.64584 0.764582 3.71698 0.735948C3.78813 0.707314 3.86429 0.693253 3.94097 0.694597H6.57997C6.65665 0.693253 6.73282 0.707314 6.80396 0.735948C6.8751 0.764582 6.93977 0.807206 6.99414 0.861293C7.04851 0.915381 7.09147 0.979831 7.12047 1.05083C7.14947 1.12182 7.16392 1.19791 7.16297 1.2746V1.6466H3.36297L3.35797 1.2746ZM1.24197 2.2406H9.27897C9.42086 2.2406 9.55694 2.29696 9.65727 2.3973C9.75761 2.49763 9.81397 2.63371 9.81397 2.7756C9.81397 2.91749 9.75761 3.05357 9.65727 3.1539C9.55694 3.25423 9.42086 3.3106 9.27897 3.3106H1.24097C1.09908 3.3106 0.963002 3.25423 0.86267 3.1539C0.762338 3.05357 0.705972 2.91749 0.705972 2.7756C0.705972 2.63371 0.762338 2.49763 0.86267 2.3973C0.963002 2.29696 1.09908 2.2406 1.24097 2.2406H1.24197Z" fill="#202E75" stroke="#202E75" stroke-width="0.2"/>
<path d="M5.26387 4.69531C5.18431 4.69531 5.108 4.72693 5.05174 4.78319C4.99548 4.83945 4.96387 4.91575 4.96387 4.99532V10.6133C4.97406 10.6848 5.00971 10.7503 5.06427 10.7976C5.11883 10.8449 5.18865 10.871 5.26088 10.871C5.33311 10.871 5.40291 10.8449 5.45747 10.7976C5.51203 10.7503 5.54769 10.6848 5.55788 10.6133V4.99532C5.55789 4.91678 5.52711 4.84137 5.47214 4.78528C5.41717 4.72919 5.34239 4.69688 5.26387 4.69531V4.69531Z" fill="#202E75" stroke="#202E75" stroke-width="0.2"/>
</svg>
