<svg width="119" height="119" viewBox="0 0 119 119" fill="none" xmlns="http://www.w3.org/2000/svg">
<path d="M59.5 119C92.3609 119 119 92.3609 119 59.5C119 26.6391 92.3609 0 59.5 0C26.6391 0 0 26.6391 0 59.5C0 92.3609 26.6391 119 59.5 119Z" fill="#F2F3F6"/>
<path d="M69.1453 42.952V45.829C69.1472 46.0183 69.1113 46.2062 69.0397 46.3815C68.9681 46.5568 68.8622 46.7161 68.7283 46.85C68.5944 46.9839 68.4351 47.0897 68.2598 47.1613C68.0845 47.2329 67.8967 47.2688 67.7073 47.267H66.2693V42.952C66.2712 42.7626 66.2353 42.5748 66.1637 42.3995C66.0921 42.2242 65.9862 42.0649 65.8523 41.931C65.7184 41.7971 65.5592 41.6912 65.3838 41.6196C65.2085 41.548 65.0207 41.5121 64.8313 41.514H53.3223C53.133 41.5121 52.9451 41.548 52.7698 41.6196C52.5945 41.6912 52.4352 41.7971 52.3013 41.931C52.1674 42.0649 52.0616 42.2242 51.99 42.3995C51.9184 42.5748 51.8825 42.7626 51.8843 42.952V47.267H50.4463C50.2569 47.269 50.0689 47.2332 49.8935 47.1616C49.7181 47.0901 49.5587 46.9842 49.4247 46.8503C49.2907 46.7164 49.1847 46.5571 49.1131 46.3817C49.0414 46.2063 49.0055 46.0184 49.0073 45.829V42.952C49.0065 42.3851 49.1176 41.8236 49.3342 41.2998C49.5508 40.7759 49.8686 40.2999 50.2694 39.899C50.6702 39.4982 51.1462 39.1804 51.6701 38.9638C52.194 38.7473 52.7555 38.6362 53.3223 38.637H64.8293C65.3963 38.636 65.9579 38.747 66.4818 38.9635C67.0058 39.18 67.482 39.4978 67.8829 39.8987C68.2839 40.2995 68.6018 40.7756 68.8184 41.2995C69.035 41.8235 69.1461 42.385 69.1453 42.952Z" fill="#5A5A5A"/>
<path d="M64.8304 41.514H59.0764V38.637H64.8304C65.3972 38.6362 65.9587 38.7472 66.4826 38.9638C67.0065 39.1804 67.4824 39.4982 67.8833 39.899C68.2841 40.2999 68.6019 40.7759 68.8185 41.2998C69.0351 41.8236 69.1461 42.3851 69.1454 42.952V45.829C69.1472 46.0183 69.1113 46.2062 69.0397 46.3815C68.9681 46.5568 68.8622 46.7161 68.7283 46.85C68.5944 46.9839 68.4352 47.0897 68.2599 47.1613C68.0845 47.2329 67.8967 47.2688 67.7074 47.267H66.2693V42.952C66.2712 42.7625 66.2353 42.5746 66.1636 42.3992C66.0919 42.2238 65.986 42.0645 65.852 41.9306C65.718 41.7967 65.5586 41.6909 65.3832 41.6193C65.2078 41.5478 65.0198 41.512 64.8304 41.514Z" fill="#444444"/>
<path d="M83.6273 45.829V77.474C83.6281 78.0408 83.5171 78.6023 83.3005 79.1262C83.0839 79.6501 82.7661 80.1261 82.3653 80.5269C81.9644 80.9277 81.4884 81.2456 80.9646 81.4621C80.4407 81.6787 79.8792 81.7898 79.3123 81.789H38.8423C38.2755 81.7898 37.714 81.6787 37.1901 81.4621C36.6663 81.2456 36.1903 80.9277 35.7894 80.5269C35.3886 80.1261 35.0708 79.6501 34.8542 79.1262C34.6376 78.6023 34.5266 78.0408 34.5273 77.474V45.829C34.5289 45.6411 34.5679 45.4555 34.6421 45.2829C34.7162 45.1104 34.8241 44.9543 34.9593 44.824L42.2953 61.337H75.8573L83.1933 44.824C83.3289 44.9542 83.4371 45.1102 83.5116 45.2827C83.5861 45.4553 83.6255 45.641 83.6273 45.829V45.829Z" fill="#5A5A5A"/>
<path d="M83.6254 45.829V77.474C83.6262 78.0408 83.5151 78.6023 83.2985 79.1262C83.0819 79.6501 82.7641 80.1261 82.3633 80.5269C81.9624 80.9277 81.4864 81.2456 80.9626 81.4621C80.4387 81.6787 79.8772 81.7898 79.3104 81.789H59.0764V61.335H75.8574L83.1934 44.824C83.3285 44.9544 83.4364 45.1104 83.5106 45.283C83.5847 45.4555 83.6238 45.6412 83.6254 45.829V45.829Z" fill="#444444"/>
<path d="M83.1934 44.822L78.7344 61.335C78.4883 62.2526 77.946 63.0631 77.1917 63.6405C76.4373 64.218 75.5133 64.53 74.5634 64.528H43.5894C42.6394 64.5302 41.7153 64.2182 40.9609 63.6407C40.2066 63.0633 39.6643 62.2526 39.4184 61.335L34.9584 44.822C35.0892 44.6866 35.2457 44.5787 35.4188 44.5047C35.5919 44.4307 35.7781 44.392 35.9664 44.391H82.1864C82.3745 44.3921 82.5604 44.4309 82.7334 44.5049C82.9063 44.5789 83.0627 44.6867 83.1934 44.822V44.822Z" fill="#6E6E6E"/>
<path d="M83.1934 44.822L78.7343 61.335C78.4883 62.2526 77.946 63.0631 77.1917 63.6405C76.4373 64.218 75.5133 64.53 74.5634 64.528H59.0764V44.391H82.1863C82.3744 44.3921 82.5604 44.4309 82.7333 44.5049C82.9063 44.5789 83.0627 44.6867 83.1934 44.822V44.822Z" fill="#5A5A5A"/>
<path d="M64.8303 60.213H53.3224C53.133 60.2111 52.9452 60.247 52.7698 60.3186C52.5945 60.3902 52.4353 60.4961 52.3014 60.63C52.1674 60.7639 52.0616 60.9231 51.99 61.0985C51.9184 61.2738 51.8825 61.4616 51.8843 61.6509V67.4049C51.8825 67.5943 51.9184 67.7822 51.99 67.9575C52.0616 68.1328 52.1674 68.292 52.3014 68.4259C52.4353 68.5598 52.5945 68.6657 52.7698 68.7373C52.9452 68.8089 53.133 68.8448 53.3224 68.843H64.8294C65.0187 68.8448 65.2065 68.8089 65.3818 68.7373C65.5572 68.6657 65.7164 68.5598 65.8503 68.4259C65.9842 68.292 66.0901 68.1328 66.1617 67.9575C66.2333 67.7822 66.2692 67.5943 66.2673 67.4049V61.6509C66.2692 61.4617 66.2333 61.2739 66.1618 61.0987C66.0902 60.9235 65.9845 60.7642 65.8507 60.6303C65.7169 60.4964 65.5577 60.3906 65.3825 60.3189C65.2074 60.2473 65.0196 60.2112 64.8303 60.213Z" fill="#FFD400"/>
<path d="M66.2683 61.6509V67.4049C66.2702 67.5943 66.2343 67.7822 66.1627 67.9575C66.0911 68.1328 65.9853 68.292 65.8513 68.4259C65.7174 68.5598 65.5582 68.6657 65.3829 68.7373C65.2076 68.8089 65.0197 68.8448 64.8304 68.843H59.0764V60.213H64.8304C65.0197 60.2111 65.2076 60.247 65.3829 60.3186C65.5582 60.3902 65.7174 60.4961 65.8513 60.63C65.9853 60.7639 66.0911 60.9231 66.1627 61.0985C66.2343 61.2738 66.2702 61.4616 66.2683 61.6509V61.6509Z" fill="#FDBF00"/>
</svg>
