<svg width="119" height="119" viewBox="0 0 119 119" fill="none" xmlns="http://www.w3.org/2000/svg">
<path d="M59.5 119C92.3609 119 119 92.3609 119 59.5C119 26.6391 92.3609 0 59.5 0C26.6391 0 0 26.6391 0 59.5C0 92.3609 26.6391 119 59.5 119Z" fill="#F2F3F6"/>
<path d="M83.6886 44.0039C83.1457 44.0039 82.6238 43.7935 82.2326 43.4169L76.5896 37.7739C76.4038 37.5881 76.2563 37.3675 76.1558 37.1247C76.0552 36.882 76.0036 36.6217 76.0036 36.3589C76.0034 35.8161 76.2135 35.2943 76.5896 34.9029L82.2326 29.2579C82.6151 28.8962 83.1216 28.6946 83.6481 28.6946C84.1746 28.6946 84.6811 28.8962 85.0636 29.2579L90.7496 34.9439C90.9356 35.1297 91.0831 35.3503 91.1837 35.593C91.2844 35.8358 91.3362 36.0961 91.3362 36.3589C91.3362 36.6218 91.2844 36.882 91.1837 37.1248C91.0831 37.3676 90.9356 37.5882 90.7496 37.7739L85.1076 43.4129C84.9217 43.6002 84.7007 43.7488 84.4572 43.8502C84.2136 43.9516 83.9524 44.0039 83.6886 44.0039V44.0039Z" fill="#C5C9F7"/>
<path d="M51.6506 76.8405L43.1582 68.3482L66.6745 44.8319L75.1668 53.3243L51.6506 76.8405Z" fill="#C5C9F7"/>
<path d="M34.6856 93.0019C34.4228 93.002 34.1626 92.9503 33.9198 92.8497C33.677 92.7492 33.4564 92.6018 33.2706 92.4159L27.5846 86.7309C27.3987 86.5452 27.2511 86.3246 27.1505 86.0818C27.0499 85.839 26.998 85.5787 26.998 85.3159C26.998 85.0531 27.0499 84.7928 27.1505 84.55C27.2511 84.3073 27.3987 84.0867 27.5846 83.9009L33.2256 78.2569C33.4114 78.0708 33.632 77.9232 33.8749 77.8224C34.1178 77.7217 34.3782 77.6699 34.6411 77.6699C34.9041 77.6699 35.1644 77.7217 35.4073 77.8224C35.6502 77.9232 35.8709 78.0708 36.0566 78.2569L41.7416 83.9419C41.9277 84.1277 42.0754 84.3483 42.1761 84.5912C42.2768 84.8341 42.3287 85.0945 42.3287 85.3574C42.3287 85.6204 42.2768 85.8807 42.1761 86.1236C42.0754 86.3665 41.9277 86.5872 41.7416 86.7729L36.0986 92.4159C35.7239 92.7908 35.2157 93.0015 34.6856 93.0019Z" fill="#C5C9F7"/>
<path d="M33.2707 92.4149C33.4565 92.6009 33.6771 92.7484 33.9199 92.8491C34.1626 92.9497 34.4229 93.0015 34.6857 93.0015C34.9486 93.0015 35.2088 92.9497 35.4516 92.8491C35.6944 92.7484 35.915 92.6009 36.1007 92.4149L41.7437 86.7719C41.9298 86.5862 42.0775 86.3655 42.1782 86.1227C42.279 85.8798 42.3308 85.6194 42.3308 85.3564C42.3308 85.0935 42.279 84.8331 42.1782 84.5902C42.0775 84.3474 41.9298 84.1267 41.7437 83.9409L38.9017 81.0989L30.4277 89.5729L33.2707 92.4149Z" fill="#A8AFF1"/>
<path d="M82.2328 43.4119C82.6241 43.7881 83.1459 43.9981 83.6888 43.9979C83.9515 43.998 84.2118 43.9463 84.4546 43.8458C84.6974 43.7452 84.918 43.5978 85.1038 43.4119L90.7487 37.7689C90.9347 37.5832 91.0822 37.3626 91.1829 37.1198C91.2835 36.877 91.3353 36.6168 91.3353 36.3539C91.3353 36.0911 91.2835 35.8309 91.1829 35.5881C91.0822 35.3453 90.9347 35.1247 90.7487 34.9389L87.9058 32.0959L79.4058 40.5959L82.2328 43.4119Z" fill="#A8AFF1"/>
<path d="M47.4048 72.5972L70.921 49.0809L75.1665 53.3264L51.6503 76.8426L47.4048 72.5972Z" fill="#A8AFF1"/>
<path d="M87.9047 57.576L62.4277 32.095L66.6737 27.849C67.0453 27.4767 67.4865 27.1815 67.9723 26.98C68.4581 26.7785 68.9788 26.6748 69.5047 26.6748C70.0306 26.6748 70.5514 26.7785 71.0371 26.98C71.5229 27.1815 71.9642 27.4767 72.3357 27.849L92.1527 47.664C92.5249 48.0355 92.8202 48.4768 93.0217 48.9625C93.2232 49.4483 93.3269 49.9691 93.3269 50.495C93.3269 51.0209 93.2232 51.5416 93.0217 52.0274C92.8202 52.5131 92.5249 52.9544 92.1527 53.326L87.9047 57.576Z" fill="#1689FC"/>
<path d="M82.2437 66.0651L53.9357 37.7561C53.7496 37.5703 53.602 37.3497 53.5012 37.1068C53.4005 36.8639 53.3486 36.6035 53.3486 36.3406C53.3486 36.0776 53.4005 35.8173 53.5012 35.5744C53.602 35.3315 53.7496 35.1108 53.9357 34.9251L56.7667 32.0941C57.1382 31.7219 57.5795 31.4266 58.0653 31.2251C58.5511 31.0236 59.0718 30.9199 59.5977 30.9199C60.1236 30.9199 60.6443 31.0236 61.1301 31.2251C61.6159 31.4266 62.0572 31.7219 62.4287 32.0941L87.9077 57.5721C88.2799 57.9436 88.5752 58.3849 88.7767 58.8707C88.9781 59.3564 89.0818 59.8772 89.0818 60.4031C89.0818 60.929 88.9781 61.4497 88.7767 61.9355C88.5752 62.4213 88.2799 62.8625 87.9077 63.2341L85.0767 66.0651C84.8909 66.2515 84.6701 66.3994 84.4271 66.5003C84.184 66.6012 83.9234 66.6531 83.6602 66.6531C83.397 66.6531 83.1364 66.6012 82.8933 66.5003C82.6503 66.3994 82.4295 66.2515 82.2437 66.0651V66.0651Z" fill="#17ACE8"/>
<path d="M30.4192 64.104L55.9002 89.582L51.6502 93.829C51.2786 94.2012 50.8374 94.4965 50.3516 94.698C49.8658 94.8994 49.3451 95.0031 48.8192 95.0031C48.2933 95.0031 47.7725 94.8994 47.2868 94.698C46.801 94.4965 46.3597 94.2012 45.9882 93.829L26.1732 74.012C25.801 73.6405 25.5057 73.1992 25.3042 72.7134C25.1027 72.2276 24.999 71.7069 24.999 71.181C24.999 70.6551 25.1027 70.1344 25.3042 69.6486C25.5057 69.1628 25.801 68.7215 26.1732 68.35L30.4192 64.104Z" fill="#1689FC"/>
<path d="M36.0803 55.612L64.3883 83.92C64.5744 84.1057 64.722 84.3264 64.8228 84.5693C64.9235 84.8121 64.9753 85.0725 64.9753 85.3355C64.9753 85.5984 64.9235 85.8588 64.8228 86.1017C64.722 86.3446 64.5744 86.5652 64.3883 86.751L61.5583 89.584C61.1867 89.9562 60.7455 90.2515 60.2597 90.4529C59.7739 90.6544 59.2532 90.7581 58.7273 90.7581C58.2014 90.7581 57.6806 90.6544 57.1949 90.4529C56.7091 90.2515 56.2678 89.9562 55.8963 89.584L30.4193 64.104C30.0471 63.7324 29.7518 63.2912 29.5503 62.8054C29.3488 62.3196 29.2451 61.7989 29.2451 61.273C29.2451 60.7471 29.3488 60.2263 29.5503 59.7406C29.7518 59.2548 30.0471 58.8135 30.4193 58.442L33.2503 55.611C33.4361 55.4251 33.6567 55.2776 33.8995 55.1771C34.1424 55.0765 34.4026 55.0248 34.6655 55.0249C34.9283 55.025 35.1885 55.0769 35.4313 55.1776C35.6741 55.2784 35.8946 55.426 36.0803 55.612V55.612Z" fill="#17ACE8"/>
<path d="M45.9881 93.8291C46.3596 94.2013 46.8009 94.4966 47.2866 94.6981C47.7724 94.8995 48.2932 95.0033 48.8191 95.0033C49.345 95.0033 49.8657 94.8995 50.3515 94.6981C50.8372 94.4966 51.2785 94.2013 51.6501 93.8291L55.896 89.5831L43.1581 76.8441L36.0811 83.9211L45.9881 93.8291Z" fill="#136EF1"/>
<path d="M75.168 44.8341L87.906 57.5721L92.152 53.3261C92.5242 52.9546 92.8195 52.5133 93.021 52.0275C93.2225 51.5417 93.3262 51.021 93.3262 50.4951C93.3262 49.9692 93.2225 49.4485 93.021 48.9627C92.8195 48.4769 92.5242 48.0356 92.152 47.6641L82.245 37.7561L75.168 44.8341Z" fill="#136EF1"/>
<path d="M55.8962 89.581C56.2677 89.9532 56.709 90.2485 57.1948 90.45C57.6806 90.6514 58.2013 90.7551 58.7272 90.7551C59.2531 90.7551 59.7738 90.6514 60.2596 90.45C60.7454 90.2485 61.1867 89.9532 61.5582 89.581L64.3892 86.75C64.5753 86.5642 64.7229 86.3436 64.8237 86.1007C64.9244 85.8578 64.9763 85.5974 64.9763 85.3345C64.9763 85.0715 64.9244 84.8112 64.8237 84.5683C64.7229 84.3254 64.5753 84.1047 64.3892 83.919L50.2352 69.762L43.1582 76.839L55.8962 89.581Z" fill="#1689FC"/>
<path d="M82.2452 66.066C82.431 66.2521 82.6516 66.3997 82.8945 66.5004C83.1374 66.6012 83.3978 66.653 83.6607 66.653C83.9237 66.653 84.184 66.6012 84.4269 66.5004C84.6698 66.3997 84.8904 66.2521 85.0762 66.066L87.9072 63.235C88.2794 62.8634 88.5747 62.4221 88.7762 61.9364C88.9777 61.4506 89.0814 60.9299 89.0814 60.404C89.0814 59.8781 88.9777 59.3573 88.7762 58.8716C88.5747 58.3858 88.2794 57.9445 87.9072 57.573L75.1692 44.835L68.0922 51.912L82.2452 66.066Z" fill="#1689FC"/>
</svg>
