<svg width="119" height="119" viewBox="0 0 119 119" fill="none" xmlns="http://www.w3.org/2000/svg">
<path d="M59.5 119C92.3609 119 119 92.3609 119 59.5C119 26.6391 92.3609 0 59.5 0C26.6391 0 0 26.6391 0 59.5C0 92.3609 26.6391 119 59.5 119Z" fill="#F2F3F6"/>
<path d="M70.517 97.4L35.429 89.01C34.4757 88.7791 33.6525 88.1804 33.1393 87.3445C32.626 86.5086 32.4645 85.5036 32.69 84.549L44.324 35.888C44.5548 34.9347 45.1536 34.1115 45.9895 33.5982C46.8254 33.085 47.8304 32.9235 48.785 33.149L83.873 41.538C84.8263 41.769 85.6494 42.368 86.1625 43.2041C86.6755 44.0402 86.8368 45.0454 86.611 46L74.977 94.66C74.7464 95.6133 74.1478 96.4365 73.3121 96.9499C72.4765 97.4633 71.4716 97.6251 70.517 97.4V97.4Z" fill="#1C2EDE"/>
<path d="M74.131 93.992H38.054C37.0737 93.9888 36.1344 93.598 35.4412 92.9048C34.748 92.2116 34.3572 91.2723 34.354 90.292V40.26C34.3572 39.2797 34.748 38.3404 35.4412 37.6472C36.1344 36.954 37.0737 36.5632 38.054 36.56H74.131C75.1113 36.5632 76.0506 36.954 76.7438 37.6472C77.437 38.3404 77.8278 39.2797 77.831 40.26V90.29C77.8281 91.2706 77.4374 92.2102 76.7442 92.9038C76.051 93.5974 75.1116 93.9886 74.131 93.992V93.992Z" fill="#4B5BE5"/>
<path d="M77.832 40.474V90.074C77.8289 91.1121 77.415 92.1069 76.681 92.8409C75.9469 93.575 74.9522 93.9888 73.914 93.992H56.093V36.555H73.914C74.9523 36.5582 75.9472 36.9721 76.6813 37.7064C77.4154 38.4407 77.8291 39.4357 77.832 40.474V40.474Z" fill="#3A4DE3"/>
<path d="M38.378 41.118H73.805V89.428H38.378V41.118Z" fill="#FFE047"/>
<path d="M56.093 41.118H73.806V89.428H56.093V41.118Z" fill="#FFCF00"/>
<path d="M56.093 79.38C63.8835 79.38 70.199 73.0645 70.199 65.274C70.199 57.4834 63.8835 51.168 56.093 51.168C48.3025 51.168 41.987 57.4834 41.987 65.274C41.987 73.0645 48.3025 79.38 56.093 79.38Z" fill="#00D9E0"/>
<path d="M70.198 65.273C70.1982 69.0132 68.713 72.6005 66.0689 75.2459C63.4248 77.8914 59.8382 79.3784 56.098 79.38V51.168C59.838 51.1693 63.4243 52.6559 66.0685 55.301C68.7126 57.9461 70.198 61.533 70.198 65.273Z" fill="#00B7BE"/>
<path d="M64.378 65.273L68.52 58.098H60.235L56.093 50.923L51.951 58.098H43.666L47.808 65.273L43.666 72.448H51.952L56.094 79.623L60.236 72.448H68.521L64.378 65.273ZM65.771 59.685L63.461 63.685L61.151 59.685H65.771ZM62.545 65.273L59.319 70.861H52.867L49.641 65.273L52.867 59.685H59.319L62.545 65.273ZM56.093 54.098L58.403 58.098H53.783L56.093 54.098ZM46.415 59.686H51.034L48.724 63.686L46.415 59.686ZM46.415 70.861L48.725 66.861L51.035 70.861H46.415ZM56.093 76.449L53.783 72.449H58.403L56.093 76.449ZM63.461 66.861L65.771 70.861H61.152L63.461 66.861Z" fill="#4B5BE5"/>
<path d="M68.52 58.0989H60.235L56.093 50.924V54.0979L58.403 58.0979H56.093V59.6849H59.319L62.545 65.2729L59.319 70.8609H56.093V72.4479H58.403L56.093 76.4479V79.6219L60.235 72.4469H68.52L64.378 65.2719L68.52 58.0989ZM61.152 59.6859H65.772L63.462 63.6859L61.152 59.6859ZM65.772 70.8609H61.152L63.462 66.8609L65.772 70.8609Z" fill="#1C2EDE"/>
<path d="M56.092 79.954C53.1886 79.954 50.3503 79.093 47.9362 77.48C45.5221 75.8669 43.6405 73.5742 42.5295 70.8918C41.4184 68.2094 41.1276 65.2577 41.6941 62.4101C42.2605 59.5624 43.6586 56.9467 45.7117 54.8937C47.7647 52.8406 50.3804 51.4425 53.2281 50.8761C56.0757 50.3096 59.0274 50.6004 61.7098 51.7114C64.3922 52.8225 66.6849 54.7041 68.298 57.1182C69.911 59.5323 70.772 62.3706 70.772 65.274C70.7667 69.1657 69.2184 72.8966 66.4665 75.6485C63.7146 78.4004 59.9838 79.9487 56.092 79.954V79.954ZM56.092 52.181C53.5026 52.181 50.9713 52.9488 48.8182 54.3874C46.6652 55.8259 44.987 57.8706 43.9959 60.2628C43.0049 62.6551 42.7454 65.2875 43.2504 67.8272C43.7553 70.3669 45.002 72.6999 46.8328 74.5311C48.6636 76.3623 50.9962 77.6095 53.5358 78.1151C56.0754 78.6206 58.7079 78.3617 61.1004 77.3712C63.4929 76.3807 65.5379 74.703 66.977 72.5503C68.416 70.3975 69.1844 67.8664 69.185 65.277C69.1829 61.8045 67.803 58.4748 65.3482 56.0187C62.8935 53.5626 59.5645 52.181 56.092 52.177V52.181Z" fill="#8A6746"/>
<path d="M56.093 50.593V52.178C59.5656 52.178 62.8959 53.5575 65.3515 56.013C67.807 58.4685 69.1864 61.7989 69.1864 65.2715C69.1864 68.7441 67.807 72.0745 65.3515 74.53C62.8959 76.9855 59.5656 78.365 56.093 78.365V79.952C59.9865 79.952 63.7205 78.4053 66.4736 75.6522C69.2268 72.899 70.7735 69.165 70.7735 65.2715C70.7735 61.378 69.2268 57.644 66.4736 54.8908C63.7205 52.1377 59.9865 50.591 56.093 50.591V50.593Z" fill="#644B32"/>
</svg>
