<?xml version="1.0"?>
<svg xmlns="http://www.w3.org/2000/svg" xmlns:xlink="http://www.w3.org/1999/xlink" version="1.1" id="Capa_1" x="0px" y="0px" viewBox="0 0 40.929 40.929" style="enable-background:new 0 0 40.929 40.929;" xml:space="preserve" width="512px" height="512px" class=""><g><g>
	<g>
		<path d="M38.304,0.246L1.874,13.6c-2.075,0.761-2.49,2.643-0.928,4.205l7.747,7.747l-2.493,6.8    c-0.76,2.074,0.305,3.139,2.379,2.379l6.8-2.493l7.745,7.745c1.562,1.562,3.445,1.146,4.206-0.928l13.354-36.43    C41.443,0.551,40.379-0.514,38.304,0.246z M26.106,15.534L15.735,28.911c-1.354,1.746-3.442,2.17-4.664,0.948    c-1.223-1.223-0.799-3.311,0.947-4.664l13.378-10.371C27.142,13.47,27.461,13.788,26.106,15.534z" data-original="#010002" class="active-path" data-old_color="#010002" fill="#FFFFFF"/>
	</g>
</g></g> </svg>
