<svg width="512" height="512" viewBox="0 0 512 512" fill="none" xmlns="http://www.w3.org/2000/svg">
<path d="M200.504 221.328L125.024 206.552L122.896 218.728L92.496 213.408C87.7008 212.566 82.7867 212.678 78.0347 213.737C73.2828 214.796 68.7862 216.781 64.8021 219.579C60.8181 222.377 57.4247 225.934 54.8162 230.044C52.2077 234.155 50.4352 238.74 49.6 243.536L29.328 359.2C27.6436 368.882 29.8714 378.836 35.5221 386.877C41.1727 394.917 49.784 400.385 59.464 402.08L89.864 407.408L86.664 425.664C85.0501 425.346 83.389 425.354 81.7782 425.687C80.1673 426.02 78.639 426.67 77.2829 427.601C75.9268 428.532 74.7701 429.724 73.8807 431.108C72.9913 432.492 72.3869 434.039 72.1032 435.659C71.8194 437.279 71.8618 438.94 72.228 440.543C72.5942 442.147 73.2769 443.661 74.2358 444.998C75.1948 446.334 76.4109 447.466 77.8128 448.326C79.2147 449.186 80.7742 449.758 82.4 450.008L252.8 479.816C256.029 480.38 259.35 479.639 262.033 477.754C264.716 475.87 266.54 472.997 267.104 469.768C267.668 466.539 266.927 463.218 265.042 460.535C263.158 457.852 260.285 456.028 257.056 455.464L264 416.176C264 416.176 201.496 234.024 201.088 231.584L200.504 221.328ZM94.152 383.056L69.808 378.8C67.4103 378.381 65.1186 377.495 63.0637 376.19C61.0089 374.885 59.2312 373.189 57.8323 371.197C56.4334 369.205 55.4406 366.957 54.9107 364.582C54.3808 362.206 54.3241 359.749 54.744 357.352L72.84 253.88C73.2586 251.482 74.1455 249.191 75.45 247.136C76.7545 245.081 78.4512 243.303 80.443 241.904C82.4347 240.505 84.6826 239.513 87.0582 238.983C89.4338 238.453 91.8905 238.396 94.288 238.816L118.632 243.072L94.152 383.056Z" fill="#CFCFCF"/>
<path d="M200 231.72L201.072 231.368L200.504 221.328L126.552 206.856L88 424C87.6683 426.095 88.1824 428.236 89.429 429.953C90.6757 431.669 92.553 432.82 94.648 433.152L254.856 462.56C256.937 462.891 259.064 462.388 260.776 461.16C262.489 459.931 263.647 458.077 264 456L259.584 410.816L200 231.72Z" fill="#F4C734"/>
<path d="M203.704 235.016L275.352 445.6C273.816 446.125 272.399 446.948 271.181 448.021C269.963 449.094 268.968 450.397 268.253 451.854C267.539 453.312 267.118 454.896 267.016 456.516C266.913 458.136 267.131 459.76 267.656 461.296C268.181 462.832 269.004 464.249 270.077 465.467C271.15 466.685 272.453 467.68 273.91 468.395C275.368 469.109 276.952 469.53 278.572 469.632C280.192 469.735 281.816 469.517 283.352 468.992L447.136 413.272C448.672 412.749 450.09 411.929 451.309 410.859C452.528 409.788 453.524 408.488 454.241 407.032C454.957 405.576 455.38 403.994 455.485 402.375C455.59 400.756 455.375 399.132 454.852 397.596C454.329 396.06 453.509 394.642 452.439 393.423C451.368 392.204 450.068 391.208 448.612 390.491C447.156 389.775 445.574 389.352 443.955 389.247C442.336 389.142 440.712 389.357 439.176 389.88L432 368.8L456.624 360.424C465.93 357.256 473.597 350.522 477.939 341.702C482.281 332.882 482.941 322.699 479.776 313.392L441.928 202.24C440.361 197.63 437.901 193.373 434.689 189.714C431.477 186.055 427.575 183.064 423.207 180.914C418.838 178.763 414.089 177.494 409.23 177.179C404.371 176.865 399.497 177.51 394.888 179.08L370.272 187.456L367.496 179.296L203.704 235.016ZM442.768 339.016L424 345.416L378.232 210.856L397 204.456C401.654 202.874 406.746 203.205 411.156 205.376C415.566 207.546 418.934 211.379 420.52 216.032L454.352 315.472C455.139 317.778 455.463 320.216 455.306 322.648C455.15 325.079 454.515 327.456 453.439 329.642C452.363 331.827 450.867 333.78 449.036 335.387C447.205 336.994 445.075 338.225 442.768 339.008V339.016Z" fill="#CFCFCF"/>
<path d="M368 176L200 231.72L269.288 440C270.107 442.035 271.671 443.681 273.661 444.603C275.652 445.524 277.919 445.652 280 444.96L434.656 394.128C435.687 393.837 436.647 393.34 437.48 392.666C438.313 391.993 439 391.157 439.499 390.21C439.999 389.263 440.301 388.224 440.387 387.156C440.473 386.089 440.342 385.015 440 384L368 176Z" fill="#F4C734"/>
<path d="M200.744 216.896C201.872 207.801 206.383 199.465 213.381 193.546C220.378 187.628 229.348 184.563 238.504 184.96C239.229 183.855 240.008 182.787 240.84 181.76C239.86 181.443 238.864 181.176 237.856 180.96C228.874 179.845 219.763 180.387 210.976 182.56C204.847 175.514 196.848 170.35 187.904 167.664C178.96 164.979 169.438 164.884 160.442 167.389C151.446 169.894 143.345 174.897 137.076 181.819C130.807 188.74 126.629 197.297 125.024 206.496L200.504 221.272C200.56 219.84 200.544 218.352 200.744 216.896V216.896Z" fill="#F9F2CC"/>
<path d="M336 56C344.837 56 352 48.8366 352 40C352 31.1634 344.837 24 336 24C327.163 24 320 31.1634 320 40C320 48.8366 327.163 56 336 56Z" fill="#F9F2CC"/>
<path d="M264 128C281.673 128 296 113.673 296 96C296 78.3269 281.673 64 264 64C246.327 64 232 78.3269 232 96C232 113.673 246.327 128 264 128Z" fill="#F9F2CC"/>
<path d="M152 128C165.255 128 176 117.255 176 104C176 90.7452 165.255 80 152 80C138.745 80 128 90.7452 128 104C128 117.255 138.745 128 152 128Z" fill="#F9F2CC"/>
<path d="M104 56C112.837 56 120 48.8366 120 40C120 31.1634 112.837 24 104 24C95.1634 24 88 31.1634 88 40C88 48.8366 95.1634 56 104 56Z" fill="#F9F2CC"/>
<path d="M200.744 216.896C200.105 221.783 200.219 226.739 201.08 231.592C201.488 233.992 202.744 233.56 204.576 233.04C209.008 231.776 213.376 230.048 217.808 228.536C219.816 227.852 222.014 227.993 223.918 228.93C225.822 229.866 227.276 231.52 227.96 233.528L233 248.352C234.425 252.857 237.456 256.681 241.517 259.098C245.578 261.514 250.385 262.353 255.024 261.456C257.554 260.877 259.934 259.774 262.01 258.218C264.087 256.661 265.813 254.686 267.078 252.419C268.343 250.153 269.117 247.647 269.352 245.062C269.587 242.478 269.276 239.873 268.44 237.416L272.08 248.112C273.505 252.616 276.535 256.439 280.594 258.854C284.653 261.27 289.458 262.111 294.096 261.216C296.626 260.637 299.006 259.534 301.083 257.977C303.159 256.421 304.886 254.446 306.152 252.18C307.417 249.914 308.193 247.408 308.428 244.823C308.664 242.239 308.354 239.633 307.52 237.176L298.152 209.648C297.471 207.64 297.615 205.443 298.552 203.541C299.49 201.639 301.144 200.187 303.152 199.504L365.768 178.2C362.765 169.358 357.317 161.547 350.056 155.675C342.795 149.802 334.019 146.107 324.744 145.019C315.469 143.93 306.076 145.492 297.652 149.525C289.229 153.557 282.121 159.893 277.152 167.8C269.728 166.363 262.042 167.238 255.131 170.307C248.221 173.375 242.417 178.49 238.504 184.96C229.368 184.642 220.44 187.736 213.46 193.64C206.48 199.543 201.947 207.834 200.744 216.896V216.896Z" fill="#F9F2CC"/>
<path d="M312 40C312 44.7468 313.408 49.3869 316.045 53.3337C318.682 57.2805 322.43 60.3566 326.816 62.1731C331.201 63.9896 336.027 64.4649 340.682 63.5388C345.338 62.6128 349.614 60.327 352.971 56.9706C356.327 53.6141 358.613 49.3377 359.539 44.6822C360.465 40.0266 359.99 35.201 358.173 30.8156C356.357 26.4302 353.28 22.6819 349.334 20.0447C345.387 17.4076 340.747 16 336 16C329.635 16 323.53 18.5286 319.029 23.0294C314.529 27.5303 312 33.6348 312 40V40ZM344 40C344 41.5823 343.531 43.129 342.652 44.4446C341.773 45.7602 340.523 46.7855 339.061 47.391C337.6 47.9965 335.991 48.155 334.439 47.8463C332.887 47.5376 331.462 46.7757 330.343 45.6569C329.224 44.538 328.462 43.1126 328.154 41.5607C327.845 40.0089 328.003 38.4003 328.609 36.9385C329.214 35.4767 330.24 34.2273 331.555 33.3482C332.871 32.4692 334.418 32 336 32C338.122 32 340.157 32.8429 341.657 34.3431C343.157 35.8434 344 37.8783 344 40Z" fill="black"/>
<path d="M264 56C256.089 56 248.355 58.346 241.777 62.7412C235.199 67.1365 230.072 73.3836 227.045 80.6927C224.017 88.0017 223.225 96.0444 224.769 103.804C226.312 111.563 230.122 118.69 235.716 124.284C241.31 129.878 248.437 133.688 256.196 135.231C263.956 136.775 271.998 135.983 279.307 132.955C286.616 129.928 292.864 124.801 297.259 118.223C301.654 111.645 304 103.911 304 96C303.987 85.3952 299.769 75.2285 292.27 67.7298C284.772 60.2311 274.605 56.0127 264 56V56ZM264 120C259.253 120 254.613 118.592 250.666 115.955C246.72 113.318 243.643 109.57 241.827 105.184C240.01 100.799 239.535 95.9734 240.461 91.3178C241.387 86.6623 243.673 82.3859 247.029 79.0294C250.386 75.673 254.662 73.3872 259.318 72.4612C263.973 71.5351 268.799 72.0104 273.184 73.8269C277.57 75.6434 281.318 78.7195 283.955 82.6663C286.592 86.6131 288 91.2532 288 96C288 102.365 285.471 108.47 280.971 112.971C276.47 117.471 270.365 120 264 120Z" fill="black"/>
<path d="M152 136C158.329 136 164.516 134.123 169.778 130.607C175.041 127.091 179.142 122.093 181.564 116.246C183.986 110.399 184.62 103.965 183.385 97.7571C182.15 91.5497 179.103 85.8479 174.627 81.3726C170.152 76.8973 164.45 73.8496 158.243 72.6149C152.035 71.3802 145.601 72.0139 139.754 74.4359C133.907 76.8579 128.909 80.9594 125.393 86.2218C121.877 91.4841 120 97.671 120 104C120 112.487 123.371 120.626 129.373 126.627C135.374 132.629 143.513 136 152 136ZM152 88C155.165 88 158.258 88.9384 160.889 90.6965C163.52 92.4546 165.571 94.9535 166.782 97.8771C167.993 100.801 168.31 104.018 167.693 107.121C167.075 110.225 165.551 113.076 163.314 115.314C161.076 117.551 158.225 119.075 155.121 119.693C152.018 120.31 148.801 119.993 145.877 118.782C142.953 117.571 140.455 115.52 138.696 112.889C136.938 110.258 136 107.165 136 104C136 99.7566 137.686 95.6869 140.686 92.6863C143.687 89.6857 147.757 88 152 88V88Z" fill="black"/>
<path d="M104 16C99.2533 16 94.6131 17.4076 90.6663 20.0447C86.7195 22.6819 83.6434 26.4302 81.8269 30.8156C80.0104 35.201 79.5351 40.0266 80.4612 44.6822C81.3872 49.3377 83.673 53.6141 87.0294 56.9706C90.3859 60.327 94.6623 62.6128 99.3178 63.5388C103.973 64.4649 108.799 63.9896 113.184 62.1731C117.57 60.3566 121.318 57.2805 123.955 53.3337C126.592 49.3869 128 44.7468 128 40C128 33.6348 125.471 27.5303 120.971 23.0294C116.47 18.5286 110.365 16 104 16ZM104 48C102.418 48 100.871 47.5308 99.5554 46.6518C98.2399 45.7727 97.2145 44.5233 96.609 43.0615C96.0035 41.5997 95.845 39.9911 96.1537 38.4393C96.4624 36.8874 97.2243 35.462 98.3432 34.3431C99.462 33.2243 100.887 32.4624 102.439 32.1537C103.991 31.845 105.6 32.0035 107.061 32.609C108.523 33.2145 109.773 34.2398 110.652 35.5554C111.531 36.871 112 38.4177 112 40C112 42.1217 111.157 44.1566 109.657 45.6569C108.157 47.1571 106.122 48 104 48Z" fill="black"/>
<path d="M298.195 272.979L313.334 267.829L365.077 419.916L349.937 425.067L298.195 272.979Z" fill="black"/>
<path d="M257.246 286.905L272.386 281.754L324.128 433.841L308.989 438.992L257.246 286.905Z" fill="black"/>
<path d="M339.154 259.043L354.294 253.892L406.031 405.981L390.891 411.132L339.154 259.043Z" fill="black"/>
<path d="M58.088 409.96L80.64 413.904L79.92 418.016C75.3489 419.083 71.2872 421.698 68.4231 425.417C65.5589 429.136 64.0684 433.731 64.2039 438.423C64.3395 443.115 66.0928 447.616 69.1669 451.163C72.241 454.711 76.4469 457.086 81.072 457.888L251.472 487.688C252.629 487.894 253.801 487.999 254.976 488C258.87 487.982 262.678 486.848 265.948 484.733C269.217 482.617 271.812 479.609 273.424 476.064C276.985 476.877 280.702 476.672 284.152 475.472L447.936 419.752C452.377 418.241 456.16 415.243 458.645 411.264C461.13 407.286 462.165 402.571 461.575 397.917C460.986 393.264 458.807 388.957 455.408 385.724C452.009 382.491 447.597 380.531 442.92 380.176L441.576 376.232L463.248 368.856C474.557 364.993 483.871 356.802 489.149 346.081C494.427 335.359 495.236 322.982 491.4 311.664L453.6 200.52C451.694 194.916 448.704 189.743 444.798 185.295C440.893 180.848 436.15 177.213 430.84 174.599C425.529 171.984 419.756 170.442 413.85 170.059C407.943 169.676 402.019 170.461 396.416 172.368L374.736 179.744L373.336 175.616C369.991 165.759 364.028 156.997 356.087 150.268C348.145 143.539 338.524 139.095 328.251 137.413C317.979 135.731 307.443 136.873 297.769 140.718C288.096 144.563 279.651 150.965 273.336 159.24C266.433 158.725 259.505 159.832 253.106 162.471C246.707 165.11 241.013 169.209 236.48 174.44C234.753 173.875 232.989 173.432 231.2 173.112C225.286 172.086 219.226 172.25 213.376 173.592C205.86 166.397 196.53 161.379 186.383 159.075C176.236 156.772 165.654 157.269 155.768 160.513C145.882 163.757 137.063 169.628 130.254 177.496C123.445 185.364 118.903 194.934 117.112 205.184L116.36 209.48L93.8 205.536C87.9697 204.516 81.9956 204.654 76.2188 205.943C70.4419 207.231 64.9756 209.646 60.1319 213.047C55.2882 216.449 51.1621 220.772 47.9892 225.768C44.8164 230.765 42.6589 236.337 41.64 242.168L21.448 357.8C19.405 369.574 22.1151 381.677 28.9839 391.455C35.8527 401.234 46.3193 407.888 58.088 409.96V409.96ZM192.296 226.76C192.614 229.782 193.241 232.762 194.168 235.656L130.024 224.456L131.52 215.896L192.296 226.76ZM212.136 238.952L220.384 236.152L223.192 244.4L214.936 247.208L212.136 238.952ZM87.656 373.8L71.176 370.92C69.8138 370.681 68.5119 370.177 67.3449 369.435C66.1778 368.693 65.1683 367.728 64.3741 366.596C63.5799 365.464 63.0166 364.186 62.7163 362.836C62.416 361.486 62.3847 360.09 62.624 358.728L80.72 255.256C81.2101 252.508 82.7671 250.066 85.0513 248.462C87.3354 246.859 90.1613 246.224 92.912 246.696L109.376 249.576L87.656 373.8ZM254.232 471.936L83.832 442.128C83.2523 442.047 82.6949 441.85 82.193 441.549C81.691 441.248 81.2548 440.849 80.9103 440.376C80.5658 439.903 80.3202 439.365 80.1879 438.795C80.0557 438.225 80.0396 437.634 80.1406 437.057C80.2416 436.481 80.4576 435.931 80.7758 435.439C81.0941 434.948 81.5079 434.526 81.9927 434.198C82.4776 433.87 83.0234 433.644 83.5978 433.531C84.1722 433.419 84.7633 433.423 85.336 433.544C87.4259 433.909 89.575 433.428 91.3108 432.209C93.0466 430.989 94.2269 429.13 94.592 427.04L127.28 240.152L200 252.872L255.752 416.8L249.232 454.072C249.051 455.107 249.076 456.168 249.306 457.193C249.535 458.218 249.964 459.188 250.568 460.048C251.173 460.908 251.941 461.64 252.829 462.203C253.718 462.766 254.708 463.148 255.744 463.328C256.883 463.529 257.896 464.173 258.56 465.121C259.224 466.068 259.485 467.241 259.284 468.38C259.083 469.519 258.439 470.532 257.491 471.196C256.544 471.86 255.371 472.121 254.232 471.92V471.936ZM445.512 399.072C445.697 399.613 445.774 400.185 445.738 400.756C445.702 401.327 445.553 401.885 445.302 402.398C445.05 402.911 444.699 403.37 444.27 403.748C443.841 404.126 443.341 404.415 442.8 404.6L279.016 460.328C277.921 460.702 276.722 460.627 275.684 460.117C274.645 459.608 273.85 458.707 273.476 457.612C273.102 456.517 273.177 455.318 273.687 454.28C274.196 453.241 275.097 452.446 276.192 452.072C277.187 451.734 278.106 451.203 278.896 450.51C279.685 449.817 280.331 448.975 280.795 448.032C281.26 447.089 281.534 446.064 281.602 445.015C281.67 443.967 281.531 442.915 281.192 441.92L220.096 262.312L229.632 259.072C231.947 262.236 234.938 264.846 238.386 266.712C241.834 268.577 245.654 269.653 249.57 269.861C253.485 270.068 257.397 269.402 261.024 267.911C264.65 266.42 267.899 264.142 270.536 261.24C272.741 263.594 275.353 265.529 278.248 266.952C282.956 269.269 288.246 270.138 293.448 269.449C298.65 268.76 303.532 266.544 307.475 263.082C311.418 259.619 314.245 255.065 315.601 249.995C316.956 244.926 316.777 239.568 315.088 234.6L313.68 230.48L368.736 211.744L429.84 391.352C430.178 392.348 430.709 393.267 431.403 394.058C432.097 394.848 432.94 395.494 433.883 395.959C434.827 396.423 435.853 396.697 436.902 396.764C437.952 396.832 439.005 396.692 440 396.352C441.092 395.986 442.284 396.066 443.317 396.576C444.35 397.085 445.139 397.983 445.512 399.072ZM305.728 207.072L360.8 188.344L363.608 196.6L308.56 215.328L305.728 207.072ZM387.864 218.272L403.688 212.888C404.998 212.442 406.384 212.258 407.766 212.348C409.147 212.437 410.498 212.799 411.739 213.411C412.981 214.023 414.09 214.875 415.002 215.916C415.914 216.957 416.612 218.169 417.056 219.48L450.888 318.912C451.786 321.558 451.596 324.452 450.362 326.958C449.127 329.465 446.949 331.379 444.304 332.28L428.48 337.664L387.864 218.272ZM401.6 187.52C408.901 185.036 416.89 185.554 423.809 188.959C430.728 192.365 436.011 198.379 438.496 205.68L476.272 316.8C478.745 324.099 478.221 332.081 474.817 338.994C471.412 345.908 465.405 351.19 458.112 353.68L436.44 361.056L433.6 352.8L449.432 347.416C456.089 345.141 461.572 340.318 464.678 334.005C467.784 327.693 468.259 320.406 466 313.744L432.16 214.304C429.883 207.65 425.061 202.17 418.752 199.063C412.442 195.956 405.159 195.476 398.496 197.728L382.672 203.112L379.872 194.864L401.6 187.52ZM245.376 189.12C248.441 184.047 252.989 180.037 258.405 177.631C263.821 175.225 269.845 174.538 275.664 175.664C277.248 175.968 278.887 175.787 280.366 175.143C281.845 174.499 283.095 173.423 283.952 172.056C288.962 164 296.614 157.935 305.6 154.896C314.685 151.818 324.557 151.986 333.532 155.37C342.508 158.754 350.032 165.146 354.824 173.456L292.968 194.504C290.964 195.193 289.316 196.649 288.384 198.553C287.453 200.456 287.315 202.651 288 204.656L299.936 239.752C300.723 242.366 300.465 245.182 299.216 247.609C297.967 250.036 295.825 251.884 293.241 252.763C290.657 253.643 287.833 253.485 285.363 252.323C282.893 251.162 280.971 249.087 280 246.536L276 234.84C275.687 233.814 275.172 232.861 274.483 232.038C273.795 231.216 272.948 230.54 271.994 230.051C271.039 229.562 269.995 229.27 268.926 229.192C267.856 229.115 266.781 229.253 265.766 229.599C264.751 229.945 263.815 230.492 263.016 231.207C262.216 231.922 261.568 232.79 261.111 233.761C260.653 234.731 260.396 235.783 260.354 236.855C260.311 237.927 260.485 238.997 260.864 240C261.704 242.631 261.478 245.486 260.234 247.952C258.99 250.418 256.828 252.297 254.212 253.184C251.597 254.071 248.738 253.896 246.25 252.696C243.763 251.496 241.846 249.367 240.912 246.768L232.912 223.368C232.228 221.362 230.775 219.709 228.873 218.773C226.971 217.837 224.775 217.694 222.768 218.376L208.136 223.352C207.818 217.067 209.551 210.85 213.075 205.636C216.599 200.423 221.722 196.496 227.672 194.448C231.044 193.3 234.601 192.793 238.16 192.952C239.594 193.024 241.021 192.705 242.288 192.028C243.555 191.352 244.614 190.344 245.352 189.112L245.376 189.12ZM180.872 174.264C190.236 175.866 198.751 180.674 204.96 187.864C205.381 188.317 205.854 188.72 206.368 189.064C200.134 194.909 195.677 202.397 193.512 210.664L135.112 200.208C138.559 191.261 145.001 183.786 153.34 179.054C161.679 174.323 171.4 172.627 180.848 174.256L180.872 174.264ZM37.208 360.552L57.44 244.912C58.0953 241.15 59.4859 237.554 61.5323 234.33C63.5786 231.106 66.2405 228.318 69.3657 226.123C72.491 223.929 76.0181 222.373 79.7455 221.543C83.4728 220.713 87.3271 220.627 91.088 221.288L113.632 225.224L112.136 233.816L95.672 230.936C92.2364 230.335 88.7159 230.417 85.3119 231.177C81.9079 231.937 78.6873 233.361 75.8341 235.367C72.9809 237.374 70.5512 239.922 68.684 242.868C66.8167 245.814 65.5486 249.1 64.952 252.536L46.856 356C45.6483 362.937 47.2454 370.069 51.2961 375.829C55.3468 381.588 61.5193 385.503 68.456 386.712L84.92 389.592L83.424 398.184L60.8 394.2C53.2173 392.851 46.4776 388.554 42.0561 382.247C37.6346 375.941 35.8914 368.14 37.208 360.552V360.552Z" fill="black"/>
<path d="M162.965 445.278L190.645 287.033L206.414 289.791L178.733 448.036L162.965 445.278Z" fill="black"/>
<path d="M205.567 452.795L221.08 358.689L236.859 361.29L221.346 455.396L205.567 452.795Z" fill="black"/>
<path d="M120.36 437.818L148.031 279.579L163.8 282.336L136.129 440.575L120.36 437.818Z" fill="black"/>
</svg>
