<svg width="50" height="41" viewBox="0 0 50 41" fill="none" xmlns="http://www.w3.org/2000/svg">
<path d="M28.0178 29.8668C27.0458 30.4178 25.9476 30.7076 24.8303 30.7076C23.713 30.7076 22.6148 30.4178 21.6428 29.8668L7.21181 21.0168C7.21181 21.0168 5.9118 20.2168 5.9118 22.0268V30.8648C5.9118 35.5208 14.3828 40.5399 24.8318 40.5399C35.2808 40.5399 43.7518 35.5208 43.7518 30.8648V21.5288C43.7518 20.0768 42.8258 20.7868 42.8258 20.7868L28.0178 29.8668Z" fill="#6C61F6"/>
<path d="M48.8308 13.9759C49.0766 13.8758 49.2871 13.7047 49.4352 13.4845C49.5834 13.2643 49.6625 13.0048 49.6625 12.7394C49.6625 12.474 49.5834 12.2146 49.4352 11.9943C49.2871 11.7741 49.0766 11.603 48.8308 11.5029L26.8468 0.509899C26.2275 0.175199 25.5347 0 24.8308 0C24.1269 0 23.434 0.175199 22.8148 0.509899L0.831802 11.5029C0.585902 11.603 0.375503 11.7741 0.227303 11.9943C0.0792025 12.2146 0 12.474 0 12.7394C0 13.0048 0.0792025 13.2643 0.227303 13.4845C0.375503 13.7047 0.585902 13.8758 0.831802 13.9759L22.8148 27.4579C23.434 27.7926 24.1269 27.9678 24.8308 27.9678C25.5347 27.9678 26.2275 27.7926 26.8468 27.4579" fill="#6C61F6"/>
<path d="M47.9208 33.9599V19.0739C47.9208 19.0739 47.9308 18.3689 47.5128 18.6019C47.0093 18.8676 46.5251 19.1683 46.0638 19.5019C45.9593 19.6337 45.8825 19.7853 45.838 19.9475C45.7935 20.1097 45.7822 20.2792 45.8048 20.4459V33.9669C45.7977 34.0388 45.7713 34.1074 45.7284 34.1655C45.6854 34.2236 45.6275 34.269 45.5608 34.2969C45.0735 34.5829 44.6939 35.0214 44.4807 35.5446C44.2675 36.0679 44.2325 36.6469 44.3812 37.192C44.53 37.7371 44.854 38.2181 45.3034 38.5606C45.7528 38.9032 46.3025 39.0882 46.8675 39.0871C47.4326 39.086 47.9815 38.8989 48.4296 38.5546C48.8776 38.2103 49.1999 37.7281 49.3465 37.1824C49.4931 36.6367 49.4559 36.0579 49.2407 35.5355C49.0255 35.013 48.6442 34.576 48.1558 34.2919C48.0894 34.2642 48.0322 34.2184 47.9906 34.1597C47.949 34.1009 47.9248 34.0317 47.9208 33.9599Z" fill="#6C61F6"/>
</svg>
