<svg width="66" height="69" viewBox="0 0 66 69" fill="none" xmlns="http://www.w3.org/2000/svg">
<path d="M23.556 12.384H57.607L65.334 46.492L62.504 46.506L62.437 58.548L65.354 58.563L65.335 60.575H19.305C14.949 60.237 15.337 52.494 15.105 50.421L18.983 15.749C18.998 14.208 20.601 12.384 23.558 12.384H23.556Z" fill="#39D2C0"/>
<path d="M23.556 12.383H26.817L23.848 60.574H19.303C13.965 59.974 13.761 51.474 15.495 46.915L18.981 15.747C18.996 14.206 20.599 12.382 23.556 12.382V12.383Z" fill="#1A91A1"/>
<path d="M19.897 46.4869H64.451C63.4678 48.3741 62.9544 50.4706 62.9544 52.5984C62.9544 54.7263 63.4678 56.8228 64.451 58.71H19.897C15.121 58.711 15.121 46.4869 19.897 46.4869Z" fill="white"/>
<path d="M16.658 49.848H63.258C63.2306 49.9706 63.2053 50.093 63.182 50.215H16.569C16.596 50.091 16.625 49.968 16.658 49.848ZM63.042 51.134C63.027 51.256 63.015 51.379 63.004 51.501H16.365C16.376 51.378 16.391 51.256 16.407 51.134H63.042ZM62.957 52.42V52.787H16.316V52.42H62.957ZM63.005 53.705C63.0157 53.8276 63.0283 53.95 63.043 54.072H16.408C16.392 53.95 16.378 53.8276 16.366 53.705H63.005ZM63.185 54.991C63.2083 55.1136 63.2337 55.236 63.261 55.358H16.661C16.6287 55.2362 16.5987 55.1138 16.571 54.991H63.185ZM63.497 56.277C63.533 56.3996 63.571 56.522 63.611 56.644H17.131C17.0729 56.5234 17.0185 56.401 16.968 56.277H63.497ZM63.942 57.563C63.991 57.685 64.042 57.808 64.093 57.93H18.029C17.9102 57.8152 17.7993 57.6926 17.697 57.563H63.941H63.942Z" fill="#ECF0F1"/>
<path d="M33.45 52.75H40.412V68.195L36.902 63.156L33.45 68.195V52.75Z" fill="#FF5B61"/>
<path d="M11.934 33.996L59.134 17.112C64.421 16.674 66.004 27.429 62.534 28.444L16.422 45.752C13.803 46.739 11.242 42.527 11.014 38.398C10.893 36.205 11.489 36.271 13.987 35.293L11.934 33.993V33.996Z" fill="white"/>
<path d="M64.022 26.835C63.92 27.2016 63.7322 27.5387 63.4741 27.8185C63.2161 28.0983 62.8952 28.3127 62.538 28.444L16.422 45.752C16.033 45.891 15.6146 45.9271 15.2075 45.8571C14.8004 45.787 14.4182 45.613 14.098 45.352C14.7018 45.4559 15.3224 45.398 15.8966 45.1842C16.4708 44.9705 16.9781 44.6084 17.367 44.135L64.022 26.835Z" fill="#ECF0F1"/>
<path d="M42.911 22.92C46.417 23.425 48.921 31.748 47.169 34.212L40.796 36.604C41.952 32.704 39.433 26.195 35.931 25.419L42.911 22.92Z" fill="#FFBA1B"/>
<path d="M54.202 39.763L47.169 34.212L40.796 36.604L46.118 42.789L48.577 39.114L54.202 39.763Z" fill="#F5A209"/>
<path d="M13.679 35.421L13.987 35.292C15.914 35.682 19.295 42.592 15.587 44.123C12.952 45.213 11.725 39.499 11.821 37.604C12.95 36.795 14.17 40.204 13.779 40.285L12.997 40.44C12.997 40.44 13.021 41.934 13.779 42.04L16.804 41.061C16.804 41.061 16.558 36.661 13.675 35.424L13.679 35.421Z" fill="#ECF0F1"/>
<path d="M24.559 49.05H63.459C63.7117 48.171 64.0424 47.3162 64.447 46.496V46.488H19.897C15.475 46.488 15.144 56.956 18.907 58.518C17.633 54.913 18.651 49.051 21.961 49.051H24.561L24.559 49.05Z" fill="#ECF0F1"/>
<path d="M39.4 10.937L39.783 17.637C37.606 21.327 30.656 24.066 23.814 23.997C17.293 23.931 10.86 21.226 9.092 17.818L9.056 11.258L23.625 15.28L39.4 10.942V10.937Z" fill="#666666"/>
<path d="M0.0679932 8.60699L23.625 0.648987L47.182 8.60699L23.625 16.565L0.0679932 8.60699Z" fill="#807D7D"/>
<path d="M8.44101 24.899L7.36301 31.807C7.34601 31.919 7.72501 32.072 7.90601 31.847C7.94151 31.9021 7.99091 31.9468 8.04911 31.9769C8.10731 32.0069 8.17241 32.0212 8.23781 32.0182C8.30321 32.0153 8.36681 31.9953 8.42211 31.9601C8.47741 31.925 8.52251 31.876 8.55301 31.818C8.58041 31.8743 8.62281 31.9218 8.67551 31.9555C8.72831 31.9892 8.78931 32.0076 8.85181 32.0089C8.91441 32.0101 8.97601 31.9941 9.03011 31.9625C9.08411 31.931 9.12831 31.8851 9.15801 31.83C9.33901 32.055 9.74401 31.898 9.71401 31.71L8.64201 24.895C8.63411 24.8745 8.62001 24.8569 8.60171 24.8448C8.58341 24.8326 8.56181 24.8264 8.53991 24.8271C8.51791 24.8277 8.49671 24.8352 8.47911 24.8485C8.46161 24.8617 8.44861 24.8801 8.44201 24.901L8.44101 24.899Z" fill="#FF5B61"/>
<path d="M23.782 6.59102C23.8159 6.58082 23.8514 6.57752 23.8866 6.58112C23.9217 6.58482 23.9559 6.59532 23.987 6.61212C24.0181 6.62892 24.0456 6.65172 24.0679 6.67912C24.0902 6.70652 24.1069 6.73812 24.117 6.77202C24.1271 6.80582 24.1304 6.84142 24.1268 6.87662C24.1232 6.91172 24.1127 6.94582 24.0959 6.97692C24.079 7.00812 24.0563 7.03552 24.0288 7.05792C24.0014 7.08022 23.9699 7.09692 23.936 7.10702L8.785 11.662V24.874C8.785 24.9454 8.7566 25.014 8.706 25.0645C8.6555 25.1151 8.5869 25.1435 8.5155 25.1435C8.444 25.1435 8.3754 25.1151 8.3249 25.0645C8.2744 25.014 8.246 24.9454 8.246 24.874V11.462C8.2459 11.404 8.2646 11.3476 8.2992 11.3011C8.3338 11.2546 8.3825 11.2206 8.438 11.204L23.782 6.59102Z" fill="white"/>
<path d="M8.539 25.7759C8.7504 25.7759 8.9571 25.7132 9.1329 25.5958C9.3087 25.4783 9.4457 25.3114 9.5266 25.116C9.6075 24.9207 9.6287 24.7058 9.5874 24.4984C9.5462 24.291 9.4444 24.1005 9.2949 23.951C9.1454 23.8015 8.9549 23.6997 8.7475 23.6585C8.5402 23.6172 8.3252 23.6384 8.1299 23.7193C7.9345 23.8002 7.7676 23.9372 7.6501 24.113C7.5327 24.2888 7.47 24.4955 7.47 24.7069C7.4705 24.9903 7.5833 25.2619 7.7837 25.4623C7.984 25.6626 8.2556 25.7754 8.539 25.7759Z" fill="white"/>
<path d="M9.40599 24.435C9.40619 24.5706 9.3795 24.7048 9.3277 24.8301C9.2759 24.9554 9.19989 25.0692 9.10399 25.165C9.00819 25.2609 8.89439 25.3369 8.76909 25.3887C8.64379 25.4405 8.50959 25.4671 8.37399 25.467H8.35399C8.18659 25.4638 8.02239 25.4199 7.87569 25.339C7.72899 25.2582 7.60419 25.1429 7.51199 25.003C7.56569 25.1883 7.66829 25.3556 7.80909 25.4875C7.94989 25.6193 8.12359 25.7107 8.31199 25.752C8.38759 25.7685 8.46469 25.7769 8.54199 25.777C8.75569 25.7767 8.96449 25.7123 9.14129 25.5923C9.31809 25.4722 9.45489 25.302 9.53409 25.1035C9.61329 24.905 9.6312 24.6873 9.5856 24.4785C9.5399 24.2697 9.43279 24.0794 9.27799 23.932C9.36309 24.0849 9.4078 24.257 9.408 24.432L9.40599 24.435Z" fill="#ECF0F1"/>
</svg>
