<svg width="41" height="60" viewBox="0 0 41 60" fill="none" xmlns="http://www.w3.org/2000/svg">
<path d="M28.9709 3.33398C28.2432 3.33398 27.5319 3.54978 26.9269 3.95398C26.3219 4.35828 25.8504 4.93278 25.5719 5.60508C25.2935 6.27728 25.2206 7.01709 25.3626 7.73069C25.5045 8.44439 25.8549 9.09988 26.3694 9.61438C26.884 10.1289 27.5395 10.4793 28.2531 10.6213C28.9668 10.7632 29.7065 10.6904 30.3788 10.4119C31.051 10.1335 31.6256 9.66188 32.0299 9.05688C32.4341 8.45188 32.65 7.74059 32.65 7.01299C32.65 6.03729 32.2623 5.10148 31.5723 4.41148C30.8824 3.72158 29.9466 3.33398 28.9709 3.33398Z" fill="#FFC10D"/>
<path d="M28.972 0.0100203C27.5862 0.0130203 26.2325 0.42672 25.0818 1.19892C23.9312 1.97112 23.0353 3.06712 22.5074 4.34842C21.9795 5.62972 21.8433 7.03872 22.1161 8.39732C22.3888 9.75602 23.0583 11.0033 24.0397 11.9815C25.0212 12.9598 26.2707 13.6251 27.6302 13.8934C28.9898 14.1617 30.3983 14.0209 31.6778 13.4888C32.9574 12.9567 34.0504 12.0573 34.8188 10.9041C35.5873 9.75092 35.9966 8.39582 35.995 7.01002C35.9936 6.08922 35.8107 5.17782 35.457 4.32762C35.1033 3.47752 34.5856 2.70542 33.9334 2.05542C33.2812 1.40532 32.5074 0.89012 31.6561 0.53922C30.8048 0.18832 29.8928 0.00842035 28.972 0.0100203ZM28.972 10.702C28.2443 10.702 27.5331 10.4862 26.9281 10.082C26.323 9.67772 25.8515 9.10322 25.573 8.43092C25.2946 7.75872 25.2217 7.01892 25.3637 6.30532C25.5056 5.59162 25.856 4.93612 26.3705 4.42162C26.8851 3.90712 27.5406 3.55672 28.2543 3.41472C28.9679 3.27282 29.7076 3.34562 30.3799 3.62412C31.0521 3.90252 31.6267 4.37412 32.031 4.97912C32.4352 5.58412 32.651 6.29542 32.651 7.02302C32.651 7.99882 32.2634 8.93452 31.5734 9.62452C30.8835 10.3144 29.9477 10.702 28.972 10.702Z" fill="#194F82"/>
<path d="M37.06 21.265C37.06 20.9671 37.0013 20.672 36.8873 20.3967C36.7732 20.1214 36.6061 19.8713 36.3954 19.6606C36.1847 19.4499 35.9346 19.2828 35.6593 19.1687C35.384 19.0547 35.089 18.996 34.791 18.996H33.953L30.501 27.38C30.374 27.6833 30.1602 27.9422 29.8864 28.1243C29.6127 28.3065 29.2913 28.4036 28.9625 28.4036C28.6337 28.4036 28.3123 28.3065 28.0385 28.1243C27.7648 27.9422 27.551 27.6833 27.424 27.38L23.972 18.986H23.144C22.545 18.9865 21.9705 19.2241 21.5461 19.6468C21.1217 20.0695 20.8819 20.643 20.879 21.242V39.42H37.055V21.265H37.06Z" fill="#56ACE0"/>
<path d="M23.4779 56.576H27.3049V48.843C27.3049 48.4009 27.4805 47.9769 27.7931 47.6643C28.1058 47.3517 28.5298 47.176 28.9719 47.176C29.414 47.176 29.838 47.3517 30.1506 47.6643C30.4633 47.9769 30.6389 48.4009 30.6389 48.843V56.576H34.4659V42.767H23.4659V56.576H23.4779Z" fill="#FFC10D"/>
<path d="M34.7999 15.663H32.8569C32.5292 15.6638 32.209 15.7616 31.9369 15.9443C31.6647 16.1269 31.4528 16.386 31.3279 16.689L28.9899 22.37L26.6429 16.689C26.5185 16.3856 26.3067 16.1261 26.0345 15.9434C25.7622 15.7607 25.4418 15.6631 25.1139 15.663H23.1609C21.6781 15.6649 20.2566 16.2547 19.2081 17.3032C18.1596 18.3517 17.5697 19.7732 17.5679 21.256V41.104C17.5676 41.323 17.6106 41.5399 17.6942 41.7423C17.7779 41.9446 17.9007 42.1285 18.0556 42.2834C18.2104 42.4382 18.3943 42.561 18.5966 42.6447C18.799 42.7283 19.0159 42.7713 19.2349 42.771H20.1619V58.237C20.1616 58.4562 20.2046 58.6732 20.2884 58.8757C20.3722 59.0782 20.4952 59.2622 20.6502 59.4171C20.8053 59.5719 20.9894 59.6947 21.192 59.7782C21.3946 59.8618 21.6117 59.9045 21.8309 59.904H36.1509C36.3699 59.9043 36.5867 59.8613 36.7891 59.7777C36.9915 59.694 37.1754 59.5712 37.3302 59.4164C37.4851 59.2615 37.6078 59.0776 37.6915 58.8753C37.7752 58.6729 37.8181 58.456 37.8179 58.237V42.767H38.7349C38.9539 42.7673 39.1707 42.7244 39.3731 42.6407C39.5755 42.557 39.7594 42.4342 39.9142 42.2794C40.0691 42.1245 40.1918 41.9406 40.2755 41.7383C40.3592 41.5359 40.4021 41.319 40.4019 41.1V21.265C40.3995 19.78 39.8085 18.3565 38.7585 17.3064C37.7084 16.2564 36.2849 15.6654 34.7999 15.663ZM34.4839 56.576H30.6569V48.843C30.6569 48.4009 30.4812 47.9769 30.1686 47.6643C29.856 47.3517 29.432 47.176 28.9899 47.176C28.5478 47.176 28.1238 47.3517 27.8111 47.6643C27.4985 47.9769 27.3229 48.4009 27.3229 48.843V56.576H23.4959V42.767H34.4959V56.576H34.4839ZM20.8839 39.444V21.265C20.8839 20.9671 20.9426 20.672 21.0566 20.3967C21.1706 20.1214 21.3378 19.8713 21.5485 19.6606C21.7592 19.4499 22.0093 19.2828 22.2846 19.1687C22.5599 19.0547 22.8549 18.996 23.1529 18.996H23.9909L27.4429 27.39C27.5699 27.6933 27.7837 27.9522 28.0574 28.1344C28.3312 28.3165 28.6526 28.4136 28.9814 28.4136C29.3102 28.4136 29.6316 28.3165 29.9053 28.1344C30.1791 27.9522 30.3929 27.6933 30.5199 27.39L33.9719 19.004H34.8099C35.1079 19.004 35.4029 19.0627 35.6782 19.1767C35.9535 19.2908 36.2036 19.4579 36.4143 19.6686C36.625 19.8793 36.7921 20.1294 36.9062 20.4047C37.0202 20.68 37.0789 20.9751 37.0789 21.273V39.451H20.8789L20.8839 39.444Z" fill="#194F82"/>
<path d="M10.537 3.33401C10.9791 3.33401 11.4031 3.15841 11.7157 2.84581C12.0284 2.53311 12.204 2.10911 12.204 1.66701C12.204 1.22491 12.0284 0.800909 11.7157 0.488309C11.4031 0.175609 10.9791 8.46916e-06 10.537 8.46916e-06H1.67C1.4507 -0.000691531 1.2335 0.0420082 1.0308 0.125508C0.828101 0.209008 0.643899 0.331709 0.488699 0.486609C0.333499 0.641509 0.2105 0.825508 0.1266 1.02811C0.0427999 1.23061 -0.000298445 1.44781 1.55547e-06 1.66701V58.233C-0.000298445 58.4522 0.0427999 58.6694 0.1266 58.8719C0.2105 59.0745 0.333499 59.2585 0.488699 59.4134C0.643899 59.5683 0.828101 59.691 1.0308 59.7745C1.2335 59.858 1.4507 59.9007 1.67 59.9H10.537C10.9791 59.9 11.4031 59.7244 11.7157 59.4118C12.0284 59.0991 12.204 58.6751 12.204 58.233C12.204 57.7909 12.0284 57.3669 11.7157 57.0543C11.4031 56.7416 10.9791 56.566 10.537 56.566H3.347V51.9H10.537C10.9791 51.9 11.4031 51.7244 11.7157 51.4118C12.0284 51.0991 12.204 50.6751 12.204 50.233C12.204 49.7909 12.0284 49.3669 11.7157 49.0543C11.4031 48.7416 10.9791 48.566 10.537 48.566H3.347V43.675H6.779C7.2211 43.675 7.6451 43.4994 7.9577 43.1868C8.2704 42.8741 8.446 42.4501 8.446 42.008C8.446 41.5659 8.2704 41.1419 7.9577 40.8293C7.6451 40.5166 7.2211 40.341 6.779 40.341H3.347V35.7H10.537C10.9791 35.7 11.4031 35.5244 11.7157 35.2118C12.0284 34.8991 12.204 34.4751 12.204 34.033C12.204 33.5909 12.0284 33.1669 11.7157 32.8543C11.4031 32.5416 10.9791 32.366 10.537 32.366H3.347V27.479H6.779C7.2211 27.479 7.6451 27.3034 7.9577 26.9908C8.2704 26.6781 8.446 26.2541 8.446 25.812C8.446 25.3699 8.2704 24.9459 7.9577 24.6333C7.6451 24.3206 7.2211 24.145 6.779 24.145H3.347V19.519H10.537C10.9791 19.519 11.4031 19.3434 11.7157 19.0308C12.0284 18.7181 12.204 18.2941 12.204 17.852C12.204 17.4099 12.0284 16.9859 11.7157 16.6733C11.4031 16.3606 10.9791 16.185 10.537 16.185H3.347V11.285H6.779C7.2211 11.285 7.6451 11.1094 7.9577 10.7968C8.2704 10.4841 8.446 10.0601 8.446 9.61801C8.446 9.17591 8.2704 8.75191 7.9577 8.43931C7.6451 8.12661 7.2211 7.95101 6.779 7.95101H3.347V3.26501H10.537V3.33401Z" fill="#194F82"/>
</svg>
