<svg width="18" height="18" viewBox="0 0 18 18" fill="none" xmlns="http://www.w3.org/2000/svg">
<path d="M8.95781 1.01576L2.0318 7.84976V17.7308H15.8838V7.84976L8.95781 1.01576Z" fill="#FCAE3D"/>
<path d="M11.3588 12.1898H6.6488V17.7308H11.3588V12.1898Z" fill="#435B6C"/>
<path d="M17.6378 8.21877L9.69583 0.276772C9.49128 0.0977211 9.22868 -0.000976562 8.95683 -0.000976562C8.68499 -0.000976562 8.42239 0.0977211 8.21783 0.276772L0.275833 8.21877C0.0798381 8.41476 -0.0302734 8.68059 -0.0302734 8.95777C-0.0302734 9.23495 0.0798381 9.50077 0.275833 9.69677C0.471828 9.89276 0.737653 10.0029 1.01483 10.0029C1.29201 10.0029 1.55783 9.89276 1.75383 9.69677L8.95383 2.39677L16.1538 9.59677C16.3586 9.77543 16.6211 9.87386 16.8928 9.87386C17.1646 9.87386 17.4271 9.77543 17.6318 9.59677C17.8094 9.41167 17.909 9.16543 17.9101 8.90897C17.9112 8.6525 17.8137 8.40541 17.6378 8.21877V8.21877Z" fill="#435B6C"/>
</svg>
