<svg width="60" height="55" viewBox="0 0 60 55" fill="none" xmlns="http://www.w3.org/2000/svg">
<path d="M53.057 22.01H7.05702L3.40002 51.01H56.171L53.057 22.01Z" fill="white"/>
<path d="M53.057 22.01L56.171 51.01H3.4L7.055 22.01H53.055H53.057ZM55.75 19.01H4.411L4.08 21.635L0.425 50.635L0 54.01H59.51L59.153 50.69L56.039 21.69L55.752 19.01H55.75Z" fill="#556080"/>
<path d="M13.684 47.01C13.427 47.0098 13.1702 46.9941 12.915 46.963C12.6947 46.937 12.4765 46.8955 12.262 46.839C12.1324 46.8085 12.0101 46.7525 11.9025 46.6741C11.7948 46.5958 11.7039 46.4967 11.635 46.3827C11.5661 46.2688 11.5207 46.1422 11.5014 46.0104C11.4821 45.8787 11.4893 45.7444 11.5226 45.6155C11.5559 45.4866 11.6147 45.3656 11.6953 45.2596C11.776 45.1537 11.877 45.065 11.9925 44.9986C12.1079 44.9322 12.2355 44.8896 12.3676 44.8732C12.4997 44.8568 12.6338 44.8669 12.762 44.903C12.8936 44.9363 13.0272 44.9614 13.162 44.978C13.566 45.024 13.9742 45.019 14.377 44.963C14.6376 44.9348 14.8989 45.0101 15.1046 45.1727C15.3103 45.3352 15.4439 45.5721 15.4767 45.8322C15.5094 46.0923 15.4388 46.3549 15.2798 46.5634C15.1209 46.7719 14.8865 46.9096 14.627 46.947C14.3144 46.9885 13.9994 47.0095 13.684 47.01V47.01ZM18.334 45.852C18.1004 45.8523 17.8742 45.7708 17.6944 45.6216C17.5146 45.4725 17.3927 45.2652 17.3499 45.0356C17.307 44.806 17.3458 44.5686 17.4596 44.3647C17.5735 44.1607 17.7551 44.0031 17.973 43.919C18.565 43.69 19.161 43.436 19.747 43.16C19.9862 43.0531 20.2577 43.0443 20.5033 43.1356C20.7489 43.2268 20.9489 43.4107 21.0602 43.6479C21.1716 43.885 21.1854 44.1564 21.0988 44.4036C21.0122 44.6509 20.832 44.8542 20.597 44.97C19.969 45.265 19.328 45.538 18.697 45.783C18.5815 45.8288 18.4582 45.8516 18.334 45.85V45.852ZM9.987 44.12C9.73926 44.1198 9.50044 44.0276 9.3168 43.8613C9.13316 43.695 9.01777 43.4665 8.993 43.22C8.97369 43.0233 8.96435 42.8257 8.965 42.628C8.965 42.512 8.965 42.396 8.974 42.281C8.99865 41.8062 9.07442 41.3355 9.2 40.877C9.23154 40.7473 9.28873 40.6252 9.36819 40.518C9.44765 40.4107 9.54777 40.3205 9.66266 40.2526C9.77755 40.1846 9.90488 40.1404 10.0371 40.1224C10.1694 40.1044 10.3039 40.1132 10.4328 40.148C10.5616 40.1828 10.6822 40.2431 10.7873 40.3253C10.8925 40.4075 10.9802 40.5099 11.0452 40.6265C11.1101 40.7431 11.1511 40.8715 11.1657 41.0042C11.1803 41.1368 11.1681 41.2711 11.13 41.399C11.0425 41.72 10.9902 42.0496 10.974 42.382C10.974 42.464 10.967 42.547 10.967 42.63C10.9663 42.7599 10.9727 42.8898 10.986 43.019C10.9998 43.15 10.9877 43.2824 10.9502 43.4087C10.9127 43.5349 10.8506 43.6525 10.7676 43.7548C10.6845 43.857 10.582 43.9418 10.4661 44.0043C10.3502 44.0668 10.223 44.1058 10.092 44.119C10.055 44.118 10.021 44.12 9.987 44.12ZM23.666 43.12C23.4501 43.1204 23.2399 43.0509 23.0668 42.922C22.8937 42.7931 22.7669 42.6116 22.7055 42.4046C22.644 42.1977 22.6512 41.9764 22.7259 41.7739C22.8006 41.5714 22.9389 41.3985 23.12 41.281C23.655 40.934 24.186 40.561 24.7 40.174C24.9122 40.0142 25.1791 39.9452 25.4422 39.9823C25.7052 40.0193 25.9427 40.1593 26.1025 40.3715C26.2623 40.5837 26.3313 40.8506 26.2942 41.1137C26.2572 41.3767 26.1172 41.6142 25.905 41.774C25.353 42.189 24.783 42.589 24.21 42.962C24.0478 43.0664 23.8589 43.1216 23.666 43.121V43.12ZM28.425 39.47C28.2139 39.4702 28.0082 39.4035 27.8372 39.2796C27.6663 39.1557 27.539 38.9809 27.4735 38.7802C27.408 38.5795 27.4077 38.3633 27.4727 38.1624C27.5376 37.9615 27.6644 37.7864 27.835 37.662C28.044 37.511 28.257 37.362 28.476 37.221C28.8632 36.97 29.2638 36.7403 29.676 36.533C29.7933 36.4739 29.9212 36.4385 30.0522 36.4288C30.1832 36.4191 30.3148 36.4353 30.4396 36.4765C30.5644 36.5177 30.6798 36.583 30.7793 36.6688C30.8788 36.7546 30.9604 36.8592 31.0195 36.9765C31.0786 37.0938 31.114 37.2217 31.1237 37.3527C31.1334 37.4837 31.1172 37.6153 31.076 37.7401C31.0348 37.8649 30.9695 37.9803 30.8837 38.0798C30.7979 38.1793 30.6933 38.2609 30.576 38.32C30.2292 38.4941 29.8921 38.6867 29.566 38.897C29.378 39.0203 29.194 39.1477 29.014 39.279C28.8429 39.4037 28.6367 39.471 28.425 39.471V39.47ZM12.469 38.997C12.2468 38.9969 12.031 38.9227 11.8557 38.7863C11.6803 38.6499 11.5554 38.459 11.5006 38.2437C11.4458 38.0284 11.4642 37.8009 11.553 37.5973C11.6418 37.3936 11.7959 37.2253 11.991 37.119C12.5001 36.8408 13.0585 36.6641 13.635 36.599C13.9312 36.5652 14.2304 36.5679 14.526 36.607C14.7832 36.6482 15.0141 36.7882 15.1697 36.997C15.3253 37.2059 15.3932 37.4672 15.3591 37.7254C15.3249 37.9836 15.1914 38.2183 14.9869 38.3796C14.7824 38.5409 14.523 38.616 14.264 38.589C14.1292 38.572 13.9928 38.572 13.858 38.589C13.5377 38.6248 13.2275 38.723 12.945 38.878C12.7988 38.9569 12.6352 38.9982 12.469 38.998V38.997ZM33.9 37.15C33.653 37.1499 33.4148 37.0583 33.2313 36.893C33.0478 36.7276 32.9319 36.5002 32.9061 36.2546C32.8803 36.0089 32.9462 35.7624 33.0914 35.5625C33.2365 35.3626 33.4504 35.2235 33.692 35.172C34.335 35.034 35.027 34.92 35.75 34.83C35.8805 34.8121 36.0133 34.8205 36.1405 34.8548C36.2678 34.889 36.3868 34.9484 36.4908 35.0294C36.5947 35.1104 36.6813 35.2113 36.7456 35.3263C36.8099 35.4413 36.8505 35.5681 36.865 35.699C36.8964 35.9608 36.8232 36.2245 36.6612 36.4325C36.4992 36.6406 36.2615 36.7763 36 36.81C35.335 36.893 34.7 36.998 34.114 37.123C34.0439 37.1401 33.9721 37.1491 33.9 37.15V37.15ZM39.86 36.533C39.7287 36.5356 39.5981 36.5124 39.4758 36.4645C39.3535 36.4167 39.2417 36.3453 39.147 36.2542C39.0523 36.1632 38.9765 36.0545 38.9238 35.9342C38.8711 35.8138 38.8426 35.6843 38.84 35.553C38.8374 35.4217 38.8606 35.2911 38.9085 35.1688C38.9563 35.0465 39.0277 34.9348 39.1187 34.84C39.2098 34.7453 39.3185 34.6695 39.4388 34.6168C39.5592 34.5641 39.6887 34.5356 39.82 34.533L41.813 34.451C41.9447 34.4429 42.0768 34.4614 42.2012 34.5053C42.3257 34.5492 42.4401 34.6177 42.5375 34.7067C42.635 34.7957 42.7136 34.9034 42.7687 35.0233C42.8237 35.1433 42.8541 35.2731 42.858 35.405C42.8639 35.5362 42.8439 35.6673 42.7992 35.7907C42.7544 35.9142 42.6858 36.0276 42.5972 36.1246C42.5086 36.2215 42.4018 36.3001 42.2829 36.3557C42.1639 36.4114 42.0352 36.4431 41.904 36.449L39.904 36.531L39.86 36.533ZM45.839 36.09C45.591 36.0902 45.3518 35.9983 45.1677 35.8321C44.9837 35.6659 44.868 35.4372 44.8431 35.1905C44.8181 34.9438 44.8858 34.6966 45.0329 34.4969C45.1799 34.2972 45.396 34.1593 45.639 34.11C46.1194 34.0298 46.578 33.8511 46.986 33.585C47.198 33.418 47.4668 33.3402 47.7352 33.368C48.0036 33.3958 48.2507 33.5271 48.424 33.734C48.5071 33.8329 48.5696 33.9474 48.6076 34.0708C48.6457 34.1943 48.6585 34.3241 48.6455 34.4526C48.6324 34.5811 48.5937 34.7057 48.5316 34.819C48.4695 34.9322 48.3853 35.0319 48.284 35.112C48.229 35.154 48.174 35.195 48.115 35.234C47.4893 35.6522 46.7838 35.9364 46.043 36.069C45.9767 36.0814 45.9094 36.0871 45.842 36.086L45.839 36.09ZM49.908 32.06C49.8063 32.0601 49.7052 32.0449 49.608 32.015C49.3547 31.9365 49.143 31.7605 49.0195 31.5259C48.8959 31.2914 48.8705 31.0173 48.949 30.764C49.0019 30.5998 49.0355 30.43 49.049 30.258V30.142C49.0473 29.9048 49.0033 29.6698 48.919 29.448C48.8732 29.3245 48.8521 29.1932 48.857 29.0615C48.862 28.9299 48.8928 28.8005 48.9477 28.6807C49.0026 28.561 49.0806 28.4533 49.1771 28.3636C49.2737 28.274 49.387 28.2043 49.5105 28.1585C49.634 28.1127 49.7653 28.0916 49.897 28.0965C50.0286 28.1015 50.158 28.1323 50.2777 28.1872C50.3975 28.2421 50.5052 28.3201 50.5948 28.4167C50.6845 28.5132 50.7542 28.6265 50.8 28.75C50.9671 29.1944 51.0535 29.6652 51.055 30.14C51.055 30.224 51.055 30.307 51.047 30.39C51.0239 30.7174 50.9624 31.0409 50.864 31.354C50.8006 31.5572 50.6739 31.7349 50.5025 31.8611C50.3311 31.9874 50.1239 32.0557 49.911 32.056L49.908 32.06ZM44.851 27.95C44.6098 27.9495 44.377 27.8619 44.1953 27.7033C44.0137 27.5446 43.8954 27.3257 43.8624 27.0868C43.8294 26.8479 43.8839 26.6052 44.0158 26.4032C44.1476 26.2013 44.348 26.0538 44.58 25.988C45.3548 25.7662 46.1667 25.7049 46.966 25.808C47.2288 25.8435 47.4668 25.982 47.6275 26.193C47.7882 26.404 47.8585 26.6702 47.823 26.933C47.7875 27.1958 47.649 27.4338 47.438 27.5945C47.227 27.7552 46.9608 27.8255 46.698 27.79C46.1702 27.7239 45.6345 27.7651 45.123 27.911C45.0347 27.9372 44.9431 27.9503 44.851 27.95V27.95Z" fill="#EBBA16"/>
<path d="M40.844 9.181C40.32 5.181 38.23 0 30.022 0C21.814 0 19.724 5.182 19.2 9.181C18.9379 11.3779 19.0495 13.6033 19.53 15.763C21.0468 23.4 24.5581 30.4994 29.707 36.34C29.7474 36.383 29.7962 36.4174 29.8504 36.4408C29.9046 36.4643 29.963 36.4764 30.022 36.4764C30.0811 36.4764 30.1395 36.4643 30.1936 36.4408C30.2478 36.4174 30.2966 36.383 30.337 36.34C35.4859 30.4994 38.9972 23.4 40.514 15.763C40.9955 13.6035 41.1071 11.3779 40.844 9.181V9.181ZM30.022 16.922C28.7669 16.922 27.54 16.5498 26.4964 15.8525C25.4528 15.1552 24.6394 14.1641 24.1591 13.0045C23.6788 11.8449 23.5531 10.569 23.798 9.33796C24.0428 8.10695 24.6472 6.9762 25.5347 6.0887C26.4222 5.2012 27.553 4.5968 28.784 4.35194C30.015 4.10708 31.2909 4.23275 32.4505 4.71306C33.6101 5.19337 34.6012 6.00676 35.2985 7.05035C35.9958 8.09395 36.368 9.32088 36.368 10.576C36.368 12.2591 35.6994 13.8732 34.5093 15.0633C33.3192 16.2534 31.7051 16.922 30.022 16.922V16.922Z" fill="#DD352E"/>
<path d="M30.023 3.231C28.5701 3.231 27.1497 3.66186 25.9417 4.4691C24.7336 5.27633 23.7921 6.42368 23.2361 7.76604C22.6801 9.10841 22.5347 10.5855 22.8182 12.0105C23.1018 13.4355 23.8015 14.7444 24.829 15.7718C25.8564 16.7991 27.1654 17.4986 28.5905 17.782C30.0155 18.0653 31.4926 17.9197 32.8349 17.3635C34.1772 16.8074 35.3244 15.8657 36.1315 14.6575C36.9385 13.4493 37.3692 12.0289 37.369 10.576C37.3666 8.62855 36.5919 6.76155 35.2147 5.38458C33.8376 4.00761 31.9705 3.23312 30.023 3.231V3.231ZM30.023 15.922C28.9657 15.922 27.9321 15.6085 27.0529 15.021C26.1738 14.4336 25.4886 13.5987 25.0839 12.6218C24.6793 11.645 24.5735 10.5701 24.7797 9.53305C24.986 8.49603 25.4952 7.54346 26.2428 6.79581C26.9905 6.04816 27.943 5.539 28.9801 5.33272C30.0171 5.12645 31.092 5.23232 32.0688 5.63694C33.0457 6.04157 33.8806 6.72678 34.468 7.60592C35.0555 8.48507 35.369 9.51866 35.369 10.576C35.3674 11.9934 34.8037 13.3522 33.8014 14.3544C32.7992 15.3567 31.4404 15.9204 30.023 15.922V15.922Z" fill="#B02721"/>
</svg>
