<svg width="14" height="19" viewBox="0 0 14 19" fill="none" xmlns="http://www.w3.org/2000/svg">
<g clip-path="url(#clip0)">
<path d="M6.527 0C4.7965 0.00185293 3.13741 0.690112 1.91376 1.91376C0.690116 3.13741 0.00185293 4.7965 0 6.527C0 10.993 5.841 17.55 6.09 17.827C6.14515 17.8884 6.2126 17.9375 6.28798 17.9711C6.36336 18.0048 6.44497 18.0221 6.5275 18.0221C6.61004 18.0221 6.69165 18.0048 6.76703 17.9711C6.84241 17.9375 6.90986 17.8884 6.965 17.827C7.214 17.55 13.055 10.993 13.055 6.527C13.0531 4.79633 12.3647 3.13708 11.1409 1.91341C9.91702 0.689731 8.25767 0.00158824 6.527 0V0ZM6.527 9.811C5.87749 9.811 5.24256 9.6184 4.70251 9.25755C4.16246 8.8967 3.74154 8.3838 3.49298 7.78373C3.24442 7.18366 3.17939 6.52336 3.30611 5.88632C3.43282 5.24929 3.74559 4.66414 4.20486 4.20486C4.66414 3.74559 5.24929 3.43281 5.88632 3.3061C6.52336 3.17939 7.18366 3.24442 7.78374 3.49298C8.38381 3.74154 8.89669 4.16246 9.25755 4.70251C9.6184 5.24256 9.811 5.87749 9.811 6.527C9.80995 7.39765 9.46361 8.23233 8.84797 8.84797C8.23233 9.46361 7.39765 9.80994 6.527 9.811Z" fill="#3A4DE3"/>
</g>
<defs>
<clipPath id="clip0">
<rect width="13.054" height="18.022" fill="white"/>
</clipPath>
</defs>
</svg>
