<svg width="218" height="157" viewBox="0 0 218 157" fill="none" xmlns="http://www.w3.org/2000/svg">
<path opacity="0.5" d="M198.739 134.895H142.072C137.596 134.895 133.966 129.699 133.966 123.291V42.1777C133.966 35.7697 137.596 30.5744 142.072 30.5744H198.739C203.216 30.5744 206.845 35.7697 206.845 42.1777V123.291C206.843 129.699 203.215 134.895 198.739 134.895Z" fill="#E4E5EA"/>
<path d="M186.966 50.2317H153.844C149.426 50.2317 145.844 53.8067 145.844 58.2167V84.314C145.844 88.724 149.426 92.299 153.844 92.299H186.966C191.384 92.299 194.966 88.724 194.966 84.314V58.2167C194.966 53.8067 191.384 50.2317 186.966 50.2317Z" fill="#E4E5EA"/>
<path d="M145.848 103.861H191.88V106.693H145.848V103.861Z" fill="#96BFE6"/>
<path d="M145.848 117.455H183.072V120.287H145.848V117.455Z" fill="#96BFE6"/>
<path d="M145.848 110.658H167.67V113.489H145.848V110.658Z" fill="#96BFE6"/>
<g opacity="0.35">
<path d="M175.18 54.32C176.159 54.9513 176.904 55.8867 177.298 56.982C177.692 58.0773 177.714 59.2716 177.361 60.3807C176.347 64.6887 175.961 65.2576 176.785 66.9983C177.609 68.7391 178.334 76.0344 177.455 77.369C176.576 78.7035 167.655 70.8601 166.669 64.5839C165.683 58.3076 167.908 55.6436 168.7 54.6494C169.492 53.6553 172.361 52.721 175.18 54.32Z" fill="#344052"/>
<path d="M181.182 89.9265H177.76C177.595 88.2416 177.441 87.0688 177.474 86.8951C177.525 86.6087 174.069 77.5606 173.746 76.814C173.423 76.0674 172.154 74.0612 171.989 72.1707C171.824 70.2802 174.289 69.5176 174.289 69.5176C177.622 70.1165 178.75 74.7149 178.75 74.7149C178.75 74.7149 180.15 84.0455 180.856 86.6716C181.071 87.7433 181.18 88.8335 181.182 89.9265V89.9265Z" fill="#EEA886"/>
<path d="M179.461 76.9557L174.361 79.1007C174.361 79.1007 169.677 67.4974 173.603 68.793C177.529 70.0885 179.281 72.518 179.461 76.9557Z" fill="#C1D3E1"/>
<path d="M178.326 82.4225C177.981 84.5184 177.773 86.6347 177.704 88.7577C177.727 88.9393 177.804 89.3565 177.916 89.9265H165.627C165.954 88.7617 166.252 87.7306 166.427 87.1317C167.027 85.1564 166.453 84.6274 166.151 83.0463C166.033 82.4275 165.62 81.2497 165.171 79.9242C165.015 79.4692 164.864 79.0127 164.717 78.5547C164.286 77.1228 163.97 75.6589 163.771 74.1769C163.03 69.4587 166.665 69.0056 166.665 69.0056C168.016 68.7571 170.376 68.0294 170.376 68.0294L174.076 68.797C174.385 68.9298 174.675 69.1012 174.941 69.307C175.238 69.5265 175.515 69.7698 175.772 70.0347C176.518 70.9475 177.19 71.9177 177.783 72.9362C178.028 73.3355 178.275 73.7457 178.507 74.149C179.245 75.1864 179.684 76.4062 179.776 77.6754C179.766 78.8392 178.475 81.2707 178.326 82.4225V82.4225Z" fill="#141F27"/>
<path d="M174.077 68.798C174.077 68.798 176.393 72.7496 175.532 73.043C174.671 73.3365 170.132 72.3444 168.358 68.6083C169.269 68.2275 170.251 68.0473 171.238 68.0801C172.225 68.1128 173.193 68.3577 174.077 68.798V68.798Z" fill="#EEA886"/>
<path d="M173.745 70.6026C173.745 70.6026 171.687 71.471 169.825 68.6063C169.825 68.6063 170.325 65.3584 169.267 63.4799C168.209 61.6014 173.893 65.7317 173.893 65.7317C173.893 65.7317 173.801 66.12 173.706 66.6899C173.598 67.3282 173.53 67.9726 173.502 68.6193C173.45 69.29 173.533 69.9642 173.745 70.6026V70.6026Z" fill="#EEA886"/>
<path d="M168.636 75.0273C168.213 77.2023 165.174 79.9262 165.174 79.9262C165.024 79.482 164.874 79.0209 164.72 78.5577C166.177 77.56 167.494 76.3727 168.636 75.0273V75.0273Z" fill="#393D63"/>
<path d="M167.874 76.7551C167.682 77.5476 166.795 85.5726 166.892 85.8471C166.949 86.0038 167.377 87.8613 167.807 89.9235H163.84C163.481 88.9422 163.282 87.9096 163.251 86.8652C163.504 84.1583 162.585 75.5284 162.585 75.5284C162.585 75.5284 161.761 70.3082 166.101 69.6554C166.101 69.6554 168.665 69.9917 168.82 71.8822C168.975 73.7727 168.066 75.9676 167.874 76.7551V76.7551Z" fill="#EEA886"/>
<path d="M162.266 77.866L167.651 79.1227C167.651 79.1227 171.924 70.8431 168.076 69.331C164.02 67.7369 161.294 73.3445 162.266 77.866Z" fill="#C1D3E1"/>
<path d="M174.683 54.7792C174.683 54.7792 179.364 56.494 176.397 64.5559C173.43 72.6178 167.374 63.1795 168.289 58.2257C169.204 53.272 174.683 54.7792 174.683 54.7792V54.7792Z" fill="#EEA987"/>
<path d="M177.116 59.679C175.28 61.1263 173.02 61.9353 170.681 61.9827C170.681 61.9827 169.754 64.2375 169.604 64.9292C169.604 64.9292 165.688 58.2167 170.19 54.8251C174.692 51.4334 178.778 58.2736 177.116 59.679Z" fill="#344052"/>
<path d="M171.215 62.4688C171.215 61.8699 170.909 60.4985 170.004 60.8369C169.099 61.1752 169.91 63.979 170.504 63.8372C170.506 63.8352 171.226 63.8762 171.215 62.4688Z" fill="#EEA987"/>
<path d="M173.506 68.4826C172.824 68.2685 172.196 67.9103 171.666 67.4324C171.135 66.9544 170.713 66.3679 170.43 65.7127C172.219 68.0204 173.568 67.6881 173.568 67.6881C173.536 67.9895 173.533 68.1771 173.506 68.4826Z" fill="#A77860"/>
</g>
<g opacity="0.82">
<path opacity="0.5" d="M78.1 135.021H22.022C17.592 135.021 14 129.88 14 123.543V43.2727C14 36.9315 17.592 31.7941 22.022 31.7941H78.1C82.53 31.7941 86.122 36.9355 86.122 43.2727V123.539C86.116 129.88 82.526 135.021 78.1 135.021Z" fill="#E4E5EA"/>
<path d="M66.363 51.2428H33.754C29.3358 51.2428 25.754 54.8178 25.754 59.2278V84.8859C25.754 89.2959 29.3358 92.871 33.754 92.871H66.363C70.7813 92.871 74.363 89.2959 74.363 84.8859V59.2278C74.363 54.8178 70.7813 51.2428 66.363 51.2428Z" fill="#E4E5EA"/>
<path opacity="0.53" d="M44.64 63.4599C44.64 63.4599 44.006 62.7612 43.754 63.452C43.502 64.1427 44.554 67.2858 44.602 67.4325C44.602 67.4325 44.715 67.705 44.873 67.5593C44.8786 66.1894 44.8008 64.8204 44.64 63.4599V63.4599Z" fill="#EEA886"/>
<path opacity="0.53" d="M56.666 63.5767C56.666 63.5767 57.314 62.886 57.552 63.5847C57.79 64.2834 56.669 67.4016 56.628 67.5473C56.628 67.5473 56.509 67.8188 56.355 67.6691C56.3754 66.2999 56.4793 64.9333 56.666 63.5767V63.5767Z" fill="#EEA886"/>
<path opacity="0.53" d="M69.309 86.0008C68.6554 84.4182 67.6687 82.9944 66.4155 81.8257C65.1624 80.6571 63.6723 79.771 62.046 79.2275C61.399 79.0129 60.246 78.6366 59.029 78.2433C56.836 77.5367 58 77.8041 58 77.8041C54.9292 86.5075 53.3255 87.3853 50.5 87.7855C47.3136 88.4622 42.2428 78.6754 42.5 78.3032C39.935 79.2015 36.209 80.4941 35.297 80.9513C33.397 81.8985 30.197 88.6738 29.549 89.4504C28.3428 91.3828 27.248 93.3823 26.27 95.4392H34.42C35.281 93.9629 35.944 92.8181 35.944 92.8181C35.944 92.8181 36.459 93.947 37.084 95.4392H63.194C63.607 93.7064 63.864 91.5215 63.864 91.5215C63.864 91.5215 65.264 93.418 66.789 95.4392H74.314C72.4261 92.4141 70.7536 89.2602 69.309 86.0008Z" fill="#5E90B9"/>
<path opacity="0.53" d="M55.175 76.6044C55.175 76.5964 54.416 76.2321 54.416 76.2321C54.047 75.4096 54.322 71.9401 54.322 71.9401C54.322 71.9401 46.787 70.0257 47.003 71.4899C46.999 73.1325 46.7808 74.7675 46.354 76.3538L42.489 78.2703C42.489 78.2703 46.607 89.3076 51.34 87.8833C56.073 86.4589 57.86 77.872 57.86 77.872L55.175 76.6044Z" fill="#EEA886" fill-opacity="0.35"/>
<path opacity="0.53" d="M47 73.3125C47.8928 74.4704 48.4713 75.0138 50 75.3088C51.8791 74.9464 54 73.3125 54 73.3125C54 73.3125 49.3454 75.0257 47 73.3125Z" fill="#B98166"/>
<g style="mix-blend-mode:darken" opacity="0.53">
<path d="M51.559 56.0178C51.559 56.0178 57.475 56.9481 56.574 66.1858C55.673 75.4236 50.453 74.67 50.103 74.658C49.753 74.646 44.862 74.8257 44.481 63.5468C44.481 63.5468 44.314 55.2054 51.559 56.0178Z" fill="#EFC5B3"/>
</g>
<path opacity="0.53" d="M56.662 64.9921L55.816 66.122C55.8394 65.1653 55.802 64.2082 55.704 63.2563C55.569 62.867 55.361 61.6813 55.246 61.4018C55.131 61.1223 50.167 59.7329 45.779 61.807C45.779 61.807 45.972 63.5877 45.552 63.7474C45.132 63.9071 45.337 66.649 45.337 66.649L44.637 65.8644C44.637 65.8644 43.572 58.7567 43.837 58.0161C44.102 57.2755 44.937 52.8258 53.937 55.4659C53.937 55.4659 56.743 54.872 57.306 56.8064C57.869 58.7408 56.662 64.9921 56.662 64.9921V64.9921Z" fill="#434343"/>
<path d="M25.758 104.312H71.309V107.113H25.758V104.312Z" fill="#96BFE6"/>
<path d="M25.758 117.763H62.593V120.565H25.758V117.763Z" fill="#96BFE6"/>
<path d="M25.758 111.037H47.352V113.839H25.758V111.037Z" fill="#96BFE6"/>
</g>
<path opacity="0.88" d="M149.138 138.86H80.025C74.565 138.86 70.138 132.523 70.138 124.702V25.7764C70.138 17.961 74.565 11.6238 80.025 11.6238H149.138C154.598 11.6238 159.025 17.961 159.025 25.7764V124.702C159.024 132.523 154.598 138.86 149.138 138.86Z" fill="#E4E5EA"/>
<path opacity="0.4" d="M136.538 35.599H92.625C88.2067 35.599 84.625 39.174 84.625 43.5841V78.922C84.625 83.3321 88.2067 86.9071 92.625 86.9071H136.538C140.956 86.9071 144.538 83.3321 144.538 78.922V43.5841C144.538 39.174 140.956 35.599 136.538 35.599Z" fill="#EEF0FF"/>
<path d="M84.63 101.009H140.773V104.462H84.63V101.009Z" fill="#96BFE6"/>
<path d="M84.63 117.589H130.03V121.042H84.63V117.589Z" fill="#96BFE6"/>
<path d="M84.63 109.297H111.245V112.751H84.63V109.297Z" fill="#96BFE6"/>
<path d="M120.404 40.5827C120.404 40.5827 124.304 42.7197 123.065 47.9749C121.826 53.23 121.357 53.9227 122.365 56.0458C123.373 58.1688 124.254 67.0662 123.182 68.6941C122.11 70.3221 111.234 60.755 110.026 53.1013C108.818 45.4476 111.537 42.1977 112.502 40.9839C113.467 39.7702 116.965 38.6353 120.404 40.5827V40.5827Z" fill="#344052"/>
<path d="M127.725 84.0125H123.551C123.351 81.9574 123.162 80.5271 123.202 80.3194C123.264 79.9711 119.049 68.9347 118.655 68.0214C118.261 67.1081 116.714 64.6637 116.512 62.358C116.31 60.0523 119.319 59.1221 119.319 59.1221C123.384 59.8477 124.76 65.4612 124.76 65.4612C124.76 65.4612 126.466 76.8399 127.329 80.044C127.591 81.3507 127.723 82.6799 127.725 84.0125V84.0125Z" fill="#EEA886"/>
<path d="M125.625 68.1981L119.41 70.8142C119.41 70.8142 113.696 56.6616 118.486 58.2427C123.259 59.8177 125.402 62.7792 125.625 68.1981V68.1981Z" fill="#EB4747"/>
<path d="M124.241 74.8616C124.06 76.266 123.317 81.2427 123.482 82.5882C123.51 82.8098 123.602 83.3208 123.74 84.0135H108.752C109.152 82.5932 109.514 81.3355 109.733 80.6049C110.46 78.1964 109.764 77.5496 109.396 75.6222C109.253 74.8676 108.749 73.4353 108.196 71.8143C108.006 71.2591 107.822 70.7021 107.642 70.1435C107.116 68.3968 106.73 66.6112 106.488 64.8034C105.588 59.0492 110.018 58.4962 110.018 58.4962C111.666 58.1968 114.544 57.3055 114.544 57.3055L119.053 58.2417C119.43 58.4036 119.784 58.6126 120.108 58.8635C120.47 59.1311 120.809 59.4279 121.122 59.7509C122.032 60.864 122.852 62.0471 123.575 63.2893C123.875 63.7764 124.175 64.2764 124.458 64.7675C125.358 66.0328 125.894 67.5205 126.006 69.0685C125.993 70.4908 124.422 73.4563 124.241 74.8616V74.8616Z" fill="#EB4747"/>
<path d="M119.058 58.2427C119.058 58.2427 121.882 63.0627 120.832 63.421C119.782 63.7793 114.245 62.5646 112.082 58.0121C113.193 57.5474 114.391 57.3275 115.595 57.3673C116.799 57.4071 117.98 57.7057 119.058 58.2427Z" fill="#EEA886"/>
<path d="M118.649 60.4446C118.649 60.4446 116.139 61.5036 113.868 58.0151C113.868 58.0151 114.479 54.0535 113.188 51.7628C111.897 49.4721 118.83 54.5097 118.83 54.5097C118.83 54.5097 118.718 54.9828 118.602 55.6785C118.542 56.0348 118.481 56.45 118.435 56.8912C118.396 57.2585 118.366 57.6438 118.353 58.0271C118.29 58.8445 118.39 59.6664 118.649 60.4446V60.4446Z" fill="#EEA886"/>
<path d="M112.422 65.8405C111.905 68.4925 108.199 71.8153 108.199 71.8153C108.016 71.2733 107.828 70.7104 107.645 70.1464C109.422 68.9295 111.029 67.4814 112.422 65.8405V65.8405Z" fill="#393D63"/>
<path d="M111.493 67.9516C111.258 68.9178 110.177 78.7064 110.293 79.0408C110.362 79.2325 110.885 81.4972 111.409 84.0125H106.571C106.133 82.8154 105.89 81.5556 105.853 80.2815C106.162 76.9797 105.041 66.4544 105.041 66.4544C105.041 66.4544 104.041 60.0872 109.329 59.2917C109.329 59.2917 112.456 59.702 112.645 62.0066C112.834 64.3113 111.728 66.9884 111.493 67.9516V67.9516Z" fill="#EEA886"/>
<path d="M104.653 69.305L111.221 70.8371C111.221 70.8371 116.432 60.739 111.739 58.8944C106.793 56.9501 103.468 63.7953 104.653 69.305V69.305Z" fill="#EB4747"/>
<path d="M119.799 41.1486C119.799 41.1486 125.508 43.2447 121.89 53.0723C118.272 62.9 110.89 51.3945 112.001 45.3518C113.112 39.3091 119.799 41.1486 119.799 41.1486V41.1486Z" fill="#EEA987"/>
<path d="M122.765 47.1195C120.526 48.8846 117.77 49.8712 114.917 49.9292C114.917 49.9292 113.787 52.6791 113.604 53.5225C113.604 53.5225 108.827 45.3378 114.319 41.1995C119.811 37.0613 124.792 45.4077 122.765 47.1195V47.1195Z" fill="#344052"/>
<path d="M115.568 50.5231C115.568 49.7954 115.195 48.1206 114.091 48.5318C112.987 48.943 113.976 52.3647 114.704 52.192C114.703 52.191 115.576 52.2459 115.568 50.5231Z" fill="#EEA987"/>
<path d="M118.362 57.8594C117.53 57.5983 116.764 57.1613 116.117 56.5783C115.47 55.9953 114.956 55.2798 114.61 54.4807C116.792 57.2955 118.437 56.8892 118.437 56.8892C118.4 57.2575 118.395 57.4871 118.362 57.8594Z" fill="#A77860"/>
</svg>
