<svg width="18" height="18" viewBox="0 0 18 18" fill="none" xmlns="http://www.w3.org/2000/svg">
<path d="M5.77335 10.3796L4.35671 9.60487L2.97159 12.5719C2.97107 12.5819 2.96261 12.5904 2.9591 12.6003C2.86839 12.7892 2.82445 12.9972 2.83097 13.2066C2.83749 13.4161 2.89429 13.6209 2.99658 13.8038C3.08898 13.9416 3.2135 14.0549 3.35942 14.1338C3.50533 14.2128 3.66826 14.255 3.83415 14.257C4.02192 14.2632 4.20947 14.2391 4.3896 14.1858L4.41914 14.1763L7.51188 13.1076L6.88852 11.6172C6.62876 11.1161 6.2448 10.69 5.77335 10.3796Z" fill="white"/>
<path d="M17.4913 1.60221L7.45248 10.6475C7.59034 10.8316 7.70663 11.0308 7.79908 11.2414L9.95476 16.4395C10.2449 17.1375 10.668 17.2617 10.8947 17.2735C11.0944 17.2839 11.5983 17.222 11.9164 16.4204L17.391 2.47017C17.5087 2.1969 17.5435 1.89511 17.4913 1.60221Z" fill="white"/>
<path d="M6.79526 9.92147L16.8353 0.872184C16.7322 0.838953 16.6251 0.819572 16.5168 0.814551C16.3287 0.808249 16.1409 0.832279 15.9604 0.885719L1.51846 4.87532C0.754423 5.08688 0.594838 5.51717 0.57148 5.75428C0.548122 5.99138 0.602518 6.44683 1.29982 6.82459L6.24184 9.51114C6.44141 9.62629 6.6271 9.76396 6.79526 9.92147Z" fill="white"/>
</svg>
