<svg width="65" height="47" viewBox="0 0 65 47" fill="none" xmlns="http://www.w3.org/2000/svg">
<path d="M0.32605 34.542H64.256V46.48H0.32605V34.542Z" fill="#E4E9ED"/>
<path d="M57.89 0C57.89 0 52.49 2.354 52.49 10.9C52.49 18.135 60.074 18.832 60.074 24.585C60.074 28.856 58.854 30.164 58.854 30.164C58.854 30.164 64.346 25.806 64.346 19.617C64.341 10.547 55.885 15.254 57.89 0Z" fill="#B7B7B7"/>
<path d="M0.32605 34.542H21.667V46.48H0.32605V34.542Z" fill="#F49F00"/>
<path d="M19.514 34.542H23.819V46.48H19.514V34.542Z" fill="#BABECB"/>
<path d="M0.32605 42.174H64.256V46.4789H0.32605V42.174Z" fill="#D7D9DB"/>
<path d="M58.458 34.542H64.256V46.48H58.458V34.542Z" fill="#A5A7B7"/>
<path d="M58.458 42.174H64.256V46.4789H58.458V42.174Z" fill="#9396A3"/>
<path d="M0.32605 42.174H21.667V46.4789H0.32605V42.174Z" fill="#DD8903"/>
<path d="M19.514 42.174H23.819V46.4789H19.514V42.174Z" fill="#9EA3B2"/>
</svg>
