<svg width="71" height="71" viewBox="0 0 71 71" fill="none" xmlns="http://www.w3.org/2000/svg">
<g filter="url(#filter0_d)">
<g filter="url(#filter1_d)">
<circle cx="35.5" cy="31.5" r="25.5" fill="white"/>
</g>
<g clip-path="url(#clip0)">
<path d="M37.1287 45.2959L37.6036 45.2066C38.2303 45.0888 38.2303 44.2581 37.6036 44.1403L37.1287 44.051C35.9324 43.8261 34.9974 42.959 34.7548 41.8496L34.6586 41.4093C34.5315 40.8281 33.6358 40.8281 33.5087 41.4093L33.4125 41.8496C33.1699 42.959 32.2349 43.8261 31.0386 44.051L30.5637 44.1403C29.937 44.2581 29.937 45.0888 30.5637 45.2066L31.0386 45.2959C32.2349 45.5208 33.1699 46.3879 33.4125 47.4973L33.5087 47.9376C33.6358 48.5188 34.5315 48.5188 34.6586 47.9376L34.7548 47.4973C34.9974 46.3879 35.9324 45.5208 37.1287 45.2959Z" fill="#18C9E3"/>
<path d="M35.4737 28.1348L37.7467 27.7075C38.8197 27.5057 38.8197 26.0835 37.7467 25.8817L35.4737 25.4544C33.2337 25.0333 31.4831 23.4099 31.029 21.3327L30.5682 19.2248C30.3506 18.2297 28.817 18.2297 28.5994 19.2248L28.1385 21.3327C27.6844 23.4099 25.9338 25.0333 23.6939 25.4544L21.4209 25.8817C20.3478 26.0835 20.3478 27.5057 21.4209 27.7075L23.6939 28.1348C25.9338 28.556 27.6844 30.1794 28.1385 32.2565L28.5994 34.3644C28.817 35.3595 30.3506 35.3595 30.5682 34.3644L31.029 32.2565C31.4831 30.1794 33.2337 28.556 35.4737 28.1348Z" fill="#18C9E3"/>
<path d="M51.6363 35.4691L53.3819 35.1409C54.206 34.986 54.206 33.8937 53.3819 33.7388L51.6363 33.4105C49.916 33.0871 48.5716 31.8404 48.2229 30.2452L47.8689 28.6264C47.7019 27.8621 46.524 27.8621 46.357 28.6264L46.0031 30.2452C45.6543 31.8404 44.3099 33.0871 42.5897 33.4105L40.8441 33.7388C40.0199 33.8937 40.0199 34.986 40.8441 35.1409L42.5897 35.4691C44.3099 35.7926 45.6543 37.0392 46.0031 38.6345L46.357 40.2533C46.5241 41.0175 47.7019 41.0175 47.8689 40.2533L48.2229 38.6345C48.5717 37.0393 49.9162 35.7925 51.6363 35.4691Z" fill="#18C9E3"/>
</g>
</g>
</svg>
