<svg width="53" height="60" viewBox="0 0 53 60" fill="none" xmlns="http://www.w3.org/2000/svg">
<path d="M26.8648 39.4286C24.7166 41.6511 21.9575 43.1867 18.9366 43.8411C15.9156 44.4955 12.7685 44.2393 9.89315 43.1051C7.01775 41.9708 4.54335 40.0093 2.78275 37.4687C1.02215 34.9281 0.0545463 31.9224 0.00224632 28.8319C-0.0501537 25.7413 0.815246 22.7046 2.48875 20.1059C4.16235 17.5071 6.56895 15.463 9.40425 14.232C12.2396 13.0011 15.3762 12.6386 18.4176 13.1903C21.459 13.7421 24.2685 15.1834 26.4907 17.3319C29.4662 20.2149 31.1765 24.1604 31.2467 28.3029C31.3168 32.4454 29.7409 36.4465 26.8648 39.4286ZM8.59564 21.7678C7.25084 23.1589 6.34875 24.9176 6.00345 26.8214C5.65815 28.7253 5.88515 30.6887 6.65575 32.4636C7.42635 34.2384 8.70595 35.7448 10.3327 36.7924C11.9594 37.84 13.8603 38.3816 15.795 38.3489C17.7296 38.3161 19.611 37.7104 21.2014 36.6084C22.7918 35.5063 24.0196 33.9574 24.7297 32.1575C25.4398 30.3577 25.6002 28.3876 25.1907 26.4966C24.7811 24.6055 23.82 22.8784 22.4289 21.5336C20.562 19.7329 18.0571 18.7463 15.4638 18.7902C12.8704 18.8342 10.4004 19.905 8.59564 21.7678Z" fill="#F05228"/>
<path d="M19.0714 59.1871L13.2283 59.286L12.9241 41.3206L18.7672 41.2216L19.0714 59.1871Z" fill="#F05228"/>
<path d="M25.0269 53.0236L7.06155 53.3278L6.96265 47.4846L24.928 47.1805L25.0269 53.0236Z" fill="#F05228"/>
<path d="M27.778 40.239C24.6874 40.239 21.6661 39.3225 19.0962 37.6054C16.5264 35.8884 14.5235 33.4478 13.3407 30.5924C12.1579 27.737 11.8483 24.595 12.4512 21.5637C13.0541 18.5324 14.5424 15.7479 16.7277 13.5624C18.9131 11.3769 21.6975 9.8885 24.7288 9.2854C27.76 8.6823 30.9021 8.9916 33.7575 10.1742C36.613 11.3569 39.0537 13.3596 40.7709 15.9294C42.4882 18.4991 43.4048 21.5203 43.405 24.611C43.4005 28.7542 41.7527 32.7265 38.8231 35.6563C35.8935 38.5861 31.9213 40.2342 27.778 40.239ZM27.778 14.829C25.8431 14.829 23.9517 15.4028 22.3429 16.4777C20.7341 17.5527 19.4802 19.0806 18.7397 20.8682C17.9993 22.6558 17.8055 24.6228 18.183 26.5206C18.5605 28.4183 19.4922 30.1614 20.8604 31.5296C22.2286 32.8978 23.9718 33.8295 25.8695 34.207C27.7672 34.5845 29.7342 34.3908 31.5218 33.6503C33.3094 32.9099 34.8373 31.6559 35.9123 30.0471C36.9873 28.4383 37.561 26.5469 37.561 24.612C37.5581 22.0183 36.5265 19.5316 34.6925 17.6976C32.8584 15.8635 30.3718 14.8319 27.778 14.829Z" fill="#50C8EF"/>
<path d="M52.389 15.628H46.545V5.844H36.7621V0H52.389V15.628Z" fill="#50C8EF"/>
<path d="M38.827 17.694L34.6946 13.5616L47.3999 0.856323L51.5323 4.98872L38.827 17.694Z" fill="#50C8EF"/>
</svg>
