<svg width="69" height="69" viewBox="0 0 69 69" fill="none" xmlns="http://www.w3.org/2000/svg">
<path d="M58.6896 17.3291C58.1467 17.3291 57.6248 17.1187 57.2336 16.7421L51.5906 11.0991C51.4048 10.9133 51.2573 10.6927 51.1568 10.4499C51.0562 10.2072 51.0046 9.94687 51.0046 9.68407C51.0044 9.14127 51.2145 8.61948 51.5906 8.22808L57.2336 2.58308C57.6161 2.22138 58.1226 2.01978 58.6491 2.01978C59.1756 2.01978 59.6821 2.22138 60.0646 2.58308L65.7506 8.26908C65.9366 8.45488 66.0841 8.67547 66.1847 8.91817C66.2854 9.16097 66.3372 9.42127 66.3372 9.68407C66.3372 9.94697 66.2854 10.2072 66.1847 10.45C66.0841 10.6928 65.9366 10.9134 65.7506 11.0991L60.1086 16.7381C59.9227 16.9254 59.7017 17.074 59.4582 17.1754C59.2146 17.2768 58.9534 17.3291 58.6896 17.3291Z" fill="#C5C9F7"/>
<path d="M26.6516 50.1657L18.1592 41.6734L41.6755 18.1571L50.1678 26.6495L26.6516 50.1657Z" fill="#C5C9F7"/>
<path d="M9.68656 66.3271C9.42376 66.3272 9.16356 66.2755 8.92076 66.1749C8.67796 66.0744 8.45736 65.927 8.27156 65.7411L2.58556 60.0561C2.39966 59.8704 2.25206 59.6498 2.15146 59.407C2.05086 59.1642 1.99896 58.9039 1.99896 58.6411C1.99896 58.3783 2.05086 58.118 2.15146 57.8752C2.25206 57.6325 2.39966 57.4119 2.58556 57.2261L8.22656 51.5821C8.41236 51.396 8.63296 51.2484 8.87586 51.1476C9.11876 51.0469 9.37917 50.9951 9.64207 50.9951C9.90507 50.9951 10.1654 51.0469 10.4083 51.1476C10.6512 51.2484 10.8719 51.396 11.0576 51.5821L16.7426 57.2671C16.9287 57.4529 17.0764 57.6735 17.1771 57.9164C17.2778 58.1593 17.3297 58.4197 17.3297 58.6826C17.3297 58.9456 17.2778 59.2059 17.1771 59.4488C17.0764 59.6917 16.9287 59.9124 16.7426 60.0981L11.0996 65.7411C10.7249 66.116 10.2167 66.3267 9.68656 66.3271Z" fill="#C5C9F7"/>
<path d="M8.27165 65.7401C8.45745 65.9261 8.67805 66.0736 8.92085 66.1743C9.16355 66.2749 9.42385 66.3267 9.68665 66.3267C9.94955 66.3267 10.2097 66.2749 10.4525 66.1743C10.6953 66.0736 10.916 65.9261 11.1017 65.7401L16.7446 60.0971C16.9307 59.9114 17.0784 59.6907 17.1791 59.4479C17.2799 59.205 17.3317 58.9446 17.3317 58.6816C17.3317 58.4187 17.2799 58.1583 17.1791 57.9154C17.0784 57.6726 16.9307 57.4519 16.7446 57.2661L13.9026 54.4241L5.42865 62.8981L8.27165 65.7401Z" fill="#A8AFF1"/>
<path d="M57.2338 16.7371C57.6251 17.1133 58.1469 17.3233 58.6898 17.3231C58.9525 17.3232 59.2128 17.2715 59.4556 17.171C59.6984 17.0704 59.919 16.923 60.1048 16.7371L65.7497 11.0941C65.9357 10.9084 66.0832 10.6878 66.1839 10.445C66.2845 10.2022 66.3363 9.94204 66.3363 9.67914C66.3363 9.41634 66.2845 9.15614 66.1839 8.91334C66.0832 8.67054 65.9357 8.44994 65.7497 8.26414L62.9068 5.42114L54.4068 13.9211L57.2338 16.7371Z" fill="#A8AFF1"/>
<path d="M22.4058 45.9224L45.922 22.4061L50.1675 26.6516L26.6513 50.1678L22.4058 45.9224Z" fill="#A8AFF1"/>
<path d="M62.9057 30.9012L37.4286 5.4202L41.6746 1.1742C42.0462 0.8019 42.4874 0.506699 42.9732 0.305199C43.459 0.103699 43.9797 0 44.5056 0C45.0315 0 45.5524 0.103699 46.0381 0.305199C46.5239 0.506699 46.9652 0.8019 47.3367 1.1742L67.1537 20.9892C67.5259 21.3607 67.8211 21.802 68.0226 22.2877C68.2241 22.7735 68.3278 23.2943 68.3278 23.8202C68.3278 24.3461 68.2241 24.8668 68.0226 25.3526C67.8211 25.8383 67.5259 26.2796 67.1537 26.6512L62.9057 30.9012Z" fill="#1689FC"/>
<path d="M57.2446 39.3903L28.9366 11.0813C28.7505 10.8955 28.603 10.6749 28.5022 10.432C28.4015 10.1891 28.3495 9.92872 28.3495 9.66582C28.3495 9.40282 28.4015 9.14252 28.5022 8.89962C28.603 8.65672 28.7505 8.43601 28.9366 8.25031L31.7677 5.41932C32.1392 5.04712 32.5804 4.75182 33.0662 4.55032C33.552 4.34882 34.0727 4.24512 34.5986 4.24512C35.1245 4.24512 35.6453 4.34882 36.1311 4.55032C36.6169 4.75182 37.0581 5.04712 37.4296 5.41932L62.9086 30.8973C63.2808 31.2688 63.5762 31.7101 63.7777 32.1959C63.9791 32.6816 64.0828 33.2024 64.0828 33.7283C64.0828 34.2542 63.9791 34.7749 63.7777 35.2607C63.5762 35.7465 63.2808 36.1877 62.9086 36.5593L60.0776 39.3903C59.8918 39.5767 59.6711 39.7246 59.4281 39.8255C59.185 39.9264 58.9244 39.9783 58.6612 39.9783C58.398 39.9783 58.1374 39.9264 57.8943 39.8255C57.6513 39.7246 57.4304 39.5767 57.2446 39.3903Z" fill="#17ACE8"/>
<path d="M5.4202 37.4292L30.9012 62.9072L26.6512 67.1542C26.2796 67.5264 25.8384 67.8217 25.3526 68.0232C24.8668 68.2246 24.3461 68.3283 23.8202 68.3283C23.2943 68.3283 22.7735 68.2246 22.2878 68.0232C21.802 67.8217 21.3607 67.5264 20.9892 67.1542L1.1742 47.3372C0.802 46.9657 0.506699 46.5244 0.305199 46.0386C0.103699 45.5528 0 45.0321 0 44.5062C0 43.9803 0.103699 43.4596 0.305199 42.9738C0.506699 42.488 0.802 42.0467 1.1742 41.6752L5.4202 37.4292Z" fill="#1689FC"/>
<path d="M11.0813 28.9372L39.3893 57.2452C39.5754 57.4309 39.723 57.6516 39.8238 57.8945C39.9245 58.1373 39.9763 58.3977 39.9763 58.6607C39.9763 58.9236 39.9245 59.184 39.8238 59.4269C39.723 59.6698 39.5754 59.8904 39.3893 60.0762L36.5593 62.9092C36.1877 63.2814 35.7465 63.5767 35.2607 63.7781C34.7749 63.9796 34.2542 64.0833 33.7283 64.0833C33.2024 64.0833 32.6816 63.9796 32.1959 63.7781C31.7101 63.5767 31.2688 63.2814 30.8973 62.9092L5.42029 37.4292C5.04809 37.0576 4.75279 36.6164 4.55129 36.1306C4.34979 35.6448 4.24609 35.1241 4.24609 34.5982C4.24609 34.0723 4.34979 33.5515 4.55129 33.0658C4.75279 32.58 5.04809 32.1387 5.42029 31.7672L8.2513 28.9362C8.4371 28.7503 8.6577 28.6028 8.9005 28.5023C9.1434 28.4017 9.40359 28.35 9.66649 28.3501C9.92929 28.3502 10.1895 28.4021 10.4323 28.5028C10.6751 28.6036 10.8956 28.7512 11.0813 28.9372Z" fill="#17ACE8"/>
<path d="M20.9891 67.1543C21.3606 67.5265 21.8019 67.8218 22.2876 68.0233C22.7734 68.2247 23.2942 68.3285 23.8201 68.3285C24.346 68.3285 24.8667 68.2247 25.3525 68.0233C25.8382 67.8218 26.2795 67.5265 26.6511 67.1543L30.897 62.9083L18.1591 50.1693L11.0821 57.2463L20.9891 67.1543Z" fill="#136EF1"/>
<path d="M50.1689 18.1593L62.9069 30.8973L67.1529 26.6513C67.5251 26.2798 67.8204 25.8385 68.0219 25.3527C68.2234 24.8669 68.3271 24.3462 68.3271 23.8203C68.3271 23.2944 68.2234 22.7737 68.0219 22.2879C67.8204 21.8021 67.5251 21.3608 67.1529 20.9893L57.2459 11.0813L50.1689 18.1593Z" fill="#136EF1"/>
<path d="M30.8972 62.9062C31.2687 63.2784 31.71 63.5737 32.1958 63.7752C32.6816 63.9766 33.2023 64.0803 33.7282 64.0803C34.2541 64.0803 34.7748 63.9766 35.2606 63.7752C35.7464 63.5737 36.1877 63.2784 36.5592 62.9062L39.3902 60.0752C39.5763 59.8894 39.7239 59.6688 39.8247 59.4259C39.9254 59.183 39.9773 58.9226 39.9773 58.6597C39.9773 58.3967 39.9254 58.1364 39.8247 57.8935C39.7239 57.6506 39.5763 57.4299 39.3902 57.2442L25.2362 43.0872L18.1592 50.1642L30.8972 62.9062Z" fill="#1689FC"/>
<path d="M57.2462 39.3912C57.432 39.5773 57.6526 39.7249 57.8955 39.8256C58.1384 39.9264 58.3988 39.9782 58.6617 39.9782C58.9247 39.9782 59.185 39.9264 59.4279 39.8256C59.6708 39.7249 59.8914 39.5773 60.0772 39.3912L62.9082 36.5602C63.2804 36.1886 63.5757 35.7473 63.7772 35.2616C63.9787 34.7758 64.0824 34.2551 64.0824 33.7292C64.0824 33.2033 63.9787 32.6825 63.7772 32.1968C63.5757 31.711 63.2804 31.2697 62.9082 30.8982L50.1702 18.1602L43.0932 25.2372L57.2462 39.3912Z" fill="#1689FC"/>
</svg>
