<svg width="18" height="16" viewBox="0 0 18 16" fill="none" xmlns="http://www.w3.org/2000/svg">
<g clip-path="url(#clip0)">
<path d="M7.36603 8.37903H10.508V9.42603H7.36603V8.37903Z" fill="#4E586E"/>
<path d="M14.5 9.42603H11.556V9.95002C11.5561 10.0189 11.5427 10.0871 11.5164 10.1507C11.4901 10.2143 11.4515 10.2722 11.4028 10.3208C11.3541 10.3695 11.2963 10.4081 11.2327 10.4344C11.169 10.4607 11.1008 10.4742 11.032 10.474H6.843C6.77415 10.4742 6.70595 10.4607 6.64232 10.4344C6.57868 10.4081 6.52087 10.3695 6.47218 10.3208C6.4235 10.2722 6.38491 10.2143 6.35862 10.1507C6.33233 10.0871 6.31887 10.0189 6.319 9.95002V9.42603H3.373C3.04329 9.42626 2.72189 9.32263 2.45442 9.12984C2.18695 8.93705 1.98702 8.66489 1.883 8.35202L0 2.70203V14.139C0.000529216 14.5555 0.166215 14.9548 0.46072 15.2493C0.755225 15.5438 1.15451 15.7095 1.571 15.71H16.3C16.7165 15.7095 17.1158 15.5438 17.4103 15.2493C17.7048 14.9548 17.8705 14.5555 17.871 14.139V2.70303L15.992 8.35202C15.8879 8.66521 15.6876 8.9376 15.4198 9.13042C15.1519 9.32324 14.83 9.42668 14.5 9.42603V9.42603Z" fill="#4E586E"/>
<path d="M11.032 0H6.842C6.42551 0.000529216 6.02622 0.166215 5.73172 0.46072C5.43721 0.755225 5.27153 1.15451 5.271 1.571V2.095H0.901001L2.876 8.021C2.91099 8.12575 2.97817 8.21677 3.06796 8.28106C3.15776 8.34535 3.26557 8.37963 3.376 8.379H6.322V7.855C6.32187 7.78615 6.33533 7.71795 6.36162 7.65432C6.38791 7.59068 6.4265 7.53287 6.47518 7.48418C6.52387 7.4355 6.58168 7.39691 6.64532 7.37062C6.70895 7.34433 6.77715 7.33087 6.846 7.331H11.032C11.1008 7.33087 11.169 7.34433 11.2327 7.37062C11.2963 7.39691 11.3541 7.4355 11.4028 7.48418C11.4515 7.53287 11.4901 7.59068 11.5164 7.65432C11.5427 7.71795 11.5561 7.78615 11.556 7.855V8.379H14.502C14.6124 8.37963 14.7202 8.34535 14.81 8.28106C14.8998 8.21677 14.967 8.12575 15.002 8.021L16.977 2.095H12.603V1.571C12.6025 1.15451 12.4368 0.755225 12.1423 0.46072C11.8478 0.166215 11.4485 0.000529216 11.032 0V0ZM6.319 2.095V1.571C6.319 1.43203 6.37421 1.29875 6.47248 1.20048C6.57075 1.10221 6.70403 1.047 6.843 1.047H11.032C11.171 1.047 11.3043 1.10221 11.4025 1.20048C11.5008 1.29875 11.556 1.43203 11.556 1.571V2.095H6.319Z" fill="#4E586E"/>
</g>
</svg>
