<svg width="17" height="20" viewBox="0 0 17 20" fill="none" xmlns="http://www.w3.org/2000/svg">
<path d="M11.376 19.303L0.850994 16.787C0.565066 16.7177 0.318152 16.5381 0.16415 16.2875C0.0101474 16.0368 -0.0384444 15.7354 0.0289874 15.449L3.51899 0.849003C3.58828 0.563075 3.76785 0.316165 4.01853 0.162163C4.2692 0.00816073 4.57062 -0.0404272 4.85699 0.0270046L15.382 2.543C15.6681 2.61205 15.9151 2.79158 16.0692 3.04232C16.2232 3.29307 16.2717 3.59462 16.204 3.881L12.714 18.481C12.6447 18.7669 12.4651 19.0138 12.2145 19.1678C11.9638 19.3218 11.6624 19.3704 11.376 19.303V19.303Z" fill="#1C2EDE"/>
<path d="M12.461 18.281H1.63899C1.34493 18.28 1.06321 18.1627 0.85527 17.9547C0.647333 17.7468 0.530046 17.4651 0.528992 17.171V2.16301C0.530046 1.86894 0.647333 1.58723 0.85527 1.37929C1.06321 1.17135 1.34493 1.05406 1.63899 1.05301H12.46C12.7541 1.05406 13.0358 1.17135 13.2437 1.37929C13.4517 1.58723 13.5689 1.86894 13.57 2.16301V17.171C13.5689 17.4649 13.4518 17.7465 13.2441 17.9544C13.0364 18.1623 12.7549 18.2797 12.461 18.281V18.281Z" fill="#4B5BE5"/>
<path d="M13.571 2.22801V17.106C13.5699 17.4173 13.4458 17.7156 13.2257 17.9357C13.0055 18.1558 12.7073 18.28 12.396 18.281H7.04999V1.05301H12.395C12.7065 1.0538 13.005 1.17782 13.2253 1.39797C13.4457 1.61813 13.5699 1.91653 13.571 2.22801V2.22801Z" fill="#3A4DE3"/>
<path d="M1.73596 2.42099H12.363V16.912H1.73596V2.42099Z" fill="#FFE047"/>
<path d="M7.04999 2.42099H12.363V16.912H7.04999V2.42099Z" fill="#FFCF00"/>
<path d="M7.04997 13.898C9.38669 13.898 11.281 12.0037 11.281 9.667C11.281 7.33029 9.38669 5.436 7.04997 5.436C4.71325 5.436 2.81897 7.33029 2.81897 9.667C2.81897 12.0037 4.71325 13.898 7.04997 13.898Z" fill="#00D9E0"/>
<path d="M11.281 9.66699C11.2802 10.7886 10.8341 11.864 10.0407 12.6568C9.24731 13.4496 8.1716 13.895 7.04999 13.895V5.43298C7.60586 5.43298 8.15629 5.54253 8.66982 5.75534C9.18334 5.96816 9.64989 6.28008 10.0428 6.67328C10.4357 7.06648 10.7473 7.53326 10.9598 8.04694C11.1722 8.56061 11.2814 9.11112 11.281 9.66699V9.66699Z" fill="#00B7BE"/>
<path d="M9.53502 9.66701L10.778 7.51501H8.29301L7.05002 5.36301L5.80702 7.51501H3.32202L4.56502 9.66701L3.32202 11.819H5.80801L7.05103 13.971L8.29402 11.819H10.779L9.53502 9.66701ZM9.95302 7.99101L9.26003 9.19101L8.56702 7.99101H9.95302ZM8.98502 9.66701L8.01701 11.343H6.08202L5.11401 9.66701L6.08202 7.99101H8.01701L8.98502 9.66701ZM7.05002 6.315L7.74303 7.51501H6.35703L7.05002 6.315ZM4.15002 7.99101H5.53603L4.84302 9.19101L4.15002 7.99101ZM4.15002 11.343L4.84302 10.143L5.53603 11.343H4.15002ZM7.05002 13.019L6.35703 11.819H7.74303L7.05002 13.019ZM9.26003 10.143L9.95302 11.343H8.56702L9.26003 10.143Z" fill="#4B5BE5"/>
<path d="M10.778 7.515H8.29298L7.04999 5.36301V6.315L7.74298 7.515H7.04999V7.991H8.01797L8.98598 9.66701L8.01797 11.343H7.04999V11.819H7.74298L7.04999 13.019V13.971L8.29298 11.819H10.778L9.53499 9.66701L10.778 7.515ZM8.56798 7.991H9.95398L9.26099 9.19099L8.56798 7.991ZM9.95398 11.343H8.56798L9.26099 10.143L9.95398 11.343Z" fill="#1C2EDE"/>
<path d="M7.04898 14.07C6.17874 14.07 5.32805 13.8119 4.60448 13.3285C3.8809 12.845 3.31694 12.1578 2.98392 11.3538C2.65089 10.5498 2.56376 9.66511 2.73353 8.81159C2.90331 7.95808 3.32236 7.17408 3.93771 6.55873C4.55306 5.94337 5.33706 5.52431 6.19058 5.35453C7.0441 5.18476 7.92879 5.2719 8.73279 5.60493C9.53678 5.93796 10.224 6.50191 10.7075 7.22549C11.1909 7.94907 11.449 8.79976 11.449 9.66999C11.4469 10.8363 10.9826 11.9542 10.1579 12.7789C9.33322 13.6036 8.21528 14.0679 7.04898 14.07V14.07ZM7.04898 5.73899C6.27229 5.73899 5.51305 5.96931 4.86726 6.40081C4.22147 6.83232 3.71814 7.44564 3.42091 8.1632C3.12369 8.88077 3.04592 9.67035 3.19745 10.4321C3.34897 11.1939 3.72298 11.8936 4.27219 12.4428C4.82139 12.992 5.5211 13.366 6.28287 13.5175C7.04463 13.6691 7.83422 13.5913 8.55179 13.2941C9.26935 12.9968 9.88266 12.4935 10.3142 11.8477C10.7457 11.2019 10.976 10.4427 10.976 9.666C10.9747 8.6249 10.5605 7.62682 9.82434 6.89065C9.08817 6.15448 8.09008 5.74032 7.04898 5.73899Z" fill="#8A6746"/>
<path d="M7.04999 5.263V5.739C8.09163 5.739 9.0906 6.15279 9.82715 6.88934C10.5637 7.62589 10.9775 8.62487 10.9775 9.6665C10.9775 10.7081 10.5637 11.7071 9.82715 12.4437C9.0906 13.1802 8.09163 13.594 7.04999 13.594V14.07C8.21787 14.07 9.33791 13.6061 10.1637 12.7802C10.9895 11.9544 11.4535 10.8344 11.4535 9.6665C11.4535 8.49862 10.9895 7.37857 10.1637 6.55275C9.33791 5.72693 8.21787 5.263 7.04999 5.263V5.263Z" fill="#644B32"/>
</svg>
