<svg width="1078" height="2353" viewBox="0 0 1078 2353" fill="none" xmlns="http://www.w3.org/2000/svg">
<g opacity="0.8">
<g opacity="0.8">
<path d="M772.86 253.759C772.86 253.759 777.5 244.499 785.5 245.499C793.5 246.499 802.36 253.039 792.43 283.269" fill="#DBA56A"/>
<path d="M772.86 253.759C772.86 253.759 777.5 244.499 785.5 245.499C793.5 246.499 802.36 253.039 792.43 283.269" stroke="#AA6526" stroke-width="3" stroke-miterlimit="10"/>
</g>
<g opacity="0.8">
<path d="M725 338C725 338 723 361 742 359C747.62 358.41 750 354.59 750.36 349.48C751.5 333.48 745.6 326 743.95 322.43C743.641 321.776 743.229 321.175 742.73 320.65C739.53 317.27 727.02 305.65 717.5 319.5C700.11 344.8 710.5 399.5 759 399C813 398.44 812.58 357 813 349C813.5 339.5 804 329 804 329C804 329 797 292 791 280C785 268 774 246 762 253C750 260 756 277 762 288C762 288 762 302.88 761.64 308.78C761.623 309.063 761.536 309.337 761.386 309.578C761.236 309.818 761.029 310.018 760.783 310.159C760.537 310.3 760.26 310.377 759.977 310.384C759.694 310.392 759.413 310.328 759.16 310.2C754.99 308.09 745.16 302.54 740 307C733 313 734.5 312.5 734.5 312.5" fill="#DBA56A"/>
<path d="M725 338C725 338 723 361 742 359C747.62 358.41 750 354.59 750.36 349.48C751.5 333.48 745.6 326 743.95 322.43C743.641 321.776 743.229 321.175 742.73 320.65C739.53 317.27 727.02 305.65 717.5 319.5C700.11 344.8 710.5 399.5 759 399C813 398.44 812.58 357 813 349C813.5 339.5 804 329 804 329C804 329 797 292 791 280C785 268 774 246 762 253C750 260 756 277 762 288C762 288 762 302.88 761.64 308.78C761.623 309.063 761.536 309.337 761.386 309.578C761.236 309.818 761.029 310.018 760.783 310.159C760.537 310.3 760.26 310.377 759.977 310.384C759.694 310.392 759.413 310.328 759.16 310.2C754.99 308.09 745.16 302.54 740 307C733 313 734.5 312.5 734.5 312.5" stroke="#AA6526" stroke-width="3" stroke-miterlimit="10" stroke-linecap="round"/>
</g>
<path opacity="0.8" d="M770.001 376.999C770.001 376.999 765.001 361.999 773.001 353.999L780.001 346.999C773.381 345.444 767.217 342.362 762.001 337.999C754.001 330.999 752.501 325.499 754.501 317.499C755.001 315.559 758.001 306.999 773.001 310.999C788.001 314.999 804.001 328.999 804.001 328.999" stroke="#AA6526" stroke-width="3" stroke-miterlimit="10" stroke-linecap="round"/>
<path opacity="0.8" d="M750.5 351.5C750.5 351.5 759.19 358.19 770.5 343.5" stroke="#AA6526" stroke-width="3" stroke-miterlimit="10" stroke-linecap="round"/>
<path opacity="0.8" d="M761.5 287.5L775.23 311.67" stroke="#AA6526" stroke-width="3" stroke-miterlimit="10" stroke-linecap="round"/>
<g opacity="0.8">
<path d="M86.8604 334.759C86.8604 334.759 91.5004 325.499 99.5004 326.499C107.5 327.499 116.36 334.039 106.43 364.269" fill="#DBA56A"/>
<path d="M86.8604 334.759C86.8604 334.759 91.5004 325.499 99.5004 326.499C107.5 327.499 116.36 334.039 106.43 364.269" stroke="#AA6526" stroke-width="3" stroke-miterlimit="10"/>
</g>
<g opacity="0.8">
<path d="M39.0003 419C39.0003 419 37.0003 442 56.0003 440C61.6203 439.41 64.0003 435.59 64.3603 430.48C65.5003 414.5 59.6003 407 58.0003 403.43C57.6911 402.776 57.2792 402.175 56.7803 401.65C53.5803 398.27 41.0703 386.65 31.5503 400.5C14.1603 425.8 24.5503 480.5 73.0503 480C127.05 479.44 126.63 438 127.05 430C127.55 420.5 118.05 410 118.05 410C118.05 410 111.05 373 105.05 361C99.0503 349 88.0503 327 76.0503 334C64.0503 341 70.0503 358 76.0503 369C76.0503 369 76.0503 383.88 75.6903 389.78C75.6728 390.063 75.5854 390.337 75.4358 390.578C75.2862 390.818 75.0791 391.018 74.8332 391.159C74.5873 391.3 74.3102 391.377 74.0269 391.384C73.7437 391.392 73.463 391.328 73.2103 391.2C69.0003 389.09 59.2003 383.54 54.0003 388C47.0003 394 48.5003 393.5 48.5003 393.5" fill="#DBA56A"/>
<path d="M39.0003 419C39.0003 419 37.0003 442 56.0003 440C61.6203 439.41 64.0003 435.59 64.3603 430.48C65.5003 414.5 59.6003 407 58.0003 403.43C57.6911 402.776 57.2792 402.175 56.7803 401.65C53.5803 398.27 41.0703 386.65 31.5503 400.5C14.1603 425.8 24.5503 480.5 73.0503 480C127.05 479.44 126.63 438 127.05 430C127.55 420.5 118.05 410 118.05 410C118.05 410 111.05 373 105.05 361C99.0503 349 88.0503 327 76.0503 334C64.0503 341 70.0503 358 76.0503 369C76.0503 369 76.0503 383.88 75.6903 389.78C75.6728 390.063 75.5854 390.337 75.4358 390.578C75.2862 390.818 75.0791 391.018 74.8332 391.159C74.5873 391.3 74.3102 391.377 74.0269 391.384C73.7437 391.392 73.463 391.328 73.2103 391.2C69.0003 389.09 59.2003 383.54 54.0003 388C47.0003 394 48.5003 393.5 48.5003 393.5" stroke="#AA6526" stroke-width="3" stroke-miterlimit="10" stroke-linecap="round"/>
</g>
<path opacity="0.8" d="M84.0007 457.999C84.0007 457.999 79.0007 442.999 87.0007 434.999L94.0007 427.999C87.3808 426.444 81.2166 423.362 76.0007 418.999C68.0007 411.999 66.5007 406.499 68.5007 398.499C69.0007 396.559 72.0007 387.999 87.0007 391.999C102.001 395.999 118.001 409.999 118.001 409.999" stroke="#AA6526" stroke-width="3" stroke-miterlimit="10" stroke-linecap="round"/>
<path opacity="0.8" d="M64.5 432.5C64.5 432.5 73.19 439.19 84.5 424.5" stroke="#AA6526" stroke-width="3" stroke-miterlimit="10" stroke-linecap="round"/>
<path opacity="0.8" d="M75.5 368.5L89.23 392.67" stroke="#AA6526" stroke-width="3" stroke-miterlimit="10" stroke-linecap="round"/>
<g opacity="0.8">
<path d="M486.86 460.759C486.86 460.759 491.5 451.499 499.5 452.499C507.5 453.499 516.36 460.039 506.43 490.269" fill="#DBA56A"/>
<path d="M486.86 460.759C486.86 460.759 491.5 451.499 499.5 452.499C507.5 453.499 516.36 460.039 506.43 490.269" stroke="#AA6526" stroke-width="3" stroke-miterlimit="10"/>
</g>
<g opacity="0.8">
<path d="M439 545C439 545 437 568 456 566C461.62 565.41 464 561.59 464.36 556.48C465.5 540.48 459.6 533 457.95 529.43C457.641 528.776 457.229 528.175 456.73 527.65C453.53 524.27 441.02 512.65 431.5 526.5C414.11 551.8 424.5 606.5 473 606C527 605.44 526.58 564 527 556C527.5 546.5 518 536 518 536C518 536 511 499 505 487C499 475 488 453 476 460C464 467 470 484 476 495C476 495 476 509.88 475.64 515.78C475.623 516.063 475.536 516.337 475.386 516.578C475.236 516.818 475.029 517.018 474.783 517.159C474.537 517.3 474.26 517.377 473.977 517.384C473.694 517.392 473.413 517.328 473.16 517.2C468.99 515.09 459.16 509.54 454 514C447 520 448.5 519.5 448.5 519.5" fill="#DBA56A"/>
<path d="M439 545C439 545 437 568 456 566C461.62 565.41 464 561.59 464.36 556.48C465.5 540.48 459.6 533 457.95 529.43C457.641 528.776 457.229 528.175 456.73 527.65C453.53 524.27 441.02 512.65 431.5 526.5C414.11 551.8 424.5 606.5 473 606C527 605.44 526.58 564 527 556C527.5 546.5 518 536 518 536C518 536 511 499 505 487C499 475 488 453 476 460C464 467 470 484 476 495C476 495 476 509.88 475.64 515.78C475.623 516.063 475.536 516.337 475.386 516.578C475.236 516.818 475.029 517.018 474.783 517.159C474.537 517.3 474.26 517.377 473.977 517.384C473.694 517.392 473.413 517.328 473.16 517.2C468.99 515.09 459.16 509.54 454 514C447 520 448.5 519.5 448.5 519.5" stroke="#AA6526" stroke-width="3" stroke-miterlimit="10" stroke-linecap="round"/>
</g>
<path opacity="0.8" d="M484.001 583.999C484.001 583.999 479.001 568.999 487.001 560.999L494.001 553.999C487.381 552.444 481.217 549.362 476.001 544.999C468.001 537.999 466.501 532.499 468.501 524.499C469.001 522.559 472.001 513.999 487.001 517.999C502.001 521.999 518.001 535.999 518.001 535.999" stroke="#AA6526" stroke-width="3" stroke-miterlimit="10" stroke-linecap="round"/>
<path opacity="0.8" d="M464.5 558.5C464.5 558.5 473.19 565.19 484.5 550.5" stroke="#AA6526" stroke-width="3" stroke-miterlimit="10" stroke-linecap="round"/>
<path opacity="0.8" d="M475.5 494.5L489.23 518.67" stroke="#AA6526" stroke-width="3" stroke-miterlimit="10" stroke-linecap="round"/>
<g opacity="0.8">
<path d="M123.86 735.759C123.86 735.759 128.5 726.499 136.5 727.499C144.5 728.499 153.36 735.039 143.43 765.269" fill="#DBA56A"/>
<path d="M123.86 735.759C123.86 735.759 128.5 726.499 136.5 727.499C144.5 728.499 153.36 735.039 143.43 765.269" stroke="#AA6526" stroke-width="3" stroke-miterlimit="10"/>
</g>
<g opacity="0.8">
<path d="M76.0005 820C76.0005 820 74.0005 843 93.0005 841C98.6205 840.41 101 836.59 101.36 831.48C102.5 815.48 96.6005 808 94.9505 804.43C94.6413 803.776 94.2294 803.175 93.7305 802.65C90.5305 799.27 78.0205 787.65 68.5005 801.5C51.1105 826.8 61.5005 881.5 110 881C164 880.44 163.58 839 164 831C164.5 821.5 155 811 155 811C155 811 148 774 142 762C136 750 125 728 113 735C101 742 107 759 113 770C113 770 113 784.88 112.64 790.78C112.623 791.063 112.536 791.337 112.386 791.578C112.236 791.818 112.029 792.018 111.783 792.159C111.537 792.3 111.26 792.377 110.977 792.384C110.694 792.392 110.413 792.328 110.16 792.2C105.99 790.09 96.1605 784.54 91.0005 789C84.0005 795 85.5005 794.5 85.5005 794.5" fill="#DBA56A"/>
<path d="M76.0005 820C76.0005 820 74.0005 843 93.0005 841C98.6205 840.41 101 836.59 101.36 831.48C102.5 815.48 96.6005 808 94.9505 804.43C94.6413 803.776 94.2294 803.175 93.7305 802.65C90.5305 799.27 78.0205 787.65 68.5005 801.5C51.1105 826.8 61.5005 881.5 110 881C164 880.44 163.58 839 164 831C164.5 821.5 155 811 155 811C155 811 148 774 142 762C136 750 125 728 113 735C101 742 107 759 113 770C113 770 113 784.88 112.64 790.78C112.623 791.063 112.536 791.337 112.386 791.578C112.236 791.818 112.029 792.018 111.783 792.159C111.537 792.3 111.26 792.377 110.977 792.384C110.694 792.392 110.413 792.328 110.16 792.2C105.99 790.09 96.1605 784.54 91.0005 789C84.0005 795 85.5005 794.5 85.5005 794.5" stroke="#AA6526" stroke-width="3" stroke-miterlimit="10" stroke-linecap="round"/>
</g>
<path opacity="0.8" d="M121.001 858.999C121.001 858.999 116.001 843.999 124.001 835.999L131.001 828.999C124.381 827.444 118.217 824.362 113.001 819.999C105.001 812.999 103.501 807.499 105.501 799.499C106.001 797.559 109.001 788.999 124.001 792.999C139.001 796.999 155.001 810.999 155.001 810.999" stroke="#AA6526" stroke-width="3" stroke-miterlimit="10" stroke-linecap="round"/>
<path opacity="0.8" d="M101.5 833.5C101.5 833.5 110.19 840.19 121.5 825.5" stroke="#AA6526" stroke-width="3" stroke-miterlimit="10" stroke-linecap="round"/>
<path opacity="0.8" d="M112.5 769.5L126.23 793.67" stroke="#AA6526" stroke-width="3" stroke-miterlimit="10" stroke-linecap="round"/>
<g opacity="0.8">
<path d="M491.86 889.759C491.86 889.759 496.5 880.499 504.5 881.499C512.5 882.499 521.36 889.039 511.43 919.269" fill="#DBA56A"/>
<path d="M491.86 889.759C491.86 889.759 496.5 880.499 504.5 881.499C512.5 882.499 521.36 889.039 511.43 919.269" stroke="#AA6526" stroke-width="3" stroke-miterlimit="10"/>
</g>
<g opacity="0.8">
<path d="M444 974C444 974 442 997 461 995C466.62 994.41 469 990.59 469.36 985.48C470.5 969.48 464.6 962 462.95 958.43C462.641 957.776 462.229 957.175 461.73 956.65C458.53 953.27 446.02 941.65 436.5 955.5C419.11 980.8 429.5 1035.5 478 1035C532 1034.44 531.58 993 532 985C532.5 975.5 523 965 523 965C523 965 516 928 510 916C504 904 493 882 481 889C469 896 475 913 481 924C481 924 481 938.88 480.64 944.78C480.623 945.063 480.536 945.337 480.386 945.578C480.236 945.818 480.029 946.018 479.783 946.159C479.537 946.3 479.26 946.377 478.977 946.384C478.694 946.392 478.413 946.328 478.16 946.2C473.99 944.09 464.16 938.54 459 943C452 949 453.5 948.5 453.5 948.5" fill="#DBA56A"/>
<path d="M444 974C444 974 442 997 461 995C466.62 994.41 469 990.59 469.36 985.48C470.5 969.48 464.6 962 462.95 958.43C462.641 957.776 462.229 957.175 461.73 956.65C458.53 953.27 446.02 941.65 436.5 955.5C419.11 980.8 429.5 1035.5 478 1035C532 1034.44 531.58 993 532 985C532.5 975.5 523 965 523 965C523 965 516 928 510 916C504 904 493 882 481 889C469 896 475 913 481 924C481 924 481 938.88 480.64 944.78C480.623 945.063 480.536 945.337 480.386 945.578C480.236 945.818 480.029 946.018 479.783 946.159C479.537 946.3 479.26 946.377 478.977 946.384C478.694 946.392 478.413 946.328 478.16 946.2C473.99 944.09 464.16 938.54 459 943C452 949 453.5 948.5 453.5 948.5" stroke="#AA6526" stroke-width="3" stroke-miterlimit="10" stroke-linecap="round"/>
</g>
<path opacity="0.8" d="M489.001 1013C489.001 1013 484.001 997.999 492.001 989.999L499.001 982.999C492.381 981.444 486.217 978.362 481.001 973.999C473.001 966.999 471.501 961.499 473.501 953.499C474.001 951.559 477.001 942.999 492.001 946.999C507.001 950.999 523.001 964.999 523.001 964.999" stroke="#AA6526" stroke-width="3" stroke-miterlimit="10" stroke-linecap="round"/>
<path opacity="0.8" d="M469.5 987.5C469.5 987.5 478.19 994.19 489.5 979.5" stroke="#AA6526" stroke-width="3" stroke-miterlimit="10" stroke-linecap="round"/>
<path opacity="0.8" d="M480.5 923.5L494.23 947.67" stroke="#AA6526" stroke-width="3" stroke-miterlimit="10" stroke-linecap="round"/>
<g opacity="0.8">
<path d="M1035.86 1036.76C1035.86 1036.76 1040.5 1027.5 1048.5 1028.5C1056.5 1029.5 1065.36 1036.04 1055.43 1066.27" fill="#DBA56A"/>
<path d="M1035.86 1036.76C1035.86 1036.76 1040.5 1027.5 1048.5 1028.5C1056.5 1029.5 1065.36 1036.04 1055.43 1066.27" stroke="#AA6526" stroke-width="3" stroke-miterlimit="10"/>
</g>
<g opacity="0.8">
<path d="M988 1121C988 1121 986 1144 1005 1142C1010.62 1141.41 1013 1137.59 1013.36 1132.48C1014.5 1116.48 1008.6 1109 1006.95 1105.48C1006.64 1104.82 1006.23 1104.22 1005.73 1103.7C1002.53 1100.32 990.02 1088.7 980.5 1102.55C963.11 1127.85 973.5 1182.55 1022 1182.05C1076 1181.49 1075.58 1140.05 1076 1132.05C1076.5 1122.55 1067 1112.05 1067 1112.05C1067 1112.05 1060 1075.05 1054 1063.05C1048 1051.05 1037 1029.05 1025 1036.05C1013 1043.05 1019 1060.05 1025 1071.05C1025 1071.05 1025 1085.93 1024.64 1091.83C1024.62 1092.11 1024.54 1092.39 1024.39 1092.63C1024.24 1092.87 1024.03 1093.07 1023.78 1093.21C1023.54 1093.35 1023.26 1093.43 1022.98 1093.43C1022.69 1093.44 1022.41 1093.38 1022.16 1093.25C1017.99 1091.14 1008.16 1085.59 1003 1090.05C996 1096.05 997.5 1095.55 997.5 1095.55" fill="#DBA56A"/>
<path d="M988 1121C988 1121 986 1144 1005 1142C1010.62 1141.41 1013 1137.59 1013.36 1132.48C1014.5 1116.48 1008.6 1109 1006.95 1105.48C1006.64 1104.82 1006.23 1104.22 1005.73 1103.7C1002.53 1100.32 990.02 1088.7 980.5 1102.55C963.11 1127.85 973.5 1182.55 1022 1182.05C1076 1181.49 1075.58 1140.05 1076 1132.05C1076.5 1122.55 1067 1112.05 1067 1112.05C1067 1112.05 1060 1075.05 1054 1063.05C1048 1051.05 1037 1029.05 1025 1036.05C1013 1043.05 1019 1060.05 1025 1071.05C1025 1071.05 1025 1085.93 1024.64 1091.83C1024.62 1092.11 1024.54 1092.39 1024.39 1092.63C1024.24 1092.87 1024.03 1093.07 1023.78 1093.21C1023.54 1093.35 1023.26 1093.43 1022.98 1093.43C1022.69 1093.44 1022.41 1093.38 1022.16 1093.25C1017.99 1091.14 1008.16 1085.59 1003 1090.05C996 1096.05 997.5 1095.55 997.5 1095.55" stroke="#AA6526" stroke-width="3" stroke-miterlimit="10" stroke-linecap="round"/>
</g>
<path opacity="0.8" d="M1033 1160C1033 1160 1028 1145 1036 1137L1043 1130C1036.38 1128.44 1030.22 1125.36 1025 1121C1017 1114 1015.5 1108.5 1017.5 1100.5C1017.99 1098.56 1021 1090 1036 1094C1051 1098 1067 1112 1067 1112" stroke="#AA6526" stroke-width="3" stroke-miterlimit="10" stroke-linecap="round"/>
<path opacity="0.8" d="M1013.5 1134.5C1013.5 1134.5 1022.19 1141.19 1033.5 1126.5" stroke="#AA6526" stroke-width="3" stroke-miterlimit="10" stroke-linecap="round"/>
<path opacity="0.8" d="M1024.5 1070.5L1038.23 1094.67" stroke="#AA6526" stroke-width="3" stroke-miterlimit="10" stroke-linecap="round"/>
<g opacity="0.8">
<path d="M737.86 1208.76C737.86 1208.76 742.5 1199.5 750.5 1200.5C758.5 1201.5 767.36 1208.04 757.43 1238.27" fill="#DBA56A"/>
<path d="M737.86 1208.76C737.86 1208.76 742.5 1199.5 750.5 1200.5C758.5 1201.5 767.36 1208.04 757.43 1238.27" stroke="#AA6526" stroke-width="3" stroke-miterlimit="10"/>
</g>
<g opacity="0.8">
<path d="M690 1293C690 1293 688 1316 707 1314C712.62 1313.41 715 1309.59 715.36 1304.48C716.5 1288.48 710.6 1281 708.95 1277.48C708.641 1276.82 708.229 1276.22 707.73 1275.7C704.53 1272.32 692.02 1260.7 682.5 1274.55C665.11 1299.85 675.5 1354.55 724 1354.05C778 1353.49 777.58 1312.05 778 1304.05C778.5 1294.55 769 1284.05 769 1284.05C769 1284.05 762 1247.05 756 1235.05C750 1223.05 739 1201.05 727 1208.05C715 1215.05 721 1232.05 727 1243.05C727 1243.05 727 1257.93 726.64 1263.83C726.623 1264.11 726.536 1264.39 726.386 1264.63C726.236 1264.87 726.029 1265.07 725.783 1265.21C725.537 1265.35 725.26 1265.43 724.977 1265.43C724.694 1265.44 724.413 1265.38 724.16 1265.25C719.99 1263.14 710.16 1257.59 705 1262.05C698 1268.05 699.5 1267.55 699.5 1267.55" fill="#DBA56A"/>
<path d="M690 1293C690 1293 688 1316 707 1314C712.62 1313.41 715 1309.59 715.36 1304.48C716.5 1288.48 710.6 1281 708.95 1277.48C708.641 1276.82 708.229 1276.22 707.73 1275.7C704.53 1272.32 692.02 1260.7 682.5 1274.55C665.11 1299.85 675.5 1354.55 724 1354.05C778 1353.49 777.58 1312.05 778 1304.05C778.5 1294.55 769 1284.05 769 1284.05C769 1284.05 762 1247.05 756 1235.05C750 1223.05 739 1201.05 727 1208.05C715 1215.05 721 1232.05 727 1243.05C727 1243.05 727 1257.93 726.64 1263.83C726.623 1264.11 726.536 1264.39 726.386 1264.63C726.236 1264.87 726.029 1265.07 725.783 1265.21C725.537 1265.35 725.26 1265.43 724.977 1265.43C724.694 1265.44 724.413 1265.38 724.16 1265.25C719.99 1263.14 710.16 1257.59 705 1262.05C698 1268.05 699.5 1267.55 699.5 1267.55" stroke="#AA6526" stroke-width="3" stroke-miterlimit="10" stroke-linecap="round"/>
</g>
<path opacity="0.8" d="M735.001 1332C735.001 1332 730.001 1317 738.001 1309L745.001 1302C738.381 1300.44 732.217 1297.36 727.001 1293C719.001 1286 717.501 1280.5 719.501 1272.5C719.991 1270.56 723.001 1262 738.001 1266C753.001 1270 769.001 1284 769.001 1284" stroke="#AA6526" stroke-width="3" stroke-miterlimit="10" stroke-linecap="round"/>
<path opacity="0.8" d="M715.5 1306.5C715.5 1306.5 724.19 1313.19 735.5 1298.5" stroke="#AA6526" stroke-width="3" stroke-miterlimit="10" stroke-linecap="round"/>
<path opacity="0.8" d="M726.5 1242.5L740.23 1266.67" stroke="#AA6526" stroke-width="3" stroke-miterlimit="10" stroke-linecap="round"/>
<g opacity="0.8">
<path d="M242.86 1231.76C242.86 1231.76 247.5 1222.5 255.5 1223.5C263.5 1224.5 272.36 1231.04 262.43 1261.27" fill="#DBA56A"/>
<path d="M242.86 1231.76C242.86 1231.76 247.5 1222.5 255.5 1223.5C263.5 1224.5 272.36 1231.04 262.43 1261.27" stroke="#AA6526" stroke-width="3" stroke-miterlimit="10"/>
</g>
<g opacity="0.8">
<path d="M195 1316C195 1316 193 1339 212 1337C217.62 1336.41 220 1332.59 220.36 1327.48C221.5 1311.48 215.6 1304 213.95 1300.48C213.641 1299.82 213.229 1299.22 212.73 1298.7C209.53 1295.32 197.02 1283.7 187.5 1297.55C170.11 1322.85 180.5 1377.55 229 1377.05C283 1376.49 282.58 1335.05 283 1327.05C283.5 1317.55 274 1307.05 274 1307.05C274 1307.05 267 1270.05 261 1258.05C255 1246.05 244 1224.05 232 1231.05C220 1238.05 226 1255.05 232 1266.05C232 1266.05 232 1280.93 231.64 1286.83C231.623 1287.11 231.536 1287.39 231.386 1287.63C231.236 1287.87 231.029 1288.07 230.783 1288.21C230.537 1288.35 230.26 1288.43 229.977 1288.43C229.694 1288.44 229.413 1288.38 229.16 1288.25C224.99 1286.14 215.16 1280.59 210 1285.05C203 1291.05 204.5 1290.55 204.5 1290.55" fill="#DBA56A"/>
<path d="M195 1316C195 1316 193 1339 212 1337C217.62 1336.41 220 1332.59 220.36 1327.48C221.5 1311.48 215.6 1304 213.95 1300.48C213.641 1299.82 213.229 1299.22 212.73 1298.7C209.53 1295.32 197.02 1283.7 187.5 1297.55C170.11 1322.85 180.5 1377.55 229 1377.05C283 1376.49 282.58 1335.05 283 1327.05C283.5 1317.55 274 1307.05 274 1307.05C274 1307.05 267 1270.05 261 1258.05C255 1246.05 244 1224.05 232 1231.05C220 1238.05 226 1255.05 232 1266.05C232 1266.05 232 1280.93 231.64 1286.83C231.623 1287.11 231.536 1287.39 231.386 1287.63C231.236 1287.87 231.029 1288.07 230.783 1288.21C230.537 1288.35 230.26 1288.43 229.977 1288.43C229.694 1288.44 229.413 1288.38 229.16 1288.25C224.99 1286.14 215.16 1280.59 210 1285.05C203 1291.05 204.5 1290.55 204.5 1290.55" stroke="#AA6526" stroke-width="3" stroke-miterlimit="10" stroke-linecap="round"/>
</g>
<path opacity="0.8" d="M240.001 1355C240.001 1355 235.001 1340 243.001 1332L250.001 1325C243.381 1323.44 237.217 1320.36 232.001 1316C224.001 1309 222.501 1303.5 224.501 1295.5C224.991 1293.56 228.001 1285 243.001 1289C258.001 1293 274.001 1307 274.001 1307" stroke="#AA6526" stroke-width="3" stroke-miterlimit="10" stroke-linecap="round"/>
<path opacity="0.8" d="M220.5 1329.5C220.5 1329.5 229.19 1336.19 240.5 1321.5" stroke="#AA6526" stroke-width="3" stroke-miterlimit="10" stroke-linecap="round"/>
<path opacity="0.8" d="M231.5 1265.5L245.23 1289.67" stroke="#AA6526" stroke-width="3" stroke-miterlimit="10" stroke-linecap="round"/>
<g opacity="0.8">
<path d="M478.86 1499.76C478.86 1499.76 483.5 1490.5 491.5 1491.5C499.5 1492.5 508.36 1499.04 498.43 1529.27" fill="#DBA56A"/>
<path d="M478.86 1499.76C478.86 1499.76 483.5 1490.5 491.5 1491.5C499.5 1492.5 508.36 1499.04 498.43 1529.27" stroke="#AA6526" stroke-width="3" stroke-miterlimit="10"/>
</g>
<g opacity="0.8">
<path d="M431 1584C431 1584 429 1607 448 1605C453.62 1604.41 456 1600.59 456.36 1595.48C457.5 1579.48 451.6 1572 449.95 1568.48C449.641 1567.82 449.229 1567.22 448.73 1566.7C445.53 1563.32 433.02 1551.7 423.5 1565.55C406.11 1590.85 416.5 1645.55 465 1645.05C519 1644.49 518.58 1603.05 519 1595.05C519.5 1585.55 510 1575.05 510 1575.05C510 1575.05 503 1538.05 497 1526.05C491 1514.05 480 1492.05 468 1499.05C456 1506.05 462 1523.05 468 1534.05C468 1534.05 468 1548.93 467.64 1554.83C467.623 1555.11 467.536 1555.39 467.386 1555.63C467.236 1555.87 467.029 1556.07 466.783 1556.21C466.537 1556.35 466.26 1556.43 465.977 1556.43C465.694 1556.44 465.413 1556.38 465.16 1556.25C460.99 1554.14 451.16 1548.59 446 1553.05C439 1559.05 440.5 1558.55 440.5 1558.55" fill="#DBA56A"/>
<path d="M431 1584C431 1584 429 1607 448 1605C453.62 1604.41 456 1600.59 456.36 1595.48C457.5 1579.48 451.6 1572 449.95 1568.48C449.641 1567.82 449.229 1567.22 448.73 1566.7C445.53 1563.32 433.02 1551.7 423.5 1565.55C406.11 1590.85 416.5 1645.55 465 1645.05C519 1644.49 518.58 1603.05 519 1595.05C519.5 1585.55 510 1575.05 510 1575.05C510 1575.05 503 1538.05 497 1526.05C491 1514.05 480 1492.05 468 1499.05C456 1506.05 462 1523.05 468 1534.05C468 1534.05 468 1548.93 467.64 1554.83C467.623 1555.11 467.536 1555.39 467.386 1555.63C467.236 1555.87 467.029 1556.07 466.783 1556.21C466.537 1556.35 466.26 1556.43 465.977 1556.43C465.694 1556.44 465.413 1556.38 465.16 1556.25C460.99 1554.14 451.16 1548.59 446 1553.05C439 1559.05 440.5 1558.55 440.5 1558.55" stroke="#AA6526" stroke-width="3" stroke-miterlimit="10" stroke-linecap="round"/>
</g>
<path opacity="0.8" d="M476.001 1623C476.001 1623 471.001 1608 479.001 1600L486.001 1593C479.381 1591.44 473.217 1588.36 468.001 1584C460.001 1577 458.501 1571.5 460.501 1563.5C460.991 1561.56 464.001 1553 479.001 1557C494.001 1561 510.001 1575 510.001 1575" stroke="#AA6526" stroke-width="3" stroke-miterlimit="10" stroke-linecap="round"/>
<path opacity="0.8" d="M456.5 1597.5C456.5 1597.5 465.19 1604.19 476.5 1589.5" stroke="#AA6526" stroke-width="3" stroke-miterlimit="10" stroke-linecap="round"/>
<path opacity="0.8" d="M467.5 1533.5L481.23 1557.67" stroke="#AA6526" stroke-width="3" stroke-miterlimit="10" stroke-linecap="round"/>
<g opacity="0.8">
<path d="M220.86 1770.76C220.86 1770.76 225.5 1761.5 233.5 1762.5C241.5 1763.5 250.36 1770.04 240.43 1800.27" fill="#DBA56A"/>
<path d="M220.86 1770.76C220.86 1770.76 225.5 1761.5 233.5 1762.5C241.5 1763.5 250.36 1770.04 240.43 1800.27" stroke="#AA6526" stroke-width="3" stroke-miterlimit="10"/>
</g>
<g opacity="0.8">
<path d="M173 1855C173 1855 171 1878 190 1876C195.62 1875.41 198 1871.59 198.36 1866.48C199.5 1850.48 193.6 1843 191.95 1839.48C191.641 1838.82 191.229 1838.22 190.73 1837.7C187.53 1834.32 175.02 1822.7 165.5 1836.55C148.11 1861.85 158.5 1916.55 207 1916.05C261 1915.49 260.58 1874.05 261 1866.05C261.5 1856.55 252 1846.05 252 1846.05C252 1846.05 245 1809.05 239 1797.05C233 1785.05 222 1763.05 210 1770.05C198 1777.05 204 1794.05 210 1805.05C210 1805.05 210 1819.93 209.64 1825.83C209.623 1826.11 209.536 1826.39 209.386 1826.63C209.236 1826.87 209.029 1827.07 208.783 1827.21C208.537 1827.35 208.26 1827.43 207.977 1827.43C207.694 1827.44 207.413 1827.38 207.16 1827.25C202.99 1825.14 193.16 1819.59 188 1824.05C181 1830.05 182.5 1829.55 182.5 1829.55" fill="#DBA56A"/>
<path d="M173 1855C173 1855 171 1878 190 1876C195.62 1875.41 198 1871.59 198.36 1866.48C199.5 1850.48 193.6 1843 191.95 1839.48C191.641 1838.82 191.229 1838.22 190.73 1837.7C187.53 1834.32 175.02 1822.7 165.5 1836.55C148.11 1861.85 158.5 1916.55 207 1916.05C261 1915.49 260.58 1874.05 261 1866.05C261.5 1856.55 252 1846.05 252 1846.05C252 1846.05 245 1809.05 239 1797.05C233 1785.05 222 1763.05 210 1770.05C198 1777.05 204 1794.05 210 1805.05C210 1805.05 210 1819.93 209.64 1825.83C209.623 1826.11 209.536 1826.39 209.386 1826.63C209.236 1826.87 209.029 1827.07 208.783 1827.21C208.537 1827.35 208.26 1827.43 207.977 1827.43C207.694 1827.44 207.413 1827.38 207.16 1827.25C202.99 1825.14 193.16 1819.59 188 1824.05C181 1830.05 182.5 1829.55 182.5 1829.55" stroke="#AA6526" stroke-width="3" stroke-miterlimit="10" stroke-linecap="round"/>
</g>
<path opacity="0.8" d="M218.001 1894C218.001 1894 213.001 1879 221.001 1871L228.001 1864C221.381 1862.44 215.217 1859.36 210.001 1855C202.001 1848 200.501 1842.5 202.501 1834.5C202.991 1832.56 206.001 1824 221.001 1828C236.001 1832 252.001 1846 252.001 1846" stroke="#AA6526" stroke-width="3" stroke-miterlimit="10" stroke-linecap="round"/>
<path opacity="0.8" d="M198.5 1868.5C198.5 1868.5 207.19 1875.19 218.5 1860.5" stroke="#AA6526" stroke-width="3" stroke-miterlimit="10" stroke-linecap="round"/>
<path opacity="0.8" d="M209.5 1804.5L223.23 1828.67" stroke="#AA6526" stroke-width="3" stroke-miterlimit="10" stroke-linecap="round"/>
<g opacity="0.8">
<path d="M779.86 2205.76C779.86 2205.76 784.5 2196.5 792.5 2197.5C800.5 2198.5 809.36 2205.04 799.43 2235.27" fill="#DBA56A"/>
<path d="M779.86 2205.76C779.86 2205.76 784.5 2196.5 792.5 2197.5C800.5 2198.5 809.36 2205.04 799.43 2235.27" stroke="#AA6526" stroke-width="3" stroke-miterlimit="10"/>
</g>
<g opacity="0.8">
<path d="M732 2290C732 2290 730 2313 749 2311C754.62 2310.41 757 2306.59 757.36 2301.48C758.5 2285.48 752.6 2278 750.95 2274.43C750.641 2273.77 750.229 2273.17 749.73 2272.65C746.53 2269.27 734.02 2257.65 724.5 2271.5C707.11 2296.8 717.5 2351.5 766 2351C820 2350.44 819.58 2309 820 2301C820.5 2291.5 811 2281 811 2281C811 2281 804 2244 798 2232C792 2220 781 2198 769 2205C757 2212 763 2229 769 2240C769 2240 769 2254.88 768.64 2260.78C768.623 2261.06 768.536 2261.34 768.386 2261.58C768.236 2261.82 768.029 2262.02 767.783 2262.16C767.537 2262.3 767.26 2262.38 766.977 2262.38C766.694 2262.39 766.413 2262.33 766.16 2262.2C761.99 2260.09 752.16 2254.54 747 2259C740 2265 741.5 2264.5 741.5 2264.5" fill="#DBA56A"/>
<path d="M732 2290C732 2290 730 2313 749 2311C754.62 2310.41 757 2306.59 757.36 2301.48C758.5 2285.48 752.6 2278 750.95 2274.43C750.641 2273.77 750.229 2273.17 749.73 2272.65C746.53 2269.27 734.02 2257.65 724.5 2271.5C707.11 2296.8 717.5 2351.5 766 2351C820 2350.44 819.58 2309 820 2301C820.5 2291.5 811 2281 811 2281C811 2281 804 2244 798 2232C792 2220 781 2198 769 2205C757 2212 763 2229 769 2240C769 2240 769 2254.88 768.64 2260.78C768.623 2261.06 768.536 2261.34 768.386 2261.58C768.236 2261.82 768.029 2262.02 767.783 2262.16C767.537 2262.3 767.26 2262.38 766.977 2262.38C766.694 2262.39 766.413 2262.33 766.16 2262.2C761.99 2260.09 752.16 2254.54 747 2259C740 2265 741.5 2264.5 741.5 2264.5" stroke="#AA6526" stroke-width="3" stroke-miterlimit="10" stroke-linecap="round"/>
</g>
<path opacity="0.8" d="M777.001 2329C777.001 2329 772.001 2314 780.001 2306L787.001 2299C780.381 2297.44 774.217 2294.36 769.001 2290C761.001 2283 759.501 2277.5 761.501 2269.5C761.991 2267.56 765.001 2259 780.001 2263C795.001 2267 811.001 2281 811.001 2281" stroke="#AA6526" stroke-width="3" stroke-miterlimit="10" stroke-linecap="round"/>
<path opacity="0.8" d="M757.5 2303.5C757.5 2303.5 766.19 2310.19 777.5 2295.5" stroke="#AA6526" stroke-width="3" stroke-miterlimit="10" stroke-linecap="round"/>
<path opacity="0.8" d="M768.5 2239.5L782.23 2263.67" stroke="#AA6526" stroke-width="3" stroke-miterlimit="10" stroke-linecap="round"/>
<g opacity="0.8">
<path d="M426.86 2014.76C426.86 2014.76 431.5 2005.5 439.5 2006.5C447.5 2007.5 456.36 2014.04 446.43 2044.27" fill="#DBA56A"/>
<path d="M426.86 2014.76C426.86 2014.76 431.5 2005.5 439.5 2006.5C447.5 2007.5 456.36 2014.04 446.43 2044.27" stroke="#AA6526" stroke-width="3" stroke-miterlimit="10"/>
</g>
<g opacity="0.8">
<path d="M379 2099C379 2099 377 2122 396 2120C401.62 2119.41 404 2115.59 404.36 2110.48C405.5 2094.48 399.6 2087 397.95 2083.43C397.641 2082.78 397.229 2082.17 396.73 2081.65C393.53 2078.27 381.02 2066.65 371.5 2080.5C354.11 2105.8 364.5 2160.5 413 2160C467 2159.44 466.58 2118 467 2110C467.5 2100.5 458 2090 458 2090C458 2090 451 2053 445 2041C439 2029 428 2007 416 2014C404 2021 410 2038 416 2049C416 2049 416 2063.88 415.64 2069.78C415.623 2070.06 415.536 2070.34 415.386 2070.58C415.236 2070.82 415.029 2071.02 414.783 2071.16C414.537 2071.3 414.26 2071.38 413.977 2071.38C413.694 2071.39 413.413 2071.33 413.16 2071.2C408.99 2069.09 399.16 2063.54 394 2068C387 2074 388.5 2073.5 388.5 2073.5" fill="#DBA56A"/>
<path d="M379 2099C379 2099 377 2122 396 2120C401.62 2119.41 404 2115.59 404.36 2110.48C405.5 2094.48 399.6 2087 397.95 2083.43C397.641 2082.78 397.229 2082.17 396.73 2081.65C393.53 2078.27 381.02 2066.65 371.5 2080.5C354.11 2105.8 364.5 2160.5 413 2160C467 2159.44 466.58 2118 467 2110C467.5 2100.5 458 2090 458 2090C458 2090 451 2053 445 2041C439 2029 428 2007 416 2014C404 2021 410 2038 416 2049C416 2049 416 2063.88 415.64 2069.78C415.623 2070.06 415.536 2070.34 415.386 2070.58C415.236 2070.82 415.029 2071.02 414.783 2071.16C414.537 2071.3 414.26 2071.38 413.977 2071.38C413.694 2071.39 413.413 2071.33 413.16 2071.2C408.99 2069.09 399.16 2063.54 394 2068C387 2074 388.5 2073.5 388.5 2073.5" stroke="#AA6526" stroke-width="3" stroke-miterlimit="10" stroke-linecap="round"/>
</g>
<path opacity="0.8" d="M424.001 2138C424.001 2138 419.001 2123 427.001 2115L434.001 2108C427.381 2106.44 421.217 2103.36 416.001 2099C408.001 2092 406.501 2086.5 408.501 2078.5C408.991 2076.56 412.001 2068 427.001 2072C442.001 2076 458.001 2090 458.001 2090" stroke="#AA6526" stroke-width="3" stroke-miterlimit="10" stroke-linecap="round"/>
<path opacity="0.8" d="M404.5 2112.5C404.5 2112.5 413.19 2119.19 424.5 2104.5" stroke="#AA6526" stroke-width="3" stroke-miterlimit="10" stroke-linecap="round"/>
<path opacity="0.8" d="M415.5 2048.5L429.23 2072.67" stroke="#AA6526" stroke-width="3" stroke-miterlimit="10" stroke-linecap="round"/>
<g opacity="0.8">
<path d="M780.86 1737.76C780.86 1737.76 785.5 1728.5 793.5 1729.5C801.5 1730.5 810.36 1737.04 800.43 1767.27" fill="#DBA56A"/>
<path d="M780.86 1737.76C780.86 1737.76 785.5 1728.5 793.5 1729.5C801.5 1730.5 810.36 1737.04 800.43 1767.27" stroke="#AA6526" stroke-width="3" stroke-miterlimit="10"/>
</g>
<g opacity="0.8">
<path d="M733 1822C733 1822 731 1845 750 1843C755.62 1842.41 758 1838.59 758.36 1833.48C759.5 1817.48 753.6 1810 751.95 1806.48C751.641 1805.82 751.229 1805.22 750.73 1804.7C747.53 1801.32 735.02 1789.7 725.5 1803.55C708.11 1828.85 718.5 1883.55 767 1883.05C821 1882.49 820.58 1841.05 821 1833.05C821.5 1823.55 812 1813.05 812 1813.05C812 1813.05 805 1776.05 799 1764.05C793 1752.05 782 1730.05 770 1737.05C758 1744.05 764 1761.05 770 1772.05C770 1772.05 770 1786.93 769.64 1792.83C769.623 1793.11 769.536 1793.39 769.386 1793.63C769.236 1793.87 769.029 1794.07 768.783 1794.21C768.537 1794.35 768.26 1794.43 767.977 1794.43C767.694 1794.44 767.413 1794.38 767.16 1794.25C762.99 1792.14 753.16 1786.59 748 1791.05C741 1797.05 742.5 1796.55 742.5 1796.55" fill="#DBA56A"/>
<path d="M733 1822C733 1822 731 1845 750 1843C755.62 1842.41 758 1838.59 758.36 1833.48C759.5 1817.48 753.6 1810 751.95 1806.48C751.641 1805.82 751.229 1805.22 750.73 1804.7C747.53 1801.32 735.02 1789.7 725.5 1803.55C708.11 1828.85 718.5 1883.55 767 1883.05C821 1882.49 820.58 1841.05 821 1833.05C821.5 1823.55 812 1813.05 812 1813.05C812 1813.05 805 1776.05 799 1764.05C793 1752.05 782 1730.05 770 1737.05C758 1744.05 764 1761.05 770 1772.05C770 1772.05 770 1786.93 769.64 1792.83C769.623 1793.11 769.536 1793.39 769.386 1793.63C769.236 1793.87 769.029 1794.07 768.783 1794.21C768.537 1794.35 768.26 1794.43 767.977 1794.43C767.694 1794.44 767.413 1794.38 767.16 1794.25C762.99 1792.14 753.16 1786.59 748 1791.05C741 1797.05 742.5 1796.55 742.5 1796.55" stroke="#AA6526" stroke-width="3" stroke-miterlimit="10" stroke-linecap="round"/>
</g>
<path opacity="0.8" d="M778.001 1861C778.001 1861 773.001 1846 781.001 1838L788.001 1831C781.381 1829.44 775.217 1826.36 770.001 1822C762.001 1815 760.501 1809.5 762.501 1801.5C762.991 1799.56 766.001 1791 781.001 1795C796.001 1799 812.001 1813 812.001 1813" stroke="#AA6526" stroke-width="3" stroke-miterlimit="10" stroke-linecap="round"/>
<path opacity="0.8" d="M758.5 1835.5C758.5 1835.5 767.19 1842.19 778.5 1827.5" stroke="#AA6526" stroke-width="3" stroke-miterlimit="10" stroke-linecap="round"/>
<path opacity="0.8" d="M769.5 1771.5L783.23 1795.67" stroke="#AA6526" stroke-width="3" stroke-miterlimit="10" stroke-linecap="round"/>
<g opacity="0.8">
<path d="M82.8604 2190.76C82.8604 2190.76 87.5004 2181.5 95.5004 2182.5C103.5 2183.5 112.36 2190.04 102.43 2220.27" fill="#DBA56A"/>
<path d="M82.8604 2190.76C82.8604 2190.76 87.5004 2181.5 95.5004 2182.5C103.5 2183.5 112.36 2190.04 102.43 2220.27" stroke="#AA6526" stroke-width="3" stroke-miterlimit="10"/>
</g>
<g opacity="0.8">
<path d="M35.0005 2275C35.0005 2275 33.0005 2298 52.0005 2296C57.6205 2295.41 60.0005 2291.59 60.3605 2286.48C61.5005 2270.48 55.6005 2263 53.9505 2259.43C53.6413 2258.77 53.2294 2258.17 52.7305 2257.65C49.5305 2254.27 37.0205 2242.65 27.5005 2256.5C10.1105 2281.8 20.5005 2336.5 69.0005 2336C123 2335.44 122.58 2294 123 2286C123.5 2276.5 114 2266 114 2266C114 2266 107 2229 101 2217C95.0005 2205 84.0005 2183 72.0005 2190C60.0005 2197 66.0005 2214 72.0005 2225C72.0005 2225 72.0005 2239.88 71.6405 2245.78C71.623 2246.06 71.5356 2246.34 71.386 2246.58C71.2364 2246.82 71.0293 2247.02 70.7834 2247.16C70.5375 2247.3 70.2604 2247.38 69.9771 2247.38C69.6939 2247.39 69.4132 2247.33 69.1605 2247.2C64.9905 2245.09 55.1605 2239.54 50.0005 2244C43.0005 2250 44.5005 2249.5 44.5005 2249.5" fill="#DBA56A"/>
<path d="M35.0005 2275C35.0005 2275 33.0005 2298 52.0005 2296C57.6205 2295.41 60.0005 2291.59 60.3605 2286.48C61.5005 2270.48 55.6005 2263 53.9505 2259.43C53.6413 2258.77 53.2294 2258.17 52.7305 2257.65C49.5305 2254.27 37.0205 2242.65 27.5005 2256.5C10.1105 2281.8 20.5005 2336.5 69.0005 2336C123 2335.44 122.58 2294 123 2286C123.5 2276.5 114 2266 114 2266C114 2266 107 2229 101 2217C95.0005 2205 84.0005 2183 72.0005 2190C60.0005 2197 66.0005 2214 72.0005 2225C72.0005 2225 72.0005 2239.88 71.6405 2245.78C71.623 2246.06 71.5356 2246.34 71.386 2246.58C71.2364 2246.82 71.0293 2247.02 70.7834 2247.16C70.5375 2247.3 70.2604 2247.38 69.9771 2247.38C69.6939 2247.39 69.4132 2247.33 69.1605 2247.2C64.9905 2245.09 55.1605 2239.54 50.0005 2244C43.0005 2250 44.5005 2249.5 44.5005 2249.5" stroke="#AA6526" stroke-width="3" stroke-miterlimit="10" stroke-linecap="round"/>
</g>
<path opacity="0.8" d="M80.0007 2314C80.0007 2314 75.0007 2299 83.0007 2291L90.0007 2284C83.3808 2282.44 77.2166 2279.36 72.0007 2275C64.0007 2268 62.5007 2262.5 64.5007 2254.5C64.9907 2252.56 68.0007 2244 83.0007 2248C98.0007 2252 114.001 2266 114.001 2266" stroke="#AA6526" stroke-width="3" stroke-miterlimit="10" stroke-linecap="round"/>
<path opacity="0.8" d="M60.5 2288.5C60.5 2288.5 69.19 2295.19 80.5 2280.5" stroke="#AA6526" stroke-width="3" stroke-miterlimit="10" stroke-linecap="round"/>
<path opacity="0.8" d="M71.5 2224.5L85.23 2248.67" stroke="#AA6526" stroke-width="3" stroke-miterlimit="10" stroke-linecap="round"/>
<g opacity="0.8">
<path d="M1035.86 1980.76C1035.86 1980.76 1040.5 1971.5 1048.5 1972.5C1056.5 1973.5 1065.36 1980.04 1055.43 2010.27" fill="#DBA56A"/>
<path d="M1035.86 1980.76C1035.86 1980.76 1040.5 1971.5 1048.5 1972.5C1056.5 1973.5 1065.36 1980.04 1055.43 2010.27" stroke="#AA6526" stroke-width="3" stroke-miterlimit="10"/>
</g>
<g opacity="0.8">
<path d="M988 2065C988 2065 986 2088 1005 2086C1010.62 2085.41 1013 2081.59 1013.36 2076.48C1014.5 2060.48 1008.6 2053 1006.95 2049.43C1006.64 2048.78 1006.23 2048.17 1005.73 2047.65C1002.53 2044.27 990.02 2032.65 980.5 2046.5C963.11 2071.8 973.5 2126.5 1022 2126C1076 2125.44 1075.58 2084 1076 2076C1076.5 2066.5 1067 2056 1067 2056C1067 2056 1060 2019 1054 2007C1048 1995 1037 1973 1025 1980C1013 1987 1019 2004 1025 2015C1025 2015 1025 2029.88 1024.64 2035.78C1024.62 2036.06 1024.54 2036.34 1024.39 2036.58C1024.24 2036.82 1024.03 2037.02 1023.78 2037.16C1023.54 2037.3 1023.26 2037.38 1022.98 2037.38C1022.69 2037.39 1022.41 2037.33 1022.16 2037.2C1017.99 2035.09 1008.16 2029.54 1003 2034C996 2040 997.5 2039.5 997.5 2039.5" fill="#DBA56A"/>
<path d="M988 2065C988 2065 986 2088 1005 2086C1010.62 2085.41 1013 2081.59 1013.36 2076.48C1014.5 2060.48 1008.6 2053 1006.95 2049.43C1006.64 2048.78 1006.23 2048.17 1005.73 2047.65C1002.53 2044.27 990.02 2032.65 980.5 2046.5C963.11 2071.8 973.5 2126.5 1022 2126C1076 2125.44 1075.58 2084 1076 2076C1076.5 2066.5 1067 2056 1067 2056C1067 2056 1060 2019 1054 2007C1048 1995 1037 1973 1025 1980C1013 1987 1019 2004 1025 2015C1025 2015 1025 2029.88 1024.64 2035.78C1024.62 2036.06 1024.54 2036.34 1024.39 2036.58C1024.24 2036.82 1024.03 2037.02 1023.78 2037.16C1023.54 2037.3 1023.26 2037.38 1022.98 2037.38C1022.69 2037.39 1022.41 2037.33 1022.16 2037.2C1017.99 2035.09 1008.16 2029.54 1003 2034C996 2040 997.5 2039.5 997.5 2039.5" stroke="#AA6526" stroke-width="3" stroke-miterlimit="10" stroke-linecap="round"/>
</g>
<path opacity="0.8" d="M1033 2104C1033 2104 1028 2089 1036 2081L1043 2074C1036.38 2072.44 1030.22 2069.36 1025 2065C1017 2058 1015.5 2052.5 1017.5 2044.5C1017.99 2042.56 1021 2034 1036 2038C1051 2042 1067 2056 1067 2056" stroke="#AA6526" stroke-width="3" stroke-miterlimit="10" stroke-linecap="round"/>
<path opacity="0.8" d="M1013.5 2078.5C1013.5 2078.5 1022.19 2085.19 1033.5 2070.5" stroke="#AA6526" stroke-width="3" stroke-miterlimit="10" stroke-linecap="round"/>
<path opacity="0.8" d="M1024.5 2014.5L1038.23 2038.67" stroke="#AA6526" stroke-width="3" stroke-miterlimit="10" stroke-linecap="round"/>
<g opacity="0.8">
<path d="M1015.86 1451.76C1015.86 1451.76 1020.5 1442.5 1028.5 1443.5C1036.5 1444.5 1045.36 1451.04 1035.43 1481.27" fill="#DBA56A"/>
<path d="M1015.86 1451.76C1015.86 1451.76 1020.5 1442.5 1028.5 1443.5C1036.5 1444.5 1045.36 1451.04 1035.43 1481.27" stroke="#AA6526" stroke-width="3" stroke-miterlimit="10"/>
</g>
<g opacity="0.8">
<path d="M968 1536C968 1536 966 1559 985 1557C990.62 1556.41 993 1552.59 993.36 1547.48C994.5 1531.48 988.6 1524 986.95 1520.48C986.641 1519.82 986.229 1519.22 985.73 1518.7C982.53 1515.32 970.02 1503.7 960.5 1517.55C943.11 1542.85 953.5 1597.55 1002 1597.05C1056 1596.49 1055.58 1555.05 1056 1547.05C1056.5 1537.55 1047 1527.05 1047 1527.05C1047 1527.05 1040 1490.05 1034 1478.05C1028 1466.05 1017 1444.05 1005 1451.05C993 1458.05 999 1475.05 1005 1486.05C1005 1486.05 1005 1500.93 1004.64 1506.83C1004.62 1507.11 1004.54 1507.39 1004.39 1507.63C1004.24 1507.87 1004.03 1508.07 1003.78 1508.21C1003.54 1508.35 1003.26 1508.43 1002.98 1508.43C1002.69 1508.44 1002.41 1508.38 1002.16 1508.25C997.991 1506.14 988.16 1500.59 983 1505.05C976 1511.05 977.5 1510.55 977.5 1510.55" fill="#DBA56A"/>
<path d="M968 1536C968 1536 966 1559 985 1557C990.62 1556.41 993 1552.59 993.36 1547.48C994.5 1531.48 988.6 1524 986.95 1520.48C986.641 1519.82 986.229 1519.22 985.73 1518.7C982.53 1515.32 970.02 1503.7 960.5 1517.55C943.11 1542.85 953.5 1597.55 1002 1597.05C1056 1596.49 1055.58 1555.05 1056 1547.05C1056.5 1537.55 1047 1527.05 1047 1527.05C1047 1527.05 1040 1490.05 1034 1478.05C1028 1466.05 1017 1444.05 1005 1451.05C993 1458.05 999 1475.05 1005 1486.05C1005 1486.05 1005 1500.93 1004.64 1506.83C1004.62 1507.11 1004.54 1507.39 1004.39 1507.63C1004.24 1507.87 1004.03 1508.07 1003.78 1508.21C1003.54 1508.35 1003.26 1508.43 1002.98 1508.43C1002.69 1508.44 1002.41 1508.38 1002.16 1508.25C997.991 1506.14 988.16 1500.59 983 1505.05C976 1511.05 977.5 1510.55 977.5 1510.55" stroke="#AA6526" stroke-width="3" stroke-miterlimit="10" stroke-linecap="round"/>
</g>
<path opacity="0.8" d="M1013 1575C1013 1575 1008 1560 1016 1552L1023 1545C1016.38 1543.44 1010.22 1540.36 1005 1536C997.001 1529 995.501 1523.5 997.501 1515.5C997.991 1513.56 1001 1505 1016 1509C1031 1513 1047 1527 1047 1527" stroke="#AA6526" stroke-width="3" stroke-miterlimit="10" stroke-linecap="round"/>
<path opacity="0.8" d="M993.5 1549.5C993.5 1549.5 1002.19 1556.19 1013.5 1541.5" stroke="#AA6526" stroke-width="3" stroke-miterlimit="10" stroke-linecap="round"/>
<path opacity="0.8" d="M1004.5 1485.5L1018.23 1509.67" stroke="#AA6526" stroke-width="3" stroke-miterlimit="10" stroke-linecap="round"/>
<g opacity="0.8">
<path d="M64.8604 1500.76C64.8604 1500.76 69.5004 1491.5 77.5004 1492.5C85.5004 1493.5 94.3604 1500.04 84.4304 1530.27" fill="#DBA56A"/>
<path d="M64.8604 1500.76C64.8604 1500.76 69.5004 1491.5 77.5004 1492.5C85.5004 1493.5 94.3604 1500.04 84.4304 1530.27" stroke="#AA6526" stroke-width="3" stroke-miterlimit="10"/>
</g>
<g opacity="0.8">
<path d="M17.0005 1585C17.0005 1585 15.0005 1608 34.0005 1606C39.6205 1605.41 42.0005 1601.59 42.3605 1596.48C43.5005 1580.48 37.6005 1573 35.9505 1569.48C35.6413 1568.82 35.2294 1568.22 34.7305 1567.7C31.5305 1564.32 19.0205 1552.7 9.50047 1566.55C-7.88953 1591.85 2.50047 1646.55 51.0005 1646.05C105 1645.49 104.58 1604.05 105 1596.05C105.5 1586.55 96.0005 1576.05 96.0005 1576.05C96.0005 1576.05 89.0005 1539.05 83.0005 1527.05C77.0005 1515.05 66.0005 1493.05 54.0005 1500.05C42.0005 1507.05 48.0005 1524.05 54.0005 1535.05C54.0005 1535.05 54.0005 1549.93 53.6405 1555.83C53.623 1556.11 53.5356 1556.39 53.386 1556.63C53.2364 1556.87 53.0293 1557.07 52.7834 1557.21C52.5375 1557.35 52.2604 1557.43 51.9771 1557.43C51.6939 1557.44 51.4132 1557.38 51.1605 1557.25C46.9905 1555.14 37.1605 1549.59 32.0005 1554.05C25.0005 1560.05 26.5005 1559.55 26.5005 1559.55" fill="#DBA56A"/>
<path d="M17.0005 1585C17.0005 1585 15.0005 1608 34.0005 1606C39.6205 1605.41 42.0005 1601.59 42.3605 1596.48C43.5005 1580.48 37.6005 1573 35.9505 1569.48C35.6413 1568.82 35.2294 1568.22 34.7305 1567.7C31.5305 1564.32 19.0205 1552.7 9.50047 1566.55C-7.88953 1591.85 2.50047 1646.55 51.0005 1646.05C105 1645.49 104.58 1604.05 105 1596.05C105.5 1586.55 96.0005 1576.05 96.0005 1576.05C96.0005 1576.05 89.0005 1539.05 83.0005 1527.05C77.0005 1515.05 66.0005 1493.05 54.0005 1500.05C42.0005 1507.05 48.0005 1524.05 54.0005 1535.05C54.0005 1535.05 54.0005 1549.93 53.6405 1555.83C53.623 1556.11 53.5356 1556.39 53.386 1556.63C53.2364 1556.87 53.0293 1557.07 52.7834 1557.21C52.5375 1557.35 52.2604 1557.43 51.9771 1557.43C51.6939 1557.44 51.4132 1557.38 51.1605 1557.25C46.9905 1555.14 37.1605 1549.59 32.0005 1554.05C25.0005 1560.05 26.5005 1559.55 26.5005 1559.55" stroke="#AA6526" stroke-width="3" stroke-miterlimit="10" stroke-linecap="round"/>
</g>
<path opacity="0.8" d="M62.0007 1624C62.0007 1624 57.0007 1609 65.0007 1601L72.0007 1594C65.3808 1592.44 59.2166 1589.36 54.0007 1585C46.0007 1578 44.5007 1572.5 46.5007 1564.5C47.0007 1562.56 50.0007 1554 65.0007 1558C80.0007 1562 96.0007 1576 96.0007 1576" stroke="#AA6526" stroke-width="3" stroke-miterlimit="10" stroke-linecap="round"/>
<path opacity="0.8" d="M42.5 1598.5C42.5 1598.5 51.19 1605.19 62.5 1590.5" stroke="#AA6526" stroke-width="3" stroke-miterlimit="10" stroke-linecap="round"/>
<path opacity="0.8" d="M53.5 1534.5L67.23 1558.67" stroke="#AA6526" stroke-width="3" stroke-miterlimit="10" stroke-linecap="round"/>
<g opacity="0.8">
<path d="M833.86 779.759C833.86 779.759 838.5 770.499 846.5 771.499C854.5 772.499 863.36 779.039 853.43 809.269" fill="#DBA56A"/>
<path d="M833.86 779.759C833.86 779.759 838.5 770.499 846.5 771.499C854.5 772.499 863.36 779.039 853.43 809.269" stroke="#AA6526" stroke-width="3" stroke-miterlimit="10"/>
</g>
<g opacity="0.8">
<path d="M786 864C786 864 784 887 803 885C808.62 884.41 811 880.59 811.36 875.48C812.5 859.48 806.6 852 804.95 848.43C804.641 847.776 804.229 847.175 803.73 846.65C800.53 843.27 788.02 831.65 778.5 845.5C761.11 870.8 771.5 925.5 820 925C874 924.44 873.58 883 874 875C874.5 865.5 865 855 865 855C865 855 858 818 852 806C846 794 835 772 823 779C811 786 817 803 823 814C823 814 823 828.88 822.64 834.78C822.623 835.063 822.536 835.337 822.386 835.578C822.236 835.818 822.029 836.018 821.783 836.159C821.537 836.3 821.26 836.377 820.977 836.384C820.694 836.392 820.413 836.328 820.16 836.2C815.99 834.09 806.16 828.54 801 833C794 839 795.5 838.5 795.5 838.5" fill="#DBA56A"/>
<path d="M786 864C786 864 784 887 803 885C808.62 884.41 811 880.59 811.36 875.48C812.5 859.48 806.6 852 804.95 848.43C804.641 847.776 804.229 847.175 803.73 846.65C800.53 843.27 788.02 831.65 778.5 845.5C761.11 870.8 771.5 925.5 820 925C874 924.44 873.58 883 874 875C874.5 865.5 865 855 865 855C865 855 858 818 852 806C846 794 835 772 823 779C811 786 817 803 823 814C823 814 823 828.88 822.64 834.78C822.623 835.063 822.536 835.337 822.386 835.578C822.236 835.818 822.029 836.018 821.783 836.159C821.537 836.3 821.26 836.377 820.977 836.384C820.694 836.392 820.413 836.328 820.16 836.2C815.99 834.09 806.16 828.54 801 833C794 839 795.5 838.5 795.5 838.5" stroke="#AA6526" stroke-width="3" stroke-miterlimit="10" stroke-linecap="round"/>
</g>
<path opacity="0.8" d="M831.001 902.999C831.001 902.999 826.001 887.999 834.001 879.999L841.001 872.999C834.381 871.444 828.217 868.362 823.001 863.999C815.001 856.999 813.501 851.499 815.501 843.499C816.001 841.559 819.001 832.999 834.001 836.999C849.001 840.999 865.001 854.999 865.001 854.999" stroke="#AA6526" stroke-width="3" stroke-miterlimit="10" stroke-linecap="round"/>
<path opacity="0.8" d="M811.5 877.5C811.5 877.5 820.19 884.19 831.5 869.5" stroke="#AA6526" stroke-width="3" stroke-miterlimit="10" stroke-linecap="round"/>
<path opacity="0.8" d="M822.5 813.5L836.23 837.67" stroke="#AA6526" stroke-width="3" stroke-miterlimit="10" stroke-linecap="round"/>
<g opacity="0.8">
<path d="M974.86 470.759C974.86 470.759 979.5 461.499 987.5 462.499C995.5 463.499 1004.36 470.039 994.43 500.269" fill="#DBA56A"/>
<path d="M974.86 470.759C974.86 470.759 979.5 461.499 987.5 462.499C995.5 463.499 1004.36 470.039 994.43 500.269" stroke="#AA6526" stroke-width="3" stroke-miterlimit="10"/>
</g>
<g opacity="0.8">
<path d="M927 555C927 555 925 578 944 576C949.62 575.41 952 571.59 952.36 566.48C953.5 550.48 947.6 543 945.95 539.43C945.641 538.776 945.229 538.175 944.73 537.65C941.53 534.27 929.02 522.65 919.5 536.5C902.11 561.8 912.5 616.5 961 616C1015 615.44 1014.58 574 1015 566C1015.5 556.5 1006 546 1006 546C1006 546 999 509 993 497C987 485 976 463 964 470C952 477 958 494 964 505C964 505 964 519.88 963.64 525.78C963.623 526.063 963.536 526.337 963.386 526.578C963.236 526.818 963.029 527.018 962.783 527.159C962.537 527.3 962.26 527.377 961.977 527.384C961.694 527.392 961.413 527.328 961.16 527.2C956.99 525.09 947.16 519.54 942 524C935 530 936.5 529.5 936.5 529.5" fill="#DBA56A"/>
<path d="M927 555C927 555 925 578 944 576C949.62 575.41 952 571.59 952.36 566.48C953.5 550.48 947.6 543 945.95 539.43C945.641 538.776 945.229 538.175 944.73 537.65C941.53 534.27 929.02 522.65 919.5 536.5C902.11 561.8 912.5 616.5 961 616C1015 615.44 1014.58 574 1015 566C1015.5 556.5 1006 546 1006 546C1006 546 999 509 993 497C987 485 976 463 964 470C952 477 958 494 964 505C964 505 964 519.88 963.64 525.78C963.623 526.063 963.536 526.337 963.386 526.578C963.236 526.818 963.029 527.018 962.783 527.159C962.537 527.3 962.26 527.377 961.977 527.384C961.694 527.392 961.413 527.328 961.16 527.2C956.99 525.09 947.16 519.54 942 524C935 530 936.5 529.5 936.5 529.5" stroke="#AA6526" stroke-width="3" stroke-miterlimit="10" stroke-linecap="round"/>
</g>
<path opacity="0.8" d="M972.001 593.999C972.001 593.999 967.001 578.999 975.001 570.999L982.001 563.999C975.381 562.444 969.217 559.362 964.001 554.999C956.001 547.999 954.501 542.499 956.501 534.499C956.991 532.559 960.001 523.999 975.001 527.999C990.001 531.999 1006 545.999 1006 545.999" stroke="#AA6526" stroke-width="3" stroke-miterlimit="10" stroke-linecap="round"/>
<path opacity="0.8" d="M952.5 568.5C952.5 568.5 961.19 575.19 972.5 560.5" stroke="#AA6526" stroke-width="3" stroke-miterlimit="10" stroke-linecap="round"/>
<path opacity="0.8" d="M963.5 504.5L977.23 528.67" stroke="#AA6526" stroke-width="3" stroke-miterlimit="10" stroke-linecap="round"/>
<g opacity="0.8">
<path d="M1026.86 10.7594C1026.86 10.7594 1031.5 1.49936 1039.5 2.49936C1047.5 3.49936 1056.36 10.0394 1046.43 40.2694" fill="#DBA56A"/>
<path d="M1026.86 10.7594C1026.86 10.7594 1031.5 1.49936 1039.5 2.49936C1047.5 3.49936 1056.36 10.0394 1046.43 40.2694" stroke="#AA6526" stroke-width="3" stroke-miterlimit="10"/>
</g>
<g opacity="0.8">
<path d="M979 94.999C979 94.999 977 117.999 996 115.999C1001.62 115.409 1004 111.589 1004.36 106.479C1005.5 90.479 999.6 82.999 997.95 79.479C997.641 78.8244 997.229 78.2235 996.73 77.699C993.53 74.319 981.02 62.699 971.5 76.549C954.11 101.849 964.5 156.549 1013 156.049C1067 155.489 1066.58 114.049 1067 106.049C1067.5 96.549 1058 86.049 1058 86.049C1058 86.049 1051 49.049 1045 37.049C1039 25.049 1028 3.04895 1016 10.049C1004 17.049 1010 34.049 1016 45.049C1016 45.049 1016 59.929 1015.64 65.829C1015.62 66.1118 1015.54 66.3859 1015.39 66.6265C1015.24 66.8672 1015.03 67.0669 1014.78 67.2077C1014.54 67.3485 1014.26 67.426 1013.98 67.4332C1013.69 67.4404 1013.41 67.3771 1013.16 67.249C1008.99 65.139 999.16 59.589 994 64.049C987 70.049 988.5 69.549 988.5 69.549" fill="#DBA56A"/>
<path d="M979 94.999C979 94.999 977 117.999 996 115.999C1001.62 115.409 1004 111.589 1004.36 106.479C1005.5 90.479 999.6 82.999 997.95 79.479C997.641 78.8244 997.229 78.2235 996.73 77.699C993.53 74.319 981.02 62.699 971.5 76.549C954.11 101.849 964.5 156.549 1013 156.049C1067 155.489 1066.58 114.049 1067 106.049C1067.5 96.549 1058 86.049 1058 86.049C1058 86.049 1051 49.049 1045 37.049C1039 25.049 1028 3.04895 1016 10.049C1004 17.049 1010 34.049 1016 45.049C1016 45.049 1016 59.929 1015.64 65.829C1015.62 66.1118 1015.54 66.3859 1015.39 66.6265C1015.24 66.8672 1015.03 67.0669 1014.78 67.2077C1014.54 67.3485 1014.26 67.426 1013.98 67.4332C1013.69 67.4404 1013.41 67.3771 1013.16 67.249C1008.99 65.139 999.16 59.589 994 64.049C987 70.049 988.5 69.549 988.5 69.549" stroke="#AA6526" stroke-width="3" stroke-miterlimit="10" stroke-linecap="round"/>
</g>
<path opacity="0.8" d="M1024 133.999C1024 133.999 1019 118.999 1027 110.999L1034 103.999C1027.38 102.444 1021.22 99.362 1016 94.9991C1008 87.9991 1006.5 82.4991 1008.5 74.4991C1009 72.5591 1012 63.9991 1027 67.9991C1042 71.9991 1058 85.9991 1058 85.9991" stroke="#AA6526" stroke-width="3" stroke-miterlimit="10" stroke-linecap="round"/>
<path opacity="0.8" d="M1004.5 108.5C1004.5 108.5 1013.19 115.19 1024.5 100.5" stroke="#AA6526" stroke-width="3" stroke-miterlimit="10" stroke-linecap="round"/>
<path opacity="0.8" d="M1015.5 44.5L1029.23 68.67" stroke="#AA6526" stroke-width="3" stroke-miterlimit="10" stroke-linecap="round"/>
</g>
</svg>
