<svg width="1035" height="2329" viewBox="0 0 1035 2329" fill="none" xmlns="http://www.w3.org/2000/svg">
<g opacity="0.8">
<g opacity="0.19">
<g opacity="0.19">
<path opacity="0.19" d="M587.28 68.9995C602.84 68.9995 615.47 53.6695 615.47 34.7595C615.47 15.8495 611.32 0.519531 587.28 0.519531C563.24 0.519531 559.09 15.8495 559.09 34.7595C559.09 53.6695 571.71 68.9995 587.28 68.9995Z" fill="#EB008B"/>
<path opacity="0.19" d="M640.46 119.899C639.94 86.9589 635.63 77.5789 602.71 71.6289C602.71 71.6289 598.08 77.5389 587.28 77.5389C576.48 77.5389 571.84 71.6289 571.84 71.6289C539.28 77.5089 534.71 86.7589 534.11 118.829C534.06 121.449 534.04 121.589 534.03 121.289C534.03 121.859 534.03 122.909 534.03 124.749C534.03 124.749 541.86 140.549 587.27 140.549C632.68 140.549 640.5 124.749 640.5 124.749C640.5 123.569 640.5 122.749 640.5 122.189C640.441 121.427 640.427 120.662 640.46 119.899V119.899Z" fill="#EB008B"/>
</g>
</g>
<g opacity="0.8">
<path opacity="0.8" d="M615.51 34.7693C615.51 15.8593 611.37 0.529297 587.32 0.529297C563.27 0.529297 559.13 15.8593 559.13 34.7693C559.13 53.6793 571.76 68.9993 587.32 68.9993C602.88 68.9993 615.51 53.6793 615.51 34.7693Z" fill="#EC297B"/>
<path opacity="0.8" d="M534.08 122.189V124.749C534.08 124.749 541.92 140.549 587.32 140.549C632.72 140.549 640.56 124.749 640.56 124.749C640.56 122.909 640.56 121.859 640.56 121.289C640.56 121.589 640.56 121.449 640.48 118.829C639.88 86.7589 635.31 77.5089 602.75 71.6289C602.75 71.6289 598.11 77.5389 587.31 77.5389C576.51 77.5389 571.88 71.6289 571.88 71.6289C538.96 77.6289 534.65 86.9589 534.13 119.899C534.16 120.663 534.143 121.427 534.08 122.189V122.189Z" fill="#EC297B"/>
</g>
<g opacity="0.19">
<g opacity="0.19">
<path opacity="0.19" d="M978.28 146C993.84 146 1006.47 130.67 1006.47 111.76C1006.47 92.8495 1002.32 77.5195 978.28 77.5195C954.24 77.5195 950.09 92.8495 950.09 111.76C950.09 130.67 962.71 146 978.28 146Z" fill="#EB008B"/>
<path opacity="0.19" d="M1031.46 196.899C1030.94 163.959 1026.63 154.579 993.71 148.629C993.71 148.629 989.08 154.539 978.28 154.539C967.48 154.539 962.84 148.629 962.84 148.629C930.28 154.509 925.71 163.759 925.11 195.829C925.06 198.449 925.04 198.589 925.03 198.289C925.03 198.859 925.03 199.909 925.03 201.749C925.03 201.749 932.86 217.549 978.27 217.549C1023.68 217.549 1031.5 201.749 1031.5 201.749C1031.5 200.569 1031.5 199.749 1031.5 199.189C1031.44 198.427 1031.43 197.662 1031.46 196.899V196.899Z" fill="#EB008B"/>
</g>
</g>
<g opacity="0.8">
<path opacity="0.8" d="M1006.51 111.769C1006.51 92.8593 1002.37 77.5293 978.32 77.5293C954.27 77.5293 950.13 92.8593 950.13 111.769C950.13 130.679 962.76 145.999 978.32 145.999C993.88 145.999 1006.51 130.679 1006.51 111.769Z" fill="#EC297B"/>
<path opacity="0.8" d="M925.08 199.189V201.749C925.08 201.749 932.92 217.549 978.32 217.549C1023.72 217.549 1031.56 201.749 1031.56 201.749C1031.56 199.909 1031.56 198.859 1031.56 198.289C1031.56 198.589 1031.56 198.449 1031.48 195.829C1030.88 163.759 1026.31 154.509 993.75 148.629C993.75 148.629 989.11 154.539 978.31 154.539C967.51 154.539 962.88 148.629 962.88 148.629C929.96 154.629 925.65 163.959 925.13 196.899C925.16 197.663 925.143 198.427 925.08 199.189Z" fill="#EC297B"/>
</g>
<g opacity="0.19">
<g opacity="0.19">
<path opacity="0.19" d="M475.28 610C490.84 610 503.47 594.67 503.47 575.76C503.47 556.85 499.32 541.52 475.28 541.52C451.24 541.52 447.09 556.85 447.09 575.76C447.09 594.67 459.71 610 475.28 610Z" fill="#EB008B"/>
<path opacity="0.19" d="M528.46 660.899C527.94 627.959 523.63 618.579 490.71 612.629C490.71 612.629 486.08 618.539 475.28 618.539C464.48 618.539 459.84 612.629 459.84 612.629C427.28 618.509 422.71 627.759 422.11 659.829C422.06 662.449 422.04 662.589 422.03 662.289C422.03 662.859 422.03 663.909 422.03 665.749C422.03 665.749 429.86 681.549 475.27 681.549C520.68 681.549 528.5 665.749 528.5 665.749C528.5 664.569 528.5 663.749 528.5 663.189C528.441 662.427 528.427 661.662 528.46 660.899V660.899Z" fill="#EB008B"/>
</g>
</g>
<g opacity="0.8">
<path opacity="0.8" d="M503.51 575.769C503.51 556.859 499.37 541.529 475.32 541.529C451.27 541.529 447.13 556.859 447.13 575.769C447.13 594.679 459.76 609.999 475.32 609.999C490.88 609.999 503.51 594.679 503.51 575.769Z" fill="#EC297B"/>
<path opacity="0.8" d="M422.08 663.189V665.749C422.08 665.749 429.92 681.549 475.32 681.549C520.72 681.549 528.56 665.749 528.56 665.749C528.56 663.909 528.56 662.859 528.56 662.289C528.56 662.589 528.56 662.449 528.48 659.829C527.88 627.759 523.31 618.509 490.75 612.629C490.75 612.629 486.11 618.539 475.31 618.539C464.51 618.539 459.88 612.629 459.88 612.629C426.96 618.629 422.65 627.959 422.13 660.899C422.16 661.663 422.143 662.427 422.08 663.189V663.189Z" fill="#EC297B"/>
</g>
<g opacity="0.19">
<g opacity="0.19">
<path opacity="0.19" d="M102.28 444C117.84 444 130.47 428.67 130.47 409.76C130.47 390.85 126.32 375.52 102.28 375.52C78.2398 375.52 74.0898 390.85 74.0898 409.76C74.0898 428.67 86.7098 444 102.28 444Z" fill="#EB008B"/>
<path opacity="0.19" d="M155.46 494.899C154.94 461.959 150.63 452.579 117.71 446.629C117.71 446.629 113.08 452.539 102.28 452.539C91.4803 452.539 86.8403 446.629 86.8403 446.629C54.2803 452.509 49.7103 461.759 49.1103 493.829C49.1103 496.449 49.0403 496.589 49.0303 496.289C49.0303 496.859 49.0303 497.909 49.0303 499.749C49.0303 499.749 56.8603 515.549 102.27 515.549C147.68 515.549 155.5 499.749 155.5 499.749C155.5 498.569 155.5 497.749 155.5 497.189C155.441 496.427 155.427 495.662 155.46 494.899V494.899Z" fill="#EB008B"/>
</g>
</g>
<g opacity="0.8">
<path opacity="0.8" d="M130.51 409.769C130.51 390.859 126.37 375.529 102.32 375.529C78.2699 375.529 74.1299 390.859 74.1299 409.769C74.1299 428.679 86.7599 443.999 102.32 443.999C117.88 443.999 130.51 428.679 130.51 409.769Z" fill="#EC297B"/>
<path opacity="0.8" d="M49.0801 497.189V499.749C49.0801 499.749 56.9201 515.549 102.32 515.549C147.72 515.549 155.56 499.749 155.56 499.749C155.56 497.909 155.56 496.859 155.56 496.289C155.56 496.589 155.56 496.449 155.48 493.829C154.88 461.759 150.31 452.509 117.75 446.629C117.75 446.629 113.11 452.539 102.31 452.539C91.5101 452.539 86.8801 446.629 86.8801 446.629C54.0001 452.579 49.6601 461.999 49.1401 494.899C49.1665 495.663 49.1465 496.427 49.0801 497.189V497.189Z" fill="#EC297B"/>
</g>
<g opacity="0.19">
<g opacity="0.19">
<path opacity="0.19" d="M746.28 358C761.84 358 774.47 342.67 774.47 323.76C774.47 304.85 770.32 289.52 746.28 289.52C722.24 289.52 718.09 304.85 718.09 323.76C718.09 342.67 730.71 358 746.28 358Z" fill="#EB008B"/>
<path opacity="0.19" d="M799.46 408.899C798.94 375.959 794.63 366.579 761.71 360.629C761.71 360.629 757.08 366.539 746.28 366.539C735.48 366.539 730.84 360.629 730.84 360.629C698.28 366.509 693.71 375.759 693.11 407.829C693.06 410.449 693.04 410.589 693.03 410.289C693.03 410.859 693.03 411.909 693.03 413.749C693.03 413.749 700.86 429.549 746.27 429.549C791.68 429.549 799.5 413.749 799.5 413.749C799.5 412.569 799.5 411.749 799.5 411.189C799.441 410.427 799.427 409.662 799.46 408.899V408.899Z" fill="#EB008B"/>
</g>
</g>
<g opacity="0.8">
<path opacity="0.8" d="M774.51 323.769C774.51 304.859 770.37 289.529 746.32 289.529C722.27 289.529 718.13 304.859 718.13 323.769C718.13 342.679 730.76 357.999 746.32 357.999C761.88 357.999 774.51 342.679 774.51 323.769Z" fill="#EC297B"/>
<path opacity="0.8" d="M693.08 411.189V413.749C693.08 413.749 700.92 429.549 746.32 429.549C791.72 429.549 799.56 413.749 799.56 413.749C799.56 411.909 799.56 410.859 799.56 410.289C799.56 410.589 799.56 410.449 799.48 407.829C798.88 375.759 794.31 366.509 761.75 360.629C761.75 360.629 757.11 366.539 746.31 366.539C735.51 366.539 730.88 360.629 730.88 360.629C698 366.579 693.66 375.999 693.14 408.899C693.167 409.663 693.146 410.427 693.08 411.189V411.189Z" fill="#EC297B"/>
</g>
<g opacity="0.19">
<g opacity="0.19">
<path opacity="0.19" d="M981.28 561C996.84 561 1009.47 545.67 1009.47 526.76C1009.47 507.85 1005.32 492.52 981.28 492.52C957.24 492.52 953.09 507.85 953.09 526.76C953.09 545.67 965.71 561 981.28 561Z" fill="#EB008B"/>
<path opacity="0.19" d="M1034.46 611.899C1033.94 578.959 1029.63 569.579 996.71 563.629C996.71 563.629 992.08 569.539 981.28 569.539C970.48 569.539 965.84 563.629 965.84 563.629C933.28 569.509 928.71 578.759 928.11 610.829C928.06 613.449 928.04 613.589 928.03 613.289C928.03 613.859 928.03 614.909 928.03 616.749C928.03 616.749 935.86 632.549 981.27 632.549C1026.68 632.549 1034.5 616.749 1034.5 616.749C1034.5 615.569 1034.5 614.749 1034.5 614.189C1034.44 613.427 1034.43 612.662 1034.46 611.899V611.899Z" fill="#EB008B"/>
</g>
</g>
<g opacity="0.8">
<path opacity="0.8" d="M1009.51 526.769C1009.51 507.859 1005.37 492.529 981.32 492.529C957.27 492.529 953.13 507.859 953.13 526.769C953.13 545.679 965.76 560.999 981.32 560.999C996.88 560.999 1009.51 545.679 1009.51 526.769Z" fill="#EC297B"/>
<path opacity="0.8" d="M928.08 614.189V616.749C928.08 616.749 935.92 632.549 981.32 632.549C1026.72 632.549 1034.56 616.749 1034.56 616.749C1034.56 614.909 1034.56 613.859 1034.56 613.289C1034.56 613.589 1034.56 613.449 1034.48 610.829C1033.88 578.759 1029.31 569.509 996.75 563.629C996.75 563.629 992.11 569.539 981.31 569.539C970.51 569.539 965.88 563.629 965.88 563.629C932.96 569.629 928.65 578.959 928.13 611.899C928.16 612.663 928.143 613.427 928.08 614.189V614.189Z" fill="#EC297B"/>
</g>
<g opacity="0.19">
<g opacity="0.19">
<path opacity="0.19" d="M53.2798 869C68.8398 869 81.4698 853.67 81.4698 834.76C81.4698 815.85 77.3198 800.52 53.2798 800.52C29.2398 800.52 25.0898 815.85 25.0898 834.76C25.0898 853.67 37.7098 869 53.2798 869Z" fill="#EB008B"/>
<path opacity="0.19" d="M106.46 919.899C105.94 886.959 101.63 877.579 68.7103 871.629C68.7103 871.629 64.0803 877.539 53.2803 877.539C42.4803 877.539 37.8403 871.629 37.8403 871.629C5.28027 877.509 0.710273 886.759 0.110273 918.829C0.0602734 921.449 0.0402734 921.589 0.0302734 921.289C0.0302734 921.859 0.0302734 922.909 0.0302734 924.749C0.0302734 924.749 7.86027 940.549 53.2703 940.549C98.6803 940.549 106.5 924.749 106.5 924.749C106.5 923.569 106.5 922.749 106.5 922.189C106.441 921.427 106.427 920.662 106.46 919.899V919.899Z" fill="#EB008B"/>
</g>
</g>
<g opacity="0.8">
<path opacity="0.8" d="M81.5099 834.769C81.5099 815.859 77.3699 800.529 53.3199 800.529C29.2699 800.529 25.1299 815.859 25.1299 834.769C25.1299 853.679 37.7599 868.999 53.3199 868.999C68.8799 868.999 81.5099 853.679 81.5099 834.769Z" fill="#EC297B"/>
<path opacity="0.8" d="M0.0800781 922.189V924.749C0.0800781 924.749 7.92007 940.549 53.3201 940.549C98.7201 940.549 106.56 924.749 106.56 924.749C106.56 922.909 106.56 921.859 106.56 921.289C106.56 921.589 106.56 921.449 106.48 918.829C105.88 886.759 101.31 877.509 68.7501 871.629C68.7501 871.629 64.1101 877.539 53.3101 877.539C42.5101 877.539 37.8801 871.629 37.8801 871.629C5.00007 877.579 0.660078 886.999 0.140078 919.899C0.166522 920.663 0.146485 921.427 0.0800781 922.189V922.189Z" fill="#EC297B"/>
</g>
<g opacity="0.19">
<g opacity="0.19">
<path opacity="0.19" d="M377.28 1118C392.84 1118 405.47 1102.67 405.47 1083.76C405.47 1064.85 401.32 1049.52 377.28 1049.52C353.24 1049.52 349.09 1064.85 349.09 1083.76C349.09 1102.67 361.71 1118 377.28 1118Z" fill="#EB008B"/>
<path opacity="0.19" d="M430.46 1168.9C429.94 1135.96 425.63 1126.58 392.71 1120.63C392.71 1120.63 388.08 1126.54 377.28 1126.54C366.48 1126.54 361.84 1120.63 361.84 1120.63C329.28 1126.51 324.71 1135.76 324.11 1167.83C324.06 1170.45 324.04 1170.59 324.03 1170.29C324.03 1170.86 324.03 1171.91 324.03 1173.75C324.03 1173.75 331.86 1189.55 377.27 1189.55C422.68 1189.55 430.5 1173.75 430.5 1173.75C430.5 1172.57 430.5 1171.75 430.5 1171.19C430.441 1170.43 430.427 1169.66 430.46 1168.9V1168.9Z" fill="#EB008B"/>
</g>
</g>
<g opacity="0.8">
<path opacity="0.8" d="M405.51 1083.77C405.51 1064.86 401.37 1049.53 377.32 1049.53C353.27 1049.53 349.13 1064.86 349.13 1083.77C349.13 1102.68 361.76 1118 377.32 1118C392.88 1118 405.51 1102.68 405.51 1083.77Z" fill="#EC297B"/>
<path opacity="0.8" d="M324.08 1171.19V1173.75C324.08 1173.75 331.92 1189.55 377.32 1189.55C422.72 1189.55 430.56 1173.75 430.56 1173.75C430.56 1171.91 430.56 1170.86 430.56 1170.29C430.56 1170.59 430.56 1170.45 430.48 1167.83C429.88 1135.76 425.31 1126.51 392.75 1120.63C392.75 1120.63 388.11 1126.54 377.31 1126.54C366.51 1126.54 361.88 1120.63 361.88 1120.63C328.96 1126.58 324.65 1135.96 324.13 1168.9C324.16 1169.66 324.143 1170.43 324.08 1171.19V1171.19Z" fill="#EC297B"/>
</g>
<g opacity="0.19">
<g opacity="0.19">
<path opacity="0.19" d="M809.28 902C824.84 902 837.47 886.67 837.47 867.76C837.47 848.85 833.32 833.52 809.28 833.52C785.24 833.52 781.09 848.85 781.09 867.76C781.09 886.67 793.71 902 809.28 902Z" fill="#EB008B"/>
<path opacity="0.19" d="M862.46 952.899C861.94 919.959 857.63 910.579 824.71 904.629C824.71 904.629 820.08 910.539 809.28 910.539C798.48 910.539 793.84 904.629 793.84 904.629C761.28 910.509 756.71 919.759 756.11 951.829C756.06 954.449 756.04 954.589 756.03 954.289C756.03 954.859 756.03 955.909 756.03 957.749C756.03 957.749 763.86 973.549 809.27 973.549C854.68 973.549 862.5 957.749 862.5 957.749C862.5 956.569 862.5 955.749 862.5 955.189C862.441 954.427 862.427 953.662 862.46 952.899V952.899Z" fill="#EB008B"/>
</g>
</g>
<g opacity="0.8">
<path opacity="0.8" d="M837.51 867.769C837.51 848.859 833.37 833.529 809.32 833.529C785.27 833.529 781.13 848.859 781.13 867.769C781.13 886.679 793.76 901.999 809.32 901.999C824.88 901.999 837.51 886.679 837.51 867.769Z" fill="#EC297B"/>
<path opacity="0.8" d="M756.08 955.189V957.749C756.08 957.749 763.92 973.549 809.32 973.549C854.72 973.549 862.56 957.749 862.56 957.749C862.56 955.909 862.56 954.859 862.56 954.289C862.56 954.589 862.56 954.449 862.48 951.829C861.88 919.759 857.31 910.509 824.75 904.629C824.75 904.629 820.11 910.539 809.31 910.539C798.51 910.539 793.88 904.629 793.88 904.629C760.96 910.629 756.65 919.959 756.13 952.899C756.16 953.663 756.143 954.427 756.08 955.189V955.189Z" fill="#EC297B"/>
</g>
<g opacity="0.19">
<g opacity="0.19">
<path opacity="0.19" d="M980.28 1226C995.84 1226 1008.47 1210.67 1008.47 1191.76C1008.47 1172.85 1004.32 1157.52 980.28 1157.52C956.24 1157.52 952.09 1172.85 952.09 1191.76C952.09 1210.67 964.71 1226 980.28 1226Z" fill="#EB008B"/>
<path opacity="0.19" d="M1033.46 1276.9C1032.94 1243.96 1028.63 1234.58 995.71 1228.63C995.71 1228.63 991.08 1234.54 980.28 1234.54C969.48 1234.54 964.84 1228.63 964.84 1228.63C932.28 1234.51 927.71 1243.76 927.11 1275.83C927.06 1278.45 927.04 1278.59 927.03 1278.29C927.03 1278.86 927.03 1279.91 927.03 1281.75C927.03 1281.75 934.86 1297.55 980.27 1297.55C1025.68 1297.55 1033.5 1281.75 1033.5 1281.75C1033.5 1280.57 1033.5 1279.75 1033.5 1279.19C1033.44 1278.43 1033.43 1277.66 1033.46 1276.9V1276.9Z" fill="#EB008B"/>
</g>
</g>
<g opacity="0.8">
<path opacity="0.8" d="M1008.51 1191.77C1008.51 1172.86 1004.37 1157.53 980.32 1157.53C956.27 1157.53 952.13 1172.86 952.13 1191.77C952.13 1210.68 964.76 1226.01 980.32 1226.01C995.88 1226.01 1008.51 1210.68 1008.51 1191.77Z" fill="#EC297B"/>
<path opacity="0.8" d="M927.08 1279.19V1281.75C927.08 1281.75 934.92 1297.55 980.32 1297.55C1025.72 1297.55 1033.56 1281.75 1033.56 1281.75C1033.56 1279.91 1033.56 1278.86 1033.56 1278.29C1033.56 1278.59 1033.56 1278.45 1033.48 1275.83C1032.88 1243.76 1028.31 1234.51 995.75 1228.63C995.75 1228.63 991.11 1234.54 980.31 1234.54C969.51 1234.54 964.88 1228.63 964.88 1228.63C931.96 1234.58 927.65 1243.96 927.13 1276.9C927.16 1277.66 927.143 1278.43 927.08 1279.19V1279.19Z" fill="#EC297B"/>
</g>
<g opacity="0.19">
<g opacity="0.19">
<path opacity="0.19" d="M76.2798 1421C91.8398 1421 104.47 1405.67 104.47 1386.76C104.47 1367.85 100.32 1352.52 76.2798 1352.52C52.2398 1352.52 48.0898 1367.85 48.0898 1386.76C48.0898 1405.67 60.7098 1421 76.2798 1421Z" fill="#EB008B"/>
<path opacity="0.19" d="M129.46 1471.9C128.94 1438.96 124.63 1429.58 91.7103 1423.63C91.7103 1423.63 87.0803 1429.54 76.2803 1429.54C65.4803 1429.54 60.8403 1423.63 60.8403 1423.63C28.2803 1429.51 23.7103 1438.76 23.1103 1470.83C23.1103 1473.45 23.0403 1473.59 23.0303 1473.29C23.0303 1473.86 23.0303 1474.91 23.0303 1476.75C23.0303 1476.75 30.8603 1492.55 76.2703 1492.55C121.68 1492.55 129.5 1476.75 129.5 1476.75C129.5 1475.57 129.5 1474.75 129.5 1474.19C129.441 1473.43 129.427 1472.66 129.46 1471.9V1471.9Z" fill="#EB008B"/>
</g>
</g>
<g opacity="0.8">
<path opacity="0.8" d="M104.51 1386.77C104.51 1367.86 100.37 1352.53 76.3199 1352.53C52.2699 1352.53 48.1299 1367.86 48.1299 1386.77C48.1299 1405.68 60.7599 1421 76.3199 1421C91.8799 1421 104.51 1405.68 104.51 1386.77Z" fill="#EC297B"/>
<path opacity="0.8" d="M23.0801 1474.19V1476.75C23.0801 1476.75 30.9201 1492.55 76.3201 1492.55C121.72 1492.55 129.56 1476.75 129.56 1476.75C129.56 1474.91 129.56 1473.86 129.56 1473.29C129.56 1473.59 129.56 1473.45 129.48 1470.83C128.88 1438.76 124.31 1429.51 91.7501 1423.63C91.7501 1423.63 87.1101 1429.54 76.3101 1429.54C65.5101 1429.54 60.8801 1423.63 60.8801 1423.63C28.0001 1429.58 23.6601 1439 23.1401 1471.9C23.1665 1472.66 23.1465 1473.43 23.0801 1474.19V1474.19Z" fill="#EC297B"/>
</g>
<g opacity="0.19">
<g opacity="0.19">
<path opacity="0.19" d="M679.28 1362C694.84 1362 707.47 1346.67 707.47 1327.76C707.47 1308.85 703.32 1293.52 679.28 1293.52C655.24 1293.52 651.09 1308.85 651.09 1327.76C651.09 1346.67 663.71 1362 679.28 1362Z" fill="#EB008B"/>
<path opacity="0.19" d="M732.46 1412.9C731.94 1379.96 727.63 1370.58 694.71 1364.63C694.71 1364.63 690.08 1370.54 679.28 1370.54C668.48 1370.54 663.84 1364.63 663.84 1364.63C631.28 1370.51 626.71 1379.76 626.11 1411.83C626.06 1414.45 626.04 1414.59 626.03 1414.29C626.03 1414.86 626.03 1415.91 626.03 1417.75C626.03 1417.75 633.86 1433.55 679.27 1433.55C724.68 1433.55 732.5 1417.75 732.5 1417.75C732.5 1416.57 732.5 1415.75 732.5 1415.19C732.441 1414.43 732.427 1413.66 732.46 1412.9V1412.9Z" fill="#EB008B"/>
</g>
</g>
<g opacity="0.8">
<path opacity="0.8" d="M707.51 1327.77C707.51 1308.86 703.37 1293.53 679.32 1293.53C655.27 1293.53 651.13 1308.86 651.13 1327.77C651.13 1346.68 663.76 1362 679.32 1362C694.88 1362 707.51 1346.68 707.51 1327.77Z" fill="#EC297B"/>
<path opacity="0.8" d="M626.08 1415.19V1417.75C626.08 1417.75 633.92 1433.55 679.32 1433.55C724.72 1433.55 732.56 1417.75 732.56 1417.75C732.56 1415.91 732.56 1414.86 732.56 1414.29C732.56 1414.59 732.56 1414.45 732.48 1411.83C731.88 1379.76 727.31 1370.51 694.75 1364.63C694.75 1364.63 690.11 1370.54 679.31 1370.54C668.51 1370.54 663.88 1364.63 663.88 1364.63C630.96 1370.58 626.65 1379.96 626.13 1412.9C626.16 1413.66 626.143 1414.43 626.08 1415.19V1415.19Z" fill="#EC297B"/>
</g>
<g opacity="0.19">
<g opacity="0.19">
<path opacity="0.19" d="M439.28 1631C454.84 1631 467.47 1615.67 467.47 1596.76C467.47 1577.85 463.32 1562.52 439.28 1562.52C415.24 1562.52 411.09 1577.85 411.09 1596.76C411.09 1615.67 423.71 1631 439.28 1631Z" fill="#EB008B"/>
<path opacity="0.19" d="M492.46 1681.9C491.94 1648.96 487.63 1639.58 454.71 1633.63C454.71 1633.63 450.08 1639.54 439.28 1639.54C428.48 1639.54 423.84 1633.63 423.84 1633.63C391.28 1639.51 386.71 1648.76 386.11 1680.83C386.06 1683.45 386.04 1683.59 386.03 1683.29C386.03 1683.86 386.03 1684.91 386.03 1686.75C386.03 1686.75 393.86 1702.55 439.27 1702.55C484.68 1702.55 492.5 1686.75 492.5 1686.75C492.5 1685.57 492.5 1684.75 492.5 1684.19C492.441 1683.43 492.427 1682.66 492.46 1681.9V1681.9Z" fill="#EB008B"/>
</g>
</g>
<g opacity="0.8">
<path opacity="0.8" d="M467.51 1596.77C467.51 1577.86 463.37 1562.53 439.32 1562.53C415.27 1562.53 411.13 1577.86 411.13 1596.77C411.13 1615.68 423.76 1631 439.32 1631C454.88 1631 467.51 1615.68 467.51 1596.77Z" fill="#EC297B"/>
<path opacity="0.8" d="M386.08 1684.19V1686.75C386.08 1686.75 393.92 1702.55 439.32 1702.55C484.72 1702.55 492.56 1686.75 492.56 1686.75C492.56 1684.91 492.56 1683.86 492.56 1683.29C492.56 1683.59 492.56 1683.45 492.48 1680.83C491.88 1648.76 487.31 1639.51 454.75 1633.63C454.75 1633.63 450.11 1639.54 439.31 1639.54C428.51 1639.54 423.88 1633.63 423.88 1633.63C390.96 1639.58 386.65 1648.96 386.13 1681.9C386.16 1682.66 386.143 1683.43 386.08 1684.19V1684.19Z" fill="#EC297B"/>
</g>
<g opacity="0.19">
<g opacity="0.19">
<path opacity="0.19" d="M838.28 1788C853.84 1788 866.47 1772.67 866.47 1753.76C866.47 1734.85 862.32 1719.52 838.28 1719.52C814.24 1719.52 810.09 1734.85 810.09 1753.76C810.09 1772.67 822.71 1788 838.28 1788Z" fill="#EB008B"/>
<path opacity="0.19" d="M891.46 1838.9C890.94 1805.96 886.63 1796.58 853.71 1790.63C853.71 1790.63 849.08 1796.54 838.28 1796.54C827.48 1796.54 822.84 1790.63 822.84 1790.63C790.28 1796.51 785.71 1805.76 785.11 1837.83C785.06 1840.45 785.04 1840.59 785.03 1840.29C785.03 1840.86 785.03 1841.91 785.03 1843.75C785.03 1843.75 792.86 1859.55 838.27 1859.55C883.68 1859.55 891.5 1843.75 891.5 1843.75C891.5 1842.57 891.5 1841.75 891.5 1841.19C891.441 1840.43 891.427 1839.66 891.46 1838.9V1838.9Z" fill="#EB008B"/>
</g>
</g>
<g opacity="0.8">
<path opacity="0.8" d="M866.51 1753.77C866.51 1734.86 862.37 1719.53 838.32 1719.53C814.27 1719.53 810.13 1734.86 810.13 1753.77C810.13 1772.68 822.76 1788 838.32 1788C853.88 1788 866.51 1772.68 866.51 1753.77Z" fill="#EC297B"/>
<path opacity="0.8" d="M785.08 1841.19V1843.75C785.08 1843.75 792.92 1859.55 838.32 1859.55C883.72 1859.55 891.56 1843.75 891.56 1843.75C891.56 1841.91 891.56 1840.86 891.56 1840.29C891.56 1840.59 891.56 1840.45 891.48 1837.83C890.88 1805.76 886.31 1796.51 853.75 1790.63C853.75 1790.63 849.11 1796.54 838.31 1796.54C827.51 1796.54 822.88 1790.63 822.88 1790.63C789.96 1796.58 785.65 1805.96 785.13 1838.9C785.16 1839.66 785.143 1840.43 785.08 1841.19V1841.19Z" fill="#EC297B"/>
</g>
<g opacity="0.19">
<g opacity="0.19">
<path opacity="0.19" d="M76.2798 1836C91.8398 1836 104.47 1820.67 104.47 1801.76C104.47 1782.85 100.32 1767.52 76.2798 1767.52C52.2398 1767.52 48.0898 1782.85 48.0898 1801.76C48.0898 1820.67 60.7098 1836 76.2798 1836Z" fill="#EB008B"/>
<path opacity="0.19" d="M129.46 1886.9C128.94 1853.96 124.63 1844.58 91.7103 1838.63C91.7103 1838.63 87.0803 1844.54 76.2803 1844.54C65.4803 1844.54 60.8403 1838.63 60.8403 1838.63C28.2803 1844.51 23.7103 1853.76 23.1103 1885.83C23.1103 1888.45 23.0403 1888.59 23.0303 1888.29C23.0303 1888.86 23.0303 1889.91 23.0303 1891.75C23.0303 1891.75 30.8603 1907.55 76.2703 1907.55C121.68 1907.55 129.5 1891.75 129.5 1891.75C129.5 1890.57 129.5 1889.75 129.5 1889.19C129.441 1888.43 129.427 1887.66 129.46 1886.9V1886.9Z" fill="#EB008B"/>
</g>
</g>
<g opacity="0.8">
<path opacity="0.8" d="M104.51 1801.77C104.51 1782.86 100.37 1767.53 76.3199 1767.53C52.2699 1767.53 48.1299 1782.86 48.1299 1801.77C48.1299 1820.68 60.7599 1836 76.3199 1836C91.8799 1836 104.51 1820.68 104.51 1801.77Z" fill="#EC297B"/>
<path opacity="0.8" d="M23.0801 1889.19V1891.75C23.0801 1891.75 30.9201 1907.55 76.3201 1907.55C121.72 1907.55 129.56 1891.75 129.56 1891.75C129.56 1889.91 129.56 1888.86 129.56 1888.29C129.56 1888.59 129.56 1888.45 129.48 1885.83C128.88 1853.76 124.31 1844.51 91.7501 1838.63C91.7501 1838.63 87.1101 1844.54 76.3101 1844.54C65.5101 1844.54 60.8801 1838.63 60.8801 1838.63C28.0001 1844.58 23.6601 1854 23.1401 1886.9C23.1665 1887.66 23.1465 1888.43 23.0801 1889.19V1889.19Z" fill="#EC297B"/>
</g>
<g opacity="0.19">
<g opacity="0.19">
<path opacity="0.19" d="M207.28 2257C222.84 2257 235.47 2241.67 235.47 2222.76C235.47 2203.85 231.32 2188.52 207.28 2188.52C183.24 2188.52 179.09 2203.85 179.09 2222.76C179.09 2241.67 191.71 2257 207.28 2257Z" fill="#EB008B"/>
<path opacity="0.19" d="M260.46 2307.9C259.94 2274.96 255.63 2265.58 222.71 2259.63C222.71 2259.63 218.08 2265.54 207.28 2265.54C196.48 2265.54 191.84 2259.63 191.84 2259.63C159.28 2265.51 154.71 2274.76 154.11 2306.83C154.06 2309.45 154.04 2309.59 154.03 2309.29C154.03 2309.86 154.03 2310.91 154.03 2312.75C154.03 2312.75 161.86 2328.55 207.27 2328.55C252.68 2328.55 260.5 2312.75 260.5 2312.75C260.5 2311.57 260.5 2310.75 260.5 2310.19C260.441 2309.43 260.427 2308.66 260.46 2307.9V2307.9Z" fill="#EB008B"/>
</g>
</g>
<g opacity="0.8">
<path opacity="0.8" d="M235.51 2222.77C235.51 2203.86 231.37 2188.53 207.32 2188.53C183.27 2188.53 179.13 2203.86 179.13 2222.77C179.13 2241.68 191.76 2257 207.32 2257C222.88 2257 235.51 2241.68 235.51 2222.77Z" fill="#EC297B"/>
<path opacity="0.8" d="M154.08 2310.19V2312.75C154.08 2312.75 161.92 2328.55 207.32 2328.55C252.72 2328.55 260.56 2312.75 260.56 2312.75C260.56 2310.91 260.56 2309.86 260.56 2309.29C260.56 2309.59 260.56 2309.45 260.48 2306.83C259.88 2274.76 255.31 2265.51 222.75 2259.63C222.75 2259.63 218.11 2265.54 207.31 2265.54C196.51 2265.54 191.88 2259.63 191.88 2259.63C158.96 2265.58 154.65 2274.96 154.13 2307.9C154.16 2308.66 154.143 2309.43 154.08 2310.19V2310.19Z" fill="#EC297B"/>
</g>
<g opacity="0.19">
<g opacity="0.19">
<path opacity="0.19" d="M947.28 2252C962.84 2252 975.47 2236.67 975.47 2217.76C975.47 2198.85 971.32 2183.52 947.28 2183.52C923.24 2183.52 919.09 2198.85 919.09 2217.76C919.09 2236.67 931.71 2252 947.28 2252Z" fill="#EB008B"/>
<path opacity="0.19" d="M1000.46 2302.9C999.94 2269.96 995.63 2260.58 962.71 2254.63C962.71 2254.63 958.08 2260.54 947.28 2260.54C936.48 2260.54 931.84 2254.63 931.84 2254.63C899.28 2260.51 894.71 2269.76 894.11 2301.83C894.06 2304.45 894.04 2304.59 894.03 2304.29C894.03 2304.86 894.03 2305.91 894.03 2307.75C894.03 2307.75 901.86 2323.55 947.27 2323.55C992.68 2323.55 1000.5 2307.75 1000.5 2307.75C1000.5 2306.57 1000.5 2305.75 1000.5 2305.19C1000.44 2304.43 1000.43 2303.66 1000.46 2302.9V2302.9Z" fill="#EB008B"/>
</g>
</g>
<g opacity="0.8">
<path opacity="0.8" d="M975.51 2217.77C975.51 2198.86 971.37 2183.53 947.32 2183.53C923.27 2183.53 919.13 2198.86 919.13 2217.77C919.13 2236.68 931.76 2252 947.32 2252C962.88 2252 975.51 2236.68 975.51 2217.77Z" fill="#EC297B"/>
<path opacity="0.8" d="M894.08 2305.19V2307.75C894.08 2307.75 901.92 2323.55 947.32 2323.55C992.72 2323.55 1000.56 2307.75 1000.56 2307.75C1000.56 2305.91 1000.56 2304.86 1000.56 2304.29C1000.56 2304.59 1000.56 2304.45 1000.48 2301.83C999.88 2269.76 995.31 2260.51 962.75 2254.63C962.75 2254.63 958.11 2260.54 947.31 2260.54C936.51 2260.54 931.88 2254.63 931.88 2254.63C898.96 2260.58 894.65 2269.96 894.13 2302.9C894.16 2303.66 894.143 2304.43 894.08 2305.19V2305.19Z" fill="#EC297B"/>
</g>
<g opacity="0.19">
<g opacity="0.19">
<path opacity="0.19" d="M543.28 1959C558.84 1959 571.47 1943.67 571.47 1924.76C571.47 1905.85 567.32 1890.52 543.28 1890.52C519.24 1890.52 515.09 1905.85 515.09 1924.76C515.09 1943.67 527.71 1959 543.28 1959Z" fill="#EB008B"/>
<path opacity="0.19" d="M596.46 2009.9C595.94 1976.96 591.63 1967.58 558.71 1961.63C558.71 1961.63 554.08 1967.54 543.28 1967.54C532.48 1967.54 527.84 1961.63 527.84 1961.63C495.28 1967.51 490.71 1976.76 490.11 2008.83C490.06 2011.45 490.04 2011.59 490.03 2011.29C490.03 2011.86 490.03 2012.91 490.03 2014.75C490.03 2014.75 497.86 2030.55 543.27 2030.55C588.68 2030.55 596.5 2014.75 596.5 2014.75C596.5 2013.57 596.5 2012.75 596.5 2012.19C596.441 2011.43 596.427 2010.66 596.46 2009.9V2009.9Z" fill="#EB008B"/>
</g>
</g>
<g opacity="0.8">
<path opacity="0.8" d="M571.51 1924.77C571.51 1905.86 567.37 1890.53 543.32 1890.53C519.27 1890.53 515.13 1905.86 515.13 1924.77C515.13 1943.68 527.76 1959 543.32 1959C558.88 1959 571.51 1943.68 571.51 1924.77Z" fill="#EC297B"/>
<path opacity="0.8" d="M490.08 2012.19V2014.75C490.08 2014.75 497.92 2030.55 543.32 2030.55C588.72 2030.55 596.56 2014.75 596.56 2014.75C596.56 2012.91 596.56 2011.86 596.56 2011.29C596.56 2011.59 596.56 2011.45 596.48 2008.83C595.88 1976.76 591.31 1967.51 558.75 1961.63C558.75 1961.63 554.11 1967.54 543.31 1967.54C532.51 1967.54 527.88 1961.63 527.88 1961.63C494.96 1967.58 490.65 1976.96 490.13 2009.9C490.16 2010.66 490.143 2011.43 490.08 2012.19V2012.19Z" fill="#EC297B"/>
</g>
</g>
</svg>
