<svg width="981" height="2321" viewBox="0 0 981 2321" fill="none" xmlns="http://www.w3.org/2000/svg">
<g opacity="0.8">
<path opacity="0.8" d="M727.001 0.459051C739.111 0.189051 751.161 5.45905 751.461 18.8491C751.731 31.1491 737.731 36.1891 734.801 40.6991C732.601 44.0591 733.461 48.6991 727.221 48.8291C723.151 48.9191 721.091 45.649 721.021 42.619C720.771 31.359 737.271 28.4391 737.021 19.1591C736.911 14.0591 733.441 11.0991 727.761 11.2291C715.651 11.4991 720.651 23.8791 711.481 24.0791C708.171 24.1491 705.281 22.2291 705.201 18.4491C705.001 9.16905 715.451 0.709051 727.001 0.459051ZM727.731 54.959C729.265 54.9258 730.775 55.3482 732.069 56.1729C733.363 56.9976 734.384 58.1875 735.002 59.5922C735.62 60.9968 735.807 62.5532 735.541 64.0645C735.274 65.5759 734.566 66.9742 733.505 68.0829C732.444 69.1915 731.078 69.9607 729.579 70.293C728.081 70.6254 726.518 70.5061 725.088 69.9502C723.657 69.3943 722.424 68.4267 721.543 67.1699C720.663 65.913 720.175 64.4233 720.141 62.889C720.116 60.8424 720.897 58.8682 722.315 57.3921C723.733 55.9161 725.675 55.0566 727.721 54.9991L727.731 54.959Z" fill="white"/>
<path opacity="0.8" d="M608.001 239.459C620.111 239.189 632.161 244.459 632.461 257.849C632.731 270.149 618.731 275.189 615.801 279.699C613.601 283.059 614.461 287.699 608.221 287.829C604.151 287.919 602.091 284.649 602.021 281.619C601.771 270.359 618.271 267.439 618.021 258.159C617.911 253.059 614.441 250.099 608.761 250.229C596.651 250.499 601.651 262.879 592.481 263.079C589.171 263.149 586.281 261.229 586.201 257.449C586.001 248.169 596.451 239.709 608.001 239.459ZM608.731 293.959C610.265 293.926 611.775 294.348 613.069 295.173C614.363 295.998 615.384 297.187 616.002 298.592C616.62 299.997 616.807 301.553 616.541 303.065C616.274 304.576 615.566 305.974 614.505 307.083C613.444 308.192 612.078 308.961 610.579 309.293C609.081 309.625 607.518 309.506 606.088 308.95C604.657 308.394 603.424 307.427 602.543 306.17C601.663 304.913 601.175 303.423 601.141 301.889C601.116 299.842 601.897 297.868 603.315 296.392C604.733 294.916 606.675 294.057 608.721 293.999L608.731 293.959Z" fill="white"/>
<path opacity="0.8" d="M99.0005 442.459C111.11 442.189 123.16 447.459 123.46 460.849C123.73 473.149 109.73 478.189 106.8 482.699C104.6 486.059 105.46 490.699 99.2205 490.829C95.1505 490.919 93.0905 487.649 93.0205 484.619C92.7705 473.359 109.27 470.439 109.07 461.159C108.96 456.059 105.49 453.099 99.8105 453.229C87.7005 453.499 92.7005 465.879 83.5305 466.079C80.2205 466.149 77.3305 464.229 77.2505 460.449C77.0005 451.169 87.4505 442.709 99.0005 442.459ZM99.7305 496.959C101.265 496.926 102.774 497.348 104.069 498.173C105.363 498.998 106.383 500.187 107.002 501.592C107.62 502.997 107.807 504.553 107.541 506.065C107.274 507.576 106.566 508.974 105.505 510.083C104.443 511.192 103.077 511.961 101.579 512.293C100.081 512.625 98.518 512.506 97.0876 511.95C95.6572 511.394 94.4237 510.427 93.5432 509.17C92.6626 507.913 92.1745 506.423 92.1405 504.889C92.1161 502.842 92.8971 500.868 94.3151 499.392C95.7331 497.916 97.6745 497.057 99.7205 496.999L99.7305 496.959Z" fill="white"/>
<path opacity="0.8" d="M22.0005 266.459C34.1105 266.189 46.1605 271.459 46.4605 284.849C46.7305 297.149 32.7305 302.189 29.8005 306.699C27.6005 310.059 28.4605 314.699 22.2205 314.829C18.1505 314.919 16.0905 311.649 16.0205 308.619C15.7705 297.359 32.2705 294.439 32.0705 285.159C31.9605 280.059 28.4905 277.099 22.8105 277.229C10.7005 277.499 15.7005 289.879 6.53049 290.079C3.22049 290.149 0.33049 288.229 0.25049 284.449C0.000490018 275.169 10.4505 266.709 22.0005 266.459ZM22.7305 320.959C24.2648 320.926 25.7744 321.348 27.0686 322.173C28.3629 322.998 29.3835 324.187 30.0015 325.592C30.6195 326.997 30.8072 328.553 30.5407 330.065C30.2743 331.576 29.5657 332.974 28.5046 334.083C27.4435 335.192 26.0775 335.961 24.5793 336.293C23.0811 336.625 21.518 336.506 20.0876 335.95C18.6572 335.394 17.4237 334.427 16.5432 333.17C15.6626 331.913 15.1745 330.423 15.1405 328.889C15.1161 326.842 15.8971 324.868 17.3151 323.392C18.7331 321.916 20.6745 321.057 22.7205 320.999L22.7305 320.959Z" fill="white"/>
<path opacity="0.8" d="M793.001 546.459C805.111 546.189 817.161 551.459 817.461 564.849C817.731 577.149 803.731 582.189 800.801 586.699C798.601 590.059 799.461 594.699 793.221 594.829C789.151 594.919 787.091 591.649 787.021 588.619C786.771 577.359 803.271 574.439 803.021 565.159C802.911 560.059 799.441 557.099 793.761 557.229C781.651 557.499 786.651 569.879 777.481 570.079C774.171 570.149 771.281 568.229 771.201 564.449C771.001 555.169 781.451 546.709 793.001 546.459ZM793.731 600.959C795.265 600.926 796.775 601.348 798.069 602.173C799.363 602.998 800.384 604.187 801.002 605.592C801.62 606.997 801.807 608.553 801.541 610.065C801.274 611.576 800.566 612.974 799.505 614.083C798.444 615.192 797.078 615.961 795.579 616.293C794.081 616.625 792.518 616.506 791.088 615.95C789.657 615.394 788.424 614.427 787.543 613.17C786.663 611.913 786.175 610.423 786.141 608.889C786.116 606.842 786.897 604.868 788.315 603.392C789.733 601.916 791.675 601.057 793.721 600.999L793.731 600.959Z" fill="white"/>
<path opacity="0.8" d="M403 400.459C415.11 400.189 427.16 405.459 427.46 418.849C427.73 431.149 413.73 436.189 410.8 440.699C408.6 444.059 409.46 448.699 403.22 448.829C399.15 448.919 397.09 445.649 397.02 442.619C396.77 431.359 413.27 428.439 413.07 419.159C412.96 414.059 409.49 411.099 403.81 411.229C391.7 411.499 396.7 423.879 387.53 424.079C384.22 424.149 381.33 422.229 381.25 418.449C381 409.169 391.45 400.709 403 400.459ZM403.731 454.959C405.265 454.926 406.774 455.348 408.069 456.173C409.363 456.998 410.383 458.187 411.001 459.592C411.62 460.997 411.807 462.553 411.541 464.065C411.274 465.576 410.566 466.974 409.505 468.083C408.443 469.192 407.077 469.961 405.579 470.293C404.081 470.625 402.518 470.506 401.088 469.95C399.657 469.394 398.424 468.427 397.543 467.17C396.663 465.913 396.174 464.423 396.141 462.889C396.116 460.842 396.897 458.868 398.315 457.392C399.733 455.916 401.675 455.057 403.72 454.999L403.731 454.959Z" fill="white"/>
<path opacity="0.8" d="M932.001 113.459C944.111 113.189 956.161 118.459 956.461 131.849C956.731 144.149 942.731 149.189 939.801 153.699C937.601 157.059 938.461 161.699 932.221 161.829C928.151 161.919 926.091 158.649 926.021 155.619C925.771 144.359 942.271 141.439 942.021 132.159C941.911 127.059 938.441 124.099 932.761 124.229C920.651 124.499 925.651 136.879 916.481 137.079C913.171 137.149 910.281 135.229 910.201 131.449C910.001 122.169 920.451 113.709 932.001 113.459ZM932.731 167.959C934.265 167.926 935.775 168.348 937.069 169.173C938.363 169.998 939.384 171.187 940.002 172.592C940.62 173.997 940.807 175.553 940.541 177.065C940.274 178.576 939.566 179.974 938.505 181.083C937.444 182.192 936.078 182.961 934.579 183.293C933.081 183.625 931.518 183.506 930.088 182.95C928.657 182.394 927.424 181.427 926.543 180.17C925.663 178.913 925.175 177.423 925.141 175.889C925.116 173.842 925.897 171.868 927.315 170.392C928.733 168.916 930.675 168.057 932.721 167.999L932.731 167.959Z" fill="white"/>
<path opacity="0.8" d="M306 681.459C318.11 681.189 330.16 686.459 330.46 699.849C330.73 712.149 316.73 717.189 313.8 721.699C311.6 725.059 312.46 729.699 306.22 729.829C302.15 729.919 300.09 726.649 300.02 723.619C299.77 712.359 316.27 709.439 316.07 700.159C315.96 695.059 312.49 692.099 306.81 692.229C294.7 692.499 299.7 704.879 290.53 705.079C287.22 705.149 284.33 703.229 284.25 699.449C284 690.169 294.45 681.709 306 681.459ZM306.731 735.959C308.265 735.926 309.774 736.348 311.069 737.173C312.363 737.998 313.383 739.187 314.001 740.592C314.62 741.997 314.807 743.553 314.541 745.065C314.274 746.576 313.566 747.974 312.505 749.083C311.443 750.192 310.077 750.961 308.579 751.293C307.081 751.625 305.518 751.506 304.088 750.95C302.657 750.394 301.424 749.427 300.543 748.17C299.663 746.913 299.174 745.423 299.141 743.889C299.116 741.842 299.897 739.868 301.315 738.392C302.733 736.916 304.675 736.057 306.72 735.999L306.731 735.959Z" fill="white"/>
<path opacity="0.8" d="M616.001 807.459C628.111 807.189 640.161 812.459 640.461 825.849C640.731 838.149 626.731 843.189 623.801 847.699C621.601 851.059 622.461 855.699 616.221 855.829C612.151 855.919 610.091 852.649 610.021 849.619C609.771 838.359 626.271 835.439 626.021 826.159C625.911 821.059 622.441 818.099 616.761 818.229C604.651 818.499 609.651 830.879 600.481 831.079C597.171 831.149 594.281 829.229 594.201 825.449C594.001 816.169 604.451 807.709 616.001 807.459ZM616.731 861.959C618.265 861.926 619.775 862.348 621.069 863.173C622.363 863.998 623.384 865.187 624.002 866.592C624.62 867.997 624.807 869.553 624.541 871.065C624.274 872.576 623.566 873.974 622.505 875.083C621.444 876.192 620.078 876.961 618.579 877.293C617.081 877.625 615.518 877.506 614.088 876.95C612.657 876.394 611.424 875.427 610.543 874.17C609.663 872.913 609.175 871.423 609.141 869.889C609.116 867.842 609.897 865.868 611.315 864.392C612.733 862.916 614.675 862.057 616.721 861.999L616.731 861.959Z" fill="white"/>
<path opacity="0.8" d="M107 1010.46C119.11 1010.19 131.16 1015.46 131.46 1028.85C131.73 1041.15 117.73 1046.19 114.8 1050.7C112.6 1054.06 113.46 1058.7 107.22 1058.83C103.15 1058.92 101.09 1055.65 101.02 1052.62C100.77 1041.36 117.27 1038.44 117.07 1029.16C116.96 1024.06 113.49 1021.1 107.81 1021.23C95.7005 1021.5 100.7 1033.88 91.5305 1034.08C88.2205 1034.15 85.3305 1032.23 85.2505 1028.45C85.0005 1019.17 95.4505 1010.71 107 1010.46ZM107.73 1064.96C109.265 1064.93 110.774 1065.35 112.069 1066.17C113.363 1067 114.383 1068.19 115.002 1069.59C115.62 1071 115.807 1072.55 115.541 1074.06C115.274 1075.58 114.566 1076.97 113.505 1078.08C112.443 1079.19 111.077 1079.96 109.579 1080.29C108.081 1080.63 106.518 1080.51 105.088 1079.95C103.657 1079.39 102.424 1078.43 101.543 1077.17C100.663 1075.91 100.174 1074.42 100.14 1072.89C100.116 1070.84 100.897 1068.87 102.315 1067.39C103.733 1065.92 105.675 1065.06 107.72 1065L107.73 1064.96Z" fill="white"/>
<path opacity="0.8" d="M801.001 1114.46C813.111 1114.19 825.161 1119.46 825.461 1132.85C825.731 1145.15 811.731 1150.19 808.801 1154.7C806.601 1158.06 807.461 1162.7 801.221 1162.83C797.151 1162.92 795.091 1159.65 795.021 1156.62C794.771 1145.36 811.271 1142.44 811.021 1133.16C810.911 1128.06 807.441 1125.1 801.761 1125.23C789.651 1125.5 794.651 1137.88 785.481 1138.08C782.171 1138.15 779.281 1136.23 779.201 1132.45C779.001 1123.17 789.451 1114.71 801.001 1114.46ZM801.731 1168.96C803.265 1168.93 804.775 1169.35 806.069 1170.17C807.363 1171 808.384 1172.19 809.002 1173.59C809.62 1175 809.807 1176.55 809.541 1178.06C809.274 1179.58 808.566 1180.97 807.505 1182.08C806.444 1183.19 805.078 1183.96 803.579 1184.29C802.081 1184.63 800.518 1184.51 799.088 1183.95C797.657 1183.39 796.424 1182.43 795.543 1181.17C794.663 1179.91 794.175 1178.42 794.141 1176.89C794.116 1174.84 794.897 1172.87 796.315 1171.39C797.733 1169.92 799.675 1169.06 801.721 1169L801.731 1168.96Z" fill="white"/>
<path opacity="0.8" d="M441 1028.46C453.11 1028.19 465.16 1033.46 465.46 1046.85C465.73 1059.15 451.73 1064.19 448.8 1068.7C446.6 1072.06 447.46 1076.7 441.22 1076.83C437.15 1076.92 435.09 1073.65 435.02 1070.62C434.77 1059.36 451.27 1056.44 451.07 1047.16C450.96 1042.06 447.49 1039.1 441.81 1039.23C429.7 1039.5 434.7 1051.88 425.53 1052.08C422.22 1052.15 419.33 1050.23 419.25 1046.45C419 1037.17 429.45 1028.71 441 1028.46ZM441.731 1082.96C443.265 1082.93 444.774 1083.35 446.069 1084.17C447.363 1085 448.383 1086.19 449.001 1087.59C449.62 1089 449.807 1090.55 449.541 1092.06C449.274 1093.58 448.566 1094.97 447.505 1096.08C446.443 1097.19 445.077 1097.96 443.579 1098.29C442.081 1098.63 440.518 1098.51 439.088 1097.95C437.657 1097.39 436.424 1096.43 435.543 1095.17C434.663 1093.91 434.174 1092.42 434.141 1090.89C434.116 1088.84 434.897 1086.87 436.315 1085.39C437.733 1083.92 439.675 1083.06 441.72 1083L441.731 1082.96Z" fill="white"/>
<path opacity="0.8" d="M940.001 801.459C952.111 801.189 964.161 806.459 964.461 819.849C964.731 832.149 950.731 837.189 947.801 841.699C945.601 845.059 946.461 849.699 940.221 849.829C936.151 849.919 934.091 846.649 934.021 843.619C933.771 832.359 950.271 829.439 950.021 820.159C949.911 815.059 946.441 812.099 940.761 812.229C928.651 812.499 933.651 824.879 924.481 825.079C921.171 825.149 918.281 823.229 918.201 819.449C918.001 810.169 928.451 801.709 940.001 801.459ZM940.731 855.959C942.265 855.926 943.775 856.348 945.069 857.173C946.363 857.998 947.384 859.187 948.002 860.592C948.62 861.997 948.807 863.553 948.541 865.065C948.274 866.576 947.566 867.974 946.505 869.083C945.444 870.192 944.078 870.961 942.579 871.293C941.081 871.625 939.518 871.506 938.088 870.95C936.657 870.394 935.424 869.427 934.543 868.17C933.663 866.913 933.175 865.423 933.141 863.889C933.116 861.842 933.897 859.868 935.315 858.392C936.733 856.916 938.675 856.057 940.721 855.999L940.731 855.959Z" fill="white"/>
<path opacity="0.8" d="M314 1249.46C326.11 1249.19 338.16 1254.46 338.46 1267.85C338.73 1280.15 324.73 1285.19 321.8 1289.7C319.6 1293.06 320.46 1297.7 314.22 1297.83C310.15 1297.92 308.09 1294.65 308.02 1291.62C307.77 1280.36 324.27 1277.44 324.07 1268.16C323.96 1263.06 320.49 1260.1 314.81 1260.23C302.7 1260.5 307.7 1272.88 298.53 1273.08C295.22 1273.15 292.33 1271.23 292.25 1267.45C292 1258.17 302.45 1249.71 314 1249.46ZM314.731 1303.96C316.265 1303.93 317.774 1304.35 319.069 1305.17C320.363 1306 321.383 1307.19 322.001 1308.59C322.62 1310 322.807 1311.55 322.541 1313.06C322.274 1314.58 321.566 1315.97 320.505 1317.08C319.443 1318.19 318.077 1318.96 316.579 1319.29C315.081 1319.63 313.518 1319.51 312.088 1318.95C310.657 1318.39 309.424 1317.43 308.543 1316.17C307.663 1314.91 307.174 1313.42 307.141 1311.89C307.116 1309.84 307.897 1307.87 309.315 1306.39C310.733 1304.92 312.675 1304.06 314.72 1304L314.731 1303.96Z" fill="white"/>
<path opacity="0.8" d="M624.001 1375.46C636.111 1375.19 648.161 1380.46 648.461 1393.85C648.731 1406.15 634.731 1411.19 631.801 1415.7C629.601 1419.06 630.461 1423.7 624.221 1423.83C620.151 1423.92 618.091 1420.65 618.021 1417.62C617.771 1406.36 634.271 1403.44 634.021 1394.16C633.911 1389.06 630.441 1386.1 624.761 1386.23C612.651 1386.5 617.651 1398.88 608.481 1399.08C605.171 1399.15 602.281 1397.23 602.201 1393.45C602.001 1384.17 612.451 1375.71 624.001 1375.46ZM624.731 1429.96C626.265 1429.93 627.775 1430.35 629.069 1431.17C630.363 1432 631.384 1433.19 632.002 1434.59C632.62 1436 632.807 1437.55 632.541 1439.06C632.274 1440.58 631.566 1441.97 630.505 1443.08C629.444 1444.19 628.078 1444.96 626.579 1445.29C625.081 1445.63 623.518 1445.51 622.088 1444.95C620.657 1444.39 619.424 1443.43 618.543 1442.17C617.663 1440.91 617.175 1439.42 617.141 1437.89C617.116 1435.84 617.897 1433.87 619.315 1432.39C620.733 1430.92 622.675 1430.06 624.721 1430L624.731 1429.96Z" fill="white"/>
<path opacity="0.8" d="M115 1578.46C127.11 1578.19 139.16 1583.46 139.46 1596.85C139.73 1609.15 125.73 1614.19 122.8 1618.7C120.6 1622.06 121.46 1626.7 115.22 1626.83C111.15 1626.92 109.09 1623.65 109.02 1620.62C108.77 1609.36 125.27 1606.44 125.07 1597.16C124.96 1592.06 121.49 1589.1 115.81 1589.23C103.7 1589.5 108.7 1601.88 99.5305 1602.08C96.2205 1602.15 93.3305 1600.23 93.2505 1596.45C93.0005 1587.17 103.45 1578.71 115 1578.46ZM115.73 1632.96C117.265 1632.93 118.774 1633.35 120.069 1634.17C121.363 1635 122.383 1636.19 123.002 1637.59C123.62 1639 123.807 1640.55 123.541 1642.06C123.274 1643.58 122.566 1644.97 121.505 1646.08C120.443 1647.19 119.077 1647.96 117.579 1648.29C116.081 1648.63 114.518 1648.51 113.088 1647.95C111.657 1647.39 110.424 1646.43 109.543 1645.17C108.663 1643.91 108.174 1642.42 108.14 1640.89C108.116 1638.84 108.897 1636.87 110.315 1635.39C111.733 1633.92 113.675 1633.06 115.72 1633L115.73 1632.96Z" fill="white"/>
<path opacity="0.8" d="M809.001 1682.46C821.111 1682.19 833.161 1687.46 833.461 1700.85C833.731 1713.15 819.731 1718.19 816.801 1722.7C814.601 1726.06 815.461 1730.7 809.221 1730.83C805.151 1730.92 803.091 1727.65 803.021 1724.62C802.771 1713.36 819.271 1710.44 819.021 1701.16C818.911 1696.06 815.441 1693.1 809.761 1693.23C797.651 1693.5 802.651 1705.88 793.481 1706.08C790.171 1706.15 787.281 1704.23 787.201 1700.45C787.001 1691.17 797.451 1682.71 809.001 1682.46ZM809.731 1736.96C811.265 1736.93 812.775 1737.35 814.069 1738.17C815.363 1739 816.384 1740.19 817.002 1741.59C817.62 1743 817.807 1744.55 817.541 1746.06C817.274 1747.58 816.566 1748.97 815.505 1750.08C814.444 1751.19 813.078 1751.96 811.579 1752.29C810.081 1752.63 808.518 1752.51 807.088 1751.95C805.657 1751.39 804.424 1750.43 803.543 1749.17C802.663 1747.91 802.175 1746.42 802.141 1744.89C802.116 1742.84 802.897 1740.87 804.315 1739.39C805.733 1737.92 807.675 1737.06 809.721 1737L809.731 1736.96Z" fill="white"/>
<path opacity="0.8" d="M449 1596.46C461.11 1596.19 473.161 1601.46 473.461 1614.85C473.731 1627.15 459.73 1632.19 456.8 1636.7C454.6 1640.06 455.46 1644.7 449.22 1644.83C445.15 1644.92 443.09 1641.65 443.02 1638.62C442.77 1627.36 459.27 1624.44 459.07 1615.16C458.96 1610.06 455.49 1607.1 449.81 1607.23C437.7 1607.5 442.7 1619.88 433.53 1620.08C430.22 1620.15 427.33 1618.23 427.25 1614.45C427 1605.17 437.45 1596.71 449 1596.46ZM449.731 1650.96C451.265 1650.93 452.774 1651.35 454.069 1652.17C455.363 1653 456.383 1654.19 457.001 1655.59C457.62 1657 457.807 1658.55 457.541 1660.06C457.274 1661.58 456.566 1662.97 455.505 1664.08C454.443 1665.19 453.077 1665.96 451.579 1666.29C450.081 1666.63 448.518 1666.51 447.088 1665.95C445.657 1665.39 444.424 1664.43 443.543 1663.17C442.663 1661.91 442.174 1660.42 442.141 1658.89C442.116 1656.84 442.897 1654.87 444.315 1653.39C445.733 1651.92 447.675 1651.06 449.72 1651L449.731 1650.96Z" fill="white"/>
<path opacity="0.8" d="M948.001 1369.46C960.111 1369.19 972.161 1374.46 972.461 1387.85C972.731 1400.15 958.731 1405.19 955.801 1409.7C953.601 1413.06 954.461 1417.7 948.221 1417.83C944.151 1417.92 942.091 1414.65 942.021 1411.62C941.771 1400.36 958.271 1397.44 958.021 1388.16C957.911 1383.06 954.441 1380.1 948.761 1380.23C936.651 1380.5 941.651 1392.88 932.481 1393.08C929.171 1393.15 926.281 1391.23 926.201 1387.45C926.001 1378.17 936.451 1369.71 948.001 1369.46ZM948.731 1423.96C950.265 1423.93 951.775 1424.35 953.069 1425.17C954.363 1426 955.384 1427.19 956.002 1428.59C956.62 1430 956.807 1431.55 956.541 1433.06C956.274 1434.58 955.566 1435.97 954.505 1437.08C953.444 1438.19 952.078 1438.96 950.579 1439.29C949.081 1439.63 947.518 1439.51 946.088 1438.95C944.657 1438.39 943.424 1437.43 942.543 1436.17C941.663 1434.91 941.175 1433.42 941.141 1431.89C941.116 1429.84 941.897 1427.87 943.315 1426.39C944.733 1424.92 946.675 1424.06 948.721 1424L948.731 1423.96Z" fill="white"/>
<path opacity="0.8" d="M322 1817.46C334.11 1817.19 346.16 1822.46 346.46 1835.85C346.73 1848.15 332.73 1853.19 329.8 1857.7C327.6 1861.06 328.46 1865.7 322.22 1865.83C318.15 1865.92 316.09 1862.65 316.02 1859.62C315.77 1848.36 332.27 1845.44 332.07 1836.16C331.96 1831.06 328.49 1828.1 322.81 1828.23C310.7 1828.5 315.7 1840.88 306.53 1841.08C303.22 1841.15 300.33 1839.23 300.25 1835.45C300 1826.17 310.45 1817.71 322 1817.46ZM322.731 1871.96C324.265 1871.93 325.774 1872.35 327.069 1873.17C328.363 1874 329.383 1875.19 330.001 1876.59C330.62 1878 330.807 1879.55 330.541 1881.06C330.274 1882.58 329.566 1883.97 328.505 1885.08C327.443 1886.19 326.077 1886.96 324.579 1887.29C323.081 1887.63 321.518 1887.51 320.088 1886.95C318.657 1886.39 317.424 1885.43 316.543 1884.17C315.663 1882.91 315.174 1881.42 315.141 1879.89C315.116 1877.84 315.897 1875.87 317.315 1874.39C318.733 1872.92 320.675 1872.06 322.72 1872L322.731 1871.96Z" fill="white"/>
<path opacity="0.8" d="M632.001 1943.46C644.111 1943.19 656.161 1948.46 656.461 1961.85C656.731 1974.15 642.731 1979.19 639.801 1983.7C637.601 1987.06 638.461 1991.7 632.221 1991.83C628.151 1991.92 626.091 1988.65 626.021 1985.62C625.771 1974.36 642.271 1971.44 642.021 1962.16C641.911 1957.06 638.441 1954.1 632.761 1954.23C620.651 1954.5 625.651 1966.88 616.481 1967.08C613.171 1967.15 610.281 1965.23 610.201 1961.45C610.001 1952.17 620.451 1943.71 632.001 1943.46ZM632.731 1997.96C634.265 1997.93 635.775 1998.35 637.069 1999.17C638.363 2000 639.384 2001.19 640.002 2002.59C640.62 2004 640.807 2005.55 640.541 2007.06C640.274 2008.58 639.566 2009.97 638.505 2011.08C637.444 2012.19 636.078 2012.96 634.579 2013.29C633.081 2013.63 631.518 2013.51 630.088 2012.95C628.657 2012.39 627.424 2011.43 626.543 2010.17C625.663 2008.91 625.175 2007.42 625.141 2005.89C625.116 2003.84 625.897 2001.87 627.315 2000.39C628.733 1998.92 630.675 1998.06 632.721 1998L632.731 1997.96Z" fill="white"/>
<path opacity="0.8" d="M123 2146.46C135.11 2146.19 147.16 2151.46 147.46 2164.85C147.73 2177.15 133.73 2182.19 130.8 2186.7C128.6 2190.06 129.46 2194.7 123.22 2194.83C119.15 2194.92 117.09 2191.65 117.02 2188.62C116.77 2177.36 133.27 2174.44 133.07 2165.16C132.96 2160.06 129.49 2157.1 123.81 2157.23C111.7 2157.5 116.7 2169.88 107.53 2170.08C104.22 2170.15 101.33 2168.23 101.25 2164.45C101 2155.17 111.45 2146.71 123 2146.46ZM123.73 2200.96C125.265 2200.93 126.774 2201.35 128.069 2202.17C129.363 2203 130.383 2204.19 131.002 2205.59C131.62 2207 131.807 2208.55 131.541 2210.06C131.274 2211.58 130.566 2212.97 129.505 2214.08C128.443 2215.19 127.077 2215.96 125.579 2216.29C124.081 2216.63 122.518 2216.51 121.088 2215.95C119.657 2215.39 118.424 2214.43 117.543 2213.17C116.663 2211.91 116.174 2210.42 116.14 2208.89C116.116 2206.84 116.897 2204.87 118.315 2203.39C119.733 2201.92 121.675 2201.06 123.72 2201L123.73 2200.96Z" fill="white"/>
<path opacity="0.8" d="M817.001 2250.46C829.111 2250.19 841.161 2255.46 841.461 2268.85C841.731 2281.15 827.731 2286.19 824.801 2290.7C822.601 2294.06 823.461 2298.7 817.221 2298.83C813.151 2298.92 811.091 2295.65 811.021 2292.62C810.771 2281.36 827.271 2278.44 827.021 2269.16C826.911 2264.06 823.441 2261.1 817.761 2261.23C805.651 2261.5 810.651 2273.88 801.481 2274.08C798.171 2274.15 795.281 2272.23 795.201 2268.45C795.001 2259.17 805.451 2250.71 817.001 2250.46ZM817.731 2304.96C819.265 2304.93 820.775 2305.35 822.069 2306.17C823.363 2307 824.384 2308.19 825.002 2309.59C825.62 2311 825.807 2312.55 825.541 2314.06C825.274 2315.58 824.566 2316.97 823.505 2318.08C822.444 2319.19 821.078 2319.96 819.579 2320.29C818.081 2320.63 816.518 2320.51 815.088 2319.95C813.657 2319.39 812.424 2318.43 811.543 2317.17C810.663 2315.91 810.175 2314.42 810.141 2312.89C810.116 2310.84 810.897 2308.87 812.315 2307.39C813.733 2305.92 815.675 2305.06 817.721 2305L817.731 2304.96Z" fill="white"/>
<path opacity="0.8" d="M457.001 2164.46C469.111 2164.19 481.161 2169.46 481.461 2182.85C481.731 2195.15 467.731 2200.19 464.801 2204.7C462.601 2208.06 463.461 2212.7 457.221 2212.83C453.151 2212.92 451.091 2209.65 451.021 2206.62C450.771 2195.36 467.271 2192.44 467.021 2183.16C466.911 2178.06 463.441 2175.1 457.761 2175.23C445.651 2175.5 450.651 2187.88 441.481 2188.08C438.171 2188.15 435.281 2186.23 435.201 2182.45C435.001 2173.17 445.451 2164.71 457.001 2164.46ZM457.731 2218.96C459.265 2218.93 460.774 2219.35 462.069 2220.17C463.363 2221 464.384 2222.19 465.002 2223.59C465.62 2225 465.807 2226.55 465.541 2228.06C465.274 2229.58 464.566 2230.97 463.505 2232.08C462.444 2233.19 461.078 2233.96 459.579 2234.29C458.081 2234.63 456.518 2234.51 455.088 2233.95C453.657 2233.39 452.424 2232.43 451.543 2231.17C450.663 2229.91 450.175 2228.42 450.141 2226.89C450.116 2224.84 450.897 2222.87 452.315 2221.39C453.733 2219.92 455.675 2219.06 457.721 2219L457.731 2218.96Z" fill="white"/>
<path opacity="0.8" d="M956.001 1817.46C968.111 1817.19 980.161 1822.46 980.461 1835.85C980.731 1848.15 966.731 1853.19 963.801 1857.7C961.601 1861.06 962.461 1865.7 956.221 1865.83C952.151 1865.92 950.091 1862.65 950.021 1859.62C949.771 1848.36 966.271 1845.44 966.021 1836.16C965.911 1831.06 962.441 1828.1 956.761 1828.23C944.651 1828.5 949.651 1840.88 940.481 1841.08C937.171 1841.15 934.281 1839.23 934.201 1835.45C934.001 1826.17 944.451 1817.71 956.001 1817.46ZM956.731 1871.96C958.265 1871.93 959.775 1872.35 961.069 1873.17C962.363 1874 963.384 1875.19 964.002 1876.59C964.62 1878 964.807 1879.55 964.541 1881.06C964.274 1882.58 963.566 1883.97 962.505 1885.08C961.444 1886.19 960.078 1886.96 958.579 1887.29C957.081 1887.63 955.518 1887.51 954.088 1886.95C952.657 1886.39 951.424 1885.43 950.543 1884.17C949.663 1882.91 949.175 1881.42 949.141 1879.89C949.116 1877.84 949.897 1875.87 951.315 1874.39C952.733 1872.92 954.675 1872.06 956.721 1872L956.731 1871.96Z" fill="white"/>
</g>
</svg>
