<svg width="1086" height="2396" viewBox="0 0 1086 2396" fill="none" xmlns="http://www.w3.org/2000/svg">
<g opacity="0.8">
<path opacity="0.8" d="M784.45 60.9017C783.25 45.3917 776.03 35.6717 769.66 27.0917C763.76 19.1517 758.66 12.2917 758.66 2.18172C758.659 1.78411 758.549 1.3944 758.343 1.05439C758.137 0.714381 757.842 0.436901 757.49 0.251716C757.136 0.068786 756.738 -0.0121882 756.341 0.0178303C755.944 0.0478488 755.563 0.187679 755.24 0.421716C745.68 7.26172 737.69 18.8017 734.9 29.8117C732.97 37.4817 732.71 46.0917 732.68 51.8117C723.84 49.9317 721.84 36.7117 721.82 36.5717C721.771 36.2336 721.643 35.9117 721.447 35.632C721.251 35.3524 720.991 35.1227 720.69 34.9617C720.382 34.7997 720.039 34.715 719.69 34.715C719.342 34.715 718.999 34.7997 718.69 34.9617C718.22 35.1917 707.31 40.7317 706.69 62.8617C706.69 63.6017 706.64 64.3417 706.64 65.0817C706.64 75.4252 710.749 85.345 718.063 92.6589C725.377 99.9728 735.297 104.082 745.64 104.082C745.67 104.087 745.7 104.087 745.73 104.082V104.082C756.054 104.053 765.946 99.9308 773.236 92.6201C780.526 85.3093 784.62 75.4061 784.62 65.0817C784.67 63.9217 784.45 60.9017 784.45 60.9017ZM745.67 99.6717C738.5 99.6717 732.67 93.4617 732.67 85.8217C732.67 85.5617 732.67 85.3017 732.67 84.9817C732.661 82.6197 733.127 80.28 734.04 78.1017C735.53 81.2917 738.41 84.1917 743.36 83.0117C743.36 79.5617 743.26 75.1517 744.19 71.2617C745.017 68.2125 746.521 65.389 748.59 63.0017C749.615 65.961 751.126 68.7289 753.06 71.1917C755.57 74.7617 758.16 78.4417 758.62 84.7217C758.62 85.0917 758.62 85.4717 758.62 85.8717C758.67 93.4617 752.84 99.6717 745.67 99.6717Z" fill="white"/>
<path opacity="0.8" d="M706.78 277.703C705.59 262.193 698.37 252.473 692 243.893C686.1 236.003 681 229.103 681 219.003C680.999 218.605 680.888 218.215 680.68 217.876C680.472 217.536 680.175 217.261 679.821 217.079C679.467 216.897 679.069 216.817 678.672 216.846C678.275 216.874 677.894 217.012 677.57 217.243C668.01 224.093 660.02 235.633 657.24 246.643C655.3 254.303 655.04 262.923 655.01 268.643C646.17 266.753 644.17 253.533 644.15 253.393C644.1 253.055 643.971 252.734 643.775 252.455C643.579 252.175 643.32 251.945 643.02 251.783C642.712 251.621 642.368 251.536 642.02 251.536C641.672 251.536 641.328 251.621 641.02 251.783C640.56 252.003 629.65 257.543 629.02 279.683C629.02 280.413 629.02 281.153 629.02 281.893C629.02 292.237 633.129 302.156 640.443 309.47C647.757 316.784 657.677 320.893 668.02 320.893H668.14C678.463 320.861 688.352 316.738 695.64 309.428C702.928 302.117 707.02 292.216 707.02 281.893C707 280.733 706.78 277.703 706.78 277.703ZM668 316.473C660.83 316.473 655 310.263 655 302.623C655 302.363 655 302.103 655 301.783C654.991 299.421 655.457 297.081 656.37 294.903C657.86 298.103 660.74 300.993 665.69 299.813C665.69 296.363 665.59 291.963 666.52 288.063C667.334 284.996 668.835 282.154 670.91 279.753C671.925 282.718 673.433 285.49 675.37 287.953C677.88 291.513 680.47 295.193 680.93 301.483C680.93 301.853 680.93 302.223 680.93 302.623C681 310.263 675.17 316.473 668 316.473Z" fill="white"/>
<path opacity="0.8" d="M77.78 368.901C76.59 353.391 69.37 343.671 63 335.091C57.1 327.151 52 320.291 52 310.181C52.0024 309.781 51.8939 309.389 51.6867 309.047C51.4795 308.706 51.1816 308.428 50.8261 308.246C50.4707 308.064 50.0717 307.983 49.6734 308.014C49.2751 308.045 48.8931 308.186 48.57 308.421C39 315.261 31 326.801 28.24 337.811C26.3 345.481 26.04 354.091 26.01 359.811C17.17 357.931 15.17 344.711 15.15 344.571C15.1034 344.225 14.9746 343.896 14.7745 343.611C14.5744 343.325 14.3088 343.092 14 342.931C13.6916 342.769 13.3484 342.684 13 342.684C12.6516 342.684 12.3084 342.769 12 342.931C11.54 343.161 0.63 348.701 0 370.831C0 371.571 0 372.311 0 373.051C0 383.394 4.10892 393.314 11.4228 400.628C18.7368 407.942 28.6566 412.051 39 412.051H39.12C49.4513 412.019 59.3479 407.889 66.6373 400.568C73.9267 393.246 78.0133 383.332 78 373.001C78 371.921 77.78 368.901 77.78 368.901ZM39 407.671C31.83 407.671 26 401.461 26 393.821C26 393.561 26 393.301 26 392.981C25.9909 390.619 26.4568 388.279 27.37 386.101C28.86 389.291 31.74 392.191 36.69 391.011C36.69 387.561 36.59 383.151 37.52 379.261C38.347 376.209 39.8548 373.385 41.93 371.001C42.9474 373.961 44.455 376.73 46.39 379.191C48.9 382.761 51.49 386.441 51.95 392.721C51.95 393.091 51.95 393.471 51.95 393.871C52 401.461 46.17 407.671 39 407.671Z" fill="white"/>
<path opacity="0.8" d="M570.78 818.901C569.59 803.391 562.37 793.671 556 785.091C550.1 777.151 545 770.291 545 760.181C545.002 759.781 544.894 759.389 544.687 759.047C544.479 758.706 544.182 758.428 543.826 758.246C543.471 758.064 543.072 757.983 542.673 758.014C542.275 758.045 541.893 758.186 541.57 758.421C532 765.261 524 776.801 521.24 787.811C519.3 795.481 519.04 804.091 519.01 809.811C510.17 807.931 508.17 794.711 508.15 794.571C508.101 794.233 507.973 793.911 507.777 793.631C507.581 793.351 507.321 793.122 507.02 792.961C506.712 792.799 506.368 792.714 506.02 792.714C505.672 792.714 505.328 792.799 505.02 792.961C504.56 793.191 493.65 798.731 493.02 820.861C493.02 821.601 493.02 822.341 493.02 823.081C493.02 833.424 497.129 843.344 504.443 850.658C511.757 857.972 521.677 862.081 532.02 862.081H532.14C542.473 862.044 552.369 857.907 559.655 850.58C566.941 843.253 571.021 833.334 571 823.001C571 821.921 570.78 818.901 570.78 818.901ZM532 857.671C524.83 857.671 519 851.461 519 843.821C519 843.561 519 843.301 519 842.981C518.991 840.619 519.457 838.279 520.37 836.101C521.86 839.291 524.74 842.191 529.69 841.011C529.69 837.561 529.59 833.151 530.52 829.261C531.334 826.194 532.835 823.352 534.91 820.951C535.927 823.911 537.435 826.68 539.37 829.141C541.88 832.711 544.47 836.391 544.93 842.671C544.93 843.041 544.93 843.421 544.93 843.821C545 851.461 539.17 857.671 532 857.671Z" fill="white"/>
<path opacity="0.8" d="M1059.78 659.901C1058.59 644.391 1051.37 634.671 1045 626.091C1039.1 618.151 1034 611.291 1034 601.181C1034 600.781 1033.89 600.389 1033.69 600.047C1033.48 599.706 1033.18 599.428 1032.83 599.246C1032.47 599.064 1032.07 598.983 1031.67 599.014C1031.28 599.045 1030.89 599.186 1030.57 599.421C1021.01 606.261 1013.02 617.801 1010.24 628.811C1008.3 636.481 1008.04 645.091 1008.01 650.811C999.17 648.931 997.17 635.711 997.15 635.571C997.101 635.233 996.973 634.911 996.777 634.631C996.581 634.351 996.321 634.122 996.02 633.961C995.712 633.799 995.368 633.714 995.02 633.714C994.672 633.714 994.328 633.799 994.02 633.961C993.56 634.191 982.65 639.731 982.02 661.861C982.02 662.601 982.02 663.341 982.02 664.081C982.02 674.424 986.129 684.344 993.443 691.658C1000.76 698.972 1010.68 703.081 1021.02 703.081H1021.14C1031.47 703.044 1041.37 698.907 1048.66 691.58C1055.94 684.253 1060.02 674.334 1060 664.001C1060 662.921 1059.78 659.901 1059.78 659.901ZM1021 698.671C1013.83 698.671 1008 692.461 1008 684.821C1008 684.561 1008 684.301 1008 683.981C1007.99 681.619 1008.46 679.279 1009.37 677.101C1010.86 680.291 1013.74 683.191 1018.69 682.011C1018.69 678.561 1018.59 674.151 1019.52 670.261C1020.33 667.194 1021.84 664.352 1023.91 661.951C1024.93 664.911 1026.44 667.68 1028.37 670.141C1030.88 673.711 1033.47 677.391 1033.93 683.671C1033.93 684.041 1033.93 684.421 1033.93 684.821C1034 692.461 1028.17 698.671 1021 698.671Z" fill="white"/>
<path opacity="0.8" d="M1072.78 172.901C1071.59 157.391 1064.37 147.671 1058 139.091C1052.1 131.151 1047 124.291 1047 114.181C1047 113.781 1046.89 113.389 1046.69 113.047C1046.48 112.706 1046.18 112.428 1045.83 112.246C1045.47 112.064 1045.07 111.983 1044.67 112.014C1044.28 112.045 1043.89 112.186 1043.57 112.421C1034.01 119.261 1026.02 130.801 1023.24 141.811C1021.3 149.481 1021.04 158.091 1021.01 163.811C1012.17 161.931 1010.17 148.711 1010.15 148.571C1010.1 148.233 1009.97 147.911 1009.78 147.631C1009.58 147.351 1009.32 147.122 1009.02 146.961C1008.71 146.799 1008.37 146.714 1008.02 146.714C1007.67 146.714 1007.33 146.799 1007.02 146.961C1006.56 147.191 995.65 152.731 995.02 174.861C995.02 175.601 995.02 176.341 995.02 177.081C995.02 187.424 999.129 197.344 1006.44 204.658C1013.76 211.972 1023.68 216.081 1034.02 216.081H1034.14C1044.47 216.044 1054.37 211.907 1061.66 204.58C1068.94 197.253 1073.02 187.334 1073 177.001C1073 175.921 1072.78 172.901 1072.78 172.901ZM1034 211.671C1026.83 211.671 1021 205.461 1021 197.821C1021 197.561 1021 197.301 1021 196.981C1020.99 194.619 1021.46 192.279 1022.37 190.101C1023.86 193.291 1026.74 196.191 1031.69 195.011C1031.69 191.561 1031.59 187.151 1032.52 183.261C1033.33 180.194 1034.84 177.352 1036.91 174.951C1037.93 177.911 1039.44 180.68 1041.37 183.141C1043.88 186.711 1046.47 190.391 1046.93 196.671C1046.93 197.041 1046.93 197.421 1046.93 197.821C1047 205.461 1041.17 211.671 1034 211.671Z" fill="white"/>
<path opacity="0.8" d="M125.78 749.901C124.59 734.391 117.37 724.671 111 716.091C105.1 708.151 100 701.291 100 691.181C100.002 690.781 99.8939 690.389 99.6867 690.047C99.4794 689.706 99.1816 689.428 98.8261 689.246C98.4707 689.064 98.0717 688.983 97.6734 689.014C97.2751 689.045 96.8931 689.186 96.57 689.421C87 696.261 79 707.801 76.24 718.811C74.3 726.481 74.04 735.091 74.01 740.811C65.17 738.931 63.17 725.711 63.15 725.571C63.1034 725.225 62.9746 724.896 62.7745 724.611C62.5744 724.325 62.3088 724.092 62 723.931C61.6916 723.769 61.3484 723.684 61 723.684C60.6516 723.684 60.3084 723.769 60 723.931C59.54 724.161 48.63 729.701 48 751.831C48 752.571 48 753.311 48 754.051C48 764.394 52.1089 774.314 59.4228 781.628C66.7368 788.942 76.6566 793.051 87 793.051H87.12C97.4513 793.019 107.348 788.889 114.637 781.568C121.927 774.246 126.013 764.332 126 754.001C126 752.921 125.78 749.901 125.78 749.901ZM87 788.671C79.83 788.671 74 782.461 74 774.821C74 774.561 74 774.301 74 773.981C73.9909 771.619 74.4568 769.279 75.37 767.101C76.86 770.291 79.74 773.191 84.69 772.011C84.69 768.561 84.59 764.151 85.52 760.261C86.3341 757.194 87.8353 754.352 89.91 751.951C90.9274 754.911 92.435 757.68 94.37 760.141C96.88 763.711 99.47 767.391 99.93 773.671C99.93 774.041 99.98 774.421 99.98 774.821C100 782.461 94.17 788.671 87 788.671Z" fill="white"/>
<path opacity="0.8" d="M254.16 509.872C252.96 494.362 245.74 484.652 239.37 476.072C233.47 468.132 228.37 461.272 228.37 451.162C228.369 450.763 228.258 450.372 228.05 450.032C227.842 449.692 227.544 449.415 227.19 449.232C226.836 449.049 226.438 448.968 226.041 448.998C225.643 449.028 225.262 449.168 224.94 449.402C215.37 456.242 207.39 467.782 204.6 478.792C202.67 486.452 202.41 495.072 202.38 500.792C193.54 498.912 191.54 485.692 191.52 485.552C191.472 485.214 191.345 484.892 191.149 484.613C190.954 484.333 190.695 484.104 190.394 483.943C190.093 483.782 189.758 483.695 189.417 483.688C189.075 483.681 188.737 483.754 188.43 483.902C187.96 484.132 177.05 489.672 176.43 511.802C176.38 512.542 176.38 513.272 176.38 514.012C176.393 524.352 180.506 534.264 187.817 541.575C195.128 548.886 205.041 552.999 215.38 553.012H215.49C225.814 552.983 235.706 548.861 242.996 541.551C250.286 534.24 254.38 524.337 254.38 514.012C254.38 512.902 254.16 509.872 254.16 509.872ZM215.38 548.642C208.21 548.642 202.38 542.432 202.38 534.802C202.38 534.542 202.38 534.282 202.38 533.952C202.367 531.59 202.833 529.249 203.75 527.072C205.24 530.272 208.11 533.162 213.07 531.992C213.07 528.542 212.97 524.132 213.9 520.232C214.715 517.171 216.212 514.333 218.28 511.932C219.301 514.893 220.812 517.661 222.75 520.122C225.26 523.682 227.85 527.372 228.3 533.652C228.3 534.022 228.36 534.402 228.36 534.802C228.38 542.432 222.55 548.642 215.38 548.642V548.642Z" fill="white"/>
<path opacity="0.8" d="M227.45 1006.9C226.25 991.392 219.03 981.672 212.66 973.092C206.76 965.152 201.66 958.292 201.66 948.182C201.657 947.783 201.546 947.393 201.338 947.053C201.13 946.712 200.834 946.436 200.48 946.252C200.126 946.069 199.728 945.988 199.331 946.018C198.933 946.048 198.552 946.188 198.23 946.422C188.67 953.262 180.68 964.802 177.89 975.812C175.96 983.482 175.7 992.092 175.67 997.812C166.83 995.932 164.83 982.712 164.81 982.572C164.761 982.234 164.633 981.912 164.437 981.632C164.24 981.352 163.981 981.123 163.68 980.962C163.371 980.8 163.028 980.715 162.68 980.715C162.331 980.715 161.988 980.8 161.68 980.962C161.21 981.192 150.3 986.732 149.68 1008.86C149.68 1009.6 149.63 1010.34 149.63 1011.08C149.63 1021.43 153.739 1031.34 161.053 1038.66C168.367 1045.97 178.286 1050.08 188.63 1050.08H188.74C199.064 1050.05 208.956 1045.93 216.246 1038.62C223.536 1031.31 227.63 1021.41 227.63 1011.08C227.67 1009.92 227.45 1006.9 227.45 1006.9ZM188.67 1045.67C181.5 1045.67 175.67 1039.46 175.67 1031.82C175.67 1031.56 175.67 1031.3 175.67 1030.98C175.661 1028.62 176.127 1026.28 177.04 1024.1C178.53 1027.29 181.41 1030.19 186.36 1029.01C186.36 1025.56 186.26 1021.15 187.19 1017.26C188.004 1014.2 189.501 1011.36 191.57 1008.95C192.595 1011.91 194.105 1014.68 196.04 1017.14C198.55 1020.71 201.14 1024.39 201.6 1030.67C201.6 1031.04 201.6 1031.42 201.6 1031.82C201.67 1039.46 195.84 1045.67 188.67 1045.67Z" fill="white"/>
<path opacity="0.8" d="M745.78 1180.9C744.59 1165.39 737.37 1155.67 731 1147.09C725.1 1139.15 720 1132.29 720 1122.18C720.002 1121.78 719.894 1121.39 719.687 1121.05C719.479 1120.71 719.182 1120.43 718.826 1120.25C718.471 1120.06 718.072 1119.98 717.673 1120.01C717.275 1120.05 716.893 1120.19 716.57 1120.42C707.01 1127.26 699.02 1138.8 696.24 1149.81C694.3 1157.48 694.04 1166.09 694.01 1171.81C685.17 1169.93 683.17 1156.71 683.15 1156.57C683.101 1156.23 682.973 1155.91 682.777 1155.63C682.581 1155.35 682.321 1155.12 682.02 1154.96C681.712 1154.8 681.368 1154.71 681.02 1154.71C680.672 1154.71 680.328 1154.8 680.02 1154.96C679.56 1155.19 668.65 1160.73 668.02 1182.86C668.02 1183.6 668.02 1184.34 668.02 1185.08C668.02 1195.42 672.129 1205.34 679.443 1212.66C686.757 1219.97 696.677 1224.08 707.02 1224.08H707.14C717.473 1224.04 727.369 1219.91 734.655 1212.58C741.941 1205.25 746.021 1195.33 746 1185C746 1183.92 745.78 1180.9 745.78 1180.9ZM707 1219.67C699.83 1219.67 694 1213.46 694 1205.82C694 1205.56 694 1205.3 694 1204.98C693.991 1202.62 694.457 1200.28 695.37 1198.1C696.86 1201.29 699.74 1204.19 704.69 1203.01C704.69 1199.56 704.59 1195.15 705.52 1191.26C706.334 1188.19 707.835 1185.35 709.91 1182.95C710.927 1185.91 712.435 1188.68 714.37 1191.14C716.88 1194.71 719.47 1198.39 719.93 1204.67C719.93 1205.04 719.93 1205.42 719.93 1205.82C720 1213.46 714.17 1219.67 707 1219.67Z" fill="white"/>
<path opacity="0.8" d="M666.78 1548.9C665.59 1533.39 658.37 1523.67 652 1515.09C646.1 1507.15 641 1500.29 641 1490.18C641.002 1489.78 640.894 1489.39 640.687 1489.05C640.479 1488.71 640.182 1488.43 639.826 1488.25C639.471 1488.06 639.072 1487.98 638.673 1488.01C638.275 1488.05 637.893 1488.19 637.57 1488.42C628.01 1495.26 620.02 1506.8 617.24 1517.81C615.3 1525.48 615.04 1534.09 615.01 1539.81C606.17 1537.93 604.17 1524.71 604.15 1524.57C604.101 1524.23 603.973 1523.91 603.777 1523.63C603.581 1523.35 603.321 1523.12 603.02 1522.96C602.712 1522.8 602.368 1522.71 602.02 1522.71C601.672 1522.71 601.328 1522.8 601.02 1522.96C600.56 1523.19 589.65 1528.73 589.02 1550.86C589.02 1551.6 589.02 1552.34 589.02 1553.08C589.02 1563.42 593.129 1573.34 600.443 1580.66C607.757 1587.97 617.677 1592.08 628.02 1592.08H628.14C638.473 1592.04 648.369 1587.91 655.655 1580.58C662.941 1573.25 667.021 1563.33 667 1553C667 1551.92 666.78 1548.9 666.78 1548.9ZM628 1587.67C620.83 1587.67 615 1581.46 615 1573.82C615 1573.56 615 1573.3 615 1572.98C614.991 1570.62 615.457 1568.28 616.37 1566.1C617.86 1569.29 620.74 1572.19 625.69 1571.01C625.69 1567.56 625.59 1563.15 626.52 1559.26C627.334 1556.19 628.835 1553.35 630.91 1550.95C631.927 1553.91 633.435 1556.68 635.37 1559.14C637.88 1562.71 640.47 1566.39 640.93 1572.67C640.93 1573.04 640.93 1573.42 640.93 1573.82C641 1581.46 635.17 1587.67 628 1587.67Z" fill="white"/>
<path opacity="0.8" d="M1045.78 1505.9C1044.59 1490.39 1037.37 1480.67 1031 1472.09C1025.1 1464.15 1020 1457.29 1020 1447.18C1020 1446.78 1019.89 1446.39 1019.69 1446.05C1019.48 1445.71 1019.18 1445.43 1018.83 1445.25C1018.47 1445.06 1018.07 1444.98 1017.67 1445.01C1017.28 1445.05 1016.89 1445.19 1016.57 1445.42C1007.01 1452.26 999.02 1463.8 996.24 1474.81C994.3 1482.48 994.04 1491.09 994.01 1496.81C985.17 1494.93 983.17 1481.71 983.15 1481.57C983.101 1481.23 982.973 1480.91 982.777 1480.63C982.581 1480.35 982.321 1480.12 982.02 1479.96C981.712 1479.8 981.368 1479.71 981.02 1479.71C980.672 1479.71 980.328 1479.8 980.02 1479.96C979.56 1480.19 968.65 1485.73 968.02 1507.86C968.02 1508.6 968.02 1509.34 968.02 1510.08C968.02 1520.42 972.129 1530.34 979.443 1537.66C986.757 1544.97 996.677 1549.08 1007.02 1549.08H1007.14C1017.46 1549.05 1027.35 1544.93 1034.64 1537.62C1041.93 1530.31 1046.02 1520.4 1046.02 1510.08C1046 1508.92 1045.78 1505.9 1045.78 1505.9ZM1007 1544.67C999.83 1544.67 994 1538.46 994 1530.82C994 1530.56 994 1530.3 994 1529.98C993.991 1527.62 994.457 1525.28 995.37 1523.1C996.86 1526.29 999.74 1529.19 1004.69 1528.01C1004.69 1524.56 1004.59 1520.15 1005.52 1516.26C1006.33 1513.19 1007.84 1510.35 1009.91 1507.95C1010.93 1510.91 1012.44 1513.68 1014.37 1516.14C1016.88 1519.71 1019.47 1523.39 1019.93 1529.67C1019.93 1530.04 1019.93 1530.42 1019.93 1530.82C1020 1538.46 1014.17 1544.67 1007 1544.67Z" fill="white"/>
<path opacity="0.8" d="M1058.78 1018.9C1057.59 1003.39 1050.37 993.671 1044 985.091C1038.1 977.151 1033 970.291 1033 960.181C1033 959.781 1032.89 959.389 1032.69 959.047C1032.48 958.706 1032.18 958.428 1031.83 958.246C1031.47 958.064 1031.07 957.983 1030.67 958.014C1030.28 958.045 1029.89 958.186 1029.57 958.421C1020.01 965.261 1012.02 976.801 1009.24 987.811C1007.3 995.481 1007.04 1004.09 1007.01 1009.81C998.17 1007.93 996.17 994.711 996.15 994.571C996.101 994.233 995.973 993.911 995.777 993.631C995.581 993.351 995.321 993.122 995.02 992.961C994.712 992.799 994.368 992.714 994.02 992.714C993.672 992.714 993.328 992.799 993.02 992.961C992.56 993.191 981.65 998.731 981.02 1020.86C981.02 1021.6 981.02 1022.34 981.02 1023.08C981.02 1033.42 985.129 1043.34 992.443 1050.66C999.757 1057.97 1009.68 1062.08 1020.02 1062.08H1020.14C1030.46 1062.05 1040.35 1057.93 1047.64 1050.62C1054.93 1043.31 1059.02 1033.4 1059.02 1023.08C1059 1021.92 1058.78 1018.9 1058.78 1018.9ZM1020 1057.67C1012.83 1057.67 1007 1051.46 1007 1043.82C1007 1043.56 1007 1043.3 1007 1042.98C1006.99 1040.62 1007.46 1038.28 1008.37 1036.1C1009.86 1039.29 1012.74 1042.19 1017.69 1041.01C1017.69 1037.56 1017.59 1033.15 1018.52 1029.26C1019.33 1026.19 1020.84 1023.35 1022.91 1020.95C1023.93 1023.91 1025.44 1026.68 1027.37 1029.14C1029.88 1032.71 1032.47 1036.39 1032.93 1042.67C1032.93 1043.04 1032.93 1043.42 1032.93 1043.82C1033 1051.46 1027.17 1057.67 1020 1057.67Z" fill="white"/>
<path opacity="0.8" d="M111.78 1595.9C110.59 1580.39 103.37 1570.67 97 1562.09C91.1 1554.15 86 1547.29 86 1537.18C86.0024 1536.78 85.8939 1536.39 85.6867 1536.05C85.4795 1535.71 85.1816 1535.43 84.8262 1535.25C84.4707 1535.06 84.0717 1534.98 83.6734 1535.01C83.2751 1535.05 82.8932 1535.19 82.57 1535.42C73.01 1542.26 65.02 1553.8 62.24 1564.81C60.3 1572.48 60.04 1581.09 60.01 1586.81C51.17 1584.93 49.17 1571.71 49.15 1571.57C49.101 1571.23 48.9732 1570.91 48.7769 1570.63C48.5806 1570.35 48.3214 1570.12 48.02 1569.96C47.7116 1569.8 47.3684 1569.71 47.02 1569.71C46.6716 1569.71 46.3284 1569.8 46.02 1569.96C45.56 1570.19 34.65 1575.73 34.02 1597.86C34.02 1598.6 34.02 1599.34 34.02 1600.08C34.02 1610.42 38.1289 1620.34 45.4429 1627.66C52.7568 1634.97 62.6766 1639.08 73.02 1639.08H73.14C83.4731 1639.04 93.3691 1634.91 100.655 1627.58C107.941 1620.25 112.021 1610.33 112 1600C112 1598.92 111.78 1595.9 111.78 1595.9ZM73 1634.67C65.83 1634.67 60 1628.46 60 1620.82C60 1620.56 60 1620.3 60 1619.98C59.9909 1617.62 60.4568 1615.28 61.37 1613.1C62.86 1616.29 65.74 1619.19 70.69 1618.01C70.69 1614.56 70.59 1610.15 71.52 1606.26C72.3341 1603.19 73.8354 1600.35 75.91 1597.95C76.9274 1600.91 78.435 1603.68 80.37 1606.14C82.88 1609.71 85.47 1613.39 85.93 1619.67C85.93 1620.04 85.93 1620.42 85.93 1620.82C86 1628.46 80.17 1634.67 73 1634.67Z" fill="white"/>
<path opacity="0.8" d="M339.16 1343.9C337.96 1328.39 330.74 1318.67 324.37 1310.09C318.47 1302.15 313.37 1295.29 313.37 1285.18C313.368 1284.78 313.257 1284.39 313.049 1284.05C312.841 1283.71 312.544 1283.44 312.19 1283.25C311.836 1283.07 311.438 1282.99 311.041 1283.02C310.644 1283.05 310.263 1283.19 309.94 1283.42C300.37 1290.26 292.39 1301.8 289.6 1312.81C287.67 1320.48 287.41 1329.09 287.38 1334.81C278.54 1332.93 276.54 1319.71 276.52 1319.57C276.471 1319.23 276.343 1318.91 276.147 1318.63C275.951 1318.35 275.691 1318.12 275.39 1317.96C275.082 1317.8 274.739 1317.71 274.39 1317.71C274.042 1317.71 273.699 1317.8 273.39 1317.96C272.92 1318.19 262.01 1323.73 261.39 1345.86C261.34 1346.6 261.34 1347.34 261.34 1348.08C261.34 1358.43 265.449 1368.34 272.763 1375.66C280.077 1382.97 289.997 1387.08 300.34 1387.08H300.45C310.774 1387.05 320.666 1382.93 327.956 1375.62C335.246 1368.31 339.34 1358.41 339.34 1348.08C339.38 1346.92 339.16 1343.9 339.16 1343.9ZM300.38 1382.67C293.21 1382.67 287.38 1376.46 287.38 1368.82C287.38 1368.56 287.38 1368.3 287.38 1367.98C287.366 1365.62 287.832 1363.28 288.75 1361.1C290.24 1364.29 293.11 1367.19 298.07 1366.01C298.07 1362.56 297.97 1358.15 298.9 1354.26C299.714 1351.2 301.211 1348.36 303.28 1345.95C304.302 1348.91 305.813 1351.68 307.75 1354.14C310.26 1357.71 312.85 1361.39 313.3 1367.67C313.3 1368.04 313.36 1368.42 313.36 1368.82C313.38 1376.46 307.55 1382.67 300.38 1382.67Z" fill="white"/>
<path opacity="0.8" d="M433.45 1825.86C432.25 1810.35 425.03 1800.63 418.66 1792.06C412.76 1784.12 407.66 1777.26 407.66 1767.15C407.66 1766.75 407.549 1766.36 407.341 1766.02C407.133 1765.68 406.835 1765.4 406.48 1765.22C406.127 1765.03 405.73 1764.95 405.332 1764.98C404.934 1765.01 404.552 1765.15 404.23 1765.38C394.67 1772.23 386.68 1783.77 383.89 1794.78C381.96 1802.44 381.7 1811.06 381.67 1816.78C372.83 1814.89 370.83 1801.68 370.81 1801.53C370.759 1801.19 370.631 1800.87 370.435 1800.59C370.239 1800.31 369.98 1800.08 369.68 1799.92C369.371 1799.76 369.028 1799.67 368.68 1799.67C368.331 1799.67 367.988 1799.76 367.68 1799.92C367.21 1800.14 356.3 1805.69 355.68 1827.82C355.68 1828.55 355.63 1829.29 355.63 1830.03C355.63 1840.37 359.739 1850.29 367.053 1857.61C374.367 1864.92 384.286 1869.03 394.63 1869.03H394.74C405.064 1869 414.956 1864.88 422.246 1857.57C429.536 1850.26 433.63 1840.35 433.63 1830.03C433.67 1828.89 433.45 1825.86 433.45 1825.86ZM394.67 1864.63C387.5 1864.63 381.67 1858.42 381.67 1850.79C381.67 1850.53 381.67 1850.26 381.67 1849.94C381.661 1847.58 382.127 1845.24 383.04 1843.06C384.53 1846.26 387.41 1849.15 392.36 1847.97C392.36 1844.52 392.26 1840.12 393.19 1836.22C394.002 1833.16 395.5 1830.32 397.57 1827.92C398.595 1830.88 400.105 1833.65 402.04 1836.11C404.55 1839.67 407.14 1843.36 407.6 1849.64C407.6 1850.01 407.65 1850.38 407.65 1850.79C407.67 1858.42 401.84 1864.63 394.67 1864.63V1864.63Z" fill="white"/>
<path opacity="0.8" d="M718.78 1969.7C717.59 1954.19 710.37 1944.47 704 1935.89C698.1 1927.95 693 1921.1 693 1910.98C692.999 1910.59 692.888 1910.2 692.68 1909.86C692.472 1909.52 692.175 1909.24 691.821 1909.06C691.467 1908.88 691.069 1908.8 690.672 1908.83C690.275 1908.85 689.894 1908.99 689.57 1909.22C680.01 1916.07 672.02 1927.61 669.24 1938.62C667.3 1946.28 667.04 1954.9 667.01 1960.62C658.17 1958.73 656.17 1945.51 656.15 1945.37C656.1 1945.04 655.971 1944.71 655.775 1944.44C655.579 1944.16 655.32 1943.93 655.02 1943.76C654.712 1943.6 654.368 1943.52 654.02 1943.52C653.672 1943.52 653.328 1943.6 653.02 1943.76C652.56 1943.98 641.65 1949.52 641.02 1971.66C641.02 1972.39 641.02 1973.13 641.02 1973.87C641.02 1984.22 645.129 1994.14 652.443 2001.45C659.757 2008.76 669.677 2012.87 680.02 2012.87H680.14C690.463 2012.84 700.352 2008.72 707.64 2001.41C714.928 1994.1 719.02 1984.2 719.02 1973.87C719 1972.73 718.78 1969.7 718.78 1969.7ZM680 2008.47C672.83 2008.47 667 2002.26 667 1994.62C667 1994.36 667 1994.1 667 1993.78C666.991 1991.42 667.457 1989.08 668.37 1986.9C669.86 1990.1 672.74 1992.99 677.69 1991.81C677.69 1988.36 677.59 1983.96 678.52 1980.06C679.334 1977 680.835 1974.15 682.91 1971.75C683.925 1974.72 685.433 1977.49 687.37 1979.95C689.88 1983.51 692.47 1987.19 692.93 1993.48C692.93 1993.85 692.93 1994.22 692.93 1994.62C693 2002.26 687.17 2008.47 680 2008.47Z" fill="white"/>
<path opacity="0.8" d="M679.78 2286.9C678.59 2271.39 671.37 2261.67 665 2253.09C659.1 2245.15 654 2238.29 654 2228.18C654.002 2227.78 653.894 2227.39 653.687 2227.05C653.479 2226.71 653.182 2226.43 652.826 2226.25C652.471 2226.06 652.072 2225.98 651.673 2226.01C651.275 2226.05 650.893 2226.19 650.57 2226.42C641.01 2233.26 633.02 2244.8 630.24 2255.81C628.3 2263.48 628.04 2272.09 628.01 2277.81C619.17 2275.93 617.17 2262.71 617.15 2262.57C617.101 2262.23 616.973 2261.91 616.777 2261.63C616.581 2261.35 616.321 2261.12 616.02 2260.96C615.712 2260.8 615.368 2260.71 615.02 2260.71C614.672 2260.71 614.328 2260.8 614.02 2260.96C613.56 2261.19 602.65 2266.73 602.02 2288.86C602.02 2289.6 602.02 2290.34 602.02 2291.08C602.02 2301.42 606.129 2311.34 613.443 2318.66C620.757 2325.97 630.677 2330.08 641.02 2330.08C641.05 2330.09 641.08 2330.09 641.11 2330.08V2330.08C651.448 2330.05 661.352 2325.92 668.644 2318.59C675.937 2311.26 680.021 2301.34 680 2291C680 2289.92 679.78 2286.9 679.78 2286.9ZM641 2325.67C633.83 2325.67 628 2319.46 628 2311.82C628 2311.56 628 2311.3 628 2310.98C627.991 2308.62 628.457 2306.28 629.37 2304.1C630.86 2307.29 633.74 2310.19 638.69 2309.01C638.69 2305.56 638.59 2301.15 639.52 2297.26C640.334 2294.19 641.835 2291.35 643.91 2288.95C644.927 2291.91 646.435 2294.68 648.37 2297.14C650.88 2300.71 653.47 2304.39 653.93 2310.67C653.93 2311.04 653.93 2311.42 653.93 2311.82C654 2319.46 648.17 2325.67 641 2325.67Z" fill="white"/>
<path opacity="0.8" d="M1071.78 2351.9C1070.59 2336.39 1063.37 2326.67 1057 2318.09C1051.1 2310.15 1046 2303.29 1046 2293.18C1046 2292.78 1045.89 2292.39 1045.69 2292.05C1045.48 2291.71 1045.18 2291.43 1044.83 2291.25C1044.47 2291.06 1044.07 2290.98 1043.67 2291.01C1043.28 2291.05 1042.89 2291.19 1042.57 2291.42C1033.01 2298.26 1025.02 2309.8 1022.24 2320.81C1020.3 2328.48 1020.04 2337.09 1020.01 2342.81C1011.17 2340.93 1009.17 2327.71 1009.15 2327.57C1009.1 2327.23 1008.97 2326.91 1008.78 2326.63C1008.58 2326.35 1008.32 2326.12 1008.02 2325.96C1007.71 2325.8 1007.37 2325.71 1007.02 2325.71C1006.67 2325.71 1006.33 2325.8 1006.02 2325.96C1005.56 2326.19 994.65 2331.73 994.02 2353.86C994.02 2354.6 994.02 2355.34 994.02 2356.08C994.02 2366.42 998.129 2376.34 1005.44 2383.66C1012.76 2390.97 1022.68 2395.08 1033.02 2395.08C1033.05 2395.09 1033.08 2395.09 1033.11 2395.08C1043.43 2395.05 1053.32 2390.93 1060.61 2383.62C1067.9 2376.3 1071.99 2366.4 1071.99 2356.08C1072 2354.92 1071.78 2351.9 1071.78 2351.9ZM1033 2390.67C1025.83 2390.67 1020 2384.46 1020 2376.82C1020 2376.56 1020 2376.3 1020 2375.98C1019.99 2373.62 1020.46 2371.28 1021.37 2369.1C1022.86 2372.29 1025.74 2375.19 1030.69 2374.01C1030.69 2370.56 1030.59 2366.15 1031.52 2362.26C1032.33 2359.19 1033.84 2356.35 1035.91 2353.95C1036.93 2356.91 1038.44 2359.68 1040.37 2362.14C1042.88 2365.71 1045.47 2369.39 1045.93 2375.67C1045.93 2376.04 1045.93 2376.42 1045.93 2376.82C1046 2384.46 1040.17 2390.67 1033 2390.67Z" fill="white"/>
<path opacity="0.8" d="M1084.78 1864.9C1083.59 1849.39 1076.37 1839.67 1070 1831.09C1064.1 1823.15 1059 1816.29 1059 1806.18C1059 1805.78 1058.89 1805.39 1058.69 1805.05C1058.48 1804.71 1058.18 1804.43 1057.83 1804.25C1057.47 1804.06 1057.07 1803.98 1056.67 1804.01C1056.28 1804.05 1055.89 1804.19 1055.57 1804.42C1046.01 1811.26 1038.02 1822.8 1035.24 1833.81C1033.3 1841.48 1033.04 1850.09 1033.01 1855.81C1024.17 1853.93 1022.17 1840.71 1022.15 1840.57C1022.1 1840.23 1021.97 1839.91 1021.78 1839.63C1021.58 1839.35 1021.32 1839.12 1021.02 1838.96C1020.71 1838.8 1020.37 1838.71 1020.02 1838.71C1019.67 1838.71 1019.33 1838.8 1019.02 1838.96C1018.56 1839.19 1007.65 1844.73 1007.02 1866.86C1007.02 1867.6 1007.02 1868.34 1007.02 1869.08C1007.02 1879.42 1011.13 1889.34 1018.44 1896.66C1025.76 1903.97 1035.68 1908.08 1046.02 1908.08H1046.14C1056.46 1908.05 1066.35 1903.93 1073.64 1896.62C1080.93 1889.31 1085.02 1879.4 1085.02 1869.08C1085 1867.92 1084.78 1864.9 1084.78 1864.9ZM1046 1903.67C1038.83 1903.67 1033 1897.46 1033 1889.82C1033 1889.56 1033 1889.3 1033 1888.98C1032.99 1886.62 1033.46 1884.28 1034.37 1882.1C1035.86 1885.29 1038.74 1888.19 1043.69 1887.01C1043.69 1883.56 1043.59 1879.15 1044.52 1875.26C1045.33 1872.19 1046.84 1869.35 1048.91 1866.95C1049.93 1869.91 1051.44 1872.68 1053.37 1875.14C1055.88 1878.71 1058.47 1882.39 1058.93 1888.67C1058.93 1889.04 1058.93 1889.42 1058.93 1889.82C1059 1897.46 1053.17 1903.67 1046 1903.67Z" fill="white"/>
<path opacity="0.8" d="M112.78 2340.9C111.59 2325.39 104.37 2315.67 98 2307.09C92.1 2299.15 87 2292.29 87 2282.18C87.0024 2281.78 86.8939 2281.39 86.6867 2281.05C86.4795 2280.71 86.1816 2280.43 85.8262 2280.25C85.4707 2280.06 85.0717 2279.98 84.6734 2280.01C84.2751 2280.05 83.8932 2280.19 83.57 2280.42C74.01 2287.26 66.02 2298.8 63.24 2309.81C61.3 2317.48 61.04 2326.09 61.01 2331.81C52.17 2329.93 50.17 2316.71 50.15 2316.57C50.101 2316.23 49.9732 2315.91 49.7769 2315.63C49.5806 2315.35 49.3214 2315.12 49.02 2314.96C48.7116 2314.8 48.3684 2314.71 48.02 2314.71C47.6716 2314.71 47.3284 2314.8 47.02 2314.96C46.56 2315.19 35.65 2320.73 35.02 2342.86C35.02 2343.6 35.02 2344.34 35.02 2345.08C35.02 2355.42 39.1289 2365.34 46.4429 2372.66C53.7568 2379.97 63.6766 2384.08 74.02 2384.08C74.0498 2384.09 74.0802 2384.09 74.11 2384.08V2384.08C84.4483 2384.05 94.3519 2379.92 101.644 2372.59C108.937 2365.26 113.021 2355.34 113 2345C113 2343.92 112.78 2340.9 112.78 2340.9ZM74 2379.67C66.83 2379.67 61 2373.46 61 2365.82C61 2365.56 61 2365.3 61 2364.98C60.9909 2362.62 61.4568 2360.28 62.37 2358.1C63.86 2361.29 66.74 2364.19 71.69 2363.01C71.69 2359.56 71.59 2355.15 72.52 2351.26C73.3341 2348.19 74.8354 2345.35 76.91 2342.95C77.9274 2345.91 79.435 2348.68 81.37 2351.14C83.88 2354.71 86.47 2358.39 86.93 2364.67C86.93 2365.04 86.93 2365.42 86.93 2365.82C87 2373.46 81.17 2379.67 74 2379.67Z" fill="white"/>
<path opacity="0.8" d="M214.16 2033.9C212.96 2018.39 205.74 2008.67 199.37 2000.09C193.47 1992.15 188.37 1985.29 188.37 1975.18C188.368 1974.78 188.257 1974.39 188.049 1974.05C187.841 1973.71 187.544 1973.44 187.19 1973.25C186.836 1973.07 186.438 1972.99 186.041 1973.02C185.644 1973.05 185.263 1973.19 184.94 1973.42C175.37 1980.26 167.39 1991.8 164.6 2002.81C162.67 2010.48 162.41 2019.09 162.38 2024.81C153.54 2022.93 151.54 2009.71 151.52 2009.57C151.471 2009.23 151.343 2008.91 151.147 2008.63C150.951 2008.35 150.691 2008.12 150.39 2007.96C150.082 2007.8 149.738 2007.71 149.39 2007.71C149.042 2007.71 148.699 2007.8 148.39 2007.96C147.92 2008.19 137.01 2013.73 136.39 2035.86C136.34 2036.6 136.34 2037.34 136.34 2038.08C136.34 2048.43 140.449 2058.35 147.763 2065.66C155.077 2072.97 164.997 2077.08 175.34 2077.08C175.37 2077.09 175.4 2077.09 175.43 2077.08C185.754 2077.05 195.646 2072.93 202.936 2065.62C210.226 2058.31 214.32 2048.41 214.32 2038.08C214.38 2036.92 214.16 2033.9 214.16 2033.9ZM175.38 2072.67C168.21 2072.67 162.38 2066.46 162.38 2058.82C162.38 2058.56 162.38 2058.3 162.38 2057.98C162.366 2055.62 162.832 2053.28 163.75 2051.1C165.24 2054.29 168.11 2057.19 173.07 2056.01C173.07 2052.56 172.97 2048.15 173.9 2044.26C174.714 2041.2 176.211 2038.36 178.28 2035.95C179.302 2038.91 180.813 2041.68 182.75 2044.14C185.26 2047.71 187.85 2051.39 188.3 2057.67C188.3 2058.04 188.36 2058.42 188.36 2058.82C188.38 2066.46 182.55 2072.67 175.38 2072.67Z" fill="white"/>
</g>
</svg>
