<svg width="1065" height="2371" viewBox="0 0 1065 2371" fill="none" xmlns="http://www.w3.org/2000/svg">
<g opacity="0.8">
<path opacity="0.8" d="M114 411H10.3303C10.1504 410.916 9.96286 410.849 9.77029 410.8C7.26651 410.533 4.95365 409.337 3.28769 407.449C1.62173 405.561 0.723575 403.118 0.77029 400.6C0.77029 385.32 0.77029 370.037 0.77029 354.75C0.781534 353.203 1.12244 351.675 1.77029 350.27C3.62029 346.37 6.95029 344.6 11.2003 344.43H112.42C113.879 344.362 115.337 344.583 116.71 345.081C118.083 345.578 119.344 346.343 120.42 347.33C122.018 348.962 123.109 351.021 123.56 353.26V402.13C123.49 402.35 123.39 402.57 123.34 402.8C123.036 404.322 122.376 405.75 121.413 406.967C120.45 408.184 119.212 409.155 117.8 409.8C116.564 410.292 115.294 410.693 114 411V411ZM30.8303 386.62V368.72H48.6403V360C48.508 359.951 48.3704 359.917 48.2303 359.9C42.4703 359.9 36.7203 359.9 30.9603 359.9C29.7582 359.874 28.5632 360.092 27.4474 360.54C26.3317 360.988 25.3181 361.657 24.4679 362.508C23.6177 363.358 22.9483 364.371 22.5002 365.487C22.052 366.603 21.8344 367.798 21.8603 369C21.787 374.833 21.787 380.663 21.8603 386.49C21.8063 388.809 22.6701 391.055 24.2637 392.741C25.8574 394.426 28.052 395.414 30.3703 395.49C33.8003 395.49 37.2403 395.57 40.6703 395.44C44.4803 395.29 48.2403 391.99 48.4403 388.22C48.7103 383.3 48.5103 378.35 48.5103 373.33H35.3603V382.2H39.7003V386.6L30.8303 386.62ZM84.5503 368.75H102.38V360C102.21 359.955 102.036 359.925 101.86 359.91C96.1503 359.91 90.4303 359.91 84.7103 359.91C82.7391 359.874 80.8116 360.493 79.2303 361.67C78.0296 362.574 77.069 363.759 76.4327 365.121C75.7963 366.482 75.5037 367.979 75.5803 369.48C75.5803 377.787 75.5803 386.093 75.5803 394.4V395.54H84.5803V382.14H97.9203V373.24H84.5503V368.75ZM70.9903 368.75V359.94H53.3103V368.82H57.5803V386.76H53.2903V395.53H71.0003V386.65H66.7103V368.75H70.9903Z" fill="white"/>
<path opacity="0.8" d="M614 67.0001H510.33C510.15 66.9158 509.963 66.8489 509.77 66.8001C507.267 66.5329 504.954 65.3375 503.288 63.4494C501.622 61.5613 500.724 59.1176 500.77 56.6001C500.77 41.3201 500.77 26.0367 500.77 10.7501C500.782 9.20263 501.122 7.67538 501.77 6.27005C503.62 2.37005 506.95 0.600055 511.2 0.430055H612.42C613.879 0.361831 615.337 0.582946 616.71 1.08066C618.083 1.57838 619.344 2.34286 620.42 3.33005C622.018 4.96155 623.109 7.02137 623.56 9.26005V58.1601C623.49 58.3801 623.39 58.6001 623.34 58.8301C623.036 60.3519 622.376 61.7799 621.413 62.9967C620.45 64.2136 619.212 65.1846 617.8 65.8301C616.564 66.3116 615.294 66.7027 614 67.0001V67.0001ZM530.83 42.6201V24.7201H548.64V16.0001C548.508 15.9509 548.37 15.9174 548.23 15.9001C542.47 15.9001 536.72 15.9001 530.96 15.9001C529.758 15.8741 528.563 16.0918 527.447 16.5399C526.332 16.9881 525.318 17.6574 524.468 18.5077C523.618 19.3579 522.948 20.3714 522.5 21.4872C522.052 22.603 521.834 23.7979 521.86 25.0001C521.787 30.8334 521.787 36.6634 521.86 42.4901C521.806 44.809 522.67 47.0554 524.264 48.7408C525.857 50.4262 528.052 51.4142 530.37 51.4901C533.8 51.4901 537.24 51.5701 540.67 51.4401C544.48 51.2901 548.24 47.9901 548.44 44.2201C548.71 39.3001 548.51 34.3501 548.51 29.3301H535.36V38.2001H539.7V42.6001L530.83 42.6201ZM584.55 24.7501H602.38V16.0001C602.21 15.9548 602.036 15.9247 601.86 15.9101C596.15 15.9101 590.43 15.9101 584.71 15.9101C582.739 15.8736 580.812 16.4926 579.23 17.6701C578.03 18.5741 577.069 19.7589 576.433 21.1205C575.796 22.4821 575.504 23.979 575.58 25.4801C575.58 33.7867 575.58 42.0934 575.58 50.4001V51.5401H584.53V38.1401H597.87V29.2401H584.55V24.7501ZM570.99 24.7501V15.9301H553.31V24.8101H557.58V42.7501H553.29V51.5201H571V42.6401H566.74V24.7401L570.99 24.7501Z" fill="white"/>
<path opacity="0.8" d="M177 652H73.3303C73.1504 651.916 72.9629 651.849 72.7703 651.8C70.2665 651.533 67.9536 650.337 66.2877 648.449C64.6217 646.561 63.7236 644.118 63.7703 641.6C63.7703 626.32 63.7703 611.037 63.7703 595.75C63.7815 594.203 64.1224 592.675 64.7703 591.27C66.6203 587.37 69.9503 585.6 74.2003 585.43H175.42C176.879 585.362 178.337 585.583 179.71 586.081C181.083 586.578 182.344 587.343 183.42 588.33C185.018 589.962 186.109 592.021 186.56 594.26V643.13C186.49 643.35 186.39 643.57 186.34 643.8C186.036 645.322 185.376 646.75 184.413 647.967C183.45 649.184 182.212 650.155 180.8 650.8C179.564 651.292 178.294 651.693 177 652V652ZM93.8703 627.59V609.69H111.68V601C111.548 600.951 111.41 600.917 111.27 600.9C105.51 600.9 99.7603 600.9 94.0003 600.9C92.7982 600.874 91.6032 601.092 90.4874 601.54C89.3717 601.988 88.3581 602.657 87.5079 603.508C86.6577 604.358 85.9883 605.371 85.5402 606.487C85.092 607.603 84.8744 608.798 84.9003 610C84.8336 615.827 84.8336 621.657 84.9003 627.49C84.8463 629.809 85.7101 632.055 87.3037 633.741C88.8974 635.426 91.092 636.414 93.4103 636.49C96.8403 636.49 100.28 636.57 103.71 636.49C107.52 636.34 111.28 633.04 111.48 629.27C111.75 624.35 111.55 619.4 111.55 614.38H98.3603V623.25H102.7V627.65L93.8703 627.59ZM147.59 609.72H165.42V601C165.25 600.955 165.076 600.925 164.9 600.91C159.19 600.91 153.47 600.91 147.75 600.91C145.779 600.874 143.852 601.493 142.27 602.67C141.07 603.574 140.109 604.759 139.473 606.121C138.836 607.482 138.544 608.979 138.62 610.48C138.62 618.787 138.62 627.093 138.62 635.4V636.54H147.62V623.14H160.96V614.24H147.55L147.59 609.72ZM134.03 609.72V600.91H116.31V609.79H120.58V627.73H116.29V636.5H134V627.62H129.74V609.72H134.03Z" fill="white"/>
<path opacity="0.8" d="M605 713H501.33C501.15 712.916 500.963 712.849 500.77 712.8C498.267 712.533 495.954 711.337 494.288 709.449C492.622 707.561 491.724 705.118 491.77 702.6C491.77 687.32 491.77 672.037 491.77 656.75C491.782 655.203 492.122 653.675 492.77 652.27C494.62 648.37 497.95 646.6 502.2 646.43H603.42C604.879 646.362 606.337 646.583 607.71 647.081C609.083 647.578 610.344 648.343 611.42 649.33C613.018 650.962 614.109 653.021 614.56 655.26V704.13C614.49 704.35 614.39 704.57 614.34 704.8C614.036 706.322 613.376 707.75 612.413 708.967C611.45 710.184 610.212 711.155 608.8 711.8C607.564 712.292 606.294 712.693 605 713V713ZM521.87 688.59V670.69H539.68V662C539.548 661.951 539.41 661.917 539.27 661.9C533.51 661.9 527.76 661.9 522 661.9C520.798 661.874 519.603 662.092 518.487 662.54C517.372 662.988 516.358 663.657 515.508 664.508C514.658 665.358 513.988 666.371 513.54 667.487C513.092 668.603 512.874 669.798 512.9 671C512.827 676.827 512.827 682.657 512.9 688.49C512.846 690.809 513.71 693.055 515.304 694.741C516.897 696.426 519.092 697.414 521.41 697.49C524.84 697.49 528.28 697.57 531.71 697.49C535.52 697.34 539.28 694.04 539.48 690.27C539.75 685.35 539.55 680.4 539.55 675.38H526.36V684.25H530.7V688.65L521.87 688.59ZM575.59 670.72H593.42V662C593.25 661.955 593.076 661.925 592.9 661.91C587.19 661.91 581.47 661.91 575.75 661.91C573.779 661.874 571.852 662.493 570.27 663.67C569.07 664.574 568.109 665.759 567.473 667.121C566.836 668.482 566.544 669.979 566.62 671.48C566.62 679.787 566.62 688.093 566.62 696.4V697.54H575.57V684.14H588.91V675.24H575.55L575.59 670.72ZM562.03 670.72V661.91H544.31V670.79H548.58V688.73H544.29V697.5H562V688.62H557.74V670.72H562.03Z" fill="white"/>
<path opacity="0.8" d="M1038 591H934.33C934.15 590.916 933.963 590.849 933.77 590.8C931.267 590.533 928.954 589.337 927.288 587.449C925.622 585.561 924.724 583.118 924.77 580.6C924.77 565.32 924.77 550.037 924.77 534.75C924.782 533.203 925.122 531.675 925.77 530.27C927.62 526.37 930.95 524.6 935.2 524.43H1036.37C1037.83 524.362 1039.29 524.583 1040.66 525.081C1042.03 525.578 1043.29 526.343 1044.37 527.33C1045.97 528.962 1047.06 531.021 1047.51 533.26V582.13C1047.44 582.35 1047.34 582.57 1047.29 582.8C1046.99 584.322 1046.33 585.75 1045.36 586.967C1044.4 588.184 1043.16 589.155 1041.75 589.8C1040.53 590.29 1039.28 590.691 1038 591V591ZM954.87 566.59V548.69H972.68V540C972.548 539.951 972.41 539.917 972.27 539.9C966.51 539.9 960.76 539.9 955 539.9C953.798 539.874 952.603 540.092 951.487 540.54C950.372 540.988 949.358 541.657 948.508 542.508C947.658 543.358 946.988 544.371 946.54 545.487C946.092 546.603 945.874 547.798 945.9 549C945.827 554.827 945.827 560.657 945.9 566.49C945.846 568.809 946.71 571.055 948.304 572.741C949.897 574.426 952.092 575.414 954.41 575.49C957.84 575.49 961.28 575.57 964.71 575.49C968.52 575.34 972.28 572.04 972.48 568.27C972.75 563.35 972.55 558.4 972.55 553.38H959.36V562.25H963.7V566.65L954.87 566.59ZM1008.59 548.72H1026.42V540C1026.25 539.955 1026.08 539.925 1025.9 539.91C1020.19 539.91 1014.47 539.91 1008.75 539.91C1006.78 539.874 1004.85 540.493 1003.27 541.67C1002.07 542.574 1001.11 543.759 1000.47 545.121C999.836 546.482 999.544 547.979 999.62 549.48C999.62 557.787 999.62 566.093 999.62 574.4V575.54H1008.57V562.14H1021.91V553.24H1008.6L1008.59 548.72ZM995.03 548.72V539.91H977.31V548.79H981.58V566.73H977.29V575.5H995V566.62H990.74V548.72H995.03Z" fill="white"/>
<path opacity="0.8" d="M748 357H644.33C644.15 356.916 643.963 356.849 643.77 356.8C641.267 356.533 638.954 355.337 637.288 353.449C635.622 351.561 634.724 349.118 634.77 346.6C634.77 331.32 634.77 316.037 634.77 300.75C634.782 299.203 635.122 297.675 635.77 296.27C637.62 292.37 640.95 290.6 645.2 290.43H746.42C747.879 290.362 749.337 290.583 750.71 291.081C752.083 291.578 753.344 292.343 754.42 293.33C756.018 294.962 757.109 297.021 757.56 299.26V348.13C757.49 348.35 757.39 348.57 757.34 348.8C757.036 350.322 756.376 351.75 755.413 352.967C754.45 354.184 753.212 355.155 751.8 355.8C750.564 356.292 749.294 356.693 748 357ZM664.87 332.59V314.69H682.68V306C682.548 305.951 682.41 305.917 682.27 305.9C676.51 305.9 670.76 305.9 665 305.9C663.798 305.874 662.603 306.092 661.487 306.54C660.372 306.988 659.358 307.657 658.508 308.508C657.658 309.358 656.988 310.371 656.54 311.487C656.092 312.603 655.874 313.798 655.9 315C655.827 320.833 655.827 326.663 655.9 332.49C655.846 334.809 656.71 337.055 658.304 338.741C659.897 340.426 662.092 341.414 664.41 341.49C667.84 341.49 671.28 341.57 674.71 341.44C678.52 341.29 682.28 337.99 682.48 334.22C682.75 329.3 682.55 324.35 682.55 319.33H669.36V328.2H673.7V332.6L664.87 332.59ZM718.59 314.72H736.42V306C736.25 305.955 736.076 305.925 735.9 305.91C730.19 305.91 724.47 305.91 718.75 305.91C716.779 305.874 714.852 306.493 713.27 307.67C712.07 308.574 711.109 309.759 710.473 311.121C709.836 312.482 709.544 313.979 709.62 315.48C709.62 323.787 709.62 332.093 709.62 340.4V341.54H718.57V328.14H731.91V319.24H718.55L718.59 314.72ZM705.03 314.72V305.91H687.31V314.79H691.58V332.73H687.29V341.5H705V332.62H700.74V314.72H705.03Z" fill="white"/>
<path opacity="0.8" d="M1029 132H925.33C925.15 131.916 924.963 131.849 924.77 131.8C922.267 131.533 919.954 130.337 918.288 128.449C916.622 126.561 915.724 124.118 915.77 121.6C915.77 106.32 915.77 91.0367 915.77 75.7501C915.782 74.2026 916.122 72.6754 916.77 71.2701C918.62 67.3701 921.95 65.6001 926.2 65.4301H1027.37C1028.83 65.3618 1030.29 65.583 1031.66 66.0807C1033.03 66.5784 1034.29 67.3429 1035.37 68.3301C1036.97 69.9616 1038.06 72.0214 1038.51 74.2601V123.13C1038.44 123.35 1038.34 123.57 1038.29 123.8C1037.99 125.322 1037.33 126.75 1036.36 127.967C1035.4 129.184 1034.16 130.155 1032.75 130.8C1031.53 131.29 1030.28 131.691 1029 132V132ZM945.87 107.59V89.6901H963.68V81.0001C963.548 80.9509 963.41 80.9174 963.27 80.9001C957.51 80.9001 951.76 80.9001 946 80.9001C944.798 80.8741 943.603 81.0918 942.487 81.5399C941.372 81.9881 940.358 82.6574 939.508 83.5077C938.658 84.3579 937.988 85.3714 937.54 86.4872C937.092 87.603 936.874 88.7979 936.9 90.0001C936.827 95.8267 936.827 101.657 936.9 107.49C936.846 109.809 937.71 112.055 939.304 113.741C940.897 115.426 943.092 116.414 945.41 116.49C948.84 116.49 952.28 116.57 955.71 116.49C959.52 116.34 963.28 113.04 963.48 109.27C963.75 104.35 963.55 99.4001 963.55 94.3801H950.36V103.25H954.7V107.65L945.87 107.59ZM999.59 89.7201H1017.42V81.0001C1017.25 80.9548 1017.08 80.9247 1016.9 80.9101C1011.19 80.9101 1005.47 80.9101 999.75 80.9101C997.779 80.8736 995.852 81.4926 994.27 82.6701C993.07 83.5741 992.109 84.7589 991.473 86.1205C990.836 87.4821 990.544 88.979 990.62 90.4801C990.62 98.7934 990.62 107.1 990.62 115.4V116.54H999.57V103.14H1012.91V94.2401H999.6L999.59 89.7201ZM986.03 89.7201V80.9301H968.31V89.8101H972.58V107.75H968.29V116.52H986V107.64H981.74V89.7401L986.03 89.7201Z" fill="white"/>
<path opacity="0.8" d="M302 935H198.33C198.15 934.916 197.963 934.849 197.77 934.8C195.267 934.533 192.954 933.337 191.288 931.449C189.622 929.561 188.724 927.118 188.77 924.6C188.77 909.32 188.77 894.037 188.77 878.75C188.782 877.203 189.122 875.675 189.77 874.27C191.62 870.37 194.95 868.6 199.2 868.43H300.42C301.879 868.362 303.337 868.583 304.71 869.081C306.083 869.578 307.344 870.343 308.42 871.33C310.018 872.962 311.109 875.021 311.56 877.26V926.13C311.49 926.35 311.39 926.57 311.34 926.8C311.036 928.322 310.376 929.75 309.413 930.967C308.45 932.184 307.212 933.155 305.8 933.8C304.564 934.292 303.294 934.693 302 935V935ZM218.87 910.59V892.69H236.68V884C236.548 883.951 236.41 883.917 236.27 883.9C230.51 883.9 224.76 883.9 219 883.9C217.798 883.874 216.603 884.092 215.487 884.54C214.372 884.988 213.358 885.657 212.508 886.508C211.658 887.358 210.988 888.371 210.54 889.487C210.092 890.603 209.874 891.798 209.9 893C209.827 898.827 209.827 904.657 209.9 910.49C209.846 912.809 210.71 915.055 212.304 916.741C213.897 918.426 216.092 919.414 218.41 919.49C221.84 919.49 225.28 919.57 228.71 919.49C232.52 919.34 236.28 916.04 236.48 912.27C236.75 907.35 236.55 902.4 236.55 897.38H223.36V906.25H227.7V910.65L218.87 910.59ZM272.59 892.72H290.42V884C290.25 883.955 290.076 883.925 289.9 883.91C284.19 883.91 278.47 883.91 272.75 883.91C270.779 883.874 268.852 884.493 267.27 885.67C266.07 886.574 265.109 887.759 264.473 889.121C263.836 890.482 263.544 891.979 263.62 893.48C263.62 901.787 263.62 910.093 263.62 918.4V919.54H272.57V906.14H285.91V897.24H272.55L272.59 892.72ZM259.03 892.72V883.91H241.31V892.79H245.58V910.73H241.29V919.5H259V910.62H254.74V892.72H259.03Z" fill="white"/>
<path opacity="0.8" d="M126 1313H22.3303C22.1504 1312.92 21.9629 1312.85 21.7703 1312.8C19.2665 1312.53 16.9536 1311.34 15.2877 1309.45C13.6217 1307.56 12.7236 1305.12 12.7703 1302.6C12.7703 1287.32 12.7703 1272.04 12.7703 1256.75C12.7815 1255.2 13.1224 1253.68 13.7703 1252.27C15.6203 1248.37 18.9503 1246.6 23.2003 1246.43H124.42C125.879 1246.36 127.337 1246.58 128.71 1247.08C130.083 1247.58 131.344 1248.34 132.42 1249.33C134.018 1250.96 135.109 1253.02 135.56 1255.26V1304.13C135.49 1304.35 135.39 1304.57 135.34 1304.8C135.036 1306.32 134.376 1307.75 133.413 1308.97C132.45 1310.18 131.212 1311.15 129.8 1311.8C128.564 1312.29 127.294 1312.69 126 1313V1313ZM42.8703 1288.59V1270.69H60.6403V1262C60.508 1261.95 60.3704 1261.92 60.2303 1261.9C54.4703 1261.9 48.7203 1261.9 42.9603 1261.9C41.7582 1261.87 40.5632 1262.09 39.4474 1262.54C38.3317 1262.99 37.3181 1263.66 36.4679 1264.51C35.6177 1265.36 34.9483 1266.37 34.5002 1267.49C34.052 1268.6 33.8344 1269.8 33.8603 1271C33.787 1276.83 33.787 1282.66 33.8603 1288.49C33.8063 1290.81 34.6701 1293.06 36.2637 1294.74C37.8574 1296.43 40.052 1297.41 42.3703 1297.49C45.8003 1297.49 49.2403 1297.57 52.6703 1297.49C56.4803 1297.34 60.2403 1294.04 60.4403 1290.27C60.7103 1285.35 60.5103 1280.4 60.5103 1275.38H47.3603V1284.25H51.7003V1288.65L42.8703 1288.59ZM96.5903 1270.72H114.42V1262C114.25 1261.95 114.076 1261.92 113.9 1261.91C108.19 1261.91 102.47 1261.91 96.7503 1261.91C94.7791 1261.87 92.8516 1262.49 91.2703 1263.67C90.0696 1264.57 89.109 1265.76 88.4727 1267.12C87.8363 1268.48 87.5437 1269.98 87.6203 1271.48C87.6203 1279.79 87.6203 1288.09 87.6203 1296.4V1297.54H96.6203V1284.17H109.96V1275.27H96.5503L96.5903 1270.72ZM83.0303 1270.72V1261.91H65.3103V1270.79H69.5803V1288.73H65.2903V1297.5H83.0003V1288.62H78.7103V1270.72H83.0303Z" fill="white"/>
<path opacity="0.8" d="M604 1478H500.33C500.15 1477.92 499.963 1477.85 499.77 1477.8C497.267 1477.53 494.954 1476.34 493.288 1474.45C491.622 1472.56 490.724 1470.12 490.77 1467.6C490.77 1452.32 490.77 1437.04 490.77 1421.75C490.782 1420.2 491.122 1418.68 491.77 1417.27C493.62 1413.37 496.95 1411.6 501.2 1411.43H602.42C603.879 1411.36 605.337 1411.58 606.71 1412.08C608.083 1412.58 609.344 1413.34 610.42 1414.33C612.018 1415.96 613.109 1418.02 613.56 1420.26V1469.13C613.49 1469.35 613.39 1469.57 613.34 1469.8C613.036 1471.32 612.376 1472.75 611.413 1473.97C610.45 1475.18 609.212 1476.15 607.8 1476.8C606.564 1477.29 605.294 1477.69 604 1478V1478ZM520.87 1453.59V1435.69H538.68V1427C538.548 1426.95 538.41 1426.92 538.27 1426.9C532.51 1426.9 526.76 1426.9 521 1426.9C519.798 1426.87 518.603 1427.09 517.487 1427.54C516.372 1427.99 515.358 1428.66 514.508 1429.51C513.658 1430.36 512.988 1431.37 512.54 1432.49C512.092 1433.6 511.874 1434.8 511.9 1436C511.827 1441.83 511.827 1447.66 511.9 1453.49C511.846 1455.81 512.71 1458.06 514.304 1459.74C515.897 1461.43 518.092 1462.41 520.41 1462.49C523.84 1462.49 527.28 1462.57 530.71 1462.49C534.52 1462.34 538.28 1459.04 538.48 1455.27C538.75 1450.35 538.55 1445.4 538.55 1440.38H525.36V1449.25H529.7V1453.65L520.87 1453.59ZM574.59 1435.72H592.42V1427C592.25 1426.95 592.076 1426.92 591.9 1426.91C586.19 1426.91 580.47 1426.91 574.75 1426.91C572.779 1426.87 570.852 1427.49 569.27 1428.67C568.07 1429.57 567.109 1430.76 566.473 1432.12C565.836 1433.48 565.544 1434.98 565.62 1436.48C565.62 1444.79 565.62 1453.09 565.62 1461.4V1462.54H574.57V1449.17H587.91V1440.27H574.55L574.59 1435.72ZM561.03 1435.72V1426.91H543.31V1435.79H547.58V1453.73H543.29V1462.5H561V1453.62H556.74V1435.72H561.03Z" fill="white"/>
<path opacity="0.8" d="M987 1335H883.33C883.15 1334.92 882.963 1334.85 882.77 1334.8C880.267 1334.53 877.954 1333.34 876.288 1331.45C874.622 1329.56 873.724 1327.12 873.77 1324.6C873.77 1309.32 873.77 1294.04 873.77 1278.75C873.782 1277.2 874.122 1275.68 874.77 1274.27C876.62 1270.37 879.95 1268.6 884.2 1268.43H985.37C986.829 1268.36 988.287 1268.58 989.66 1269.08C991.033 1269.58 992.294 1270.34 993.37 1271.33C994.968 1272.96 996.059 1275.02 996.51 1277.26V1326.13C996.44 1326.35 996.34 1326.57 996.29 1326.8C995.986 1328.32 995.326 1329.75 994.363 1330.97C993.4 1332.18 992.162 1333.15 990.75 1333.8C989.531 1334.29 988.277 1334.69 987 1335V1335ZM903.87 1310.59V1292.69H921.68V1284C921.548 1283.95 921.41 1283.92 921.27 1283.9C915.51 1283.9 909.76 1283.9 904 1283.9C902.798 1283.87 901.603 1284.09 900.487 1284.54C899.372 1284.99 898.358 1285.66 897.508 1286.51C896.658 1287.36 895.988 1288.37 895.54 1289.49C895.092 1290.6 894.874 1291.8 894.9 1293C894.827 1298.83 894.827 1304.66 894.9 1310.49C894.846 1312.81 895.71 1315.06 897.304 1316.74C898.897 1318.43 901.092 1319.41 903.41 1319.49C906.84 1319.49 910.28 1319.57 913.71 1319.49C917.52 1319.34 921.28 1316.04 921.48 1312.27C921.75 1307.35 921.55 1302.4 921.55 1297.38H908.36V1306.25H912.7V1310.65L903.87 1310.59ZM957.59 1292.72H975.42V1284C975.25 1283.95 975.076 1283.92 974.9 1283.91C969.19 1283.91 963.47 1283.91 957.75 1283.91C955.779 1283.87 953.852 1284.49 952.27 1285.67C951.07 1286.57 950.109 1287.76 949.473 1289.12C948.836 1290.48 948.544 1291.98 948.62 1293.48C948.62 1301.79 948.62 1310.09 948.62 1318.4V1319.54H957.57V1306.17H970.91V1297.27H957.55L957.59 1292.72ZM944.03 1292.72V1283.91H926.31V1292.79H930.58V1310.73H926.29V1319.5H944V1310.62H939.74V1292.72H944.03Z" fill="white"/>
<path opacity="0.8" d="M647 1101H543.33C543.15 1100.92 542.963 1100.85 542.77 1100.8C540.267 1100.53 537.954 1099.34 536.288 1097.45C534.622 1095.56 533.724 1093.12 533.77 1090.6C533.77 1075.32 533.77 1060.04 533.77 1044.75C533.782 1043.2 534.122 1041.68 534.77 1040.27C536.62 1036.37 539.95 1034.6 544.2 1034.43H645.42C646.879 1034.36 648.337 1034.58 649.71 1035.08C651.083 1035.58 652.344 1036.34 653.42 1037.33C655.018 1038.96 656.109 1041.02 656.56 1043.26V1092.13C656.49 1092.35 656.39 1092.57 656.34 1092.8C656.036 1094.32 655.376 1095.75 654.413 1096.97C653.45 1098.18 652.212 1099.15 650.8 1099.8C649.564 1100.29 648.294 1100.69 647 1101ZM563.87 1076.59V1058.69H581.68V1050C581.548 1049.95 581.41 1049.92 581.27 1049.9C575.51 1049.9 569.76 1049.9 564 1049.9C562.798 1049.87 561.603 1050.09 560.487 1050.54C559.372 1050.99 558.358 1051.66 557.508 1052.51C556.658 1053.36 555.988 1054.37 555.54 1055.49C555.092 1056.6 554.874 1057.8 554.9 1059C554.827 1064.83 554.827 1070.66 554.9 1076.49C554.846 1078.81 555.71 1081.06 557.304 1082.74C558.897 1084.43 561.092 1085.41 563.41 1085.49C566.84 1085.49 570.28 1085.57 573.71 1085.49C577.52 1085.34 581.28 1082.04 581.48 1078.27C581.75 1073.35 581.55 1068.4 581.55 1063.38H568.36V1072.25H572.7V1076.65L563.87 1076.59ZM617.59 1058.72H635.42V1050C635.25 1049.95 635.076 1049.92 634.9 1049.91C629.19 1049.91 623.47 1049.91 617.75 1049.91C615.779 1049.87 613.852 1050.49 612.27 1051.67C611.07 1052.57 610.109 1053.76 609.473 1055.12C608.836 1056.48 608.544 1057.98 608.62 1059.48C608.62 1067.79 608.62 1076.09 608.62 1084.4V1085.54H617.57V1072.17H630.91V1063.27H617.55L617.59 1058.72ZM604.03 1058.72V1049.91H586.31V1058.79H590.58V1076.73H586.29V1085.5H604V1076.62H599.74V1058.72H604.03Z" fill="white"/>
<path opacity="0.8" d="M1055 977H951.33C951.15 976.916 950.963 976.849 950.77 976.8C948.267 976.533 945.954 975.337 944.288 973.449C942.622 971.561 941.724 969.118 941.77 966.6C941.77 951.32 941.77 936.037 941.77 920.75C941.782 919.203 942.122 917.675 942.77 916.27C944.62 912.37 947.95 910.6 952.2 910.43H1053.37C1054.83 910.362 1056.29 910.583 1057.66 911.081C1059.03 911.578 1060.29 912.343 1061.37 913.33C1062.97 914.962 1064.06 917.021 1064.51 919.26V968.13C1064.44 968.35 1064.34 968.57 1064.29 968.8C1063.99 970.322 1063.33 971.75 1062.36 972.967C1061.4 974.184 1060.16 975.155 1058.75 975.8C1057.53 976.29 1056.28 976.691 1055 977V977ZM971.87 952.59V934.69H989.68V926C989.548 925.951 989.41 925.917 989.27 925.9C983.51 925.9 977.76 925.9 972 925.9C970.798 925.874 969.603 926.092 968.487 926.54C967.372 926.988 966.358 927.657 965.508 928.508C964.658 929.358 963.988 930.371 963.54 931.487C963.092 932.603 962.874 933.798 962.9 935C962.827 940.827 962.827 946.657 962.9 952.49C962.846 954.809 963.71 957.055 965.304 958.741C966.897 960.426 969.092 961.414 971.41 961.49C974.84 961.49 978.28 961.57 981.71 961.49C985.52 961.34 989.28 958.04 989.48 954.27C989.75 949.35 989.55 944.4 989.55 939.38H976.36V948.25H980.7V952.65L971.87 952.59ZM1025.59 934.72H1043.42V926C1043.25 925.955 1043.08 925.925 1042.9 925.91C1037.19 925.91 1031.47 925.91 1025.75 925.91C1023.78 925.874 1021.85 926.493 1020.27 927.67C1019.07 928.574 1018.11 929.759 1017.47 931.121C1016.84 932.482 1016.54 933.979 1016.62 935.48C1016.62 943.787 1016.62 952.093 1016.62 960.4V961.54H1025.62V948.14H1038.96V939.24H1025.65L1025.59 934.72ZM1012.03 934.72V925.91H994.35V934.79H998.62V952.73H994.33V961.5H1012V952.62H1007.74V934.72H1012.03Z" fill="white"/>
<path opacity="0.8" d="M293 2371H189.33C189.15 2370.92 188.963 2370.85 188.77 2370.8C186.267 2370.53 183.954 2369.34 182.288 2367.45C180.622 2365.56 179.724 2363.12 179.77 2360.6C179.77 2345.32 179.77 2330.04 179.77 2314.75C179.782 2313.2 180.122 2311.68 180.77 2310.27C182.62 2306.37 185.95 2304.6 190.2 2304.43H291.42C292.879 2304.36 294.337 2304.58 295.71 2305.08C297.083 2305.58 298.344 2306.34 299.42 2307.33C301.018 2308.96 302.109 2311.02 302.56 2313.26V2362.13C302.49 2362.35 302.39 2362.57 302.34 2362.8C302.036 2364.32 301.376 2365.75 300.413 2366.97C299.45 2368.18 298.212 2369.15 296.8 2369.8C295.564 2370.29 294.294 2370.69 293 2371V2371ZM209.87 2346.59V2328.69H227.68V2320C227.548 2319.95 227.41 2319.92 227.27 2319.9C221.51 2319.9 215.76 2319.9 210 2319.9C208.798 2319.87 207.603 2320.09 206.487 2320.54C205.372 2320.99 204.358 2321.66 203.508 2322.51C202.658 2323.36 201.988 2324.37 201.54 2325.49C201.092 2326.6 200.874 2327.8 200.9 2329C200.827 2334.83 200.827 2340.66 200.9 2346.49C200.846 2348.81 201.71 2351.06 203.304 2352.74C204.897 2354.43 207.092 2355.41 209.41 2355.49C212.84 2355.49 216.28 2355.57 219.71 2355.44C223.52 2355.29 227.28 2351.99 227.48 2348.22C227.75 2343.3 227.55 2338.35 227.55 2333.33H214.36V2342.2H218.7V2346.6L209.87 2346.59ZM263.59 2328.72H281.42V2320C281.25 2319.95 281.076 2319.92 280.9 2319.91C275.19 2319.91 269.47 2319.91 263.75 2319.91C261.779 2319.87 259.852 2320.49 258.27 2321.67C257.07 2322.57 256.109 2323.76 255.473 2325.12C254.836 2326.48 254.544 2327.98 254.62 2329.48C254.62 2337.79 254.62 2346.1 254.62 2354.4V2355.54H263.57V2342.17H276.91V2333.27H263.55L263.59 2328.72ZM250.03 2328.72V2319.91H232.31V2328.79H236.58V2346.73H232.29V2355.5H250V2346.62H245.74V2328.72H250.03Z" fill="white"/>
<path opacity="0.8" d="M266 1681H162.33C162.15 1680.92 161.963 1680.85 161.77 1680.8C159.267 1680.53 156.954 1679.34 155.288 1677.45C153.622 1675.56 152.724 1673.12 152.77 1670.6C152.77 1655.32 152.77 1640.04 152.77 1624.75C152.782 1623.2 153.122 1621.68 153.77 1620.27C155.62 1616.37 158.95 1614.6 163.2 1614.43H264.42C265.879 1614.36 267.337 1614.58 268.71 1615.08C270.083 1615.58 271.344 1616.34 272.42 1617.33C274.018 1618.96 275.109 1621.02 275.56 1623.26V1672.13C275.49 1672.35 275.39 1672.57 275.34 1672.8C275.036 1674.32 274.376 1675.75 273.413 1676.97C272.45 1678.18 271.212 1679.15 269.8 1679.8C268.564 1680.29 267.294 1680.69 266 1681V1681ZM182.87 1656.59V1638.69H200.68V1630C200.548 1629.95 200.41 1629.92 200.27 1629.9C194.51 1629.9 188.76 1629.9 183 1629.9C181.798 1629.87 180.603 1630.09 179.487 1630.54C178.372 1630.99 177.358 1631.66 176.508 1632.51C175.658 1633.36 174.988 1634.37 174.54 1635.49C174.092 1636.6 173.874 1637.8 173.9 1639C173.827 1644.83 173.827 1650.66 173.9 1656.49C173.846 1658.81 174.71 1661.06 176.304 1662.74C177.897 1664.43 180.092 1665.41 182.41 1665.49C185.84 1665.49 189.28 1665.57 192.71 1665.49C196.52 1665.34 200.28 1662.04 200.48 1658.27C200.75 1653.35 200.55 1648.4 200.55 1643.38H187.36V1652.25H191.7V1656.65L182.87 1656.59ZM236.59 1638.72H254.42V1630C254.25 1629.95 254.076 1629.92 253.9 1629.91C248.19 1629.91 242.47 1629.91 236.75 1629.91C234.779 1629.87 232.852 1630.49 231.27 1631.67C230.07 1632.57 229.109 1633.76 228.473 1635.12C227.836 1636.48 227.544 1637.98 227.62 1639.48C227.62 1647.79 227.62 1656.09 227.62 1664.4V1665.54H236.62V1652.17H249.96V1643.27H236.55L236.59 1638.72ZM223.03 1638.72V1629.91H205.31V1638.79H209.58V1656.73H205.29V1665.5H223V1656.62H218.74V1638.72H223.03Z" fill="white"/>
<path opacity="0.8" d="M185 2057H81.3303C81.1504 2056.92 80.9629 2056.85 80.7703 2056.8C78.2665 2056.53 75.9536 2055.34 74.2877 2053.45C72.6217 2051.56 71.7236 2049.12 71.7703 2046.6C71.7703 2031.32 71.7703 2016.04 71.7703 2000.75C71.7815 1999.2 72.1224 1997.68 72.7703 1996.27C74.6203 1992.37 77.9503 1990.6 82.2003 1990.43H183.42C184.879 1990.36 186.337 1990.58 187.71 1991.08C189.083 1991.58 190.344 1992.34 191.42 1993.33C193.018 1994.96 194.109 1997.02 194.56 1999.26V2048.13C194.49 2048.35 194.39 2048.57 194.34 2048.8C194.036 2050.32 193.376 2051.75 192.413 2052.97C191.45 2054.18 190.212 2055.15 188.8 2055.8C187.564 2056.29 186.294 2056.69 185 2057V2057ZM101.87 2032.59V2014.69H119.68V2006C119.548 2005.95 119.41 2005.92 119.27 2005.9C113.51 2005.9 107.76 2005.9 102 2005.9C100.798 2005.87 99.6032 2006.09 98.4874 2006.54C97.3717 2006.99 96.3581 2007.66 95.5079 2008.51C94.6577 2009.36 93.9883 2010.37 93.5402 2011.49C93.092 2012.6 92.8744 2013.8 92.9003 2015C92.8336 2020.83 92.8336 2026.66 92.9003 2032.49C92.8463 2034.81 93.7101 2037.06 95.3037 2038.74C96.8974 2040.43 99.092 2041.41 101.41 2041.49C104.84 2041.49 108.28 2041.57 111.71 2041.44C115.52 2041.29 119.28 2037.99 119.48 2034.22C119.75 2029.3 119.55 2024.35 119.55 2019.33H106.36V2028.2H110.7V2032.6L101.87 2032.59ZM155.59 2014.72H173.42V2006C173.25 2005.95 173.076 2005.92 172.9 2005.91C167.19 2005.91 161.47 2005.91 155.75 2005.91C153.779 2005.87 151.852 2006.49 150.27 2007.67C149.07 2008.57 148.109 2009.76 147.473 2011.12C146.836 2012.48 146.544 2013.98 146.62 2015.48C146.62 2023.79 146.62 2032.09 146.62 2040.4V2041.54H155.62V2028.17H168.96V2019.27H155.55L155.59 2014.72ZM142.03 2014.72V2005.91H124.31V2014.79H128.58V2032.73H124.29V2041.5H142V2032.62H137.74V2014.72H142.03Z" fill="white"/>
<path opacity="0.8" d="M613 2201H509.33C509.15 2200.92 508.963 2200.85 508.77 2200.8C506.267 2200.53 503.954 2199.34 502.288 2197.45C500.622 2195.56 499.724 2193.12 499.77 2190.6C499.77 2175.32 499.77 2160.04 499.77 2144.75C499.782 2143.2 500.122 2141.68 500.77 2140.27C502.62 2136.37 505.95 2134.6 510.2 2134.43H611.42C612.879 2134.36 614.337 2134.58 615.71 2135.08C617.083 2135.58 618.344 2136.34 619.42 2137.33C621.018 2138.96 622.109 2141.02 622.56 2143.26V2192.13C622.49 2192.35 622.39 2192.57 622.34 2192.8C622.036 2194.32 621.376 2195.75 620.413 2196.97C619.45 2198.18 618.212 2199.15 616.8 2199.8C615.564 2200.29 614.294 2200.69 613 2201ZM529.87 2176.59V2158.69H547.68V2150C547.548 2149.95 547.41 2149.92 547.27 2149.9C541.51 2149.9 535.76 2149.9 530 2149.9C528.798 2149.87 527.603 2150.09 526.487 2150.54C525.372 2150.99 524.358 2151.66 523.508 2152.51C522.658 2153.36 521.988 2154.37 521.54 2155.49C521.092 2156.6 520.874 2157.8 520.9 2159C520.827 2164.83 520.827 2170.66 520.9 2176.49C520.846 2178.81 521.71 2181.06 523.304 2182.74C524.897 2184.43 527.092 2185.41 529.41 2185.49C532.84 2185.49 536.28 2185.57 539.71 2185.44C543.52 2185.29 547.28 2181.99 547.48 2178.22C547.75 2173.3 547.55 2168.35 547.55 2163.33H534.36V2172.2H538.7V2176.6L529.87 2176.59ZM583.59 2158.72H601.42V2150C601.25 2149.95 601.076 2149.92 600.9 2149.91C595.19 2149.91 589.47 2149.91 583.75 2149.91C581.779 2149.87 579.852 2150.49 578.27 2151.67C577.07 2152.57 576.109 2153.76 575.473 2155.12C574.836 2156.48 574.544 2157.98 574.62 2159.48C574.62 2167.79 574.62 2176.1 574.62 2184.4V2185.54H583.57V2172.17H596.91V2163.27H583.55L583.59 2158.72ZM570.03 2158.72V2149.91H552.31V2158.79H556.58V2176.73H552.29V2185.5H570V2176.62H565.74V2158.72H570.03Z" fill="white"/>
<path opacity="0.8" d="M1046 2079H942.33C942.15 2078.92 941.963 2078.85 941.77 2078.8C939.267 2078.53 936.954 2077.34 935.288 2075.45C933.622 2073.56 932.724 2071.12 932.77 2068.6C932.77 2053.32 932.77 2038.04 932.77 2022.75C932.782 2021.2 933.122 2019.68 933.77 2018.27C935.62 2014.37 938.95 2012.6 943.2 2012.43H1044.37C1045.83 2012.36 1047.29 2012.58 1048.66 2013.08C1050.03 2013.58 1051.29 2014.34 1052.37 2015.33C1053.97 2016.96 1055.06 2019.02 1055.51 2021.26V2070.13C1055.44 2070.35 1055.34 2070.57 1055.29 2070.8C1054.99 2072.32 1054.33 2073.75 1053.36 2074.97C1052.4 2076.18 1051.16 2077.15 1049.75 2077.8C1048.53 2078.29 1047.28 2078.69 1046 2079V2079ZM962.87 2054.59V2036.69H980.68V2028C980.548 2027.95 980.41 2027.92 980.27 2027.9C974.51 2027.9 968.76 2027.9 963 2027.9C961.798 2027.87 960.603 2028.09 959.487 2028.54C958.372 2028.99 957.358 2029.66 956.508 2030.51C955.658 2031.36 954.988 2032.37 954.54 2033.49C954.092 2034.6 953.874 2035.8 953.9 2037C953.827 2042.83 953.827 2048.66 953.9 2054.49C953.846 2056.81 954.71 2059.06 956.304 2060.74C957.897 2062.43 960.092 2063.41 962.41 2063.49C965.84 2063.49 969.28 2063.57 972.71 2063.44C976.52 2063.29 980.28 2059.99 980.48 2056.22C980.75 2051.3 980.55 2046.35 980.55 2041.33H967.36V2050.2H971.7V2054.6L962.87 2054.59ZM1016.59 2036.72H1034.42V2028C1034.25 2027.95 1034.08 2027.92 1033.9 2027.91C1028.19 2027.91 1022.47 2027.91 1016.75 2027.91C1014.78 2027.87 1012.85 2028.49 1011.27 2029.67C1010.07 2030.57 1009.11 2031.76 1008.47 2033.12C1007.84 2034.48 1007.54 2035.98 1007.62 2037.48C1007.62 2045.79 1007.62 2054.1 1007.62 2062.4V2063.54H1016.62V2050.17H1029.96V2041.27H1016.65L1016.59 2036.72ZM1003.03 2036.72V2027.91H985.35V2036.79H989.62V2054.73H985.33V2063.5H1003V2054.62H998.74V2036.72H1003.03Z" fill="white"/>
<path opacity="0.8" d="M660 1866H556.33C556.15 1865.92 555.963 1865.85 555.77 1865.8C553.267 1865.53 550.954 1864.34 549.288 1862.45C547.622 1860.56 546.724 1858.12 546.77 1855.6C546.77 1840.32 546.77 1825.04 546.77 1809.75C546.782 1808.2 547.122 1806.68 547.77 1805.27C549.62 1801.37 552.95 1799.6 557.2 1799.43H658.42C659.879 1799.36 661.337 1799.58 662.71 1800.08C664.083 1800.58 665.344 1801.34 666.42 1802.33C668.018 1803.96 669.109 1806.02 669.56 1808.26V1857.13C669.49 1857.35 669.39 1857.57 669.34 1857.8C669.036 1859.32 668.376 1860.75 667.413 1861.97C666.45 1863.18 665.212 1864.15 663.8 1864.8C662.564 1865.29 661.294 1865.69 660 1866ZM576.87 1841.59V1823.69H594.68V1815C594.548 1814.95 594.41 1814.92 594.27 1814.9C588.51 1814.9 582.76 1814.9 577 1814.9C575.798 1814.87 574.603 1815.09 573.487 1815.54C572.372 1815.99 571.358 1816.66 570.508 1817.51C569.658 1818.36 568.988 1819.37 568.54 1820.49C568.092 1821.6 567.874 1822.8 567.9 1824C567.827 1829.83 567.827 1835.66 567.9 1841.49C567.846 1843.81 568.71 1846.06 570.304 1847.74C571.897 1849.43 574.092 1850.41 576.41 1850.49C579.84 1850.49 583.28 1850.57 586.71 1850.49C590.52 1850.34 594.28 1847.04 594.48 1843.27C594.75 1838.35 594.55 1833.4 594.55 1828.38H581.36V1837.25H585.7V1841.65L576.87 1841.59ZM630.59 1823.72H648.42V1815C648.25 1814.95 648.076 1814.92 647.9 1814.91C642.19 1814.91 636.47 1814.91 630.75 1814.91C628.779 1814.87 626.852 1815.49 625.27 1816.67C624.07 1817.57 623.109 1818.76 622.473 1820.12C621.836 1821.48 621.544 1822.98 621.62 1824.48C621.62 1832.79 621.62 1841.09 621.62 1849.4V1850.54H630.57V1837.17H643.91V1828.27H630.55L630.59 1823.72ZM617.03 1823.72V1814.91H599.31V1823.79H603.58V1841.73H599.29V1850.5H617V1841.62H612.74V1823.72H617.03Z" fill="white"/>
<path opacity="0.8" d="M1037 1620H933.33C933.15 1619.92 932.963 1619.85 932.77 1619.8C930.267 1619.53 927.954 1618.34 926.288 1616.45C924.622 1614.56 923.724 1612.12 923.77 1609.6C923.77 1594.32 923.77 1579.04 923.77 1563.75C923.782 1562.2 924.122 1560.68 924.77 1559.27C926.62 1555.37 929.95 1553.6 934.2 1553.43H1035.37C1036.83 1553.36 1038.29 1553.58 1039.66 1554.08C1041.03 1554.58 1042.29 1555.34 1043.37 1556.33C1044.97 1557.96 1046.06 1560.02 1046.51 1562.26V1611.13C1046.44 1611.35 1046.34 1611.57 1046.29 1611.8C1045.99 1613.32 1045.33 1614.75 1044.36 1615.97C1043.4 1617.18 1042.16 1618.15 1040.75 1618.8C1039.53 1619.29 1038.28 1619.69 1037 1620ZM953.87 1595.59V1577.69H971.68V1569C971.548 1568.95 971.41 1568.92 971.27 1568.9C965.51 1568.9 959.76 1568.9 954 1568.9C952.798 1568.87 951.603 1569.09 950.487 1569.54C949.372 1569.99 948.358 1570.66 947.508 1571.51C946.658 1572.36 945.988 1573.37 945.54 1574.49C945.092 1575.6 944.874 1576.8 944.9 1578C944.827 1583.83 944.827 1589.66 944.9 1595.49C944.846 1597.81 945.71 1600.06 947.304 1601.74C948.897 1603.43 951.092 1604.41 953.41 1604.49C956.84 1604.49 960.28 1604.57 963.71 1604.49C967.52 1604.34 971.28 1601.04 971.48 1597.27C971.75 1592.35 971.55 1587.4 971.55 1582.38H958.36V1591.25H962.7V1595.65L953.87 1595.59ZM1007.59 1577.72H1025.42V1569C1025.25 1568.95 1025.08 1568.92 1024.9 1568.91C1019.19 1568.91 1013.47 1568.91 1007.75 1568.91C1005.78 1568.87 1003.85 1569.49 1002.27 1570.67C1001.07 1571.57 1000.11 1572.76 999.473 1574.12C998.836 1575.48 998.544 1576.98 998.62 1578.48C998.62 1586.79 998.62 1595.09 998.62 1603.4V1604.54H1007.57V1591.17H1020.91V1582.27H1007.6L1007.59 1577.72ZM994.03 1577.72V1568.91H976.31V1577.79H980.58V1595.73H976.29V1604.5H994V1595.62H989.74V1577.72H994.03Z" fill="white"/>
</g>
</svg>
