<svg width="1040" height="2350" viewBox="0 0 1040 2350" fill="none" xmlns="http://www.w3.org/2000/svg">
<g opacity="0.8">
<path opacity="0.8" d="M644.75 200C647.35 200.5 650.02 200.77 652.55 201.52C670.55 206.9 681.49 218.89 684.42 237.35C686.77 252.19 681.91 265.02 671.07 275.54C667.13 279.36 662.43 281.93 657.25 284.41C657.37 282.48 657.44 280.81 657.61 279.14C657.61 278.89 658.03 278.61 658.32 278.46C671.91 271.64 679.32 260.53 680.12 245.46C681 228.59 671.68 214.34 656.2 207.63C639.08 200.22 617.67 207.04 608.2 223.25C599.63 237.93 600.34 252.5 609.89 266.53C613.099 271.276 617.485 275.108 622.62 277.65C624.81 278.73 625.71 280.01 625.31 282.33C625.268 282.966 625.268 283.604 625.31 284.24C623.73 283.52 622.31 283.01 621.05 282.24C614.305 278.593 608.586 273.307 604.42 266.87C601.231 261.81 599.116 256.149 598.205 250.238C597.295 244.327 597.609 238.293 599.128 232.508C600.647 226.724 603.339 221.313 607.036 216.612C610.733 211.911 615.356 208.02 620.62 205.18C625.682 202.44 631.241 200.74 636.97 200.18C637.271 200.126 637.565 200.042 637.85 199.93L644.75 200Z" fill="white"/>
<path opacity="0.8" d="M654.47 266.83C654.04 271.65 653.65 276.48 653.16 281.29C653.117 282.167 652.818 283.012 652.3 283.72C650.51 285.72 650.55 288.24 650.08 290.61C649.23 294.9 648.43 299.21 647.62 303.51C647.607 303.861 647.517 304.204 647.355 304.516C647.194 304.828 646.965 305.101 646.686 305.314C646.407 305.527 646.084 305.676 645.741 305.749C645.397 305.823 645.042 305.82 644.7 305.74C642.406 305.58 640.104 305.58 637.81 305.74C637.492 305.808 637.163 305.807 636.846 305.737C636.529 305.667 636.23 305.53 635.97 305.335C635.71 305.139 635.496 304.89 635.34 304.605C635.185 304.319 635.093 304.004 635.07 303.68C634.323 299.946 633.59 296.213 632.87 292.48C632.6 291.05 632.55 289.56 632.15 288.17C631.75 286.78 630.93 285.35 630.44 283.9C629.82 282.367 629.404 280.76 629.2 279.12C628.86 273.24 628.71 267.35 628.54 261.47C628.47 259.36 630.01 258.27 631.65 257.81C634.59 256.945 637.602 256.346 640.65 256.02C644.102 255.734 647.572 256.294 650.76 257.65C652.99 258.56 654.44 259.93 654.22 262.58C654.1 263.98 654.22 265.4 654.22 266.81L654.47 266.83Z" fill="white"/>
<path opacity="0.8" d="M658.9 271.839C658.9 269.999 658.83 268.349 658.95 266.709C659.097 266.174 659.421 265.705 659.87 265.379C663.44 262.37 666.213 258.527 667.944 254.191C669.674 249.855 670.308 245.159 669.79 240.519C668.71 227.999 658.12 216.999 645.58 215.349C629.35 213.169 615.06 223.869 612.96 240.119C611.7 249.879 614.96 258.229 622.29 264.869C622.816 265.273 623.229 265.805 623.49 266.414C623.75 267.023 623.851 267.69 623.78 268.349C623.7 269.429 623.78 270.529 623.78 271.619C615.9 267.619 606.94 255.799 608.1 240.799C609.26 225.799 621.4 212.739 636.29 210.699C643.871 209.521 651.627 211.001 658.242 214.888C664.857 218.774 669.925 224.828 672.588 232.024C675.25 239.22 675.342 247.115 672.85 254.371C670.357 261.627 665.432 267.798 658.91 271.839H658.9Z" fill="white"/>
<path opacity="0.8" d="M626.88 254.93L624.12 258.64C617.06 251.5 615.57 237.37 624.66 227.78C626.779 225.549 629.325 223.766 632.146 222.536C634.967 221.307 638.006 220.656 641.083 220.622C644.161 220.589 647.213 221.173 650.061 222.341C652.908 223.508 655.492 225.235 657.66 227.42C666.15 235.76 666.55 250.72 658.54 258.64L655.76 255C658.635 251.294 659.984 246.63 659.533 241.962C659.081 237.294 656.862 232.975 653.33 229.89C649.896 226.894 645.468 225.286 640.911 225.381C636.355 225.476 631.998 227.266 628.691 230.403C625.385 233.539 623.367 237.796 623.032 242.341C622.697 246.886 624.069 251.392 626.88 254.98V254.93Z" fill="white"/>
<path opacity="0.8" d="M651.34 243.57C651.34 246.229 650.284 248.779 648.404 250.659C646.524 252.539 643.974 253.595 641.315 253.595C638.656 253.595 636.106 252.539 634.226 250.659C632.346 248.779 631.29 246.229 631.29 243.57C631.29 240.911 632.346 238.361 634.226 236.481C636.106 234.601 638.656 233.545 641.315 233.545C643.974 233.545 646.524 234.601 648.404 236.481C650.284 238.361 651.34 240.911 651.34 243.57V243.57Z" fill="white"/>
<path opacity="0.8" d="M943.75 0.999687C946.35 1.49969 949.02 1.76969 951.55 2.51969C969.55 7.89969 980.49 19.8897 983.42 38.3497C985.77 53.1897 980.91 66.0197 970.07 76.5397C966.13 80.3597 961.43 82.9297 956.25 85.4097C956.37 83.4797 956.44 81.8097 956.61 80.1397C956.61 79.8897 957.03 79.6097 957.32 79.4597C970.91 72.6397 978.32 61.5297 979.12 46.4597C980 29.5897 970.68 15.3397 955.2 8.62969C938.08 1.21969 916.67 8.03969 907.2 24.2497C898.63 38.9297 899.34 53.4997 908.89 67.5297C912.099 72.2759 916.485 76.1076 921.62 78.6497C923.81 79.7297 924.71 81.0097 924.31 83.3297C924.268 83.9657 924.268 84.6037 924.31 85.2397C922.73 84.5197 921.31 84.0097 920.05 83.2397C913.305 79.593 907.586 74.3073 903.42 67.8697C900.231 62.8102 898.116 57.1494 897.205 51.2384C896.295 45.3275 896.609 39.2925 898.128 33.508C899.647 27.7235 902.339 22.3129 906.036 17.6118C909.733 12.9107 914.356 9.01955 919.62 6.17969C924.682 3.43991 930.241 1.73993 935.97 1.17969C936.271 1.12561 936.565 1.04187 936.85 0.929688L943.75 0.999687Z" fill="white"/>
<path opacity="0.8" d="M953.47 67.8298C953.04 72.6498 952.65 77.4798 952.16 82.2898C952.117 83.1665 951.818 84.0115 951.3 84.7198C949.51 86.7198 949.55 89.2398 949.08 91.6098C948.23 95.8998 947.43 100.21 946.62 104.51C946.607 104.861 946.517 105.204 946.355 105.516C946.194 105.828 945.965 106.101 945.686 106.314C945.407 106.527 945.084 106.676 944.741 106.749C944.397 106.823 944.042 106.82 943.7 106.74C941.406 106.58 939.104 106.58 936.81 106.74C936.492 106.808 936.163 106.807 935.846 106.737C935.529 106.667 935.23 106.53 934.97 106.335C934.71 106.139 934.496 105.89 934.34 105.605C934.185 105.319 934.093 105.004 934.07 104.68C933.323 100.946 932.59 97.2131 931.87 93.4798C931.6 92.0498 931.55 90.5598 931.15 89.1698C930.75 87.7798 929.93 86.3498 929.44 84.8998C928.82 83.3672 928.404 81.7603 928.2 80.1198C927.86 74.2398 927.71 68.3498 927.54 62.4698C927.47 60.3598 929.01 59.2698 930.65 58.8098C933.59 57.9454 936.602 57.3463 939.65 57.0198C943.102 56.7345 946.572 57.2939 949.76 58.6498C951.99 59.5598 953.44 60.9298 953.22 63.5798C953.1 64.9798 953.22 66.3998 953.22 67.8098L953.47 67.8298Z" fill="white"/>
<path opacity="0.8" d="M957.9 72.8407C957.9 71.0007 957.83 69.3507 957.95 67.7107C958.097 67.1756 958.421 66.7065 958.87 66.3807C962.44 63.3721 965.213 59.5294 966.944 55.1931C968.674 50.8568 969.308 46.1606 968.79 41.5207C967.71 29.0007 957.12 18.0007 944.58 16.3507C928.35 14.1707 914.06 24.8707 911.96 41.1207C910.7 50.8807 913.96 59.2307 921.29 65.8707C921.816 66.2746 922.229 66.8067 922.49 67.416C922.75 68.0254 922.851 68.6915 922.78 69.3507C922.7 70.4307 922.78 71.5307 922.78 72.6207C914.9 68.6207 905.94 56.8007 907.1 41.8007C908.26 26.8007 920.4 13.7407 935.29 11.7007C942.871 10.5233 950.627 12.0032 957.242 15.8897C963.857 19.7762 968.925 25.8303 971.588 33.026C974.25 40.2217 974.342 48.1165 971.85 55.3727C969.357 62.6289 964.432 68.8001 957.91 72.8407H957.9Z" fill="white"/>
<path opacity="0.8" d="M925.88 55.9296L923.12 59.6396C916.06 52.4996 914.57 38.3696 923.66 28.7796C925.779 26.5486 928.325 24.7656 931.146 23.5362C933.967 22.3068 937.006 21.656 940.083 21.6225C943.161 21.5889 946.213 22.1732 949.061 23.3407C951.908 24.5083 954.492 26.2353 956.66 28.4196C965.15 36.7596 965.55 51.7196 957.54 59.6396L954.76 55.9996C957.635 52.2943 958.984 47.63 958.533 42.9619C958.081 38.2938 955.862 33.975 952.33 30.8896C948.896 27.8936 944.468 26.2858 939.911 26.3807C935.355 26.4756 930.998 28.2662 927.691 31.4026C924.385 34.539 922.367 38.7957 922.032 43.3407C921.697 47.8857 923.069 52.3923 925.88 55.9796V55.9296Z" fill="white"/>
<path opacity="0.8" d="M950.34 44.5699C950.34 47.2287 949.284 49.7786 947.404 51.6587C945.524 53.5387 942.974 54.5949 940.315 54.5949C937.656 54.5949 935.106 53.5387 933.226 51.6587C931.346 49.7786 930.29 47.2287 930.29 44.5699C930.29 41.9111 931.346 39.3612 933.226 37.4812C935.106 35.6011 937.656 34.5449 940.315 34.5449C942.974 34.5449 945.524 35.6011 947.404 37.4812C949.284 39.3612 950.34 41.9111 950.34 44.5699V44.5699Z" fill="white"/>
<path opacity="0.8" d="M47.7498 304C50.3498 304.5 53.0198 304.77 55.5498 305.52C73.5498 310.9 84.4898 322.89 87.4198 341.35C89.7698 356.19 84.9098 369.02 74.0698 379.54C70.1298 383.36 65.4298 385.93 60.2498 388.41C60.3698 386.48 60.4398 384.81 60.6098 383.14C60.6098 382.89 61.0298 382.61 61.3198 382.46C74.9098 375.64 82.3198 364.53 83.1198 349.46C83.9998 332.59 74.6798 318.34 59.1998 311.63C42.0798 304.22 20.6698 311.04 11.1998 327.25C2.62983 341.93 3.33983 356.5 12.8898 370.53C16.0989 375.276 20.4854 379.108 25.6198 381.65C27.8098 382.73 28.7098 384.01 28.3098 386.33C28.2679 386.966 28.2679 387.604 28.3098 388.24C26.7298 387.52 25.3098 387.01 24.0498 386.24C17.3046 382.593 11.5856 377.307 7.41983 370.87C4.23085 365.81 2.11561 360.149 1.20534 354.238C0.295064 348.327 0.609188 342.293 2.12822 336.508C3.64725 330.724 6.33878 325.313 10.0358 320.612C13.7328 315.911 18.3565 312.02 23.6198 309.18C28.6821 306.44 34.2411 304.74 39.9698 304.18C40.2707 304.126 40.5655 304.042 40.8498 303.93L47.7498 304Z" fill="white"/>
<path opacity="0.8" d="M57.4699 370.83C57.0399 375.65 56.6499 380.48 56.1599 385.29C56.1175 386.167 55.8184 387.012 55.2999 387.72C53.5099 389.72 53.5499 392.24 53.0799 394.61C52.2299 398.9 51.4299 403.21 50.6199 407.51C50.607 407.861 50.5165 408.204 50.3551 408.516C50.1936 408.828 49.9652 409.101 49.686 409.314C49.4069 409.527 49.0841 409.676 48.7407 409.749C48.3973 409.823 48.0419 409.82 47.6999 409.74C45.406 409.58 43.1038 409.58 40.8099 409.74C40.4921 409.808 40.1634 409.807 39.846 409.737C39.5286 409.667 39.2299 409.53 38.9702 409.335C38.7104 409.139 38.4956 408.89 38.3403 408.605C38.185 408.319 38.0927 408.004 38.0699 407.68C37.3232 403.946 36.5899 400.213 35.8699 396.48C35.5999 395.05 35.5499 393.56 35.1499 392.17C34.7499 390.78 33.9299 389.35 33.4399 387.9C32.8204 386.367 32.4035 384.76 32.1999 383.12C31.8599 377.24 31.7099 371.35 31.5399 365.47C31.4699 363.36 33.0099 362.27 34.6499 361.81C37.5904 360.945 40.6024 360.346 43.6499 360.02C47.1022 359.734 50.5721 360.294 53.7599 361.65C55.9899 362.56 57.4399 363.93 57.2199 366.58C57.0999 367.98 57.2199 369.4 57.2199 370.81L57.4699 370.83Z" fill="white"/>
<path opacity="0.8" d="M61.9 375.841C61.9 374.001 61.83 372.351 61.9 370.711C62.0466 370.176 62.371 369.707 62.82 369.381C66.3902 366.372 69.1632 362.529 70.8936 358.193C72.6239 353.857 73.2581 349.161 72.74 344.521C71.71 332.001 61.12 321.001 48.58 319.351C32.35 317.171 18.06 327.871 15.96 344.121C14.7 353.881 17.96 362.231 25.29 368.871C25.8156 369.275 26.2286 369.807 26.4895 370.416C26.7504 371.025 26.8504 371.692 26.78 372.351C26.7 373.431 26.78 374.531 26.78 375.621C18.9 371.621 9.93999 359.801 11.1 344.801C12.26 329.801 24.4 316.741 39.29 314.701C46.8715 313.523 54.6269 315.003 61.2421 318.89C67.8573 322.776 72.9253 328.83 75.5875 336.026C78.2497 343.222 78.3423 351.117 75.8496 358.373C73.3569 365.629 68.4322 371.8 61.91 375.841H61.9Z" fill="white"/>
<path opacity="0.8" d="M29.8796 358.93L27.1196 362.64C20.0596 355.5 18.5696 341.37 27.6596 331.78C29.7792 329.549 32.3249 327.766 35.146 326.536C37.9671 325.307 41.0063 324.656 44.0835 324.622C47.1607 324.589 50.2133 325.173 53.0606 326.341C55.9078 327.508 58.4919 329.235 60.6596 331.42C69.1496 339.76 69.5496 354.72 61.5396 362.64L58.7596 359C61.6346 355.294 62.9844 350.63 62.5327 345.962C62.0809 341.294 59.8618 336.975 56.3296 333.89C52.8955 330.894 48.4675 329.286 43.9112 329.381C39.3548 329.476 34.9976 331.266 31.6912 334.403C28.3848 337.539 26.3669 341.796 26.0319 346.341C25.6968 350.886 27.0688 355.392 29.8796 358.98V358.93Z" fill="white"/>
<path opacity="0.8" d="M54.3398 347.57C54.3398 350.222 53.2863 352.766 51.4109 354.641C49.5355 356.517 46.992 357.57 44.3398 357.57C41.6877 357.57 39.1441 356.517 37.2688 354.641C35.3934 352.766 34.3398 350.222 34.3398 347.57C34.3398 344.918 35.3934 342.375 37.2688 340.499C39.1441 338.624 41.6877 337.57 44.3398 337.57C46.992 337.57 49.5355 338.624 51.4109 340.499C53.2863 342.375 54.3398 344.918 54.3398 347.57Z" fill="white"/>
<path opacity="0.8" d="M402.75 480C405.35 480.5 408.02 480.77 410.55 481.52C428.55 486.9 439.49 498.89 442.42 517.35C444.77 532.19 439.91 545.02 429.07 555.54C425.13 559.36 420.43 561.93 415.25 564.41C415.37 562.48 415.44 560.81 415.61 559.14C415.61 558.89 416.03 558.61 416.32 558.46C429.91 551.64 437.32 540.53 438.12 525.46C439 508.59 429.68 494.34 414.2 487.63C397.08 480.22 375.67 487.04 366.2 503.25C357.63 517.93 358.34 532.5 367.89 546.53C371.099 551.276 375.485 555.108 380.62 557.65C382.81 558.73 383.71 560.01 383.31 562.33C383.268 562.966 383.268 563.604 383.31 564.24C381.73 563.52 380.31 563.01 379.05 562.24C372.305 558.593 366.586 553.307 362.42 546.87C359.231 541.81 357.116 536.149 356.205 530.238C355.295 524.327 355.609 518.293 357.128 512.508C358.647 506.723 361.339 501.313 365.036 496.612C368.733 491.911 373.356 488.02 378.62 485.18C383.682 482.44 389.241 480.74 394.97 480.18C395.271 480.126 395.565 480.042 395.85 479.93L402.75 480Z" fill="white"/>
<path opacity="0.8" d="M412.47 546.83C412.04 551.65 411.65 556.48 411.16 561.29C411.117 562.166 410.818 563.011 410.3 563.72C408.51 565.72 408.55 568.24 408.08 570.61C407.23 574.9 406.43 579.21 405.62 583.51C405.607 583.861 405.517 584.204 405.355 584.516C405.194 584.828 404.965 585.101 404.686 585.314C404.407 585.527 404.084 585.676 403.741 585.749C403.397 585.823 403.042 585.82 402.7 585.74C400.406 585.58 398.104 585.58 395.81 585.74C395.492 585.808 395.163 585.807 394.846 585.737C394.529 585.667 394.23 585.53 393.97 585.335C393.71 585.139 393.496 584.89 393.34 584.605C393.185 584.319 393.093 584.004 393.07 583.68C392.323 579.953 391.59 576.22 390.87 572.48C390.6 571.05 390.55 569.56 390.15 568.17C389.75 566.78 388.93 565.35 388.44 563.9C387.82 562.367 387.404 560.76 387.2 559.12C386.86 553.24 386.71 547.35 386.54 541.47C386.47 539.36 388.01 538.27 389.65 537.81C392.59 536.945 395.602 536.346 398.65 536.02C402.102 535.734 405.572 536.294 408.76 537.65C410.99 538.56 412.44 539.93 412.22 542.58C412.1 543.98 412.22 545.4 412.22 546.81L412.47 546.83Z" fill="white"/>
<path opacity="0.8" d="M416.9 551.839C416.9 549.999 416.83 548.349 416.95 546.709C417.097 546.174 417.421 545.705 417.87 545.379C421.44 542.37 424.213 538.527 425.944 534.191C427.674 529.855 428.308 525.159 427.79 520.519C426.71 507.999 416.12 496.999 403.58 495.349C387.35 493.169 373.06 503.869 370.96 520.119C369.7 529.879 372.96 538.229 380.29 544.869C380.816 545.273 381.229 545.805 381.49 546.414C381.75 547.023 381.85 547.69 381.78 548.349C381.7 549.429 381.78 550.529 381.78 551.619C373.9 547.619 364.94 535.799 366.1 520.799C367.26 505.799 379.4 492.739 394.29 490.699C401.871 489.521 409.627 491.001 416.242 494.888C422.857 498.774 427.925 504.828 430.588 512.024C433.25 519.22 433.342 527.115 430.85 534.371C428.357 541.627 423.432 547.798 416.91 551.839H416.9Z" fill="white"/>
<path opacity="0.8" d="M384.88 534.93L382.12 538.64C375.06 531.5 373.57 517.37 382.66 507.78C384.779 505.549 387.325 503.766 390.146 502.536C392.967 501.307 396.006 500.656 399.083 500.622C402.161 500.589 405.213 501.173 408.061 502.341C410.908 503.508 413.492 505.235 415.66 507.42C424.15 515.76 424.55 530.72 416.54 538.64L413.76 535C416.635 531.294 417.984 526.63 417.533 521.962C417.081 517.294 414.862 512.975 411.33 509.89C407.896 506.894 403.468 505.286 398.911 505.381C394.355 505.476 389.998 507.266 386.691 510.403C383.385 513.539 381.367 517.796 381.032 522.341C380.697 526.886 382.069 531.392 384.88 534.98V534.93Z" fill="white"/>
<path opacity="0.8" d="M409.34 523.57C409.34 526.222 408.286 528.766 406.411 530.641C404.536 532.517 401.992 533.57 399.34 533.57C396.688 533.57 394.144 532.517 392.269 530.641C390.393 528.766 389.34 526.222 389.34 523.57C389.34 520.918 390.393 518.375 392.269 516.499C394.144 514.624 396.688 513.57 399.34 513.57C401.992 513.57 404.536 514.624 406.411 516.499C408.286 518.375 409.34 520.918 409.34 523.57V523.57Z" fill="white"/>
<path opacity="0.8" d="M813.75 494C816.35 494.5 819.02 494.77 821.55 495.52C839.55 500.9 850.49 512.89 853.42 531.35C855.77 546.19 850.91 559.02 840.07 569.54C836.13 573.36 831.43 575.93 826.25 578.41C826.37 576.48 826.44 574.81 826.61 573.14C826.61 572.89 827.03 572.61 827.32 572.46C840.91 565.64 848.32 554.53 849.12 539.46C850 522.59 840.68 508.34 825.2 501.63C808.08 494.22 786.67 501.04 777.2 517.25C768.63 531.93 769.34 546.5 778.89 560.53C782.099 565.276 786.485 569.108 791.62 571.65C793.81 572.73 794.71 574.01 794.31 576.33C794.268 576.966 794.268 577.604 794.31 578.24C792.73 577.52 791.31 577.01 790.05 576.24C783.305 572.593 777.586 567.307 773.42 560.87C770.231 555.81 768.116 550.149 767.205 544.238C766.295 538.327 766.609 532.293 768.128 526.508C769.647 520.723 772.339 515.313 776.036 510.612C779.733 505.911 784.356 502.02 789.62 499.18C794.682 496.44 800.241 494.74 805.97 494.18C806.271 494.126 806.565 494.042 806.85 493.93L813.75 494Z" fill="white"/>
<path opacity="0.8" d="M823.47 560.83C823.04 565.65 822.65 570.48 822.16 575.29C822.117 576.166 821.818 577.011 821.3 577.72C819.51 579.72 819.55 582.24 819.08 584.61C818.23 588.9 817.43 593.21 816.62 597.51C816.607 597.861 816.517 598.204 816.355 598.516C816.194 598.828 815.965 599.101 815.686 599.314C815.407 599.527 815.084 599.676 814.741 599.749C814.397 599.823 814.042 599.82 813.7 599.74C811.406 599.58 809.104 599.58 806.81 599.74C806.492 599.808 806.163 599.807 805.846 599.737C805.529 599.667 805.23 599.53 804.97 599.335C804.71 599.139 804.496 598.89 804.34 598.605C804.185 598.319 804.093 598.004 804.07 597.68C803.323 593.953 802.59 590.22 801.87 586.48C801.6 585.05 801.55 583.56 801.15 582.17C800.75 580.78 799.93 579.35 799.44 577.9C798.82 576.367 798.404 574.76 798.2 573.12C797.86 567.24 797.71 561.35 797.54 555.47C797.47 553.36 799.01 552.27 800.65 551.81C803.59 550.945 806.602 550.346 809.65 550.02C813.102 549.734 816.572 550.294 819.76 551.65C821.99 552.56 823.44 553.93 823.22 556.58C823.1 557.98 823.22 559.4 823.22 560.81L823.47 560.83Z" fill="white"/>
<path opacity="0.8" d="M827.9 565.839C827.9 563.999 827.83 562.349 827.95 560.709C828.097 560.174 828.421 559.705 828.87 559.379C832.44 556.37 835.213 552.527 836.944 548.191C838.674 543.855 839.308 539.159 838.79 534.519C837.71 521.999 827.12 510.999 814.58 509.349C798.35 507.169 784.06 517.869 781.96 534.119C780.7 543.879 783.96 552.229 791.29 558.869C791.816 559.273 792.229 559.805 792.49 560.414C792.75 561.023 792.851 561.69 792.78 562.349C792.7 563.429 792.78 564.529 792.78 565.619C784.9 561.619 775.94 549.799 777.1 534.799C778.26 519.799 790.4 506.739 805.29 504.699C812.871 503.521 820.627 505.001 827.242 508.888C833.857 512.774 838.925 518.828 841.588 526.024C844.25 533.22 844.342 541.115 841.85 548.371C839.357 555.627 834.432 561.798 827.91 565.839H827.9Z" fill="white"/>
<path opacity="0.8" d="M795.88 548.93L793.12 552.64C786.06 545.5 784.57 531.37 793.66 521.78C795.779 519.549 798.325 517.766 801.146 516.536C803.967 515.307 807.006 514.656 810.083 514.622C813.161 514.589 816.213 515.173 819.061 516.341C821.908 517.508 824.492 519.235 826.66 521.42C835.15 529.76 835.55 544.72 827.54 552.64L824.76 549C827.635 545.294 828.984 540.63 828.533 535.962C828.081 531.294 825.862 526.975 822.33 523.89C818.896 520.894 814.468 519.286 809.911 519.381C805.355 519.476 800.998 521.266 797.691 524.403C794.385 527.539 792.367 531.796 792.032 536.341C791.697 540.886 793.069 545.392 795.88 548.98V548.93Z" fill="white"/>
<path opacity="0.8" d="M820.34 537.57C820.34 540.229 819.284 542.779 817.404 544.659C815.524 546.539 812.974 547.595 810.315 547.595C807.656 547.595 805.106 546.539 803.226 544.659C801.346 542.779 800.29 540.229 800.29 537.57C800.29 534.911 801.346 532.361 803.226 530.481C805.106 528.601 807.656 527.545 810.315 527.545C812.974 527.545 815.524 528.601 817.404 530.481C819.284 532.361 820.34 534.911 820.34 537.57V537.57Z" fill="white"/>
<path opacity="0.8" d="M147.85 713C150.45 713.5 153.12 713.77 155.65 714.52C173.65 719.9 184.59 731.89 187.52 750.35C189.87 765.19 185.01 778.02 174.17 788.54C170.23 792.36 165.53 794.93 160.34 797.41C160.46 795.48 160.54 793.81 160.7 792.14C160.7 791.89 161.13 791.61 161.42 791.46C175.01 784.64 182.42 773.53 183.22 758.46C184.1 741.59 174.78 727.34 159.3 720.63C142.17 713.22 120.77 720.04 111.3 736.25C102.73 750.93 103.44 765.5 112.99 779.53C116.199 784.276 120.585 788.108 125.72 790.65C127.9 791.73 128.81 793.01 128.41 795.33C128.368 795.966 128.368 796.604 128.41 797.24C126.83 796.52 125.41 796.01 124.15 795.24C117.405 791.593 111.686 786.308 107.52 779.87C104.331 774.811 102.216 769.15 101.305 763.239C100.395 757.328 100.709 751.293 102.228 745.508C103.747 739.724 106.439 734.313 110.136 729.612C113.833 724.911 118.457 721.02 123.72 718.18C128.782 715.439 134.341 713.739 140.07 713.18C140.385 713.152 140.697 713.092 141 713H147.85Z" fill="white"/>
<path opacity="0.8" d="M157.57 779.829C157.14 784.649 156.74 789.479 156.26 794.289C156.214 795.167 155.911 796.012 155.39 796.719C153.61 798.719 153.65 801.239 153.18 803.609C152.33 807.899 151.53 812.209 150.72 816.509C150.707 816.86 150.616 817.204 150.455 817.516C150.293 817.828 150.065 818.1 149.786 818.313C149.507 818.527 149.184 818.675 148.84 818.749C148.497 818.823 148.142 818.819 147.8 818.739C145.506 818.579 143.204 818.579 140.91 818.739C140.592 818.807 140.263 818.807 139.946 818.737C139.628 818.667 139.33 818.529 139.07 818.334C138.81 818.139 138.595 817.89 138.44 817.605C138.285 817.319 138.192 817.004 138.17 816.679C137.423 812.953 136.69 809.219 135.97 805.479C135.7 804.049 135.64 802.559 135.24 801.169C134.84 799.779 134.02 798.349 133.54 796.899C132.92 795.367 132.503 793.76 132.3 792.119C131.96 786.239 131.81 780.349 131.63 774.469C131.57 772.359 133.11 771.269 134.75 770.809C137.69 769.945 140.702 769.346 143.75 769.019C147.202 768.735 150.672 769.294 153.86 770.649C156.09 771.559 157.54 772.929 157.32 775.579C157.2 776.979 157.32 778.399 157.32 779.809L157.57 779.829Z" fill="white"/>
<path opacity="0.8" d="M162 784.841C162 783.001 161.93 781.351 162 779.711C162.154 779.176 162.481 778.709 162.93 778.381C166.5 775.372 169.273 771.529 171.003 767.193C172.734 762.857 173.368 758.161 172.85 753.521C171.81 741.001 161.22 730.001 148.68 728.351C132.45 726.171 118.16 736.871 116.06 753.121C114.8 762.881 118.06 771.231 125.39 777.871C125.915 778.274 126.328 778.807 126.589 779.416C126.85 780.025 126.95 780.691 126.88 781.351C126.8 782.431 126.88 783.531 126.88 784.621C119 780.621 110.04 768.801 111.2 753.801C112.36 738.801 124.5 725.741 139.39 723.701C146.97 722.526 154.723 724.009 161.336 727.896C167.949 731.784 173.015 737.838 175.675 745.032C178.336 752.227 178.428 760.12 175.936 767.375C173.443 774.63 168.52 780.8 162 784.841V784.841Z" fill="white"/>
<path opacity="0.8" d="M130 767.93L127.24 771.64C120.18 764.5 118.69 750.37 127.78 740.78C129.899 738.549 132.445 736.766 135.266 735.536C138.087 734.307 141.126 733.656 144.204 733.622C147.281 733.589 150.333 734.173 153.181 735.341C156.028 736.508 158.612 738.235 160.78 740.42C169.28 748.76 169.67 763.72 161.67 771.64L158.86 768C161.735 764.294 163.085 759.63 162.633 754.962C162.181 750.294 159.962 745.975 156.43 742.89C152.99 739.964 148.59 738.413 144.077 738.534C139.563 738.655 135.253 740.44 131.975 743.546C128.697 746.651 126.682 750.859 126.317 755.359C125.953 759.86 127.264 764.337 130 767.93V767.93Z" fill="white"/>
<path opacity="0.8" d="M154.44 756.57C154.44 759.229 153.383 761.779 151.503 763.659C149.623 765.539 147.073 766.595 144.415 766.595C141.756 766.595 139.206 765.539 137.326 763.659C135.446 761.779 134.39 759.229 134.39 756.57C134.39 753.911 135.446 751.361 137.326 749.481C139.206 747.601 141.756 746.545 144.415 746.545C147.073 746.545 149.623 747.601 151.503 749.481C153.383 751.361 154.44 753.911 154.44 756.57V756.57Z" fill="white"/>
<path opacity="0.8" d="M596.75 866C599.35 866.5 602.02 866.77 604.55 867.52C622.55 872.9 633.49 884.89 636.42 903.35C638.77 918.19 633.91 931.02 623.07 941.54C619.13 945.36 614.43 947.93 609.25 950.41C609.37 948.48 609.44 946.81 609.61 945.14C609.61 944.89 610.03 944.61 610.32 944.46C623.91 937.64 631.32 926.53 632.12 911.46C633 894.59 623.68 880.34 608.2 873.63C591.08 866.22 569.67 873.04 560.2 889.25C551.63 903.93 552.34 918.5 561.89 932.53C565.099 937.276 569.485 941.108 574.62 943.65C576.81 944.73 577.71 946.01 577.31 948.33C577.268 948.966 577.268 949.604 577.31 950.24C575.73 949.52 574.31 949.01 573.05 948.24C566.305 944.593 560.586 939.307 556.42 932.87C553.231 927.81 551.116 922.149 550.205 916.238C549.295 910.327 549.609 904.293 551.128 898.508C552.647 892.723 555.339 887.313 559.036 882.612C562.733 877.911 567.356 874.02 572.62 871.18C577.682 868.44 583.241 866.74 588.97 866.18C589.271 866.126 589.565 866.042 589.85 865.93L596.75 866Z" fill="white"/>
<path opacity="0.8" d="M606.47 932.83C606.04 937.65 605.65 942.48 605.16 947.29C605.117 948.166 604.818 949.011 604.3 949.72C602.51 951.72 602.55 954.24 602.08 956.61C601.23 960.9 600.43 965.21 599.62 969.51C599.607 969.861 599.517 970.204 599.355 970.516C599.194 970.828 598.965 971.101 598.686 971.314C598.407 971.527 598.084 971.676 597.741 971.749C597.397 971.823 597.042 971.82 596.7 971.74C594.406 971.58 592.104 971.58 589.81 971.74C589.492 971.808 589.163 971.807 588.846 971.737C588.529 971.667 588.23 971.53 587.97 971.335C587.71 971.139 587.496 970.89 587.34 970.605C587.185 970.319 587.093 970.004 587.07 969.68C586.323 965.953 585.59 962.22 584.87 958.48C584.6 957.05 584.55 955.56 584.15 954.17C583.75 952.78 582.93 951.35 582.44 949.9C581.82 948.367 581.404 946.76 581.2 945.12C580.86 939.24 580.71 933.35 580.54 927.47C580.47 925.36 582.01 924.27 583.65 923.81C586.59 922.945 589.602 922.346 592.65 922.02C596.102 921.734 599.572 922.294 602.76 923.65C604.99 924.56 606.44 925.93 606.22 928.58C606.1 929.98 606.22 931.4 606.22 932.81L606.47 932.83Z" fill="white"/>
<path opacity="0.8" d="M610.9 937.839C610.9 935.999 610.83 934.349 610.95 932.709C611.097 932.174 611.421 931.705 611.87 931.379C615.44 928.37 618.213 924.527 619.944 920.191C621.674 915.855 622.308 911.159 621.79 906.519C620.71 893.999 610.12 882.999 597.58 881.349C581.35 879.169 567.06 889.869 564.96 906.119C563.7 915.879 566.96 924.229 574.29 930.869C574.816 931.273 575.229 931.805 575.49 932.414C575.75 933.023 575.851 933.69 575.78 934.349C575.7 935.429 575.78 936.529 575.78 937.619C567.9 933.619 558.94 921.799 560.1 906.799C561.26 891.799 573.4 878.739 588.29 876.699C595.871 875.521 603.627 877.001 610.242 880.888C616.857 884.774 621.925 890.828 624.588 898.024C627.25 905.22 627.342 913.115 624.85 920.371C622.357 927.627 617.432 933.798 610.91 937.839H610.9Z" fill="white"/>
<path opacity="0.8" d="M578.88 920.93L576.12 924.64C569.06 917.5 567.57 903.37 576.66 893.78C578.779 891.549 581.325 889.766 584.146 888.536C586.967 887.307 590.006 886.656 593.083 886.622C596.161 886.589 599.213 887.173 602.061 888.341C604.908 889.508 607.492 891.235 609.66 893.42C618.15 901.76 618.55 916.72 610.54 924.64L607.76 921C610.635 917.294 611.984 912.63 611.533 907.962C611.081 903.294 608.862 898.975 605.33 895.89C601.896 892.894 597.468 891.286 592.911 891.381C588.355 891.476 583.998 893.266 580.691 896.403C577.385 899.539 575.367 903.796 575.032 908.341C574.697 912.886 576.069 917.392 578.88 920.98V920.93Z" fill="white"/>
<path opacity="0.8" d="M603.34 909.57C603.34 910.886 603.081 912.19 602.577 913.406C602.073 914.623 601.335 915.728 600.404 916.659C599.473 917.59 598.368 918.328 597.151 918.832C595.935 919.336 594.632 919.595 593.315 919.595C591.999 919.595 590.695 919.336 589.479 918.832C588.262 918.328 587.157 917.59 586.226 916.659C585.295 915.728 584.557 914.623 584.053 913.406C583.549 912.19 583.29 910.886 583.29 909.57C583.29 906.911 584.346 904.361 586.226 902.481C588.106 900.601 590.656 899.545 593.315 899.545C595.974 899.545 598.524 900.601 600.404 902.481C602.284 904.361 603.34 906.911 603.34 909.57V909.57Z" fill="white"/>
<path opacity="0.8" d="M987.75 741C990.35 741.5 993.02 741.77 995.55 742.52C1013.55 747.9 1024.49 759.89 1027.42 778.35C1029.77 793.19 1024.91 806.02 1014.07 816.54C1010.13 820.36 1005.43 822.93 1000.25 825.41C1000.37 823.48 1000.44 821.81 1000.61 820.14C1000.61 819.89 1001.03 819.61 1001.32 819.46C1014.91 812.64 1022.32 801.53 1023.12 786.46C1024 769.59 1014.68 755.34 999.2 748.63C982.08 741.22 960.67 748.04 951.2 764.25C942.63 778.93 943.34 793.5 952.89 807.53C956.099 812.276 960.485 816.108 965.62 818.65C967.81 819.73 968.71 821.01 968.31 823.33C968.268 823.966 968.268 824.604 968.31 825.24C966.73 824.52 965.31 824.01 964.05 823.24C957.305 819.593 951.586 814.307 947.42 807.87C944.231 802.81 942.116 797.149 941.205 791.238C940.295 785.327 940.609 779.293 942.128 773.508C943.647 767.723 946.339 762.313 950.036 757.612C953.733 752.911 958.356 749.02 963.62 746.18C968.682 743.44 974.241 741.74 979.97 741.18C980.271 741.126 980.565 741.042 980.85 740.93L987.75 741Z" fill="white"/>
<path opacity="0.8" d="M997.47 807.83C997.04 812.65 996.65 817.48 996.16 822.29C996.117 823.166 995.818 824.011 995.3 824.72C993.51 826.72 993.55 829.24 993.08 831.61C992.23 835.9 991.43 840.21 990.62 844.51C990.607 844.861 990.517 845.204 990.355 845.516C990.194 845.828 989.965 846.101 989.686 846.314C989.407 846.527 989.084 846.676 988.741 846.749C988.397 846.823 988.042 846.82 987.7 846.74C985.406 846.58 983.104 846.58 980.81 846.74C980.492 846.808 980.163 846.807 979.846 846.737C979.529 846.667 979.23 846.53 978.97 846.335C978.71 846.139 978.496 845.89 978.34 845.605C978.185 845.319 978.093 845.004 978.07 844.68C977.323 840.953 976.59 837.22 975.87 833.48C975.6 832.05 975.55 830.56 975.15 829.17C974.75 827.78 973.93 826.35 973.44 824.9C972.82 823.367 972.403 821.76 972.2 820.12C971.86 814.24 971.71 808.35 971.54 802.47C971.47 800.36 973.01 799.27 974.65 798.81C977.59 797.945 980.602 797.346 983.65 797.02C987.102 796.734 990.572 797.294 993.76 798.65C995.99 799.56 997.44 800.93 997.22 803.58C997.1 804.98 997.22 806.4 997.22 807.81L997.47 807.83Z" fill="white"/>
<path opacity="0.8" d="M1001.9 812.839C1001.9 810.999 1001.83 809.349 1001.9 807.709C1002.05 807.174 1002.37 806.705 1002.82 806.379C1006.39 803.37 1009.16 799.527 1010.89 795.191C1012.62 790.855 1013.26 786.159 1012.74 781.519C1011.66 769.009 1001.07 758.029 988.53 756.349C972.3 754.169 958.01 764.869 955.91 781.119C954.65 790.879 957.91 799.229 965.24 805.869C965.765 806.273 966.178 806.805 966.439 807.414C966.7 808.023 966.8 808.69 966.73 809.349C966.65 810.429 966.73 811.529 966.73 812.619C958.85 808.619 949.89 796.799 951.05 781.799C952.21 766.799 964.35 753.739 979.24 751.699C986.821 750.521 994.577 752.001 1001.19 755.888C1007.81 759.774 1012.88 765.828 1015.54 773.024C1018.2 780.22 1018.29 788.115 1015.8 795.371C1013.31 802.627 1008.38 808.798 1001.86 812.839H1001.9Z" fill="white"/>
<path opacity="0.8" d="M969.88 795.93L967.12 799.64C960.06 792.5 958.57 778.37 967.66 768.78C969.779 766.549 972.325 764.766 975.146 763.536C977.967 762.307 981.006 761.656 984.083 761.622C987.161 761.589 990.213 762.173 993.06 763.341C995.908 764.508 998.492 766.235 1000.66 768.42C1009.15 776.76 1009.55 791.72 1001.54 799.64L998.76 795.95C1001.63 792.244 1002.98 787.58 1002.53 782.912C1002.08 778.244 999.862 773.925 996.33 770.84C992.895 767.844 988.468 766.236 983.911 766.331C979.355 766.426 974.998 768.216 971.691 771.353C968.385 774.489 966.367 778.746 966.032 783.291C965.697 787.836 967.069 792.342 969.88 795.93V795.93Z" fill="white"/>
<path opacity="0.8" d="M994.34 784.57C994.34 787.222 993.286 789.766 991.411 791.641C989.536 793.517 986.992 794.57 984.34 794.57C981.688 794.57 979.144 793.517 977.269 791.641C975.393 789.766 974.34 787.222 974.34 784.57C974.34 781.918 975.393 779.375 977.269 777.499C979.144 775.624 981.688 774.57 984.34 774.57C986.992 774.57 989.536 775.624 991.411 777.499C993.286 779.375 994.34 781.918 994.34 784.57V784.57Z" fill="white"/>
<path opacity="0.8" d="M60.7498 1061C63.3498 1061.5 66.0198 1061.77 68.5498 1062.52C86.5498 1067.9 97.4898 1079.89 100.42 1098.35C102.77 1113.19 97.9098 1126.02 87.0698 1136.54C83.1298 1140.36 78.4298 1142.93 73.2498 1145.41C73.3698 1143.48 73.4398 1141.81 73.6098 1140.14C73.6098 1139.89 74.0298 1139.61 74.3198 1139.46C87.9098 1132.64 95.3198 1121.53 96.1198 1106.46C96.9998 1089.59 87.6798 1075.34 72.1998 1068.63C55.0798 1061.22 33.6698 1068.04 24.1998 1084.25C15.6298 1098.93 16.3398 1113.5 25.8898 1127.53C29.0989 1132.28 33.4854 1136.11 38.6198 1138.65C40.8098 1139.73 41.7098 1141.01 41.3098 1143.33C41.2679 1143.97 41.2679 1144.6 41.3098 1145.24C39.7298 1144.52 38.3098 1144.01 37.0498 1143.24C30.3046 1139.59 24.5856 1134.31 20.4198 1127.87C17.2309 1122.81 15.1156 1117.15 14.2053 1111.24C13.2951 1105.33 13.6092 1099.29 15.1282 1093.51C16.6472 1087.72 19.3388 1082.31 23.0358 1077.61C26.7328 1072.91 31.3565 1069.02 36.6198 1066.18C41.6821 1063.44 47.241 1061.74 52.9698 1061.18C53.2707 1061.13 53.5655 1061.04 53.8498 1060.93L60.7498 1061Z" fill="white"/>
<path opacity="0.8" d="M70.4699 1127.83C70.0399 1132.65 69.6499 1137.48 69.1599 1142.29C69.1175 1143.17 68.8184 1144.01 68.2999 1144.72C66.5099 1146.72 66.5499 1149.24 66.0799 1151.61C65.2299 1155.9 64.4299 1160.21 63.6199 1164.51C63.607 1164.86 63.5165 1165.2 63.3551 1165.52C63.1936 1165.83 62.9652 1166.1 62.686 1166.31C62.4069 1166.53 62.0841 1166.68 61.7407 1166.75C61.3973 1166.82 61.0419 1166.82 60.6999 1166.74C58.406 1166.58 56.1038 1166.58 53.8099 1166.74C53.4921 1166.81 53.1634 1166.81 52.846 1166.74C52.5286 1166.67 52.2299 1166.53 51.9702 1166.33C51.7104 1166.14 51.4956 1165.89 51.3403 1165.6C51.185 1165.32 51.0927 1165 51.0699 1164.68C50.3232 1160.95 49.5899 1157.21 48.8699 1153.48C48.5999 1152.05 48.5499 1150.56 48.1499 1149.17C47.7499 1147.78 46.9299 1146.35 46.4399 1144.9C45.8204 1143.37 45.4035 1141.76 45.1999 1140.12C44.8599 1134.24 44.7099 1128.35 44.5399 1122.47C44.4699 1120.36 46.0099 1119.27 47.6499 1118.81C50.5904 1117.95 53.6024 1117.35 56.6499 1117.02C60.1022 1116.73 63.5721 1117.29 66.7599 1118.65C68.9899 1119.56 70.4399 1120.93 70.2199 1123.58C70.0999 1124.98 70.2199 1126.4 70.2199 1127.81L70.4699 1127.83Z" fill="white"/>
<path opacity="0.8" d="M74.8997 1132.84C74.8997 1131 74.8297 1129.35 74.8997 1127.71C75.0462 1127.17 75.3708 1126.7 75.8197 1126.38C79.3899 1123.37 82.1629 1119.53 83.8933 1115.19C85.6236 1110.85 86.2578 1106.16 85.7397 1101.52C84.6597 1089.01 74.0697 1078.03 61.5297 1076.35C45.2997 1074.17 31.0097 1084.87 28.9097 1101.12C27.6497 1110.88 30.9097 1119.23 38.2397 1125.87C38.7653 1126.27 39.1783 1126.8 39.4392 1127.41C39.7001 1128.02 39.8002 1128.69 39.7297 1129.35C39.6497 1130.43 39.7297 1131.53 39.7297 1132.62C31.8497 1128.62 22.8897 1116.8 24.0497 1101.8C25.2097 1086.8 37.3497 1073.74 52.2397 1071.7C59.8212 1070.52 67.5766 1072 74.1918 1075.89C80.807 1079.77 85.875 1085.83 88.5372 1093.02C91.1994 1100.22 91.292 1108.11 88.7993 1115.37C86.3066 1122.63 81.3819 1128.8 74.8597 1132.84H74.8997Z" fill="white"/>
<path opacity="0.8" d="M42.8796 1115.93L40.1196 1119.64C33.0596 1112.5 31.5696 1098.37 40.6596 1088.78C42.7792 1086.55 45.3249 1084.77 48.146 1083.54C50.9671 1082.31 54.0063 1081.66 57.0835 1081.62C60.1607 1081.59 63.2133 1082.17 66.0606 1083.34C68.9078 1084.51 71.4919 1086.24 73.6596 1088.42C82.1496 1096.76 82.5496 1111.72 74.5396 1119.64L71.7596 1115.95C74.6346 1112.24 75.9844 1107.58 75.5327 1102.91C75.0809 1098.24 72.8618 1093.92 69.3296 1090.84C65.8955 1087.84 61.4675 1086.24 56.9112 1086.33C52.3548 1086.43 47.9976 1088.22 44.6912 1091.35C41.3848 1094.49 39.3669 1098.75 39.0319 1103.29C38.6968 1107.84 40.0688 1112.34 42.8796 1115.93V1115.93Z" fill="white"/>
<path opacity="0.8" d="M67.3398 1104.57C67.3398 1107.22 66.2863 1109.77 64.4109 1111.64C62.5355 1113.52 59.992 1114.57 57.3398 1114.57C54.6877 1114.57 52.1441 1113.52 50.2688 1111.64C48.3934 1109.77 47.3398 1107.22 47.3398 1104.57C47.3398 1101.92 48.3934 1099.37 50.2688 1097.5C52.1441 1095.62 54.6877 1094.57 57.3398 1094.57C59.992 1094.57 62.5355 1095.62 64.4109 1097.5C66.2863 1099.37 67.3398 1101.92 67.3398 1104.57Z" fill="white"/>
<path opacity="0.8" d="M431.75 1225C434.35 1225.5 437.02 1225.77 439.55 1226.52C457.55 1231.9 468.49 1243.89 471.42 1262.35C473.77 1277.19 468.91 1290.02 458.07 1300.54C454.13 1304.36 449.43 1306.93 444.25 1309.41C444.37 1307.48 444.44 1305.81 444.61 1304.14C444.61 1303.89 445.03 1303.61 445.32 1303.46C458.91 1296.64 466.32 1285.53 467.12 1270.46C468 1253.59 458.68 1239.34 443.2 1232.63C426.08 1225.22 404.67 1232.04 395.2 1248.25C386.63 1262.93 387.34 1277.5 396.89 1291.53C400.099 1296.28 404.485 1300.11 409.62 1302.65C411.81 1303.73 412.71 1305.01 412.31 1307.33C412.268 1307.97 412.268 1308.6 412.31 1309.24C410.73 1308.52 409.31 1308.01 408.05 1307.24C401.305 1303.59 395.586 1298.31 391.42 1291.87C388.231 1286.81 386.116 1281.15 385.205 1275.24C384.295 1269.33 384.609 1263.29 386.128 1257.51C387.647 1251.72 390.339 1246.31 394.036 1241.61C397.733 1236.91 402.356 1233.02 407.62 1230.18C412.682 1227.44 418.241 1225.74 423.97 1225.18C424.271 1225.13 424.565 1225.04 424.85 1224.93L431.75 1225Z" fill="white"/>
<path opacity="0.8" d="M441.47 1291.83C441.04 1296.65 440.65 1301.48 440.16 1306.29C440.117 1307.17 439.818 1308.01 439.3 1308.72C437.51 1310.72 437.55 1313.24 437.08 1315.61C436.23 1319.9 435.43 1324.21 434.62 1328.51C434.607 1328.86 434.517 1329.2 434.355 1329.52C434.194 1329.83 433.965 1330.1 433.686 1330.31C433.407 1330.53 433.084 1330.68 432.741 1330.75C432.397 1330.82 432.042 1330.82 431.7 1330.74C429.406 1330.58 427.104 1330.58 424.81 1330.74C424.492 1330.81 424.163 1330.81 423.846 1330.74C423.529 1330.67 423.23 1330.53 422.97 1330.33C422.71 1330.14 422.496 1329.89 422.34 1329.6C422.185 1329.32 422.093 1329 422.07 1328.68C421.323 1324.95 420.59 1321.21 419.87 1317.48C419.6 1316.05 419.55 1314.56 419.15 1313.17C418.75 1311.78 417.93 1310.35 417.44 1308.9C416.82 1307.37 416.404 1305.76 416.2 1304.12C415.86 1298.24 415.71 1292.35 415.54 1286.47C415.47 1284.36 417.01 1283.27 418.65 1282.81C421.59 1281.95 424.602 1281.35 427.65 1281.02C431.102 1280.73 434.572 1281.29 437.76 1282.65C439.99 1283.56 441.44 1284.93 441.22 1287.58C441.1 1288.98 441.22 1290.4 441.22 1291.81L441.47 1291.83Z" fill="white"/>
<path opacity="0.8" d="M445.9 1296.84C445.9 1295 445.83 1293.35 445.95 1291.71C446.097 1291.17 446.421 1290.7 446.87 1290.38C450.44 1287.37 453.213 1283.53 454.944 1279.19C456.674 1274.85 457.308 1270.16 456.79 1265.52C455.71 1253.01 445.12 1242.03 432.58 1240.35C416.35 1238.17 402.06 1248.87 399.96 1265.12C398.7 1274.88 401.96 1283.23 409.29 1289.87C409.816 1290.27 410.229 1290.8 410.49 1291.41C410.75 1292.02 410.85 1292.69 410.78 1293.35C410.7 1294.43 410.78 1295.53 410.78 1296.62C402.9 1292.62 393.94 1280.8 395.1 1265.8C396.26 1250.8 408.4 1237.74 423.29 1235.7C430.871 1234.52 438.627 1236 445.242 1239.89C451.857 1243.77 456.925 1249.83 459.588 1257.02C462.25 1264.22 462.342 1272.11 459.85 1279.37C457.357 1286.63 452.432 1292.8 445.91 1296.84H445.9Z" fill="white"/>
<path opacity="0.8" d="M413.88 1279.93L411.12 1283.64C404.06 1276.5 402.57 1262.37 411.66 1252.78C413.779 1250.55 416.325 1248.77 419.146 1247.54C421.967 1246.31 425.006 1245.66 428.083 1245.62C431.161 1245.59 434.213 1246.17 437.061 1247.34C439.908 1248.51 442.492 1250.24 444.66 1252.42C453.15 1260.76 453.55 1275.72 445.54 1283.64L442.76 1279.95C445.635 1276.24 446.984 1271.58 446.533 1266.91C446.081 1262.24 443.862 1257.92 440.33 1254.84C436.896 1251.84 432.468 1250.24 427.911 1250.33C423.355 1250.43 418.998 1252.22 415.691 1255.35C412.385 1258.49 410.367 1262.75 410.032 1267.29C409.697 1271.84 411.069 1276.34 413.88 1279.93V1279.93Z" fill="white"/>
<path opacity="0.8" d="M438.34 1268.57C438.34 1271.22 437.286 1273.77 435.411 1275.64C433.536 1277.52 430.992 1278.57 428.34 1278.57C425.688 1278.57 423.144 1277.52 421.269 1275.64C419.393 1273.77 418.34 1271.22 418.34 1268.57C418.34 1265.92 419.393 1263.37 421.269 1261.5C423.144 1259.62 425.688 1258.57 428.34 1258.57C430.992 1258.57 433.536 1259.62 435.411 1261.5C437.286 1263.37 438.34 1265.92 438.34 1268.57V1268.57Z" fill="white"/>
<path opacity="0.8" d="M929.75 1146C932.35 1146.5 935.02 1146.77 937.55 1147.52C955.55 1152.9 966.49 1164.89 969.42 1183.35C971.77 1198.19 966.91 1211.02 956.07 1221.54C952.13 1225.36 947.43 1227.93 942.25 1230.41C942.37 1228.48 942.44 1226.81 942.61 1225.14C942.61 1224.89 943.03 1224.61 943.32 1224.46C956.91 1217.64 964.32 1206.53 965.12 1191.46C966 1174.59 956.68 1160.34 941.2 1153.63C924.08 1146.22 902.67 1153.04 893.2 1169.25C884.63 1183.93 885.34 1198.5 894.89 1212.53C898.099 1217.28 902.485 1221.11 907.62 1223.65C909.81 1224.73 910.71 1226.01 910.31 1228.33C910.268 1228.97 910.268 1229.6 910.31 1230.24C908.73 1229.52 907.31 1229.01 906.05 1228.24C899.305 1224.59 893.586 1219.31 889.42 1212.87C886.231 1207.81 884.116 1202.15 883.205 1196.24C882.295 1190.33 882.609 1184.29 884.128 1178.51C885.647 1172.72 888.339 1167.31 892.036 1162.61C895.733 1157.91 900.356 1154.02 905.62 1151.18C910.682 1148.44 916.241 1146.74 921.97 1146.18C922.271 1146.13 922.565 1146.04 922.85 1145.93L929.75 1146Z" fill="white"/>
<path opacity="0.8" d="M939.47 1212.83C939.04 1217.65 938.65 1222.48 938.16 1227.29C938.117 1228.17 937.818 1229.01 937.3 1229.72C935.51 1231.72 935.55 1234.24 935.08 1236.61C934.23 1240.9 933.43 1245.21 932.62 1249.51C932.607 1249.86 932.517 1250.2 932.355 1250.52C932.194 1250.83 931.965 1251.1 931.686 1251.31C931.407 1251.53 931.084 1251.68 930.741 1251.75C930.397 1251.82 930.042 1251.82 929.7 1251.74C927.406 1251.58 925.104 1251.58 922.81 1251.74C922.492 1251.81 922.163 1251.81 921.846 1251.74C921.529 1251.67 921.23 1251.53 920.97 1251.33C920.71 1251.14 920.496 1250.89 920.34 1250.6C920.185 1250.32 920.093 1250 920.07 1249.68C919.323 1245.95 918.59 1242.21 917.87 1238.48C917.6 1237.05 917.55 1235.56 917.15 1234.17C916.75 1232.78 915.93 1231.35 915.44 1229.9C914.82 1228.37 914.404 1226.76 914.2 1225.12C913.86 1219.24 913.71 1213.35 913.54 1207.47C913.47 1205.36 915.01 1204.27 916.65 1203.81C919.59 1202.95 922.602 1202.35 925.65 1202.02C929.102 1201.73 932.572 1202.29 935.76 1203.65C937.99 1204.56 939.44 1205.93 939.22 1208.58C939.1 1209.98 939.22 1211.4 939.22 1212.81L939.47 1212.83Z" fill="white"/>
<path opacity="0.8" d="M943.9 1217.84C943.9 1216 943.83 1214.35 943.95 1212.71C944.097 1212.17 944.421 1211.7 944.87 1211.38C948.44 1208.37 951.213 1204.53 952.944 1200.19C954.674 1195.85 955.308 1191.16 954.79 1186.52C953.71 1174.01 943.12 1163.03 930.58 1161.35C914.35 1159.17 900.06 1169.87 897.96 1186.12C896.7 1195.88 899.96 1204.23 907.29 1210.87C907.816 1211.27 908.229 1211.8 908.49 1212.41C908.75 1213.02 908.851 1213.69 908.78 1214.35C908.7 1215.43 908.78 1216.53 908.78 1217.62C900.9 1213.62 891.94 1201.8 893.1 1186.8C894.26 1171.8 906.4 1158.74 921.29 1156.7C928.871 1155.52 936.627 1157 943.242 1160.89C949.857 1164.77 954.925 1170.83 957.588 1178.02C960.25 1185.22 960.342 1193.11 957.85 1200.37C955.357 1207.63 950.432 1213.8 943.91 1217.84H943.9Z" fill="white"/>
<path opacity="0.8" d="M911.88 1200.93L909.12 1204.64C902.06 1197.5 900.57 1183.37 909.66 1173.78C911.779 1171.55 914.325 1169.77 917.146 1168.54C919.967 1167.31 923.006 1166.66 926.083 1166.62C929.161 1166.59 932.213 1167.17 935.061 1168.34C937.908 1169.51 940.492 1171.24 942.66 1173.42C951.15 1181.76 951.55 1196.72 943.54 1204.64L940.76 1200.95C943.635 1197.24 944.984 1192.58 944.533 1187.91C944.081 1183.24 941.862 1178.92 938.33 1175.84C934.896 1172.84 930.468 1171.24 925.911 1171.33C921.355 1171.43 916.998 1173.22 913.691 1176.35C910.385 1179.49 908.367 1183.75 908.032 1188.29C907.697 1192.84 909.069 1197.34 911.88 1200.93V1200.93Z" fill="white"/>
<path opacity="0.8" d="M936.34 1189.57C936.34 1192.23 935.284 1194.78 933.404 1196.66C931.524 1198.54 928.974 1199.59 926.315 1199.59C923.656 1199.59 921.106 1198.54 919.226 1196.66C917.346 1194.78 916.29 1192.23 916.29 1189.57C916.29 1186.91 917.346 1184.36 919.226 1182.48C921.106 1180.6 923.656 1179.54 926.315 1179.54C928.974 1179.54 931.524 1180.6 933.404 1182.48C935.284 1184.36 936.34 1186.91 936.34 1189.57V1189.57Z" fill="white"/>
<path opacity="0.8" d="M136.85 1443C139.45 1443.5 142.12 1443.77 144.65 1444.52C162.65 1449.9 173.59 1461.89 176.52 1480.35C178.87 1495.19 174.01 1508.02 163.17 1518.54C159.23 1522.36 154.53 1524.93 149.34 1527.41C149.46 1525.48 149.54 1523.81 149.7 1522.14C149.7 1521.89 150.13 1521.61 150.42 1521.46C164.01 1514.64 171.42 1503.53 172.22 1488.46C173.1 1471.59 163.78 1457.34 148.3 1450.63C131.17 1443.22 109.77 1450.04 100.3 1466.25C91.7299 1480.93 92.4399 1495.5 101.99 1509.53C105.199 1514.28 109.585 1518.11 114.72 1520.65C116.9 1521.73 117.81 1523.01 117.41 1525.33C117.368 1525.97 117.368 1526.6 117.41 1527.24C115.83 1526.52 114.41 1526.01 113.15 1525.24C106.405 1521.59 100.686 1516.31 96.5199 1509.87C93.331 1504.81 91.2157 1499.15 90.3054 1493.24C89.3952 1487.33 89.7093 1481.29 91.2283 1475.51C92.7473 1469.72 95.4389 1464.31 99.1359 1459.61C102.833 1454.91 107.457 1451.02 112.72 1448.18C117.782 1445.44 123.341 1443.74 129.07 1443.18C129.371 1443.13 129.666 1443.04 129.95 1442.93L136.85 1443Z" fill="white"/>
<path opacity="0.8" d="M146.57 1509.83C146.14 1514.65 145.74 1519.48 145.26 1524.29C145.214 1525.17 144.911 1526.01 144.39 1526.72C142.61 1528.72 142.65 1531.24 142.18 1533.61C141.33 1537.9 140.53 1542.21 139.72 1546.51C139.707 1546.86 139.616 1547.2 139.455 1547.52C139.293 1547.83 139.065 1548.1 138.786 1548.31C138.507 1548.53 138.184 1548.68 137.84 1548.75C137.497 1548.82 137.142 1548.82 136.8 1548.74C134.506 1548.58 132.204 1548.58 129.91 1548.74C129.592 1548.81 129.263 1548.81 128.946 1548.74C128.628 1548.67 128.33 1548.53 128.07 1548.33C127.81 1548.14 127.595 1547.89 127.44 1547.6C127.285 1547.32 127.192 1547 127.17 1546.68C126.423 1542.95 125.69 1539.21 124.97 1535.48C124.7 1534.05 124.64 1532.56 124.24 1531.17C123.84 1529.78 123.02 1528.35 122.54 1526.9C121.92 1525.37 121.503 1523.76 121.3 1522.12C120.96 1516.24 120.81 1510.35 120.63 1504.47C120.57 1502.36 122.11 1501.27 123.75 1500.81C126.69 1499.95 129.702 1499.35 132.75 1499.02C136.202 1498.73 139.672 1499.29 142.86 1500.65C145.09 1501.56 146.54 1502.93 146.32 1505.58C146.2 1506.98 146.32 1508.4 146.32 1509.81L146.57 1509.83Z" fill="white"/>
<path opacity="0.8" d="M151 1514.84C151 1513 150.93 1511.35 151 1509.71C151.154 1509.18 151.481 1508.71 151.93 1508.38C155.5 1505.37 158.273 1501.53 160.004 1497.19C161.734 1492.86 162.368 1488.16 161.85 1483.52C160.77 1471.01 150.18 1460.03 137.64 1458.35C121.41 1456.17 107.12 1466.87 105.02 1483.12C103.76 1492.88 107.02 1501.23 114.35 1507.87C114.876 1508.27 115.289 1508.81 115.55 1509.41C115.81 1510.02 115.911 1510.69 115.84 1511.35C115.76 1512.43 115.84 1513.53 115.84 1514.62C107.96 1510.62 99 1498.8 100.16 1483.8C101.32 1468.8 113.46 1455.74 128.35 1453.7C135.935 1452.51 143.696 1453.98 150.319 1457.87C156.941 1461.75 162.016 1467.81 164.683 1475C167.35 1482.2 167.444 1490.1 164.95 1497.36C162.456 1504.62 157.528 1510.8 151 1514.84V1514.84Z" fill="white"/>
<path opacity="0.8" d="M119 1497.93L116.24 1501.64C109.18 1494.5 107.69 1480.37 116.78 1470.78C118.899 1468.55 121.445 1466.77 124.266 1465.54C127.087 1464.31 130.126 1463.66 133.204 1463.62C136.281 1463.59 139.333 1464.17 142.181 1465.34C145.028 1466.51 147.612 1468.24 149.78 1470.42C158.28 1478.76 158.67 1493.72 150.67 1501.64L147.89 1497.95C150.765 1494.24 152.115 1489.58 151.663 1484.91C151.211 1480.24 148.992 1475.92 145.46 1472.84C142.028 1469.83 137.596 1468.21 133.032 1468.3C128.469 1468.39 124.104 1470.18 120.792 1473.32C117.48 1476.46 115.46 1480.73 115.129 1485.28C114.797 1489.83 116.178 1494.34 119 1497.93V1497.93Z" fill="white"/>
<path opacity="0.8" d="M143.44 1486.57C143.44 1489.23 142.383 1491.78 140.503 1493.66C138.623 1495.54 136.073 1496.59 133.415 1496.59C130.756 1496.59 128.206 1495.54 126.326 1493.66C124.446 1491.78 123.39 1489.23 123.39 1486.57C123.39 1483.91 124.446 1481.36 126.326 1479.48C128.206 1477.6 130.756 1476.54 133.415 1476.54C136.073 1476.54 138.623 1477.6 140.503 1479.48C142.383 1481.36 143.44 1483.91 143.44 1486.57V1486.57Z" fill="white"/>
<path opacity="0.8" d="M606.75 1553C609.35 1553.5 612.02 1553.77 614.55 1554.52C632.55 1559.9 643.49 1571.89 646.42 1590.35C648.77 1605.19 643.91 1618.02 633.07 1628.54C629.13 1632.36 624.43 1634.93 619.25 1637.41C619.37 1635.48 619.44 1633.81 619.61 1632.14C619.61 1631.89 620.03 1631.61 620.32 1631.46C633.91 1624.64 641.32 1613.53 642.12 1598.46C643 1581.59 633.68 1567.34 618.2 1560.63C601.08 1553.22 579.67 1560.04 570.2 1576.25C561.63 1590.93 562.34 1605.5 571.89 1619.53C575.099 1624.28 579.485 1628.11 584.62 1630.65C586.81 1631.73 587.71 1633.01 587.31 1635.33C587.268 1635.97 587.268 1636.6 587.31 1637.24C585.73 1636.52 584.31 1636.01 583.05 1635.24C576.305 1631.59 570.586 1626.31 566.42 1619.87C563.231 1614.81 561.116 1609.15 560.205 1603.24C559.295 1597.33 559.609 1591.29 561.128 1585.51C562.647 1579.72 565.339 1574.31 569.036 1569.61C572.733 1564.91 577.356 1561.02 582.62 1558.18C587.682 1555.44 593.241 1553.74 598.97 1553.18C599.271 1553.13 599.565 1553.04 599.85 1552.93L606.75 1553Z" fill="white"/>
<path opacity="0.8" d="M616.47 1619.83C616.04 1624.65 615.65 1629.48 615.16 1634.29C615.117 1635.17 614.818 1636.01 614.3 1636.72C612.51 1638.72 612.55 1641.24 612.08 1643.61C611.23 1647.9 610.43 1652.21 609.62 1656.51C609.607 1656.86 609.517 1657.2 609.355 1657.52C609.194 1657.83 608.965 1658.1 608.686 1658.31C608.407 1658.53 608.084 1658.68 607.741 1658.75C607.397 1658.82 607.042 1658.82 606.7 1658.74C604.406 1658.58 602.104 1658.58 599.81 1658.74C599.492 1658.81 599.163 1658.81 598.846 1658.74C598.529 1658.67 598.23 1658.53 597.97 1658.33C597.71 1658.14 597.496 1657.89 597.34 1657.6C597.185 1657.32 597.093 1657 597.07 1656.68C596.323 1652.95 595.59 1649.21 594.87 1645.48C594.6 1644.05 594.55 1642.56 594.15 1641.17C593.75 1639.78 592.93 1638.35 592.44 1636.9C591.82 1635.37 591.404 1633.76 591.2 1632.12C590.86 1626.24 590.71 1620.35 590.54 1614.47C590.47 1612.36 592.01 1611.27 593.65 1610.81C596.59 1609.95 599.602 1609.35 602.65 1609.02C606.102 1608.73 609.572 1609.29 612.76 1610.65C614.99 1611.56 616.44 1612.93 616.22 1615.58C616.1 1616.98 616.22 1618.4 616.22 1619.81L616.47 1619.83Z" fill="white"/>
<path opacity="0.8" d="M620.9 1624.84C620.9 1623 620.83 1621.35 620.95 1619.71C621.097 1619.17 621.421 1618.7 621.87 1618.38C625.44 1615.37 628.213 1611.53 629.944 1607.19C631.674 1602.85 632.308 1598.16 631.79 1593.52C630.71 1581.01 620.12 1570.03 607.58 1568.35C591.35 1566.17 577.06 1576.87 574.96 1593.12C573.7 1602.88 576.96 1611.23 584.29 1617.87C584.816 1618.27 585.229 1618.8 585.49 1619.41C585.75 1620.02 585.851 1620.69 585.78 1621.35C585.7 1622.43 585.78 1623.53 585.78 1624.62C577.9 1620.62 568.94 1608.8 570.1 1593.8C571.26 1578.8 583.4 1565.74 598.29 1563.7C605.871 1562.52 613.627 1564 620.242 1567.89C626.857 1571.77 631.925 1577.83 634.588 1585.02C637.25 1592.22 637.342 1600.11 634.85 1607.37C632.357 1614.63 627.432 1620.8 620.91 1624.84H620.9Z" fill="white"/>
<path opacity="0.8" d="M588.88 1607.93L586.12 1611.64C579.06 1604.5 577.57 1590.37 586.66 1580.78C588.779 1578.55 591.325 1576.77 594.146 1575.54C596.967 1574.31 600.006 1573.66 603.083 1573.62C606.161 1573.59 609.213 1574.17 612.061 1575.34C614.908 1576.51 617.492 1578.24 619.66 1580.42C628.15 1588.76 628.55 1603.72 620.54 1611.64L617.76 1607.95C620.635 1604.24 621.984 1599.58 621.533 1594.91C621.081 1590.24 618.862 1585.92 615.33 1582.84C611.896 1579.84 607.468 1578.24 602.911 1578.33C598.355 1578.43 593.998 1580.22 590.691 1583.35C587.385 1586.49 585.367 1590.75 585.032 1595.29C584.697 1599.84 586.069 1604.34 588.88 1607.93V1607.93Z" fill="white"/>
<path opacity="0.8" d="M613.34 1596.57C613.34 1599.23 612.284 1601.78 610.404 1603.66C608.524 1605.54 605.974 1606.59 603.315 1606.59C600.656 1606.59 598.106 1605.54 596.226 1603.66C594.346 1601.78 593.29 1599.23 593.29 1596.57C593.29 1593.91 594.346 1591.36 596.226 1589.48C598.106 1587.6 600.656 1586.54 603.315 1586.54C605.974 1586.54 608.524 1587.6 610.404 1589.48C612.284 1591.36 613.34 1593.91 613.34 1596.57V1596.57Z" fill="white"/>
<path opacity="0.8" d="M976.75 1471C979.35 1471.5 982.02 1471.77 984.55 1472.52C1002.55 1477.9 1013.49 1489.89 1016.42 1508.35C1018.77 1523.19 1013.91 1536.02 1003.07 1546.54C999.13 1550.36 994.43 1552.93 989.25 1555.41C989.37 1553.48 989.44 1551.81 989.61 1550.14C989.61 1549.89 990.03 1549.61 990.32 1549.46C1003.91 1542.64 1011.32 1531.53 1012.12 1516.46C1013 1499.59 1003.68 1485.34 988.2 1478.63C971.08 1471.22 949.67 1478.04 940.2 1494.25C931.63 1508.93 932.34 1523.5 941.89 1537.53C945.099 1542.28 949.485 1546.11 954.62 1548.65C956.81 1549.73 957.71 1551.01 957.31 1553.33C957.268 1553.97 957.268 1554.6 957.31 1555.24C955.73 1554.52 954.31 1554.01 953.05 1553.24C946.305 1549.59 940.586 1544.31 936.42 1537.87C933.231 1532.81 931.116 1527.15 930.205 1521.24C929.295 1515.33 929.609 1509.29 931.128 1503.51C932.647 1497.72 935.339 1492.31 939.036 1487.61C942.733 1482.91 947.356 1479.02 952.62 1476.18C957.682 1473.44 963.241 1471.74 968.97 1471.18C969.271 1471.13 969.565 1471.04 969.85 1470.93L976.75 1471Z" fill="white"/>
<path opacity="0.8" d="M986.47 1537.83C986.04 1542.65 985.65 1547.48 985.16 1552.29C985.118 1553.17 984.819 1554.01 984.3 1554.72C982.51 1556.72 982.55 1559.24 982.08 1561.61C981.23 1565.9 980.43 1570.21 979.62 1574.51C979.607 1574.86 979.517 1575.2 979.355 1575.52C979.194 1575.83 978.965 1576.1 978.686 1576.31C978.407 1576.53 978.084 1576.68 977.741 1576.75C977.397 1576.82 977.042 1576.82 976.7 1576.74C974.406 1576.58 972.104 1576.58 969.81 1576.74C969.492 1576.81 969.163 1576.81 968.846 1576.74C968.529 1576.67 968.23 1576.53 967.97 1576.33C967.71 1576.14 967.496 1575.89 967.34 1575.6C967.185 1575.32 967.093 1575 967.07 1574.68C966.323 1570.95 965.59 1567.21 964.87 1563.48C964.6 1562.05 964.55 1560.56 964.15 1559.17C963.75 1557.78 962.93 1556.35 962.44 1554.9C961.82 1553.37 961.404 1551.76 961.2 1550.12C960.86 1544.24 960.71 1538.35 960.54 1532.47C960.47 1530.36 962.01 1529.27 963.65 1528.81C966.59 1527.95 969.602 1527.35 972.65 1527.02C976.102 1526.73 979.572 1527.29 982.76 1528.65C984.99 1529.56 986.44 1530.93 986.22 1533.58C986.1 1534.98 986.22 1536.4 986.22 1537.81L986.47 1537.83Z" fill="white"/>
<path opacity="0.8" d="M990.9 1542.84C990.9 1541 990.83 1539.35 990.9 1537.71C991.046 1537.17 991.371 1536.7 991.82 1536.38C995.39 1533.37 998.163 1529.53 999.893 1525.19C1001.62 1520.85 1002.26 1516.16 1001.74 1511.52C1000.66 1499.01 990.07 1488.03 977.53 1486.35C961.3 1484.17 947.01 1494.87 944.91 1511.12C943.65 1520.88 946.91 1529.23 954.24 1535.87C954.765 1536.27 955.178 1536.8 955.439 1537.41C955.7 1538.02 955.8 1538.69 955.73 1539.35C955.65 1540.43 955.73 1541.53 955.73 1542.62C947.85 1538.62 938.89 1526.8 940.05 1511.8C941.21 1496.8 953.35 1483.74 968.24 1481.7C975.821 1480.52 983.577 1482 990.192 1485.89C996.807 1489.77 1001.88 1495.83 1004.54 1503.02C1007.2 1510.22 1007.29 1518.11 1004.8 1525.37C1002.31 1532.63 997.382 1538.8 990.86 1542.84H990.9Z" fill="white"/>
<path opacity="0.8" d="M958.88 1525.93L956.12 1529.64C949.06 1522.5 947.57 1508.37 956.66 1498.78C958.779 1496.55 961.325 1494.77 964.146 1493.54C966.967 1492.31 970.006 1491.66 973.083 1491.62C976.161 1491.59 979.213 1492.17 982.061 1493.34C984.908 1494.51 987.492 1496.24 989.66 1498.42C998.15 1506.76 998.55 1521.72 990.54 1529.64L987.76 1525.95C990.635 1522.24 991.984 1517.58 991.533 1512.91C991.081 1508.24 988.862 1503.92 985.33 1500.84C981.895 1497.84 977.468 1496.24 972.911 1496.33C968.355 1496.43 963.998 1498.22 960.691 1501.35C957.385 1504.49 955.367 1508.75 955.032 1513.29C954.697 1517.84 956.069 1522.34 958.88 1525.93V1525.93Z" fill="white"/>
<path opacity="0.8" d="M983.34 1514.57C983.34 1517.22 982.286 1519.77 980.411 1521.64C978.535 1523.52 975.992 1524.57 973.34 1524.57C970.688 1524.57 968.144 1523.52 966.269 1521.64C964.393 1519.77 963.34 1517.22 963.34 1514.57C963.34 1511.92 964.393 1509.37 966.269 1507.5C968.144 1505.62 970.688 1504.57 973.34 1504.57C975.992 1504.57 978.535 1505.62 980.411 1507.5C982.286 1509.37 983.34 1511.92 983.34 1514.57Z" fill="white"/>
<path opacity="0.8" d="M49.7498 1791C52.3498 1791.5 55.0198 1791.77 57.5498 1792.52C75.5498 1797.9 86.4898 1809.89 89.4198 1828.35C91.7698 1843.19 86.9098 1856.02 76.0698 1866.54C72.1298 1870.36 67.4298 1872.93 62.2498 1875.41C62.3698 1873.48 62.4398 1871.81 62.6098 1870.14C62.6098 1869.89 63.0298 1869.61 63.3198 1869.46C76.9098 1862.64 84.3198 1851.53 85.1198 1836.46C85.9998 1819.59 76.6798 1805.34 61.1998 1798.63C44.0798 1791.22 22.6698 1798.04 13.1998 1814.25C4.62983 1828.93 5.33983 1843.5 14.8898 1857.53C18.0989 1862.28 22.4854 1866.11 27.6198 1868.65C29.8098 1869.73 30.7098 1871.01 30.3098 1873.33C30.2679 1873.97 30.2679 1874.6 30.3098 1875.24C28.7298 1874.52 27.3098 1874.01 26.0498 1873.24C19.3046 1869.59 13.5856 1864.31 9.41983 1857.87C6.23085 1852.81 4.11561 1847.15 3.20534 1841.24C2.29506 1835.33 2.60919 1829.29 4.12822 1823.51C5.64725 1817.72 8.33878 1812.31 12.0358 1807.61C15.7328 1802.91 20.3565 1799.02 25.6198 1796.18C30.6821 1793.44 36.2411 1791.74 41.9698 1791.18C42.2707 1791.13 42.5655 1791.04 42.8498 1790.93L49.7498 1791Z" fill="white"/>
<path opacity="0.8" d="M59.4699 1857.83C59.0399 1862.65 58.6499 1867.48 58.1599 1872.29C58.1175 1873.17 57.8184 1874.01 57.2999 1874.72C55.5099 1876.72 55.5499 1879.24 55.0799 1881.61C54.2299 1885.9 53.4299 1890.21 52.6199 1894.51C52.607 1894.86 52.5165 1895.2 52.3551 1895.52C52.1936 1895.83 51.9652 1896.1 51.686 1896.31C51.4069 1896.53 51.0841 1896.68 50.7407 1896.75C50.3973 1896.82 50.0419 1896.82 49.6999 1896.74C47.406 1896.58 45.1038 1896.58 42.8099 1896.74C42.4921 1896.81 42.1634 1896.81 41.846 1896.74C41.5286 1896.67 41.2299 1896.53 40.9702 1896.33C40.7104 1896.14 40.4956 1895.89 40.3403 1895.6C40.185 1895.32 40.0927 1895 40.0699 1894.68C39.3232 1890.95 38.5899 1887.21 37.8699 1883.48C37.5999 1882.05 37.5499 1880.56 37.1499 1879.17C36.7499 1877.78 35.9299 1876.35 35.4399 1874.9C34.8204 1873.37 34.4035 1871.76 34.1999 1870.12C33.8599 1864.24 33.7099 1858.35 33.5399 1852.47C33.4699 1850.36 35.0099 1849.27 36.6499 1848.81C39.5904 1847.95 42.6024 1847.35 45.6499 1847.02C49.1022 1846.73 52.5721 1847.29 55.7599 1848.65C57.9899 1849.56 59.4399 1850.93 59.2199 1853.58C59.0999 1854.98 59.2199 1856.4 59.2199 1857.81L59.4699 1857.83Z" fill="white"/>
<path opacity="0.8" d="M63.8997 1862.84C63.8997 1861 63.8297 1859.35 63.8997 1857.71C64.0463 1857.17 64.3708 1856.7 64.8197 1856.38C68.3899 1853.37 71.1629 1849.53 72.8933 1845.19C74.6236 1840.85 75.2578 1836.16 74.7397 1831.52C73.6597 1819.01 63.0697 1808.03 50.5297 1806.35C34.2997 1804.17 20.0097 1814.87 17.9097 1831.12C16.6497 1840.88 19.9097 1849.23 27.2397 1855.87C27.7653 1856.27 28.1783 1856.8 28.4392 1857.41C28.7001 1858.02 28.8002 1858.69 28.7297 1859.35C28.6497 1860.43 28.7297 1861.53 28.7297 1862.62C20.8497 1858.62 11.8897 1846.8 13.0497 1831.8C14.2097 1816.8 26.3497 1803.74 41.2397 1801.7C48.8212 1800.52 56.5766 1802 63.1918 1805.89C69.807 1809.77 74.875 1815.83 77.5372 1823.02C80.1994 1830.22 80.292 1838.11 77.7993 1845.37C75.3066 1852.63 70.3819 1858.8 63.8597 1862.84H63.8997Z" fill="white"/>
<path opacity="0.8" d="M31.8796 1845.93L29.1196 1849.64C22.0596 1842.5 20.5696 1828.37 29.6596 1818.78C31.7792 1816.55 34.3249 1814.77 37.146 1813.54C39.9671 1812.31 43.0063 1811.66 46.0835 1811.62C49.1607 1811.59 52.2133 1812.17 55.0606 1813.34C57.9078 1814.51 60.4919 1816.24 62.6596 1818.42C71.1496 1826.76 71.5496 1841.72 63.5396 1849.64L60.7596 1845.95C63.6346 1842.24 64.9844 1837.58 64.5327 1832.91C64.0809 1828.24 61.8618 1823.92 58.3296 1820.84C54.8955 1817.84 50.4675 1816.24 45.9112 1816.33C41.3548 1816.43 36.9976 1818.22 33.6912 1821.35C30.3848 1824.49 28.3669 1828.75 28.0319 1833.29C27.6968 1837.84 29.0688 1842.34 31.8796 1845.93V1845.93Z" fill="white"/>
<path opacity="0.8" d="M56.3398 1834.57C56.3398 1837.22 55.2863 1839.77 53.4109 1841.64C51.5355 1843.52 48.992 1844.57 46.3398 1844.57C43.6877 1844.57 41.1441 1843.52 39.2688 1841.64C37.3934 1839.77 36.3398 1837.22 36.3398 1834.57C36.3398 1831.92 37.3934 1829.37 39.2688 1827.5C41.1441 1825.62 43.6877 1824.57 46.3398 1824.57C48.992 1824.57 51.5355 1825.62 53.4109 1827.5C55.2863 1829.37 56.3398 1831.92 56.3398 1834.57V1834.57Z" fill="white"/>
<path opacity="0.8" d="M387.75 1954C390.35 1954.5 393.02 1954.77 395.55 1955.52C413.55 1960.9 424.49 1972.89 427.42 1991.35C429.77 2006.19 424.91 2019.02 414.07 2029.54C410.13 2033.36 405.43 2035.93 400.25 2038.41C400.37 2036.48 400.44 2034.81 400.61 2033.14C400.61 2032.89 401.03 2032.61 401.32 2032.46C414.91 2025.64 422.32 2014.53 423.12 1999.46C424 1982.59 414.68 1968.34 399.2 1961.63C382.08 1954.22 360.67 1961.04 351.2 1977.25C342.63 1991.93 343.34 2006.5 352.89 2020.53C356.099 2025.28 360.485 2029.11 365.62 2031.65C367.81 2032.73 368.71 2034.01 368.31 2036.33C368.268 2036.97 368.268 2037.6 368.31 2038.24C366.73 2037.52 365.31 2037.01 364.05 2036.24C357.305 2032.59 351.586 2027.31 347.42 2020.87C344.231 2015.81 342.116 2010.15 341.205 2004.24C340.295 1998.33 340.609 1992.29 342.128 1986.51C343.647 1980.72 346.339 1975.31 350.036 1970.61C353.733 1965.91 358.356 1962.02 363.62 1959.18C368.682 1956.44 374.241 1954.74 379.97 1954.18C380.271 1954.13 380.565 1954.04 380.85 1953.93L387.75 1954Z" fill="white"/>
<path opacity="0.8" d="M397.47 2020.83C397.04 2025.65 396.65 2030.48 396.16 2035.29C396.117 2036.17 395.818 2037.01 395.3 2037.72C393.51 2039.72 393.55 2042.24 393.08 2044.61C392.23 2048.9 391.43 2053.21 390.62 2057.51C390.607 2057.86 390.517 2058.2 390.355 2058.52C390.194 2058.83 389.965 2059.1 389.686 2059.31C389.407 2059.53 389.084 2059.68 388.741 2059.75C388.397 2059.82 388.042 2059.82 387.7 2059.74C385.406 2059.58 383.104 2059.58 380.81 2059.74C380.492 2059.81 380.163 2059.81 379.846 2059.74C379.529 2059.67 379.23 2059.53 378.97 2059.33C378.71 2059.14 378.496 2058.89 378.34 2058.6C378.185 2058.32 378.093 2058 378.07 2057.68C377.323 2053.95 376.59 2050.22 375.87 2046.48C375.6 2045.05 375.55 2043.56 375.15 2042.17C374.75 2040.78 373.93 2039.35 373.44 2037.9C372.82 2036.37 372.404 2034.76 372.2 2033.12C371.86 2027.24 371.71 2021.35 371.54 2015.47C371.47 2013.36 373.01 2012.27 374.65 2011.81C377.59 2010.95 380.602 2010.35 383.65 2010.02C387.102 2009.73 390.572 2010.29 393.76 2011.65C395.99 2012.56 397.44 2013.93 397.22 2016.58C397.1 2017.98 397.22 2019.4 397.22 2020.81L397.47 2020.83Z" fill="white"/>
<path opacity="0.8" d="M401.9 2025.84C401.9 2024 401.83 2022.35 401.95 2020.71C402.097 2020.17 402.421 2019.7 402.87 2019.38C406.44 2016.37 409.213 2012.53 410.944 2008.19C412.674 2003.85 413.308 1999.16 412.79 1994.52C411.71 1982.01 401.12 1971.03 388.58 1969.35C372.35 1967.17 358.06 1977.87 355.96 1994.12C354.7 2003.88 357.96 2012.23 365.29 2018.87C365.816 2019.27 366.229 2019.8 366.49 2020.41C366.75 2021.02 366.85 2021.69 366.78 2022.35C366.7 2023.43 366.78 2024.53 366.78 2025.62C358.9 2021.62 349.94 2009.8 351.1 1994.8C352.26 1979.8 364.4 1966.74 379.29 1964.7C386.871 1963.52 394.627 1965 401.242 1968.89C407.857 1972.77 412.925 1978.83 415.588 1986.02C418.25 1993.22 418.342 2001.11 415.85 2008.37C413.357 2015.63 408.432 2021.8 401.91 2025.84H401.9Z" fill="white"/>
<path opacity="0.8" d="M369.88 2008.93L367.12 2012.64C360.06 2005.5 358.57 1991.37 367.66 1981.78C369.779 1979.55 372.325 1977.77 375.146 1976.54C377.967 1975.31 381.006 1974.66 384.083 1974.62C387.161 1974.59 390.213 1975.17 393.061 1976.34C395.908 1977.51 398.492 1979.24 400.66 1981.42C409.15 1989.76 409.55 2004.72 401.54 2012.64L398.76 2008.95C401.635 2005.24 402.984 2000.58 402.533 1995.91C402.081 1991.24 399.862 1986.92 396.33 1983.84C392.896 1980.84 388.468 1979.24 383.911 1979.33C379.355 1979.43 374.998 1981.22 371.691 1984.35C368.385 1987.49 366.367 1991.75 366.032 1996.29C365.697 2000.84 367.069 2005.34 369.88 2008.93V2008.93Z" fill="white"/>
<path opacity="0.8" d="M394.34 1997.57C394.34 2000.22 393.286 2002.77 391.411 2004.64C389.536 2006.52 386.992 2007.57 384.34 2007.57C381.688 2007.57 379.144 2006.52 377.269 2004.64C375.393 2002.77 374.34 2000.22 374.34 1997.57C374.34 1994.92 375.393 1992.37 377.269 1990.5C379.144 1988.62 381.688 1987.57 384.34 1987.57C386.992 1987.57 389.536 1988.62 391.411 1990.5C393.286 1992.37 394.34 1994.92 394.34 1997.57V1997.57Z" fill="white"/>
<path opacity="0.8" d="M114.75 2244C117.35 2244.5 120.02 2244.77 122.55 2245.52C140.55 2250.9 151.49 2262.89 154.42 2281.35C156.77 2296.19 151.91 2309.02 141.07 2319.54C137.13 2323.36 132.43 2325.93 127.25 2328.41C127.37 2326.48 127.44 2324.81 127.61 2323.14C127.61 2322.89 128.03 2322.61 128.32 2322.46C141.91 2315.64 149.32 2304.53 150.12 2289.46C151 2272.59 141.68 2258.34 126.2 2251.63C109.08 2244.22 87.6698 2251.04 78.1998 2267.25C69.6298 2281.93 70.3398 2296.5 79.8898 2310.53C83.0989 2315.28 87.4854 2319.11 92.6198 2321.65C94.8098 2322.73 95.7098 2324.01 95.3098 2326.33C95.2679 2326.97 95.2679 2327.6 95.3098 2328.24C93.7298 2327.52 92.3098 2327.01 91.0498 2326.24C84.3046 2322.59 78.5856 2317.31 74.4198 2310.87C71.2309 2305.81 69.1156 2300.15 68.2053 2294.24C67.2951 2288.33 67.6092 2282.29 69.1282 2276.51C70.6472 2270.72 73.3388 2265.31 77.0358 2260.61C80.7328 2255.91 85.3565 2252.02 90.6198 2249.18C95.6821 2246.44 101.241 2244.74 106.97 2244.18C107.271 2244.13 107.565 2244.04 107.85 2243.93L114.75 2244Z" fill="white"/>
<path opacity="0.8" d="M124.47 2310.83C124.04 2315.65 123.65 2320.48 123.16 2325.29C123.117 2326.17 122.818 2327.01 122.3 2327.72C120.51 2329.72 120.55 2332.24 120.08 2334.61C119.23 2338.9 118.43 2343.21 117.62 2347.51C117.607 2347.86 117.517 2348.2 117.355 2348.52C117.194 2348.83 116.965 2349.1 116.686 2349.31C116.407 2349.53 116.084 2349.68 115.741 2349.75C115.397 2349.82 115.042 2349.82 114.7 2349.74C112.406 2349.58 110.104 2349.58 107.81 2349.74C107.492 2349.81 107.163 2349.81 106.846 2349.74C106.529 2349.67 106.23 2349.53 105.97 2349.33C105.71 2349.14 105.496 2348.89 105.34 2348.6C105.185 2348.32 105.093 2348 105.07 2347.68C104.323 2343.95 103.59 2340.22 102.87 2336.48C102.6 2335.05 102.55 2333.56 102.15 2332.17C101.75 2330.78 100.93 2329.35 100.44 2327.9C99.8204 2326.37 99.4035 2324.76 99.1999 2323.12C98.8599 2317.24 98.7099 2311.35 98.5399 2305.47C98.4699 2303.36 100.01 2302.27 101.65 2301.81C104.59 2300.95 107.602 2300.35 110.65 2300.02C114.102 2299.73 117.572 2300.29 120.76 2301.65C122.99 2302.56 124.44 2303.93 124.22 2306.58C124.1 2307.98 124.22 2309.4 124.22 2310.81L124.47 2310.83Z" fill="white"/>
<path opacity="0.8" d="M128.9 2315.84C128.9 2314 128.83 2312.35 128.9 2310.71C129.046 2310.17 129.371 2309.7 129.82 2309.38C133.39 2306.37 136.163 2302.53 137.893 2298.19C139.624 2293.85 140.258 2289.16 139.74 2284.52C138.66 2272.01 128.07 2261.03 115.53 2259.35C99.2997 2257.17 85.0097 2267.87 82.9097 2284.12C81.6497 2293.88 84.9097 2302.23 92.2397 2308.87C92.7653 2309.27 93.1783 2309.8 93.4392 2310.41C93.7001 2311.02 93.8001 2311.69 93.7297 2312.35C93.6497 2313.43 93.7297 2314.53 93.7297 2315.62C85.8497 2311.62 76.8897 2299.8 78.0497 2284.8C79.2097 2269.8 91.3497 2256.74 106.24 2254.7C113.821 2253.52 121.577 2255 128.192 2258.89C134.807 2262.77 139.875 2268.83 142.537 2276.02C145.199 2283.22 145.292 2291.11 142.799 2298.37C140.307 2305.63 135.382 2311.8 128.86 2315.84H128.9Z" fill="white"/>
<path opacity="0.8" d="M96.8796 2298.93L94.1196 2302.64C87.0596 2295.5 85.5696 2281.37 94.6596 2271.78C96.7792 2269.55 99.3249 2267.77 102.146 2266.54C104.967 2265.31 108.006 2264.66 111.083 2264.62C114.161 2264.59 117.213 2265.17 120.061 2266.34C122.908 2267.51 125.492 2269.24 127.66 2271.42C136.15 2279.76 136.55 2294.72 128.54 2302.64L125.76 2298.95C128.635 2295.24 129.984 2290.58 129.533 2285.91C129.081 2281.24 126.862 2276.93 123.33 2273.84C119.896 2270.84 115.468 2269.24 110.911 2269.33C106.355 2269.43 101.998 2271.22 98.6912 2274.35C95.3848 2277.49 93.3669 2281.75 93.0319 2286.29C92.6968 2290.84 94.0688 2295.34 96.8796 2298.93V2298.93Z" fill="white"/>
<path opacity="0.8" d="M121.34 2287.57C121.34 2290.23 120.284 2292.78 118.404 2294.66C116.524 2296.54 113.974 2297.59 111.315 2297.59C108.656 2297.59 106.106 2296.54 104.226 2294.66C102.346 2292.78 101.29 2290.23 101.29 2287.57C101.29 2284.91 102.346 2282.36 104.226 2280.48C106.106 2278.6 108.656 2277.54 111.315 2277.54C113.974 2277.54 116.524 2278.6 118.404 2280.48C120.284 2282.36 121.34 2284.91 121.34 2287.57V2287.57Z" fill="white"/>
<path opacity="0.8" d="M918.75 1876C921.35 1876.5 924.02 1876.77 926.55 1877.52C944.55 1882.9 955.49 1894.89 958.42 1913.35C960.77 1928.19 955.91 1941.02 945.07 1951.54C941.13 1955.36 936.43 1957.93 931.25 1960.41C931.37 1958.48 931.44 1956.81 931.61 1955.14C931.61 1954.89 932.03 1954.61 932.32 1954.46C945.91 1947.64 953.32 1936.53 954.12 1921.46C955 1904.59 945.68 1890.34 930.2 1883.63C913.08 1876.22 891.67 1883.04 882.2 1899.25C873.63 1913.93 874.34 1928.5 883.89 1942.53C887.099 1947.28 891.485 1951.11 896.62 1953.65C898.81 1954.73 899.71 1956.01 899.31 1958.33C899.268 1958.97 899.268 1959.6 899.31 1960.24C897.73 1959.52 896.31 1959.01 895.05 1958.24C888.305 1954.59 882.586 1949.31 878.42 1942.87C875.231 1937.81 873.116 1932.15 872.205 1926.24C871.295 1920.33 871.609 1914.29 873.128 1908.51C874.647 1902.72 877.339 1897.31 881.036 1892.61C884.733 1887.91 889.356 1884.02 894.62 1881.18C899.682 1878.44 905.241 1876.74 910.97 1876.18C911.271 1876.13 911.565 1876.04 911.85 1875.93L918.75 1876Z" fill="white"/>
<path opacity="0.8" d="M928.47 1942.83C928.04 1947.65 927.65 1952.48 927.16 1957.29C927.117 1958.17 926.818 1959.01 926.3 1959.72C924.51 1961.72 924.55 1964.24 924.08 1966.61C923.23 1970.9 922.43 1975.21 921.62 1979.51C921.607 1979.86 921.517 1980.2 921.355 1980.52C921.194 1980.83 920.965 1981.1 920.686 1981.31C920.407 1981.53 920.084 1981.68 919.741 1981.75C919.397 1981.82 919.042 1981.82 918.7 1981.74C916.406 1981.58 914.104 1981.58 911.81 1981.74C911.492 1981.81 911.163 1981.81 910.846 1981.74C910.529 1981.67 910.23 1981.53 909.97 1981.33C909.71 1981.14 909.496 1980.89 909.34 1980.6C909.185 1980.32 909.093 1980 909.07 1979.68C908.323 1975.95 907.59 1972.21 906.87 1968.48C906.6 1967.05 906.55 1965.56 906.15 1964.17C905.75 1962.78 904.93 1961.35 904.44 1959.9C903.82 1958.37 903.404 1956.76 903.2 1955.12C902.86 1949.24 902.71 1943.35 902.54 1937.47C902.47 1935.36 904.01 1934.27 905.65 1933.81C908.59 1932.95 911.602 1932.35 914.65 1932.02C918.102 1931.73 921.572 1932.29 924.76 1933.65C926.99 1934.56 928.44 1935.93 928.22 1938.58C928.1 1939.98 928.22 1941.4 928.22 1942.81L928.47 1942.83Z" fill="white"/>
<path opacity="0.8" d="M932.9 1947.84C932.9 1946 932.83 1944.35 932.95 1942.71C933.097 1942.17 933.421 1941.7 933.87 1941.38C937.44 1938.37 940.213 1934.53 941.944 1930.19C943.674 1925.85 944.308 1921.16 943.79 1916.52C942.71 1904.01 932.12 1893.03 919.58 1891.35C903.35 1889.17 889.06 1899.87 886.96 1916.12C885.7 1925.88 888.96 1934.23 896.29 1940.87C896.816 1941.27 897.229 1941.8 897.49 1942.41C897.75 1943.02 897.851 1943.69 897.78 1944.35C897.7 1945.43 897.78 1946.53 897.78 1947.62C889.9 1943.62 880.94 1931.8 882.1 1916.8C883.26 1901.8 895.4 1888.74 910.29 1886.7C917.871 1885.52 925.627 1887 932.242 1890.89C938.857 1894.77 943.925 1900.83 946.588 1908.02C949.25 1915.22 949.342 1923.11 946.85 1930.37C944.357 1937.63 939.432 1943.8 932.91 1947.84H932.9Z" fill="white"/>
<path opacity="0.8" d="M900.88 1930.93L898.12 1934.64C891.06 1927.5 889.57 1913.37 898.66 1903.78C900.779 1901.55 903.325 1899.77 906.146 1898.54C908.967 1897.31 912.006 1896.66 915.083 1896.62C918.161 1896.59 921.213 1897.17 924.061 1898.34C926.908 1899.51 929.492 1901.24 931.66 1903.42C940.15 1911.76 940.55 1926.72 932.54 1934.64L929.76 1930.95C932.635 1927.24 933.984 1922.58 933.533 1917.91C933.081 1913.24 930.862 1908.92 927.33 1905.84C923.896 1902.84 919.468 1901.24 914.911 1901.33C910.355 1901.43 905.998 1903.22 902.691 1906.35C899.385 1909.49 897.367 1913.75 897.032 1918.29C896.697 1922.84 898.069 1927.34 900.88 1930.93V1930.93Z" fill="white"/>
<path opacity="0.8" d="M925.34 1919.57C925.34 1922.23 924.284 1924.78 922.404 1926.66C920.524 1928.54 917.974 1929.59 915.315 1929.59C912.656 1929.59 910.106 1928.54 908.226 1926.66C906.346 1924.78 905.29 1922.23 905.29 1919.57C905.29 1916.91 906.346 1914.36 908.226 1912.48C910.106 1910.6 912.656 1909.54 915.315 1909.54C917.974 1909.54 920.524 1910.6 922.404 1912.48C924.284 1914.36 925.34 1916.91 925.34 1919.57V1919.57Z" fill="white"/>
<path opacity="0.8" d="M688.75 2171C691.35 2171.5 694.02 2171.77 696.55 2172.52C714.55 2177.9 725.49 2189.89 728.42 2208.35C730.77 2223.19 725.91 2236.02 715.07 2246.54C711.13 2250.36 706.43 2252.93 701.25 2255.41C701.37 2253.48 701.44 2251.81 701.61 2250.14C701.61 2249.89 702.03 2249.61 702.32 2249.46C715.91 2242.64 723.32 2231.53 724.12 2216.46C725 2199.59 715.68 2185.34 700.2 2178.63C683.08 2171.22 661.67 2178.04 652.2 2194.25C643.63 2208.93 644.34 2223.5 653.89 2237.53C657.099 2242.28 661.485 2246.11 666.62 2248.65C668.81 2249.73 669.71 2251.01 669.31 2253.33C669.268 2253.97 669.268 2254.6 669.31 2255.24C667.73 2254.52 666.31 2254.01 665.05 2253.24C658.305 2249.59 652.586 2244.31 648.42 2237.87C645.231 2232.81 643.116 2227.15 642.205 2221.24C641.295 2215.33 641.609 2209.29 643.128 2203.51C644.647 2197.72 647.339 2192.31 651.036 2187.61C654.733 2182.91 659.356 2179.02 664.62 2176.18C669.682 2173.44 675.241 2171.74 680.97 2171.18C681.271 2171.13 681.565 2171.04 681.85 2170.93L688.75 2171Z" fill="white"/>
<path opacity="0.8" d="M698.47 2237.83C698.04 2242.65 697.65 2247.48 697.16 2252.29C697.117 2253.17 696.818 2254.01 696.3 2254.72C694.51 2256.72 694.55 2259.24 694.08 2261.61C693.23 2265.9 692.43 2270.21 691.62 2274.51C691.607 2274.86 691.517 2275.2 691.355 2275.52C691.194 2275.83 690.965 2276.1 690.686 2276.31C690.407 2276.53 690.084 2276.68 689.741 2276.75C689.397 2276.82 689.042 2276.82 688.7 2276.74C686.406 2276.58 684.104 2276.58 681.81 2276.74C681.492 2276.81 681.163 2276.81 680.846 2276.74C680.529 2276.67 680.23 2276.53 679.97 2276.33C679.71 2276.14 679.496 2275.89 679.34 2275.6C679.185 2275.32 679.093 2275 679.07 2274.68C678.323 2270.95 677.59 2267.22 676.87 2263.48C676.6 2262.05 676.55 2260.56 676.15 2259.17C675.75 2257.78 674.93 2256.35 674.44 2254.9C673.82 2253.37 673.404 2251.76 673.2 2250.12C672.86 2244.24 672.71 2238.35 672.54 2232.47C672.47 2230.36 674.01 2229.27 675.65 2228.81C678.59 2227.95 681.602 2227.35 684.65 2227.02C688.102 2226.73 691.572 2227.29 694.76 2228.65C696.99 2229.56 698.44 2230.93 698.22 2233.58C698.1 2234.98 698.22 2236.4 698.22 2237.81L698.47 2237.83Z" fill="white"/>
<path opacity="0.8" d="M702.9 2242.84C702.9 2241 702.83 2239.35 702.95 2237.71C703.097 2237.17 703.421 2236.7 703.87 2236.38C707.44 2233.37 710.213 2229.53 711.944 2225.19C713.674 2220.85 714.308 2216.16 713.79 2211.52C712.71 2199.01 702.12 2188.03 689.58 2186.35C673.35 2184.17 659.06 2194.87 656.96 2211.12C655.7 2220.88 658.96 2229.23 666.29 2235.87C666.816 2236.27 667.229 2236.8 667.49 2237.41C667.75 2238.02 667.851 2238.69 667.78 2239.35C667.7 2240.43 667.78 2241.53 667.78 2242.62C659.9 2238.62 650.94 2226.8 652.1 2211.8C653.26 2196.8 665.4 2183.74 680.29 2181.7C687.871 2180.52 695.627 2182 702.242 2185.89C708.857 2189.77 713.925 2195.83 716.588 2203.02C719.25 2210.22 719.342 2218.11 716.85 2225.37C714.357 2232.63 709.432 2238.8 702.91 2242.84H702.9Z" fill="white"/>
<path opacity="0.8" d="M670.88 2225.93L668.12 2229.64C661.06 2222.5 659.57 2208.37 668.66 2198.78C670.779 2196.55 673.325 2194.77 676.146 2193.54C678.967 2192.31 682.006 2191.66 685.083 2191.62C688.161 2191.59 691.213 2192.17 694.061 2193.34C696.908 2194.51 699.492 2196.24 701.66 2198.42C710.15 2206.76 710.55 2221.72 702.54 2229.64L699.76 2225.95C702.635 2222.24 703.984 2217.58 703.533 2212.91C703.081 2208.24 700.862 2203.93 697.33 2200.84C693.896 2197.84 689.468 2196.24 684.911 2196.33C680.355 2196.43 675.998 2198.22 672.691 2201.35C669.385 2204.49 667.367 2208.75 667.032 2213.29C666.697 2217.84 668.069 2222.34 670.88 2225.93V2225.93Z" fill="white"/>
<path opacity="0.8" d="M695.34 2214.57C695.34 2217.23 694.284 2219.78 692.404 2221.66C690.524 2223.54 687.974 2224.59 685.315 2224.59C682.656 2224.59 680.106 2223.54 678.226 2221.66C676.346 2219.78 675.29 2217.23 675.29 2214.57C675.29 2211.91 676.346 2209.36 678.226 2207.48C680.106 2205.6 682.656 2204.54 685.315 2204.54C687.974 2204.54 690.524 2205.6 692.404 2207.48C694.284 2209.36 695.34 2211.91 695.34 2214.57V2214.57Z" fill="white"/>
<path opacity="0.8" d="M999.75 2232C1002.35 2232.5 1005.02 2232.77 1007.55 2233.52C1025.55 2238.9 1036.49 2250.89 1039.42 2269.35C1041.77 2284.19 1036.91 2297.02 1026.07 2307.54C1022.13 2311.36 1017.43 2313.93 1012.25 2316.41C1012.37 2314.48 1012.44 2312.81 1012.61 2311.14C1012.61 2310.89 1013.03 2310.61 1013.32 2310.46C1026.91 2303.64 1034.32 2292.53 1035.12 2277.46C1036 2260.59 1026.68 2246.34 1011.2 2239.63C994.08 2232.22 972.67 2239.04 963.2 2255.25C954.63 2269.93 955.34 2284.5 964.89 2298.53C968.099 2303.28 972.485 2307.11 977.62 2309.65C979.81 2310.73 980.71 2312.01 980.31 2314.33C980.268 2314.97 980.268 2315.6 980.31 2316.24C978.73 2315.52 977.31 2315.01 976.05 2314.24C969.305 2310.59 963.586 2305.31 959.42 2298.87C956.231 2293.81 954.116 2288.15 953.205 2282.24C952.295 2276.33 952.609 2270.29 954.128 2264.51C955.647 2258.72 958.339 2253.31 962.036 2248.61C965.733 2243.91 970.356 2240.02 975.62 2237.18C980.682 2234.44 986.241 2232.74 991.97 2232.18C992.271 2232.13 992.565 2232.04 992.85 2231.93L999.75 2232Z" fill="white"/>
<path opacity="0.8" d="M1009.47 2298.83C1009.04 2303.65 1008.65 2308.48 1008.16 2313.29C1008.12 2314.17 1007.82 2315.01 1007.3 2315.72C1005.51 2317.72 1005.55 2320.24 1005.08 2322.61C1004.23 2326.9 1003.43 2331.21 1002.62 2335.51C1002.61 2335.86 1002.52 2336.2 1002.36 2336.52C1002.19 2336.83 1001.97 2337.1 1001.69 2337.31C1001.41 2337.53 1001.08 2337.68 1000.74 2337.75C1000.4 2337.82 1000.04 2337.82 999.7 2337.74C997.406 2337.58 995.104 2337.58 992.81 2337.74C992.492 2337.81 992.163 2337.81 991.846 2337.74C991.529 2337.67 991.23 2337.53 990.97 2337.33C990.71 2337.14 990.496 2336.89 990.34 2336.6C990.185 2336.32 990.093 2336 990.07 2335.68C989.323 2331.95 988.59 2328.22 987.87 2324.48C987.6 2323.05 987.55 2321.56 987.15 2320.17C986.75 2318.78 985.93 2317.35 985.44 2315.9C984.82 2314.37 984.403 2312.76 984.2 2311.12C983.86 2305.24 983.71 2299.35 983.54 2293.47C983.47 2291.36 985.01 2290.27 986.65 2289.81C989.59 2288.95 992.602 2288.35 995.65 2288.02C999.102 2287.73 1002.57 2288.29 1005.76 2289.65C1007.99 2290.56 1009.44 2291.93 1009.22 2294.58C1009.1 2295.98 1009.22 2297.4 1009.22 2298.81L1009.47 2298.83Z" fill="white"/>
<path opacity="0.8" d="M1013.9 2303.84C1013.9 2302 1013.83 2300.35 1013.9 2298.71C1014.05 2298.17 1014.37 2297.7 1014.82 2297.38C1018.39 2294.37 1021.16 2290.53 1022.89 2286.19C1024.62 2281.85 1025.26 2277.16 1024.74 2272.52C1023.66 2260.01 1013.07 2249.03 1000.53 2247.35C984.3 2245.17 970.01 2255.87 967.91 2272.12C966.65 2281.88 969.91 2290.23 977.24 2296.87C977.765 2297.27 978.178 2297.8 978.439 2298.41C978.7 2299.02 978.8 2299.69 978.73 2300.35C978.65 2301.43 978.73 2302.53 978.73 2303.62C970.85 2299.62 961.89 2287.8 963.05 2272.8C964.21 2257.8 976.35 2244.74 991.24 2242.7C998.821 2241.52 1006.58 2243 1013.19 2246.89C1019.81 2250.77 1024.88 2256.83 1027.54 2264.02C1030.2 2271.22 1030.29 2279.11 1027.8 2286.37C1025.31 2293.63 1020.38 2299.8 1013.86 2303.84H1013.9Z" fill="white"/>
<path opacity="0.8" d="M981.88 2286.93L979.12 2290.64C972.06 2283.5 970.57 2269.37 979.66 2259.78C981.779 2257.55 984.325 2255.77 987.146 2254.54C989.967 2253.31 993.006 2252.66 996.083 2252.62C999.161 2252.59 1002.21 2253.17 1005.06 2254.34C1007.91 2255.51 1010.49 2257.24 1012.66 2259.42C1021.15 2267.76 1021.55 2282.72 1013.54 2290.64L1010.76 2286.95C1013.63 2283.24 1014.98 2278.58 1014.53 2273.91C1014.08 2269.24 1011.86 2264.93 1008.33 2261.84C1004.9 2258.84 1000.47 2257.24 995.911 2257.33C991.355 2257.43 986.998 2259.22 983.691 2262.35C980.385 2265.49 978.367 2269.75 978.032 2274.29C977.697 2278.84 979.069 2283.34 981.88 2286.93V2286.93Z" fill="white"/>
<path opacity="0.8" d="M1006.34 2275.57C1006.34 2278.22 1005.29 2280.77 1003.41 2282.64C1001.54 2284.52 998.992 2285.57 996.34 2285.57C993.688 2285.57 991.144 2284.52 989.269 2282.64C987.393 2280.77 986.34 2278.22 986.34 2275.57C986.34 2272.92 987.393 2270.37 989.269 2268.5C991.144 2266.62 993.688 2265.57 996.34 2265.57C998.992 2265.57 1001.54 2266.62 1003.41 2268.5C1005.29 2270.37 1006.34 2272.92 1006.34 2275.57V2275.57Z" fill="white"/>
</g>
</svg>
