<svg width="1024" height="2235" viewBox="0 0 1024 2235" fill="none" xmlns="http://www.w3.org/2000/svg">
<g opacity="0.8">
<path opacity="0.8" d="M998.69 36.1404C996.006 32.6193 992.449 29.8614 988.37 28.1404C987.629 22.0404 984.686 16.421 980.093 12.3385C975.5 8.25594 969.575 5.99136 963.43 5.97039C959.104 5.95347 954.847 7.0632 951.08 9.19039C946.995 5.24756 941.957 2.43378 936.457 1.02489C930.958 -0.383992 925.187 -0.339613 919.71 1.15367C914.233 2.64695 909.238 5.53788 905.214 9.54304C901.191 13.5482 898.278 18.5301 896.76 24.0004C892.942 24.8943 889.356 26.5855 886.238 28.9629C883.12 31.3403 880.54 34.3502 878.667 37.795C876.794 41.2399 875.671 45.0419 875.371 48.9515C875.072 52.861 875.602 56.7898 876.928 60.48C878.253 64.1702 880.344 67.5383 883.063 70.3634C885.782 73.1884 889.068 75.4066 892.705 76.8722C896.342 78.3379 900.248 79.0179 904.166 78.8676C908.084 78.7174 911.926 77.7402 915.44 76.0004C918.963 79.5066 923.169 82.2526 927.796 84.0687C932.423 85.8849 937.373 86.7324 942.341 86.559C947.308 86.3856 952.188 85.195 956.677 83.0606C961.166 80.9263 965.169 77.8937 968.44 74.1504C972.261 75.8576 976.449 76.5813 980.622 76.2556C984.794 75.9299 988.819 74.5651 992.329 72.2857C995.839 70.0062 998.723 66.8845 1000.72 63.2052C1002.71 59.5258 1003.76 55.4057 1003.75 51.2204C1003.76 45.7747 1001.99 40.4758 998.69 36.1404V36.1404Z" fill="white"/>
<path opacity="0.8" d="M915 84.4004C912.273 84.4004 909.606 85.2092 907.339 86.7244C905.071 88.2397 903.303 90.3934 902.26 92.9132C901.216 95.433 900.943 98.2057 901.475 100.881C902.007 103.556 903.32 106.013 905.249 107.941C907.178 109.87 909.635 111.183 912.31 111.715C914.985 112.248 917.757 111.974 920.277 110.931C922.797 109.887 924.951 108.119 926.466 105.852C927.981 103.584 928.79 100.918 928.79 98.1904C928.785 94.5347 927.33 91.0302 924.745 88.4452C922.16 85.8603 918.656 84.4057 915 84.4004ZM908.78 98.0004C908.78 98.3404 908.78 98.6804 908.83 99.0004C908.79 98.7289 908.77 98.4548 908.77 98.1804C908.77 98.1204 908.78 98.0504 908.78 98.0004Z" fill="white"/>
<path opacity="0.8" d="M886.72 99.4395C884.489 99.4395 882.308 100.101 880.453 101.34C878.598 102.58 877.152 104.342 876.299 106.403C875.445 108.464 875.221 110.732 875.657 112.92C876.092 115.108 877.166 117.118 878.744 118.696C880.321 120.273 882.331 121.347 884.519 121.783C886.707 122.218 888.975 121.995 891.037 121.141C893.098 120.287 894.859 118.841 896.099 116.986C897.338 115.131 898 112.95 898 110.719C897.997 107.729 896.808 104.861 894.693 102.746C892.578 100.631 889.711 99.4421 886.72 99.4395V99.4395Z" fill="white"/>
<path opacity="0.8" d="M133.69 263.14C131.007 259.619 127.449 256.861 123.37 255.14C122.629 249.04 119.686 243.421 115.093 239.338C110.5 235.256 104.575 232.991 98.4299 232.97C94.1035 232.953 89.8473 234.063 86.0799 236.19C81.9955 232.248 76.9567 229.434 71.4573 228.025C65.958 226.616 60.1869 226.66 54.7098 228.154C49.2328 229.647 44.2378 232.538 40.2145 236.543C36.1913 240.548 33.2779 245.53 31.7599 251C27.9421 251.894 24.3565 253.585 21.2384 255.963C18.1203 258.34 15.5401 261.35 13.6673 264.795C11.7945 268.24 10.6713 272.042 10.3715 275.951C10.0716 279.861 10.6019 283.79 11.9276 287.48C13.2532 291.17 15.3442 294.538 18.0633 297.363C20.7824 300.188 24.0682 302.407 27.705 303.872C31.3419 305.338 35.2475 306.018 39.1657 305.868C43.0839 305.717 46.926 304.74 50.4399 303C53.9633 306.507 58.1686 309.253 62.7956 311.069C67.4227 312.885 72.3731 313.732 77.3408 313.559C82.3084 313.386 87.1877 312.195 91.6768 310.061C96.166 307.926 100.17 304.894 103.44 301.15C107.261 302.858 111.449 303.581 115.622 303.256C119.794 302.93 123.819 301.565 127.329 299.286C130.839 297.006 133.723 293.885 135.718 290.205C137.713 286.526 138.755 282.406 138.75 278.22C138.763 272.775 136.985 267.476 133.69 263.14V263.14Z" fill="white"/>
<path opacity="0.8" d="M50 311.4C47.2726 311.4 44.6064 312.209 42.3387 313.724C40.0709 315.24 38.3034 317.393 37.2597 319.913C36.2159 322.433 35.9428 325.206 36.4749 327.881C37.007 330.556 38.3204 333.013 40.249 334.941C42.1775 336.87 44.6347 338.183 47.3097 338.715C49.9847 339.248 52.7574 338.974 55.2772 337.931C57.797 336.887 59.9507 335.119 61.4659 332.852C62.9812 330.584 63.79 327.918 63.79 325.19C63.7847 321.535 62.3301 318.03 59.7451 315.445C57.1601 312.86 53.6557 311.406 50 311.4V311.4ZM43.78 325C43.78 325.34 43.78 325.68 43.78 326C43.7397 325.729 43.7197 325.455 43.72 325.18C43.77 325.12 43.78 325.05 43.78 325Z" fill="white"/>
<path opacity="0.8" d="M21.72 326.439C19.489 326.439 17.3081 327.101 15.4531 328.34C13.5981 329.58 12.1523 331.342 11.2986 333.403C10.4448 335.464 10.2214 337.732 10.6567 339.92C11.0919 342.108 12.1662 344.118 13.7438 345.696C15.3213 347.273 17.3312 348.347 19.5193 348.783C21.7074 349.218 23.9755 348.995 26.0366 348.141C28.0978 347.287 29.8595 345.841 31.0989 343.986C32.3384 342.131 33 339.95 33 337.719C32.9973 334.729 31.808 331.861 29.6932 329.746C27.5784 327.631 24.7108 326.442 21.72 326.439V326.439Z" fill="white"/>
<path opacity="0.8" d="M567.69 310.14C565.006 306.619 561.449 303.861 557.37 302.14C556.629 296.04 553.686 290.421 549.093 286.338C544.5 282.256 538.575 279.991 532.43 279.97C528.103 279.953 523.847 281.063 520.08 283.19C515.996 279.248 510.957 276.434 505.457 275.025C499.958 273.616 494.187 273.66 488.71 275.154C483.233 276.647 478.238 279.538 474.214 283.543C470.191 287.548 467.278 292.53 465.76 298C461.942 298.894 458.356 300.585 455.238 302.963C452.12 305.34 449.54 308.35 447.667 311.795C445.794 315.24 444.671 319.042 444.371 322.951C444.072 326.861 444.602 330.79 445.928 334.48C447.253 338.17 449.344 341.538 452.063 344.363C454.782 347.188 458.068 349.407 461.705 350.872C465.342 352.338 469.248 353.018 473.166 352.868C477.084 352.717 480.926 351.74 484.44 350C487.963 353.507 492.169 356.253 496.796 358.069C501.423 359.885 506.373 360.732 511.341 360.559C516.308 360.386 521.188 359.195 525.677 357.061C530.166 354.926 534.17 351.894 537.44 348.15C541.261 349.858 545.449 350.581 549.622 350.256C553.794 349.93 557.819 348.565 561.329 346.286C564.839 344.006 567.723 340.885 569.718 337.205C571.713 333.526 572.755 329.406 572.75 325.22C572.763 319.775 570.985 314.476 567.69 310.14V310.14Z" fill="white"/>
<path opacity="0.8" d="M484 358.4C481.273 358.4 478.606 359.209 476.339 360.724C474.071 362.24 472.303 364.393 471.26 366.913C470.216 369.433 469.943 372.206 470.475 374.881C471.007 377.556 472.32 380.013 474.249 381.941C476.178 383.87 478.635 385.183 481.31 385.715C483.985 386.248 486.757 385.974 489.277 384.931C491.797 383.887 493.951 382.119 495.466 379.852C496.981 377.584 497.79 374.918 497.79 372.19C497.785 368.535 496.33 365.03 493.745 362.445C491.16 359.86 487.656 358.406 484 358.4V358.4ZM477.78 372C477.78 372.34 477.78 372.68 477.83 373C477.79 372.729 477.77 372.455 477.77 372.18C477.77 372.12 477.78 372.05 477.78 372Z" fill="white"/>
<path opacity="0.8" d="M455.72 373.439C453.489 373.439 451.308 374.101 449.453 375.34C447.598 376.58 446.152 378.342 445.299 380.403C444.445 382.464 444.221 384.732 444.657 386.92C445.092 389.108 446.166 391.118 447.744 392.696C449.321 394.273 451.331 395.347 453.519 395.783C455.707 396.218 457.975 395.995 460.037 395.141C462.098 394.287 463.859 392.841 465.099 390.986C466.338 389.131 467 386.95 467 384.719C466.997 381.729 465.808 378.861 463.693 376.746C461.578 374.631 458.711 373.442 455.72 373.439V373.439Z" fill="white"/>
<path opacity="0.8" d="M987.69 399.14C985.006 395.619 981.449 392.861 977.37 391.14C976.629 385.04 973.686 379.421 969.093 375.338C964.5 371.256 958.575 368.991 952.43 368.97C948.104 368.953 943.847 370.063 940.08 372.19C935.996 368.248 930.957 365.434 925.457 364.025C919.958 362.616 914.187 362.66 908.71 364.154C903.233 365.647 898.238 368.538 894.214 372.543C890.191 376.548 887.278 381.53 885.76 387C881.942 387.894 878.356 389.585 875.238 391.963C872.12 394.34 869.54 397.35 867.667 400.795C865.794 404.24 864.671 408.042 864.371 411.951C864.072 415.861 864.602 419.79 865.928 423.48C867.253 427.17 869.344 430.538 872.063 433.363C874.782 436.188 878.068 438.407 881.705 439.872C885.342 441.338 889.248 442.018 893.166 441.868C897.084 441.717 900.926 440.74 904.44 439C907.963 442.507 912.169 445.253 916.796 447.069C921.423 448.885 926.373 449.732 931.341 449.559C936.308 449.386 941.188 448.195 945.677 446.061C950.166 443.926 954.169 440.894 957.44 437.15C961.261 438.858 965.449 439.581 969.622 439.256C973.794 438.93 977.819 437.565 981.329 435.286C984.839 433.006 987.723 429.885 989.718 426.205C991.713 422.526 992.755 418.406 992.75 414.22C992.763 408.775 990.985 403.476 987.69 399.14V399.14Z" fill="white"/>
<path opacity="0.8" d="M904 447.4C901.273 447.4 898.606 448.209 896.339 449.724C894.071 451.24 892.303 453.393 891.26 455.913C890.216 458.433 889.943 461.206 890.475 463.881C891.007 466.556 892.32 469.013 894.249 470.941C896.178 472.87 898.635 474.183 901.31 474.715C903.985 475.247 906.757 474.974 909.277 473.931C911.797 472.887 913.951 471.119 915.466 468.852C916.981 466.584 917.79 463.918 917.79 461.19C917.785 457.535 916.33 454.03 913.745 451.445C911.16 448.86 907.656 447.406 904 447.4V447.4ZM897.78 461C897.78 461.34 897.78 461.68 897.83 462C897.79 461.729 897.77 461.455 897.77 461.18C897.77 461.12 897.78 461.05 897.78 461Z" fill="white"/>
<path opacity="0.8" d="M875.72 462.439C873.489 462.439 871.308 463.101 869.453 464.34C867.598 465.58 866.152 467.342 865.299 469.403C864.445 471.464 864.221 473.732 864.657 475.92C865.092 478.108 866.166 480.118 867.744 481.696C869.321 483.273 871.331 484.347 873.519 484.783C875.707 485.218 877.975 484.995 880.037 484.141C882.098 483.287 883.859 481.841 885.099 479.986C886.338 478.131 887 475.95 887 473.719C886.997 470.729 885.808 467.861 883.693 465.746C881.578 463.631 878.711 462.442 875.72 462.439V462.439Z" fill="white"/>
<path opacity="0.8" d="M514.69 1826.14C512.007 1822.62 508.449 1819.86 504.37 1818.14C503.629 1812.04 500.686 1806.42 496.093 1802.34C491.5 1798.26 485.575 1795.99 479.43 1795.97C475.104 1795.95 470.847 1797.06 467.08 1799.19C462.996 1795.25 457.957 1792.43 452.457 1791.02C446.958 1789.62 441.187 1789.66 435.71 1791.15C430.233 1792.65 425.238 1795.54 421.215 1799.54C417.191 1803.55 414.278 1808.53 412.76 1814C408.942 1814.89 405.357 1816.59 402.238 1818.96C399.12 1821.34 396.54 1824.35 394.667 1827.8C392.795 1831.24 391.671 1835.04 391.371 1838.95C391.072 1842.86 391.602 1846.79 392.928 1850.48C394.253 1854.17 396.344 1857.54 399.063 1860.36C401.782 1863.19 405.068 1865.41 408.705 1866.87C412.342 1868.34 416.248 1869.02 420.166 1868.87C424.084 1868.72 427.926 1867.74 431.44 1866C434.963 1869.51 439.169 1872.25 443.796 1874.07C448.423 1875.88 453.373 1876.73 458.341 1876.56C463.308 1876.39 468.188 1875.19 472.677 1873.06C477.166 1870.93 481.17 1867.89 484.44 1864.15C488.261 1865.86 492.449 1866.58 496.622 1866.26C500.794 1865.93 504.819 1864.57 508.329 1862.29C511.839 1860.01 514.723 1856.88 516.718 1853.21C518.713 1849.53 519.755 1845.41 519.75 1841.22C519.763 1835.77 517.985 1830.48 514.69 1826.14V1826.14Z" fill="white"/>
<path opacity="0.8" d="M431 1874.4C428.273 1874.4 425.606 1875.21 423.339 1876.72C421.071 1878.24 419.303 1880.39 418.26 1882.91C417.216 1885.43 416.943 1888.21 417.475 1890.88C418.007 1893.56 419.32 1896.01 421.249 1897.94C423.178 1899.87 425.635 1901.18 428.31 1901.72C430.985 1902.25 433.757 1901.97 436.277 1900.93C438.797 1899.89 440.951 1898.12 442.466 1895.85C443.981 1893.58 444.79 1890.92 444.79 1888.19C444.785 1884.53 443.33 1881.03 440.745 1878.45C438.16 1875.86 434.656 1874.41 431 1874.4ZM424.78 1888C424.78 1888.34 424.78 1888.68 424.83 1889C424.79 1888.73 424.77 1888.45 424.77 1888.18C424.77 1888.12 424.78 1888.05 424.78 1888Z" fill="white"/>
<path opacity="0.8" d="M402.72 1889.44C400.489 1889.44 398.308 1890.1 396.453 1891.34C394.598 1892.58 393.152 1894.34 392.299 1896.4C391.445 1898.46 391.221 1900.73 391.657 1902.92C392.092 1905.11 393.166 1907.12 394.744 1908.7C396.321 1910.27 398.331 1911.35 400.519 1911.78C402.707 1912.22 404.975 1911.99 407.037 1911.14C409.098 1910.29 410.859 1908.84 412.099 1906.99C413.338 1905.13 414 1902.95 414 1900.72C413.997 1897.73 412.808 1894.86 410.693 1892.75C408.578 1890.63 405.711 1889.44 402.72 1889.44V1889.44Z" fill="white"/>
<path opacity="0.8" d="M965.69 2148.14C963.006 2144.62 959.449 2141.86 955.37 2140.14C954.629 2134.04 951.686 2128.42 947.093 2124.34C942.5 2120.26 936.575 2117.99 930.43 2117.97C926.103 2117.95 921.847 2119.06 918.08 2121.19C913.996 2117.25 908.957 2114.43 903.457 2113.02C897.958 2111.62 892.187 2111.66 886.71 2113.15C881.233 2114.65 876.238 2117.54 872.214 2121.54C868.191 2125.55 865.278 2130.53 863.76 2136C859.942 2136.89 856.356 2138.59 853.238 2140.96C850.12 2143.34 847.54 2146.35 845.667 2149.8C843.794 2153.24 842.671 2157.04 842.371 2160.95C842.072 2164.86 842.602 2168.79 843.928 2172.48C845.253 2176.17 847.344 2179.54 850.063 2182.36C852.782 2185.19 856.068 2187.41 859.705 2188.87C863.342 2190.34 867.248 2191.02 871.166 2190.87C875.084 2190.72 878.926 2189.74 882.44 2188C885.963 2191.51 890.169 2194.25 894.796 2196.07C899.423 2197.88 904.373 2198.73 909.341 2198.56C914.308 2198.39 919.188 2197.2 923.677 2195.06C928.166 2192.93 932.17 2189.89 935.44 2186.15C939.261 2187.86 943.449 2188.58 947.622 2188.26C951.794 2187.93 955.819 2186.57 959.329 2184.29C962.839 2182.01 965.723 2178.88 967.718 2175.21C969.713 2171.53 970.755 2167.41 970.75 2163.22C970.763 2157.77 968.985 2152.48 965.69 2148.14V2148.14Z" fill="white"/>
<path opacity="0.8" d="M882 2196.4C879.273 2196.4 876.606 2197.21 874.339 2198.72C872.071 2200.24 870.303 2202.39 869.26 2204.91C868.216 2207.43 867.943 2210.21 868.475 2212.88C869.007 2215.56 870.32 2218.01 872.249 2219.94C874.178 2221.87 876.635 2223.18 879.31 2223.72C881.985 2224.25 884.757 2223.97 887.277 2222.93C889.797 2221.89 891.951 2220.12 893.466 2217.85C894.981 2215.58 895.79 2212.92 895.79 2210.19C895.785 2206.53 894.33 2203.03 891.745 2200.45C889.16 2197.86 885.656 2196.41 882 2196.4V2196.4ZM875.78 2210C875.78 2210.34 875.78 2210.68 875.83 2211C875.79 2210.73 875.77 2210.45 875.77 2210.18C875.77 2210.12 875.78 2210.05 875.78 2210Z" fill="white"/>
<path opacity="0.8" d="M853.72 2211.44C851.489 2211.44 849.308 2212.1 847.453 2213.34C845.598 2214.58 844.152 2216.34 843.299 2218.4C842.445 2220.47 842.221 2222.73 842.657 2224.92C843.092 2227.11 844.166 2229.12 845.744 2230.7C847.321 2232.28 849.331 2233.35 851.519 2233.78C853.707 2234.22 855.975 2234 858.037 2233.14C860.098 2232.29 861.859 2230.84 863.099 2228.99C864.338 2227.13 865 2224.95 865 2222.72C864.997 2219.73 863.808 2216.86 861.693 2214.75C859.578 2212.63 856.711 2211.44 853.72 2211.44V2211.44Z" fill="white"/>
<path opacity="0.8" d="M301.69 693.14C299.007 689.619 295.449 686.861 291.37 685.14C290.629 679.04 287.686 673.421 283.093 669.338C278.5 665.256 272.575 662.991 266.43 662.97C262.104 662.953 257.847 664.063 254.08 666.19C249.996 662.248 244.957 659.434 239.457 658.025C233.958 656.616 228.187 656.66 222.71 658.154C217.233 659.647 212.238 662.538 208.215 666.543C204.191 670.548 201.278 675.53 199.76 681C195.942 681.894 192.357 683.585 189.238 685.963C186.12 688.34 183.54 691.35 181.667 694.795C179.795 698.24 178.671 702.042 178.371 705.951C178.072 709.861 178.602 713.79 179.928 717.48C181.253 721.17 183.344 724.538 186.063 727.363C188.782 730.188 192.068 732.407 195.705 733.872C199.342 735.338 203.248 736.018 207.166 735.868C211.084 735.717 214.926 734.74 218.44 733C221.963 736.507 226.169 739.253 230.796 741.069C235.423 742.885 240.373 743.732 245.341 743.559C250.308 743.386 255.188 742.195 259.677 740.061C264.166 737.926 268.17 734.894 271.44 731.15C275.261 732.858 279.449 733.581 283.622 733.256C287.794 732.93 291.819 731.565 295.329 729.286C298.839 727.006 301.723 723.885 303.718 720.205C305.713 716.526 306.755 712.406 306.75 708.22C306.763 702.775 304.985 697.476 301.69 693.14V693.14Z" fill="white"/>
<path opacity="0.8" d="M218 741.4C215.273 741.4 212.606 742.209 210.339 743.724C208.071 745.24 206.303 747.393 205.26 749.913C204.216 752.433 203.943 755.206 204.475 757.881C205.007 760.556 206.32 763.013 208.249 764.941C210.178 766.87 212.635 768.183 215.31 768.715C217.985 769.247 220.757 768.974 223.277 767.931C225.797 766.887 227.951 765.119 229.466 762.852C230.981 760.584 231.79 757.918 231.79 755.19C231.785 751.535 230.33 748.03 227.745 745.445C225.16 742.86 221.656 741.406 218 741.4V741.4ZM211.78 755C211.78 755.34 211.78 755.68 211.83 756C211.79 755.729 211.77 755.455 211.77 755.18C211.77 755.12 211.78 755.05 211.78 755Z" fill="white"/>
<path opacity="0.8" d="M189.72 756.439C187.489 756.439 185.308 757.101 183.453 758.34C181.598 759.58 180.152 761.342 179.299 763.403C178.445 765.464 178.221 767.732 178.657 769.92C179.092 772.108 180.166 774.118 181.744 775.696C183.321 777.273 185.331 778.347 187.519 778.783C189.707 779.218 191.975 778.995 194.037 778.141C196.098 777.287 197.859 775.841 199.099 773.986C200.338 772.131 201 769.95 201 767.719C200.997 764.729 199.808 761.861 197.693 759.746C195.578 757.631 192.711 756.442 189.72 756.439V756.439Z" fill="white"/>
<path opacity="0.8" d="M718.69 622.14C716.006 618.619 712.449 615.861 708.37 614.14C707.629 608.04 704.686 602.421 700.093 598.338C695.5 594.256 689.575 591.991 683.43 591.97C679.103 591.953 674.847 593.063 671.08 595.19C666.996 591.248 661.957 588.434 656.457 587.025C650.958 585.616 645.187 585.66 639.71 587.154C634.233 588.647 629.238 591.538 625.214 595.543C621.191 599.548 618.278 604.53 616.76 610C612.942 610.894 609.356 612.585 606.238 614.963C603.12 617.34 600.54 620.35 598.667 623.795C596.794 627.24 595.671 631.042 595.371 634.951C595.072 638.861 595.602 642.79 596.928 646.48C598.253 650.17 600.344 653.538 603.063 656.363C605.782 659.188 609.068 661.407 612.705 662.872C616.342 664.338 620.248 665.018 624.166 664.868C628.084 664.717 631.926 663.74 635.44 662C638.963 665.507 643.169 668.253 647.796 670.069C652.423 671.885 657.373 672.732 662.341 672.559C667.308 672.386 672.188 671.195 676.677 669.061C681.166 666.926 685.17 663.894 688.44 660.15C692.261 661.858 696.449 662.581 700.622 662.256C704.794 661.93 708.819 660.565 712.329 658.286C715.839 656.006 718.723 652.885 720.718 649.205C722.713 645.526 723.755 641.406 723.75 637.22C723.763 631.775 721.985 626.476 718.69 622.14V622.14Z" fill="white"/>
<path opacity="0.8" d="M635 670.4C632.273 670.4 629.606 671.209 627.339 672.724C625.071 674.24 623.303 676.393 622.26 678.913C621.216 681.433 620.943 684.206 621.475 686.881C622.007 689.556 623.32 692.013 625.249 693.941C627.178 695.87 629.635 697.183 632.31 697.715C634.985 698.247 637.757 697.974 640.277 696.931C642.797 695.887 644.951 694.119 646.466 691.852C647.981 689.584 648.79 686.918 648.79 684.19C648.785 680.535 647.33 677.03 644.745 674.445C642.16 671.86 638.656 670.406 635 670.4V670.4ZM628.78 684C628.78 684.34 628.78 684.68 628.83 685C628.79 684.729 628.77 684.455 628.77 684.18C628.77 684.12 628.78 684.05 628.78 684Z" fill="white"/>
<path opacity="0.8" d="M606.72 685.439C604.489 685.439 602.308 686.101 600.453 687.34C598.598 688.58 597.152 690.342 596.299 692.403C595.445 694.464 595.221 696.732 595.657 698.92C596.092 701.108 597.166 703.118 598.744 704.696C600.321 706.273 602.331 707.347 604.519 707.783C606.707 708.218 608.975 707.995 611.037 707.141C613.098 706.287 614.859 704.841 616.099 702.986C617.338 701.131 618 698.95 618 696.719C617.997 693.729 616.808 690.861 614.693 688.746C612.578 686.631 609.711 685.442 606.72 685.439V685.439Z" fill="white"/>
<path opacity="0.8" d="M615.69 1025.14C613.006 1021.62 609.449 1018.86 605.37 1017.14C604.629 1011.04 601.686 1005.42 597.093 1001.34C592.5 997.256 586.575 994.991 580.43 994.97C576.103 994.953 571.847 996.063 568.08 998.19C563.996 994.247 558.957 991.434 553.457 990.025C547.958 988.616 542.187 988.66 536.71 990.154C531.233 991.647 526.238 994.538 522.214 998.543C518.191 1002.55 515.278 1007.53 513.76 1013C509.942 1013.89 506.356 1015.59 503.238 1017.96C500.12 1020.34 497.54 1023.35 495.667 1026.8C493.794 1030.24 492.671 1034.04 492.371 1037.95C492.072 1041.86 492.602 1045.79 493.928 1049.48C495.253 1053.17 497.344 1056.54 500.063 1059.36C502.782 1062.19 506.068 1064.41 509.705 1065.87C513.342 1067.34 517.248 1068.02 521.166 1067.87C525.084 1067.72 528.926 1066.74 532.44 1065C535.963 1068.51 540.169 1071.25 544.796 1073.07C549.423 1074.88 554.373 1075.73 559.341 1075.56C564.308 1075.39 569.188 1074.19 573.677 1072.06C578.166 1069.93 582.17 1066.89 585.44 1063.15C589.261 1064.86 593.449 1065.58 597.622 1065.26C601.794 1064.93 605.819 1063.57 609.329 1061.29C612.839 1059.01 615.723 1055.88 617.718 1052.21C619.713 1048.53 620.755 1044.41 620.75 1040.22C620.763 1034.77 618.985 1029.48 615.69 1025.14V1025.14Z" fill="white"/>
<path opacity="0.8" d="M532 1073.4C529.273 1073.4 526.606 1074.21 524.339 1075.72C522.071 1077.24 520.303 1079.39 519.26 1081.91C518.216 1084.43 517.943 1087.21 518.475 1089.88C519.007 1092.56 520.32 1095.01 522.249 1096.94C524.178 1098.87 526.635 1100.18 529.31 1100.72C531.985 1101.25 534.757 1100.97 537.277 1099.93C539.797 1098.89 541.951 1097.12 543.466 1094.85C544.981 1092.58 545.79 1089.92 545.79 1087.19C545.785 1083.53 544.33 1080.03 541.745 1077.45C539.16 1074.86 535.656 1073.41 532 1073.4V1073.4ZM525.78 1087C525.78 1087.34 525.78 1087.68 525.83 1088C525.79 1087.73 525.77 1087.45 525.77 1087.18C525.77 1087.12 525.78 1087.05 525.78 1087Z" fill="white"/>
<path opacity="0.8" d="M503.72 1088.44C501.489 1088.44 499.308 1089.1 497.453 1090.34C495.598 1091.58 494.152 1093.34 493.299 1095.4C492.445 1097.46 492.221 1099.73 492.657 1101.92C493.092 1104.11 494.166 1106.12 495.744 1107.7C497.321 1109.27 499.331 1110.35 501.519 1110.78C503.707 1111.22 505.975 1110.99 508.037 1110.14C510.098 1109.29 511.859 1107.84 513.099 1105.99C514.338 1104.13 515 1101.95 515 1099.72C514.997 1096.73 513.808 1093.86 511.693 1091.75C509.578 1089.63 506.711 1088.44 503.72 1088.44V1088.44Z" fill="white"/>
<path opacity="0.8" d="M343.69 1531.14C341.007 1527.62 337.449 1524.86 333.37 1523.14C332.629 1517.04 329.686 1511.42 325.093 1507.34C320.5 1503.26 314.575 1500.99 308.43 1500.97C304.104 1500.95 299.847 1502.06 296.08 1504.19C291.996 1500.25 286.957 1497.43 281.457 1496.02C275.958 1494.62 270.187 1494.66 264.71 1496.15C259.233 1497.65 254.238 1500.54 250.215 1504.54C246.191 1508.55 243.278 1513.53 241.76 1519C237.942 1519.89 234.357 1521.59 231.238 1523.96C228.12 1526.34 225.54 1529.35 223.667 1532.8C221.795 1536.24 220.671 1540.04 220.371 1543.95C220.072 1547.86 220.602 1551.79 221.928 1555.48C223.253 1559.17 225.344 1562.54 228.063 1565.36C230.782 1568.19 234.068 1570.41 237.705 1571.87C241.342 1573.34 245.248 1574.02 249.166 1573.87C253.084 1573.72 256.926 1572.74 260.44 1571C263.963 1574.51 268.169 1577.25 272.796 1579.07C277.423 1580.88 282.373 1581.73 287.341 1581.56C292.308 1581.39 297.188 1580.19 301.677 1578.06C306.166 1575.93 310.17 1572.89 313.44 1569.15C317.261 1570.86 321.449 1571.58 325.622 1571.26C329.794 1570.93 333.819 1569.57 337.329 1567.29C340.839 1565.01 343.723 1561.88 345.718 1558.21C347.713 1554.53 348.755 1550.41 348.75 1546.22C348.763 1540.77 346.985 1535.48 343.69 1531.14V1531.14Z" fill="white"/>
<path opacity="0.8" d="M260 1579.4C257.273 1579.4 254.606 1580.21 252.339 1581.72C250.071 1583.24 248.303 1585.39 247.26 1587.91C246.216 1590.43 245.943 1593.21 246.475 1595.88C247.007 1598.56 248.32 1601.01 250.249 1602.94C252.178 1604.87 254.635 1606.18 257.31 1606.72C259.985 1607.25 262.757 1606.97 265.277 1605.93C267.797 1604.89 269.951 1603.12 271.466 1600.85C272.981 1598.58 273.79 1595.92 273.79 1593.19C273.785 1589.53 272.33 1586.03 269.745 1583.45C267.16 1580.86 263.656 1579.41 260 1579.4V1579.4ZM253.78 1593C253.78 1593.34 253.78 1593.68 253.83 1594C253.79 1593.73 253.77 1593.45 253.77 1593.18C253.77 1593.12 253.78 1593.05 253.78 1593Z" fill="white"/>
<path opacity="0.8" d="M231.72 1594.44C229.489 1594.44 227.308 1595.1 225.453 1596.34C223.598 1597.58 222.152 1599.34 221.299 1601.4C220.445 1603.46 220.221 1605.73 220.657 1607.92C221.092 1610.11 222.166 1612.12 223.744 1613.7C225.321 1615.27 227.331 1616.35 229.519 1616.78C231.707 1617.22 233.975 1616.99 236.037 1616.14C238.098 1615.29 239.859 1613.84 241.099 1611.99C242.338 1610.13 243 1607.95 243 1605.72C242.997 1602.73 241.808 1599.86 239.693 1597.75C237.578 1595.63 234.711 1594.44 231.72 1594.44V1594.44Z" fill="white"/>
<path opacity="0.8" d="M184.69 2068.14C182.006 2064.62 178.449 2061.86 174.37 2060.14C173.629 2054.04 170.686 2048.42 166.093 2044.34C161.5 2040.26 155.575 2037.99 149.43 2037.97C145.104 2037.95 140.847 2039.06 137.08 2041.19C132.996 2037.25 127.957 2034.43 122.457 2033.02C116.958 2031.62 111.187 2031.66 105.71 2033.15C100.233 2034.65 95.2378 2037.54 91.2145 2041.54C87.1913 2045.55 84.2778 2050.53 82.7599 2056C78.9421 2056.89 75.3565 2058.59 72.2384 2060.96C69.1203 2063.34 66.5401 2066.35 64.6673 2069.8C62.7945 2073.24 61.6713 2077.04 61.3715 2080.95C61.0716 2084.86 61.6019 2088.79 62.9275 2092.48C64.2532 2096.17 66.3442 2099.54 69.0633 2102.36C71.7824 2105.19 75.0682 2107.41 78.705 2108.87C82.3419 2110.34 86.2475 2111.02 90.1657 2110.87C94.0839 2110.72 97.926 2109.74 101.44 2108C104.963 2111.51 109.169 2114.25 113.796 2116.07C118.423 2117.88 123.373 2118.73 128.341 2118.56C133.308 2118.39 138.188 2117.2 142.677 2115.06C147.166 2112.93 151.17 2109.89 154.44 2106.15C158.261 2107.86 162.449 2108.58 166.622 2108.26C170.794 2107.93 174.819 2106.57 178.329 2104.29C181.839 2102.01 184.723 2098.88 186.718 2095.21C188.713 2091.53 189.755 2087.41 189.75 2083.22C189.763 2077.77 187.985 2072.48 184.69 2068.14V2068.14Z" fill="white"/>
<path opacity="0.8" d="M101 2116.4C98.2726 2116.4 95.6064 2117.21 93.3386 2118.72C91.0709 2120.24 89.3034 2122.39 88.2597 2124.91C87.2159 2127.43 86.9428 2130.21 87.4749 2132.88C88.007 2135.56 89.3204 2138.01 91.249 2139.94C93.1775 2141.87 95.6347 2143.18 98.3097 2143.72C100.985 2144.25 103.757 2143.97 106.277 2142.93C108.797 2141.89 110.951 2140.12 112.466 2137.85C113.981 2135.58 114.79 2132.92 114.79 2130.19C114.785 2126.53 113.33 2123.03 110.745 2120.45C108.16 2117.86 104.656 2116.41 101 2116.4V2116.4ZM94.78 2130C94.78 2130.34 94.78 2130.68 94.83 2131C94.7897 2130.73 94.7697 2130.45 94.77 2130.18C94.77 2130.12 94.78 2130.05 94.78 2130Z" fill="white"/>
<path opacity="0.8" d="M72.7199 2131.44C70.489 2131.44 68.3081 2132.1 66.4531 2133.34C64.5981 2134.58 63.1523 2136.34 62.2986 2138.4C61.4448 2140.47 61.2214 2142.73 61.6567 2144.92C62.0919 2147.11 63.1662 2149.12 64.7438 2150.7C66.3213 2152.28 68.3312 2153.35 70.5193 2153.78C72.7074 2154.22 74.9755 2154 77.0366 2153.14C79.0978 2152.29 80.8595 2150.84 82.0989 2148.99C83.3384 2147.13 83.9999 2144.95 83.9999 2142.72C83.9973 2139.73 82.808 2136.86 80.6932 2134.75C78.5783 2132.63 75.7108 2131.44 72.7199 2131.44V2131.44Z" fill="white"/>
<path opacity="0.8" d="M826.69 1298.14C824.006 1294.62 820.449 1291.86 816.37 1290.14C815.629 1284.04 812.686 1278.42 808.093 1274.34C803.5 1270.26 797.575 1267.99 791.43 1267.97C787.103 1267.95 782.847 1269.06 779.08 1271.19C774.996 1267.25 769.957 1264.43 764.457 1263.02C758.958 1261.62 753.187 1261.66 747.71 1263.15C742.233 1264.65 737.238 1267.54 733.214 1271.54C729.191 1275.55 726.278 1280.53 724.76 1286C720.942 1286.89 717.356 1288.59 714.238 1290.96C711.12 1293.34 708.54 1296.35 706.667 1299.8C704.794 1303.24 703.671 1307.04 703.371 1310.95C703.072 1314.86 703.602 1318.79 704.928 1322.48C706.253 1326.17 708.344 1329.54 711.063 1332.36C713.782 1335.19 717.068 1337.41 720.705 1338.87C724.342 1340.34 728.248 1341.02 732.166 1340.87C736.084 1340.72 739.926 1339.74 743.44 1338C746.963 1341.51 751.169 1344.25 755.796 1346.07C760.423 1347.88 765.373 1348.73 770.341 1348.56C775.308 1348.39 780.188 1347.19 784.677 1345.06C789.166 1342.93 793.17 1339.89 796.44 1336.15C800.261 1337.86 804.449 1338.58 808.622 1338.26C812.794 1337.93 816.819 1336.57 820.329 1334.29C823.839 1332.01 826.723 1328.88 828.718 1325.21C830.713 1321.53 831.755 1317.41 831.75 1313.22C831.763 1307.77 829.985 1302.48 826.69 1298.14Z" fill="white"/>
<path opacity="0.8" d="M743 1346.4C740.273 1346.4 737.606 1347.21 735.339 1348.72C733.071 1350.24 731.303 1352.39 730.26 1354.91C729.216 1357.43 728.943 1360.21 729.475 1362.88C730.007 1365.56 731.32 1368.01 733.249 1369.94C735.178 1371.87 737.635 1373.18 740.31 1373.72C742.985 1374.25 745.757 1373.97 748.277 1372.93C750.797 1371.89 752.951 1370.12 754.466 1367.85C755.981 1365.58 756.79 1362.92 756.79 1360.19C756.785 1356.53 755.33 1353.03 752.745 1350.45C750.16 1347.86 746.656 1346.41 743 1346.4V1346.4ZM736.78 1360C736.78 1360.34 736.78 1360.68 736.83 1361C736.79 1360.73 736.77 1360.45 736.77 1360.18C736.77 1360.12 736.78 1360.05 736.78 1360Z" fill="white"/>
<path opacity="0.8" d="M714.72 1361.44C712.489 1361.44 710.308 1362.1 708.453 1363.34C706.598 1364.58 705.152 1366.34 704.299 1368.4C703.445 1370.46 703.221 1372.73 703.657 1374.92C704.092 1377.11 705.166 1379.12 706.744 1380.7C708.321 1382.27 710.331 1383.35 712.519 1383.78C714.707 1384.22 716.975 1383.99 719.037 1383.14C721.098 1382.29 722.859 1380.84 724.099 1378.99C725.338 1377.13 726 1374.95 726 1372.72C725.997 1369.73 724.808 1366.86 722.693 1364.75C720.578 1362.63 717.711 1361.44 714.72 1361.44V1361.44Z" fill="white"/>
<path opacity="0.8" d="M976.69 1705.14C974.006 1701.62 970.449 1698.86 966.37 1697.14C965.629 1691.04 962.686 1685.42 958.093 1681.34C953.5 1677.26 947.575 1674.99 941.43 1674.97C937.103 1674.95 932.847 1676.06 929.08 1678.19C924.996 1674.25 919.957 1671.43 914.457 1670.02C908.958 1668.62 903.187 1668.66 897.71 1670.15C892.233 1671.65 887.238 1674.54 883.214 1678.54C879.191 1682.55 876.278 1687.53 874.76 1693C870.942 1693.89 867.356 1695.59 864.238 1697.96C861.12 1700.34 858.54 1703.35 856.667 1706.8C854.794 1710.24 853.671 1714.04 853.371 1717.95C853.072 1721.86 853.602 1725.79 854.928 1729.48C856.253 1733.17 858.344 1736.54 861.063 1739.36C863.782 1742.19 867.068 1744.41 870.705 1745.87C874.342 1747.34 878.248 1748.02 882.166 1747.87C886.084 1747.72 889.926 1746.74 893.44 1745C896.963 1748.51 901.169 1751.25 905.796 1753.07C910.423 1754.88 915.373 1755.73 920.341 1755.56C925.308 1755.39 930.188 1754.19 934.677 1752.06C939.166 1749.93 943.169 1746.89 946.44 1743.15C950.261 1744.86 954.449 1745.58 958.622 1745.26C962.794 1744.93 966.819 1743.57 970.329 1741.29C973.839 1739.01 976.723 1735.88 978.718 1732.21C980.713 1728.53 981.755 1724.41 981.75 1720.22C981.763 1714.77 979.985 1709.48 976.69 1705.14V1705.14Z" fill="white"/>
<path opacity="0.8" d="M893 1753.4C890.273 1753.4 887.606 1754.21 885.339 1755.72C883.071 1757.24 881.303 1759.39 880.26 1761.91C879.216 1764.43 878.943 1767.21 879.475 1769.88C880.007 1772.56 881.32 1775.01 883.249 1776.94C885.178 1778.87 887.635 1780.18 890.31 1780.72C892.985 1781.25 895.757 1780.97 898.277 1779.93C900.797 1778.89 902.951 1777.12 904.466 1774.85C905.981 1772.58 906.79 1769.92 906.79 1767.19C906.785 1763.53 905.33 1760.03 902.745 1757.45C900.16 1754.86 896.656 1753.41 893 1753.4ZM886.78 1767C886.78 1767.34 886.78 1767.68 886.83 1768C886.79 1767.73 886.77 1767.45 886.77 1767.18C886.77 1767.12 886.78 1767.05 886.78 1767Z" fill="white"/>
<path opacity="0.8" d="M864.72 1768.44C862.489 1768.44 860.308 1769.1 858.453 1770.34C856.598 1771.58 855.152 1773.34 854.299 1775.4C853.445 1777.46 853.221 1779.73 853.657 1781.92C854.092 1784.11 855.166 1786.12 856.744 1787.7C858.321 1789.27 860.331 1790.35 862.519 1790.78C864.707 1791.22 866.975 1790.99 869.037 1790.14C871.098 1789.29 872.859 1787.84 874.099 1785.99C875.338 1784.13 876 1781.95 876 1779.72C875.997 1776.73 874.808 1773.86 872.693 1771.75C870.578 1769.63 867.711 1768.44 864.72 1768.44V1768.44Z" fill="white"/>
<path opacity="0.8" d="M123.69 1207.14C121.007 1203.62 117.449 1200.86 113.37 1199.14C112.629 1193.04 109.686 1187.42 105.093 1183.34C100.5 1179.26 94.5747 1176.99 88.4299 1176.97C84.1035 1176.95 79.8473 1178.06 76.0799 1180.19C71.9955 1176.25 66.9567 1173.43 61.4573 1172.02C55.958 1170.62 50.1869 1170.66 44.7098 1172.15C39.2328 1173.65 34.2378 1176.54 30.2145 1180.54C26.1913 1184.55 23.2779 1189.53 21.7599 1195C17.9421 1195.89 14.3565 1197.59 11.2384 1199.96C8.12027 1202.34 5.54015 1205.35 3.66732 1208.8C1.79449 1212.24 0.671302 1216.04 0.371467 1219.95C0.0716332 1223.86 0.601935 1227.79 1.92756 1231.48C3.25318 1235.17 5.34416 1238.54 8.06329 1241.36C10.7824 1244.19 14.0682 1246.41 17.705 1247.87C21.3419 1249.34 25.2475 1250.02 29.1657 1249.87C33.0839 1249.72 36.926 1248.74 40.4399 1247C43.9633 1250.51 48.1686 1253.25 52.7956 1255.07C57.4227 1256.88 62.3731 1257.73 67.3408 1257.56C72.3084 1257.39 77.1877 1256.19 81.6768 1254.06C86.166 1251.93 90.1695 1248.89 93.4399 1245.15C97.2612 1246.86 101.449 1247.58 105.622 1247.26C109.794 1246.93 113.819 1245.57 117.329 1243.29C120.839 1241.01 123.723 1237.88 125.718 1234.21C127.713 1230.53 128.755 1226.41 128.75 1222.22C128.763 1216.77 126.985 1211.48 123.69 1207.14V1207.14Z" fill="white"/>
<path opacity="0.8" d="M40 1255.4C37.2726 1255.4 34.6064 1256.21 32.3387 1257.72C30.0709 1259.24 28.3034 1261.39 27.2597 1263.91C26.2159 1266.43 25.9428 1269.21 26.4749 1271.88C27.007 1274.56 28.3204 1277.01 30.249 1278.94C32.1775 1280.87 34.6347 1282.18 37.3097 1282.72C39.9847 1283.25 42.7574 1282.97 45.2772 1281.93C47.797 1280.89 49.9507 1279.12 51.4659 1276.85C52.9812 1274.58 53.79 1271.92 53.79 1269.19C53.7847 1265.53 52.3301 1262.03 49.7451 1259.45C47.1601 1256.86 43.6557 1255.41 40 1255.4ZM33.78 1269C33.78 1269.34 33.78 1269.68 33.78 1270C33.7397 1269.73 33.7197 1269.45 33.72 1269.18C33.77 1269.12 33.78 1269.05 33.78 1269Z" fill="white"/>
<path opacity="0.8" d="M11.72 1270.44C9.48898 1270.44 7.30811 1271.1 5.45312 1272.34C3.59813 1273.58 2.15234 1275.34 1.29859 1277.4C0.444831 1279.46 0.221447 1281.73 0.656688 1283.92C1.09193 1286.11 2.16625 1288.12 3.74379 1289.7C5.32132 1291.27 7.33122 1292.35 9.51933 1292.78C11.7074 1293.22 13.9755 1292.99 16.0366 1292.14C18.0978 1291.29 19.8595 1289.84 21.0989 1287.99C22.3384 1286.13 23 1283.95 23 1281.72C22.9973 1278.73 21.808 1275.86 19.6932 1273.75C17.5784 1271.63 14.7108 1270.44 11.72 1270.44V1270.44Z" fill="white"/>
<path opacity="0.8" d="M1018.69 912.14C1016.01 908.619 1012.45 905.861 1008.37 904.14C1007.63 898.04 1004.69 892.421 1000.09 888.338C995.5 884.256 989.575 881.991 983.43 881.97C979.104 881.953 974.847 883.063 971.08 885.19C966.995 881.248 961.957 878.434 956.457 877.025C950.958 875.616 945.187 875.66 939.71 877.154C934.233 878.647 929.238 881.538 925.214 885.543C921.191 889.548 918.278 894.53 916.76 900C912.942 900.894 909.356 902.585 906.238 904.963C903.12 907.34 900.54 910.35 898.667 913.795C896.794 917.24 895.671 921.042 895.371 924.951C895.072 928.861 895.602 932.79 896.928 936.48C898.253 940.17 900.344 943.538 903.063 946.363C905.782 949.188 909.068 951.407 912.705 952.872C916.342 954.338 920.248 955.018 924.166 954.868C928.084 954.717 931.926 953.74 935.44 952C938.963 955.507 943.169 958.253 947.796 960.069C952.423 961.885 957.373 962.732 962.341 962.559C967.308 962.386 972.188 961.195 976.677 959.061C981.166 956.926 985.169 953.894 988.44 950.15C992.261 951.858 996.449 952.581 1000.62 952.256C1004.79 951.93 1008.82 950.565 1012.33 948.286C1015.84 946.006 1018.72 942.885 1020.72 939.205C1022.71 935.526 1023.76 931.406 1023.75 927.22C1023.76 921.775 1021.99 916.476 1018.69 912.14V912.14Z" fill="white"/>
<path opacity="0.8" d="M935 960.4C932.273 960.4 929.606 961.209 927.339 962.724C925.071 964.24 923.303 966.393 922.26 968.913C921.216 971.433 920.943 974.206 921.475 976.881C922.007 979.556 923.32 982.013 925.249 983.941C927.178 985.87 929.635 987.183 932.31 987.715C934.985 988.248 937.757 987.974 940.277 986.931C942.797 985.887 944.951 984.119 946.466 981.852C947.981 979.584 948.79 976.918 948.79 974.19C948.785 970.535 947.33 967.03 944.745 964.445C942.16 961.86 938.656 960.406 935 960.4V960.4ZM928.74 973.99C928.74 974.33 928.74 974.67 928.79 974.99C928.75 974.719 928.73 974.445 928.73 974.17C928.77 974.12 928.78 974.05 928.78 974L928.74 973.99Z" fill="white"/>
<path opacity="0.8" d="M906.72 975.439C904.489 975.439 902.308 976.101 900.453 977.341C898.598 978.58 897.152 980.342 896.299 982.403C895.445 984.464 895.221 986.732 895.657 988.92C896.092 991.108 897.166 993.118 898.744 994.696C900.321 996.273 902.331 997.347 904.519 997.783C906.707 998.218 908.975 997.995 911.037 997.141C913.098 996.287 914.859 994.841 916.099 992.986C917.338 991.131 918 988.95 918 986.719C917.997 983.729 916.808 980.861 914.693 978.746C912.578 976.631 909.711 975.442 906.72 975.439V975.439Z" fill="white"/>
</g>
</svg>
