<svg width="11" height="11" viewBox="0 0 11 11" fill="none" xmlns="http://www.w3.org/2000/svg">
<path d="M5.316 0.400025C6.4539 0.399307 7.55685 0.793199 8.43687 1.51458C9.3169 2.23595 9.91954 3.24017 10.1421 4.3561C10.3647 5.47202 10.1934 6.6306 9.65744 7.63438C9.12149 8.63817 8.25405 9.42505 7.20293 9.86092C6.15182 10.2968 4.98208 10.3547 3.89306 10.0247C2.80404 9.69479 1.86314 8.99741 1.23069 8.05145C0.598241 7.10549 0.313389 5.96949 0.424677 4.83704C0.535964 3.70459 1.0365 2.64577 1.841 1.84103C2.76246 0.918958 4.01242 0.400628 5.316 0.400025V0.400025ZM7.823 5.05103C7.89138 5.0552 7.95558 5.08531 8.00253 5.1352C8.04947 5.1851 8.0756 5.25102 8.0756 5.31953C8.0756 5.38803 8.04947 5.45396 8.00253 5.50385C7.95558 5.55374 7.89138 5.58385 7.823 5.58803H5.316C5.26894 5.58763 5.22282 5.57486 5.18227 5.55098C5.14172 5.52711 5.10817 5.49298 5.085 5.45203V2.11903C5.08473 2.08415 5.0914 2.04957 5.10463 2.0173C5.11785 1.98503 5.13736 1.95571 5.16202 1.93105C5.18668 1.90639 5.216 1.88688 5.24827 1.87365C5.28054 1.86043 5.31512 1.85376 5.35 1.85403C5.38501 1.85376 5.41974 1.86041 5.45217 1.8736C5.48461 1.88679 5.51413 1.90625 5.53903 1.93087C5.56393 1.95549 5.58372 1.98479 5.59727 2.01708C5.61082 2.04936 5.61787 2.08401 5.618 2.11903V5.05103H7.823ZM8.416 2.21903C7.69862 1.50283 6.75513 1.05749 5.74624 0.958888C4.73736 0.860283 3.7255 1.11451 2.88302 1.67826C2.04055 2.242 1.41959 3.0804 1.12592 4.05062C0.832244 5.02084 0.88403 6.06286 1.27245 6.99919C1.66087 7.93551 2.36191 8.7082 3.25612 9.18564C4.15034 9.66308 5.18242 9.81572 6.17656 9.61757C7.1707 9.41943 8.06539 8.88274 8.70821 8.09894C9.35104 7.31514 9.70225 6.33272 9.702 5.31903C9.70257 4.74304 9.58924 4.17264 9.36854 3.64062C9.14783 3.1086 8.82411 2.62547 8.416 2.21903V2.21903Z" fill="#B324DA" stroke="#7D54D6" stroke-width="0.8"/>
</svg>
