<svg width="8" height="10" viewBox="0 0 8 10" fill="none" xmlns="http://www.w3.org/2000/svg">
<path d="M1.259 3.187V4.187H1.192C0.990253 4.18726 0.796844 4.26753 0.654186 4.41018C0.511528 4.55284 0.431264 4.74625 0.431 4.948V9.144C0.431264 9.34575 0.511528 9.53916 0.654186 9.68182C0.796844 9.82447 0.990253 9.90474 1.192 9.905H7.043C7.24475 9.90474 7.43816 9.82447 7.58082 9.68182C7.72348 9.53916 7.80373 9.34575 7.804 9.144V4.949C7.80373 4.74725 7.72348 4.55384 7.58082 4.41118C7.43816 4.26853 7.24475 4.18826 7.043 4.188H7.023V3.188C7.023 2.42351 6.71931 1.69034 6.17874 1.14976C5.63816 0.609191 4.90499 0.3055 4.1405 0.3055C3.37601 0.3055 2.64284 0.609191 2.10226 1.14976C1.56169 1.69034 1.258 2.42351 1.258 3.188L1.259 3.187ZM4.569 7.233C4.5436 7.2491 4.52315 7.27192 4.50992 7.29892C4.49668 7.32592 4.49117 7.35606 4.494 7.386V8.308C4.49795 8.37083 4.48374 8.43346 4.45306 8.48843C4.42239 8.5434 4.37654 8.58838 4.321 8.618C4.2665 8.64935 4.20473 8.66583 4.14186 8.66581C4.079 8.66579 4.01724 8.64925 3.96276 8.61787C3.90829 8.58648 3.86302 8.54134 3.83147 8.48696C3.79992 8.43258 3.78321 8.37087 3.783 8.308V8.303V7.379C3.78562 7.35086 3.78058 7.32253 3.76844 7.29701C3.7563 7.27149 3.73749 7.24972 3.714 7.234C3.58034 7.13965 3.48395 7.00147 3.44157 6.84346C3.39919 6.68544 3.4135 6.51757 3.482 6.369C3.5485 6.21958 3.66408 6.09739 3.80957 6.0227C3.95507 5.948 4.12172 5.92529 4.28189 5.95833C4.44207 5.99136 4.58614 6.07817 4.6902 6.20434C4.79426 6.33051 4.85205 6.48847 4.854 6.652C4.85841 6.76488 4.83468 6.87709 4.78492 6.97852C4.73517 7.07994 4.66097 7.16739 4.569 7.233V7.233ZM2.521 3.187C2.5315 2.76419 2.70684 2.36222 3.0096 2.06689C3.31236 1.77156 3.71856 1.60626 4.1415 1.60626C4.56445 1.60626 4.97064 1.77156 5.2734 2.06689C5.57616 2.36222 5.7515 2.76419 5.762 3.187V4.187H2.521V3.187Z" fill="#00BCD4"/>
</svg>
