<svg width="52" height="39" viewBox="0 0 52 39" fill="none" xmlns="http://www.w3.org/2000/svg">
<path d="M16.03 8.20388H10.4378C8.37882 8.20388 6.70968 10.1691 6.70968 12.5932V25.7613C6.70968 28.1855 8.37882 30.1507 10.4378 30.1507H16.03C18.089 30.1507 19.7582 28.1855 19.7582 25.7613V12.5932C19.7582 10.1691 18.089 8.20388 16.03 8.20388Z" fill="#F0F0F0"/>
<path d="M13.1389 19.4757C13.7126 19.4036 14.2393 19.0694 14.606 18.545C14.9727 18.0205 15.15 17.3477 15.0999 16.6709C15.0999 15.1215 14.8109 13.8662 13.1389 13.8662C11.4668 13.8662 11.1779 15.1215 11.1779 16.6709C11.1278 17.3477 11.3051 18.0205 11.6717 18.545C12.0384 19.0694 12.5652 19.4036 13.1389 19.4757Z" fill="#7B6DFF"/>
<path d="M16.839 23.6456C16.8036 20.9484 16.5035 20.1781 14.2126 19.6952C13.9175 20.0066 13.5351 20.1788 13.1389 20.1788C12.7426 20.1788 12.3603 20.0066 12.0652 19.6952C9.80032 20.1759 9.48156 20.933 9.44055 23.5622V24.0473C9.44055 24.0473 9.98673 25.3421 13.1445 25.3421C16.3022 25.3421 16.8484 24.0473 16.8484 24.0473V23.8278C16.8426 23.7673 16.8394 23.7065 16.839 23.6456Z" fill="#7B6DFF"/>
<path d="M41.1913 8.20388H35.5991C33.5401 8.20388 31.871 10.1691 31.871 12.5932V25.7613C31.871 28.1855 33.5401 30.1507 35.5991 30.1507H41.1913C43.2503 30.1507 44.9195 28.1855 44.9195 25.7613V12.5932C44.9195 10.1691 43.2503 8.20388 41.1913 8.20388Z" fill="#F0F0F0"/>
<path d="M38.3002 19.4757C38.8738 19.4036 39.4006 19.0694 39.7673 18.545C40.134 18.0205 40.3113 17.3477 40.2612 16.6709C40.2612 15.1215 39.9722 13.8662 38.3002 13.8662C36.6281 13.8662 36.3392 15.1215 36.3392 16.6709C36.289 17.3477 36.4664 18.0205 36.833 18.545C37.1997 19.0694 37.7265 19.4036 38.3002 19.4757Z" fill="#7B6DFF"/>
<path d="M42.0003 23.6456C41.9649 20.9484 41.6648 20.1781 39.3739 19.6952C39.0788 20.0066 38.6964 20.1788 38.3002 20.1788C37.9039 20.1788 37.5215 20.0066 37.2265 19.6952C34.9616 20.1759 34.6429 20.933 34.6018 23.5622V24.0473C34.6018 24.0473 35.148 25.3421 38.3057 25.3421C41.4635 25.3421 42.0097 24.0473 42.0097 24.0473V23.8278C42.0038 23.7673 42.0007 23.7065 42.0003 23.6456Z" fill="#7B6DFF"/>
<path d="M30.1047 5.42246H21.6419C18.526 5.42246 16 7.80229 16 10.738V26.6845C16 29.6202 18.526 32 21.6419 32H30.1047C33.2207 32 35.7467 29.6202 35.7467 26.6845V10.738C35.7467 7.80229 33.2207 5.42246 30.1047 5.42246Z" fill="#F0F0F0"/>
<path d="M25.7295 19.0727C26.5976 18.9853 27.3948 18.5806 27.9497 17.9455C28.5046 17.3104 28.773 16.4956 28.6971 15.6761C28.6971 13.7997 28.2599 12.2795 25.7295 12.2795C23.1991 12.2795 22.7618 13.7997 22.7618 15.6761C22.686 16.4956 22.9543 17.3104 23.5092 17.9455C24.0641 18.5806 24.8613 18.9853 25.7295 19.0727Z" fill="#7B6DFF"/>
<path d="M31.3291 24.1224C31.2755 20.8561 30.8213 19.9232 27.3543 19.3385C26.9078 19.7156 26.3292 19.9241 25.7295 19.9241C25.1298 19.9241 24.5512 19.7156 24.1046 19.3385C20.6772 19.9205 20.1948 20.8374 20.1327 24.0214V24.6088C20.1327 24.6088 20.9592 26.1769 25.7379 26.1769C30.5166 26.1769 31.3432 24.6088 31.3432 24.6088V24.343C31.3344 24.2698 31.3297 24.1962 31.3291 24.1224Z" fill="#7B6DFF"/>
</svg>
