<svg width="10" height="10" viewBox="0 0 10 10" fill="none" xmlns="http://www.w3.org/2000/svg">
<path d="M6.03791 3.3827L5.68768 2.53721L7.4438 1.93129L7.46009 1.92614C7.57182 1.88603 7.69155 1.87332 7.80921 1.88907C7.92687 1.90482 8.03903 1.94857 8.13628 2.01665C8.20881 2.07719 8.26548 2.1545 8.30138 2.24188C8.33728 2.32926 8.35133 2.42408 8.34232 2.51812C8.33514 2.62383 8.3111 2.7277 8.27112 2.82582L8.26424 2.84248L7.47507 4.52548L6.67083 4.08879C6.40278 3.91161 6.18483 3.66846 6.03791 3.3827V3.3827Z" fill="#00BCD4"/>
<path d="M0.395234 9.47673L6.09357 4.34593C6.18919 4.43461 6.29466 4.51204 6.40792 4.57669L9.21391 6.10264C9.59075 6.30664 9.6359 6.55334 9.62914 6.68217C9.62313 6.79701 9.55828 7.079 9.08685 7.20851L0.890179 9.47163C0.729234 9.52162 0.557175 9.52339 0.395234 9.47673V9.47673Z" fill="#00BCD4"/>
<path d="M5.72168 3.93291L0.0222988 9.06466C0.00974175 9.00454 0.00522093 8.94301 0.00885523 8.8817C0.0159638 8.77533 0.0400366 8.67078 0.0801613 8.57201L3.18967 0.656902C3.35182 0.237814 3.60456 0.172953 3.73985 0.17103C3.87514 0.169108 4.12932 0.229494 4.30081 0.645038L5.52504 3.59615C5.57752 3.71554 5.64349 3.82853 5.72168 3.93291V3.93291Z" fill="#00BCD4"/>
</svg>
