<svg width="9" height="11" viewBox="0 0 9 11" fill="none" xmlns="http://www.w3.org/2000/svg">
<path d="M0.756001 5.67599C0.690567 5.11283 0.744129 4.5422 0.913224 4.00106C1.08232 3.45991 1.36318 2.9603 1.73761 2.53459C2.11204 2.10888 2.5717 1.76654 3.08684 1.52975C3.60197 1.29295 4.16109 1.16698 4.728 1.15999V0.0719909C4.72909 0.0580173 4.73392 0.0445958 4.742 0.0331377C4.75007 0.0216796 4.76108 0.0126084 4.77387 0.00687801C4.78666 0.00114758 4.80076 -0.00103035 4.81469 0.000573265C4.82861 0.00217688 4.84185 0.00750277 4.853 0.0159909L7.092 1.66099C7.10049 1.66743 7.10738 1.67574 7.11212 1.68528C7.11686 1.69482 7.11934 1.70534 7.11934 1.71599C7.11934 1.72665 7.11686 1.73716 7.11212 1.7467C7.10738 1.75624 7.10049 1.76456 7.092 1.77099L4.856 3.41699C4.84485 3.42548 4.83161 3.4308 4.81769 3.43241C4.80376 3.43401 4.78966 3.43183 4.77687 3.4261C4.76408 3.42037 4.75307 3.4113 4.745 3.39984C4.73693 3.38839 4.73209 3.37496 4.731 3.36099V2.27499C4.16195 2.28525 3.60819 2.46091 3.13727 2.78054C2.66636 3.10016 2.29864 3.54994 2.079 4.07499C1.8748 4.55796 1.80536 5.08725 1.87809 5.60655C1.95082 6.12584 2.16298 6.6157 2.492 7.02399C2.53737 7.08171 2.57093 7.14779 2.59076 7.21848C2.61059 7.28917 2.61631 7.36306 2.60758 7.43596C2.59885 7.50885 2.57585 7.57931 2.53989 7.64332C2.50393 7.70732 2.45572 7.76362 2.398 7.80899C2.34028 7.85436 2.2742 7.88792 2.20351 7.90775C2.13283 7.92758 2.05893 7.9333 1.98603 7.92457C1.91314 7.91584 1.84268 7.89284 1.77867 7.85688C1.71467 7.82092 1.65837 7.77271 1.613 7.71499C1.14108 7.12955 0.844028 6.42278 0.756001 5.67599V5.67599ZM7.223 3.58499C7.55276 3.99369 7.76536 4.48426 7.83809 5.00435C7.91083 5.52443 7.84098 6.0545 7.636 6.53799C7.41667 7.06327 7.04904 7.51325 6.57806 7.83293C6.10707 8.1526 5.55314 8.32811 4.984 8.33799V7.24899C4.98291 7.23502 4.97807 7.2216 4.97 7.21014C4.96193 7.19868 4.95092 7.18961 4.93813 7.18388C4.92533 7.17815 4.91124 7.17597 4.89731 7.17757C4.88339 7.17918 4.87015 7.1845 4.859 7.19299L2.619 8.83899C2.61051 8.84542 2.60362 8.85374 2.59887 8.86328C2.59413 8.87282 2.59166 8.88333 2.59166 8.89399C2.59166 8.90465 2.59413 8.91516 2.59887 8.9247C2.60362 8.93424 2.61051 8.94256 2.619 8.94899L4.857 10.595C4.86815 10.6035 4.88139 10.6088 4.89531 10.6104C4.90924 10.612 4.92334 10.6098 4.93613 10.6041C4.94892 10.5984 4.95993 10.5893 4.968 10.5778C4.97607 10.5664 4.98091 10.553 4.982 10.539V9.44999C5.54891 9.443 6.10803 9.31703 6.62316 9.08023C7.1383 8.84344 7.59796 8.50111 7.97239 8.07539C8.34682 7.64968 8.62768 7.15007 8.79677 6.60893C8.96587 6.06778 9.01943 5.49715 8.954 4.93399C8.86825 4.18732 8.57247 3.4803 8.101 2.89499C8.05563 2.83741 7.99936 2.78932 7.9354 2.75348C7.87145 2.71765 7.80106 2.69475 7.72826 2.68612C7.65546 2.67748 7.58167 2.68327 7.51111 2.70315C7.44054 2.72303 7.37458 2.75662 7.317 2.80199C7.25941 2.84736 7.21133 2.90363 7.17549 2.96759C7.13965 3.03154 7.11676 3.10193 7.10813 3.17473C7.09949 3.24753 7.10528 3.32132 7.12516 3.39188C7.14504 3.46245 7.17863 3.52841 7.224 3.58599L7.223 3.58499Z" fill="#B42D25"/>
</svg>
