<svg width="10" height="10" viewBox="0 0 10 10" fill="none" xmlns="http://www.w3.org/2000/svg">
<path d="M3.20742 5.76645L2.4204 5.33604L1.65088 6.98439C1.6506 6.98995 1.6459 6.99467 1.64395 7.00017C1.59355 7.10511 1.56914 7.22067 1.57276 7.337C1.57638 7.45339 1.60794 7.56717 1.66477 7.66878C1.7161 7.74533 1.78528 7.80828 1.86635 7.85211C1.94741 7.896 2.03792 7.91945 2.13008 7.92056C2.2344 7.924 2.3386 7.91061 2.43867 7.881L2.45508 7.87572L4.17327 7.282L3.82696 6.454C3.68265 6.17561 3.46933 5.93889 3.20742 5.76645Z" fill="#C12EF7"/>
<path d="M9.71739 0.890118L4.14027 5.91528C4.21686 6.01756 4.28146 6.12822 4.33282 6.24522L5.53042 9.13306C5.69161 9.52083 5.92667 9.58983 6.05261 9.59639C6.16356 9.60217 6.4435 9.56778 6.62022 9.12245L9.66167 1.37232C9.72706 1.2205 9.74639 1.05284 9.71739 0.890118Z" fill="#C12EF7"/>
<path d="M3.77515 5.51193L9.35295 0.484549C9.29567 0.466087 9.23617 0.45532 9.176 0.452531C9.0715 0.449029 8.96717 0.462379 8.86689 0.492068L0.84359 2.70851C0.419126 2.82605 0.330467 3.0651 0.317491 3.19682C0.304514 3.32855 0.334734 3.58157 0.722123 3.79144L3.46769 5.28397C3.57856 5.34794 3.68172 5.42442 3.77515 5.51193Z" fill="#C12EF7"/>
</svg>
