<svg width="10" height="11" viewBox="0 0 10 11" fill="none" xmlns="http://www.w3.org/2000/svg">
<path d="M5.18301 10.713C6.36612 10.5712 7.4512 9.98525 8.21872 9.07378C8.98625 8.16231 9.37892 6.99334 9.3173 5.80335C9.25568 4.61336 8.74436 3.4912 7.8868 2.66388C7.02923 1.83657 5.88944 1.36586 4.69801 1.34699V0.0829945C4.69665 0.0666039 4.69088 0.0508864 4.68131 0.0375132C4.67174 0.0241399 4.65872 0.013611 4.64364 0.00704592C4.62856 0.000480828 4.61198 -0.001875 4.59567 0.000228935C4.57936 0.00233287 4.56393 0.00881791 4.55101 0.0189945L1.95101 1.92999C1.94088 1.93743 1.93264 1.94714 1.92697 1.95834C1.92129 1.96955 1.91833 1.98193 1.91833 1.99449C1.91833 2.00706 1.92129 2.01944 1.92697 2.03065C1.93264 2.04185 1.94088 2.05156 1.95101 2.05899L4.55101 3.96999C4.56393 3.98017 4.57936 3.98666 4.59567 3.98876C4.61198 3.99086 4.62856 3.98851 4.64364 3.98194C4.65872 3.97538 4.67174 3.96485 4.68131 3.95148C4.69088 3.9381 4.69665 3.92239 4.69801 3.90599V2.64599C5.34449 2.65725 5.97436 2.85262 6.51374 3.20918C7.05313 3.56574 7.47965 4.06871 7.7433 4.6591C8.00695 5.24949 8.09679 5.90281 8.00228 6.54245C7.90777 7.18209 7.63283 7.78152 7.2097 8.27043C6.78658 8.75934 6.23282 9.11747 5.61337 9.30281C4.99392 9.48814 4.33447 9.49301 3.71235 9.31682C3.09024 9.14064 2.53126 8.79072 2.10097 8.3081C1.67069 7.82548 1.38694 7.23017 1.283 6.59199C1.25648 6.42239 1.16367 6.27026 1.02499 6.16909C0.886307 6.06791 0.713112 6.02597 0.543506 6.05249C0.3739 6.07902 0.221777 6.17183 0.120601 6.31051C0.0194254 6.44919 -0.0225166 6.62239 0.00400502 6.79199C0.197727 7.986 0.84387 9.05952 1.80827 9.78966C2.77267 10.5198 3.98123 10.8505 5.18301 10.713V10.713Z" fill="#7B6DFF"/>
</svg>
