<svg width="18" height="21" viewBox="0 0 18 21" fill="none" xmlns="http://www.w3.org/2000/svg">
<path d="M7.93534 20.9231C7.6223 20.9235 7.31407 20.846 7.03842 20.6976C6.76278 20.5492 6.52838 20.3346 6.35634 20.0731L13.6863 18.6371C14.4639 18.4766 15.147 18.0162 15.5876 17.3557C16.0282 16.6952 16.1909 15.8877 16.0403 15.1081L13.7923 3.30808H15.8993C16.3452 3.3123 16.7714 3.49246 17.0851 3.80934C17.3988 4.12622 17.5746 4.55419 17.5743 5.00008V19.2441C17.575 19.464 17.5323 19.6819 17.4487 19.8853C17.3652 20.0887 17.2423 20.2737 17.0872 20.4296C16.9321 20.5855 16.7478 20.7094 16.5449 20.794C16.3419 20.8787 16.1243 20.9226 15.9043 20.9231H7.93534ZM4.34334 18.9301C3.9524 18.9287 3.57421 18.7909 3.27405 18.5404C2.9739 18.2899 2.77063 17.9425 2.69934 17.5581L0.0303424 3.57108C-0.0535579 3.13293 0.0381306 2.67936 0.285631 2.30821C0.533131 1.93705 0.916607 1.67805 1.35334 1.58708L10.1393 0.0290811C10.3563 -0.0118497 10.5791 -0.00955301 10.7951 0.0358395C11.0112 0.081232 11.2161 0.168827 11.3982 0.293601C11.5803 0.418374 11.736 0.577871 11.8563 0.762942C11.9766 0.948013 12.0592 1.15502 12.0993 1.37208L14.7643 15.3591C14.8482 15.7974 14.7564 16.2511 14.5087 16.6223C14.261 16.9934 13.8773 17.2523 13.4403 17.3431L4.65334 18.9001C4.55115 18.9196 4.44738 18.9296 4.34334 18.9301Z" fill="url(#paint0_linear)"/>
<linearGradient id="paint0_linear" x1="8.78718" y1="0" x2="8.78718" y2="20.9231" gradientUnits="userSpaceOnUse">
<stop offset="100%" stop-color="#B74CD5"/>
<stop offset="80%" stop-color="#774CD5"/>
</linearGradient>
</svg>
