<svg width="63" height="63" viewBox="0 0 63 63" fill="none" xmlns="http://www.w3.org/2000/svg">
<g clip-path="url(#clip0)">
<path d="M20.445 37.97L14.975 35.358L10.355 46.758C10.341 46.794 10.327 46.83 10.315 46.867C10.0121 47.5919 9.88744 48.3788 9.95147 49.1618C10.0155 49.9448 10.2664 50.701 10.683 51.367C11.0568 51.8663 11.5464 52.2672 12.1096 52.5351C12.6729 52.8031 13.2928 52.93 13.916 52.905V52.905C14.6218 52.8952 15.3214 52.7719 15.988 52.54C16.025 52.528 16.061 52.515 16.097 52.5L27.497 47.882L24.885 42.412C23.8107 40.5749 22.2817 39.0451 20.445 37.97V37.97Z" fill="#CCCCCC"/>
<path d="M62.704 2.761L26.796 38.669C27.35 39.3324 27.8262 40.0571 28.215 40.829L37.33 59.915C38.554 62.479 40.169 62.862 41.021 62.862C41.783 62.862 43.665 62.531 44.689 59.462L62.496 6.038C62.8844 4.98955 62.9568 3.85016 62.704 2.761Z" fill="#CCCCCC"/>
<path d="M24.192 36.065L60.1 0.154997C59.7086 0.0507187 59.3051 -0.00139875 58.9 -3.21961e-06C58.1939 0.00975796 57.494 0.132998 56.827 0.364997L3.4 18.171C0.574004 19.113 0.0590037 20.758 3.73041e-06 21.655C-0.0589963 22.552 0.253004 24.248 2.941 25.531L22.027 34.646C22.8006 35.0346 23.527 35.5107 24.192 36.065V36.065Z" fill="#CCCCCC"/>
</g>

</svg>
