<svg width="251" height="207" viewBox="0 0 251 207" fill="none" xmlns="http://www.w3.org/2000/svg">
<g clip-path="url(#clip0)">
<g opacity="0.35">
<g opacity="0.35">
<path opacity="0.95" d="M198.739 162.198H142.072C137.596 162.198 133.966 156.992 133.966 150.572V69.307C133.966 62.887 137.596 57.682 142.072 57.682H198.739C203.216 57.682 206.845 62.887 206.845 69.307V150.572C206.843 156.992 203.215 162.198 198.739 162.198Z" fill="#E4E5EA"/>
<path opacity="0.95" d="M186.966 77.376H153.844C149.426 77.376 145.844 80.9577 145.844 85.376V111.522C145.844 115.94 149.426 119.522 153.844 119.522H186.966C191.384 119.522 194.966 115.94 194.966 111.522V85.376C194.966 80.9577 191.384 77.376 186.966 77.376Z" fill="url(#paint0_linear)"/>
<g opacity="0.35">
<path opacity="0.35" d="M191.88 131.106H145.848V133.943H191.88V131.106Z" fill="#96BFE6"/>
<path opacity="0.35" d="M183.072 144.725H145.848V147.562H183.072V144.725Z" fill="#96BFE6"/>
<path opacity="0.35" d="M167.67 137.915H145.848V140.752H167.67V137.915Z" fill="#96BFE6"/>
</g>
</g>
<g opacity="0.35">
<g opacity="0.35">
<g opacity="0.35">
<g opacity="0.35">
<path opacity="0.35" d="M175.18 81.472C176.159 82.1044 176.904 83.0416 177.298 84.139C177.692 85.2363 177.714 86.4328 177.361 87.544C176.347 91.86 175.961 92.43 176.785 94.174C177.609 95.918 178.334 103.227 177.455 104.564C176.576 105.901 167.655 98.043 166.669 91.755C165.683 85.467 167.908 82.798 168.7 81.802C169.492 80.806 172.361 79.87 175.18 81.472Z" fill="#344052"/>
</g>
</g>
</g>
<g opacity="0.35">
<path opacity="0.35" d="M181.182 117.145H177.76C177.595 115.457 177.441 114.282 177.474 114.108C177.525 113.821 174.069 104.756 173.746 104.008C173.423 103.26 172.154 101.25 171.989 99.356C171.824 97.462 174.289 96.698 174.289 96.698C177.622 97.298 178.75 101.905 178.75 101.905C178.75 101.905 180.15 111.253 180.856 113.884C181.071 114.958 181.18 116.05 181.182 117.145V117.145Z" fill="#EEA886"/>
</g>
<path opacity="0.35" d="M179.461 104.15L174.361 106.299C174.361 106.299 169.677 94.674 173.603 95.972C177.529 97.27 179.281 99.704 179.461 104.15Z" fill="#C1D3E1"/>
<path opacity="0.35" d="M174.077 95.977C174.077 95.977 176.393 99.936 175.532 100.23C174.671 100.524 170.132 99.53 168.358 95.787C169.269 95.4055 170.251 95.2249 171.238 95.2577C172.225 95.2905 173.193 95.5359 174.077 95.977V95.977Z" fill="#EEA886"/>
<path opacity="0.35" d="M173.745 97.785C173.745 97.785 171.687 98.655 169.825 95.785C169.825 95.785 170.325 92.531 169.267 90.649C168.209 88.767 173.893 92.905 173.893 92.905C173.893 92.905 173.801 93.294 173.706 93.865C173.657 94.158 173.606 94.499 173.569 94.865C173.537 95.165 173.512 95.483 173.502 95.798C173.45 96.4699 173.533 97.1454 173.745 97.785V97.785Z" fill="#EEA886"/>
<path opacity="0.35" d="M168.636 102.218C168.213 104.397 165.174 107.126 165.174 107.126C165.024 106.681 164.874 106.219 164.72 105.755C166.177 104.755 167.494 103.566 168.636 102.218V102.218Z" fill="#393D63"/>
<g opacity="0.35">
<path opacity="0.35" d="M167.874 103.949C167.682 104.743 166.795 112.783 166.892 113.058C166.949 113.215 167.377 115.076 167.807 117.142H163.84C163.481 116.159 163.282 115.124 163.251 114.078C163.504 111.366 162.585 102.72 162.585 102.72C162.585 102.72 161.761 97.49 166.101 96.836C166.101 96.836 168.665 97.173 168.82 99.067C168.975 100.961 168.066 103.16 167.874 103.949Z" fill="#EEA886"/>
</g>
<path opacity="0.35" d="M162.266 105.062L167.651 106.321C167.651 106.321 171.924 98.026 168.076 96.511C164.02 94.914 161.294 100.532 162.266 105.062Z" fill="#C1D3E1"/>
<g opacity="0.35">
<g opacity="0.35">
<g opacity="0.35">
<path opacity="0.35" d="M174.683 81.932C174.683 81.932 179.364 83.65 176.397 91.727C173.43 99.804 167.374 90.348 168.289 85.385C169.204 80.422 174.683 81.932 174.683 81.932Z" fill="#EEA987"/>
</g>
</g>
</g>
<g opacity="0.35">
<g opacity="0.35">
<g opacity="0.35">
<path opacity="0.35" d="M177.116 86.841C175.28 88.291 173.02 89.1015 170.681 89.149C170.681 89.149 169.754 91.408 169.604 92.101C169.604 92.101 165.688 85.376 170.19 81.978C174.692 78.58 178.778 85.433 177.116 86.841Z" fill="#344052"/>
</g>
</g>
</g>
<g opacity="0.35">
<g opacity="0.35">
<g opacity="0.35">
<path opacity="0.35" d="M171.215 89.636C171.215 89.036 170.909 87.662 170.004 88.001C169.099 88.34 169.91 91.149 170.504 91.007C170.506 91.005 171.226 91.046 171.215 89.636Z" fill="#EEA987"/>
</g>
</g>
</g>
<path opacity="0.35" d="M173.506 95.661C172.824 95.4465 172.196 95.0877 171.666 94.6088C171.135 94.13 170.713 93.5423 170.43 92.886C172.219 95.198 173.568 94.865 173.568 94.865C173.536 95.167 173.533 95.355 173.506 95.661Z" fill="#A77860"/>
</g>
</g>
<g opacity="0.352">
<path opacity="0.95" d="M78.1 162.324H22.022C17.592 162.324 14 157.173 14 150.824V70.404C14 64.051 17.592 58.904 22.022 58.904H78.1C82.53 58.904 86.122 64.055 86.122 70.404V150.82C86.116 157.173 82.526 162.324 78.1 162.324Z" fill="#E4E5EA"/>
<path opacity="0.95" d="M66.363 78.389H33.754C29.3357 78.389 25.754 81.9707 25.754 86.389V112.095C25.754 116.513 29.3357 120.095 33.754 120.095H66.363C70.7813 120.095 74.363 116.513 74.363 112.095V86.389C74.363 81.9707 70.7813 78.389 66.363 78.389Z" fill="url(#paint1_linear)"/>
<g opacity="0.352">
<path opacity="0.352" d="M69.309 113.212C68.6554 111.626 67.6686 110.2 66.4155 109.029C65.1624 107.858 63.6722 106.971 62.046 106.426C61.399 106.211 60.246 105.834 59.029 105.44C56.836 104.732 54.441 103.961 54.441 103.961H46.874C46.874 103.961 44.254 104.839 41.474 105.815C38.909 106.715 36.209 107.695 35.297 108.153C33.397 109.102 30.197 115.89 29.549 116.668C28.3428 118.604 27.248 120.607 26.27 122.668H34.42C35.281 121.189 35.944 120.042 35.944 120.042C35.944 120.042 36.459 121.173 37.084 122.668H63.194C63.607 120.932 63.864 118.743 63.864 118.743C63.864 118.743 65.264 120.643 66.789 122.668H74.314C72.426 119.637 70.7536 116.477 69.309 113.212V113.212Z" fill="#5E90B9"/>
<g opacity="0.352">
<path opacity="0.352" d="M51.559 83.173C51.559 83.173 57.475 84.105 56.574 93.36C55.673 102.615 50.453 101.86 50.103 101.848C49.753 101.836 44.862 102.016 44.481 90.716C44.481 90.716 44.314 82.359 51.559 83.173Z" fill="#EEA886"/>
</g>
<g opacity="0.352">
<path opacity="0.352" d="M56.666 90.746C56.666 90.746 57.314 90.054 57.552 90.754C57.79 91.454 56.669 94.578 56.628 94.724C56.628 94.724 56.509 94.996 56.355 94.846C56.3754 93.4743 56.4793 92.1051 56.666 90.746V90.746Z" fill="#EEA886"/>
</g>
<g opacity="0.352">
<path opacity="0.352" d="M44.64 90.629C44.64 90.629 44.006 89.929 43.754 90.621C43.502 91.313 44.554 94.462 44.602 94.609C44.602 94.609 44.715 94.882 44.873 94.736C44.8786 93.3635 44.8008 91.992 44.64 90.629V90.629Z" fill="#EEA886"/>
</g>
<g opacity="0.352">
<path opacity="0.352" d="M56.662 92.164L55.816 93.296C55.8393 92.3376 55.8019 91.3787 55.704 90.425C55.569 90.035 55.361 88.847 55.246 88.567C55.131 88.287 50.167 86.895 45.779 88.973C45.779 88.973 45.972 90.757 45.552 90.917C45.132 91.077 45.337 93.824 45.337 93.824L44.637 93.038C44.637 93.038 43.572 85.917 43.837 85.175C44.102 84.433 44.937 79.975 53.937 82.62C53.937 82.62 56.743 82.025 57.306 83.963C57.869 85.901 56.662 92.164 56.662 92.164Z" fill="#434343"/>
</g>
<path opacity="0.352" d="M55.175 103.798C55.175 103.79 54.416 103.425 54.416 103.425C54.047 102.601 54.322 99.125 54.322 99.125C54.322 99.125 46.787 97.207 47.003 98.674C46.9989 100.32 46.7808 101.958 46.354 103.547L42.489 105.467C42.489 105.467 46.607 116.525 51.34 115.098C56.073 113.671 57.86 105.068 57.86 105.068L55.175 103.798Z" fill="#EEA886"/>
<path opacity="0.352" d="M47.11 100.298C47.5209 100.78 48.0295 101.168 48.6021 101.438C49.1746 101.709 49.798 101.854 50.431 101.865C51.147 101.871 51.8556 101.719 52.5058 101.419C53.1561 101.119 53.7319 100.679 54.192 100.13C53.9437 100.934 53.4465 101.637 52.772 102.14C52.0976 102.642 51.2809 102.917 50.44 102.925C50.44 102.925 48.153 103.216 47.11 100.298Z" fill="#A77860"/>
</g>
<g opacity="0.352">
<path opacity="0.352" d="M71.309 131.557H25.758V134.364H71.309V131.557Z" fill="#96BFE6"/>
<path opacity="0.352" d="M62.593 145.034H25.758V147.841H62.593V145.034Z" fill="#96BFE6"/>
<path opacity="0.352" d="M47.352 138.295H25.758V141.102H47.352V138.295Z" fill="#96BFE6"/>
</g>
</g>
<g filter="url(#filter0_d)">
<path opacity="0.95" d="M149.138 166.17H80.025C74.565 166.17 70.138 159.821 70.138 151.986V52.875C70.138 45.045 74.565 38.696 80.025 38.696H149.138C154.598 38.696 159.025 45.045 159.025 52.875V151.986C159.024 159.821 154.598 166.17 149.138 166.17Z" fill="#E4E5EA"/>
</g>
<path opacity="0.95" d="M136.538 62.716H92.625C88.2067 62.716 84.625 66.2977 84.625 70.716V106.12C84.625 110.538 88.2067 114.12 92.625 114.12H136.538C140.956 114.12 144.538 110.538 144.538 106.12V70.716C144.538 66.2977 140.956 62.716 136.538 62.716Z" fill="url(#paint2_linear)"/>
<path d="M140.773 128.248H84.63V131.708H140.773V128.248Z" fill="#96BFE6"/>
<path d="M130.03 144.859H84.63V148.319H130.03V144.859Z" fill="#96BFE6"/>
<path d="M111.245 136.552H84.63V140.012H111.245V136.552Z" fill="#96BFE6"/>
<path d="M120.404 67.709C120.404 67.709 124.304 69.85 123.065 75.115C121.826 80.38 121.357 81.074 122.365 83.201C123.373 85.328 124.254 94.242 123.182 95.873C122.11 97.504 111.234 87.919 110.026 80.251C108.818 72.583 111.537 69.327 112.502 68.111C113.467 66.895 116.965 65.758 120.404 67.709Z" fill="#344052"/>
<path d="M127.725 111.22H123.551C123.351 109.161 123.162 107.728 123.202 107.52C123.264 107.171 119.049 96.114 118.655 95.199C118.261 94.284 116.714 91.835 116.512 89.525C116.31 87.215 119.319 86.283 119.319 86.283C123.384 87.01 124.76 92.634 124.76 92.634C124.76 92.634 126.466 104.034 127.329 107.244C127.591 108.553 127.723 109.885 127.725 111.22V111.22Z" fill="#EEA886"/>
<path d="M125.625 95.376L119.41 97.997C119.41 97.997 113.696 83.818 118.486 85.402C123.259 86.98 125.402 89.947 125.625 95.376Z" fill="#EB4747"/>
<path d="M119.058 85.402C119.058 85.402 121.882 90.231 120.832 90.59C119.782 90.949 114.245 89.732 112.082 85.171C113.193 84.7055 114.391 84.4851 115.595 84.525C116.799 84.5648 117.98 84.864 119.058 85.402Z" fill="#EEA886"/>
<path d="M118.649 87.608C118.649 87.608 116.139 88.669 113.868 85.174C113.868 85.174 114.479 81.205 113.188 78.91C111.897 76.615 118.83 81.662 118.83 81.662C118.83 81.662 118.718 82.136 118.602 82.833C118.542 83.19 118.481 83.606 118.435 84.048C118.396 84.416 118.366 84.802 118.353 85.186C118.29 86.005 118.39 86.8284 118.649 87.608V87.608Z" fill="#EEA886"/>
<path d="M112.422 93.014C111.905 95.671 108.199 99 108.199 99C108.016 98.457 107.828 97.893 107.645 97.328C109.422 96.1088 111.029 94.658 112.422 93.014V93.014Z" fill="#393D63"/>
<path d="M111.493 95.129C111.258 96.097 110.177 105.904 110.293 106.239C110.362 106.431 110.885 108.7 111.409 111.22H106.571C106.133 110.021 105.89 108.758 105.853 107.482C106.162 104.174 105.041 93.629 105.041 93.629C105.041 93.629 104.041 87.25 109.329 86.453C109.329 86.453 112.456 86.864 112.645 89.173C112.834 91.482 111.728 94.164 111.493 95.129Z" fill="#EEA886"/>
<path d="M104.653 96.485L111.221 98.02C111.221 98.02 116.432 87.903 111.739 86.055C106.793 84.107 103.468 90.965 104.653 96.485Z" fill="#EB4747"/>
<path d="M119.799 68.276C119.799 68.276 125.508 70.376 121.89 80.222C118.272 90.068 110.89 78.541 112.001 72.487C113.112 66.433 119.799 68.276 119.799 68.276Z" fill="#EEA987"/>
<path d="M122.765 74.258C120.526 76.0265 117.77 77.0149 114.917 77.073C114.917 77.073 113.787 79.828 113.604 80.673C113.604 80.673 108.827 72.473 114.319 68.327C119.811 64.181 124.792 72.543 122.765 74.258Z" fill="#344052"/>
<path d="M115.568 77.668C115.568 76.939 115.195 75.261 114.091 75.673C112.987 76.085 113.976 79.513 114.704 79.34C114.703 79.339 115.576 79.394 115.568 77.668Z" fill="#EEA987"/>
<path d="M118.362 85.018C117.53 84.7564 116.764 84.3186 116.117 83.7345C115.47 83.1504 114.956 82.4336 114.61 81.633C116.792 84.453 118.437 84.046 118.437 84.046C118.4 84.415 118.395 84.645 118.362 85.018Z" fill="#A77860"/>
<path d="M28.0399 13.9558L26.6227 13.1808L25.2372 16.1489C25.2366 16.1589 25.2282 16.1674 25.2247 16.1773C25.1339 16.3663 25.09 16.5743 25.0965 16.7838C25.103 16.9934 25.1598 17.1983 25.2622 17.3813C25.3546 17.5191 25.4792 17.6324 25.6251 17.7114C25.7711 17.7903 25.9341 17.8326 26.1 17.8346C26.2879 17.8408 26.4755 17.8167 26.6557 17.7633L26.6852 17.7539L29.779 16.6848L29.1555 15.1939C28.8956 14.6925 28.5115 14.2663 28.0399 13.9558V13.9558Z" fill="#9A7BAA"/>
<path d="M39.7621 5.17594L29.7198 14.2245C29.8577 14.4086 29.974 14.6079 30.0665 14.8186L32.223 20.0185C32.5132 20.7167 32.9365 20.8409 33.1632 20.8527C33.363 20.8631 33.8671 20.8012 34.1853 19.9994L39.6618 6.04421C39.7795 5.77084 39.8144 5.46894 39.7621 5.17594V5.17594Z" fill="#9A7BAA"/>
<path d="M29.0624 13.4991L39.1059 4.44659C39.0027 4.41335 38.8956 4.39396 38.7873 4.38894C38.5992 4.38264 38.4112 4.40668 38.2307 4.46014L23.7837 8.45122C23.0194 8.66287 22.8597 9.0933 22.8364 9.33049C22.813 9.56768 22.8674 10.0233 23.565 10.4012L28.5087 13.0887C28.7084 13.2038 28.8941 13.3416 29.0624 13.4991V13.4991Z" fill="#9A7BAA"/>
<path d="M223.968 183.623L225.424 184.323L226.653 181.284C226.653 181.274 226.661 181.265 226.664 181.255C226.745 181.062 226.778 180.852 226.76 180.643C226.743 180.434 226.676 180.232 226.564 180.055C226.464 179.923 226.334 179.817 226.185 179.746C226.035 179.675 225.87 179.641 225.705 179.648V179.648C225.517 179.652 225.331 179.685 225.154 179.748L225.125 179.756L222.09 180.985L222.79 182.44C223.075 182.929 223.48 183.336 223.968 183.623V183.623Z" fill="#8FB2AA"/>
<path d="M212.723 192.993L222.282 183.438C222.135 183.261 222.008 183.068 221.905 182.863L219.475 177.784C219.149 177.1 218.72 177 218.493 177C218.293 177 217.793 177.088 217.517 177.905L212.782 192.121C212.677 192.4 212.657 192.703 212.723 192.993V192.993Z" fill="#8FB2AA"/>
<path d="M222.971 184.131L213.415 193.687C213.52 193.716 213.628 193.731 213.736 193.731C213.924 193.727 214.111 193.694 214.288 193.631L228.503 188.893C229.255 188.642 229.392 188.204 229.403 187.966C229.414 187.728 229.336 187.276 228.62 186.935L223.545 184.509C223.34 184.405 223.147 184.278 222.971 184.131V184.131Z" fill="#8FB2AA"/>
<path d="M62.968 191.623L64.424 192.323L65.653 189.284C65.653 189.274 65.661 189.265 65.664 189.255C65.7448 189.062 65.7778 188.852 65.7604 188.643C65.743 188.434 65.6757 188.232 65.564 188.055C65.4644 187.923 65.3343 187.817 65.1846 187.746C65.035 187.675 64.8704 187.641 64.705 187.648V187.648C64.5172 187.652 64.3311 187.685 64.154 187.748L64.125 187.756L61.09 188.985L61.79 190.44C62.0748 190.929 62.4804 191.336 62.968 191.623V191.623Z" fill="#8FB2AA"/>
<path d="M51.723 200.993L61.282 191.438C61.1348 191.261 61.0083 191.068 60.905 190.863L58.475 185.784C58.149 185.1 57.72 185 57.493 185C57.293 185 56.793 185.088 56.517 185.905L51.782 200.121C51.6774 200.4 51.6569 200.703 51.723 200.993V200.993Z" fill="#8FB2AA"/>
<path d="M61.971 192.131L52.415 201.687C52.5196 201.716 52.6275 201.731 52.736 201.731C52.9242 201.728 53.1105 201.694 53.288 201.631L67.503 196.893C68.255 196.642 68.392 196.204 68.403 195.966C68.414 195.728 68.336 195.276 67.62 194.935L62.545 192.509C62.3398 192.405 62.1473 192.278 61.971 192.131V192.131Z" fill="#8FB2AA"/>
<path d="M200.968 6.623L202.424 7.323L203.653 4.284C203.653 4.274 203.661 4.265 203.664 4.255C203.745 4.06162 203.778 3.85165 203.76 3.6428C203.743 3.43395 203.676 3.23235 203.564 3.055C203.464 2.92271 203.334 2.81657 203.185 2.74568C203.035 2.67478 202.87 2.64127 202.705 2.648V2.648C202.517 2.65158 202.331 2.68534 202.154 2.748L202.125 2.756L199.09 3.985L199.79 5.44C200.075 5.92879 200.48 6.33615 200.968 6.623V6.623Z" fill="#8FB2AA"/>
<path d="M189.723 15.993L199.282 6.438C199.135 6.26138 199.008 6.06845 198.905 5.863L196.475 0.784C196.149 0.1 195.72 0 195.493 0C195.293 0 194.793 0.088 194.517 0.905L189.782 15.121C189.677 15.3996 189.657 15.7028 189.723 15.993V15.993Z" fill="#8FB2AA"/>
<path d="M199.971 7.131L190.415 16.687C190.52 16.7158 190.628 16.7306 190.736 16.731C190.924 16.7275 191.111 16.6937 191.288 16.631L205.503 11.893C206.255 11.642 206.392 11.204 206.403 10.966C206.414 10.728 206.336 10.276 205.62 9.935L200.545 7.509C200.34 7.40533 200.147 7.2785 199.971 7.131V7.131Z" fill="#8FB2AA"/>
<path d="M150.5 206.385C151.881 206.385 153 205.266 153 203.885C153 202.504 151.881 201.385 150.5 201.385C149.119 201.385 148 202.504 148 203.885C148 205.266 149.119 206.385 150.5 206.385Z" fill="#AEC4FD"/>
<path d="M2.5 107.385C3.88071 107.385 5 106.266 5 104.885C5 103.504 3.88071 102.385 2.5 102.385C1.11929 102.385 0 103.504 0 104.885C0 106.266 1.11929 107.385 2.5 107.385Z" fill="#AEC4FD"/>
<path d="M2.5 166.385C3.88071 166.385 5 165.266 5 163.885C5 162.504 3.88071 161.385 2.5 161.385C1.11929 161.385 0 162.504 0 163.885C0 165.266 1.11929 166.385 2.5 166.385Z" fill="#AEC4FD"/>
<path d="M229.5 66.385C230.881 66.385 232 65.2657 232 63.885C232 62.5043 230.881 61.385 229.5 61.385C228.119 61.385 227 62.5043 227 63.885C227 65.2657 228.119 66.385 229.5 66.385Z" fill="#AEC4FD"/>
<path d="M124.5 19.385C125.881 19.385 127 18.2657 127 16.885C127 15.5043 125.881 14.385 124.5 14.385C123.119 14.385 122 15.5043 122 16.885C122 18.2657 123.119 19.385 124.5 19.385Z" fill="#AEC4FD"/>
<path d="M248.5 156.385C249.881 156.385 251 155.266 251 153.885C251 152.504 249.881 151.385 248.5 151.385C247.119 151.385 246 152.504 246 153.885C246 155.266 247.119 156.385 248.5 156.385Z" fill="#AEC4FD"/>
</g>

</svg>
