<svg width="63" height="63" viewBox="0 0 63 63" fill="none" xmlns="http://www.w3.org/2000/svg">
<g clip-path="url(#clip0)">
<path d="M42.412 24.891L47.882 27.503L52.5 16.103C52.514 16.067 52.528 16.031 52.54 15.994C52.8429 15.2691 52.9676 14.4822 52.9036 13.6992C52.8395 12.9162 52.5887 12.16 52.172 11.494C51.7986 10.994 51.3092 10.5923 50.746 10.3237C50.1827 10.055 49.5626 9.92745 48.939 9.952V9.952C48.2332 9.96183 47.5336 10.0851 46.867 10.317C46.83 10.329 46.794 10.342 46.758 10.357L35.354 14.975L37.966 20.445C39.0414 22.2844 40.5726 23.8156 42.412 24.891V24.891Z" fill="#CCCCCC"/>
<path d="M0.153007 60.1L36.061 24.192C35.507 23.5286 35.0308 22.8039 34.642 22.032L25.528 2.947C24.3 0.383 22.689 0 21.836 0C21.074 0 19.192 0.331 18.168 3.4L0.361007 56.823C-0.0274521 57.8715 -0.099772 59.0108 0.153007 60.1V60.1Z" fill="#CCCCCC"/>
<path d="M38.666 26.796L2.75598 62.706C3.14935 62.8108 3.55489 62.8629 3.96198 62.861C4.66808 62.8512 5.36801 62.728 6.03498 62.496L59.456 44.69C62.282 43.748 62.797 42.103 62.856 41.206C62.915 40.309 62.603 38.613 59.915 37.33L40.825 28.215C40.0535 27.826 39.3291 27.3499 38.666 26.796V26.796Z" fill="#CCCCCC"/>
</g>
</svg>
