<svg xmlns="http://www.w3.org/2000/svg" width="251" height="206.385" viewBox="0 0 251 206.385">
    
        

    <g id="Group_3920" data-name="Group 3920" transform="translate(-76 -214.615)">
        <g id="Group_3893" data-name="Group 3893" transform="translate(33 13)">
            <g id="Group_3892" class="cls-1" data-name="Group 3892" transform="translate(176.966 259.297)">
                <g id="Group_3890" data-name="Group 3890">
                    <path id="Path_4263-2" d="M64.773 128.926H8.106C3.63 128.926 0 123.72 0 117.3V36.035c0-6.42 3.63-11.625 8.106-11.625h56.667c4.477 0 8.106 5.205 8.106 11.625V117.3c-.002 6.42-3.63 11.626-8.106 11.626z" class="cls-2" data-name="Path 4263" transform="translate(0 -24.41)"/>
                    <rect id="Rectangle_2759" width="49.122" height="42.146" class="cls-3" data-name="Rectangle 2759" rx="8" transform="translate(11.878 19.694)"/>
                    <g id="Group_3886" data-name="Group 3886" transform="translate(11.882 73.424)">
                        <path id="Rectangle_2760" d="M0 0h46.032v2.837H0z" class="cls-4" data-name="Rectangle 2760"/>
                        <path id="Rectangle_2761" d="M0 0h37.224v2.837H0z" class="cls-4" data-name="Rectangle 2761" transform="translate(0 13.619)"/>
                        <path id="Rectangle_2762" d="M0 0h21.822v2.837H0z" class="cls-4" data-name="Rectangle 2762" transform="translate(0 6.809)"/>
                    </g>
                </g>
                <g id="Group_3883" data-name="Group 3883" transform="translate(28.102 22.926)">
                    <g id="Group_3870" data-name="Group 3870" transform="translate(4.352)">
                        <g id="Group_3869" data-name="Group 3869">
                            <g id="Group_3868" data-name="Group 3868">
                                <path id="Path_4272" d="M1939.507 196.213a5.312 5.312 0 0 1 2.181 6.072c-1.014 4.316-1.4 4.886-.576 6.63s1.549 9.053.67 10.39-9.8-6.521-10.786-12.809 1.239-8.957 2.031-9.953 3.661-1.932 6.48-.33z" class="cls-5" data-name="Path 4272" transform="translate(-1930.747 -195.349)"/>
                            </g>
                        </g>
                    </g>
                    <g id="Group_3871" data-name="Group 3871" transform="translate(9.913 16.088)">
                        <path id="Path_4273" d="M1983.028 340.429h-3.422c-.165-1.688-.319-2.863-.286-3.037.051-.287-3.405-9.352-3.728-10.1s-1.592-2.758-1.757-4.652 2.3-2.658 2.3-2.658c3.333.6 4.461 5.207 4.461 5.207s1.4 9.348 2.106 11.979a16.748 16.748 0 0 1 .326 3.261z" class="cls-6" data-name="Path 4273" transform="translate(-1973.827 -319.98)"/>
                    </g>
                    <path id="Path_4274" d="M1981.693 321.9l-5.1 2.149s-4.684-11.625-.758-10.327 5.678 3.732 5.858 8.178z" class="cls-7" data-name="Path 4274" transform="translate(-1964.3 -298.358)"/>
                    <g id="Group_3872" data-name="Group 3872" transform="translate(1.607 14.598)">
                        <path id="Path_4275" d="M1924.129 322.861a48.828 48.828 0 0 0-.622 6.347c.023.182.1.6.212 1.171h-12.289c.327-1.167.625-2.2.8-2.8.6-1.979.026-2.509-.276-4.093-.118-.62-.531-1.8-.98-3.128a73.7 73.7 0 0 1-.454-1.372 28.262 28.262 0 0 1-.946-4.386c-.741-4.727 2.894-5.181 2.894-5.181 1.351-.249 3.711-.978 3.711-.978l3.7.769a3.977 3.977 0 0 1 .865.511 6.747 6.747 0 0 1 .831.729 22.4 22.4 0 0 1 2.011 2.907c.245.4.492.811.724 1.215a6.968 6.968 0 0 1 1.269 3.533c-.01 1.166-1.301 3.602-1.45 4.756z" class="cls-8" data-name="Path 4275" transform="translate(-1909.478 -308.44)"/>
                    </g>
                    <path id="Path_4276" d="M1951.47 309.424s2.316 3.959 1.455 4.253-5.4-.7-7.174-4.443a6.865 6.865 0 0 1 5.719.19z" class="cls-6" data-name="Path 4276" transform="translate(-1939.461 -294.055)"/>
                    <path id="Path_4277" d="M1956.392 276.991s-2.058.87-3.92-2c0 0 .5-3.254-.558-5.136s4.626 2.256 4.626 2.256-.092.389-.187.96a15.54 15.54 0 0 0-.204 1.933 5.068 5.068 0 0 0 .243 1.987z" class="cls-6" data-name="Path 4277" transform="translate(-1944.715 -259.814)"/>
                    <path id="Path_4278" d="M1921.487 362.76c-.423 2.179-3.462 4.908-3.462 4.908-.15-.445-.3-.907-.454-1.371a19.869 19.869 0 0 0 3.916-3.537z" class="cls-9" data-name="Path 4278" transform="translate(-1914.919 -341.15)"/>
                    <g id="Group_3873" data-name="Group 3873" transform="translate(.455 16.231)">
                        <path id="Path_4279" d="M1905.908 328.2c-.192.794-1.079 8.834-.982 9.109.057.157.485 2.018.915 4.084h-3.967a9.761 9.761 0 0 1-.589-3.064c.253-2.712-.666-11.358-.666-11.358s-.824-5.23 3.516-5.884c0 0 2.564.337 2.719 2.231s-.754 4.093-.946 4.882z" class="cls-6" data-name="Path 4279" transform="translate(-1900.557 -321.09)"/>
                    </g>
                    <path id="Path_4280" d="M1897.229 325.23l5.385 1.259s4.273-8.295.425-9.81c-4.056-1.597-6.782 4.021-5.81 8.551z" class="cls-7" data-name="Path 4280" transform="translate(-1897.031 -300.776)"/>
                    <g id="Group_3876" data-name="Group 3876" transform="translate(6.128 1.108)">
                        <g id="Group_3875" data-name="Group 3875">
                            <g id="Group_3874" data-name="Group 3874">
                                <path id="Path_4281" d="M1950.995 204.149s4.681 1.718 1.714 9.795-9.023-1.379-8.108-6.342 6.394-3.453 6.394-3.453z" class="cls-10" data-name="Path 4281" transform="translate(-1944.508 -203.933)"/>
                            </g>
                        </g>
                    </g>
                    <g id="Group_3879" data-name="Group 3879" transform="translate(5.957 .437)">
                        <g id="Group_3878" data-name="Group 3878">
                            <g id="Group_3877" data-name="Group 3877">
                                <path id="Path_4282" d="M1952.267 204.529a10.735 10.735 0 0 1-6.435 2.308s-.927 2.259-1.077 2.952c0 0-3.916-6.725.586-10.123s8.588 3.455 6.926 4.863z" class="cls-5" data-name="Path 4282" transform="translate(-1943.176 -198.733)"/>
                            </g>
                        </g>
                    </g>
                    <g id="Group_3882" data-name="Group 3882" transform="translate(7.531 7.339)">
                        <g id="Group_3881" data-name="Group 3881">
                            <g id="Group_3880" data-name="Group 3880">
                                <path id="Path_4283" d="M1956.989 253.89c0-.6-.306-1.974-1.211-1.635s-.094 3.148.5 3.006c.002-.002.722.039.711-1.371z" class="cls-10" data-name="Path 4283" transform="translate(-1955.373 -252.201)"/>
                            </g>
                        </g>
                    </g>
                    <path id="Path_4284" d="M1964.886 293.245a4.976 4.976 0 0 1-3.076-2.775c1.789 2.312 3.138 1.979 3.138 1.979-.032.302-.035.49-.062.796z" class="cls-11" data-name="Path 4284" transform="translate(-1953.448 -278.192)"/>
                </g>
            </g>
            <g id="Group_3888" class="cls-12" data-name="Group 3888" transform="translate(57 260.515)">
                <path id="Path_4263-3" d="M64.1 127.834H8.022c-4.43 0-8.022-5.151-8.022-11.5v-80.42c0-6.353 3.592-11.5 8.022-11.5H64.1c4.43 0 8.022 5.151 8.022 11.5v80.416c-.006 6.353-3.596 11.504-8.022 11.504z" class="cls-2" data-name="Path 4263" transform="translate(0 -24.41)"/>
                <rect id="Rectangle_2759-2" width="48.609" height="41.706" class="cls-3" data-name="Rectangle 2759" rx="8" transform="translate(11.754 19.489)"/>
                <g id="Group_3867" data-name="Group 3867" transform="translate(12.264 22.889)">
                    <path id="Path_4264" d="M127.745 171.421a11.965 11.965 0 0 0-7.263-6.786c-.647-.215-1.8-.592-3.017-.986-2.193-.708-4.588-1.479-4.588-1.479h-7.567s-2.62.878-5.4 1.854c-2.565.9-5.265 1.88-6.177 2.338-1.9.949-5.1 7.737-5.748 8.515a59.968 59.968 0 0 0-3.279 6h8.15c.861-1.479 1.524-2.626 1.524-2.626s.515 1.131 1.14 2.626h26.11c.413-1.736.67-3.925.67-3.925s1.4 1.9 2.925 3.925h7.525a76.158 76.158 0 0 1-5.005-9.456z" class="cls-13" data-name="Path 4264" transform="translate(-84.7 -139.998)"/>
                    <g id="Group_3863" data-name="Group 3863" transform="translate(18.217 1.328)">
                        <path id="Path_4265" d="M225.016 9.768s5.916.932 5.015 10.187-6.121 8.5-6.471 8.488-5.241.168-5.622-11.132c0 0-.167-8.357 7.078-7.543z" class="cls-6" data-name="Path 4265" transform="translate(-217.938 -9.712)"/>
                    </g>
                    <g id="Group_3864" data-name="Group 3864" transform="translate(30.058 8.652)">
                        <path id="Path_4266" d="M304.891 63.584s.648-.692.886.008-.883 3.824-.924 3.97c0 0-.119.272-.273.122a33.817 33.817 0 0 1 .311-4.1z" class="cls-6" data-name="Path 4266" transform="translate(-304.547 -63.279)"/>
                    </g>
                    <g id="Group_3865" data-name="Group 3865" transform="translate(17.451 8.524)">
                        <path id="Path_4267" d="M213.261 62.659s-.634-.7-.886-.008.8 3.841.848 3.988c0 0 .113.273.271.127a33.867 33.867 0 0 0-.233-4.107z" class="cls-6" data-name="Path 4267" transform="translate(-212.336 -62.343)"/>
                    </g>
                    <g id="Group_3866" data-name="Group 3866" transform="translate(17.534)">
                        <path id="Path_4268" d="M225.81 10.376l-.846 1.132a22.7 22.7 0 0 0-.112-2.871c-.135-.39-.343-1.578-.458-1.858s-5.079-1.672-9.467.406c0 0 .193 1.784-.227 1.944s-.215 2.907-.215 2.907l-.7-.786s-1.065-7.121-.8-7.863 1.1-5.2 10.1-2.555c0 0 2.806-.595 3.369 1.343s-.644 8.201-.644 8.201z" class="cls-14" data-name="Path 4268" transform="translate(-212.946 -.001)"/>
                    </g>
                    <path id="Path_4269" d="M216.047 125.1c0-.008-.759-.373-.759-.373-.369-.824-.094-4.3-.094-4.3s-7.535-1.918-7.319-.451a18.969 18.969 0 0 1-.649 4.873l-3.865 1.92s4.118 11.058 8.851 9.631 6.52-10.03 6.52-10.03z" class="cls-6" data-name="Path 4269" transform="translate(-187.136 -103.091)"/>
                    <path id="Path_4270" d="M237.17 134.318a4.468 4.468 0 0 0 3.321 1.567 4.854 4.854 0 0 0 3.761-1.735 3.966 3.966 0 0 1-3.752 2.795s-2.287.291-3.33-2.627z" class="cls-11" data-name="Path 4270" transform="translate(-216.324 -115.809)"/>
                </g>
                <g id="Group_3886-2" data-name="Group 3886" transform="translate(11.758 72.657)">
                    <path id="Rectangle_2760-2" d="M0 0h45.551v2.807H0z" class="cls-4" data-name="Rectangle 2760"/>
                    <path id="Rectangle_2761-2" d="M0 0h36.835v2.807H0z" class="cls-4" data-name="Rectangle 2761" transform="translate(0 13.477)"/>
                    <path id="Rectangle_2762-2" d="M0 0h21.594v2.807H0z" class="cls-4" data-name="Rectangle 2762" transform="translate(0 6.738)"/>
                </g>
            </g>
            <g id="Group_3891" data-name="Group 3891" transform="translate(113.138 240.311)">
                <g id="Group_3890-2" data-name="Group 3890">
                    <g class="cls-19" transform="translate(-70.14 -38.7)">
                        <path id="Path_4263-4" d="M79 151.884H9.887C4.427 151.884 0 145.535 0 137.7V38.589c0-7.83 4.427-14.179 9.887-14.179H79c5.46 0 9.887 6.349 9.887 14.179V137.7c-.001 7.835-4.427 14.184-9.887 14.184z" class="cls-2" data-name="Path 4263" transform="translate(70.14 14.29)"/>
                    </g>
                    <rect id="Rectangle_2759-3" width="59.913" height="51.404" class="cls-3" data-name="Rectangle 2759" rx="8" transform="translate(14.487 24.02)"/>
                    <g id="Group_3886-3" data-name="Group 3886" transform="translate(14.492 89.552)">
                        <path id="Rectangle_2760-3" d="M0 0h56.143v3.46H0z" class="cls-4" data-name="Rectangle 2760"/>
                        <path id="Rectangle_2761-3" d="M0 0h45.4v3.46H0z" class="cls-4" data-name="Rectangle 2761" transform="translate(0 16.611)"/>
                        <path id="Rectangle_2762-3" d="M0 0h26.615v3.46H0z" class="cls-4" data-name="Rectangle 2762" transform="translate(0 8.304)"/>
                    </g>
                </g>
                <g id="Group_3883-2" data-name="Group 3883" transform="translate(34.274 27.962)">
                    <g id="Group_3870-2" data-name="Group 3870" transform="translate(5.308)">
                        <g id="Group_3869-2" data-name="Group 3869">
                            <g id="Group_3868-2" data-name="Group 3868">
                                <path id="Path_4272-2" d="M1941.432 196.4s3.9 2.141 2.661 7.406-1.708 5.959-.7 8.086 1.889 11.041.817 12.672-11.948-7.954-13.156-15.622 1.511-10.924 2.476-12.14 4.463-2.353 7.902-.402z" class="cls-5" data-name="Path 4272" transform="translate(-1930.748 -195.349)"/>
                            </g>
                        </g>
                    </g>
                    <g id="Group_3871-2" data-name="Group 3871" transform="translate(12.09 19.621)">
                        <path id="Path_4273-2" d="M1985.05 344.921h-4.174c-.2-2.059-.389-3.492-.349-3.7.062-.349-4.153-11.406-4.547-12.321s-1.941-3.364-2.143-5.674 2.807-3.242 2.807-3.242c4.065.727 5.441 6.351 5.441 6.351s1.706 11.4 2.569 14.61a20.431 20.431 0 0 1 .396 3.976z" class="cls-6" data-name="Path 4273" transform="translate(-1973.827 -319.98)"/>
                    </g>
                    <path id="Path_4274-2" d="M1983.323 323.723l-6.215 2.621s-5.714-14.179-.924-12.595c4.773 1.578 6.916 4.545 7.139 9.974z" class="cls-15" data-name="Path 4274" transform="translate(-1962.11 -295.005)"/>
                    <g id="Group_3872-2" data-name="Group 3872" transform="translate(1.96 17.805)">
                        <path id="Path_4275-2" d="M1927.348 326.029c-.181 1.407-.924 6.393-.759 7.741.028.222.12.734.258 1.428h-14.988c.4-1.423.762-2.683.981-3.415.727-2.413.031-3.061-.337-4.992-.143-.756-.647-2.191-1.2-3.815a96.828 96.828 0 0 1-.554-1.674 34.467 34.467 0 0 1-1.154-5.35c-.9-5.765 3.53-6.319 3.53-6.319 1.648-.3 4.526-1.193 4.526-1.193l4.509.938a4.851 4.851 0 0 1 1.055.623 8.214 8.214 0 0 1 1.014.889 27.3 27.3 0 0 1 2.453 3.545c.3.488.6.989.883 1.481a8.5 8.5 0 0 1 1.548 4.309c-.013 1.425-1.584 4.396-1.765 5.804z" class="cls-15" data-name="Path 4275" transform="translate(-1909.479 -308.44)"/>
                    </g>
                    <path id="Path_4276-2" d="M1952.726 309.586s2.824 4.829 1.774 5.188-6.587-.858-8.75-5.419a8.373 8.373 0 0 1 6.976.231z" class="cls-6" data-name="Path 4276" transform="translate(-1938.08 -290.842)"/>
                    <path id="Path_4277-2" d="M1957.4 278.665s-2.51 1.061-4.781-2.434c0 0 .611-3.969-.68-6.264s5.642 2.752 5.642 2.752-.112.474-.228 1.171c-.06.357-.121.773-.167 1.215-.039.368-.069.754-.082 1.138a6.183 6.183 0 0 0 .296 2.422z" class="cls-6" data-name="Path 4277" transform="translate(-1943.163 -257.715)"/>
                    <path id="Path_4278-2" d="M1922.347 362.76c-.517 2.657-4.223 5.986-4.223 5.986-.183-.543-.371-1.107-.554-1.672a24.236 24.236 0 0 0 4.777-4.314z" class="cls-9" data-name="Path 4278" transform="translate(-1914.337 -336.404)"/>
                    <g id="Group_3873-2" data-name="Group 3873" transform="translate(.555 19.796)">
                        <path id="Path_4279-2" d="M1907.083 329.765c-.235.968-1.316 10.775-1.2 11.11.069.192.592 2.461 1.116 4.981h-4.838a11.9 11.9 0 0 1-.718-3.738c.309-3.308-.812-13.853-.812-13.853s-1-6.379 4.288-7.176c0 0 3.127.411 3.316 2.72s-.917 4.991-1.152 5.956z" class="cls-6" data-name="Path 4279" transform="translate(-1900.557 -321.09)"/>
                    </g>
                    <path id="Path_4280-2" d="M1897.272 327.17l6.568 1.535s5.211-10.117.518-11.965c-4.946-1.948-8.271 4.91-7.086 10.43z" class="cls-15" data-name="Path 4280" transform="translate(-1897.031 -297.343)"/>
                    <g id="Group_3876-2" data-name="Group 3876" transform="translate(7.475 1.351)">
                        <g id="Group_3875-2" data-name="Group 3875">
                            <g id="Group_3874-2" data-name="Group 3874">
                                <path id="Path_4281-2" d="M1952.42 204.2s5.709 2.1 2.091 11.946-11-1.681-9.889-7.735 7.798-4.211 7.798-4.211z" class="cls-10" data-name="Path 4281" transform="translate(-1944.508 -203.933)"/>
                            </g>
                        </g>
                    </g>
                    <g id="Group_3879-2" data-name="Group 3879" transform="translate(7.265 .533)">
                        <g id="Group_3878-2" data-name="Group 3878">
                            <g id="Group_3877-2" data-name="Group 3877">
                                <path id="Path_4282-2" d="M1954.264 205.8a13.093 13.093 0 0 1-7.848 2.815s-1.13 2.755-1.313 3.6c0 0-4.777-8.2.715-12.346s10.473 4.216 8.446 5.931z" class="cls-5" data-name="Path 4282" transform="translate(-1943.176 -198.733)"/>
                            </g>
                        </g>
                    </g>
                    <g id="Group_3882-2" data-name="Group 3882" transform="translate(9.185 8.951)">
                        <g id="Group_3881-2" data-name="Group 3881">
                            <g id="Group_3880-2" data-name="Group 3880">
                                <path id="Path_4283-2" d="M1957.344 254.26c0-.729-.373-2.407-1.477-1.995s-.115 3.84.613 3.667c-.001-.001.872.054.864-1.672z" class="cls-10" data-name="Path 4283" transform="translate(-1955.373 -252.201)"/>
                            </g>
                        </g>
                    </g>
                    <path id="Path_4284-2" d="M1965.562 293.855a6.07 6.07 0 0 1-3.752-3.385c2.182 2.82 3.827 2.413 3.827 2.413-.037.369-.042.599-.075.972z" class="cls-11" data-name="Path 4284" transform="translate(-1951.612 -275.495)"/>
                </g>
            </g>
        </g>
        <g id="email-3" transform="rotate(2.98 -4143.558 2014.133)">
            <path id="Path_4254" d="M2.791.7L1.336 0 .107 3.035c0 .01-.008.019-.011.029a1.307 1.307 0 0 0 .1 1.2 1.023 1.023 0 0 0 .86.409 1.752 1.752 0 0 0 .551-.1l.029-.011 3.033-1.228-.7-1.456A3.3 3.3 0 0 0 2.791.7zm0 0" class="cls-16" data-name="Path 4254" transform="translate(2.649 9.409)"/>
            <path id="Path_4255" d="M9.555 0L0 9.555a3.007 3.007 0 0 1 .377.575L2.8 15.209c.326.682.755.784.982.784.2 0 .7-.088.976-.905L9.5.872A1.52 1.52 0 0 0 9.555 0zm0 0" class="cls-16" data-name="Path 4255" transform="translate(7.131 .735)"/>
            <path id="Path_4256" d="M6.437 9.6L15.993.041A1.223 1.223 0 0 0 15.672 0a1.753 1.753 0 0 0-.552.1L.905 4.835c-.752.251-.889.689-.9.927s.067.69.783 1.031l5.075 2.426a3.01 3.01 0 0 1 .574.381zm0 0" class="cls-16" data-name="Path 4256"/>
        </g>
        <g id="email-3-2" data-name="email-3" transform="translate(288.682 391.615)">
            <path id="Path_4254-2" d="M1.878 3.975l1.456.7 1.229-3.039c0-.01.008-.019.011-.029a1.307 1.307 0 0 0-.1-1.2A1.023 1.023 0 0 0 3.615 0a1.752 1.752 0 0 0-.551.1l-.029.008L0 1.337l.7 1.455a3.3 3.3 0 0 0 1.178 1.183zm0 0" class="cls-17" data-name="Path 4254" transform="translate(9.408 2.648)"/>
            <path id="Path_4255-2" d="M.041 15.993L9.6 6.438a3.007 3.007 0 0 1-.377-.575L6.793.784C6.467.1 6.038 0 5.811 0c-.2 0-.7.088-.976.905L.1 15.121a1.52 1.52 0 0 0-.059.872zm0 0" class="cls-17" data-name="Path 4255"/>
            <path id="Path_4256-2" d="M9.556 0L0 9.556a1.223 1.223 0 0 0 .321.044 1.753 1.753 0 0 0 .552-.1l14.215-4.738c.752-.251.889-.689.9-.927s-.067-.69-.783-1.031L10.13.378A3.01 3.01 0 0 1 9.556 0zm0 0" class="cls-17" data-name="Path 4256" transform="translate(.733 7.131)"/>
        </g>
        <g id="email-3-3" data-name="email-3" transform="translate(127.682 399.615)">
            <path id="Path_4254-3" d="M1.878 3.975l1.456.7 1.229-3.039c0-.01.008-.019.011-.029a1.307 1.307 0 0 0-.1-1.2A1.023 1.023 0 0 0 3.615 0a1.752 1.752 0 0 0-.551.1l-.029.008L0 1.337l.7 1.455a3.3 3.3 0 0 0 1.178 1.183zm0 0" class="cls-17" data-name="Path 4254" transform="translate(9.408 2.648)"/>
            <path id="Path_4255-3" d="M.041 15.993L9.6 6.438a3.007 3.007 0 0 1-.377-.575L6.793.784C6.467.1 6.038 0 5.811 0c-.2 0-.7.088-.976.905L.1 15.121a1.52 1.52 0 0 0-.059.872zm0 0" class="cls-17" data-name="Path 4255"/>
            <path id="Path_4256-3" d="M9.556 0L0 9.556a1.223 1.223 0 0 0 .321.044 1.753 1.753 0 0 0 .552-.1l14.215-4.738c.752-.251.889-.689.9-.927s-.067-.69-.783-1.031L10.13.378A3.01 3.01 0 0 1 9.556 0zm0 0" class="cls-17" data-name="Path 4256" transform="translate(.733 7.131)"/>
        </g>
        <g id="email-3-4" data-name="email-3" transform="translate(265.682 214.615)">
            <path id="Path_4254-4" d="M1.878 3.975l1.456.7 1.229-3.039c0-.01.008-.019.011-.029a1.307 1.307 0 0 0-.1-1.2A1.023 1.023 0 0 0 3.615 0a1.752 1.752 0 0 0-.551.1l-.029.008L0 1.337l.7 1.455a3.3 3.3 0 0 0 1.178 1.183zm0 0" class="cls-17" data-name="Path 4254" transform="translate(9.408 2.648)"/>
            <path id="Path_4255-4" d="M.041 15.993L9.6 6.438a3.007 3.007 0 0 1-.377-.575L6.793.784C6.467.1 6.038 0 5.811 0c-.2 0-.7.088-.976.905L.1 15.121a1.52 1.52 0 0 0-.059.872zm0 0" class="cls-17" data-name="Path 4255"/>
            <path id="Path_4256-4" d="M9.556 0L0 9.556a1.223 1.223 0 0 0 .321.044 1.753 1.753 0 0 0 .552-.1l14.215-4.738c.752-.251.889-.689.9-.927s-.067-.69-.783-1.031L10.13.378A3.01 3.01 0 0 1 9.556 0zm0 0" class="cls-17" data-name="Path 4256" transform="translate(.733 7.131)"/>
        </g>
        <circle id="Ellipse_249" cx="2.5" cy="2.5" r="2.5" class="cls-18" data-name="Ellipse 249" transform="translate(224 416)"/>
        <circle id="Ellipse_250" cx="2.5" cy="2.5" r="2.5" class="cls-18" data-name="Ellipse 250" transform="translate(76 317)"/>
        <circle id="Ellipse_253" cx="2.5" cy="2.5" r="2.5" class="cls-18" data-name="Ellipse 253" transform="translate(76 376)"/>
        <circle id="Ellipse_254" cx="2.5" cy="2.5" r="2.5" class="cls-18" data-name="Ellipse 254" transform="translate(303 276)"/>
        <circle id="Ellipse_251" cx="2.5" cy="2.5" r="2.5" class="cls-18" data-name="Ellipse 251" transform="translate(198 229)"/>
        <circle id="Ellipse_252" cx="2.5" cy="2.5" r="2.5" class="cls-18" data-name="Ellipse 252" transform="translate(322 366)"/>
    </g>
</svg>
