<svg width="16" height="16" viewBox="0 0 16 16" fill="none" xmlns="http://www.w3.org/2000/svg">
<path d="M0.150024 13.695C0.150024 14.1194 0.318595 14.5263 0.618654 14.8264C0.918712 15.1265 1.32568 15.295 1.75002 15.295H13.695C14.1194 15.295 14.5263 15.1265 14.8264 14.8264C15.1265 14.5263 15.295 14.1194 15.295 13.695V1.75002C15.295 1.32568 15.1265 0.918712 14.8264 0.618654C14.5263 0.318595 14.1194 0.150024 13.695 0.150024L1.75002 0.150024C1.32568 0.150024 0.918712 0.318595 0.618654 0.618654C0.318595 0.918712 0.150024 1.32568 0.150024 1.75002L0.150024 13.695ZM13.695 14.533H1.75002C1.52802 14.5322 1.31533 14.4437 1.15834 14.2867C1.00136 14.1297 0.912815 13.917 0.912024 13.695V11.695L3.77902 8.82902L6.23302 11.283C6.26807 11.3183 6.30974 11.3463 6.35565 11.3654C6.40156 11.3845 6.4508 11.3944 6.50052 11.3944C6.55025 11.3944 6.59949 11.3845 6.6454 11.3654C6.69131 11.3463 6.73298 11.3183 6.76802 11.283L11.199 6.85002L14.534 10.185V13.694C14.5338 13.9166 14.4453 14.1299 14.2881 14.2873C14.1308 14.4448 13.9176 14.5335 13.695 14.534V14.533ZM1.75002 0.908024H13.695C13.917 0.908815 14.1297 0.997358 14.2867 1.15434C14.4437 1.31133 14.5322 1.52402 14.533 1.74602V9.11302L11.465 6.05002C11.43 6.01474 11.3883 5.98674 11.3424 5.96763C11.2965 5.94852 11.2473 5.93868 11.1975 5.93868C11.1478 5.93868 11.0986 5.94852 11.0527 5.96763C11.0067 5.98674 10.9651 6.01474 10.93 6.05002L6.49902 10.478L4.05002 8.02402C4.01498 7.98874 3.97331 7.96074 3.9274 7.94163C3.88149 7.92252 3.83225 7.91268 3.78252 7.91268C3.7328 7.91268 3.68356 7.92252 3.63765 7.94163C3.59174 7.96074 3.55007 7.98874 3.51502 8.02402L0.915024 10.624V1.75002C0.914755 1.52784 1.00242 1.31458 1.15887 1.15681C1.31532 0.999051 1.52785 0.909609 1.75002 0.908024V0.908024Z" fill="#4E586E" stroke="#4E586E" stroke-width="0.3"/>
<path d="M4.84402 6.21702C5.22538 6.21702 5.59818 6.10392 5.91526 5.89203C6.23234 5.68013 6.47945 5.37896 6.62535 5.0266C6.77125 4.67425 6.80937 4.28654 6.73489 3.91252C6.66042 3.5385 6.4767 3.19496 6.20696 2.92537C5.93723 2.65577 5.5936 2.47223 5.21954 2.39795C4.84547 2.32367 4.45779 2.36199 4.10551 2.50807C3.75323 2.65415 3.45219 2.90142 3.24046 3.21861C3.02872 3.5358 2.91582 3.90866 2.91602 4.29002C2.91681 4.80102 3.12022 5.29085 3.48165 5.65209C3.84308 6.01333 4.33302 6.2165 4.84402 6.21702V6.21702ZM4.84402 3.11702C5.07542 3.11702 5.30163 3.18564 5.49403 3.3142C5.68644 3.44276 5.8364 3.62549 5.92495 3.83928C6.0135 4.05307 6.03668 4.28832 5.99153 4.51528C5.94639 4.74224 5.83495 4.95071 5.67133 5.11433C5.5077 5.27796 5.29923 5.38939 5.07227 5.43454C4.84532 5.47968 4.61006 5.45651 4.39627 5.36796C4.18248 5.2794 3.99975 5.12945 3.87119 4.93704C3.74263 4.74464 3.67401 4.51843 3.67401 4.28702C3.67507 3.97732 3.79878 3.68065 4.01805 3.46194C4.23733 3.24322 4.53431 3.12029 4.84402 3.12002V3.11702Z" fill="#4E586E" stroke="#4E586E" stroke-width="0.3"/>
</svg>
