<svg xmlns="http://www.w3.org/2000/svg" xmlns:xlink="http://www.w3.org/1999/xlink" width="225.229" height="184.251" viewBox="0 0 225.229 184.251">
    <>
        <style>
            .cls-1,.cls-10,.cls-2,.cls-3,.cls-4,.cls-5,.cls-6,.cls-7{fill-rule:evenodd}.cls-1{fill:url(#linear-gradient)}.cls-2{fill:url(#linear-gradient-4)}.cls-3{fill:url(#linear-gradient-5)}.cls-4{fill:url(#linear-gradient-6)}.cls-5{fill:none;stroke:#f06d8d}.cls-6{fill:url(#linear-gradient-7)}.cls-7{fill:url(#linear-gradient-8)}.cls-8{fill:#f86430}.cls-9{fill:#ff2d55}.cls-10{fill:#2cc2dc}.cls-11{fill:url(#linear-gradient-9)}.cls-12{fill:url(#linear-gradient-10)}.cls-13{fill:url(#linear-gradient-11)}.cls-14{fill:url(#linear-gradient-12)}.cls-15{fill:url(#linear-gradient-13)}.cls-16{fill:url(#linear-gradient-14)}.cls-17{mix-blend-mode:screen;isolation:isolate;fill:url(#linear-gradient-15)}.cls-18{fill:url(#linear-gradient-16)}.cls-19{fill:url(#linear-gradient-17)}.cls-20{fill:url(#linear-gradient-18)}.cls-21{fill:url(#linear-gradient-19)}.cls-22{fill:url(#linear-gradient-20)}.cls-23{fill:url(#linear-gradient-21)}.cls-24{fill:url(#linear-gradient-22)}.cls-25{fill:url(#linear-gradient-23)}.cls-26{fill:url(#linear-gradient-24)}.cls-27{fill:url(#linear-gradient-25)}.cls-28{fill:url(#linear-gradient-26)}.cls-29{fill:url(#linear-gradient-27)}.cls-30{fill:url(#linear-gradient-28)}.cls-31{fill:url(#linear-gradient-29)}.cls-32{fill:url(#linear-gradient-30)}.cls-33{fill:url(#linear-gradient-31)}.cls-34{fill:url(#linear-gradient-32)}.cls-35{fill:url(#linear-gradient-33)}.cls-36{fill:url(#linear-gradient-34)}.cls-37{fill:url(#linear-gradient-35)}.cls-38{fill:url(#linear-gradient-36)}.cls-39{fill:url(#linear-gradient-37)}.cls-40{fill:url(#linear-gradient-38)}.cls-41{fill:url(#linear-gradient-39)}.cls-42{fill:url(#linear-gradient-40)}.cls-43{fill:url(#linear-gradient-41)}.cls-44{fill:url(#linear-gradient-42)}.cls-45{fill:url(#linear-gradient-43)}.cls-46{fill:url(#linear-gradient-44)}.cls-47{fill:url(#linear-gradient-45)}.cls-48{fill:url(#linear-gradient-46)}.cls-49{fill:url(#linear-gradient-47)}.cls-50{fill:url(#linear-gradient-48)}.cls-51{fill:url(#linear-gradient-49)}.cls-52{fill:url(#linear-gradient-50)}.cls-53{fill:url(#linear-gradient-51)}.cls-54{fill:url(#linear-gradient-52)}.cls-55{fill:url(#linear-gradient-53)}.cls-56{fill:url(#linear-gradient-54)}.cls-57{fill:url(#linear-gradient-55)}.cls-58{fill:url(#linear-gradient-56)}.cls-59{fill:url(#linear-gradient-57)}.cls-60{fill:url(#linear-gradient-58)}.cls-61{fill:url(#linear-gradient-59)}.cls-62{fill:url(#linear-gradient-60)}.cls-63{fill:url(#linear-gradient-61)}.cls-64{fill:url(#linear-gradient-62)}.cls-65{fill:url(#linear-gradient-63)}.cls-66{fill:url(#linear-gradient-64)}.cls-67{fill:url(#linear-gradient-65)}.cls-68{fill:url(#linear-gradient-66)}.cls-69{fill:url(#linear-gradient-67)}.cls-70{fill:url(#linear-gradient-68)}.cls-71{fill:url(#linear-gradient-69)}.cls-72{fill:url(#linear-gradient-70)}.cls-73{fill:url(#linear-gradient-71)}.cls-74{fill:url(#linear-gradient-72)}.cls-75{fill:url(#linear-gradient-73)}.cls-76{fill:url(#linear-gradient-74)}.cls-77{fill:url(#linear-gradient-75)}.cls-78{fill:url(#linear-gradient-76)}.cls-79{fill:url(#linear-gradient-77)}.cls-80{fill:url(#linear-gradient-78)}.cls-81{fill:url(#linear-gradient-79)}.cls-82{fill:url(#linear-gradient-80)}.cls-83{fill:url(#linear-gradient-81)}.cls-84{fill:url(#linear-gradient-82)}.cls-85{fill:url(#linear-gradient-83)}.cls-86{fill:url(#linear-gradient-84)}.cls-87{fill:url(#linear-gradient-85)}.cls-88{fill:url(#linear-gradient-86)}.cls-89{fill:url(#linear-gradient-87)}.cls-90{fill:url(#linear-gradient-88)}.cls-91{fill:url(#linear-gradient-89)}.cls-92{fill:url(#linear-gradient-90)}.cls-93{fill:url(#linear-gradient-91)}.cls-94{fill:url(#linear-gradient-92)}.cls-95{fill:url(#linear-gradient-93)}.cls-96{fill:url(#linear-gradient-94)}.cls-97{fill:url(#linear-gradient-95)}.cls-98{fill:url(#linear-gradient-96)}.cls-99{fill:url(#linear-gradient-97)}.cls-100{fill:url(#linear-gradient-98)}.cls-101{fill:url(#linear-gradient-99)}.cls-102{fill:url(#linear-gradient-100)}.cls-103{fill:url(#linear-gradient-101)}.cls-104{fill:url(#linear-gradient-102)}.cls-105{fill:url(#linear-gradient-103)}.cls-106{fill:url(#linear-gradient-104)}.cls-107{fill:url(#linear-gradient-105)}.cls-108{fill:url(#linear-gradient-106)}.cls-109{fill:url(#linear-gradient-107)}.cls-110{fill:url(#linear-gradient-108)}.cls-111{fill:url(#linear-gradient-109)}.cls-112{fill:url(#linear-gradient-110)}.cls-113{fill:url(#linear-gradient-111)}.cls-114{fill:url(#linear-gradient-112)}.cls-115{fill:url(#linear-gradient-113)}.cls-116{fill:url(#linear-gradient-114)}.cls-117{fill:url(#linear-gradient-115)}.cls-118{fill:url(#linear-gradient-116)}.cls-119{fill:url(#linear-gradient-117)}.cls-120{fill:url(#linear-gradient-118)}.cls-121{fill:url(#linear-gradient-119)}.cls-122{fill:url(#linear-gradient-120)}.cls-123{fill:url(#linear-gradient-121)}.cls-124{fill:url(#linear-gradient-122)}.cls-125{fill:url(#linear-gradient-123)}.cls-126{fill:url(#linear-gradient-124)}.cls-127{fill:url(#linear-gradient-125)}.cls-128{fill:url(#linear-gradient-126)}.cls-129{fill:url(#linear-gradient-127)}.cls-130{fill:url(#linear-gradient-128)}.cls-131{fill:url(#linear-gradient-129)}.cls-132{fill:url(#linear-gradient-130)}.cls-133{fill:url(#linear-gradient-131)}.cls-134{fill:url(#linear-gradient-132)}.cls-135{fill:url(#linear-gradient-133)}.cls-136{fill:url(#linear-gradient-134)}.cls-137{fill:url(#linear-gradient-135)}.cls-138{fill:url(#linear-gradient-136)}.cls-139{fill:url(#linear-gradient-137)}.cls-140{fill:url(#linear-gradient-138)}.cls-141{fill:url(#linear-gradient-139)}.cls-142{fill:url(#linear-gradient-140)}.cls-143{fill:url(#linear-gradient-141)}.cls-144{fill:url(#linear-gradient-142)}.cls-145{fill:url(#linear-gradient-143)}.cls-146{fill:url(#linear-gradient-144)}.cls-147{fill:url(#linear-gradient-145)}.cls-148{fill:url(#linear-gradient-146)}.cls-149{fill:url(#linear-gradient-147)}.cls-150{fill:url(#linear-gradient-148)}.cls-151{fill:url(#linear-gradient-149)}.cls-152{fill:url(#linear-gradient-150)}.cls-153{fill:url(#linear-gradient-151)}
        </style>
        <linearGradient id="linear-gradient" x1="1.243" x2="-.157" y1="-.012" y2="1.119" gradientUnits="objectBoundingBox">
            <stop offset="0" stop-color="#1162d7"/>
            <stop offset=".662" stop-color="#78f3e3"/>
            <stop offset="1" stop-color="#52e5bb"/>
        </linearGradient>
        <linearGradient id="linear-gradient-4" x1="1.243" x2="-.157" y1="-.012" y2="1.119" xlink:href="#linear-gradient"/>
        <linearGradient id="linear-gradient-5" x1="1.243" x2="-.157" y1=".307" y2=".734" xlink:href="#linear-gradient"/>
        <linearGradient id="linear-gradient-6" x1=".594" x2=".417" y1="-.012" y2="1.119" xlink:href="#linear-gradient"/>
        <linearGradient id="linear-gradient-7" x1="1" x2="0" y2="1" gradientUnits="objectBoundingBox">
            <stop offset="0" stop-color="#ff8960"/>
            <stop offset="1" stop-color="#ff62a5"/>
        </linearGradient>
        <linearGradient id="linear-gradient-8" x1=".883" x2=".117" xlink:href="#linear-gradient-7"/>
        <linearGradient id="linear-gradient-9" x1="12.259" x2="11.7" y1="-15.852" y2="-15.888" gradientUnits="objectBoundingBox">
            <stop offset="0" stop-color="#ff6636"/>
            <stop offset=".625" stop-color="#ea3511"/>
            <stop offset="1" stop-color="#e11e00"/>
        </linearGradient>
        <linearGradient id="linear-gradient-10" x1="116.487" x2="112.406" y1="-156.381" y2="-156.278" gradientUnits="objectBoundingBox">
            <stop offset="0" stop-color="#ffd582"/>
            <stop offset=".29" stop-color="#ffbd6d"/>
            <stop offset=".9" stop-color="#ff7f39"/>
            <stop offset="1" stop-color="#ff7530"/>
        </linearGradient>
        <linearGradient id="linear-gradient-11" x1="68.891" x2="66.467" y1="-92.912" y2="-92.851" xlink:href="#linear-gradient-10"/>
        <linearGradient id="linear-gradient-12" x1="46.366" x2="44.726" y1="-62.876" y2="-62.835" xlink:href="#linear-gradient-10"/>
        <linearGradient id="linear-gradient-13" x1="22.938" x2="22.113" y1="-31.604" y2="-31.584" xlink:href="#linear-gradient-10"/>
        <linearGradient id="linear-gradient-14" x1="31.986" x2="30.846" y1="-43.661" y2="-43.633" xlink:href="#linear-gradient-10"/>
        <linearGradient id="linear-gradient-15" x1="13.12" x2="12.695" y1="-23.671" y2="-23.667" gradientUnits="objectBoundingBox">
            <stop offset="0" stop-color="#ffda94"/>
            <stop offset=".25" stop-color="#b89d6b"/>
            <stop offset=".617" stop-color="#564931"/>
            <stop offset=".874" stop-color="#18140d"/>
            <stop offset=".995"/>
        </linearGradient>
        <linearGradient id="linear-gradient-16" x1="51.485" x2="51.473" y1="-21.214" y2="-20.896" gradientUnits="objectBoundingBox">
            <stop offset="0" stop-color="#ae3508"/>
            <stop offset=".508" stop-color="#aa1703"/>
            <stop offset="1" stop-color="#a80000"/>
        </linearGradient>
        <linearGradient id="linear-gradient-17" x1="-2615.133" x2="-2614.112" y1="-2719.194" y2="-2719.091" gradientUnits="objectBoundingBox">
            <stop offset="0" stop-color="#ab3c00"/>
            <stop offset=".344" stop-color="#ffc700"/>
            <stop offset=".37" stop-color="#ffcd17"/>
            <stop offset=".407" stop-color="#ffd432"/>
            <stop offset=".445" stop-color="#ffd946"/>
            <stop offset=".483" stop-color="#ffdc52"/>
            <stop offset=".522" stop-color="#ffde56"/>
            <stop offset=".551" stop-color="#ffdc51"/>
            <stop offset=".585" stop-color="#ffd842"/>
            <stop offset=".623" stop-color="#ffd22b"/>
            <stop offset=".661" stop-color="#ffc90a"/>
            <stop offset=".672" stop-color="#ffc700"/>
            <stop offset="1" stop-color="#ab3c00"/>
        </linearGradient>
        <linearGradient id="linear-gradient-18" x1="-1104.978" x2="-1104.937" y1="-1277.719" y2="-1277.455" gradientUnits="objectBoundingBox">
            <stop offset="0" stop-color="#400300"/>
            <stop offset=".071" stop-color="#750300"/>
            <stop offset=".144" stop-color="#a50300"/>
            <stop offset=".208" stop-color="#c80300"/>
            <stop offset=".261" stop-color="#dd0300"/>
            <stop offset=".296" stop-color="#e50300"/>
            <stop offset=".338" stop-color="#ee180c"/>
            <stop offset=".393" stop-color="#f72e18"/>
            <stop offset=".446" stop-color="#fd3b1f"/>
            <stop offset=".495" stop-color="#ff4022"/>
            <stop offset=".544" stop-color="#fd3b1f"/>
            <stop offset=".599" stop-color="#f72d17"/>
            <stop offset=".657" stop-color="#ed170b"/>
            <stop offset=".699" stop-color="#e50300"/>
            <stop offset=".734" stop-color="#db0300"/>
            <stop offset=".791" stop-color="#c10300"/>
            <stop offset=".865" stop-color="#970300"/>
            <stop offset=".952" stop-color="#5e0300"/>
            <stop offset="1" stop-color="#3b0300"/>
        </linearGradient>
        <linearGradient id="linear-gradient-19" x1="-1724.154" x2="-1724.154" y1="-4830.716" y2="-4829.58" xlink:href="#linear-gradient-17"/>
        <linearGradient id="linear-gradient-20" x1="-2174.661" x2="-2174.71" y1="-2346.191" y2="-2345.622" xlink:href="#linear-gradient-17"/>
        <linearGradient id="linear-gradient-21" x1="-3863.328" x2="-3863.707" y1="-4418.992" y2="-4418.34" gradientUnits="objectBoundingBox">
            <stop offset="0" stop-color="#0038ab"/>
            <stop offset=".113" stop-color="#0061c9"/>
            <stop offset=".272" stop-color="#0097ef"/>
            <stop offset=".349" stop-color="#00acff"/>
            <stop offset=".401" stop-color="#00bfff"/>
            <stop offset=".469" stop-color="#00d2ff"/>
            <stop offset=".516" stop-color="#00d9ff"/>
            <stop offset=".663" stop-color="#00b7ff"/>
            <stop offset=".71" stop-color="#00acff"/>
            <stop offset=".755" stop-color="#00a1f7"/>
            <stop offset=".833" stop-color="#0085e3"/>
            <stop offset=".934" stop-color="#0059c3"/>
            <stop offset="1" stop-color="#0038ab"/>
        </linearGradient>
        <linearGradient id="linear-gradient-22" x1="-1836.688" x2="-1836.351" y1="-2307.192" y2="-2307.298" gradientUnits="objectBoundingBox">
            <stop offset="0" stop-color="#005200"/>
            <stop offset=".186" stop-color="#00880b"/>
            <stop offset=".312" stop-color="#00a912"/>
            <stop offset=".327" stop-color="#11ac12"/>
            <stop offset=".367" stop-color="#39b512"/>
            <stop offset=".406" stop-color="#59bc12"/>
            <stop offset=".444" stop-color="#70c112"/>
            <stop offset=".479" stop-color="#7ec312"/>
            <stop offset=".511" stop-color="#83c512"/>
            <stop offset=".55" stop-color="#7ec412"/>
            <stop offset=".591" stop-color="#72c112"/>
            <stop offset=".632" stop-color="#5dbd12"/>
            <stop offset=".674" stop-color="#40b612"/>
            <stop offset=".715" stop-color="#1bae12"/>
            <stop offset=".742" stop-color="#00a912"/>
            <stop offset=".783" stop-color="#009d10"/>
            <stop offset=".856" stop-color="#007f0b"/>
            <stop offset=".95" stop-color="#004f04"/>
            <stop offset="1" stop-color="#003400"/>
        </linearGradient>
        <linearGradient id="linear-gradient-23" x1="-2152.432" x2="-2152.499" y1="-976.31" y2="-976.889" xlink:href="#linear-gradient-17"/>
        <linearGradient id="linear-gradient-24" x1="-1828.324" x2="-1828.405" y1="-2725.355" y2="-2725.964" xlink:href="#linear-gradient-17"/>
        <linearGradient id="linear-gradient-25" x1="-1588.209" x2="-1588.24" y1="-1026.674" y2="-1027.01" xlink:href="#linear-gradient-17"/>
        <linearGradient id="linear-gradient-26" x1="-2406.944" x2="-2407.08" y1="-1533.433" y2="-1533.773" gradientUnits="objectBoundingBox">
            <stop offset="0" stop-color="#920040"/>
            <stop offset=".048" stop-color="#ad0052"/>
            <stop offset=".119" stop-color="#d00069"/>
            <stop offset=".186" stop-color="#ea0079"/>
            <stop offset=".247" stop-color="#f90083"/>
            <stop offset=".296" stop-color="#ff0087"/>
            <stop offset=".349" stop-color="#ff1a8b"/>
            <stop offset=".435" stop-color="#ff3f91"/>
            <stop offset=".504" stop-color="#ff5595"/>
            <stop offset=".548" stop-color="#ff5e97"/>
            <stop offset=".584" stop-color="#ff5595"/>
            <stop offset=".641" stop-color="#ff3e91"/>
            <stop offset=".712" stop-color="#ff198b"/>
            <stop offset=".753" stop-color="#ff0087"/>
            <stop offset=".794" stop-color="#f90083"/>
            <stop offset=".844" stop-color="#ea0079"/>
            <stop offset=".9" stop-color="#d10069"/>
            <stop offset=".959" stop-color="#ae0052"/>
            <stop offset="1" stop-color="#920040"/>
        </linearGradient>
        <linearGradient id="linear-gradient-27" x1="-1406.846" x2="-1406.463" y1="-1096.225" y2="-1096.181" xlink:href="#linear-gradient-17"/>
        <linearGradient id="linear-gradient-28" x1="-1622.655" x2="-1622.328" y1="-1133.309" y2="-1133.309" xlink:href="#linear-gradient-26"/>
        <linearGradient id="linear-gradient-29" x1="-3620.414" x2="-3620.539" y1="-3023.024" y2="-3024.068" xlink:href="#linear-gradient-22"/>
        <linearGradient id="linear-gradient-30" x1="-776.911" x2="-776.595" y1="-1275.311" y2="-1275.254" xlink:href="#linear-gradient-18"/>
        <linearGradient id="linear-gradient-31" x1="-3300.727" x2="-3301.193" y1="-4307.363" y2="-4306.515" xlink:href="#linear-gradient-17"/>
        <linearGradient id="linear-gradient-32" x1="-1480.607" x2="-1480.639" y1="-1926.726" y2="-1927.375" xlink:href="#linear-gradient-26"/>
        <linearGradient id="linear-gradient-33" x1="-2011.583" x2="-2011.68" y1="-856.072" y2="-856.286" xlink:href="#linear-gradient-18"/>
        <linearGradient id="linear-gradient-34" x1="-2009.911" x2="-2010.007" y1="-840.516" y2="-840.73" xlink:href="#linear-gradient-18"/>
        <linearGradient id="linear-gradient-35" x1="-793.966" x2="-794.005" y1="-1043.615" y2="-1043.844" xlink:href="#linear-gradient-17"/>
        <linearGradient id="linear-gradient-36" x1="-2662.151" x2="-2662.27" y1="-1866.406" y2="-1867.162" xlink:href="#linear-gradient-17"/>
        <linearGradient id="linear-gradient-37" x1="-1765.298" x2="-1765.074" y1="-1626.895" y2="-1626.549" xlink:href="#linear-gradient-22"/>
        <linearGradient id="linear-gradient-38" x1="-2180.395" x2="-2180.296" y1="-2790.953" y2="-2790.127" xlink:href="#linear-gradient-18"/>
        <linearGradient id="linear-gradient-39" x1="-1319.209" x2="-1319.209" y1="-1004.446" y2="-1004.208" xlink:href="#linear-gradient-21"/>
        <linearGradient id="linear-gradient-40" x1="-3178.692" x2="-3178.692" y1="-1152.155" y2="-1151.605" xlink:href="#linear-gradient-26"/>
        <linearGradient id="linear-gradient-41" x1="-1241.387" x2="-1241.347" y1="-1324.871" y2="-1324.613" xlink:href="#linear-gradient-18"/>
        <linearGradient id="linear-gradient-42" x1="-2995.935" x2="-2995.944" y1="-2008.529" y2="-2007.868" xlink:href="#linear-gradient-22"/>
        <linearGradient id="linear-gradient-43" x1="-2224.695" x2="-2224.701" y1="-1888.798" y2="-1888.333" xlink:href="#linear-gradient-18"/>
        <linearGradient id="linear-gradient-44" x1="-3000.229" x2="-3000.066" y1="-4981.403" y2="-4980.32" xlink:href="#linear-gradient-26"/>
        <linearGradient id="linear-gradient-45" x1="-5400.549" x2="-5399.378" y1="-4051.917" y2="-4051.783" xlink:href="#linear-gradient-18"/>
        <linearGradient id="linear-gradient-46" x1="-2394.288" x2="-2393.116" y1="-1771.109" y2="-1770.976" xlink:href="#linear-gradient-18"/>
        <linearGradient id="linear-gradient-47" x1="-2044.77" x2="-2044.642" y1="-2771.777" y2="-2770.985" xlink:href="#linear-gradient-21"/>
        <linearGradient id="linear-gradient-48" x1="-2047.65" x2="-2046.483" y1="-1421.178" y2="-1421.178" xlink:href="#linear-gradient-22"/>
        <linearGradient id="linear-gradient-49" x1="-4615.131" x2="-4615.773" y1="-3425.27" y2="-3424.753" xlink:href="#linear-gradient-22"/>
        <linearGradient id="linear-gradient-50" x1="-3126.021" x2="-3126.032" y1="-4373.797" y2="-4372.333" xlink:href="#linear-gradient-26"/>
        <linearGradient id="linear-gradient-51" x1="-3674.337" x2="-3674.212" y1="-1426.173" y2="-1425.868" xlink:href="#linear-gradient-18"/>
        <linearGradient id="linear-gradient-52" x1="-4406.911" x2="-4406.331" y1="-3909.649" y2="-3908.894" xlink:href="#linear-gradient-21"/>
        <linearGradient id="linear-gradient-53" x1="-1085.642" x2="-1085.196" y1="-1925.141" y2="-1925.057" xlink:href="#linear-gradient-22"/>
        <linearGradient id="linear-gradient-54" x1="-8121.751" x2="-8122.527" y1="-3505.667" y2="-3505.012" xlink:href="#linear-gradient-17"/>
        <linearGradient id="linear-gradient-55" x1="-3404.378" x2="-3404.378" y1="-1577.292" y2="-1576.918" xlink:href="#linear-gradient-26"/>
        <linearGradient id="linear-gradient-56" x1="-2296.224" x2="-2295.871" y1="-4155.855" y2="-4154.729" xlink:href="#linear-gradient-22"/>
        <linearGradient id="linear-gradient-57" x1="-1568.157" x2="-1568.302" y1="-1337.776" y2="-1338.251" xlink:href="#linear-gradient-21"/>
        <linearGradient id="linear-gradient-58" x1="-1671.39" x2="-1671.03" y1="-1699.208" y2="-1699.208" xlink:href="#linear-gradient-17"/>
        <linearGradient id="linear-gradient-59" x1="-1151.957" x2="-1151.912" y1="-1264.079" y2="-1263.769" xlink:href="#linear-gradient-22"/>
        <linearGradient id="linear-gradient-60" x1="-3183.95" x2="-3183.265" y1="-3168.021" y2="-3167.903" xlink:href="#linear-gradient-18"/>
        <linearGradient id="linear-gradient-61" x1="-6341.615" x2="-6341.382" y1="-3705.212" y2="-3704.102" xlink:href="#linear-gradient-17"/>
        <linearGradient id="linear-gradient-62" x1="-1397.161" x2="-1397.082" y1="-1612.917" y2="-1612.372" xlink:href="#linear-gradient-22"/>
        <linearGradient id="linear-gradient-63" x1="-1336.405" x2="-1336.409" y1="-1305.208" y2="-1304.819" xlink:href="#linear-gradient-26"/>
        <linearGradient id="linear-gradient-64" x1="-836.689" x2="-836.689" y1="-857.737" y2="-857.557" xlink:href="#linear-gradient-21"/>
        <linearGradient id="linear-gradient-65" x1="-2765.457" x2="-2766.133" y1="-1146.727" y2="-1146.226" xlink:href="#linear-gradient-21"/>
        <linearGradient id="linear-gradient-66" x1="-1132.101" x2="-1132.158" y1="-1864.291" y2="-1864.894" xlink:href="#linear-gradient-21"/>
        <linearGradient id="linear-gradient-67" x1="-1311.459" x2="-1311.37" y1="-1535.899" y2="-1535.299" xlink:href="#linear-gradient-26"/>
        <linearGradient id="linear-gradient-68" x1="-1358.934" x2="-1358.885" y1="-1102.61" y2="-1102.414" xlink:href="#linear-gradient-21"/>
        <linearGradient id="linear-gradient-69" x1="-1570.964" x2="-1570.337" y1="-986.019" y2="-985.97" xlink:href="#linear-gradient-18"/>
        <linearGradient id="linear-gradient-70" x1="-1897.267" x2="-1897.351" y1="-3203.755" y2="-3204.46" xlink:href="#linear-gradient-18"/>
        <linearGradient id="linear-gradient-71" x1="-3080.916" x2="-3080.794" y1="-3022.237" y2="-3021.607" xlink:href="#linear-gradient-22"/>
        <linearGradient id="linear-gradient-72" x1="-1615.504" x2="-1615.597" y1="-1513.657" y2="-1514.002" xlink:href="#linear-gradient-26"/>
        <linearGradient id="linear-gradient-73" x1="-2543.811" x2="-2543.525" y1="-1392.642" y2="-1392.291" xlink:href="#linear-gradient-18"/>
        <linearGradient id="linear-gradient-74" x1="-1101.379" x2="-1101.435" y1="-1127.146" y2="-1127.393" xlink:href="#linear-gradient-17"/>
        <linearGradient id="linear-gradient-75" x1="-1403.846" x2="-1403.663" y1="-1769.61" y2="-1769.146" xlink:href="#linear-gradient-21"/>
        <linearGradient id="linear-gradient-76" x1="-1167.103" x2="-1166.87" y1="-1396.083" y2="-1396.152" xlink:href="#linear-gradient-21"/>
        <linearGradient id="linear-gradient-77" x1="-4563.079" x2="-4562.053" y1="-3315.057" y2="-3314.946" xlink:href="#linear-gradient-17"/>
        <linearGradient id="linear-gradient-78" x1="-1321.542" x2="-1321.196" y1="-1406.201" y2="-1406.153" xlink:href="#linear-gradient-26"/>
        <linearGradient id="linear-gradient-79" x1="-4112.61" x2="-4112.48" y1="-6028.516" y2="-6027.555" xlink:href="#linear-gradient-17"/>
        <linearGradient id="linear-gradient-80" x1="-1415.448" x2="-1415.043" y1="-2212.762" y2="-2212.681" xlink:href="#linear-gradient-22"/>
        <linearGradient id="linear-gradient-81" x1="-1441.131" x2="-1441.08" y1="-1476.784" y2="-1476.518" xlink:href="#linear-gradient-22"/>
        <linearGradient id="linear-gradient-82" x1="-2472.377" x2="-2472.385" y1="-4104.937" y2="-4103.648" xlink:href="#linear-gradient-26"/>
        <linearGradient id="linear-gradient-83" x1="-1641.826" x2="-1641.587" y1="-2540.928" y2="-2540.323" xlink:href="#linear-gradient-22"/>
        <linearGradient id="linear-gradient-84" x1="-1631.31" x2="-1631.31" y1="-2338.669" y2="-2337.978" xlink:href="#linear-gradient-22"/>
        <linearGradient id="linear-gradient-85" x1="-2707.319" x2="-2707.193" y1="-2497.788" y2="-2497.095" xlink:href="#linear-gradient-21"/>
        <linearGradient id="linear-gradient-86" x1="82.307" x2="82.975" y1="-364.526" y2="-364.526" gradientUnits="objectBoundingBox">
            <stop offset="0" stop-color="#da0000"/>
            <stop offset=".09" stop-color="#e61014"/>
            <stop offset=".242" stop-color="#f82831"/>
            <stop offset=".329" stop-color="#ff313d"/>
            <stop offset=".356" stop-color="#fd3f49"/>
            <stop offset=".42" stop-color="#fb5c63"/>
            <stop offset=".474" stop-color="#f96d72"/>
            <stop offset=".515" stop-color="#f97478"/>
            <stop offset=".671" stop-color="#ff313d"/>
            <stop offset=".692" stop-color="#f92c37"/>
            <stop offset=".815" stop-color="#dd141a"/>
            <stop offset=".922" stop-color="#cc0509"/>
            <stop offset="1" stop-color="#c70003"/>
        </linearGradient>
        <linearGradient id="linear-gradient-87" x1="74.504" x2="76.801" y1="-117.761" y2="-117.431" xlink:href="#linear-gradient-86"/>
        <linearGradient id="linear-gradient-88" x1="101.95" x2="104.689" y1="-114.871" y2="-114.654" xlink:href="#linear-gradient-86"/>
        <linearGradient id="linear-gradient-89" x1="43.638" x2="44.11" y1="-440.538" y2="-440.538" xlink:href="#linear-gradient-86"/>
        <linearGradient id="linear-gradient-90" x1="42.722" x2="43.344" y1="-252.342" y2="-252.342" xlink:href="#linear-gradient-86"/>
        <linearGradient id="linear-gradient-91" x1="59.087" x2="59.73" y1="-430.802" y2="-430.802" gradientUnits="objectBoundingBox">
            <stop offset="0" stop-color="#003400"/>
            <stop offset=".079" stop-color="#005104"/>
            <stop offset=".194" stop-color="#00770a"/>
            <stop offset=".301" stop-color="#00920e"/>
            <stop offset=".396" stop-color="#00a311"/>
            <stop offset=".468" stop-color="#00a912"/>
            <stop offset=".602" stop-color="#00a912"/>
            <stop offset=".665" stop-color="#009d10"/>
            <stop offset=".777" stop-color="#007f0b"/>
            <stop offset=".924" stop-color="#004f04"/>
            <stop offset="1" stop-color="#003400"/>
        </linearGradient>
        <linearGradient id="linear-gradient-92" x1="186.762" x2="191.743" y1="-287.656" y2="-287.028" xlink:href="#linear-gradient-91"/>
        <linearGradient id="linear-gradient-93" x1="247.134" x2="251.838" y1="-377.684" y2="-377.286" xlink:href="#linear-gradient-91"/>
        <linearGradient id="linear-gradient-94" x1="416.452" x2="424.399" y1="-363.828" y2="-363.445" xlink:href="#linear-gradient-91"/>
        <linearGradient id="linear-gradient-95" x1="491.042" x2="496.917" y1="-433.464" y2="-433.04" xlink:href="#linear-gradient-91"/>
        <linearGradient id="linear-gradient-96" x1="378.608" x2="388.738" y1="-345.244" y2="-344.492" xlink:href="#linear-gradient-91"/>
        <linearGradient id="linear-gradient-97" x1="82.229" x2="83.095" y1="-230.894" y2="-230.894" xlink:href="#linear-gradient-91"/>
        <linearGradient id="linear-gradient-98" x1="83.56" x2="84.465" y1="-211.81" y2="-211.81" xlink:href="#linear-gradient-91"/>
        <linearGradient id="linear-gradient-99" x1="38.093" x2="38.809" y1="-87.445" y2="-87.445" gradientUnits="objectBoundingBox">
            <stop offset="0" stop-color="#0038ab"/>
            <stop offset=".157" stop-color="#0061c9"/>
            <stop offset=".377" stop-color="#0097ef"/>
            <stop offset=".484" stop-color="#00acff"/>
            <stop offset=".57" stop-color="#00acff"/>
            <stop offset=".637" stop-color="#00a1f7"/>
            <stop offset=".753" stop-color="#0085e3"/>
            <stop offset=".902" stop-color="#0059c3"/>
            <stop offset="1" stop-color="#0038ab"/>
        </linearGradient>
        <linearGradient id="linear-gradient-100" x1="79.76" x2="83.439" y1="-203.928" y2="-202.803" xlink:href="#linear-gradient-99"/>
        <linearGradient id="linear-gradient-101" x1="104.531" x2="107.967" y1="-278.613" y2="-277.87" xlink:href="#linear-gradient-99"/>
        <linearGradient id="linear-gradient-102" x1="180.701" x2="186.69" y1="-157.912" y2="-157.492" xlink:href="#linear-gradient-99"/>
        <linearGradient id="linear-gradient-103" x1="277.418" x2="283.177" y1="-155.013" y2="-154.629" xlink:href="#linear-gradient-99"/>
        <linearGradient id="linear-gradient-104" x1="226.612" x2="237.186" y1="-133.299" y2="-132.566" xlink:href="#linear-gradient-99"/>
        <linearGradient id="linear-gradient-105" x1="46.529" x2="47.375" y1="-148.97" y2="-148.97" xlink:href="#linear-gradient-99"/>
        <linearGradient id="linear-gradient-106" x1="46.321" x2="47.187" y1="-131.505" y2="-131.505" xlink:href="#linear-gradient-99"/>
        <linearGradient id="linear-gradient-107" x1="53.409" x2="54.107" y1="-322.307" y2="-322.307" xlink:href="#linear-gradient-86"/>
        <linearGradient id="linear-gradient-108" x1="268.936" x2="277.607" y1="-357.637" y2="-357.137" xlink:href="#linear-gradient-86"/>
        <linearGradient id="linear-gradient-109" x1="388.694" x2="397.66" y1="-468.135" y2="-467.819" xlink:href="#linear-gradient-86"/>
        <linearGradient id="linear-gradient-110" x1="238.102" x2="243.584" y1="-603.161" y2="-602.755" xlink:href="#linear-gradient-86"/>
        <linearGradient id="linear-gradient-111" x1="255.05" x2="258.74" y1="-895.453" y2="-894.892" xlink:href="#linear-gradient-86"/>
        <linearGradient id="linear-gradient-112" x1="202.313" x2="208.824" y1="-618.268" y2="-617.406" xlink:href="#linear-gradient-86"/>
        <linearGradient id="linear-gradient-113" x1="83.204" x2="84.264" y1="-276.44" y2="-276.44" xlink:href="#linear-gradient-86"/>
        <linearGradient id="linear-gradient-114" x1="86.255" x2="87.383" y1="-262.039" y2="-262.039" xlink:href="#linear-gradient-86"/>
        <linearGradient id="linear-gradient-115" x1="38.994" x2="39.835" y1="-68.918" y2="-68.918" xlink:href="#linear-gradient-99"/>
        <linearGradient id="linear-gradient-116" x1="58.822" x2="61.961" y1="-42.32" y2="-41.715" xlink:href="#linear-gradient-99"/>
        <linearGradient id="linear-gradient-117" x1="41.602" x2="42.367" y1="-47.051" y2="-47.051" xlink:href="#linear-gradient-99"/>
        <linearGradient id="linear-gradient-118" x1="85.964" x2="90.355" y1="-26.759" y2="-26.529" xlink:href="#linear-gradient-99"/>
        <linearGradient id="linear-gradient-119" x1="37.37" x2="38.057" y1="-30.594" y2="-30.594" xlink:href="#linear-gradient-99"/>
        <linearGradient id="linear-gradient-120" x1="45.825" x2="48.017" y1="-150.567" y2="-149.98" gradientUnits="objectBoundingBox">
            <stop offset="0" stop-color="#ab3c00"/>
            <stop offset=".468" stop-color="#ffc700"/>
            <stop offset=".591" stop-color="#ffc700"/>
            <stop offset="1" stop-color="#ab3c00"/>
        </linearGradient>
        <linearGradient id="linear-gradient-121" x1="25.856" x2="26.268" y1="-379.651" y2="-379.651" xlink:href="#linear-gradient-120"/>
        <linearGradient id="linear-gradient-122" x1="95.481" x2="99.254" y1="-1249.995" y2="-1251.005" xlink:href="#linear-gradient-120"/>
        <linearGradient id="linear-gradient-123" x1="24.142" x2="25.745" y1="-94.224" y2="-93.519" xlink:href="#linear-gradient-120"/>
        <linearGradient id="linear-gradient-124" x1="173.273" x2="175.132" y1="-101.995" y2="-101.995" xlink:href="#linear-gradient-86"/>
        <linearGradient id="linear-gradient-125" x1="97.29" x2="99.047" y1="-405.056" y2="-405.906" xlink:href="#linear-gradient-86"/>
        <linearGradient id="linear-gradient-126" x1="78.676" x2="80.577" y1="-322.341" y2="-324.154" xlink:href="#linear-gradient-86"/>
        <linearGradient id="linear-gradient-127" x1="240.448" x2="241.65" y1="-148.882" y2="-148.882" xlink:href="#linear-gradient-86"/>
        <linearGradient id="linear-gradient-128" x1="261.684" x2="264.932" y1="-111.855" y2="-111.775" xlink:href="#linear-gradient-86"/>
        <linearGradient id="linear-gradient-129" x1="5.986" x2="6.477" y1="-185.233" y2="-185.233" xlink:href="#linear-gradient-91"/>
        <linearGradient id="linear-gradient-130" x1="34.947" x2="37.238" y1="-183.489" y2="-183.261" xlink:href="#linear-gradient-91"/>
        <linearGradient id="linear-gradient-131" x1="24.569" x2="27.967" y1="-88.613" y2="-88.383" xlink:href="#linear-gradient-91"/>
        <linearGradient id="linear-gradient-132" x1="29.09" x2="32.549" y1="-133.131" y2="-132.738" xlink:href="#linear-gradient-91"/>
        <linearGradient id="linear-gradient-133" x1="8.946" x2="9.305" y1="-344.242" y2="-344.242" xlink:href="#linear-gradient-91"/>
        <linearGradient id="linear-gradient-134" x1="8.67" x2="9.095" y1="-268.001" y2="-268.001" xlink:href="#linear-gradient-91"/>
        <linearGradient id="linear-gradient-135" x1="40.444" x2="40.886" y1="-71.881" y2="-71.881" xlink:href="#linear-gradient-86"/>
        <linearGradient id="linear-gradient-136" x1="102.212" x2="102.625" y1="-163.281" y2="-163.281" xlink:href="#linear-gradient-86"/>
        <linearGradient id="linear-gradient-137" x1="193.212" x2="199.824" y1="-70.891" y2="-70.792" xlink:href="#linear-gradient-86"/>
        <linearGradient id="linear-gradient-138" x1="38.822" x2="39.291" y1="-72.2" y2="-72.2" xlink:href="#linear-gradient-86"/>
        <linearGradient id="linear-gradient-139" x1="94.607" x2="98.116" y1="-67.318" y2="-67.336" xlink:href="#linear-gradient-86"/>
        <linearGradient id="linear-gradient-140" x1="22.492" x2="22.87" y1="-327.409" y2="-327.409" xlink:href="#linear-gradient-99"/>
        <linearGradient id="linear-gradient-141" x1="58.532" x2="58.873" y1="-782.765" y2="-782.765" xlink:href="#linear-gradient-99"/>
        <linearGradient id="linear-gradient-142" x1="45.461" x2="47.728" y1="-302.451" y2="-302.286" xlink:href="#linear-gradient-99"/>
        <linearGradient id="linear-gradient-143" x1="23.214" x2="23.628" y1="-286.286" y2="-286.286" xlink:href="#linear-gradient-99"/>
        <linearGradient id="linear-gradient-144" x1="50.423" x2="53.256" y1="-204.093" y2="-204.115" xlink:href="#linear-gradient-99"/>
        <linearGradient id="linear-gradient-145" x1="10.581" x2="11.63" y1="-7.686" y2="-7.686" xlink:href="#linear-gradient-120"/>
        <linearGradient id="linear-gradient-146" x1="78.023" x2="90.236" y1="-22.504" y2="-23.871" xlink:href="#linear-gradient-120"/>
        <linearGradient id="linear-gradient-147" x1="13.19" x2="16.412" y1="-9.661" y2="-10.102" xlink:href="#linear-gradient-120"/>
        <linearGradient id="linear-gradient-148" x1="11.677" x2="14.373" y1="-9" y2="-10.093" xlink:href="#linear-gradient-120"/>
        <linearGradient id="linear-gradient-149" x1="30.496" x2="31.696" y1="-6.4" y2="-6.4" xlink:href="#linear-gradient-120"/>
        <linearGradient id="linear-gradient-150" x1="11.092" x2="12.163" y1="-6.342" y2="-6.342" xlink:href="#linear-gradient-120"/>
        <linearGradient id="linear-gradient-151" x1="7.189" x2="9.316" y1="-7.298" y2="-8.538" xlink:href="#linear-gradient-120"/>
    </>
    <g id="Group_3976" data-name="Group 3976" transform="translate(-83.755 -250.749)">
        <g id="Illus" transform="translate(72.195 231)">
            <g id="Decor">
                <g id="Group" transform="translate(0 32.399)">
                    <path id="Fill-98" d="M14.867 20.761a13.08 13.08 0 0 1-2.779-8l-.012-2.36-1.533 1.246a13.086 13.086 0 0 1-8.472 2.925L0 14.539l1.31 1.724a13.085 13.085 0 0 1 2.645 7.168l.182 3.184L6.215 25.1a13.079 13.079 0 0 1 7.094-2.489l2.9-.134z" class="cls-1" transform="translate(11.561 15.201)"/>
                    <path id="Fill-99" d="M37.693 10.862a6.981 6.981 0 0 1-1.483-4.267l-.01-1.26-.814.665a6.988 6.988 0 0 1-4.521 1.562l-1.1-.019.7.919a6.992 6.992 0 0 1 1.411 3.824l.1 1.7 1.11-.806a6.979 6.979 0 0 1 3.785-1.328l1.548-.072z" class="cls-1" transform="translate(10.415 1.867)"/>
                    <path id="Fill-99-Copy" d="M133.932 97.527a6.981 6.981 0 0 1-1.484-4.267l-.005-1.26-.818.664a6.988 6.988 0 0 1-4.521 1.562l-1.1-.019.7.919a6.992 6.992 0 0 1 1.411 3.824l.1 1.7 1.11-.806a6.98 6.98 0 0 1 3.785-1.328l1.548-.072z" class="cls-1" transform="translate(44.093 32.195)"/>
                    <path id="Fill-100-Copy" d="M176.932 77.527a6.98 6.98 0 0 1-1.484-4.267l-.006-1.26-.817.664a6.98 6.98 0 0 1-4.521 1.562l-1.1-.019.7.919a6.992 6.992 0 0 1 1.411 3.824l.1 1.7 1.11-.807a6.99 6.99 0 0 1 3.785-1.328l1.548-.072z" class="cls-2" transform="translate(59.141 25.196)"/>
                    <path id="Fill-101" d="M61.92 33.318l-1.292.393a20.562 20.562 0 0 0-9.944-11.465 15.713 15.713 0 0 0-12.318-1.162l-.421-1.284a16.971 16.971 0 0 1 13.362 1.246A21.986 21.986 0 0 1 61.92 33.318" class="cls-3" transform="translate(126.279 40.637)"/>
                    <path id="Fill-102" d="M57.69 0l.761 1.115a20.576 20.576 0 0 0-7.958 12.923 15.714 15.714 0 0 0 2.584 12.1l-1.1.786A16.965 16.965 0 0 1 49.165 13.8 21.984 21.984 0 0 1 57.69 0" class="cls-4" transform="translate(17.1)"/>
                </g>
                <path id="Stroke-31" d="M131 62.248a5.774 5.774 0 0 1 1.536-3.508c2.432-2.106 4.439-.519 6.014-2.2 1.958-2.083-.34-4.077 1.535-6.074 2.2-2.346 4.064.114 6.144-2.1 2.178-2.317.436-4.942 2.49-7.127 1.068-1.138 1.8-1.12 3.257-1.33 1.57-.226 2.756.229 4.094-1.2 1.758-1.885-.232-4.194 1.945-6.512 2.082-2.215 3.941.244 6.145-2.1 1.875-2-.421-3.991 1.535-6.074 1.575-1.676 3.672.01 6.014-2.2 1.913-1.8 1.194-3.866 1.675-4.937C174.228 15.014 176.9 15 176.9 15" class="cls-5" transform="translate(45.843 5.249)"/>
                <path id="Fill-57" d="M115.857 8.618c-.282-.9-1.505-1.991-4.146-1.1a23.522 23.522 0 0 0-6.4 3.743 25.867 25.867 0 0 0 1.522-7.639C106.835.737 105.374 0 104.466 0s-2.282.877-2.282 3.765a25.685 25.685 0 0 0 1.442 7.5 23.746 23.746 0 0 0-6.5-3.869c-2.641-.892-3.762.327-4.044 1.226s.1 2.532 2.734 3.423a22.755 22.755 0 0 0 7.291.887 24.458 24.458 0 0 0-5.544 5.248c-1.629 2.338-.863 3.828-.13 4.383s2.343.69 3.974-1.647a25.31 25.31 0 0 0 3.064-6.948 25.516 25.516 0 0 0 3.078 7.113c1.631 2.336 3.227 2.038 3.962 1.483s1.352-2.105-.277-4.443a24.305 24.305 0 0 0-5.4-5.182 23.054 23.054 0 0 0 7.447-.85c2.638-.892 2.859-2.568 2.58-3.465" class="cls-6" transform="translate(11.545 20)"/>
                <path id="Fill-57-Copy" d="M20.412 100.055c-.116-.423-.62-.937-1.707-.516a9.493 9.493 0 0 0-2.635 1.761 13.708 13.708 0 0 0 .627-3.595c0-1.359-.6-1.706-.975-1.706s-.94.413-.94 1.772a13.623 13.623 0 0 0 .594 3.527 9.609 9.609 0 0 0-2.676-1.82c-1.087-.42-1.549.154-1.665.577s.039 1.191 1.126 1.611a8.269 8.269 0 0 0 3 .417 10.789 10.789 0 0 0-2.283 2.469c-.671 1.1-.355 1.8-.054 2.062s.965.325 1.636-.775a12.828 12.828 0 0 0 1.262-3.27 12.955 12.955 0 0 0 1.267 3.347c.672 1.1 1.329.959 1.631.7s.557-.991-.114-2.091a10.751 10.751 0 0 0-2.223-2.439 8.372 8.372 0 0 0 3.066-.4c1.086-.42 1.177-1.209 1.062-1.63" class="cls-7" transform="translate(3.849 33.595)"/>
                <g id="Group-2" data-name="Group" transform="translate(48.598 82.347)">
                    <g id="Group-6" transform="translate(148.494)">
                        <path id="Combined-Shape" d="M7.55 1.225a1.225 1.225 0 1 1 2.45 0v2.517a1.225 1.225 0 1 1-2.45 0zM2.875 4.608a1.225 1.225 0 0 1 1.733-1.733l1.678 1.678a1.225 1.225 0 0 1-1.733 1.733zM1.225 10a1.225 1.225 0 1 1 0-2.45h2.517a1.225 1.225 0 1 1 0 2.45zm3.383 4.674a1.225 1.225 0 1 1-1.733-1.733l1.678-1.678A1.225 1.225 0 0 1 6.286 13zM10 16.324a1.225 1.225 0 0 1-2.45 0v-2.516a1.225 1.225 0 1 1 2.45 0zm4.674-3.383a1.225 1.225 0 1 1-1.733 1.733L11.264 13A1.225 1.225 0 0 1 13 11.264zm1.65-5.392a1.225 1.225 0 0 1 0 2.45h-2.516a1.225 1.225 0 1 1 0-2.45zm-3.383-4.674a1.225 1.225 0 1 1 1.733 1.733L13 6.286a1.225 1.225 0 0 1-1.733-1.733z" class="cls-8"/>
                    </g>
                    <g id="Group-5" transform="translate(0 66.147)">
                        <path id="Combined-Shape-2" d="M8.1 1.332a1.35 1.35 0 0 1 2.7 0v2.736a1.35 1.35 0 0 1-2.7 0zM1.332 10.8a1.35 1.35 0 0 1 0-2.7h2.736a1.35 1.35 0 0 1 0 2.7zm8.118 5.417a1.35 1.35 0 0 1-2.7 0v-2.736a1.35 1.35 0 0 1 2.7 0zM16.217 8.1a1.35 1.35 0 0 1 0 2.7h-2.736a1.35 1.35 0 0 1 0-2.7z" class="cls-9" data-name="Combined-Shape"/>
                    </g>
                    <path id="Fill-63" d="M103 44.724A8.084 8.084 0 0 0 107.725 40c.526 1.927 2.732 4.207 4.724 4.38-2.242.8-4.385 3.192-4.724 5.069-.232-1.912-3.2-4.447-4.725-4.725" class="cls-10" transform="translate(36.044 13.998)"/>
                </g>
            </g>
        </g>
        <g id="Group_3591" data-name="Group 3591" transform="rotate(-45 377.53 -125.199)">
            <g id="Group_3500" data-name="Group 3500" transform="translate(-146.739 93.601)">
                <path id="Path_3772" d="M-101.485 200.533l-6.9 3.2-5.3 2.461-5.926 2.75-4.275 1.986-4.5 2.086-3.221 1.493-3.357 1.556-2.587 1.2-2.986 1.385-2.027.941-2.954 1.371a.855.855 0 0 1-1.135-1.135l1.375-2.95.941-2.017 1.393-2.977 1.2-2.579 1.561-3.352 1.5-3.207 2.094-4.483L-134.6 194l2.759-5.908 2.457-5.27 3.321-7.111z" class="cls-11" data-name="Path 3772" transform="translate(146.739 -171.872)"/>
                <path id="Path_3773" d="M-139.121 256.666l-2.027.941a17.158 17.158 0 0 1-1.434-1.289 16.842 16.842 0 0 1-1.28-1.425l.941-2.017a17.967 17.967 0 0 0 1.751 2.031 17.442 17.442 0 0 0 2.049 1.759z" class="cls-12" data-name="Path 3773" transform="translate(145.321 -209.887)"/>
                <path id="Path_3774" d="M-131.282 248.683l-2.587 1.2a22.168 22.168 0 0 1-2.936-2.474 22.53 22.53 0 0 1-2.457-2.909l1.2-2.579a21.611 21.611 0 0 0 3.009 3.732 21.49 21.49 0 0 0 3.771 3.03z" class="cls-13" data-name="Path 3774" transform="translate(143.055 -204.492)"/>
                <path id="Path_3775" d="M-122.02 239.266l-3.221 1.493a26.256 26.256 0 0 1-4.786-3.809 26.325 26.325 0 0 1-3.786-4.746l1.5-3.207a25.433 25.433 0 0 0 4.406 5.835 25.312 25.312 0 0 0 5.887 4.434z" class="cls-14" data-name="Path 3775" transform="translate(140.371 -198.123)"/>
                <path id="Path_3776" d="M-93.916 210.637l-5.3 2.461a38.234 38.234 0 0 1-10.586-7.618 38.357 38.357 0 0 1-7.57-10.48l2.457-5.27a36.593 36.593 0 0 0 8.41 12.453 36.4 36.4 0 0 0 12.589 8.454z" class="cls-15" data-name="Path 3776" transform="translate(132.271 -178.777)"/>
                <path id="Path_3777" d="M-109.757 226.7l-4.275 1.986a33.171 33.171 0 0 1-7.21-5.528 33.487 33.487 0 0 1-5.492-7.138l1.99-4.261a32.192 32.192 0 0 0 6.27 8.631 32.173 32.173 0 0 0 8.717 6.31z" class="cls-16" data-name="Path 3777" transform="translate(136.883 -189.632)"/>
                <path id="Path_3778" d="M-111.864 203.842l-34.736 30.517a.867.867 0 0 0 .445.463l42.13-23.063z" class="cls-17" data-name="Path 3778" transform="translate(146.671 -185.73)"/>
                <ellipse id="Ellipse_234" cx="4.987" cy="17.5" class="cls-18" data-name="Ellipse 234" rx="4.987" ry="17.5" transform="rotate(-45 17.197 -17.436)"/>
            </g>
            <g id="Group_3590" data-name="Group 3590" transform="translate(-130.37 16.836)">
                <g id="Group_3570" data-name="Group 3570">
                    <g id="Group_3501" data-name="Group 3501" transform="translate(81.472 85.315)">
                        <path id="Path_3779" d="M47.631 185.976c-.308-.089-.581-.3-.974-.98a1.645 1.645 0 0 0-.547.878 2.931 2.931 0 0 0 1.123.962 1.5 1.5 0 0 1 .398-.86z" class="cls-19" data-name="Path 3779" transform="translate(-46.11 -184.996)"/>
                    </g>
                    <g id="Group_3502" data-name="Group 3502" transform="translate(94.18 83.129)">
                        <path id="Path_3780" d="M71.158 182.6a1.491 1.491 0 0 1 .531 1.125 12.009 12.009 0 0 0 3.051-1.638 2.85 2.85 0 0 0-.63-1.395 6.855 6.855 0 0 1-2.952 1.908z" class="cls-20" data-name="Path 3780" transform="translate(-71.158 -180.688)"/>
                    </g>
                    <g id="Group_3503" data-name="Group 3503" transform="translate(55.606 73.616)">
                        <path id="Path_3781" d="M-4.778 161.943a.8.8 0 0 0-.086.557 5.024 5.024 0 0 1 1.794.223.821.821 0 0 1 .159-.51 4.468 4.468 0 0 0-1.867-.27z" class="cls-21" data-name="Path 3781" transform="translate(4.873 -161.937)"/>
                    </g>
                    <g id="Group_3504" data-name="Group 3504" transform="translate(78.774 92.075)">
                        <path id="Path_3782" d="M41.926 200.108a1.173 1.173 0 0 1 1.013-.631 3.814 3.814 0 0 0-1.292-1.157 1.066 1.066 0 0 0-.854.631 2.791 2.791 0 0 1 1.133 1.157z" class="cls-22" data-name="Path 3782" transform="translate(-40.792 -198.32)"/>
                    </g>
                    <g id="Group_3505" data-name="Group 3505" transform="translate(90.022 53.66)">
                        <path id="Path_3783" d="M64.2 123.269a1.9 1.9 0 0 1-.888-.667.518.518 0 0 1-.35.223 2.269 2.269 0 0 0 .922.827.953.953 0 0 0 .316-.383z" class="cls-23" data-name="Path 3783" transform="translate(-62.963 -122.602)"/>
                    </g>
                    <g id="Group_3506" data-name="Group 3506" transform="translate(74.153 59.069)">
                        <path id="Path_3784" d="M33.907 134.093a5.225 5.225 0 0 1-1.871-.83 1.671 1.671 0 0 0-.353 1.008 6.928 6.928 0 0 0 1.862.976c-.062-.577-.001-.881.362-1.154z" class="cls-24" data-name="Path 3784" transform="translate(-31.683 -133.263)"/>
                    </g>
                    <g id="Group_3507" data-name="Group 3507" transform="translate(69.353 20.96)">
                        <path id="Path_3785" d="M22.49 61.663a2.024 2.024 0 0 0 1.814-.025 7.177 7.177 0 0 1-.1-3.278 2.7 2.7 0 0 1-1.869-.21 8.621 8.621 0 0 0 .155 3.513z" class="cls-25" data-name="Path 3785" transform="translate(-22.222 -58.149)"/>
                    </g>
                    <g id="Group_3508" data-name="Group 3508" transform="translate(95.266 51.949)">
                        <path id="Path_3786" d="M75.744 120.835a1.562 1.562 0 0 0-.116-1.321 9.668 9.668 0 0 1-2.26-.284 1.441 1.441 0 0 1-.07.73 8.582 8.582 0 0 1 2.446.875z" class="cls-26" data-name="Path 3786" transform="translate(-73.298 -119.23)"/>
                    </g>
                    <g id="Group_3509" data-name="Group 3509" transform="translate(33.461 102.579)">
                        <path id="Path_3787" d="M-48.521 222.146a1.9 1.9 0 0 0 1.594.605 6.746 6.746 0 0 1 1.05-2.9 2.538 2.538 0 0 1-1.56-.83 8.087 8.087 0 0 0-1.084 3.125z" class="cls-27" data-name="Path 3787" transform="translate(48.521 -219.025)"/>
                    </g>
                    <g id="Group_3510" data-name="Group 3510" transform="translate(6.676 12.084)">
                        <path id="Path_3788" d="M-100.2 40.655a1.579 1.579 0 0 0-1.118.732 9.713 9.713 0 0 1 .823 2.143 1.452 1.452 0 0 1 .681-.286 8.677 8.677 0 0 1-.386-2.589z" class="cls-28" data-name="Path 3788" transform="translate(101.317 -40.655)"/>
                    </g>
                    <g id="Group_3511" data-name="Group 3511" transform="translate(26.239 46.919)">
                        <path id="Path_3789" d="M-61.861 109.316a10.593 10.593 0 0 0-.9 3.588 4.252 4.252 0 0 0 2.2-.452 3.536 3.536 0 0 1 .511-2.207 2.378 2.378 0 0 1-1.811-.929z" class="cls-29" data-name="Path 3789" transform="translate(62.756 -109.316)"/>
                    </g>
                    <g id="Group_3512" data-name="Group 3512" transform="translate(0 50.157)">
                        <path id="Path_3790" d="M-114.44 115.946a5.988 5.988 0 0 0 .426 3.179 2.932 2.932 0 0 0 1.921-.294 5.473 5.473 0 0 1-.393-3.133 2.045 2.045 0 0 1-1.954.248z" class="cls-30" data-name="Path 3790" transform="translate(114.475 -115.698)"/>
                    </g>
                    <g id="Group_3513" data-name="Group 3513" transform="translate(45.741 54.634)">
                        <path id="Path_3791" d="M-23.455 125.8a1.5 1.5 0 0 1 .545-.332 4.7 4.7 0 0 1-.849-.945.849.849 0 0 0-.558.262 5.549 5.549 0 0 0 .862 1.015z" class="cls-31" data-name="Path 3791" transform="translate(24.317 -124.523)"/>
                    </g>
                    <g id="Group_3514" data-name="Group 3514" transform="translate(80.192 31.791)">
                        <path id="Path_3792" d="M47.049 79.5c-.593.589-1.429.934-3.462.971a4.285 4.285 0 0 0 1.3 2.356 7.627 7.627 0 0 0 3.61-1.334 3.908 3.908 0 0 1-1.448-1.993z" class="cls-32" data-name="Path 3792" transform="translate(-43.587 -79.498)"/>
                    </g>
                    <g id="Group_3515" data-name="Group 3515" transform="translate(68.98 97.29)">
                        <path id="Path_3793" d="M21.487 208.919a1.5 1.5 0 0 1 .737.487.411.411 0 0 1 .267-.194 1.806 1.806 0 0 0-.771-.612.757.757 0 0 0-.233.319z" class="cls-33" data-name="Path 3793" transform="translate(-21.487 -208.599)"/>
                    </g>
                    <g id="Group_3516" data-name="Group 3516" transform="translate(20.288 63.672)">
                        <path id="Path_3794" d="M-74.45 143.066a1.393 1.393 0 0 0 .341 1.2 4.954 4.954 0 0 1 2.162-.651 1.859 1.859 0 0 1-.195-1.28 5.933 5.933 0 0 0-2.308.731z" class="cls-34" data-name="Path 3794" transform="translate(74.486 -142.337)"/>
                    </g>
                    <g id="Group_3517" data-name="Group 3517" transform="translate(42.679 68.663)">
                        <path id="Path_3795" d="M-30.352 156.737a2.652 2.652 0 0 0 2.126-.729 16.369 16.369 0 0 1-.454-3.834 2.439 2.439 0 0 1-1.229.183 14.586 14.586 0 0 1-.443 4.38z" class="cls-35" data-name="Path 3795" transform="translate(30.352 -152.174)"/>
                    </g>
                    <g id="Group_3518" data-name="Group 3518" transform="translate(64.985 5.464)">
                        <path id="Path_3796" d="M13.613 32.169a2.653 2.653 0 0 0 2.126-.729 16.4 16.4 0 0 1-.454-3.834 2.439 2.439 0 0 1-1.229.183 14.586 14.586 0 0 1-.443 4.38z" class="cls-36" data-name="Path 3796" transform="translate(-13.613 -27.606)"/>
                    </g>
                    <g id="Group_3519" data-name="Group 3519" transform="translate(73.318 65.311)">
                        <path id="Path_3797" d="M35.259 146.84A3.061 3.061 0 0 0 33 145.568a18.954 18.954 0 0 1-2.957 3.338 2.817 2.817 0 0 1 1.1.919 16.817 16.817 0 0 1 4.116-2.985z" class="cls-37" data-name="Path 3797" transform="translate(-30.039 -145.568)"/>
                    </g>
                    <g id="Group_3520" data-name="Group 3520" transform="translate(29.204 93.108)">
                        <path id="Path_3798" d="M-56.912 201.519a1.81 1.81 0 0 1 .47.6 5.6 5.6 0 0 1 1.006-1.138 1.013 1.013 0 0 0-.388-.627 6.666 6.666 0 0 0-1.088 1.165z" class="cls-38" data-name="Path 3798" transform="translate(56.912 -200.356)"/>
                    </g>
                    <g id="Group_3521" data-name="Group 3521" transform="translate(35.113 39.601)">
                        <path id="Path_3799" d="M-42.989 94.891a3.477 3.477 0 0 0-2 .915 5.215 5.215 0 0 1-.282 1.561c.476-.214.82-.108 1.432.313a9.021 9.021 0 0 1 .85-2.789z" class="cls-39" data-name="Path 3799" transform="translate(45.266 -94.891)"/>
                    </g>
                    <g id="Group_3522" data-name="Group 3522" transform="translate(19.836 94.724)">
                        <path id="Path_3800" d="M-73.9 205.1a1.713 1.713 0 0 1 .65-1.039 5.95 5.95 0 0 0-1.9-.525 2.746 2.746 0 0 0-.227 1.155 3.472 3.472 0 0 1 1.477.409z" class="cls-40" data-name="Path 3800" transform="translate(75.377 -203.541)"/>
                    </g>
                    <g id="Group_3523" data-name="Group 3523" transform="translate(64.605 75.39)">
                        <path id="Path_3801" d="M12.864 168.487c.176.35.45.492.906.708a10.226 10.226 0 0 1 2.185-2.971 1.674 1.674 0 0 1-.749-.791 9.1 9.1 0 0 0-2.342 3.054z" class="cls-41" data-name="Path 3801" transform="translate(-12.864 -165.433)"/>
                    </g>
                    <g id="Group_3524" data-name="Group 3524" transform="translate(107.41 57.92)">
                        <path id="Path_3802" d="M97.236 133.579a1.129 1.129 0 0 0 .764.221 7.116 7.116 0 0 1 .634-2.484 1.164 1.164 0 0 1-.689-.315 6.324 6.324 0 0 0-.709 2.578z" class="cls-42" data-name="Path 3802" transform="translate(-97.236 -131)"/>
                    </g>
                    <g id="Group_3525" data-name="Group 3525" transform="translate(81.239 69.398)">
                        <path id="Path_3803" d="M48.376 156.728a1.451 1.451 0 0 1 .852-.859 11.68 11.68 0 0 0-2.512-2.246 2.769 2.769 0 0 0-1.066 1.04 6.668 6.668 0 0 1 2.726 2.065z" class="cls-43" data-name="Path 3803" transform="translate(-45.65 -153.623)"/>
                    </g>
                    <g id="Group_3526" data-name="Group 3526" transform="translate(32.836 60.79)">
                        <path id="Path_3804" d="M-49.754 137.631a.947.947 0 0 0 .563.761 1.434 1.434 0 0 0 .752-.557 2.15 2.15 0 0 1-.177-1.179 3.734 3.734 0 0 1-1.138.975z" class="cls-44" data-name="Path 3804" transform="translate(49.754 -136.656)"/>
                    </g>
                    <g id="Group_3527" data-name="Group 3527" transform="translate(27.154 73.063)">
                        <path id="Path_3805" d="M-59.125 161.786a1.3 1.3 0 0 0-.9-.939 1.973 1.973 0 0 0-.928.89 2.949 2.949 0 0 1 .446 1.576 5.139 5.139 0 0 1 1.382-1.527z" class="cls-45" data-name="Path 3805" transform="translate(60.954 -160.847)"/>
                    </g>
                    <g id="Group_3528" data-name="Group 3528" transform="translate(37.576 99.72)">
                        <path id="Path_3806" d="M-39.807 213.389a1.071 1.071 0 0 0-.6.335 1.154 1.154 0 0 1 .413.595 1.63 1.63 0 0 0 .625-.225 2.161 2.161 0 0 1-.438-.705z" class="cls-46" data-name="Path 3806" transform="translate(40.41 -213.389)"/>
                    </g>
                    <g id="Group_3529" data-name="Group 3529" transform="translate(47.073 60.747)">
                        <path id="Path_3807" d="M-21.092 137.752a3.481 3.481 0 0 0 .289-1.181 1.394 1.394 0 0 0-.724.152 1.165 1.165 0 0 1-.165.727.785.785 0 0 1 .6.302z" class="cls-47" data-name="Path 3807" transform="translate(21.692 -136.571)"/>
                    </g>
                    <g id="Group_3530" data-name="Group 3530" transform="translate(24.772 9.295)">
                        <path id="Path_3808" d="M-64.309 37.8a7.788 7.788 0 0 0 .645-2.639 3.125 3.125 0 0 0-1.617.339 2.6 2.6 0 0 1-.368 1.624 1.749 1.749 0 0 1 1.34.676z" class="cls-48" data-name="Path 3808" transform="translate(65.649 -35.157)"/>
                    </g>
                    <g id="Group_3531" data-name="Group 3531" transform="translate(54.355 87.349)">
                        <path id="Path_3809" d="M-6.383 189.005a1.4 1.4 0 0 1-.956.289 4.865 4.865 0 0 0 .888 1.343 2.234 2.234 0 0 0 .759-.588 2.827 2.827 0 0 1-.691-1.044z" class="cls-49" data-name="Path 3809" transform="translate(7.339 -189.005)"/>
                    </g>
                    <g id="Group_3532" data-name="Group 3532" transform="translate(51.583 14.924)">
                        <path id="Path_3810" d="M-12.593 46.252a4.373 4.373 0 0 0-.084 2.338 2.135 2.135 0 0 0 1.418.025 3.994 3.994 0 0 1 .1-2.3 1.492 1.492 0 0 1-1.434-.063z" class="cls-50" data-name="Path 3810" transform="translate(12.802 -46.252)"/>
                    </g>
                    <g id="Group_3533" data-name="Group 3533" transform="translate(60.634 69.835)">
                        <path id="Path_3811" d="M5.281 154.485a1.917 1.917 0 0 1-.244 1.1.522.522 0 0 1 .352.229 2.3 2.3 0 0 0 .377-1.194.958.958 0 0 0-.485-.135z" class="cls-51" data-name="Path 3811" transform="translate(-5.037 -154.485)"/>
                    </g>
                    <g id="Group_3534" data-name="Group 3534" transform="translate(58.554 107.756)">
                        <path id="Path_3812" d="M1.011 229.338a.636.636 0 0 0 .024.635.964.964 0 0 0 .628-.024 1.44 1.44 0 0 1 .348-.72 2.5 2.5 0 0 1-1 .109z" class="cls-52" data-name="Path 3812" transform="translate(-.938 -229.229)"/>
                    </g>
                    <g id="Group_3535" data-name="Group 3535" transform="translate(70.031 36.047)">
                        <path id="Path_3813" d="M23.732 90.455a1.076 1.076 0 0 1 .9.058 8.67 8.67 0 0 0 .032-2.5 2.055 2.055 0 0 0-1.1-.09 4.938 4.938 0 0 1 .168 2.532z" class="cls-53" data-name="Path 3813" transform="translate(-23.559 -87.886)"/>
                    </g>
                    <g id="Group_3536" data-name="Group 3536" transform="translate(30.732 23.215)">
                        <path id="Path_3814" d="M-53.022 62.593a1.552 1.552 0 0 0-.835.509 2.305 2.305 0 0 1-.043.706c.2-.12.358-.091.65.063a4.019 4.019 0 0 1 .228-1.278z" class="cls-54" data-name="Path 3814" transform="translate(53.9 -62.593)"/>
                    </g>
                    <g id="Group_3537" data-name="Group 3537" transform="translate(31.611)">
                        <path id="Path_3815" d="M-49.279 16.975c-.6.3-1.313.345-2.854-.139a3.4 3.4 0 0 0 .39 2.1 6.059 6.059 0 0 0 3.058-.1 3.112 3.112 0 0 1-.594-1.861z" class="cls-55" data-name="Path 3815" transform="translate(52.168 -16.836)"/>
                    </g>
                    <g id="Group_3538" data-name="Group 3538" transform="translate(13.7 49.402)">
                        <path id="Path_3816" d="M-87.094 115.256a1.513 1.513 0 0 1 .226-.855.409.409 0 0 1-.269-.191 1.807 1.807 0 0 0-.334.927.762.762 0 0 0 .377.119z" class="cls-56" data-name="Path 3816" transform="translate(87.471 -114.21)"/>
                    </g>
                    <g id="Group_3539" data-name="Group 3539" transform="translate(17.691 40.099)">
                        <path id="Path_3817" d="M-78.977 98.257a1.014 1.014 0 0 0 .693-.181 6.365 6.365 0 0 1-.647-2.2 1.038 1.038 0 0 1-.674.073 5.657 5.657 0 0 0 .628 2.308z" class="cls-57" data-name="Path 3817" transform="translate(79.606 -95.873)"/>
                    </g>
                    <g id="Group_3540" data-name="Group 3540" transform="translate(6.702 59.936)">
                        <path id="Path_3818" d="M-101.266 135.3a1.517 1.517 0 0 0 .8.527 2.263 2.263 0 0 1 .642-.256c-.189-.127-.229-.279-.215-.6a3.93 3.93 0 0 1-1.227.329z" class="cls-58" data-name="Path 3818" transform="translate(101.266 -134.972)"/>
                    </g>
                    <g id="Group_3541" data-name="Group 3541" transform="translate(40.397 28.553)">
                        <path id="Path_3819" d="M-32.415 73.294a2.2 2.2 0 0 0-1.858.057 13.51 13.51 0 0 1-.577 3.141 2.01 2.01 0 0 1 1.016.156 12.061 12.061 0 0 1 1.419-3.354z" class="cls-59" data-name="Path 3819" transform="translate(34.85 -73.116)"/>
                    </g>
                    <g id="Group_3542" data-name="Group 3542" transform="translate(17.25 54.367)">
                        <path id="Path_3820" d="M-79.37 124a3.853 3.853 0 0 0-1.1 1.74 1.878 1.878 0 0 0 1.066.649 3.517 3.517 0 0 1 1.1-1.7A1.314 1.314 0 0 1-79.37 124z" class="cls-60" data-name="Path 3820" transform="translate(80.474 -123.995)"/>
                    </g>
                    <g id="Group_3543" data-name="Group 3543" transform="translate(54.633 60.439)">
                        <path id="Path_3821" d="M-4.585 139.212a3.7 3.7 0 0 0 1.6-1.767A3.979 3.979 0 0 1-5 135.964a5.63 5.63 0 0 0-1.789 1.43 7.445 7.445 0 0 1 2.204 1.818z" class="cls-61" data-name="Path 3821" transform="translate(6.791 -135.964)"/>
                    </g>
                    <g id="Group_3544" data-name="Group 3544" transform="translate(34.365 72.805)">
                        <path id="Path_3822" d="M-46.368 161.674a4.287 4.287 0 0 0 1.149-.956 1.713 1.713 0 0 0-.826-.379 1.428 1.428 0 0 1-.694.6.964.964 0 0 1 .371.735z" class="cls-62" data-name="Path 3822" transform="translate(46.739 -160.339)"/>
                    </g>
                    <g id="Group_3545" data-name="Group 3545" transform="translate(9.355 83.938)">
                        <path id="Path_3823" d="M-96.011 183.125a1.091 1.091 0 0 0 .7.011 1.172 1.172 0 0 1-.062-.735 1.658 1.658 0 0 0-.665-.119 2.2 2.2 0 0 1 .027.843z" class="cls-63" data-name="Path 3823" transform="translate(96.036 -182.282)"/>
                    </g>
                    <g id="Group_3546" data-name="Group 3546" transform="translate(47.81 41.087)">
                        <path id="Path_3824" d="M-20.24 98.451a2.438 2.438 0 0 1 0 1.741 8.482 8.482 0 0 0 2.688-.809 3.892 3.892 0 0 0-.6-1.562 4.926 4.926 0 0 1-2.088.63z" class="cls-64" data-name="Path 3824" transform="translate(20.24 -97.821)"/>
                    </g>
                    <g id="Group_3547" data-name="Group 3547" transform="translate(25.281 34.41)">
                        <path id="Path_3825" d="M-64.6 85.756a1.936 1.936 0 0 0 .563 1.851 2.922 2.922 0 0 0 1.832-.556 4.4 4.4 0 0 1 .469-2.392 7.632 7.632 0 0 1-2.864 1.097z" class="cls-65" data-name="Path 3825" transform="translate(64.645 -84.66)"/>
                    </g>
                    <g id="Group_3548" data-name="Group 3548" transform="translate(74.596 98.506)">
                        <path id="Path_3826" d="M33.833 211c-.535.114-.822.434-1.276.973a14.261 14.261 0 0 1 3.238 4 2.336 2.336 0 0 1 1.333-.731A12.688 12.688 0 0 0 33.833 211z" class="cls-66" data-name="Path 3826" transform="translate(-32.557 -210.996)"/>
                    </g>
                    <g id="Group_3549" data-name="Group 3549" transform="translate(3.542 36.693)">
                        <path id="Path_3827" d="M-106.237 92.516a4.887 4.887 0 0 1 .444-2.83 1.331 1.331 0 0 1-.93-.526 5.852 5.852 0 0 0-.77 3.1 2.446 2.446 0 0 0 1.256.256z" class="cls-67" data-name="Path 3827" transform="translate(107.493 -89.16)"/>
                    </g>
                    <g id="Group_3550" data-name="Group 3550" transform="translate(17.385 79.712)">
                        <path id="Path_3828" d="M-79.4 173.952a3.011 3.011 0 0 1-.813.985 9.351 9.351 0 0 1 2.221 1.23 1.694 1.694 0 0 0 .883-.86 11.1 11.1 0 0 0-2.291-1.355z" class="cls-68" data-name="Path 3828" transform="translate(80.208 -173.952)"/>
                    </g>
                    <g id="Group_3551" data-name="Group 3551" transform="translate(44.64 1.117)">
                        <path id="Path_3829" d="M-26.488 20.437a1.171 1.171 0 0 1 .379.9 9.447 9.447 0 0 0 2.447-1.185 2.236 2.236 0 0 0-.448-1.115 5.382 5.382 0 0 1-2.378 1.4z" class="cls-69" data-name="Path 3829" transform="translate(26.488 -19.038)"/>
                    </g>
                    <g id="Group_3552" data-name="Group 3552" transform="translate(53.628 101.719)">
                        <path id="Path_3830" d="M-5.791 218.062a1.581 1.581 0 0 1-1.1-.734 12.756 12.756 0 0 0-1.881 3.16 3.022 3.022 0 0 0 1.336.925 7.274 7.274 0 0 1 1.645-3.351z" class="cls-70" data-name="Path 3830" transform="translate(8.771 -217.328)"/>
                    </g>
                    <g id="Group_3553" data-name="Group 3553" transform="translate(41.96 83.445)">
                        <path id="Path_3831" d="M-31.769 182.279c.416.545.607 1.263.421 2.922a3.512 3.512 0 0 0 2.057-.809 6.258 6.258 0 0 0-.7-3.082 3.211 3.211 0 0 1-1.778.969z" class="cls-71" data-name="Path 3831" transform="translate(31.769 -181.31)"/>
                    </g>
                    <g id="Group_3554" data-name="Group 3554" transform="translate(50.548 68.501)">
                        <path id="Path_3832" d="M-12.477 153.238a1.484 1.484 0 0 0-.185-1.243 9.157 9.157 0 0 1-2.155-.141 1.363 1.363 0 0 1-.025.695 8.178 8.178 0 0 1 2.365.689z" class="cls-72" data-name="Path 3832" transform="translate(14.842 -151.854)"/>
                    </g>
                    <g id="Group_3555" data-name="Group 3555" transform="translate(60.669 53.479)">
                        <path id="Path_3833" d="M6.495 123.012a1.569 1.569 0 0 0-.657-.767 1.688 1.688 0 0 1-.732.767 2.384 2.384 0 0 0 .5.83 3.155 3.155 0 0 1 .889-.83z" class="cls-73" data-name="Path 3833" transform="translate(-5.106 -122.245)"/>
                    </g>
                    <g id="Group_3556" data-name="Group 3556" transform="translate(77.797 80.207)">
                        <path id="Path_3834" d="M39.609 174.927a1.63 1.63 0 0 0-.743 1.163 10.026 10.026 0 0 1 1.684 1.669 1.5 1.5 0 0 1 .521-.558 8.964 8.964 0 0 1-1.462-2.274z" class="cls-74" data-name="Path 3834" transform="translate(-38.866 -174.927)"/>
                    </g>
                    <g id="Group_3557" data-name="Group 3557" transform="translate(86.217 58.512)">
                        <path id="Path_3835" d="M56.69 134.917a2.859 2.859 0 0 0 .547-1.718 4.253 4.253 0 0 1-.792-1.034c-.133.408-.388.558-.982.7a7.4 7.4 0 0 1 1.227 2.052z" class="cls-75" data-name="Path 3835" transform="translate(-55.463 -132.165)"/>
                    </g>
                    <g id="Group_3558" data-name="Group 3558" transform="translate(56.786 32.631)">
                        <path id="Path_3836" d="M1.114 81.667a2.575 2.575 0 0 0-2.137-.447 15.9 15.9 0 0 1-1.525 3.427 2.365 2.365 0 0 1 1.117.458 14.17 14.17 0 0 1 2.545-3.438z" class="cls-76" data-name="Path 3836" transform="translate(2.548 -81.154)"/>
                    </g>
                    <g id="Group_3559" data-name="Group 3559" transform="translate(55.621 21.752)">
                        <path id="Path_3837" d="M-4.844 61.6a3.089 3.089 0 0 0 1.948.054 4.577 4.577 0 0 1 .836-1.133c-.463-.016-.7-.236-1.018-.811a7.985 7.985 0 0 1-1.766 1.89z" class="cls-77" data-name="Path 3837" transform="translate(4.844 -59.711)"/>
                    </g>
                    <g id="Group_3560" data-name="Group 3560" transform="translate(13.525 87.255)">
                        <path id="Path_3838" d="M-86.014 188.82a7.24 7.24 0 0 1-1.8 2.188 2.318 2.318 0 0 0 1.214.845 9.591 9.591 0 0 0 1.994-2.122c-.794-.131-1.177-.326-1.408-.911z" class="cls-78" data-name="Path 3838" transform="translate(87.816 -188.82)"/>
                    </g>
                    <g id="Group_3561" data-name="Group 3561" transform="translate(29.399 62.05)">
                        <path id="Path_3839" d="M-55.8 140.56a4.146 4.146 0 0 0 .286-1.421 1.668 1.668 0 0 0-.854.216 1.384 1.384 0 0 1-.16.873.932.932 0 0 1 .728.332z" class="cls-79" data-name="Path 3839" transform="translate(56.529 -139.139)"/>
                    </g>
                    <g id="Group_3562" data-name="Group 3562" transform="translate(46.005 101.23)">
                        <path id="Path_3840" d="M-20.787 218.551a9.425 9.425 0 0 0-2.457-2.185 3.784 3.784 0 0 0-.553 1.921 3.146 3.146 0 0 1 1.528 1.313 2.116 2.116 0 0 1 1.482-1.049z" class="cls-80" data-name="Path 3840" transform="translate(23.797 -216.366)"/>
                    </g>
                    <g id="Group_3563" data-name="Group 3563" transform="translate(22.096 83.591)">
                        <path id="Path_3841" d="M-69.8 181.966a.464.464 0 0 1-.117-.368 3.744 3.744 0 0 0-1.007.378.883.883 0 0 0 .136.456 2.125 2.125 0 0 1 .988-.466z" class="cls-81" data-name="Path 3841" transform="translate(70.923 -181.598)"/>
                    </g>
                    <g id="Group_3564" data-name="Group 3564" transform="translate(71.594 79.102)">
                        <path id="Path_3842" d="M29.071 172.749a7.362 7.362 0 0 0-2.43.83 2.949 2.949 0 0 0 1.094 1.115 2.451 2.451 0 0 1 1.48-.533 1.65 1.65 0 0 1-.144-1.412z" class="cls-82" data-name="Path 3842" transform="translate(-26.641 -172.749)"/>
                    </g>
                    <g id="Group_3565" data-name="Group 3565" transform="translate(5.645 19.837)">
                        <path id="Path_3843" d="M-100.493 56.755a1.271 1.271 0 0 1-.675-.819 10.257 10.257 0 0 0-2.18 1.994 2.428 2.428 0 0 0 .813 1.022 5.85 5.85 0 0 1 2.042-2.197z" class="cls-83" data-name="Path 3843" transform="translate(103.348 -55.936)"/>
                    </g>
                    <g id="Group_3566" data-name="Group 3566" transform="translate(36.068 52.661)">
                        <path id="Path_3844" d="M-43.23 120.634a.772.772 0 0 0-.094.767 1.171 1.171 0 0 0 .758.093 1.753 1.753 0 0 1 .558-.8 3.045 3.045 0 0 1-1.222-.06z" class="cls-84" data-name="Path 3844" transform="translate(43.383 -120.634)"/>
                    </g>
                    <g id="Group_3567" data-name="Group 3567" transform="translate(3.018 62.891)">
                        <path id="Path_3845" d="M-108.527 140.8a2.612 2.612 0 0 0 .776 1.455 3.914 3.914 0 0 1 1.183.141c-.182-.347-.118-.61.17-1.088a6.79 6.79 0 0 1-2.129-.508z" class="cls-85" data-name="Path 3845" transform="translate(108.527 -140.798)"/>
                    </g>
                    <g id="Group_3568" data-name="Group 3568" transform="translate(28.444 98.271)">
                        <path id="Path_3846" d="M-55.728 211.252a1.179 1.179 0 0 0-.417-.719 7.378 7.378 0 0 1-2.266 1.4 1.214 1.214 0 0 1 .289.733 6.576 6.576 0 0 0 2.394-1.414z" class="cls-86" data-name="Path 3846" transform="translate(58.411 -210.533)"/>
                    </g>
                    <g id="Group_3569" data-name="Group 3569" transform="translate(60.147 52.701)">
                        <path id="Path_3847" d="M4.078 121.143a1.658 1.658 0 0 0 .312 1.022 1.781 1.781 0 0 1 1.034-.433 2.52 2.52 0 0 0-.138-1.019 3.335 3.335 0 0 1-1.208.43z" class="cls-87" data-name="Path 3847" transform="translate(-4.078 -120.713)"/>
                    </g>
                </g>
                <g id="Group_3571" data-name="Group 3571" transform="translate(31.484 80.908)">
                    <path id="Path_3848" d="M15.429 178.759l-1.473.646s-1.682-2.292-3.445-2.442a1.935 1.935 0 0 0-.867.119l1.473-.647c2.034-.781 4.312 2.324 4.312 2.324z" class="cls-88" data-name="Path 3848" transform="translate(21.843 -176.31)"/>
                    <path id="Path_3849" d="M-30.18 200.107a2.56 2.56 0 0 1-.763.163c1.825-1.853 2.092-7.482 5.847-9.28.051-.024.1-.049.156-.072.036-.016.072-.03.107-.044a2.4 2.4 0 0 1 .525-.138c-3.433 2.333-3.5 8.225-5.74 9.313-.042.02-.087.04-.132.058z" class="cls-89" data-name="Path 3849" transform="translate(41.838 -183.417)"/>
                    <path id="Path_3850" d="M2.927 187.167a2.772 2.772 0 0 1-.849.223c2.147-2.043 1.973-8.778 3.766-9.647a.722.722 0 0 1 .071-.031 1.935 1.935 0 0 1 .867-.119c-1.372 1.998-1.327 8.464-3.855 9.574z" class="cls-90" data-name="Path 3850" transform="translate(25.57 -176.938)"/>
                    <path id="Path_3851" d="M-40.76 207.525l-1.469.645c-2.466.984-7.608-2.6-10.189-1.527l1.473-.646c2.337-.977 6.773 1.873 9.422 1.691a2.559 2.559 0 0 0 .763-.163z" class="cls-91" data-name="Path 3851" transform="translate(52.418 -190.834)"/>
                    <path id="Path_3852" d="M-7.406 192.994l-1.472.646c-3.22 1.413-6.465-3.993-9.493-3.557a2.4 2.4 0 0 0-.525.138l1.473-.647c2.914-1.123 6.043 3.946 9.169 3.642a2.772 2.772 0 0 0 .848-.222z" class="cls-92" data-name="Path 3852" transform="translate(35.904 -182.764)"/>
                </g>
                <g id="Group_3572" data-name="Group 3572" transform="translate(20.003 81.645)">
                    <path id="Path_3853" d="M-67.148 193.991c-1.741 1.194-5.737-1.531-7.9-.744l.947-.8c2-.728 5.561 1.541 7.465.951a1.621 1.621 0 0 0 .382-.171l-.655.559z" class="cls-93" data-name="Path 3853" transform="translate(75.049 -184.927)"/>
                    <path id="Path_3854" d="M-58.573 185.064A5.9 5.9 0 0 1-61 182.993c-.307-.46-.36-.737-.256-.853.331-.376 2.287.882 2.683 2.924z" class="cls-94" data-name="Path 3854" transform="translate(68.28 -179.887)"/>
                    <path id="Path_3855" d="M-52.416 180.044a5.238 5.238 0 0 1-1.866-1.715c-.194-.315-.229-.49-.162-.546.216-.177 1.468.827 2.028 2.261z" class="cls-95" data-name="Path 3855" transform="translate(64.913 -177.763)"/>
                    <path id="Path_3856" d="M-51.614 185.9l-.052.044a1.387 1.387 0 0 1-.25.156 1.465 1.465 0 0 1-.287.106 2.093 2.093 0 0 0 .164-.6 3.615 3.615 0 0 0-.246-1.769 5.658 5.658 0 0 0 1.219.522 3.2 3.2 0 0 1-.025.45 1.922 1.922 0 0 1-.262.789 1.379 1.379 0 0 1-.261.302z" class="cls-96" data-name="Path 3856" transform="translate(63.834 -180.753)"/>
                    <path id="Path_3857" d="M-44.7 181.3a1.309 1.309 0 0 1-.607.272 2.337 2.337 0 0 0-.01-1.2l.948-.8a1.654 1.654 0 0 1-.331 1.728z" class="cls-97" data-name="Path 3857" transform="translate(60.403 -178.658)"/>
                    <path id="Path_3858" d="M-58.086 191.868a1.622 1.622 0 0 1-.382.171c.029-.053.055-.11.08-.169a3.976 3.976 0 0 0 .266-2.33 3.959 3.959 0 0 0 1 .3 4.194 4.194 0 0 1-.317 1.228 1.844 1.844 0 0 1-.309.508 1.487 1.487 0 0 1-.338.292z" class="cls-98" data-name="Path 3858" transform="translate(66.88 -183.565)"/>
                    <path id="Path_3859" d="M-50.135 180.429l-.948.8a2.19 2.19 0 0 1-1.983.156 5.659 5.659 0 0 1-1.219-.522 5.246 5.246 0 0 1-1.866-1.714c-.194-.317-.229-.491-.161-.547l.947-.8c-.067.057-.032.231.162.546a5.238 5.238 0 0 0 1.866 1.715 4.145 4.145 0 0 0 2.595.637 1.309 1.309 0 0 0 .607-.271z" class="cls-99" data-name="Path 3859" transform="translate(65.834 -177.783)"/>
                    <path id="Path_3860" d="M-57.032 185.142l-.961.809a1.871 1.871 0 0 1-1.45.28 3.96 3.96 0 0 1-1-.3 5.9 5.9 0 0 1-2.431-2.071c-.306-.461-.36-.737-.256-.853l.948-.8c-.1.117-.051.393.256.853a5.9 5.9 0 0 0 2.431 2.071 3.014 3.014 0 0 0 1.925.275 1.466 1.466 0 0 0 .287-.106 1.388 1.388 0 0 0 .251-.158z" class="cls-100" data-name="Path 3860" transform="translate(69.2 -179.951)"/>
                </g>
                <g id="Group_3573" data-name="Group 3573" transform="translate(29.642 17.14)">
                    <path id="Path_3861" d="M-48.622 71.023c-1.042 1.836-5.827 1.139-7.428 2.8l.5-1.132c1.478-1.531 5.674-1.053 7.126-2.419a1.63 1.63 0 0 0 .268-.322l-.344.789z" class="cls-101" data-name="Path 3861" transform="translate(56.05 -60.141)"/>
                    <path id="Path_3862" d="M-45.167 62.006a5.9 5.9 0 0 1-3.093-.8c-.477-.28-.646-.5-.6-.655.133-.48 2.442-.207 3.693 1.455z" class="cls-102" data-name="Path 3862" transform="translate(52.512 -55.408)"/>
                    <path id="Path_3863" d="M-41.868 54.893a5.243 5.243 0 0 1-2.429-.722c-.312-.2-.421-.34-.385-.42.116-.251 1.682.098 2.814 1.142z" class="cls-103" data-name="Path 3863" transform="translate(50.452 -52.122)"/>
                    <path id="Path_3864" d="M-38.611 59.814l-.027.062a1.346 1.346 0 0 1-.156.251 1.466 1.466 0 0 1-.211.221 2.084 2.084 0 0 0-.118-.615 3.61 3.61 0 0 0-1-1.482 5.692 5.692 0 0 0 1.324-.065 3.111 3.111 0 0 1 .175.415 1.926 1.926 0 0 1 .111.824 1.392 1.392 0 0 1-.098.389z" class="cls-104" data-name="Path 3864" transform="translate(48.202 -54.346)"/>
                    <path id="Path_3865" d="M-34.073 52.309v.005a1.31 1.31 0 0 1-.426.511 2.337 2.337 0 0 0-.534-1.074l.5-1.132a1.653 1.653 0 0 1 .46 1.69z" class="cls-105" data-name="Path 3865" transform="translate(45.697 -50.619)"/>
                    <path id="Path_3866" d="M-41.508 67.771a1.63 1.63 0 0 1-.268.322v-.187a3.974 3.974 0 0 0-.782-2.211 3.943 3.943 0 0 0 1.031-.164 4.214 4.214 0 0 1 .254 1.242 1.835 1.835 0 0 1-.055.592 1.474 1.474 0 0 1-.18.406z" class="cls-106" data-name="Path 3866" transform="translate(49.405 -57.965)"/>
                    <path id="Path_3867" d="M-39.319 53.895l-.5 1.133a2.19 2.19 0 0 1-1.714 1.01 5.692 5.692 0 0 1-1.324.065 5.243 5.243 0 0 1-2.429-.722c-.314-.2-.422-.341-.385-.422l.5-1.131c-.036.08.073.221.385.42a5.243 5.243 0 0 0 2.429.722 4.139 4.139 0 0 0 2.611-.565 1.31 1.31 0 0 0 .427-.51z" class="cls-107" data-name="Path 3867" transform="translate(50.941 -52.2)"/>
                    <path id="Path_3868" d="M-43.436 61.147l-.509 1.149a1.871 1.871 0 0 1-1.18.887 3.944 3.944 0 0 1-1.031.164 5.9 5.9 0 0 1-3.093-.8c-.477-.279-.646-.5-.6-.654l.5-1.133c-.043.151.126.375.6.655a5.9 5.9 0 0 0 3.093.8 3.017 3.017 0 0 0 1.851-.6 1.466 1.466 0 0 0 .211-.221 1.345 1.345 0 0 0 .158-.247z" class="cls-108" data-name="Path 3868" transform="translate(53 -55.617)"/>
                </g>
                <g id="Group_3574" data-name="Group 3574" transform="translate(85.928 69.662)">
                    <path id="Path_3869" d="M61.883 164.6c-2.068.423-4.689-3.641-6.99-3.758l1.183-.366c2.125.107 4.523 3.582 6.507 3.78a1.624 1.624 0 0 0 .419-.01l-.821.26z" class="cls-109" data-name="Path 3869" transform="translate(-54.893 -157.262)"/>
                    <path id="Path_3870" d="M73.485 159.282a5.9 5.9 0 0 1-1.434-2.853c-.1-.543-.045-.819.1-.885.449-.216 1.763 1.703 1.334 3.738z" class="cls-110" data-name="Path 3870" transform="translate(-63.32 -154.825)"/>
                    <path id="Path_3871" d="M81.168 157.018a5.252 5.252 0 0 1-1.052-2.305c-.055-.366-.02-.54.064-.566.267-.081 1.03 1.332.988 2.871z" class="cls-111" data-name="Path 3871" transform="translate(-67.306 -154.143)"/>
                    <path id="Path_3872" d="M78.874 162.7l-.065.02a1.378 1.378 0 0 1-.291.047 1.478 1.478 0 0 1-.305-.014 2.066 2.066 0 0 0 .386-.493 3.606 3.606 0 0 0 .462-1.725 5.685 5.685 0 0 0 .92.954 3.231 3.231 0 0 1-.2.4 1.94 1.94 0 0 1-.549.626 1.382 1.382 0 0 1-.358.185z" class="cls-112" data-name="Path 3872" transform="translate(-66.381 -157.29)"/>
                    <path id="Path_3873" d="M87.11 161.508h-.006a1.311 1.311 0 0 1-.665.015 2.337 2.337 0 0 0 .458-1.108l1.184-.366c-.158.867-.517 1.316-.971 1.459z" class="cls-113" data-name="Path 3873" transform="translate(-70.434 -157.053)"/>
                    <path id="Path_3874" d="M70.47 165.809a1.625 1.625 0 0 1-.419.01c.047-.039.093-.08.14-.125a3.975 3.975 0 0 0 1.151-2.043 3.956 3.956 0 0 0 .8.669 4.214 4.214 0 0 1-.77 1.008 1.838 1.838 0 0 1-.482.348 1.479 1.479 0 0 1-.42.133z" class="cls-114" data-name="Path 3874" transform="translate(-62.361 -158.827)"/>
                    <path id="Path_3875" d="M82.826 158.6l-1.185.366a2.19 2.19 0 0 1-1.887-.627 5.686 5.686 0 0 1-.92-.954 5.246 5.246 0 0 1-1.052-2.305c-.056-.368-.02-.542.065-.567l1.183-.366c-.084.026-.119.2-.064.566a5.252 5.252 0 0 0 1.052 2.305 4.146 4.146 0 0 0 2.143 1.6 1.311 1.311 0 0 0 .665-.018z" class="cls-115" data-name="Path 3875" transform="translate(-66.157 -154.146)"/>
                    <path id="Path_3876" d="M74.6 160.268l-1.2.371a1.869 1.869 0 0 1-1.444-.305 3.956 3.956 0 0 1-.8-.669 5.9 5.9 0 0 1-1.434-2.853c-.1-.543-.045-.819.1-.885L71 155.56c-.142.066-.2.342-.1.885a5.9 5.9 0 0 0 1.434 2.853 3.017 3.017 0 0 0 1.666 1 1.479 1.479 0 0 0 .305.014 1.379 1.379 0 0 0 .295-.044z" class="cls-116" data-name="Path 3876" transform="translate(-62.171 -154.841)"/>
                </g>
                <g id="Group_3576" data-name="Group 3576" transform="translate(6.677 59.053)">
                    <path id="Path_3877" d="M-95.037 173.656l-.563 2.013c-.222.794-4.955-1.1-5.715.851l.488-1.745c.271-1.509 2.432-1.222 4.036-1.02.928.117 1.67.204 1.754-.099z" class="cls-117" data-name="Path 3877" transform="translate(101.315 -153.115)"/>
                    <path id="Path_3878" d="M-92.9 169.282c-.085.3-.826.216-1.754.1-1.1-1.334-2.524-2.981-2.3-3.913a.773.773 0 0 1 .03-.1 1.256 1.256 0 0 1 .852-.658c.919 1.689 3.354 3.927 3.172 4.571z" class="cls-118" data-name="Path 3878" transform="translate(99.177 -148.741)"/>
                    <path id="Path_3879" d="M-91.031 157.568l-.563 2.013c-.376 1.343-3 1.133-4.425 1.612a1.256 1.256 0 0 0-.852.658l.562-2.007c.418-1.118 3.216-.795 4.578-1.5a1.268 1.268 0 0 0 .7-.776z" class="cls-119" data-name="Path 3879" transform="translate(99.125 -145.221)"/>
                    <g id="Group_3575" data-name="Group 3575" transform="translate(5.379)">
                        <path id="Path_3880" d="M-88 151.04a1.268 1.268 0 0 1-.7.777c-.59-1.414-2.324-3.036-1.968-5.715a5.92 5.92 0 0 1 .173-.841 5.479 5.479 0 0 1 .365-.944c-.299 3.327 2.619 4.983 2.13 6.723z" class="cls-120" data-name="Path 3880" transform="translate(90.712 -138.693)"/>
                        <path id="Path_3881" d="M-83.853 133.232l-.563 2.013s-3.964.535-5.5 3.611a5.479 5.479 0 0 0-.365.944l.564-2.017c1.117-3.911 5.864-4.551 5.864-4.551z" class="cls-121" data-name="Path 3881" transform="translate(90.498 -133.232)"/>
                    </g>
                </g>
                <g id="Group_3577" data-name="Group 3577" transform="translate(48.942 56.159)">
                    <path id="Path_3882" d="M55.869 135.847l-2.686.806a3.856 3.856 0 0 0 1.068-.594c2.253-1.744 3.091-5.839 5.251-7.725l2.686-.806c-2.47 2.158-3.212 7.204-6.319 8.319z" class="cls-122" data-name="Path 3882" transform="translate(-17.064 -127.529)"/>
                    <path id="Path_3883" d="M37.659 142.345a3.821 3.821 0 0 1-.691.1c-2.087.125-4.995-1.262-6.965-1.877a17.4 17.4 0 0 0-6.33-.877 11.973 11.973 0 0 0-1.258.147 11.252 11.252 0 0 1 1.314-.485l.018-.006a11.724 11.724 0 0 1 2.612-.463 17.4 17.4 0 0 1 6.331.877c1.8.562 4.381 1.767 6.405 1.877a3.857 3.857 0 0 1-1.068.594 3.49 3.49 0 0 1-.368.113z" class="cls-123" data-name="Path 3883" transform="translate(-1.905 -133.111)"/>
                    <path id="Path_3884" d="M-14.918 167.527a5.178 5.178 0 0 1-3.091-.074l2.685-.806a4.9 4.9 0 0 0 1.993.26 8.5 8.5 0 0 1-1.165.494 6.956 6.956 0 0 1-.422.126z" class="cls-124" data-name="Path 3884" transform="translate(18.009 -146.801)"/>
                    <path id="Path_3885" d="M-8.6 153.451h-.01l-2.476.74a8.5 8.5 0 0 0 1.165-.494c3.412-1.74 6.5-5.832 7.989-8.115a11.748 11.748 0 0 1 6.468-4.94l2.686-.806a11.255 11.255 0 0 0-1.314.484 11.917 11.917 0 0 0-5.152 4.46c-1.689 2.583-5.418 7.486-9.356 8.671z" class="cls-125" data-name="Path 3885" transform="translate(14.597 -133.594)"/>
                </g>
                <g id="Group_3578" data-name="Group 3578" transform="translate(49.391 31.408)">
                    <path id="Path_3886" d="M9.144 84.972l-1.285 1.285a2.706 2.706 0 0 0 .36-.541c.771-1.523.043-3.637-1.006-5.686L8.5 78.743c1.181 2.305 1.955 4.692.644 6.229z" class="cls-126" data-name="Path 3886" transform="translate(5.133 -78.743)"/>
                    <path id="Path_3887" d="M-14.178 106.341a1.463 1.463 0 0 1 .289-.566 2.885 2.885 0 0 1 .878-.662c1.164-.6 2.573-.384 3.6-.66a1.847 1.847 0 0 1-.378.759c-.895 1.029-2.835.411-4.389 1.129z" class="cls-127" data-name="Path 3887" transform="translate(15.672 -91.409)"/>
                    <path id="Path_3888" d="M1.186 94.232c-1.074.351-2.376.31-3.426.633a1.016 1.016 0 0 1 .248-.686 1.251 1.251 0 0 1 .148-.144 2.491 2.491 0 0 1 .5-.312c1.078-.532 2.6-.38 3.816-.776a5.467 5.467 0 0 0 1.088-.458 2.705 2.705 0 0 1-.36.541 4.17 4.17 0 0 1-2.014 1.202z" class="cls-128" data-name="Path 3888" transform="translate(9.791 -85.514)"/>
                    <path id="Path_3889" d="M-4.247 99.674l-1.286 1.286a1.847 1.847 0 0 0 .378-.759 3.779 3.779 0 0 0 .109-.856c.011-1.073-.349-1.73.119-2.253l.112-.108 1.2-1.161a1.016 1.016 0 0 0-.248.686c-.011.4.111.893.1 1.55a2.475 2.475 0 0 1-.484 1.615z" class="cls-129" data-name="Path 3889" transform="translate(11.413 -87.156)"/>
                    <path id="Path_3890" d="M-15.836 112.588l-1.287 1.287c.835-1.759.26-2.139.141-3.7-.056-1.052.021-1.6.635-2.1l1.007-1.012a1.462 1.462 0 0 0-.289.566 4.139 4.139 0 0 0-.066 1.257c.12 1.562.695 1.943-.141 3.702z" class="cls-130" data-name="Path 3890" transform="translate(17.123 -92.694)"/>
                </g>
                <g id="Group_3579" data-name="Group 3579" transform="translate(68.518 32.34)">
                    <path id="Path_3891" d="M84.625 85.438l-1.779.94c-1.687-1.591-6.571-5.256-9.736-4.822a2.981 2.981 0 0 0-1 .311l1.779-.94c3.025-1.596 8.859 2.741 10.736 4.511z" class="cls-131" data-name="Path 3891" transform="translate(-45.967 -80.58)"/>
                    <path id="Path_3892" d="M22.471 120.716l-1.779.94c-.44-3.03.408-4.782 1.946-5.532a4.087 4.087 0 0 1 .875-.3c-.941.933-1.386 2.521-1.042 4.892z" class="cls-132" data-name="Path 3892" transform="translate(-20.577 -97.941)"/>
                    <path id="Path_3893" d="M68.857 94.388l-.027.015a1.771 1.771 0 0 1-.953.18c2.42-3.192-.784-8.763 1.431-11.213a2.668 2.668 0 0 1 .719-.556 2.981 2.981 0 0 1 1-.311c-2.179 2.592 1.3 8.456-1.707 11.533a1.855 1.855 0 0 1-.463.352z" class="cls-133" data-name="Path 3893" transform="translate(-43.879 -81.527)"/>
                    <path id="Path_3894" d="M46.211 110.1a1.609 1.609 0 0 1-.824.041c.038-.068.076-.141.113-.217.822-1.769.085-4.547.907-6.315a2.624 2.624 0 0 1 1.021-1.272l.106-.056a1.781 1.781 0 0 1 .944-.155 3.92 3.92 0 0 0-.292.544c-.822 1.768-.086 4.547-.908 6.315a2.393 2.393 0 0 1-.7.924 1.334 1.334 0 0 1-.367.191z" class="cls-134" data-name="Path 3894" transform="translate(-32.8 -91.193)"/>
                    <path id="Path_3895" d="M29.972 115.275a8.191 8.191 0 0 0-4.446-.5 4.088 4.088 0 0 0-.875.3l1.421-.739.552-.287a7.339 7.339 0 0 1 5.127.28 28.337 28.337 0 0 0 3.421 1.519 1.609 1.609 0 0 0 .824-.041l-1.411.745c-1.185.878-2.805-.586-4.613-1.277z" class="cls-135" data-name="Path 3895" transform="translate(-22.583 -96.902)"/>
                    <path id="Path_3896" d="M59.834 103.156l-1.67.877-.194.1c-2.041.9-5.124-2.716-7.408-2.917a1.781 1.781 0 0 0-.944.155l1.669-.881c2.033-1.174 5.237 2.677 7.594 2.843a1.772 1.772 0 0 0 .953-.177z" class="cls-136" data-name="Path 3896" transform="translate(-34.884 -90.28)"/>
                </g>
                <g id="Group_3580" data-name="Group 3580" transform="translate(24.536 41.986)">
                    <path id="Path_3897" d="M-36.941 99.592l-1.327 2.028a29.773 29.773 0 0 1-7.634 4.441l-.079.034a2.3 2.3 0 0 0-1 .73l1.257-1.922a2.175 2.175 0 0 1 1.069-.836 29.893 29.893 0 0 0 7.714-4.475z" class="cls-137" data-name="Path 3897" transform="translate(56.688 -99.592)"/>
                    <path id="Path_3898" d="M-62.007 150.951l-1.274 1.944-.1.146c-.516.7-1.484.869-2.736 1.088l1.326-2.028a9.841 9.841 0 0 0 1.818-.426 1.952 1.952 0 0 0 .966-.724z" class="cls-138" data-name="Path 3898" transform="translate(66.113 -124.894)"/>
                    <path id="Path_3899" d="M-59.733 144.572a1.952 1.952 0 0 1-.962.724 7.972 7.972 0 0 0-.119-1.631c-.274-1.727-1.2-3.2-.3-4.651l.059-.091a4.046 4.046 0 0 1 .9-.921c-.145 1.131.45 2.309.661 3.635a4.157 4.157 0 0 1-.239 2.935z" class="cls-139" data-name="Path 3899" transform="translate(63.839 -118.515)"/>
                    <path id="Path_3900" d="M-49.942 125.663l-1.271 1.937-.117.179c-.811 1.1-2.942 1.689-5.1 2.487a12.729 12.729 0 0 0-3.288 1.657 4.047 4.047 0 0 0-.9.921l1.334-2.039c.581-.848 1.809-1.689 4.183-2.568a29.4 29.4 0 0 0 4.057-1.623 3.216 3.216 0 0 0 1.102-.951z" class="cls-140" data-name="Path 3900" transform="translate(63.405 -112.436)"/>
                    <path id="Path_3901" d="M-43.49 119.091l-.006.009a3.216 3.216 0 0 1-1.1.951c-.356-1.933-3.808-5.033-2.726-6.839l.07-.107a2.3 2.3 0 0 1 1-.73l.079-.034c.344 2.057 3.355 4.827 2.882 6.33a1.718 1.718 0 0 1-.199.42z" class="cls-141" data-name="Path 3901" transform="translate(56.958 -105.873)"/>
                </g>
                <g id="Group_3581" data-name="Group 3581" transform="translate(57.571 91.201)">
                    <path id="Path_3902" d="M69.668 201.458l-2.945.143a36.226 36.226 0 0 1-9.827-4.344l-.09-.054a2.794 2.794 0 0 0-1.434-.463l2.79-.135a2.648 2.648 0 0 1 1.587.456 36.361 36.361 0 0 0 9.919 4.397z" class="cls-142" data-name="Path 3902" transform="translate(-26.772 -196.597)"/>
                    <path id="Path_3903" d="M5.063 210.658l-2.824.133-.213.01c-1.062 0-1.915-.84-3.026-1.916l2.944-.143a11.917 11.917 0 0 0 1.718 1.485 2.378 2.378 0 0 0 1.401.431z" class="cls-143" data-name="Path 3903" transform="translate(1 -202.581)"/>
                    <path id="Path_3904" d="M9.591 207.338a2.378 2.378 0 0 1-1.4-.43 9.678 9.678 0 0 0 1.522-1.282c1.5-1.5 2.294-3.469 4.368-3.614l.132-.006a4.888 4.888 0 0 1 1.551.231c-1.218.665-1.952 2.093-3.106 3.247-1.293 1.29-2.245 1.816-3.067 1.854z" class="cls-144" data-name="Path 3904" transform="translate(-3.528 -199.261)"/>
                    <path id="Path_3905" d="M34.756 207.246l-2.815.132-.26.013c-1.662-.013-3.766-1.69-6.09-3.241a15.475 15.475 0 0 0-3.981-2.05 4.886 4.886 0 0 0-1.551-.231l2.96-.144c1.25-.034 2.956.575 5.517 2.285a35.688 35.688 0 0 0 4.5 2.835 3.91 3.91 0 0 0 1.72.401z" class="cls-145" data-name="Path 3905" transform="translate(-9.375 -199.122)"/>
                    <path id="Path_3906" d="M47.369 204.859h-.013a3.91 3.91 0 0 1-1.722-.4c1.65-1.731 2.235-7.345 4.787-7.571l.155-.008a2.8 2.8 0 0 1 1.434.463l.09.054c-1.779 1.809-2.356 6.752-4.174 7.361a2.093 2.093 0 0 1-.557.101z" class="cls-146" data-name="Path 3906" transform="translate(-21.974 -196.736)"/>
                </g>
                <g id="Group_3589" data-name="Group 3589" transform="translate(9.415 12.741)">
                    <g id="Group_3582" data-name="Group 3582" transform="translate(3.066 4.73)">
                        <path id="Path_3907" d="M-89.715 51.273l-.154 1.673a2.228 2.228 0 0 0 .187 1.032c.526 1.351 3.666 1.811 5.125 3.053a2.4 2.4 0 0 1 .423.455 1.213 1.213 0 0 1 .239.818l.154-1.677a1.506 1.506 0 0 0-.662-1.268c-1.46-1.242-4.6-1.7-5.125-3.053a3.036 3.036 0 0 1-.064-.17 2.114 2.114 0 0 1-.123-.863z" class="cls-147" data-name="Path 3907" transform="translate(89.875 -51.273)"/>
                    </g>
                    <g id="Group_3583" data-name="Group 3583" transform="translate(1.358 37.256)">
                        <path id="Path_3908" d="M-93.087 116.13l-.154 1.673a2.141 2.141 0 0 0 .8-1.516v-.015a3.376 3.376 0 0 0-.053-.887 2.219 2.219 0 0 1-.593.745z" class="cls-148" data-name="Path 3908" transform="translate(93.241 -115.384)"/>
                    </g>
                    <g id="Group_3584" data-name="Group 3584" transform="translate(3.22)">
                        <path id="Path_3909" d="M-89.562 46.634v.046a2.114 2.114 0 0 0 .123.862c.86-1.371 3.446-2.109 4.486-3.919l.154-1.673c-1.22 2.119-4.556 2.768-4.763 4.684z" class="cls-149" data-name="Path 3909" transform="translate(89.571 -41.95)"/>
                    </g>
                    <g id="Group_3585" data-name="Group 3585" transform="translate(.273 24.749)">
                        <path id="Path_3910" d="M-95.379 95.835a3.741 3.741 0 0 0 .061.707c.669-1.371 2.751-1.56 4.177-2.745a3.406 3.406 0 0 0 1.274-2.138c.007-.054.012-.108.015-.162a2.71 2.71 0 0 0-.064-.765 3.941 3.941 0 0 1-1.071 1.393c-1.708 1.419-4.356 1.41-4.392 3.71z" class="cls-150" data-name="Path 3910" transform="translate(95.38 -90.732)"/>
                    </g>
                    <g id="Group_3586" data-name="Group 3586" transform="translate(.119 29.853)">
                        <path id="Path_3911" d="M-95.665 102.188v.01a3.522 3.522 0 0 0 .056 1.04c.234 1.293 1.6 3.241 1.915 4.957a3.376 3.376 0 0 1 .053.887l.154-1.676c.155-1.888-1.693-4.32-1.968-5.841l-.012-.067a3.741 3.741 0 0 1-.061-.707z" class="cls-151" data-name="Path 3911" transform="translate(95.683 -100.791)"/>
                    </g>
                    <g id="Group_3587" data-name="Group 3587" transform="translate(0 17.138)">
                        <path id="Path_3912" d="M-95.757 75.729L-95.9 77.3l-.016.181v.151c.086 1.419 1.886 1.91 2.912 2.546a5.283 5.283 0 0 1 2.822 3.157 2.711 2.711 0 0 1 .064.765l.154-1.673c.093-1.561-1.223-3.042-2.886-3.922-.874-.542-2.309-.979-2.769-1.973a1.582 1.582 0 0 1-.144-.573 1.664 1.664 0 0 1 .006-.23z" class="cls-152" data-name="Path 3912" transform="translate(95.918 -75.729)"/>
                    </g>
                    <g id="Group_3588" data-name="Group 3588" transform="translate(.154 10.942)">
                        <path id="Path_3913" d="M-95.605 69.681v.032a1.662 1.662 0 0 0-.005.236 1.582 1.582 0 0 0 .144.573 6.556 6.556 0 0 1 2.709-2.1c2-.946 5.884-2.424 6.038-4.091a1.213 1.213 0 0 0-.239-.818c-1.061 1.313-3.995 2.456-5.645 3.236-1.071.52-2.858 1.543-3.002 2.932z" class="cls-153" data-name="Path 3913" transform="translate(95.615 -63.518)"/>
                    </g>
                </g>
            </g>
        </g>
    </g>
</svg>
