<svg width="16" height="14" viewBox="0 0 16 14" fill="none" xmlns="http://www.w3.org/2000/svg">
<path d="M14.728 6.09398C14.728 7.82863 14.0389 9.49223 12.8123 10.7188C11.5858 11.9454 9.92215 12.6345 8.1875 12.6345C6.45285 12.6345 4.78925 11.9454 3.56267 10.7188C2.33609 9.49223 1.647 7.82863 1.647 6.09398C1.64175 5.98652 1.59536 5.88521 1.51746 5.81102C1.43955 5.73683 1.33608 5.69543 1.2285 5.69543C1.12092 5.69543 1.01746 5.73683 0.939552 5.81102C0.861644 5.88521 0.815252 5.98652 0.809998 6.09398C0.809998 8.05048 1.58722 9.92685 2.97067 11.3103C4.35413 12.6938 6.2305 13.471 8.187 13.471C10.1435 13.471 12.0199 12.6938 13.4033 11.3103C14.7868 9.92685 15.564 8.05048 15.564 6.09398C15.5587 5.98652 15.5124 5.88521 15.4345 5.81102C15.3565 5.73683 15.2531 5.69543 15.1455 5.69543C15.0379 5.69543 14.9345 5.73683 14.8566 5.81102C14.7786 5.88521 14.7323 5.98652 14.727 6.09398H14.728Z" fill="#333333"/>
<path d="M4.96603 4.09599C5.88558 4.09599 6.63103 3.35055 6.63103 2.43099C6.63103 1.51144 5.88558 0.765991 4.96603 0.765991C4.04647 0.765991 3.30103 1.51144 3.30103 2.43099C3.30103 3.35055 4.04647 4.09599 4.96603 4.09599Z" fill="#333333"/>
<path d="M11.261 4.09599C12.1806 4.09599 12.926 3.35055 12.926 2.43099C12.926 1.51144 12.1806 0.765991 11.261 0.765991C10.3415 0.765991 9.59601 1.51144 9.59601 2.43099C9.59601 3.35055 10.3415 4.09599 11.261 4.09599Z" fill="#333333"/>
</svg>
