<svg width="15" height="14" viewBox="0 0 15 14" fill="none" xmlns="http://www.w3.org/2000/svg">
<path d="M7.84599 0.429004L9.45999 3.699C9.5153 3.81094 9.59699 3.90775 9.69803 3.9811C9.79907 4.05444 9.91643 4.10211 10.04 4.12L13.649 4.644C13.7913 4.66454 13.9251 4.72452 14.0351 4.81716C14.145 4.90979 14.2269 5.03138 14.2713 5.16814C14.3158 5.30491 14.321 5.45139 14.2865 5.59098C14.252 5.73058 14.1791 5.85772 14.076 5.958L11.464 8.505C11.3747 8.59229 11.3079 8.69996 11.2694 8.81876C11.2309 8.93755 11.2218 9.06393 11.243 9.187L11.859 12.781C11.8831 12.9226 11.8671 13.0682 11.8128 13.2012C11.7586 13.3343 11.6682 13.4495 11.552 13.5339C11.4357 13.6184 11.2982 13.6686 11.1549 13.6791C11.0116 13.6895 10.8682 13.6597 10.741 13.593L7.51299 11.893C7.40242 11.8349 7.27939 11.8046 7.15449 11.8046C7.0296 11.8046 6.90657 11.8349 6.79599 11.893L3.56799 13.593C3.44074 13.6597 3.29738 13.6895 3.15409 13.6791C3.0108 13.6686 2.87327 13.6184 2.75703 13.5339C2.64078 13.4495 2.55044 13.3343 2.49619 13.2012C2.44194 13.0682 2.42594 12.9226 2.44999 12.781L3.06599 9.187C3.08714 9.06393 3.07808 8.93755 3.03958 8.81876C3.00109 8.69996 2.93431 8.59229 2.84499 8.505L0.233995 5.959C0.130924 5.85872 0.0579947 5.73158 0.0234684 5.59198C-0.011058 5.45239 -0.00580174 5.30591 0.0386417 5.16914C0.0830851 5.03238 0.16494 4.91079 0.274933 4.81816C0.384927 4.72552 0.518663 4.66554 0.660995 4.645L4.26999 4.121C4.39356 4.10311 4.51092 4.05544 4.61196 3.9821C4.713 3.90875 4.79469 3.81194 4.84999 3.7L6.46399 0.430004C6.52738 0.300844 6.62569 0.192027 6.74776 0.11589C6.86984 0.039753 7.01081 -0.000658632 7.15468 -0.000762738C7.29856 -0.000866844 7.43958 0.0393407 7.56177 0.115301C7.68396 0.191262 7.78242 0.299936 7.84599 0.429004V0.429004Z" fill="#FF2D55"/>
</svg>
