<svg width="32" height="42" viewBox="0 0 32 42" fill="none" xmlns="http://www.w3.org/2000/svg">
<path d="M7.57697 15.344V13.574C6.63084 12.9335 5.86665 12.0589 5.35878 11.0355C4.85091 10.012 4.61665 8.87448 4.67881 7.73362C4.74098 6.59276 5.09744 5.48743 5.71352 4.52521C6.32959 3.56299 7.18429 2.77665 8.19441 2.24274C9.20454 1.70882 10.3357 1.44552 11.4778 1.47845C12.6198 1.51138 13.7339 1.83942 14.7116 2.43066C15.6893 3.02189 16.4973 3.85616 17.0569 4.85229C17.6165 5.84841 17.9087 6.97244 17.905 8.11499C17.8979 9.43497 17.4865 10.7211 16.726 11.8H17.169C17.5683 11.7666 17.9702 11.817 18.349 11.948C18.9824 10.7652 19.3358 9.45287 19.382 8.11199C19.3822 6.66949 18.9978 5.25301 18.2686 4.00842C17.5394 2.76383 16.4915 1.73612 15.2331 1.03112C13.9746 0.32612 12.5509 -0.0306822 11.1087 -0.00254504C9.66646 0.0255922 8.2578 0.437652 7.02777 1.1912C5.79774 1.94475 4.79081 3.01255 4.11066 4.28463C3.43052 5.55672 3.10174 6.98711 3.1582 8.42851C3.21465 9.8699 3.6543 11.2702 4.43185 12.4852C5.20941 13.7002 6.29678 14.686 7.58198 15.341L7.57697 15.344Z" fill="#FF2D55"/>
<path d="M16.426 8.11499C16.426 6.74541 15.8819 5.43193 14.9135 4.46349C13.945 3.49505 12.6315 2.95099 11.262 2.95099C9.89238 2.95099 8.57889 3.49505 7.61046 4.46349C6.64202 5.43193 6.09796 6.74541 6.09796 8.11499C6.09228 8.77419 6.22002 9.42772 6.47351 10.0363C6.727 10.6448 7.10097 11.1958 7.57295 11.656V8.11499C7.57295 7.13674 7.96156 6.19855 8.65329 5.50682C9.34502 4.8151 10.2832 4.42649 11.2615 4.42649C12.2397 4.42649 13.1779 4.8151 13.8696 5.50682C14.5614 6.19855 14.9499 7.13674 14.9499 8.11499V11.656C15.4221 11.1958 15.7963 10.6449 16.0499 10.0364C16.3036 9.42783 16.4315 8.77426 16.426 8.11499Z" fill="#FF2D55"/>
<path d="M28.97 16.23C28.3875 16.2442 27.8329 16.4819 27.4209 16.8939C27.0089 17.3059 26.7712 17.8605 26.757 18.443V22.131H25.282V16.968C25.282 16.3811 25.0488 15.8182 24.6338 15.4032C24.2188 14.9881 23.6559 14.755 23.069 14.755C22.4821 14.755 21.9192 14.9881 21.5042 15.4032C21.0891 15.8182 20.856 16.3811 20.856 16.968V20.657H19.38V15.492C19.38 14.905 19.1468 14.3422 18.7318 13.9271C18.3168 13.5121 17.7539 13.279 17.167 13.279C16.5801 13.279 16.0172 13.5121 15.6022 13.9271C15.1871 14.3422 14.954 14.905 14.954 15.492V22.131H13.478V8.11497C13.478 7.52805 13.2448 6.96517 12.8298 6.55015C12.4148 6.13513 11.8519 5.90198 11.265 5.90198C10.6781 5.90198 10.1152 6.13513 9.70016 6.55015C9.28514 6.96517 9.05199 7.52805 9.05199 8.11497V23.315C5.95199 20.069 1.96999 16.528 0.351991 18.151C-1.26601 19.774 3.00799 24.2 8.76199 33.938C11.418 38.364 14.662 41.315 20.27 41.315C23.1984 41.294 26.0009 40.1214 28.0717 38.0507C30.1424 35.9799 31.315 33.1774 31.336 30.249V18.449C31.266 17.8597 30.9903 17.3141 30.5575 16.9082C30.1247 16.5023 29.5625 16.2621 28.97 16.23V16.23Z" fill="#FF2D55"/>

</svg>
