<svg width="512" height="494" viewBox="0 0 512 494" fill="none" xmlns="http://www.w3.org/2000/svg">
<path d="M284.682 396.593L291.08 395.296C299.524 393.584 299.524 381.515 291.08 379.803L284.682 378.506C268.563 375.238 255.965 362.64 252.697 346.521L251.4 340.123C249.688 331.679 237.619 331.679 235.907 340.123L234.61 346.521C231.342 362.64 218.744 375.238 202.625 378.506L196.227 379.803C187.783 381.515 187.783 393.584 196.227 395.296L202.625 396.593C218.744 399.861 231.342 412.459 234.61 428.578L235.907 434.976C237.619 443.42 249.688 443.42 251.4 434.976L252.697 428.578C255.965 412.459 268.563 399.861 284.682 396.593Z" fill="#D5D5D5"/>
<path d="M262.382 147.253L293.008 141.044C307.466 138.112 307.466 117.449 293.008 114.517L262.382 108.308C232.202 102.189 208.615 78.602 202.496 48.422L196.287 17.796C193.355 3.33798 172.692 3.33798 169.76 17.796L163.551 48.422C157.432 78.602 133.845 102.189 103.665 108.308L73.039 114.517C58.581 117.449 58.581 138.112 73.039 141.044L103.665 147.253C133.845 153.372 157.432 176.959 163.551 207.139L169.76 237.765C172.692 252.223 193.355 252.223 196.287 237.765L202.496 207.139C208.614 176.959 232.202 153.373 262.382 147.253Z" fill="#D5D5D5"/>
<path d="M480.152 253.816L503.672 249.047C514.776 246.796 514.776 230.926 503.672 228.675L480.152 223.906C456.974 219.206 438.86 201.093 434.161 177.915L429.392 154.395C427.141 143.291 411.271 143.291 409.021 154.395L404.252 177.915C399.552 201.093 381.439 219.207 358.261 223.906L334.741 228.675C323.637 230.926 323.637 246.796 334.741 249.047L358.261 253.816C381.439 258.516 399.553 276.629 404.252 299.807L409.021 323.327C411.272 334.431 427.142 334.431 429.392 323.327L434.161 299.807C438.861 276.63 456.976 258.515 480.152 253.816Z" fill="#D5D5D5"/>
</svg>
