<svg xmlns="http://www.w3.org/2000/svg" width="29.968" height="29.968" viewBox="0 0 29.968 29.968"><defs><style>.a{fill:#fff;}</style></defs><g transform="translate(-0.001)"><g transform="translate(0.001)"><circle class="a" cx="2.817" cy="2.817" r="2.817" transform="translate(12.167 12.774)"/><path class="a" d="M14.985,0A14.984,14.984,0,1,0,29.969,14.984,14.984,14.984,0,0,0,14.985,0Zm7.874,17.162L20.73,17.3a5.952,5.952,0,0,1-.474,1.147l1.407,1.6L19.441,22.27l-1.6-1.408a5.954,5.954,0,0,1-1.147.474l-.138,2.129H13.413l-.137-2.129a5.959,5.959,0,0,1-1.147-.474l-1.6,1.408L8.305,20.047l1.407-1.6A5.962,5.962,0,0,1,9.239,17.3L7.11,17.161V14.019l2.128-.137a5.979,5.979,0,0,1,.474-1.147l-1.407-1.6,2.222-2.222,1.6,1.407a5.958,5.958,0,0,1,1.147-.474l.137-2.129h3.142l.138,2.129a5.958,5.958,0,0,1,1.147.474l1.6-1.407,2.222,2.222-1.407,1.6a5.98,5.98,0,0,1,.474,1.147l2.128.137Z" transform="translate(-0.001)"/></g></g></svg>