<svg width="410" height="611" viewBox="0 0 410 611" fill="none" xmlns="http://www.w3.org/2000/svg">
<path d="M202.63 603.623C202.63 603.623 346.32 577.813 363.85 520.733C381.38 463.653 402.43 439.703 394.14 391.613C385.85 343.513 352.18 339.073 352.18 339.073L350.87 247.133L337.04 180.863L327.42 148.513L338.34 87.1328L330.24 37.7129L316.36 7.13281H280.96L260.84 42.1829L236.51 29.6628L202.63 46.7629L166.64 63.9529L181.82 132.313L209.73 189.153L212.5 219.643L183.68 259.123C183.68 259.123 170.02 237.113 132.7 247.093C95.3802 257.073 104.12 267.933 104.12 267.933L52.9902 284.853L18.3799 358.123V452.173L51.3999 527.093L126.99 573.333L202.63 603.623Z" fill="#FBB040"/>
<path d="M63.23 300.762C63.88 300.982 64.5302 301.202 65.1802 301.422Z" fill="#603913"/>
<path d="M105.76 284.172C105.66 284.192 105.68 284.192 105.76 284.172V284.172Z" fill="#603913"/>
<path d="M106.43 284C106.42 284 106.41 284 106.4 284.01C106.41 284 106.42 284 106.43 284Z" fill="#603913"/>
<path d="M106.4 284.012C106.07 284.092 105.87 284.142 105.78 284.172C105.94 284.122 106.28 284.042 106.4 284.012Z" fill="#603913"/>
<path d="M155.62 294.094H155.52L155.64 294.204L155.62 294.094Z" fill="#603913"/>
<path d="M391.07 351.782C389.45 348.962 388.28 345.802 387.42 342.652C381.12 319.562 375.49 296.262 368.61 273.352C359.21 242.052 349.64 210.762 338.61 180.012C334.29 167.962 333.8 157.712 337.99 145.662C347.69 117.782 354.73 89.2717 351.63 59.1817C349.22 35.7617 339.32 17.2018 317.92 6.28178C294.58 -5.62822 267.17 2.10167 249.1 25.4117C245.83 29.6317 243.2 30.4918 238.07 28.8118C209.3 19.4118 178.48 34.5918 168.21 63.0918C161.56 81.5218 161.74 100.542 168.42 118.552C175.34 137.232 184.34 155.182 193.19 173.072C196.67 180.102 198.58 186.562 197.25 194.472C194.97 208.092 193.62 221.872 191.78 236.392C189.86 235.562 188.96 235.262 188.16 234.812C160.34 219.152 119.24 226.092 102.64 253.872C101.77 255.322 98.7404 256.492 96.9504 256.212C82.9404 254.022 70.3504 257.702 58.4904 264.782C38.3604 276.792 25.9601 295.292 17.1501 316.182C2.31011 351.362 -2.25003 388.092 1.50997 426.162C6.87997 480.522 30.6903 525.352 71.8103 560.332C123.8 604.572 184.59 618.862 250.94 604.822C332.53 587.562 392.44 528.032 406.18 452.202C412.56 416.942 409.19 383.302 391.07 351.782ZM314.98 27.7618C324.65 35.4918 329.48 46.2018 330.92 58.2718C333.88 83.0618 329.2 106.892 320.91 131.452C305.12 98.0917 292.05 64.1618 262.41 41.3218C275.54 20.4118 298.42 14.5418 314.98 27.7618ZM183.43 87.0218C183.78 77.1818 186.14 67.8618 192.55 60.0618C205.57 44.2118 223.42 41.5118 241.78 52.7618C258.96 63.2918 271.05 78.6317 280.23 96.1617C304.68 142.832 322.81 192.072 338.29 242.332C342.86 257.172 347.99 271.882 351.64 286.942C353.28 293.732 351.92 301.242 351.92 308.892C345.89 305.302 340.29 301.962 334.95 298.782L267.21 261.702C261.06 258.472 255.52 255.792 251.99 248.362C235.02 212.652 216.96 177.462 199.33 142.062C190.66 124.682 182.72 107.062 183.43 87.0218ZM228.99 246.242C222.8 246.242 217.56 246.242 211.3 246.242C212.26 236.712 213.17 227.752 214.07 218.792C214.69 218.762 215.3 218.732 215.92 218.712C220.19 227.702 224.46 236.702 228.99 246.242ZM185.25 258.272C180.92 263.912 176.53 269.592 172.17 275.312C163.37 301.842 176.23 337.962 176.23 337.962C184.21 356.992 196.44 372.952 212.49 385.962C214.47 387.572 216.44 389.182 218.35 390.732C211.24 404.732 193.61 411.042 180.27 404.292C178.29 403.292 176.3 400.302 176.12 398.082C174.12 372.662 167.5 348.542 156.52 325.562C155.17 322.732 153.81 319.902 152.46 317.072C151.77 318.082 150.99 316.982 150.15 312.172C150.15 312.162 150.15 312.162 150.15 312.152C148.39 308.372 146.66 304.572 145.03 300.732C144.39 299.232 143.83 297.512 143.53 295.822C136.16 282.762 125.09 269.652 121.53 265.552C121.14 265.112 120.77 264.692 120.38 264.242C128.57 243.652 169.12 239.552 185.25 258.272ZM291.09 569.362C226.03 599.732 161.86 597.282 102.1 557.392C47.1903 520.732 20.0404 467.282 19.9504 400.772C19.9204 373.312 24.8503 346.642 36.6003 321.852C44.9503 304.242 55.4003 287.522 74.3303 278.862C87.6903 272.742 97.1504 274.352 106.43 284.012C106.84 286.172 114.44 290.032 116.78 293.532C121.93 302.602 127.84 311.322 132.06 320.802C141.65 342.332 150.49 364.242 153.66 387.852C155.07 398.382 156.02 409.052 150.91 419.052C140.97 438.512 117.29 443.472 99.01 429.652C84.31 418.532 76.7302 403.192 74.2102 385.162C73.7502 381.892 73.7204 378.572 73.2404 375.312C72.3904 369.592 68.9004 366.362 63.1604 366.442C57.1904 366.522 53.1203 369.802 52.8103 375.872C52.5303 381.232 52.8101 386.762 53.8601 392.012C58.9201 417.332 70.3102 438.872 93.7302 451.702C122.37 467.382 153.98 457.682 170.04 429.102C170.72 427.902 171.48 426.742 171.5 426.712C181.71 427.202 191.14 428.842 200.26 427.802C213.32 426.302 224.69 419.732 232.29 408.912C236.91 402.342 241.2 401.942 247.38 405.262C248.99 406.132 250.81 406.612 253.12 407.502C249.68 411.412 246.39 414.732 243.58 418.422C224.2 443.882 217.68 472.372 223.75 503.762C223.84 504.222 223.9 504.692 224.02 505.152C226.32 514.542 231.55 519.052 238.25 517.432C245.16 515.762 247.08 510.032 244.51 500.072C236.38 468.572 251.96 422.112 288.93 412.072C290.5 411.642 291.97 410.812 293.43 410.042C298.18 407.542 301.55 403.862 300.56 398.232C299.59 392.702 295.37 390.072 290.05 389.212C288.43 388.952 286.75 388.772 285.13 388.892C247.65 391.542 221.97 372.612 202.48 343.112C193.98 330.252 188.38 315.982 189.22 300.162C189.31 298.362 189.47 296.572 189.69 294.802L189.84 294.602H189.72C190.64 287.642 192.81 281.002 198.05 275.522C204.38 268.902 212.02 265.652 221.03 267.692C225.07 268.602 229.08 269.632 233.08 270.792L233.1 270.802C239.46 272.652 245.77 274.832 252.06 277.472C251.66 277.622 251.25 277.762 250.84 277.912C276.37 288.702 323.67 310.882 353.76 338.222C354.85 339.202 355.92 340.202 356.97 341.212C357.71 341.922 358.45 342.642 359.16 343.362V343.372C376.29 360.992 385.72 382.842 387.87 408.232C394.1 481.962 348.98 542.342 291.09 569.362Z" fill="#603913"/>
</svg>
