<svg width="107" height="158" viewBox="0 0 107 158" fill="none" xmlns="http://www.w3.org/2000/svg">
<path d="M65.3101 10.3082C65.3101 10.3082 69.9501 1.04819 77.9501 2.04819C85.9501 3.04819 94.8101 9.58821 84.8801 39.8182" fill="#DCA66A"/>
<path d="M65.3101 10.3082C65.3101 10.3082 69.9501 1.04819 77.9501 2.04819C85.9501 3.04819 94.8101 9.58821 84.8801 39.8182" stroke="#AA6628" stroke-width="3" stroke-miterlimit="10"/>
<path d="M17.4502 94.5497C17.4502 94.5497 15.4502 117.55 34.4502 115.55C40.0702 114.96 42.4502 111.13 42.8102 106.03C43.9502 90.0298 38.0502 82.5498 36.3902 79.0298C36.0884 78.3704 35.6795 77.7655 35.1802 77.2397C31.9802 73.8697 19.4702 62.2397 9.95017 76.0997C-7.43982 101.4 2.95018 156.1 51.4502 155.6C105.45 155.04 105.03 113.6 105.45 105.6C105.95 96.0997 96.4502 85.5997 96.4502 85.5997C96.4502 85.5997 89.4502 48.5997 83.4502 36.5997C77.4502 24.5997 66.4502 2.59974 54.4502 9.59974C42.4502 16.5997 48.4502 33.5997 54.4502 44.5997C54.4502 44.5997 54.4502 59.4797 54.0902 65.3797C54.0727 65.6626 53.9853 65.9366 53.8357 66.1773C53.6861 66.4179 53.479 66.6177 53.2331 66.7585C52.9872 66.8993 52.7101 66.9768 52.4268 66.984C52.1435 66.9912 51.8629 66.9279 51.6101 66.7997C47.4301 64.6797 37.6102 59.1397 32.4502 63.5997C25.4502 69.5997 26.9502 69.0997 26.9502 69.0997" fill="#DCA66A"/>
<path d="M17.4502 94.5497C17.4502 94.5497 15.4502 117.55 34.4502 115.55C40.0702 114.96 42.4502 111.13 42.8102 106.03C43.9502 90.0298 38.0502 82.5498 36.3902 79.0298C36.0884 78.3704 35.6795 77.7655 35.1802 77.2397C31.9802 73.8697 19.4702 62.2397 9.95017 76.0997C-7.43982 101.4 2.95018 156.1 51.4502 155.6C105.45 155.04 105.03 113.6 105.45 105.6C105.95 96.0997 96.4502 85.5997 96.4502 85.5997C96.4502 85.5997 89.4502 48.5997 83.4502 36.5997C77.4502 24.5997 66.4502 2.59974 54.4502 9.59974C42.4502 16.5997 48.4502 33.5997 54.4502 44.5997C54.4502 44.5997 54.4502 59.4797 54.0902 65.3797C54.0727 65.6626 53.9853 65.9366 53.8357 66.1773C53.6861 66.4179 53.479 66.6177 53.2331 66.7585C52.9872 66.8993 52.7101 66.9768 52.4268 66.984C52.1435 66.9912 51.8629 66.9279 51.6101 66.7997C47.4301 64.6797 37.6102 59.1397 32.4502 63.5997C25.4502 69.5997 26.9502 69.0997 26.9502 69.0997" stroke="#AA6628" stroke-width="3" stroke-miterlimit="10" stroke-linecap="round"/>
<path d="M62.4499 133.552C62.4499 133.552 57.4499 118.552 65.4499 110.552L72.4499 103.552C65.83 101.997 59.6658 98.9148 54.4499 94.5518C46.4499 87.5518 44.9499 82.0518 46.9499 74.0518C47.4299 72.1118 50.4499 63.5518 65.4499 67.5518C80.4499 71.5518 96.4499 85.5518 96.4499 85.5518" stroke="#AA6628" stroke-width="3" stroke-miterlimit="10" stroke-linecap="round"/>
<path d="M43 108.051C43 108.051 51.69 114.741 63 100.051" stroke="#AA6628" stroke-width="3" stroke-miterlimit="10" stroke-linecap="round"/>
<path d="M53.9502 44.0508L67.6802 68.2208" stroke="#AA6628" stroke-width="3" stroke-miterlimit="10" stroke-linecap="round"/>
</svg>
