<svg width="108" height="140" viewBox="0 0 108 140" fill="none" xmlns="http://www.w3.org/2000/svg">
<path d="M82.5926 34.2302C82.5926 15.3256 78.3935 0 54.0001 0C29.6068 0 25.4077 15.3256 25.4077 34.2302C25.4077 53.1348 38.2079 68.4604 54.0001 68.4604C69.7924 68.4604 82.5926 53.1348 82.5926 34.2302Z" fill="#EA307D"/>
<path d="M0 121.625V124.204C0 124.204 7.9519 140 54 140C100.048 140 108 124.204 108 124.204V120.745C108 121.045 108 120.915 107.919 118.296C107.31 86.2251 102.685 76.9877 69.6503 71.1094C69.6503 71.1094 64.944 77.0177 53.9898 77.0177C43.0357 77.0177 38.3294 71.1094 38.3294 71.1094C4.9395 77.0477 0.578115 86.435 0.0405487 119.366C0.0202632 121.445 0.0101428 121.815 0 121.625Z" fill="#EA307D"/>
<path fill-rule="evenodd" clip-rule="evenodd" d="M55 68.4556C70.6044 68.1946 83.1848 52.9705 83.1848 34.2288C83.1848 15.43 79.0326 0.170197 55 0V68.4556Z" fill="#FFA9CD"/>
<path fill-rule="evenodd" clip-rule="evenodd" d="M54 139.89C100.048 139.89 108 124.095 108 124.095V120.636C108 120.704 108 120.749 107.999 120.749C107.996 120.75 107.982 120.213 107.919 118.187C107.31 86.1157 102.685 76.8783 69.6503 71C69.6503 71 64.9469 76.9046 54 76.9083V139.89Z" fill="#FFA9CD"/>
</svg>
