<svg width="584" height="317" viewBox="0 0 584 317" fill="none" xmlns="http://www.w3.org/2000/svg">
<path d="M537.61 316.619C373.68 316.619 209.75 316.619 45.8196 316.619C44.9396 316.299 44.09 315.819 43.18 315.689C17.64 311.969 0.399881 292.789 0.349881 267.279C0.219881 194.749 0.169802 122.219 0.519802 49.6892C0.549802 42.5592 2.3597 34.8692 5.4197 28.4192C14.2197 9.90919 29.9997 1.50919 50.1697 0.729187C51.1197 0.689187 52.0695 0.719177 53.0095 0.719177C212.1 0.719177 371.2 0.729219 530.29 0.699219C544.65 0.699219 557.56 4.3992 568.22 14.4892C576.37 22.1992 580.43 32.0392 583.13 42.6192C583.13 119.929 583.13 197.239 583.13 274.539C582.77 275.599 582.31 276.639 582.05 277.719C578.49 292.929 569.97 304.439 555.76 311.069C550.1 313.729 543.69 314.819 537.61 316.619ZM143.11 200.809C143.11 172.549 143.11 144.639 143.11 115.869C171.54 115.869 199.63 115.869 227.64 115.869C227.64 101.459 227.64 87.9092 227.64 74.3692C226.76 74.1492 226.22 73.8992 225.68 73.8992C198.37 73.8692 171.06 73.7092 143.75 73.9092C118.2 74.0992 100.81 93.0192 100.54 117.119C100.22 144.769 100.22 172.429 100.54 200.079C100.84 226.149 120.61 242.759 140.92 242.989C157.21 243.179 173.53 243.369 189.81 242.739C207.91 242.039 225.74 226.379 226.7 208.509C227.96 185.139 227.01 161.649 227.01 137.859C206.63 137.859 185.67 137.859 164.62 137.859C164.62 151.859 164.62 165.549 164.62 179.919C171.74 179.919 178.46 179.919 185.24 179.919C185.24 187.299 185.24 193.989 185.24 200.819C171 200.809 157.23 200.809 143.11 200.809ZM398.07 115.969C426.47 115.969 454.58 115.969 482.68 115.969C482.68 101.539 482.68 87.9692 482.68 74.2892C481.67 74.1092 480.94 73.8792 480.21 73.8792C453.08 73.8592 425.95 73.7992 398.82 73.8892C389.32 73.9192 380.54 76.4692 372.82 82.2692C360.45 91.5692 355.48 104.319 355.46 119.339C355.42 158.749 355.45 198.159 355.45 237.569C355.45 239.259 355.45 240.939 355.45 242.999C369.59 242.999 383.34 242.999 397.92 242.999C397.92 221.899 397.92 201.039 397.92 179.539C419.52 179.539 440.3 179.539 461.22 179.539C461.22 165.319 461.22 151.739 461.22 137.319C440.04 137.319 419.12 137.319 398.06 137.319C398.07 129.919 398.07 123.379 398.07 115.969ZM333.72 115.949C333.72 101.619 333.72 88.0492 333.72 74.1492C305.65 74.1492 277.86 74.1492 249.82 74.1492C249.82 88.1192 249.82 101.799 249.82 116.299C256.88 116.299 263.58 116.299 270.04 116.299C270.04 145.019 270.04 172.919 270.04 201.399C262.94 201.399 256.38 201.399 249.72 201.399C249.72 215.559 249.72 229.129 249.72 243.029C277.79 243.029 305.58 243.029 333.62 243.029C333.62 229.059 333.62 215.379 333.62 200.879C326.56 200.879 319.86 200.879 313.4 200.879C313.4 172.159 313.4 144.259 313.4 115.949C320.35 115.949 326.76 115.949 333.72 115.949Z" fill="white"/>
</svg>
