<svg width="152" height="84" viewBox="0 0 152 84" fill="none" xmlns="http://www.w3.org/2000/svg">
<path d="M139.86 83.1489C97.22 83.1489 54.58 83.1489 11.9401 83.1489C11.7101 83.0689 11.49 82.9388 11.25 82.9088C4.61005 81.9388 0.120033 76.9488 0.110033 70.3188C0.0800332 51.4488 0.0600418 32.5888 0.150042 13.7188C0.160042 11.8588 0.630041 9.85883 1.43004 8.18883C3.72004 3.36883 7.82006 1.18882 13.0701 0.988819C13.3201 0.978819 13.56 0.988819 13.81 0.988819C55.19 0.988819 96.57 0.988819 137.96 0.988819C141.7 0.988819 145.05 1.94885 147.83 4.57885C149.95 6.58885 151.01 9.14885 151.71 11.8989C151.71 32.0089 151.71 52.1188 151.71 72.2288C151.62 72.5088 151.5 72.7788 151.43 73.0588C150.5 77.0188 148.29 80.0088 144.59 81.7388C143.1 82.3988 141.44 82.6789 139.86 83.1489ZM37.24 53.0289C37.24 45.6789 37.24 38.4188 37.24 30.9388C44.63 30.9388 51.9401 30.9388 59.2301 30.9388C59.2301 27.1888 59.2301 23.6689 59.2301 20.1489C59.0001 20.0889 58.8601 20.0289 58.7201 20.0289C51.6201 20.0189 44.5101 19.9789 37.4101 20.0289C30.7701 20.0789 26.2401 24.9988 26.1701 31.2688C26.0901 38.4588 26.0901 45.6588 26.1701 52.8488C26.2501 59.6288 31.3901 63.9488 36.6701 64.0088C40.9101 64.0588 45.1501 64.1088 49.3901 63.9488C54.1001 63.7688 58.74 59.6888 58.99 55.0488C59.32 48.9688 59.0701 42.8588 59.0701 36.6688C53.7701 36.6688 48.32 36.6688 42.84 36.6688C42.84 40.3088 42.84 43.8688 42.84 47.6088C44.69 47.6088 46.4401 47.6088 48.2001 47.6088C48.2001 49.5288 48.2001 51.2688 48.2001 53.0488C44.4901 53.0288 40.91 53.0289 37.24 53.0289ZM103.56 30.9589C110.95 30.9589 118.26 30.9589 125.57 30.9589C125.57 27.2089 125.57 23.6788 125.57 20.1188C125.31 20.0688 125.12 20.0088 124.93 20.0088C117.87 19.9988 110.82 19.9888 103.76 20.0088C101.29 20.0188 99 20.6788 97 22.1888C93.78 24.6088 92.49 27.9288 92.49 31.8288C92.48 42.0788 92.49 52.3288 92.49 62.5788C92.49 63.0188 92.49 63.4588 92.49 63.9888C96.17 63.9888 99.7501 63.9888 103.54 63.9888C103.54 58.4988 103.54 53.0688 103.54 47.4788C109.16 47.4788 114.56 47.4788 120.01 47.4788C120.01 43.7788 120.01 40.2488 120.01 36.4988C114.5 36.4988 109.06 36.4988 103.58 36.4988C103.56 34.5888 103.56 32.8889 103.56 30.9589ZM86.8201 30.9589C86.8201 27.2289 86.8201 23.6989 86.8201 20.0889C79.5201 20.0889 72.29 20.0889 65 20.0889C65 23.7189 65 27.2788 65 31.0488C66.84 31.0488 68.5801 31.0488 70.2601 31.0488C70.2601 38.5188 70.2601 45.7788 70.2601 53.1788C68.4101 53.1788 66.71 53.1788 64.97 53.1788C64.97 56.8588 64.97 60.3888 64.97 64.0088C72.27 64.0088 79.5001 64.0088 86.7901 64.0088C86.7901 60.3788 86.7901 56.8188 86.7901 53.0488C84.9501 53.0488 83.21 53.0488 81.53 53.0488C81.53 45.5788 81.53 38.3189 81.53 30.9589C83.34 30.9589 85.0101 30.9589 86.8201 30.9589Z" fill="#A3459B"/>
</svg>
