<svg width="621" height="648" viewBox="0 0 621 648" fill="none" xmlns="http://www.w3.org/2000/svg">
<path d="M313.84 454.189C355.8 454.189 389.82 412.869 389.82 361.899C389.82 310.929 378.65 269.609 313.84 269.609C249.03 269.609 237.86 310.929 237.86 361.899C237.86 412.879 271.88 454.189 313.84 454.189Z" fill="#37C2D8"/>
<path d="M170.33 595.1C170.32 591.99 170.31 594.23 170.33 595.1V595.1Z" fill="white"/>
<path d="M457.34 597.529C457.39 596.679 457.36 591.629 457.34 597.529V597.529Z" fill="white"/>
<path d="M457.18 591.381C455.77 502.591 444.18 477.291 355.44 461.281C355.44 461.281 342.95 477.201 313.84 477.201C284.73 477.201 272.23 461.281 272.23 461.281C184.46 477.121 172.16 502.041 170.55 588.501C170.42 595.561 170.36 595.931 170.33 595.111C170.34 596.651 170.34 599.491 170.34 604.441C170.34 604.441 191.47 647.031 313.84 647.031C436.21 647.031 457.34 604.441 457.34 604.441C457.34 601.261 457.34 599.051 457.35 597.541C457.32 598.041 457.27 597.051 457.18 591.381Z" fill="#37C2D8"/>
<path d="M73.1899 316.802C113.612 316.802 146.38 284.034 146.38 243.612C146.38 203.19 113.612 170.422 73.1899 170.422C32.7682 170.422 0 203.19 0 243.612C0 284.034 32.7682 316.802 73.1899 316.802Z" fill="#37C2D8"/>
<path d="M310.99 146.38C351.411 146.38 384.18 113.612 384.18 73.19C384.18 32.7683 351.411 0 310.99 0C270.568 0 237.8 32.7683 237.8 73.19C237.8 113.612 270.568 146.38 310.99 146.38Z" fill="#37C2D8"/>
<path d="M547.7 317.79C588.121 317.79 620.89 285.022 620.89 244.6C620.89 204.178 588.121 171.41 547.7 171.41C507.278 171.41 474.51 204.178 474.51 244.6C474.51 285.022 507.278 317.79 547.7 317.79Z" fill="#37C2D8"/>
<path d="M310.99 176.078V241.098" stroke="white" stroke-width="5" stroke-miterlimit="10"/>
<path d="M399.19 299.139L463.38 277.789" stroke="white" stroke-width="5" stroke-miterlimit="10"/>
<path d="M157.55 277.789L221.75 299.139" stroke="white" stroke-width="5" stroke-miterlimit="10"/>
<path d="M72.0398 213.782C82.3598 213.552 92.6198 218.082 92.8698 229.452C93.0998 239.932 81.1797 244.232 78.6797 248.072C76.8097 250.932 77.5397 254.882 72.2197 254.992C68.7497 255.072 66.9997 252.282 66.9397 249.702C66.7297 240.102 80.7897 237.622 80.6097 229.712C80.5097 225.362 77.5597 222.842 72.7197 222.952C62.3997 223.182 66.6597 233.732 58.8497 233.902C56.0297 233.962 53.5698 232.322 53.4998 229.102C53.3198 221.202 62.1998 213.992 72.0398 213.782ZM72.6598 260.222C76.2798 260.142 79.3398 263.052 79.4198 266.692C79.4998 270.322 76.5797 273.372 72.9497 273.452C69.3197 273.532 66.2697 270.622 66.1897 266.982C66.1097 263.352 69.0298 260.302 72.6598 260.222Z" fill="white"/>
<path d="M307.45 43.3599C317.77 43.1299 328.03 47.6599 328.28 59.0299C328.51 69.5099 316.59 73.8099 314.09 77.6499C312.22 80.5099 312.95 84.4599 307.63 84.5699C304.16 84.6499 302.41 81.8599 302.35 79.2799C302.14 69.6799 316.2 67.1999 316.02 59.2899C315.92 54.9399 312.97 52.4199 308.13 52.5299C297.81 52.7599 302.07 63.3099 294.26 63.4799C291.44 63.5399 288.98 61.8999 288.91 58.6799C288.74 50.7799 297.61 43.5799 307.45 43.3599ZM308.07 89.7999C311.69 89.7199 314.75 92.6299 314.83 96.2699C314.91 99.9099 311.99 102.95 308.36 103.03C304.73 103.11 301.68 100.2 301.6 96.5599C301.52 92.9299 304.44 89.8799 308.07 89.7999Z" fill="white"/>
<path d="M546.55 214.77C556.87 214.54 567.13 219.07 567.38 230.44C567.61 240.92 555.69 245.22 553.19 249.06C551.32 251.92 552.05 255.87 546.73 255.98C543.26 256.06 541.51 253.27 541.45 250.69C541.24 241.09 555.3 238.61 555.12 230.7C555.02 226.35 552.07 223.83 547.23 223.94C536.91 224.17 541.17 234.72 533.36 234.89C530.54 234.95 528.08 233.31 528.01 230.09C527.84 222.19 536.72 214.99 546.55 214.77ZM547.18 261.21C550.8 261.13 553.86 264.04 553.94 267.68C554.02 271.32 551.1 274.36 547.47 274.44C543.84 274.52 540.79 271.61 540.71 267.97C540.63 264.34 543.55 261.29 547.18 261.21Z" fill="white"/>
</svg>
