<svg width="622" height="648" viewBox="0 0 622 648" fill="none" xmlns="http://www.w3.org/2000/svg">
<path d="M314.1 454.369C356.06 454.369 390.08 413.049 390.08 362.079C390.08 311.109 378.91 269.789 314.1 269.789C249.29 269.789 238.12 311.109 238.12 362.079C238.12 413.059 272.14 454.369 314.1 454.369Z" fill="white"/>
<path d="M170.59 595.28C170.58 592.17 170.57 594.41 170.59 595.28V595.28Z" fill="white"/>
<path d="M457.6 597.708C457.65 596.858 457.62 591.808 457.6 597.708V597.708Z" fill="white"/>
<path d="M457.44 591.561C456.03 502.771 444.44 477.471 355.7 461.461C355.7 461.461 343.21 477.381 314.1 477.381C284.99 477.381 272.49 461.461 272.49 461.461C184.72 477.301 172.42 502.221 170.81 588.681C170.68 595.741 170.62 596.111 170.59 595.291C170.6 596.831 170.6 599.671 170.6 604.621C170.6 604.621 191.73 647.211 314.1 647.211C436.47 647.211 457.6 604.621 457.6 604.621C457.6 601.441 457.6 599.231 457.61 597.721C457.58 598.221 457.53 597.231 457.44 591.561Z" fill="white"/>
<path d="M73.4497 316.982C113.871 316.982 146.64 284.213 146.64 243.792C146.64 203.37 113.871 170.602 73.4497 170.602C33.028 170.602 0.259766 203.37 0.259766 243.792C0.259766 284.213 33.028 316.982 73.4497 316.982Z" fill="white"/>
<path d="M311.25 146.56C351.671 146.56 384.439 113.791 384.439 73.3697C384.439 32.948 351.671 0.179688 311.25 0.179688C270.828 0.179688 238.06 32.948 238.06 73.3697C238.06 113.791 270.828 146.56 311.25 146.56Z" fill="white"/>
<path d="M547.959 317.97C588.381 317.97 621.149 285.202 621.149 244.78C621.149 204.358 588.381 171.59 547.959 171.59C507.538 171.59 474.77 204.358 474.77 244.78C474.77 285.202 507.538 317.97 547.959 317.97Z" fill="white"/>
<path d="M311.25 176.258V241.278" stroke="white" stroke-width="5" stroke-miterlimit="10"/>
<path d="M399.45 299.319L463.64 277.969" stroke="white" stroke-width="5" stroke-miterlimit="10"/>
<path d="M157.81 277.969L222.01 299.319" stroke="white" stroke-width="5" stroke-miterlimit="10"/>
<path d="M72.2996 213.961C82.6196 213.731 92.8795 218.261 93.1295 229.631C93.3595 240.111 81.4395 244.411 78.9395 248.251C77.0695 251.111 77.7995 255.061 72.4795 255.171C69.0095 255.251 67.2595 252.461 67.1995 249.881C66.9895 240.281 81.0495 237.801 80.8695 229.891C80.7695 225.541 77.8195 223.021 72.9795 223.131C62.6595 223.361 66.9195 233.911 59.1095 234.081C56.2895 234.141 53.8295 232.501 53.7595 229.281C53.5795 221.381 62.4596 214.171 72.2996 213.961ZM72.9196 260.401C76.5396 260.321 79.5996 263.231 79.6796 266.871C79.7596 270.501 76.8395 273.551 73.2095 273.631C69.5795 273.711 66.5295 270.801 66.4495 267.161C66.3695 263.531 69.2896 260.481 72.9196 260.401Z" fill="#6D6E71"/>
<path d="M307.709 43.5396C318.029 43.3096 328.29 47.8396 328.54 59.2096C328.77 69.6896 316.85 73.9896 314.35 77.8296C312.48 80.6896 313.209 84.6396 307.889 84.7496C304.419 84.8296 302.67 82.0396 302.61 79.4596C302.4 69.8596 316.46 67.3795 316.28 59.4695C316.18 55.1195 313.229 52.5996 308.389 52.7096C298.069 52.9396 302.329 63.4896 294.519 63.6596C291.699 63.7196 289.239 62.0796 289.169 58.8596C288.999 50.9596 297.869 43.7596 307.709 43.5396ZM308.33 89.9796C311.95 89.8996 315.01 92.8096 315.09 96.4496C315.17 100.09 312.25 103.13 308.62 103.21C304.99 103.29 301.94 100.38 301.86 96.7396C301.78 93.1096 304.7 90.0596 308.33 89.9796Z" fill="#6D6E71"/>
<path d="M546.81 214.95C557.13 214.72 567.39 219.25 567.64 230.62C567.87 241.1 555.95 245.4 553.45 249.24C551.58 252.1 552.31 256.05 546.99 256.16C543.52 256.24 541.77 253.45 541.71 250.87C541.5 241.27 555.56 238.79 555.38 230.88C555.28 226.53 552.33 224.01 547.49 224.12C537.17 224.35 541.43 234.9 533.62 235.07C530.8 235.13 528.34 233.49 528.27 230.27C528.1 222.37 536.98 215.17 546.81 214.95ZM547.44 261.39C551.06 261.31 554.12 264.22 554.2 267.86C554.28 271.5 551.36 274.54 547.73 274.62C544.1 274.7 541.05 271.79 540.97 268.15C540.89 264.52 543.81 261.47 547.44 261.39Z" fill="#6D6E71"/>
</svg>
