<svg width="633" height="633" viewBox="0 0 633 633" fill="none" xmlns="http://www.w3.org/2000/svg">
<path d="M359.77 368.859C406.4 345.089 424.94 288.009 401.16 241.369C377.39 194.739 320.31 176.199 273.67 199.979C227.04 223.749 208.5 280.829 232.28 327.469C241.36 345.289 255.85 359.779 273.67 368.859C215.68 370.089 169.3 417.449 169.29 475.449V621.479H464.15V475.449C464.13 417.449 417.76 370.089 359.77 368.859Z" fill="#F69899"/>
<path d="M353.61 368.741C382.12 353.021 400.15 323.361 400.96 290.811C400.31 245.931 363.41 210.081 318.53 210.731C317.92 210.741 317.32 210.751 316.71 210.781C273.25 209.381 236.9 243.481 235.5 286.941C235.46 288.231 235.45 289.521 235.47 290.821C235.12 322.891 252.06 352.671 279.81 368.751C230.22 369.881 179.81 416.451 179.81 468.991V621.491H453.61V468.991C453.62 416.441 403.2 369.871 353.61 368.741Z" fill="#EB362E"/>
<path d="M306.19 63.3516H327.25V105.471H306.19V63.3516Z" fill="#8AD4E2"/>
<path d="M410.22 119.071L440.01 89.2812L454.9 104.171L425.11 133.961L410.22 119.071Z" fill="#8AD4E2"/>
<path d="M537.87 610.953H579.99V632.013H537.87V610.953Z" fill="#8AD4E2"/>
<path d="M537.87 505.652H579.99V526.712H537.87V505.652Z" fill="#8AD4E2"/>
<path d="M537.87 400.34H579.99V421.4H537.87V400.34Z" fill="#8AD4E2"/>
<path d="M525.12 302.24L565.08 288.91L571.74 308.89L531.78 322.22L525.12 302.24Z" fill="#8AD4E2"/>
<path d="M492.41 193.033L532.37 179.703L539.03 199.683L499.07 213.013L492.41 193.033Z" fill="#8AD4E2"/>
<path d="M178.54 104.191L193.43 89.3008L223.21 119.091L208.32 133.981L178.54 104.191Z" fill="#8AD4E2"/>
<path d="M53.4502 610.953H95.5698V632.013H53.4502V610.953Z" fill="#8AD4E2"/>
<path d="M53.4502 505.652H95.5698V526.712H53.4502V505.652Z" fill="#8AD4E2"/>
<path d="M53.4502 400.34H95.5698V421.4H53.4502V400.34Z" fill="#8AD4E2"/>
<path d="M61.73 308.89L68.3901 288.91L108.35 302.23L101.69 322.21L61.73 308.89Z" fill="#8AD4E2"/>
<path d="M94.3901 199.71L101.05 179.73L141.01 193.051L134.35 213.031L94.3901 199.71Z" fill="#8AD4E2"/>
<path d="M579.99 105.47C574.18 105.47 569.46 100.76 569.46 94.9402C569.46 94.9402 569.46 94.9402 569.46 94.9302C569.44 77.4902 555.31 63.3603 537.87 63.3403C532.05 63.3403 527.34 58.6203 527.34 52.8103C527.34 47.0003 532.06 42.2803 537.87 42.2803C555.31 42.2603 569.44 28.1302 569.46 10.6902C569.46 4.87019 574.18 0.160156 579.99 0.160156C585.81 0.160156 590.52 4.88019 590.52 10.6902C590.54 28.1302 604.67 42.2603 622.11 42.2803C627.93 42.2803 632.64 47.0003 632.64 52.8103C632.64 58.6203 627.93 63.3403 622.11 63.3403C604.67 63.3603 590.54 77.4902 590.52 94.9302C590.52 100.75 585.81 105.47 579.99 105.47ZM569.43 52.8203C573.43 55.8303 576.99 59.3801 579.99 63.3801C583 59.3801 586.55 55.8203 590.55 52.8203C586.55 49.8103 582.99 46.2603 579.99 42.2603C576.98 46.2603 573.43 49.8103 569.43 52.8203Z" fill="#FBD81F"/>
<path d="M53.4502 105.47C47.6402 105.47 42.9199 100.76 42.9199 94.9402C42.9199 94.9402 42.9199 94.9402 42.9199 94.9302C42.8999 77.4902 28.7701 63.3603 11.3301 63.3403C5.51008 63.3403 0.799805 58.6203 0.799805 52.8103C0.799805 47.0003 5.52008 42.2803 11.3301 42.2803C28.7701 42.2603 42.8999 28.1302 42.9199 10.6902C42.9199 4.87019 47.6402 0.160156 53.4502 0.160156C59.2702 0.160156 63.98 4.88019 63.98 10.6902C64 28.1302 78.1298 42.2603 95.5698 42.2803C101.39 42.2803 106.1 47.0003 106.1 52.8103C106.1 58.6203 101.39 63.3403 95.5698 63.3403C78.1298 63.3603 64 77.4902 63.98 94.9302C63.98 100.75 59.2702 105.47 53.4502 105.47ZM42.8799 52.8203C46.8799 55.8303 50.4399 59.3801 53.4399 63.3801C56.4499 59.3801 60 55.8203 64 52.8203C60 49.8103 56.4399 46.2603 53.4399 42.2603C50.4399 46.2603 46.8799 49.8103 42.8799 52.8203Z" fill="#FBD81F"/>
<path d="M315.4 266.05C329.07 265.75 342.66 271.75 342.99 286.8C343.3 300.68 327.51 306.37 324.2 311.46C321.72 315.25 322.69 320.47 315.64 320.63C311.05 320.73 308.72 317.05 308.65 313.63C308.37 300.92 326.99 297.63 326.76 287.16C326.63 281.4 322.72 278.07 316.31 278.21C302.64 278.51 308.29 292.48 297.94 292.71C294.2 292.79 290.95 290.62 290.85 286.35C290.62 275.88 302.37 266.33 315.4 266.05ZM316.22 327.55C321.02 327.44 325.06 331.3 325.17 336.12C325.28 340.94 321.41 344.97 316.61 345.07C311.8 345.18 307.76 341.32 307.66 336.5C307.55 331.69 311.42 327.66 316.22 327.55Z" fill="white"/>
</svg>
