<svg width="108" height="144" viewBox="0 0 108 144" fill="none" xmlns="http://www.w3.org/2000/svg">
<path d="M107.38 83.9997C105.74 62.6697 95.8099 49.3097 87.0499 37.5197C78.9399 26.5997 71.9399 17.1697 71.9399 3.25971C71.9374 2.71222 71.7851 2.17586 71.4996 1.70874C71.214 1.24162 70.8061 0.861554 70.3199 0.609714C69.8333 0.354552 69.285 0.240844 68.737 0.281497C68.1891 0.32215 67.6635 0.515533 67.2199 0.839709C54.0699 10.2497 43.0899 26.1197 39.2199 41.2597C36.5599 51.7997 36.2199 63.6497 36.1599 71.4697C24.0099 68.8797 21.2599 50.6997 21.2299 50.4697C21.1599 50.0092 20.9837 49.5713 20.7151 49.1907C20.4465 48.8101 20.093 48.4973 19.6825 48.277C19.2721 48.0567 18.816 47.9351 18.3504 47.9216C17.8847 47.9082 17.4224 48.0034 16.9999 48.1997C16.3599 48.5097 1.35993 56.1397 0.489929 86.5697C0.429929 87.5697 0.419922 88.5697 0.419922 89.5697C0.435803 103.788 6.09119 117.42 16.1453 127.474C26.1995 137.528 39.8312 143.184 54.0499 143.2H54.2099C68.4 143.139 81.9893 137.464 92.0083 127.415C102.027 117.366 107.662 103.76 107.68 89.5697C107.69 88.1297 107.38 83.9997 107.38 83.9997ZM54.0599 137.32C44.1999 137.32 36.1899 128.78 36.1899 118.32C36.1899 117.96 36.1899 117.6 36.1899 117.16C36.1769 113.909 36.8162 110.689 38.0699 107.69C39.7999 111.41 42.8899 114.82 47.9099 114.82C48.7056 114.82 49.4686 114.504 50.0312 113.941C50.5938 113.378 50.9099 112.615 50.9099 111.82C50.7698 107.274 51.1523 102.728 52.0499 98.2697C53.1623 94.0589 55.2136 90.1547 58.0499 86.8497C59.3199 91.1797 61.7899 94.6897 64.1899 98.1197C67.6399 103.01 71.1899 108.12 71.8299 116.72C71.8299 117.23 71.9099 117.72 71.9099 118.3C71.9399 128.74 63.9199 137.28 54.0599 137.28V137.32Z" fill="#F36F34"/>
</svg>
