<svg width="459" height="612" viewBox="0 0 459 612" fill="none" xmlns="http://www.w3.org/2000/svg">
<path d="M457.56 358.32C450.56 267.18 408.13 210.07 370.69 159.67C336.03 113.01 306.09 72.7203 306.09 13.2803C306.09 8.51028 303.42 4.14027 299.18 1.95027C294.93 -0.249732 289.82 0.110239 285.95 2.92024C229.73 43.1502 182.82 110.96 166.43 175.65C155.05 220.69 153.55 271.33 153.34 304.77C101.42 293.68 89.6603 216.02 89.5303 215.17C88.9503 211.14 86.4801 207.64 82.9001 205.72C79.2801 203.83 75.0304 203.69 71.3604 205.51C68.6404 206.83 4.53029 239.4 0.800293 369.45C0.540293 373.78 0.530273 378.12 0.530273 382.46C0.530273 508.81 103.34 611.61 229.7 611.61C229.87 611.62 230.06 611.65 230.21 611.61C230.26 611.61 230.31 611.61 230.37 611.61C356.42 611.25 458.87 508.58 458.87 382.46C458.87 376.11 457.56 358.32 457.56 358.32ZM229.7 586.15C187.58 586.15 153.31 549.65 153.31 504.78C153.31 503.25 153.3 501.71 153.41 499.82C153.92 480.9 157.51 467.98 161.45 459.39C168.84 475.25 182.04 489.84 203.49 489.84C210.53 489.84 216.22 484.15 216.22 477.11C216.22 458.98 216.59 438.07 221.11 419.2C225.13 402.47 234.72 384.66 246.88 370.39C252.29 388.91 262.83 403.91 273.13 418.54C287.86 439.48 303.09 461.12 305.77 498.03C305.93 500.22 306.09 502.42 306.09 504.78C306.09 549.65 271.83 586.15 229.7 586.15Z" fill="white"/>
</svg>
