<svg width="796" height="733" viewBox="0 0 796 733" fill="none" xmlns="http://www.w3.org/2000/svg">
<path d="M709.04 212.001L530.38 210.381C484.81 209.971 448.19 172.691 448.61 127.111L448.99 84.8908C449.4 39.3208 486.68 2.70076 532.26 3.12076L710.92 4.74076C756.49 5.15076 793.11 42.4308 792.69 88.0108L792.31 130.231C791.9 175.801 754.62 212.421 709.04 212.001Z" fill="white" stroke="#C49A6C" stroke-width="5" stroke-miterlimit="10"/>
<path d="M622.92 338.651H618.39C612.31 338.651 607.38 333.721 607.38 327.641V208.641H633.94V327.631C633.93 333.721 629 338.651 622.92 338.651Z" fill="#C49A6C"/>
<path d="M620.29 57.8398C592.17 57.8398 569.37 80.6398 569.37 108.76C569.37 136.88 592.17 159.68 620.29 159.68C648.41 159.68 671.21 136.88 671.21 108.76C671.21 80.6398 648.41 57.8398 620.29 57.8398ZM617.91 150.91C596.82 150.91 579.73 133.82 579.73 112.73C579.73 91.6398 596.82 74.5498 617.91 74.5498C639 74.5498 656.09 91.6398 656.09 112.73C656.09 133.81 638.99 150.91 617.91 150.91Z" fill="#EB994A"/>
<path d="M600.33 74.8511L583.42 58.9511L594.76 40.7811L623.76 35.8711L637.94 52.3511L618.02 81.9811L600.33 74.8511Z" fill="white"/>
<path d="M263.11 212.001L84.4499 210.381C38.8799 209.971 2.25985 172.691 2.67985 127.111L3.05997 84.8908C3.46997 39.3208 40.75 2.70076 86.33 3.12076L264.99 4.74076C310.56 5.15076 347.18 42.4308 346.76 88.0108L346.38 130.231C345.97 175.801 308.69 212.421 263.11 212.001Z" fill="white" stroke="#C49A6C" stroke-width="5" stroke-miterlimit="10"/>
<path d="M118.33 105.31C125.6 106.87 135.91 108.64 144.5 108.41C152.69 108.19 159.23 106.1 165.55 104.08C170.82 102.39 175.81 100.8 180.98 100.66C186.15 100.52 191.21 101.85 196.57 103.26C202.99 104.95 209.63 106.69 217.82 106.48C226.63 106.25 237.1 103.84 244.3 101.87C239.31 97.9704 235.23 92.0705 231.24 86.2705C224.2 76.0405 217.54 66.3705 206.84 66.6505C190.43 67.0805 185.98 87.6905 185.94 87.9005C185.5 90.0505 183.63 91.6004 181.44 91.6604L181.05 91.6704C178.89 91.7304 176.96 90.3004 176.38 88.2204C176.14 87.3904 170.33 67.6104 153.97 68.0404C143.27 68.3204 137.13 78.3405 130.64 88.9505C126.92 94.9905 123.14 101.15 118.33 105.31Z" fill="#D22327"/>
<path d="M234.32 121.569C236.67 118.479 239.06 115.359 241.64 112.309C234.54 114.039 225.84 115.709 218.05 115.919C210.2 116.129 203.64 114.799 197.81 113.339C195.2 118.119 189.06 121.569 181.82 121.769C174.5 121.959 168.14 118.769 165.32 114.059C159.45 115.879 152.82 117.639 144.74 117.859C137.2 118.059 128.72 116.929 121.66 115.619C124.37 118.489 126.89 121.449 129.38 124.379C152.1 151.149 166.22 150.779 182.57 150.349C213.04 149.529 222.9 136.569 234.32 121.569Z" fill="#D22327"/>
<path d="M268.84 97.371C267.67 95.051 264.84 94.111 262.51 95.281C260.42 96.331 258.48 96.881 256.75 96.931C250.14 97.101 244.98 89.601 239 80.921C231.22 69.621 222.4 56.801 206.58 57.221C193.51 57.561 185.25 66.401 180.7 75.051C180.14 74.121 179.53 73.161 178.85 72.211C172.37 63.051 163.67 58.341 153.71 58.611C137.89 59.031 129.75 72.311 122.58 84.021C117.06 93.031 112.3 100.801 105.69 100.981C103.96 101.031 102 100.571 99.8599 99.641C97.4699 98.601 94.6996 99.681 93.6496 102.061C92.5996 104.441 93.6798 107.221 96.0598 108.281C107.73 113.441 114.76 121.721 122.2 130.481C134.81 145.331 147.85 160.701 182.84 159.771C217.83 158.851 230.04 142.801 241.84 127.281C248.81 118.121 255.39 109.471 266.77 103.701C269.08 102.531 270.02 99.701 268.84 97.371ZM182.58 150.341C166.23 150.771 152.11 151.141 129.39 124.371C126.9 121.441 124.38 118.481 121.67 115.611C128.73 116.911 137.2 118.041 144.75 117.851C152.83 117.641 159.46 115.881 165.33 114.051C168.15 118.761 174.51 121.951 181.83 121.761C189.07 121.571 195.21 118.111 197.82 113.331C203.65 114.791 210.21 116.111 218.06 115.911C225.84 115.701 234.54 114.041 241.65 112.301C239.06 115.341 236.68 118.471 234.33 121.561C222.9 136.571 213.04 149.531 182.58 150.341ZM130.62 88.951C137.12 78.341 143.25 68.321 153.95 68.041C170.31 67.611 176.12 87.381 176.36 88.221C176.94 90.311 178.87 91.731 181.03 91.671L181.42 91.661C183.61 91.601 185.47 90.041 185.92 87.901C185.96 87.691 190.41 67.091 206.82 66.651C217.52 66.371 224.18 76.031 231.22 86.271C235.21 92.071 239.29 97.981 244.28 101.871C237.08 103.841 226.61 106.251 217.8 106.481C209.61 106.701 202.97 104.951 196.55 103.261C191.19 101.851 186.13 100.521 180.96 100.661C175.79 100.801 170.81 102.391 165.53 104.081C159.21 106.101 152.67 108.191 144.48 108.411C135.89 108.641 125.58 106.871 118.31 105.311C123.14 101.151 126.92 94.991 130.62 88.951Z" fill="#010101"/>
<path d="M174.26 341.03H169.73C163.65 341.03 158.72 336.1 158.72 330.02V211.02H185.28V330.01C185.27 336.1 180.34 341.03 174.26 341.03Z" fill="#C49A6C"/>
<path d="M505.7 607.38L327.04 605.76C281.47 605.35 244.85 568.07 245.27 522.49L245.65 480.27C246.06 434.7 283.34 398.08 328.92 398.5L507.58 400.12C553.15 400.53 589.77 437.81 589.35 483.39L588.97 525.61C588.56 571.18 551.28 607.79 505.7 607.38Z" fill="white" stroke="#C49A6C" stroke-width="5" stroke-miterlimit="10"/>
<path d="M401.4 526.36C394.78 526.31 388.17 526.25 381.55 526.2C381.57 523.17 381.6 520.14 381.63 517C380.72 516.99 380.02 516.99 379.32 516.98C366.8 516.88 354.29 516.88 341.77 516.64C332.93 516.47 326.55 512.22 322.85 504.19C322.08 502.52 321.71 500.66 321.16 498.88C321.18 497 321.19 495.11 321.21 493.23C321.34 492.85 321.51 492.48 321.58 492.09C323.34 482.89 331.72 475.77 341.15 475.77C354.02 475.76 366.9 475.94 379.77 476.03C380.46 476.04 381.15 476.04 382.02 476.05C382.05 472.7 382.07 469.56 382.1 466.34C388.74 466.39 395.2 466.45 401.84 466.5C401.83 467.3 401.83 467.99 401.82 468.69C401.68 485.39 401.54 502.09 401.41 518.8C401.38 521.31 401.4 523.83 401.4 526.36Z" fill="#808285"/>
<path d="M411.58 476.34C441.98 476.59 472.27 476.84 502.94 477.09C502.64 479.49 502.47 481.86 502.05 484.19C500.29 493.84 496.56 502.53 489.07 509.22C483.47 514.22 476.75 517.01 469.32 517.29C459.47 517.67 449.61 517.48 439.75 517.46C430.3 517.44 420.85 517.32 411.25 517.24C411.35 503.61 411.46 490.07 411.58 476.34Z" fill="#E6E7E8"/>
<path d="M419.58 732.82H415.04C408.96 732.82 404.03 727.89 404.03 721.81V602.82H430.59V721.81C430.59 727.89 425.66 732.82 419.58 732.82Z" fill="#C49A6C"/>
<path d="M663.33 80.1323C656.67 70.2523 646.92 62.8623 635.6 59.1123L635.57 59.0924C635.57 59.0924 639.07 54.3323 640.3 52.8223C640.71 52.2823 640.88 51.5923 640.79 50.9223C640.65 50.3523 640.37 49.8223 639.99 49.3823L624.13 34.9123C623.57 34.4023 622.81 34.1623 622.06 34.2723L594.89 38.0123C594.15 38.1523 593.5 38.5723 593.07 39.1923L581.72 57.3523C581.44 57.8723 581.32 58.4623 581.36 59.0523C581.49 59.7123 581.84 60.3023 582.34 60.7523L588.6 65.5924C563.94 82.2124 557.43 115.672 574.05 140.332C590.67 164.992 624.13 171.502 648.79 154.882C673.43 138.252 679.95 104.792 663.33 80.1323ZM624.18 41.8424L632.52 49.4123L622.7 50.7623L624.18 41.8424ZM632.58 54.5523L619.11 72.6524L621.85 56.0324L632.58 54.5523ZM613.31 84.6323C613.86 85.0323 614.54 85.2123 615.21 85.1423C615.87 84.9923 616.46 84.6423 616.9 84.1323L624.63 73.7623C644.7 77.0723 658.28 96.0324 654.97 116.092C651.66 136.162 632.7 149.742 612.64 146.432C592.57 143.122 578.99 124.162 582.3 104.102C584.28 92.1123 592.04 81.8723 603.05 76.7323L613.31 84.6323ZM606.34 58.1623L616.46 56.7723L613.68 74.0423L606.34 58.1623ZM619.28 39.7824L618.04 47.2523L613.34 40.6323L619.28 39.7824ZM615.03 51.8123L606.33 53.0123L609.57 44.1623L615.03 51.8123ZM604.99 41.7723L602.21 49.4523L599.05 42.5924L604.99 41.7723ZM608.11 74.1823L594.58 63.7223L590.26 60.4023L600.99 58.9223L608.11 74.1823ZM594.88 45.8723L598.59 54.0723L588.92 55.4023L594.88 45.8723ZM625.29 158.452C598.64 162.112 574.07 143.472 570.41 116.822C567.8 97.8123 576.59 79.0523 592.86 68.8823L598.62 73.2423C578.28 84.3223 570.78 109.802 581.87 130.132C592.96 150.462 618.43 157.972 638.76 146.882C659.09 135.792 666.6 110.322 655.51 89.9923C649.76 79.4523 639.77 71.8723 628.07 69.1923L632.43 63.4323C658.25 70.9923 673.04 98.0523 665.48 123.862C660.09 142.322 644.34 155.862 625.29 158.452Z" fill="#010101"/>
</svg>
