<svg width="127" height="146" viewBox="0 0 127 146" fill="none" xmlns="http://www.w3.org/2000/svg">
<path fill-rule="evenodd" clip-rule="evenodd" d="M88.1098 141.348C71.0398 143.228 59.8698 150.458 42.1098 141.558C41.3498 141.178 40.2999 141.338 39.6399 141.008C27.8199 135.098 23.6398 142.688 14.5198 122.928C11.657 117.153 10.9206 110.553 12.4399 104.288C13.0289 103.318 13.2189 102.156 12.9699 101.048C11.9699 96.0484 10.8099 90.9484 10.5999 85.8084C10.4499 82.1784 11.8498 78.9884 13.1098 75.6884C13.3344 74.972 13.3916 74.2137 13.2772 73.4717C13.1628 72.7298 12.8798 72.0239 12.4499 71.4084C10.2399 67.4084 12.6398 62.9284 14.7698 59.4684C15.4266 58.2751 16.33 57.2353 17.4199 56.4184C17.6043 56.2526 17.7749 56.072 17.9298 55.8784C17.4698 55.3384 17.0899 54.8084 16.6299 54.3484C14.8218 52.3816 13.2356 50.222 11.8998 47.9084C10.6635 45.9206 9.56755 43.8489 8.61985 41.7084C8.37991 41.1477 8.07445 40.6173 7.70985 40.1284C5.72326 37.3992 4.11847 34.4116 2.93986 31.2484C0.609858 25.3784 -0.410142 19.1884 0.939858 12.9584C1.28467 11.4471 1.8651 9.99937 2.65986 8.66842C4.23986 5.99842 6.93986 4.71839 9.56986 3.35839C15.1499 0.498394 19.0498 6.15843 20.6498 10.5784C22.7298 16.3184 23.6498 22.3484 25.5198 28.1484C26.2998 30.5984 27.2698 32.9884 28.2398 35.3784C28.6616 36.4475 29.2903 37.4228 30.0899 38.2484C31.2641 36.836 32.5481 35.5186 33.9298 34.3084C39.3998 29.8784 45.9298 26.4584 52.9298 25.5384C53.4498 25.4684 54.5899 25.5384 54.2799 26.4084C53.7934 27.5649 53.2494 28.6963 52.6498 29.7984C52.8098 29.8784 52.9098 29.9684 52.9598 29.9484C57.4477 27.8142 62.2669 26.4614 67.2098 25.9484C68.3034 25.6869 69.4363 25.6326 70.5498 25.7884C72.7498 26.5084 68.8199 28.5784 68.4199 28.8584C68.2044 29.0463 68.0068 29.2538 67.8298 29.4784C69.8298 29.3784 71.8299 28.9584 73.8299 28.9084C74.9099 28.9084 75.9799 28.7584 77.0599 28.7184C81.2199 28.5884 85.0598 29.7184 88.9798 30.9784C89.4798 31.1384 90.2999 31.4884 90.1499 32.1584C90.123 32.3468 90.0351 32.5212 89.8996 32.6548C89.7642 32.7885 89.5886 32.8741 89.3999 32.8984C88.4786 32.965 87.5722 33.1672 86.7099 33.4984C89.7872 34.0392 92.7754 35.0016 95.5899 36.3584C96.3229 35.2008 96.9424 33.9751 97.4399 32.6984C99.7219 27.2583 101.441 21.5987 102.57 15.8084C103.49 11.3984 103.7 5.80841 107.22 2.52841C109.49 0.388407 112.03 0.188397 114.91 0.768397C125.36 2.8884 123.91 19.4584 121.81 26.8584C119.04 36.6284 112.24 45.2284 104.74 51.8584C106.62 53.1384 107.35 55.1584 108.22 57.0584C110.29 61.5784 110.69 67.3584 110.07 72.2184C109.79 74.4084 112.6 83.7584 113.07 86.7284C115.01 99.4884 114.81 103.138 113.94 110.198C111.79 127.738 108.5 139.128 88.0799 141.368L88.1098 141.348Z" fill="#E2AF83"/>
<path fill-rule="evenodd" clip-rule="evenodd" d="M81.09 99.3704C81.1791 96.3708 80.7875 93.3763 79.93 90.5004C78.13 84.8304 72.82 82.6405 67.35 82.5805C64.5874 82.4947 61.8238 82.7161 59.11 83.2404C58.8443 83.309 58.5656 83.309 58.3 83.2404C56.74 82.7104 54.74 83.8204 53.45 84.6304C48.69 87.6304 47.14 94.5705 46.97 99.8205C46.8739 101.643 47.0049 103.47 47.36 105.26C50.14 118.26 68.06 122.48 76.69 112.77C79.82 109.26 81.23 103.95 81.09 99.3205V99.3704Z" fill="#E4E3E2"/>
<path fill-rule="evenodd" clip-rule="evenodd" d="M81.0902 99.3681C81.1643 101.947 80.7747 104.517 79.9402 106.958C79.2642 109.111 78.1586 111.105 76.6902 112.818C75.1593 114.607 73.2266 116.009 71.0502 116.908C69.3539 117.583 67.5621 117.988 65.7402 118.108C63.2537 118.315 60.7512 118.008 58.3878 117.209C56.0244 116.409 53.8503 115.132 52.0002 113.458C49.5906 111.328 47.9494 108.464 47.3302 105.308C46.9751 103.518 46.8441 101.691 46.9402 99.8681C47.0589 97.4384 47.4513 95.0298 48.1102 92.6881C51.5002 79.7481 76.0002 77.9981 79.9302 90.4981C80.7877 93.374 81.1794 96.3685 81.0902 99.3681V99.3681Z" fill="#E6E7E7"/>
<path fill-rule="evenodd" clip-rule="evenodd" d="M65.1299 92.4806C65.1999 93.4306 65.2599 94.3706 65.3499 95.3006C65.4399 96.2306 65.5899 97.3006 65.7199 98.2306C65.8527 99.5374 66.2912 100.795 66.9999 101.901C67.4632 102.562 68.1361 103.049 68.9099 103.281C69.1868 103.373 69.4809 103.4 69.7702 103.362C70.0594 103.324 70.3363 103.221 70.5799 103.061C71.2187 102.694 71.7471 102.162 72.1099 101.521C72.8196 100.328 73.2536 98.9923 73.3799 97.6106C73.4113 97.2107 73.4681 96.8132 73.5499 96.4206C73.6082 96.2122 73.703 96.0159 73.8299 95.8406C73.8665 95.7999 73.9112 95.7674 73.9612 95.7451C74.0111 95.7229 74.0652 95.7113 74.1199 95.7113C74.1746 95.7113 74.2287 95.7229 74.2787 95.7451C74.3286 95.7674 74.3733 95.7999 74.4099 95.8406C74.4959 95.957 74.5572 96.0896 74.5899 96.2306C74.6254 96.4458 74.6254 96.6654 74.5899 96.8806C74.4465 98.222 74.1546 99.5434 73.7199 100.821C73.3396 101.812 72.7296 102.7 71.9399 103.411C71.2037 104.08 70.2447 104.45 69.2499 104.45C68.2552 104.45 67.2961 104.08 66.5599 103.411C65.7704 102.698 65.1809 101.791 64.8499 100.781C64.5199 99.7806 64.2699 98.6806 63.9799 97.6106C63.7299 97.7106 63.7599 97.9806 63.7099 98.2106C63.4699 99.2106 63.2599 100.281 62.9799 101.291C62.8306 101.816 62.6085 102.317 62.3199 102.781C61.9927 103.358 61.4882 103.815 60.8813 104.083C60.2744 104.351 59.5972 104.417 58.9499 104.271C57.9725 104.1 57.085 103.594 56.4399 102.841C55.4239 101.63 54.8181 100.128 54.7099 98.5506C54.6748 98.0812 54.6748 97.6099 54.7099 97.1406C54.7025 97.0242 54.7397 96.9094 54.8137 96.8194C54.8878 96.7293 54.9933 96.6707 55.1089 96.6555C55.2245 96.6402 55.3415 96.6694 55.4364 96.7372C55.5313 96.805 55.5968 96.9063 55.6199 97.0206C55.7226 97.2519 55.7868 97.4985 55.8099 97.7506C55.9823 99.0591 56.4658 100.307 57.2199 101.391C57.4423 101.791 57.7534 102.136 58.1296 102.397C58.5058 102.659 58.9369 102.831 59.3899 102.901C59.7322 102.969 60.0872 102.931 60.4072 102.791C60.7272 102.652 60.9968 102.418 61.1799 102.121C61.7887 101.126 62.2501 100.048 62.5499 98.9206C63.1266 96.8835 63.4622 94.7858 63.5499 92.6706C63.5487 92.5324 63.5319 92.3949 63.4999 92.2606C62.8142 91.926 62.1466 91.5555 61.4999 91.1506C60.5599 90.4706 59.6599 89.7206 58.7699 88.9606C58.1099 88.4006 57.4599 87.8006 56.8499 87.1806C56.5115 86.8519 56.2339 86.4659 56.0299 86.0406C55.7949 85.6014 55.7087 85.0978 55.7845 84.6055C55.8602 84.1132 56.0937 83.6588 56.4499 83.3106C57.0119 82.6849 57.7146 82.2016 58.4999 81.9006C61.3458 80.8394 64.4046 80.4759 67.4199 80.8406C68.3241 80.936 69.2178 81.1133 70.0899 81.3706C70.4325 81.4796 70.7667 81.6133 71.0899 81.7706C71.5237 81.9672 71.8898 82.2875 72.1424 82.6913C72.395 83.0951 72.5229 83.5644 72.5099 84.0406C72.5019 84.7719 72.313 85.49 71.9599 86.1306C71.4007 87.1169 70.6923 88.0108 69.8599 88.7806C69.2799 89.3406 68.6699 89.8606 68.1099 90.4306C67.2777 91.3199 66.2509 92.0044 65.1099 92.4306L65.1299 92.4806Z" fill="#6E6F71"/>
<path fill-rule="evenodd" clip-rule="evenodd" d="M7.58008 19.9995C7.59834 19.484 7.64509 18.9699 7.72009 18.4595C7.73427 18.1174 7.85088 17.7873 8.05478 17.5122C8.25868 17.237 8.5405 17.0295 8.86374 16.9163C9.18697 16.8032 9.53673 16.7897 9.86771 16.8776C10.1987 16.9656 10.4956 17.1509 10.7201 17.4095C11.1045 17.7565 11.4408 18.1534 11.7201 18.5895C12.5304 19.8037 13.2013 21.1051 13.7201 22.4695C15.1901 26.3995 16.7201 30.3295 18.1001 34.2995C19.3501 37.8795 20.6301 41.4495 22.1001 44.9395C22.4101 45.6695 22.7701 46.3795 23.1001 47.0995C23.2287 47.3512 23.339 47.6119 23.4301 47.8795C23.4963 48.0306 23.5137 48.1986 23.4796 48.3601C23.4455 48.5215 23.3618 48.6682 23.2401 48.7796C23.1042 48.8976 22.9351 48.9706 22.756 48.9885C22.5769 49.0064 22.3966 48.9683 22.2401 48.8795C21.962 48.7054 21.7096 48.4934 21.4901 48.2495C20.9483 47.6661 20.4408 47.0517 19.9701 46.4095C18.4101 44.2495 16.7801 42.1295 15.3401 39.8895C12.7792 36.1506 10.668 32.1228 9.05008 27.8895C8.26038 25.3397 7.80985 22.697 7.71008 20.0295L7.58008 19.9995Z" fill="#E6E7E7"/>
<path fill-rule="evenodd" clip-rule="evenodd" d="M115 23.1797C114.862 25.2312 114.333 27.2374 113.44 29.0897C112.514 30.9854 111.444 32.8073 110.24 34.5397C109.38 35.8297 108.48 37.0797 107.57 38.3297C106.003 40.257 104.284 42.0561 102.43 43.7097C102.361 43.7718 102.288 43.8287 102.21 43.8797C102.098 43.9647 101.964 44.0155 101.824 44.0262C101.684 44.0368 101.544 44.0068 101.42 43.9397C101.299 43.8663 101.205 43.7553 101.152 43.6235C101.1 43.4917 101.092 43.3464 101.13 43.2097C101.16 43.028 101.21 42.8502 101.28 42.6797C101.353 42.5029 101.44 42.3323 101.54 42.1697C102.745 39.9538 103.749 37.6345 104.54 35.2397C105.78 31.6097 107.16 28.0297 108.54 24.4397C108.955 23.4063 109.443 22.4037 110 21.4397C110.356 20.8341 110.778 20.2705 111.26 19.7597C111.477 19.492 111.763 19.2889 112.087 19.1727C112.411 19.0565 112.761 19.0316 113.099 19.1008C113.436 19.1699 113.748 19.3304 114.001 19.5648C114.253 19.7991 114.436 20.0983 114.53 20.4297C114.699 20.8637 114.814 21.3173 114.87 21.7797C114.94 22.2397 114.94 22.7097 114.98 23.2097L115 23.1797Z" fill="#E6E7E7"/>
<path fill-rule="evenodd" clip-rule="evenodd" d="M20.3801 75.6693C20.6004 75.6468 20.8229 75.6748 21.0308 75.751C21.2387 75.8272 21.4266 75.9497 21.5801 76.1093C22.534 76.6894 23.6014 77.0577 24.7101 77.1893C24.8212 77.2186 24.9388 77.2111 25.0452 77.1678C25.1516 77.1245 25.2411 77.0478 25.3001 76.9493C25.3425 76.8989 25.3734 76.8399 25.3905 76.7763C25.4076 76.7127 25.4105 76.6461 25.3991 76.5813C25.3876 76.5164 25.3621 76.4549 25.3243 76.401C25.2864 76.3471 25.2372 76.3021 25.1801 76.2693C24.419 75.7126 23.8662 74.9169 23.6101 74.0093C23.4986 73.5509 23.4416 73.081 23.4401 72.6093C23.4401 72.5293 23.5901 72.3793 23.7001 72.3493C23.8101 72.3193 24.0201 72.3493 24.0701 72.4293C24.3701 72.8093 24.6501 73.2093 24.9101 73.6093C25.2052 74.1811 25.6469 74.6643 26.1901 75.0093C26.5001 74.6593 26.7801 74.3193 27.0801 74.0093C27.6954 73.2926 28.4494 72.7078 29.2966 72.2902C30.1439 71.8726 31.0669 71.6308 32.0101 71.5793C33.0891 71.4793 34.1743 71.6852 35.1417 72.1733C36.1091 72.6614 36.9195 73.4121 37.4801 74.3393C38.1232 75.3858 38.5007 76.5736 38.5801 77.7993C38.6435 78.4439 38.6669 79.0918 38.6501 79.7393C38.6701 79.9553 38.6322 80.1728 38.5401 80.3693C38.4401 80.5293 38.2101 80.7293 38.0401 80.7193C37.9386 80.6914 37.8441 80.6423 37.763 80.575C37.682 80.5078 37.6162 80.424 37.5701 80.3293C37.492 80.0828 37.4449 79.8275 37.4301 79.5693C37.3701 79.0993 37.3101 78.6293 37.2401 78.1593C36.9845 76.6608 36.1874 75.3085 35.0001 74.3593C34.6509 74.051 34.2438 73.8153 33.8026 73.6659C33.3614 73.5165 32.8948 73.4565 32.4301 73.4893C29.5301 73.6893 27.4801 74.9693 26.8001 77.7093C26.6101 78.4693 26.4401 79.2293 26.2501 79.9893C26.1819 80.2845 26.0951 80.575 25.9901 80.8593C25.9487 80.9897 25.8677 81.1041 25.7585 81.1865C25.6492 81.269 25.517 81.3153 25.3801 81.3193C25.2213 81.3194 25.067 81.2663 24.9419 81.1684C24.8168 81.0705 24.7282 80.9335 24.6901 80.7793C24.6235 80.5284 24.5965 80.2686 24.6101 80.0093C24.6101 79.6193 24.6801 79.2393 24.7201 78.7593C24.3501 78.7593 23.9901 78.6893 23.6401 78.6293C22.9794 78.5774 22.3431 78.3571 21.7916 77.9895C21.2402 77.6219 20.7921 77.1192 20.4901 76.5293C20.4069 76.254 20.3697 75.9667 20.3801 75.6793V75.6693Z" fill="#6E6F71"/>
<path fill-rule="evenodd" clip-rule="evenodd" d="M99 75.6318C100.3 75.1518 100.74 73.6319 101.92 73.1419C102.062 73.264 102.151 73.4358 102.169 73.6219C102.188 73.808 102.135 73.9941 102.02 74.1419C101.716 74.7822 101.228 75.318 100.62 75.6818C100.2 75.9618 99.76 76.2318 99.34 76.5018C99.3043 76.7417 99.3207 76.9864 99.388 77.2193C99.4553 77.4522 99.5719 77.6679 99.7299 77.8518C100.906 77.7056 102.001 77.1788 102.85 76.3518C103.075 76.1212 103.323 75.9135 103.59 75.7318C103.673 75.6996 103.763 75.6882 103.852 75.6987C103.941 75.7091 104.026 75.7411 104.1 75.7918C104.158 75.8564 104.203 75.9325 104.23 76.0151C104.258 76.0977 104.268 76.1851 104.26 76.2719C104.205 76.525 104.1 76.7643 103.951 76.9757C103.801 77.1871 103.61 77.3661 103.39 77.5018C102.738 77.963 101.994 78.28 101.21 78.4318L99.8499 78.7518C99.8499 79.1318 99.7899 79.4518 99.7399 79.7518C99.7216 80.0339 99.6468 80.3093 99.52 80.5618C99.367 80.7854 99.1461 80.9537 98.89 81.0418C98.7302 81.089 98.5589 81.0777 98.4068 81.0098C98.2546 80.942 98.1317 80.8222 98.06 80.6718C97.9214 80.4308 97.8171 80.1717 97.75 79.9019C97.59 79.3119 97.4599 78.7118 97.2999 78.1318C97.0357 77.1332 96.5732 76.198 95.94 75.3818C95.2195 74.4756 94.2116 73.8421 93.0827 73.5858C91.9537 73.3294 90.7711 73.4656 89.7299 73.9718C88.2692 74.6577 87.1199 75.8678 86.51 77.3618C86.3 77.8718 86.0599 78.3618 85.7999 78.8718C85.7571 78.921 85.7026 78.9587 85.6415 78.9815C85.5803 79.0042 85.5145 79.0112 85.45 79.0018C85.3905 78.9805 85.3358 78.9473 85.2894 78.9044C85.243 78.8614 85.2058 78.8095 85.1799 78.7518C85.1236 78.623 85.1062 78.4805 85.13 78.3419C85.1639 78.0635 85.2241 77.7889 85.31 77.5219C85.7141 76.2393 86.4131 75.0693 87.3508 74.1055C88.2886 73.1418 89.439 72.411 90.71 71.9718C91.8536 71.5192 93.1087 71.429 94.3053 71.7134C95.5019 71.9978 96.5823 72.6431 97.4 73.5618C97.9754 74.2218 98.5097 74.9164 99 75.6419V75.6318Z" fill="#6E6F71"/>
<path fill-rule="evenodd" clip-rule="evenodd" d="M101.65 110.199C97.5503 110.019 94.5703 108.439 92.7803 104.919C92.4309 104.256 92.2165 103.53 92.1496 102.784C92.0827 102.037 92.1645 101.284 92.3903 100.569C92.7458 99.1279 93.5175 97.8226 94.6092 96.8163C95.7009 95.8099 97.0645 95.1467 98.5303 94.9095L100.59 94.4895C101.798 94.1908 103.057 94.1623 104.278 94.406C105.498 94.6498 106.65 95.1597 107.65 95.8995C108.454 96.4693 109.125 97.2055 109.618 98.0579C110.112 98.9103 110.416 99.859 110.51 100.84C110.96 105.07 108.84 108.459 104.17 109.789C103.34 109.979 102.498 110.116 101.65 110.199V110.199Z" fill="#F0D5D7"/>
<path fill-rule="evenodd" clip-rule="evenodd" d="M36 103.27C36.0783 104.452 35.869 105.635 35.39 106.719C34.9111 107.802 34.1768 108.753 33.25 109.49C31.6488 110.805 29.6848 111.6 27.62 111.77C27.0598 111.787 26.5002 111.72 25.96 111.57C24.1581 111.178 22.5472 110.174 21.4 108.73C20.7623 108.005 20.3093 107.136 20.0795 106.197C19.8496 105.259 19.8498 104.279 20.08 103.34C20.2902 102.48 20.5677 101.637 20.91 100.82C21.3157 99.9128 21.9712 99.1394 22.8 98.5904C23.974 97.7341 25.2913 97.0941 26.69 96.7004C31.31 95.4704 35.39 98.9904 35.87 102.21C35.94 102.67 35.99 103.14 36 103.27V103.27Z" fill="#F0D5D7"/>
<path fill-rule="evenodd" clip-rule="evenodd" d="M51 40.2407C51 40.4007 50.95 40.4707 50.93 40.5407C50.91 40.6107 50.83 40.7207 50.73 40.7007C50.6385 40.6846 50.5563 40.6346 50.5 40.5607C50.4593 40.4983 50.4384 40.4251 50.44 40.3507C50.3631 39.6862 50.3631 39.0151 50.44 38.3507C50.44 38.1907 50.44 38.0007 50.66 37.9207C50.88 37.8407 50.89 38.0307 50.96 38.3307C51.0837 38.9902 51.104 39.665 51.02 40.3307L51 40.2407Z" fill="#E6E7E7"/>
<path fill-rule="evenodd" clip-rule="evenodd" d="M62.9998 37.9985C62.9998 38.1585 62.9998 38.2285 62.9398 38.2985C62.8798 38.3685 62.8398 38.4785 62.7298 38.4585C62.6429 38.4377 62.5654 38.3884 62.5098 38.3185C62.4661 38.257 62.4418 38.1839 62.4398 38.1085C62.3677 37.4438 62.3677 36.7732 62.4398 36.1085C62.4398 35.9485 62.4398 35.7585 62.6498 35.6785C62.8598 35.5985 62.8898 35.7885 62.9498 36.0885C63.0707 36.7182 63.0875 37.3634 62.9998 37.9985Z" fill="#E6E7E7"/>
<path fill-rule="evenodd" clip-rule="evenodd" d="M57.8602 49.4489C57.8602 49.6089 57.8602 49.6889 57.8002 49.7589C57.7402 49.8289 57.7002 49.9389 57.5902 49.9189C57.5049 49.8944 57.4285 49.8459 57.3702 49.7789C57.3263 49.7138 57.302 49.6374 57.3002 49.5589C57.2274 48.8942 57.2274 48.2236 57.3002 47.5589C57.3002 47.3889 57.3002 47.1989 57.5102 47.1289C57.7202 47.0589 57.7502 47.2289 57.8102 47.5389C57.9388 48.1776 57.9591 48.8334 57.8702 49.4789L57.8602 49.4489Z" fill="#E6E7E7"/>
<path fill-rule="evenodd" clip-rule="evenodd" d="M67.77 49.3188C67.77 49.4688 67.77 49.5488 67.7 49.6188C67.63 49.6888 67.6 49.7988 67.5 49.7788C67.4118 49.7546 67.3321 49.706 67.27 49.6388C67.2293 49.5765 67.2084 49.5032 67.21 49.4288C67.1331 48.7643 67.1331 48.0932 67.21 47.4288C67.21 47.2688 67.21 47.0788 67.43 46.9988C67.65 46.9188 67.66 47.1088 67.73 47.4088C67.8539 48.0683 67.8742 48.7431 67.79 49.4088L67.77 49.3188Z" fill="#E6E7E7"/>
<path fill-rule="evenodd" clip-rule="evenodd" d="M72.8599 40.6499C72.8599 40.8099 72.8099 40.8899 72.7899 40.9599C72.7699 41.0299 72.6899 41.1398 72.5899 41.1198C72.4992 41.0956 72.4186 41.0431 72.3599 40.9698C72.3205 40.9062 72.2965 40.8343 72.2899 40.7598C72.2178 40.0951 72.2178 39.4246 72.2899 38.7598C72.2899 38.5998 72.2899 38.4099 72.4999 38.3399C72.7099 38.2699 72.7399 38.4398 72.8099 38.7498C72.9286 39.3897 72.9488 40.0439 72.8699 40.6898L72.8599 40.6499Z" fill="#E6E7E7"/>
<path fill-rule="evenodd" clip-rule="evenodd" d="M62.5402 55.3696C62.5274 55.4718 62.5039 55.5723 62.4702 55.6696C62.4702 55.7696 62.3702 55.8496 62.2702 55.8296C62.1862 55.8196 62.1093 55.7776 62.0554 55.7125C62.0014 55.6474 61.9745 55.564 61.9802 55.4796C61.8985 54.8154 61.8985 54.1437 61.9802 53.4796C61.9802 53.3196 61.9802 53.1296 62.1902 53.0496C62.4002 52.9696 62.4202 53.1596 62.4902 53.4596C62.6245 54.1179 62.6448 54.7944 62.5502 55.4596L62.5402 55.3696Z" fill="#E6E7E7"/>
<path fill-rule="evenodd" clip-rule="evenodd" d="M20.3299 56.9983L18.1899 57.1783C17.0399 57.2883 15.8399 57.4283 14.6299 57.5983L13.8499 57.7084L12.3699 57.9083H12.1199C10.7699 58.0683 9.35988 58.2384 7.99988 58.5184C7.24413 58.6603 6.49902 58.8541 5.76987 59.0983C5.09714 59.3142 4.4526 59.6097 3.84988 59.9783C3.31365 60.3044 2.85608 60.7449 2.50989 61.2684C2.19515 61.8398 1.98518 62.4629 1.88989 63.1083C1.73599 63.8895 1.649 64.6824 1.62988 65.4783C1.62988 65.8483 1.62988 66.2483 1.62988 66.6583C1.65027 67.0179 1.69705 67.3756 1.76987 67.7283C1.82655 68.0115 1.91723 68.2869 2.03989 68.5483C2.13464 68.7246 2.24507 68.8919 2.36987 69.0483C2.51919 69.229 2.69053 69.3903 2.87988 69.5284C3.04064 69.6404 3.21137 69.7375 3.38989 69.8183V69.8183C3.56252 69.8924 3.73952 69.9559 3.91989 70.0084C4.23727 70.3112 4.52212 70.6463 4.76987 71.0084C4.96225 71.3223 5.11669 71.658 5.22989 72.0084C5.38183 72.5062 5.49876 73.0142 5.57986 73.5284L5.66989 73.9983C5.80989 74.7183 5.94988 75.3883 6.09988 75.9983C6.40215 77.3516 6.7794 78.687 7.22989 79.9983C8.06959 82.5601 9.43162 84.9198 11.2299 86.9283C11.7225 87.4502 12.2468 87.9411 12.7999 88.3984C13.3411 88.8441 13.9052 89.2613 14.4899 89.6484C15.6053 90.3897 16.7678 91.0578 17.9699 91.6484C20.3407 92.8373 22.8499 93.7274 25.4399 94.2983C28.3461 94.9434 31.3302 95.1657 34.2999 94.9584C36.597 94.7889 38.8643 94.3354 41.0499 93.6083C43.5841 92.7607 45.9672 91.5151 48.1099 89.9183C49.2359 89.0818 50.2836 88.1447 51.2399 87.1183C52.2221 86.0417 53.0746 84.8536 53.7799 83.5784C54.6545 81.9802 55.384 80.3068 55.9599 78.5784C56.0113 78.5287 56.0491 78.4667 56.0699 78.3984V78.3984L56.2399 77.7784C56.4299 77.2084 56.6199 76.6283 56.7999 76.0683L56.8499 75.9083C57.1599 74.9083 57.4499 74.0483 57.7399 73.1883C57.9299 72.7383 58.1199 72.3183 58.3199 71.9283C58.7192 71.1205 59.2162 70.3649 59.7999 69.6783C60.1505 69.3053 60.5393 68.9701 60.9599 68.6783C61.2945 68.4602 61.6536 68.2824 62.0299 68.1484C62.4218 68.0187 62.8282 67.9381 63.2399 67.9083C63.7596 67.8809 64.2806 67.9213 64.7899 68.0284C65.2723 68.1242 65.742 68.2751 66.1899 68.4783C66.4713 68.6304 66.736 68.8114 66.9799 69.0184C67.3544 69.3071 67.6964 69.6357 67.9999 69.9983C68.5798 70.9387 69.0432 71.9461 69.3799 72.9983C69.5299 73.4383 69.6699 73.8884 69.8099 74.3284L70.0599 75.0884C70.2699 75.7584 70.5399 76.4684 70.8799 77.3284C71.569 79.0915 72.3844 80.8026 73.3199 82.4484C74.253 84.1037 75.381 85.6413 76.6799 87.0284C77.3202 87.6991 78.0161 88.3146 78.7599 88.8683C79.5126 89.4228 80.3201 89.8986 81.1699 90.2883C82.8642 91.0387 84.6604 91.5341 86.4999 91.7584C88.3538 91.9968 90.2207 92.1204 92.0899 92.1283H93.6099H94.8499H94.9399H97.3799C98.8499 92.1283 100.18 92.1283 101.44 91.9883L102.62 91.8884C106.094 91.6633 109.469 90.6364 112.48 88.8884C113.211 88.4259 113.904 87.9042 114.55 87.3284C115.214 86.7161 115.823 86.0468 116.37 85.3284C117.528 83.7878 118.489 82.108 119.23 80.3284C120.354 77.6843 121.221 74.9384 121.82 72.1283C121.98 71.4483 122.13 70.7783 122.26 70.1283C122.39 69.4783 122.46 68.8583 122.51 68.3783C122.51 68.0783 122.51 67.7783 122.59 67.4783C122.644 66.6032 122.747 65.7318 122.9 64.8683C123.019 64.324 123.197 63.7943 123.43 63.2883C123.592 62.9934 123.783 62.7154 124 62.4584C124.11 62.3484 124.22 62.2383 124.35 62.1283C124.487 62.0034 124.634 61.8897 124.79 61.7883V61.7883C125.178 61.5148 125.516 61.1765 125.79 60.7883C126.015 60.4847 126.191 60.1472 126.31 59.7883C126.437 59.4009 126.505 58.9962 126.51 58.5884C126.496 57.7351 126.316 56.8926 125.98 56.1083C125.828 55.722 125.648 55.3477 125.44 54.9883C125.269 54.6957 125.057 54.4296 124.81 54.1984C123.734 53.3339 122.4 52.8551 121.02 52.8384C119.937 52.7696 118.85 52.7863 117.77 52.8884H117.06H116.74H116.47H116.09H115.22H115L113.15 52.9584L109.61 53.1183C107.38 53.2283 105.34 53.3483 103.35 53.4883L102.53 53.5583C97.8158 53.8947 93.1226 54.4788 88.4698 55.3083C82.3798 56.4383 76.7499 57.3083 70.7799 58.5383C67.5023 59.2934 64.1783 59.8312 60.8299 60.1484H60.5899C59.4008 60.2132 58.209 60.2132 57.0199 60.1484C55.9499 60.0984 54.8099 59.9984 53.5299 59.8384C51.0999 59.5484 48.6599 59.0883 46.5299 58.6783L44.7899 58.3384C43.0799 57.9984 41.3099 57.6484 39.5699 57.3384C38.3399 57.1284 37.1999 56.9583 36.0799 56.8183C34.9599 56.6783 33.8999 56.5883 32.5499 56.4983C28.4669 56.2287 24.37 56.2488 20.2899 56.5583L20.3299 56.9983Z" fill="#6E6F71"/>
<path fill-rule="evenodd" clip-rule="evenodd" d="M19.1602 86.4512C18.3725 86.0512 17.608 85.6071 16.8702 85.1212C16.1513 84.6534 15.4662 84.1355 14.8202 83.5712C13.9403 82.7686 13.1612 81.8619 12.5002 80.8712C11.7328 79.6958 11.1147 78.4294 10.6602 77.1012C10.1145 75.4567 9.77856 73.7499 9.6602 72.0213C9.61522 71.2019 9.61522 70.3806 9.6602 69.5612C9.6602 69.1412 9.7202 68.7012 9.7802 68.2512C9.8402 67.8012 9.87019 67.4613 9.96019 67.0313C10.0806 66.466 10.2721 65.9183 10.5302 65.4013C10.7852 64.9072 11.101 64.447 11.4702 64.0313C11.9319 63.5209 12.456 63.0707 13.0302 62.6912C13.9133 62.131 14.86 61.6779 15.8502 61.3413C20.2502 59.8813 24.8502 60.2313 29.4202 60.5813L30.9002 60.6912C31.8002 60.7512 32.5902 60.8013 33.3402 60.8313C34.0902 60.8613 34.7702 60.9313 35.6702 61.0313L37.6702 61.2813C38.5702 61.4013 39.5002 61.5312 40.4102 61.6212L41.2602 61.6912L42.3502 61.9112H42.2902C42.9102 62.0412 43.5402 62.1512 44.1502 62.2612L46.0002 62.6112C47.4433 62.8846 48.8471 63.3347 50.1802 63.9512C50.7561 64.249 51.2963 64.6113 51.7902 65.0313C52.1635 65.3632 52.4988 65.7355 52.7902 66.1412C53.0564 66.5622 53.2744 67.0116 53.4402 67.4812C53.6565 68.1594 53.7908 68.8611 53.8402 69.5712C53.8867 70.7894 53.7826 72.0086 53.5302 73.2012C52.9604 75.7259 52.0663 78.1661 50.8702 80.4613V80.4613C50.5202 81.1613 50.2102 81.7212 49.8702 82.2312C49.4232 82.9599 48.9146 83.6491 48.3502 84.2912C47.6152 85.0977 46.7859 85.8128 45.8802 86.4212C44.7968 87.1215 43.6314 87.6857 42.4102 88.1012C40.4353 88.7305 38.3894 89.1101 36.3202 89.2312H36.0902C34.4248 89.3251 32.7555 89.3251 31.0902 89.2312C29.3465 89.1498 27.6115 88.9359 25.9002 88.5913C23.5986 88.1227 21.3669 87.3598 19.2602 86.3212L19.1602 86.4512Z" fill="#010101"/>
<path fill-rule="evenodd" clip-rule="evenodd" d="M74.8299 74.7398C74.1204 72.7093 73.68 70.5947 73.5199 68.4498C73.4348 67.4487 73.4751 66.4409 73.6398 65.4498C73.7361 65.0184 73.8804 64.5992 74.0698 64.1998C74.2503 63.8599 74.4683 63.5412 74.7198 63.2498C78.4398 59.2498 87.7198 58.5698 92.3498 58.2498L93.4599 58.1698C97.3497 57.7688 101.265 57.6719 105.17 57.8798C106.911 58.0129 108.643 58.2399 110.36 58.5598C111.625 58.8159 112.854 59.2257 114.02 59.7798C114.633 60.0903 115.207 60.473 115.73 60.9198C116.065 61.2199 116.367 61.5551 116.63 61.9198C116.898 62.3467 117.116 62.8031 117.28 63.2798C117.529 64.0748 117.676 64.8979 117.72 65.7298C117.785 67.0636 117.755 68.4003 117.63 69.7298C117.513 71.1653 117.302 72.5917 117 73.9998C116.577 76.1599 115.871 78.2546 114.9 80.2298C114.358 81.3073 113.686 82.3147 112.9 83.2298C112.327 83.8759 111.676 84.4471 110.96 84.9298C109.815 85.659 108.586 86.2466 107.3 86.6798C105.135 87.3771 102.89 87.7971 100.62 87.9298H100.24C97.7824 88.0594 95.3187 88.0026 92.8698 87.7598C91.8698 87.6598 90.8698 87.5298 89.8698 87.3998L89.4198 87.3398C88.2298 87.1798 86.9999 87.0198 85.7799 86.7798C84.4762 86.5432 83.2066 86.1468 81.9998 85.5998C81.324 85.241 80.6902 84.8084 80.1098 84.3098C79.3988 83.6521 78.7708 82.9099 78.2398 82.0998C77.5405 81.0047 76.9255 79.8581 76.3999 78.6698C75.8036 77.4046 75.2729 76.1096 74.8098 74.7898V74.7898L74.8299 74.7398Z" fill="#010101"/>
<path fill-rule="evenodd" clip-rule="evenodd" d="M122.43 55.8503C122.001 55.9351 121.579 56.0556 121.17 56.2104C121.013 56.2633 120.859 56.3268 120.71 56.4004C120.561 56.4656 120.423 56.5532 120.3 56.6603C120.179 56.7741 120.102 56.926 120.08 57.0904C120.076 57.2011 120.099 57.3112 120.148 57.4106C120.197 57.5101 120.27 57.5959 120.36 57.6603C120.427 57.7193 120.501 57.7697 120.58 57.8104C120.643 57.8716 120.718 57.9193 120.8 57.9504C120.979 57.9748 121.161 57.9748 121.34 57.9504C121.493 57.9606 121.647 57.9606 121.8 57.9504C122.088 57.9319 122.375 57.8984 122.66 57.8503C123.024 57.8019 123.38 57.7078 123.72 57.5704C123.864 57.5159 123.996 57.4345 124.11 57.3304C124.285 57.1763 124.396 56.9621 124.42 56.7303C124.43 56.5046 124.355 56.2833 124.21 56.1103C124.082 55.9611 123.911 55.8561 123.72 55.8104C123.478 55.7536 123.228 55.7367 122.98 55.7604C122.795 55.7732 122.612 55.7966 122.43 55.8304V55.8503Z" fill="#E4E3E2"/>
<path fill-rule="evenodd" clip-rule="evenodd" d="M5.09995 62.1505C4.84531 62.1892 4.59441 62.2494 4.34995 62.3305L3.97995 62.5004C3.90963 62.5379 3.8427 62.5814 3.77994 62.6304C3.69435 62.6953 3.6229 62.777 3.56995 62.8704C3.52142 62.9733 3.50074 63.0871 3.50995 63.2005C3.51951 63.3084 3.55673 63.412 3.61804 63.5014C3.67935 63.5907 3.76265 63.6627 3.85993 63.7105L4.03995 63.7805C4.11016 63.8249 4.18821 63.8554 4.26993 63.8704H4.57993C4.93993 63.9204 5.30993 63.9405 5.67993 63.9605C6.04284 63.9852 6.40702 63.9852 6.76993 63.9605C6.94794 63.9436 7.12487 63.9169 7.29993 63.8804C7.44742 63.8527 7.58524 63.7872 7.69995 63.6904C7.79954 63.6242 7.88182 63.535 7.93994 63.4304C7.99276 63.3145 8.01678 63.1876 8.00995 63.0604C8.00353 62.8882 7.94021 62.7229 7.82993 62.5905C7.69088 62.4218 7.5169 62.2853 7.31995 62.1904C7.1061 62.1032 6.88013 62.0493 6.64993 62.0305C6.35379 62.0055 6.05609 62.0055 5.75995 62.0305L5.09995 62.1204V62.1505Z" fill="#E4E3E2"/>
</svg>
