<svg width="849" height="561" viewBox="0 0 849 561" fill="none" xmlns="http://www.w3.org/2000/svg">
<path d="M309.51 300.719L353.74 512.929C358.16 534.129 344.55 554.899 323.36 559.319C302.16 563.739 281.39 550.129 276.97 528.939L232.74 316.729" fill="#C49A6C"/>
<path d="M604.57 323.031L544 531.171C537.95 551.961 516.19 563.911 495.4 557.861C474.61 551.811 462.66 530.051 468.71 509.261L529.27 301.121" fill="#C49A6C"/>
<path d="M703.03 357.17L427.87 277.11C379.09 262.92 351.05 211.86 365.24 163.08L393.11 67.28C407.3 18.5 458.36 -9.54003 507.14 4.64997L782.3 84.71C831.08 98.9 859.12 149.96 844.93 198.74L817.06 294.54C802.86 343.32 751.81 371.36 703.03 357.17Z" fill="#D1D3D4"/>
<path d="M460.875 155.955L448.303 152.088L466.931 91.5289L479.503 95.396L460.875 155.955ZM496.044 166.773L514.671 106.214L527.202 110.068L520.1 133.158L543.765 140.437L550.867 117.347L563.439 121.214L544.811 181.773L532.239 177.906L540.555 150.873L516.89 143.593L508.575 170.627L496.044 166.773ZM587.376 171.031C586.494 171.269 585.622 171.421 584.763 171.486C583.939 171.533 582.832 171.477 581.441 171.319L578.66 171.003C576.06 170.683 574.129 170.674 572.867 170.975C570.731 171.488 569.318 172.867 568.627 175.113C568.012 177.112 568.113 178.732 568.93 179.973C569.784 181.195 571.005 182.05 572.593 182.539C575.113 183.314 577.655 183.286 580.219 182.456C582.811 181.634 584.75 179.278 586.037 175.386L587.376 171.031ZM581.949 163.381C584.197 163.772 585.85 163.906 586.908 163.781C588.798 163.583 589.974 162.731 590.438 161.224C591.002 159.389 590.746 157.931 589.669 156.851C588.629 155.751 586.876 154.822 584.41 154.064C581.644 153.213 579.475 153.295 577.903 154.311C576.77 155.072 575.801 156.273 574.996 157.914L563.698 154.439C565.149 150.598 567.235 147.716 569.955 145.795C574.263 142.802 580.183 142.465 587.715 144.782C592.618 146.29 596.674 148.602 599.883 151.717C603.092 154.833 603.867 159.089 602.207 164.485L595.888 185.027C595.45 186.452 594.947 188.186 594.378 190.229C593.988 191.788 593.901 192.901 594.116 193.566C594.331 194.232 594.767 194.861 595.425 195.453L594.894 197.179L582.157 193.261C582.079 192.248 582.094 191.323 582.201 190.486C582.309 189.65 582.477 188.712 582.707 187.674C580.552 188.929 578.23 189.849 575.742 190.433C572.775 191.11 569.704 190.959 566.526 189.982C562.473 188.735 559.471 186.553 557.522 183.435C555.609 180.298 555.305 176.607 556.611 172.361C558.304 166.856 561.653 163.523 566.657 162.364C569.398 161.738 573.116 161.833 577.813 162.648L581.949 163.381ZM644.207 163.328L656.779 167.195L626.858 207.011L614.491 203.207L612.202 153.483L625.349 157.527L624.515 193.428L644.207 163.328ZM678.498 183.14C675.786 182.306 673.416 182.506 671.387 183.741C669.386 184.984 667.747 186.998 666.47 189.784L684.671 195.382C685.431 192.228 685.207 189.595 683.997 187.484C682.823 185.355 680.99 183.906 678.498 183.14ZM681.468 173.485C685.193 174.63 688.333 176.361 690.889 178.676C693.445 180.991 695.232 183.955 696.25 187.566C697.185 190.762 697.374 194.193 696.816 197.859C696.486 200.005 695.699 203.002 694.456 206.847L663.807 197.419C662.59 201.962 663.031 205.545 665.132 208.17C666.403 209.79 668.175 210.95 670.448 211.649C672.858 212.391 675.027 212.308 676.955 211.402C678.004 210.915 679.046 210.112 680.08 208.991L692.036 212.668C690.917 215.232 688.704 217.505 685.397 219.485C680.223 222.661 674.184 223.187 667.282 221.064C661.585 219.312 657.124 215.93 653.898 210.921C650.671 205.911 650.331 199.27 652.875 190.998C655.259 183.247 659.046 177.906 664.235 174.975C669.451 172.052 675.195 171.555 681.468 173.485ZM735.415 190.214C740.044 191.637 743.449 194.019 745.63 197.358C747.847 200.678 748.091 205.146 746.364 210.761L737.088 240.917L725.092 237.227L733.47 209.988C734.195 207.632 734.436 205.728 734.193 204.274C733.751 201.619 731.913 199.795 728.681 198.801C724.71 197.579 721.466 198.425 718.951 201.339C717.637 202.884 716.554 205.039 715.703 207.805L708.247 232.046L696.579 228.456L710.328 183.756L721.627 187.232L719.617 193.764C721.831 191.927 723.765 190.708 725.419 190.107C728.386 189.041 731.718 189.076 735.415 190.214ZM760.888 202.726C763.834 202.703 766.125 201.833 767.762 200.118C768.68 199.082 769.288 197.934 769.585 196.677L763.135 194.692L766.458 183.887L778.167 187.489L775.501 196.158C774.229 200.294 772.213 203.241 769.453 205.001C766.72 206.769 763.423 207.448 759.561 207.04L760.888 202.726ZM777.835 214.01L780.4 205.67L786.645 207.591L790.487 195.101L802.073 198.665L798.231 211.154L805.503 213.391L802.938 221.732L795.666 219.495L788.386 243.16C787.822 244.995 787.701 246.217 788.023 246.825C788.354 247.407 789.711 248.064 792.094 248.797C792.45 248.907 792.82 249.02 793.203 249.138C793.622 249.237 794.028 249.332 794.42 249.423L791.728 258.174L786.118 256.673C780.527 255.163 777.042 253.042 775.664 250.309C774.762 248.563 774.741 246.293 775.6 243.499L784.08 215.931L777.835 214.01Z" fill="#58595B"/>
<path d="M412.48 284.651L131.93 343.121C82.19 353.491 33.47 321.571 23.1 271.831L2.73997 174.161C-7.63003 124.421 24.29 75.7011 74.03 65.3311L354.58 6.86107C404.32 -3.50893 453.04 28.4111 463.41 78.1511L483.77 175.821C494.13 225.561 462.21 274.281 412.48 284.651Z" fill="#F1F2F2"/>
<path d="M147.542 222.305L135.54 224.836L123.351 167.023L135.353 164.493L147.542 222.305ZM181.115 215.227L168.927 157.415L180.889 154.892L185.536 176.935L208.128 172.172L203.481 150.129L215.482 147.599L227.671 205.411L215.669 207.942L210.228 182.134L187.637 186.897L193.078 212.705L181.115 215.227ZM257.529 177.405C256.916 177.998 256.274 178.516 255.603 178.958C254.952 179.368 254.024 179.823 252.818 180.323L250.408 181.323C248.142 182.238 246.563 183.103 245.67 183.92C244.16 185.303 243.63 187.067 244.082 189.211C244.485 191.12 245.3 192.395 246.528 193.038C247.776 193.649 249.159 193.794 250.675 193.474C253.081 192.967 255.142 191.795 256.857 189.959C258.599 188.117 259.115 185.318 258.405 181.562L257.529 177.405ZM249.643 173.619C251.654 172.922 253.062 172.284 253.869 171.704C255.32 170.688 255.895 169.461 255.591 168.023C255.222 166.271 254.354 165.198 252.987 164.803C251.641 164.377 249.791 164.412 247.438 164.908C244.797 165.465 243.066 166.513 242.243 168.052C241.663 169.184 241.415 170.602 241.501 172.304L230.715 174.578C230.162 170.79 230.56 167.497 231.91 164.7C234.07 160.312 238.746 157.36 245.937 155.844C250.617 154.857 254.97 154.908 258.996 155.999C263.022 157.089 265.578 160.21 266.664 165.361L270.799 184.971C271.085 186.331 271.459 187.973 271.919 189.897C272.306 191.344 272.738 192.291 273.214 192.737C273.691 193.183 274.331 193.498 275.135 193.684L275.482 195.331L263.323 197.895C262.801 197.103 262.395 196.342 262.105 195.612C261.814 194.881 261.527 194.04 261.245 193.089C260.055 195.088 258.578 196.888 256.812 198.489C254.699 200.382 252.126 201.648 249.092 202.288C245.223 203.104 241.788 202.681 238.789 201.019C235.81 199.326 233.893 196.453 233.039 192.4C231.931 187.144 233.155 182.912 236.712 179.705C238.664 177.955 241.74 176.351 245.938 174.892L249.643 173.619ZM300.395 145.427L312.397 142.897L305.996 188.898L294.19 191.387L269.841 151.869L282.392 149.223L297.944 178.879L300.395 145.427ZM337.319 146.081C334.73 146.627 332.888 147.862 331.792 149.786C330.721 151.705 330.295 154.089 330.514 156.938L347.889 153.274C347.083 150.358 345.709 148.313 343.769 147.138C341.848 145.932 339.698 145.579 337.319 146.081ZM335.376 136.864C338.932 136.114 342.275 136.106 345.407 136.838C348.538 137.571 351.335 139.18 353.798 141.664C356.006 143.848 357.711 146.561 358.914 149.803C359.615 151.703 360.328 154.502 361.053 158.2L331.794 164.369C332.855 168.624 334.835 171.347 337.736 172.538C339.504 173.285 341.474 173.43 343.644 172.972C345.945 172.487 347.677 171.439 348.839 169.828C349.475 168.957 349.961 167.831 350.298 166.449L361.711 164.042C361.958 166.639 361.181 169.493 359.379 172.604C356.595 177.533 351.908 180.693 345.319 182.082C339.88 183.228 334.713 182.488 329.817 179.861C324.92 177.234 321.64 171.972 319.975 164.075C318.415 156.675 319.088 150.607 321.995 145.871C324.928 141.129 329.388 138.126 335.376 136.864Z" fill="#58595B"/>
</svg>
