<svg width="658" height="499" viewBox="0 0 658 499" fill="none" xmlns="http://www.w3.org/2000/svg">
<path d="M36.1499 135.398L67.9999 467.039C69.4899 482.539 82.5098 494.359 98.0698 494.359H221.07C236.64 494.359 249.65 482.529 251.14 467.039L282.98 135.398H36.1499Z" stroke="#2E3192" stroke-width="9" stroke-miterlimit="10"/>
<path d="M44.5 222.32H274.64L254.88 428.1H64.26L44.5 222.32Z" fill="#F1637C" stroke="#2E3192" stroke-width="9" stroke-miterlimit="10"/>
<path d="M295.37 135.397H21.48C12.52 135.397 5.25 128.127 5.25 119.167V114.257C5.25 105.297 12.52 98.0273 21.48 98.0273H295.37C304.33 98.0273 311.6 105.297 311.6 114.257V119.167C311.6 128.137 304.33 135.397 295.37 135.397Z" fill="#1B75BC" stroke="#2E3192" stroke-width="9" stroke-miterlimit="10"/>
<path d="M267.55 98.0276H49.1899V89.7876C49.1899 74.5476 61.55 62.1875 76.79 62.1875H239.95C255.19 62.1875 267.55 74.5476 267.55 89.7876V98.0276V98.0276Z" fill="#1B75BC" stroke="#2E3192" stroke-width="9" stroke-miterlimit="10"/>
<path d="M175.19 5.46875H141.15V62.1787H175.19V5.46875Z" fill="#F1637C" stroke="#2E3192" stroke-width="9" stroke-miterlimit="10"/>
<path d="M159.18 369.039C183.155 369.039 202.59 349.603 202.59 325.629C202.59 301.654 183.155 282.219 159.18 282.219C135.205 282.219 115.77 301.654 115.77 325.629C115.77 349.603 135.205 369.039 159.18 369.039Z" fill="#00AEEF" stroke="#2E3192" stroke-width="9" stroke-miterlimit="10"/>
<path d="M377.52 135.398L409.37 467.039C410.86 482.539 423.88 494.359 439.44 494.359H562.44C578.01 494.359 591.02 482.529 592.51 467.039L624.35 135.398H377.52Z" stroke="#2E3192" stroke-width="9" stroke-miterlimit="10"/>
<path d="M385.87 222.32H616.01L596.25 428.1H405.63L385.87 222.32Z" fill="#F1637C" stroke="#2E3192" stroke-width="9" stroke-miterlimit="10"/>
<path d="M636.74 135.397H362.85C353.89 135.397 346.62 128.127 346.62 119.167V114.257C346.62 105.297 353.89 98.0273 362.85 98.0273H636.74C645.7 98.0273 652.97 105.297 652.97 114.257V119.167C652.97 128.137 645.7 135.397 636.74 135.397Z" fill="#1B75BC" stroke="#2E3192" stroke-width="9" stroke-miterlimit="10"/>
<path d="M608.92 98.0276H390.56V89.7876C390.56 74.5476 402.92 62.1875 418.16 62.1875H581.32C596.56 62.1875 608.92 74.5476 608.92 89.7876V98.0276V98.0276Z" fill="#1B75BC" stroke="#2E3192" stroke-width="9" stroke-miterlimit="10"/>
<path d="M516.56 5.46875H482.52V62.1787H516.56V5.46875Z" fill="#F1637C" stroke="#2E3192" stroke-width="9" stroke-miterlimit="10"/>
<path d="M500.54 369.039C524.515 369.039 543.95 349.603 543.95 325.629C543.95 301.654 524.515 282.219 500.54 282.219C476.565 282.219 457.13 301.654 457.13 325.629C457.13 349.603 476.565 369.039 500.54 369.039Z" fill="#00AEEF" stroke="#2E3192" stroke-width="9" stroke-miterlimit="10"/>
</svg>
