<svg width="619" height="491" viewBox="0 0 619 491" fill="none" xmlns="http://www.w3.org/2000/svg">
<path d="M100.09 167.566H86.0298V193.576H100.09V167.566Z" fill="#5D6771"/>
<path d="M100.09 193.578H86.0298V199.168H100.09V193.578Z" fill="#2E3841"/>
<path d="M72.7798 130.307C72.7798 119.107 81.8601 110.027 93.0601 110.027C104.26 110.027 113.34 119.107 113.34 130.307V154.317C113.34 165.517 104.26 174.597 93.0601 174.597C81.8601 174.597 72.7798 165.517 72.7798 154.317V130.307Z" fill="#C8C9C8"/>
<path d="M200.42 167.566H186.36V193.576H200.42V167.566Z" fill="#5D6771"/>
<path d="M200.42 193.578H186.36V199.168H200.42V193.578Z" fill="#2E3841"/>
<path d="M173.11 130.307C173.11 119.107 182.19 110.027 193.39 110.027C204.59 110.027 213.67 119.107 213.67 130.307V154.317C213.67 165.517 204.59 174.597 193.39 174.597C182.19 174.597 173.11 165.517 173.11 154.317V130.307Z" fill="#C8C9C8"/>
<path d="M74.5801 167.566H60.52V193.576H74.5801V167.566Z" fill="#7E868C"/>
<path d="M74.5801 193.578H60.52V199.168H74.5801V193.578Z" fill="#343F49"/>
<path d="M47.27 130.307C47.27 119.107 56.3498 110.027 67.5498 110.027C78.7498 110.027 87.8301 119.107 87.8301 130.307V154.317C87.8301 165.517 78.7498 174.597 67.5498 174.597C56.3498 174.597 47.27 165.517 47.27 154.317V130.307Z" fill="#DBDCDC"/>
<path d="M174.9 167.566H160.84V193.576H174.9V167.566Z" fill="#7E868C"/>
<path d="M174.9 193.578H160.84V199.168H174.9V193.578Z" fill="#343F49"/>
<path d="M147.6 130.307C147.6 119.107 156.68 110.027 167.88 110.027C179.08 110.027 188.16 119.107 188.16 130.307V154.317C188.16 165.517 179.08 174.597 167.88 174.597C156.68 174.597 147.6 165.517 147.6 154.317V130.307Z" fill="#DBDCDC"/>
<path d="M239.58 102.478C239.58 97.2678 237.37 92.5678 233.84 89.2778C233.31 65.4578 220.53 44.6578 201.54 32.9278C201.67 32.0478 201.74 31.1478 201.74 30.2278C201.74 20.2578 193.65 12.1678 183.68 12.1678C182.11 12.1678 180.59 12.3678 179.14 12.7478C175.83 9.0178 171 6.65778 165.62 6.65778C159.88 6.65778 154.76 9.33782 151.46 13.5178C145.98 8.10782 138.46 4.75781 130.15 4.75781C123.52 4.75781 117.39 6.89781 112.4 10.5078C109.1 6.97781 104.41 4.75781 99.1899 4.75781C91.0899 4.75781 84.2402 10.0878 81.9502 17.4278C77.6602 15.1078 72.75 13.7878 67.54 13.7878C56.46 13.7878 46.7702 19.7378 41.4902 28.6078C39.7802 27.5278 37.7701 26.8978 35.6001 26.8978C34.2601 26.8978 32.9898 27.1478 31.7998 27.5778C30.2098 25.2578 27.55 23.7378 24.52 23.7378C21.77 23.7378 19.32 24.9878 17.71 26.9578C17.32 26.9178 16.9298 26.8878 16.5298 26.8878C10.4098 26.8878 5.4502 31.8478 5.4502 37.9678C5.4502 44.0878 10.4098 49.0478 16.5298 49.0478C18.1798 49.0478 19.7399 48.6778 21.1499 48.0278C19.8899 50.4578 19.1501 53.2078 19.1201 56.1278C12.4201 61.6878 8.1499 70.0778 8.1499 79.4678C8.1499 87.4778 11.2698 94.7678 16.3398 100.188C14.7998 103.818 13.9502 107.818 13.9502 112.008C13.9502 127.528 25.6202 140.318 40.6602 142.098C52.6102 152.518 68.2301 158.828 85.3301 158.828H85.96C88.2 159.818 90.6698 160.378 93.2798 160.378C95.8898 160.378 98.3601 159.818 100.6 158.828H106.38C112.19 164.248 119.99 167.578 128.57 167.578C137.15 167.578 144.94 164.258 150.76 158.828H165.86C176.47 158.828 186.51 156.398 195.45 152.068C197.58 152.538 199.79 152.798 202.06 152.798C218.8 152.798 232.37 139.228 232.37 122.488C232.37 120.698 232.21 118.958 231.91 117.258C236.55 113.978 239.58 108.578 239.58 102.478Z" fill="#DBDCDC"/>
<path d="M254.63 23.7891C269.59 23.7891 281.72 35.9191 281.72 50.8791C281.72 65.8391 269.59 77.9691 254.63 77.9691H222.55C207.59 77.9691 195.46 65.8391 195.46 50.8791C195.46 35.9191 207.59 23.7891 222.55 23.7891H254.63Z" fill="#5D6771"/>
<path d="M233.44 9.24658C229.88 9.24658 226.65 10.6966 224.31 13.0266C221.02 8.59661 215.75 5.72656 209.8 5.72656C199.83 5.72656 191.74 13.8166 191.74 23.7866C191.74 23.8866 191.75 23.9866 191.75 24.0766C176.99 26.1166 165.62 38.7766 165.62 54.0966C165.62 70.8366 179.19 84.4066 195.93 84.4066C198.48 84.4066 200.94 84.0866 203.31 83.4966C205.39 87.8466 209.81 90.8666 214.95 90.8666C222.08 90.8666 227.86 85.0866 227.86 77.9566C227.86 73.8466 225.94 70.1966 222.95 67.8366C225.06 63.7066 226.25 59.0366 226.25 54.0866C226.25 48.0166 224.46 42.3666 221.39 37.6266C223.12 36.1766 224.57 34.4166 225.66 32.4266C227.83 34.0666 230.51 35.0466 233.44 35.0466C240.57 35.0466 246.35 29.2666 246.35 22.1366C246.35 15.0266 240.57 9.24658 233.44 9.24658Z" fill="#DBDCDC"/>
<path d="M254.63 19.2783H250.62C249.24 11.0383 242.06 4.73828 233.43 4.73828C230.38 4.73828 227.44 5.51828 224.86 6.98828C220.75 3.31828 215.38 1.21826 209.8 1.21826C202.98 1.21826 196.64 4.27826 192.4 9.40826C189.66 8.25826 186.71 7.64832 183.68 7.64832C182.66 7.64832 181.64 7.71828 180.63 7.85828C176.52 4.19828 171.18 2.13831 165.62 2.13831C160.28 2.13831 155.22 3.98831 151.21 7.32831C145.18 2.72831 137.85 0.238281 130.14 0.238281C124 0.238281 118.09 1.81832 112.83 4.83832C108.93 1.87832 104.12 0.238281 99.1802 0.238281C90.9702 0.238281 83.6302 4.5883 79.6602 11.4483C75.8002 10.0183 71.6798 9.26831 67.5298 9.26831C56.6598 9.26831 46.3798 14.4383 39.8398 22.9783C37.7398 22.3783 35.4998 22.2283 33.3198 22.5483C30.9098 20.4283 27.7898 19.2283 24.5098 19.2283C21.3098 19.2283 18.2699 20.3583 15.8799 22.3983C7.57988 22.7283 0.919922 29.5883 0.919922 37.9783C0.919922 45.9883 6.97977 52.5983 14.7598 53.4783C14.7398 53.6483 14.7202 53.8183 14.7002 53.9883C7.6302 60.5783 3.60986 69.7483 3.60986 79.4783C3.60986 87.3883 6.2699 94.9683 11.1499 101.118C9.9899 104.618 9.41016 108.278 9.41016 112.018C9.41016 129.178 21.9102 143.718 38.7002 146.398C40.0002 147.488 41.3402 148.538 42.7202 149.538V154.338C42.7202 163.838 48.1002 172.108 55.9702 176.268V200.988C55.9702 203.488 57.9902 205.508 60.4902 205.508H74.5498C77.0498 205.508 79.0698 203.488 79.0698 200.988V176.268C79.4798 176.048 79.8798 175.828 80.2798 175.588C80.6698 175.828 81.07 176.048 81.48 176.258V200.988C81.48 203.488 83.5 205.508 86 205.508H100.07C102.57 205.508 104.59 203.488 104.59 200.988V176.278C107.98 174.498 110.94 171.938 113.21 168.768C117.98 170.938 123.19 172.098 128.55 172.098C135.02 172.098 141.22 170.468 146.74 167.338C149.08 171.158 152.41 174.228 156.31 176.278V200.988C156.31 203.488 158.33 205.508 160.83 205.508H174.89C177.39 205.508 179.41 203.488 179.41 200.988V176.298C179.83 176.078 180.24 175.848 180.65 175.608C181.04 175.838 181.43 176.058 181.82 176.268V200.988C181.82 203.488 183.84 205.508 186.34 205.508H200.41C202.91 205.508 204.93 203.488 204.93 200.988V176.268C212.8 172.108 218.18 163.838 218.18 154.338V153.348C229.28 147.518 236.88 135.878 236.88 122.488C236.88 121.398 236.83 120.288 236.72 119.168C241.38 114.918 244.1 108.858 244.1 102.478C244.1 96.8983 242 91.4983 238.29 87.3683C238.21 85.7383 238.08 84.1083 237.89 82.4883H254.63C272.06 82.4883 286.24 68.3083 286.24 50.8783C286.24 33.4583 272.06 19.2783 254.63 19.2783ZM70.0601 196.458H65.0298V178.988C65.8598 179.068 66.7 179.118 67.54 179.118C68.38 179.118 69.2301 179.058 70.0601 178.978C70.0601 178.978 70.0601 196.458 70.0601 196.458ZM95.5698 196.458H90.5298V178.978C91.3698 179.068 92.2098 179.108 93.0498 179.108C93.8998 179.108 94.7398 179.058 95.5698 178.978V196.458ZM93.0601 170.078C91.1201 170.078 89.2502 169.728 87.4902 169.058C88.5002 167.698 89.3698 166.228 90.0898 164.658C91.1498 164.808 92.2098 164.888 93.2798 164.888C96.1198 164.888 98.88 164.368 101.5 163.338H104.66C104.93 163.568 105.21 163.788 105.48 164.008C102.55 167.788 98.0001 170.078 93.0601 170.078ZM170.39 196.458H165.36V178.978C166.19 179.058 167.03 179.118 167.88 179.118C168.73 179.118 169.57 179.068 170.4 178.988L170.39 196.458ZM195.91 196.458H190.88V178.978C191.71 179.068 192.56 179.108 193.4 179.108C194.25 179.108 195.09 179.068 195.92 178.978L195.91 196.458ZM193.39 170.078C191.46 170.078 189.59 169.728 187.84 169.068C190.12 165.978 191.71 162.328 192.35 158.338C193.6 157.848 194.83 157.328 196.03 156.778C198.03 157.128 200.05 157.308 202.06 157.308C204.43 157.308 206.75 157.068 208.99 156.618C207.87 164.228 201.3 170.078 193.39 170.078ZM229.31 113.558C227.88 114.568 227.16 116.308 227.46 118.028C227.72 119.528 227.85 121.028 227.85 122.488C227.85 136.708 216.28 148.288 202.05 148.288C200.18 148.288 198.29 148.078 196.42 147.668C195.43 147.448 194.39 147.568 193.47 148.008C191.28 149.068 188.99 150.018 186.65 150.828C184.89 151.438 183.68 153.068 183.62 154.928C183.31 163.428 176.39 170.098 167.87 170.098C161.04 170.098 155.02 165.738 152.9 159.258C152.44 157.858 151.33 156.768 149.92 156.348C148.51 155.918 146.98 156.208 145.82 157.118C140.85 161.018 134.88 163.078 128.56 163.078C121.45 163.078 114.66 160.408 109.45 155.548C108.61 154.768 107.51 154.338 106.37 154.338H100.59C99.9598 154.338 99.3298 154.468 98.7598 154.728C95.6098 156.128 92.0002 156.268 88.7202 155.098C87.5202 154.668 86.1998 154.768 85.0698 155.368C83.9498 155.968 83.1301 157.008 82.8101 158.248C81.0401 165.238 74.7598 170.128 67.5298 170.128C58.8398 170.128 51.77 163.058 51.77 154.368V147.218C51.77 145.718 51.0298 144.318 49.7798 143.478C47.6198 142.018 45.5399 140.418 43.6099 138.738C42.9199 138.138 42.0799 137.768 41.1699 137.658C28.2199 136.118 18.4502 125.118 18.4502 112.048C18.4502 108.558 19.13 105.178 20.48 101.988C21.18 100.338 20.8401 98.4383 19.6201 97.1383C15.1201 92.3383 12.6499 86.0783 12.6499 79.5083C12.6499 71.8083 16.0502 64.5683 21.9902 59.6483C23.0102 58.7983 23.6101 57.5483 23.6201 56.2283C23.6501 54.0983 24.1601 52.0483 25.1401 50.1583C26.0301 48.4383 25.7299 46.3483 24.3999 44.9583C23.0599 43.5583 20.9902 43.1683 19.2402 43.9783C18.3702 44.3783 17.46 44.5883 16.52 44.5883C12.9 44.5883 9.95996 41.6483 9.95996 38.0283C9.95996 34.4083 12.9 31.4683 16.52 31.4683C16.74 31.4683 16.97 31.4783 17.21 31.5083C18.73 31.6683 20.2199 31.0583 21.1899 29.8883C22.0099 28.8883 23.2198 28.3183 24.5098 28.3183C25.9298 28.3183 27.2501 29.0183 28.0601 30.1983C29.2301 31.8983 31.3998 32.5983 33.3398 31.8883C35.2898 31.1783 37.3698 31.4283 39.0698 32.4883C40.0998 33.1383 41.3498 33.3383 42.5298 33.0583C43.7098 32.7783 44.7299 32.0183 45.3599 30.9783C49.9899 23.1983 58.4898 18.3583 67.5298 18.3583C71.8098 18.3583 76.05 19.4283 79.79 21.4483C80.98 22.0883 82.3901 22.1683 83.6401 21.6583C84.8901 21.1483 85.85 20.1083 86.25 18.8183C88.02 13.1383 93.2202 9.3183 99.1802 9.3183C102.97 9.3183 106.49 10.8483 109.08 13.6283C110.64 15.2983 113.19 15.5383 115.03 14.2083C119.45 11.0083 124.67 9.3183 130.13 9.3183C136.96 9.3183 143.4 11.9683 148.26 16.7683C149.17 17.6683 150.43 18.1383 151.71 18.0683C152.99 17.9883 154.18 17.3683 154.98 16.3583C157.57 13.0883 161.44 11.2083 165.6 11.2083C169.47 11.2083 173.16 12.8683 175.74 15.7783C176.87 17.0483 178.61 17.5783 180.25 17.1583C181.36 16.8683 182.51 16.7283 183.66 16.7283C185.2 16.7283 186.7 16.9983 188.12 17.4883C187.52 19.5483 187.2 21.6883 187.2 23.8383C187.2 26.3383 189.22 28.3583 191.72 28.3583C194.21 28.3583 196.24 26.3383 196.24 23.8383C196.24 21.5883 196.77 19.4483 197.82 17.4783C200.18 13.0483 204.77 10.2983 209.78 10.2983C214.11 10.2983 218.07 12.2983 220.66 15.7783C221.44 16.8283 222.65 17.4983 223.95 17.5883C225.26 17.6883 226.55 17.2083 227.47 16.2783C229.06 14.6883 231.16 13.8183 233.4 13.8183C238.03 13.8183 241.79 17.5783 241.79 22.2083C241.79 22.5183 241.77 22.8283 241.74 23.1283C241.73 23.2183 241.71 23.3083 241.7 23.4083C241.12 27.4683 237.62 30.5983 233.4 30.5983C231.57 30.5983 229.82 30.0083 228.35 28.8883C227.3 28.0983 225.96 27.7983 224.68 28.0683C223.39 28.3483 222.29 29.1683 221.66 30.3183C220.85 31.8083 219.77 33.1283 218.45 34.2183C216.7 35.6783 216.32 38.2183 217.56 40.1383C220.27 44.3183 221.7 49.1583 221.7 54.1383C221.7 55.4883 221.59 56.8483 221.39 58.1683C220.97 60.8383 220.13 63.4183 218.9 65.8283C217.92 67.7483 218.43 70.0883 220.12 71.4283C222.15 73.0383 223.32 75.4283 223.32 78.0083C223.32 80.5083 225.34 82.5283 227.84 82.5283H228.76C229.06 84.8083 229.25 87.1083 229.3 89.4183C229.33 90.6383 229.84 91.7883 230.73 92.6183C233.51 95.2083 235.04 98.7283 235.04 102.518C235.07 106.868 232.91 111.018 229.31 113.558ZM254.63 73.4583H231.79C231.14 71.0383 229.97 68.7783 228.36 66.8483C229.29 64.4983 229.95 62.0583 230.35 59.5583C230.63 57.7683 230.78 55.9383 230.78 54.1183C230.78 48.6283 229.49 43.2583 227.03 38.4083L227.05 38.3783C229.07 39.1783 231.22 39.5983 233.44 39.5983C240.88 39.5983 247.25 34.9083 249.74 28.3283H254.63C267.08 28.3283 277.2 38.4583 277.2 50.8983C277.2 63.3283 267.08 73.4583 254.63 73.4583ZM207.55 43.7583C205.05 43.7583 203.03 45.7783 203.03 48.2783V62.8083C203.03 65.3083 205.05 67.3283 207.55 67.3283C210.05 67.3283 212.07 65.3083 212.07 62.8083V48.2783C212.07 45.7883 210.05 43.7583 207.55 43.7583ZM242.16 40.7183C240.29 40.7183 238.78 42.2283 238.78 44.0983C238.78 45.9683 240.29 47.4783 242.16 47.4783C244.03 47.4783 245.54 45.9683 245.54 44.0983C245.54 42.2283 244.03 40.7183 242.16 40.7183Z" fill="#1F262C"/>
<path d="M432.13 174.738H418.07V200.748H432.13V174.738Z" fill="#5D6771"/>
<path d="M432.13 200.75H418.07V206.34H432.13V200.75Z" fill="#2E3841"/>
<path d="M404.82 137.467C404.82 126.267 413.9 117.188 425.1 117.188C436.3 117.188 445.38 126.267 445.38 137.467V161.477C445.38 172.677 436.3 181.758 425.1 181.758C413.9 181.758 404.82 172.677 404.82 161.477V137.467Z" fill="#C8C9C8"/>
<path d="M532.46 174.738H518.4V200.748H532.46V174.738Z" fill="#5D6771"/>
<path d="M532.46 200.75H518.4V206.34H532.46V200.75Z" fill="#2E3841"/>
<path d="M505.16 137.467C505.16 126.267 514.24 117.188 525.44 117.188C536.64 117.188 545.72 126.267 545.72 137.467V161.477C545.72 172.677 536.64 181.758 525.44 181.758C514.24 181.758 505.16 172.677 505.16 161.477V137.467Z" fill="#C8C9C8"/>
<path d="M406.62 174.738H392.56V200.748H406.62V174.738Z" fill="#7E868C"/>
<path d="M406.62 200.75H392.56V206.34H406.62V200.75Z" fill="#343F49"/>
<path d="M379.31 137.467C379.31 126.267 388.39 117.188 399.59 117.188C410.79 117.188 419.87 126.267 419.87 137.467V161.477C419.87 172.677 410.79 181.758 399.59 181.758C388.39 181.758 379.31 172.677 379.31 161.477V137.467Z" fill="#DBDCDC"/>
<path d="M506.95 174.738H492.89V200.748H506.95V174.738Z" fill="#7E868C"/>
<path d="M506.95 200.75H492.89V206.34H506.95V200.75Z" fill="#343F49"/>
<path d="M479.64 137.467C479.64 126.267 488.72 117.188 499.92 117.188C511.12 117.188 520.2 126.267 520.2 137.467V161.477C520.2 172.677 511.12 181.758 499.92 181.758C488.72 181.758 479.64 172.677 479.64 161.477V137.467Z" fill="#DBDCDC"/>
<path d="M571.63 109.638C571.63 104.428 569.42 99.728 565.89 96.438C565.36 72.618 552.58 51.818 533.59 40.088C533.72 39.208 533.79 38.308 533.79 37.388C533.79 27.418 525.7 19.328 515.73 19.328C514.16 19.328 512.64 19.528 511.19 19.908C507.88 16.178 503.05 13.818 497.67 13.818C491.93 13.818 486.81 16.498 483.51 20.678C478.03 15.268 470.51 11.918 462.2 11.918C455.57 11.918 449.44 14.058 444.45 17.668C441.15 14.138 436.46 11.918 431.24 11.918C423.14 11.918 416.29 17.248 414 24.588C409.71 22.268 404.8 20.948 399.59 20.948C388.51 20.948 378.82 26.898 373.54 35.768C371.83 34.688 369.82 34.058 367.65 34.058C366.31 34.058 365.04 34.308 363.85 34.738C362.26 32.418 359.6 30.898 356.57 30.898C353.82 30.898 351.37 32.148 349.76 34.118C349.37 34.078 348.98 34.048 348.58 34.048C342.46 34.048 337.5 39.008 337.5 45.128C337.5 51.248 342.46 56.208 348.58 56.208C350.23 56.208 351.79 55.838 353.2 55.188C351.94 57.618 351.2 60.368 351.17 63.288C344.47 68.848 340.2 77.238 340.2 86.628C340.2 94.638 343.32 101.928 348.39 107.348C346.85 110.978 346 114.978 346 119.168C346 134.688 357.67 147.478 372.71 149.258C384.66 159.678 400.28 165.988 417.38 165.988H418.01C420.25 166.978 422.72 167.538 425.33 167.538C427.94 167.538 430.41 166.978 432.65 165.988H438.43C444.24 171.408 452.04 174.738 460.62 174.738C469.2 174.738 476.99 171.418 482.81 165.988H497.91C508.52 165.988 518.56 163.558 527.5 159.228C529.63 159.698 531.84 159.958 534.11 159.958C550.85 159.958 564.42 146.388 564.42 129.648C564.42 127.858 564.26 126.118 563.96 124.418C568.59 121.148 571.63 115.748 571.63 109.638Z" fill="#DBDCDC"/>
<path d="M586.67 30.957C601.63 30.957 613.76 43.087 613.76 58.047C613.76 73.007 601.63 85.137 586.67 85.137H554.59C539.63 85.137 527.5 73.007 527.5 58.047C527.5 43.087 539.63 30.957 554.59 30.957H586.67Z" fill="#5D6771"/>
<path d="M565.48 16.4184C561.91 16.4184 558.69 17.8684 556.35 20.1984C553.06 15.7684 547.79 12.8984 541.84 12.8984C531.87 12.8984 523.78 20.9884 523.78 30.9584C523.78 31.0584 523.79 31.1584 523.79 31.2484C509.03 33.2884 497.66 45.9484 497.66 61.2684C497.66 78.0084 511.23 91.5784 527.97 91.5784C530.52 91.5784 532.98 91.2584 535.35 90.6684C537.42 95.0184 541.85 98.0384 546.99 98.0384C554.12 98.0384 559.9 92.2584 559.9 85.1284C559.9 81.0184 557.98 77.3684 554.99 75.0084C557.1 70.8784 558.29 66.2084 558.29 61.2584C558.29 55.1884 556.5 49.5384 553.43 44.7984C555.16 43.3484 556.61 41.5884 557.7 39.5984C559.87 41.2384 562.55 42.2184 565.48 42.2184C572.61 42.2184 578.39 36.4384 578.39 29.3084C578.39 22.1984 572.61 16.4184 565.48 16.4184Z" fill="#DBDCDC"/>
<path d="M586.67 26.4384H582.66C581.28 18.1984 574.1 11.8984 565.48 11.8984C562.43 11.8984 559.49 12.6784 556.91 14.1484C552.8 10.4784 547.43 8.37842 541.85 8.37842C535.03 8.37842 528.69 11.4384 524.45 16.5684C521.71 15.4184 518.76 14.8084 515.73 14.8084C514.71 14.8084 513.69 14.8784 512.68 15.0184C508.57 11.3584 503.23 9.2984 497.67 9.2984C492.33 9.2984 487.27 11.1484 483.26 14.4884C477.23 9.8884 469.9 7.39844 462.2 7.39844C456.06 7.39844 450.15 8.97841 444.89 11.9984C440.99 9.03841 436.18 7.39844 431.24 7.39844C423.03 7.39844 415.69 11.7484 411.72 18.6084C407.86 17.1784 403.74 16.4284 399.59 16.4284C388.72 16.4284 378.44 21.5984 371.9 30.1384C369.8 29.5384 367.56 29.3884 365.38 29.7084C362.97 27.5884 359.85 26.3884 356.57 26.3884C353.37 26.3884 350.33 27.5184 347.94 29.5584C339.64 29.8884 332.98 36.7484 332.98 45.1384C332.98 53.1484 339.04 59.7584 346.82 60.6384C346.8 60.8084 346.78 60.9784 346.76 61.1484C339.69 67.7384 335.67 76.9084 335.67 86.6384C335.67 94.5484 338.33 102.128 343.21 108.278C342.06 111.778 341.47 115.438 341.47 119.178C341.47 136.338 353.97 150.878 370.76 153.558C372.06 154.648 373.4 155.698 374.78 156.698V161.498C374.78 170.998 380.16 179.268 388.03 183.428V208.148C388.03 210.648 390.05 212.668 392.55 212.668H406.61C409.11 212.668 411.13 210.648 411.13 208.148V183.428C411.54 183.208 411.94 182.988 412.34 182.748C412.73 182.988 413.14 183.208 413.54 183.418V208.148C413.54 210.648 415.56 212.668 418.06 212.668H432.13C434.63 212.668 436.65 210.648 436.65 208.148V183.438C440.04 181.658 443 179.098 445.27 175.928C450.04 178.098 455.25 179.258 460.61 179.258C467.08 179.258 473.28 177.628 478.8 174.498C481.14 178.318 484.47 181.388 488.37 183.438V208.148C488.37 210.648 490.39 212.668 492.89 212.668H506.95C509.45 212.668 511.47 210.648 511.47 208.148V183.458C511.89 183.238 512.3 183.008 512.71 182.768C513.1 182.998 513.49 183.218 513.88 183.428V208.148C513.88 210.648 515.9 212.668 518.4 212.668H532.47C534.97 212.668 536.99 210.648 536.99 208.148V183.428C544.86 179.268 550.24 170.998 550.24 161.498V160.508C561.34 154.678 568.94 143.038 568.94 129.648C568.94 128.558 568.89 127.448 568.78 126.328C573.44 122.078 576.16 116.018 576.16 109.638C576.16 104.058 574.06 98.6584 570.35 94.5284C570.27 92.8984 570.14 91.2684 569.95 89.6484H586.69C604.12 89.6484 618.3 75.4684 618.3 58.0384C618.28 40.6184 604.1 26.4384 586.67 26.4384ZM402.1 203.628H397.07V186.158C397.9 186.238 398.74 186.288 399.59 186.288C400.44 186.288 401.28 186.228 402.11 186.148C402.1 186.138 402.1 203.628 402.1 203.628ZM427.62 203.628H422.58V186.148C423.42 186.238 424.26 186.278 425.1 186.278C425.95 186.278 426.79 186.228 427.62 186.148V203.628ZM425.1 177.248C423.16 177.248 421.29 176.898 419.53 176.228C420.54 174.868 421.41 173.398 422.13 171.828C423.18 171.978 424.25 172.058 425.32 172.058C428.16 172.058 430.92 171.538 433.54 170.508H436.7C436.97 170.738 437.25 170.958 437.52 171.178C434.59 174.948 430.05 177.248 425.1 177.248ZM502.44 203.628H497.41V186.148C498.24 186.228 499.08 186.288 499.93 186.288C500.78 186.288 501.62 186.238 502.44 186.158V203.628ZM527.95 203.628H522.92V186.148C523.75 186.238 524.59 186.278 525.44 186.278C526.29 186.278 527.13 186.238 527.95 186.148V203.628ZM525.43 177.248C523.5 177.248 521.63 176.898 519.88 176.238C522.16 173.148 523.74 169.498 524.39 165.508C525.64 165.018 526.87 164.498 528.07 163.948C530.07 164.298 532.09 164.478 534.1 164.478C536.47 164.478 538.79 164.238 541.03 163.788C539.91 171.388 533.35 177.248 525.43 177.248ZM561.35 120.718C559.92 121.728 559.2 123.468 559.5 125.188C559.76 126.688 559.89 128.188 559.89 129.648C559.89 143.868 548.32 155.448 534.09 155.448C532.22 155.448 530.33 155.238 528.46 154.828C527.47 154.608 526.43 154.728 525.51 155.168C523.32 156.228 521.03 157.178 518.69 157.988C516.93 158.598 515.72 160.228 515.66 162.088C515.35 170.588 508.43 177.258 499.91 177.258C493.08 177.258 487.06 172.898 484.94 166.418C484.48 165.018 483.37 163.928 481.96 163.508C480.55 163.078 479.02 163.368 477.86 164.278C472.89 168.178 466.92 170.238 460.6 170.238C453.49 170.238 446.7 167.568 441.49 162.708C440.65 161.928 439.55 161.498 438.41 161.498H432.63C432 161.498 431.37 161.628 430.8 161.888C427.65 163.288 424.04 163.428 420.76 162.258C419.56 161.828 418.24 161.928 417.11 162.528C415.99 163.128 415.17 164.168 414.86 165.408C413.09 172.398 406.81 177.288 399.58 177.288C390.89 177.288 383.82 170.218 383.82 161.528V154.378C383.82 152.878 383.08 151.478 381.83 150.638C379.67 149.178 377.59 147.578 375.66 145.898C374.97 145.298 374.13 144.928 373.22 144.818C360.27 143.278 350.5 132.278 350.5 119.208C350.5 115.718 351.18 112.338 352.53 109.148C353.23 107.498 352.89 105.598 351.67 104.298C347.17 99.4984 344.7 93.2384 344.7 86.6684C344.7 78.9684 348.1 71.7284 354.04 66.8084C355.06 65.9584 355.66 64.7084 355.67 63.3884C355.7 61.2584 356.21 59.2084 357.19 57.3184C358.08 55.5984 357.78 53.5084 356.45 52.1184C355.12 50.7284 353.04 50.3284 351.29 51.1384C350.42 51.5384 349.51 51.7484 348.57 51.7484C344.95 51.7484 342.01 48.8084 342.01 45.1884C342.01 41.5684 344.95 38.6284 348.57 38.6284C348.79 38.6284 349.02 38.6384 349.26 38.6684C350.78 38.8284 352.27 38.2184 353.24 37.0484C354.06 36.0484 355.27 35.4784 356.56 35.4784C357.98 35.4784 359.3 36.1784 360.11 37.3584C361.28 39.0584 363.45 39.7584 365.39 39.0484C367.34 38.3384 369.42 38.5884 371.12 39.6484C372.15 40.2984 373.4 40.4984 374.58 40.2184C375.76 39.9384 376.78 39.1784 377.41 38.1384C382.04 30.3584 390.54 25.5184 399.58 25.5184C403.86 25.5184 408.1 26.5884 411.84 28.6084C413.03 29.2484 414.44 29.3284 415.69 28.8184C416.94 28.3084 417.9 27.2684 418.3 25.9784C420.07 20.2984 425.27 16.4784 431.23 16.4784C435.02 16.4784 438.54 18.0084 441.13 20.7884C442.69 22.4584 445.24 22.6984 447.08 21.3684C451.5 18.1684 456.72 16.4784 462.18 16.4784C469.01 16.4784 475.45 19.1284 480.31 23.9284C481.22 24.8284 482.48 25.2984 483.76 25.2284C485.04 25.1484 486.23 24.5284 487.03 23.5184C489.62 20.2484 493.49 18.3684 497.65 18.3684C501.52 18.3684 505.21 20.0284 507.79 22.9384C508.92 24.2084 510.66 24.7384 512.3 24.3184C513.41 24.0284 514.56 23.8884 515.71 23.8884C517.25 23.8884 518.75 24.1584 520.17 24.6484C519.57 26.7084 519.25 28.8484 519.25 30.9984C519.25 33.4984 521.27 35.5184 523.77 35.5184C526.27 35.5184 528.29 33.4984 528.29 30.9984C528.29 28.7484 528.82 26.6084 529.87 24.6384C532.23 20.2084 536.82 17.4584 541.83 17.4584C546.16 17.4584 550.12 19.4584 552.71 22.9384C553.49 23.9884 554.7 24.6584 556 24.7484C557.31 24.8484 558.6 24.3684 559.52 23.4384C561.11 21.8484 563.21 20.9784 565.45 20.9784C570.08 20.9784 573.84 24.7384 573.84 29.3684C573.84 29.6784 573.82 29.9884 573.79 30.2884C573.78 30.3784 573.76 30.4684 573.75 30.5684C573.17 34.6284 569.67 37.7584 565.45 37.7584C563.62 37.7584 561.87 37.1684 560.4 36.0484C559.35 35.2584 558.01 34.9584 556.73 35.2284C555.44 35.5084 554.34 36.3284 553.71 37.4784C552.9 38.9684 551.82 40.2884 550.5 41.3784C548.75 42.8384 548.37 45.3784 549.61 47.2984C552.32 51.4784 553.75 56.3184 553.75 61.2984C553.75 62.6484 553.64 64.0084 553.44 65.3284C553.02 67.9984 552.18 70.5784 550.95 72.9884C549.97 74.9084 550.48 77.2484 552.17 78.5884C554.2 80.1984 555.37 82.5884 555.37 85.1684C555.37 87.6684 557.39 89.6884 559.89 89.6884H560.81C561.11 91.9684 561.3 94.2684 561.35 96.5784C561.38 97.7984 561.89 98.9484 562.78 99.7784C565.56 102.368 567.09 105.888 567.09 109.678C567.11 114.038 564.96 118.178 561.35 120.718ZM586.67 80.6184H563.83C563.18 78.1984 562.01 75.9384 560.4 74.0084C561.33 71.6584 561.99 69.2184 562.39 66.7184C562.67 64.9284 562.82 63.0984 562.82 61.2784C562.82 55.7884 561.53 50.4184 559.07 45.5684L559.09 45.5384C561.11 46.3384 563.26 46.7584 565.48 46.7584C572.92 46.7584 579.29 42.0684 581.78 35.4884H586.67C599.12 35.4884 609.24 45.6184 609.24 58.0584C609.25 70.4884 599.12 80.6184 586.67 80.6184ZM539.6 50.9284C537.1 50.9284 535.08 52.9484 535.08 55.4484V69.9784C535.08 72.4784 537.1 74.4984 539.6 74.4984C542.1 74.4984 544.12 72.4784 544.12 69.9784V55.4484C544.11 52.9484 542.09 50.9284 539.6 50.9284ZM574.21 47.8784C572.34 47.8784 570.83 49.3884 570.83 51.2584C570.83 53.1284 572.34 54.6384 574.21 54.6384C576.08 54.6384 577.59 53.1284 577.59 51.2584C577.59 49.3884 576.07 47.8784 574.21 47.8784Z" fill="#1F262C"/>
<path d="M266.11 452.477H252.05V478.487H266.11V452.477Z" fill="#5D6771"/>
<path d="M266.11 478.5H252.05V484.09H266.11V478.5Z" fill="#2E3841"/>
<path d="M238.8 415.218C238.8 404.018 247.88 394.938 259.08 394.938C270.28 394.938 279.36 404.018 279.36 415.218V439.228C279.36 450.428 270.28 459.508 259.08 459.508C247.88 459.508 238.8 450.428 238.8 439.228V415.218Z" fill="#C8C9C8"/>
<path d="M366.44 452.477H352.38V478.487H366.44V452.477Z" fill="#5D6771"/>
<path d="M366.44 478.5H352.38V484.09H366.44V478.5Z" fill="#2E3841"/>
<path d="M240.6 452.477H226.54V478.487H240.6V452.477Z" fill="#7E868C"/>
<path d="M240.6 478.5H226.54V484.09H240.6V478.5Z" fill="#343F49"/>
<path d="M340.93 452.477H326.87V478.487H340.93V452.477Z" fill="#7E868C"/>
<path d="M340.93 478.5H326.87V484.09H340.93V478.5Z" fill="#343F49"/>
<path d="M420.65 308.707C435.61 308.707 447.74 320.837 447.74 335.797C447.74 350.757 435.61 362.887 420.65 362.887H388.57C373.61 362.887 361.48 350.757 361.48 335.797C361.48 320.837 373.61 308.707 388.57 308.707H420.65Z" fill="#AE8F9F"/>
<path d="M339.13 415.218C339.13 404.018 348.21 394.938 359.41 394.938C370.61 394.938 379.69 404.018 379.69 415.218V439.228C379.69 450.428 370.61 459.508 359.41 459.508C348.21 459.508 339.13 450.428 339.13 439.228V415.218Z" fill="#D4A5C1"/>
<path d="M213.29 415.218C213.29 404.018 222.37 394.938 233.57 394.938C244.77 394.938 253.85 404.018 253.85 415.218V439.228C253.85 450.428 244.77 459.508 233.57 459.508C222.37 459.508 213.29 450.428 213.29 439.228V415.218Z" fill="#D4A5C1"/>
<path d="M313.62 415.218C313.62 404.018 322.7 394.938 333.9 394.938C345.1 394.938 354.18 404.018 354.18 415.218V439.228C354.18 450.428 345.1 459.508 333.9 459.508C322.7 459.508 313.62 450.428 313.62 439.228V415.218Z" fill="#D4A5C1"/>
<path d="M405.6 387.388C405.6 382.178 403.39 377.478 399.86 374.188C399.33 350.368 386.55 329.568 367.56 317.838C367.69 316.958 367.76 316.058 367.76 315.138C367.76 305.168 359.67 297.078 349.7 297.078C348.13 297.078 346.61 297.278 345.16 297.658C341.85 293.928 337.02 291.568 331.64 291.568C325.9 291.568 320.78 294.248 317.48 298.428C312 293.018 304.48 289.668 296.17 289.668C289.54 289.668 283.41 291.808 278.42 295.418C275.12 291.888 270.43 289.668 265.21 289.668C257.11 289.668 250.26 294.998 247.97 302.338C243.68 300.018 238.77 298.698 233.56 298.698C222.48 298.698 212.79 304.648 207.51 313.518C205.8 312.438 203.79 311.808 201.62 311.808C200.28 311.808 199.01 312.058 197.82 312.488C196.23 310.168 193.57 308.648 190.54 308.648C187.79 308.648 185.34 309.898 183.73 311.868C183.34 311.828 182.95 311.798 182.55 311.798C176.43 311.798 171.47 316.758 171.47 322.878C171.47 328.998 176.43 333.958 182.55 333.958C184.2 333.958 185.76 333.588 187.17 332.938C185.91 335.368 185.17 338.118 185.14 341.038C178.44 346.598 174.17 354.988 174.17 364.378C174.17 372.388 177.29 379.678 182.36 385.098C180.82 388.728 179.97 392.728 179.97 396.918C179.97 412.438 191.64 425.228 206.68 427.008C218.63 437.428 234.25 443.738 251.35 443.738H251.98C254.22 444.728 256.69 445.288 259.3 445.288C261.91 445.288 264.38 444.728 266.62 443.738H272.4C278.21 449.158 286.01 452.488 294.59 452.488C303.17 452.488 310.96 449.168 316.78 443.738H331.88C342.49 443.738 352.53 441.308 361.47 436.978C363.6 437.448 365.81 437.708 368.08 437.708C384.82 437.708 398.39 424.138 398.39 407.398C398.39 405.608 398.23 403.868 397.93 402.168C402.57 398.888 405.6 393.498 405.6 387.388Z" fill="#D4A5C1"/>
<path d="M399.46 294.168C395.9 294.168 392.67 295.618 390.33 297.948C387.04 293.518 381.77 290.648 375.82 290.648C365.85 290.648 357.76 298.738 357.76 308.708C357.76 308.808 357.77 308.908 357.77 308.998C343.01 311.038 331.64 323.698 331.64 339.018C331.64 355.758 345.21 369.328 361.95 369.328C364.5 369.328 366.96 369.008 369.33 368.418C371.41 372.768 375.83 375.788 380.97 375.788C388.1 375.788 393.88 370.008 393.88 362.878C393.88 358.768 391.96 355.118 388.97 352.758C391.08 348.628 392.27 343.958 392.27 339.008C392.27 332.938 390.48 327.288 387.41 322.548C389.14 321.098 390.59 319.338 391.68 317.348C393.85 318.988 396.53 319.968 399.46 319.968C406.59 319.968 412.37 314.188 412.37 307.058C412.37 299.948 406.59 294.168 399.46 294.168Z" fill="#D4A5C1"/>
<path d="M420.65 304.188H416.64C415.26 295.948 408.08 289.648 399.45 289.648C396.4 289.648 393.46 290.428 390.88 291.898C386.77 288.228 381.4 286.128 375.82 286.128C369 286.128 362.66 289.188 358.42 294.318C355.68 293.168 352.73 292.558 349.7 292.558C348.68 292.558 347.66 292.628 346.65 292.768C342.54 289.108 337.2 287.048 331.64 287.048C326.3 287.048 321.24 288.898 317.23 292.238C311.2 287.638 303.87 285.148 296.16 285.148C290.02 285.148 284.11 286.728 278.85 289.748C274.95 286.788 270.14 285.148 265.2 285.148C256.99 285.148 249.65 289.498 245.68 296.358C241.82 294.928 237.7 294.178 233.55 294.178C222.68 294.178 212.4 299.348 205.86 307.888C203.76 307.288 201.52 307.138 199.34 307.458C196.93 305.338 193.81 304.138 190.53 304.138C187.33 304.138 184.29 305.268 181.9 307.308C173.6 307.638 166.94 314.498 166.94 322.888C166.94 330.898 173 337.508 180.78 338.388C180.76 338.558 180.74 338.728 180.72 338.898C173.65 345.488 169.63 354.658 169.63 364.388C169.63 372.298 172.29 379.878 177.17 386.028C176.01 389.528 175.43 393.188 175.43 396.928C175.43 414.088 187.93 428.628 204.72 431.308C206.02 432.398 207.36 433.448 208.74 434.448V439.248C208.74 448.748 214.12 457.018 221.99 461.178V485.898C221.99 488.398 224.01 490.418 226.51 490.418H240.57C243.07 490.418 245.09 488.398 245.09 485.898V461.178C245.5 460.958 245.9 460.738 246.3 460.498C246.69 460.738 247.09 460.958 247.5 461.168V485.898C247.5 488.398 249.52 490.418 252.02 490.418H266.09C268.59 490.418 270.61 488.398 270.61 485.898V461.188C274 459.408 276.96 456.848 279.23 453.678C284 455.848 289.21 457.008 294.57 457.008C301.04 457.008 307.24 455.378 312.76 452.248C315.11 456.068 318.43 459.138 322.33 461.188V485.898C322.33 488.398 324.35 490.418 326.85 490.418H340.91C343.41 490.418 345.43 488.398 345.43 485.898V461.208C345.85 460.988 346.26 460.758 346.67 460.518C347.06 460.748 347.45 460.968 347.84 461.178V485.898C347.84 488.398 349.86 490.418 352.36 490.418H366.43C368.93 490.418 370.95 488.398 370.95 485.898V461.178C378.82 457.018 384.2 448.748 384.2 439.248V438.258C395.3 432.428 402.9 420.788 402.9 407.398C402.9 406.308 402.85 405.198 402.74 404.078C407.4 399.828 410.12 393.768 410.12 387.388C410.12 381.808 408.02 376.408 404.31 372.278C404.23 370.648 404.1 369.018 403.91 367.398H420.65C438.08 367.398 452.26 353.218 452.26 335.788C452.26 318.368 438.08 304.188 420.65 304.188ZM236.08 481.368H231.05V463.898C231.88 463.978 232.72 464.028 233.56 464.028C234.4 464.028 235.25 463.968 236.08 463.888C236.08 463.888 236.08 481.368 236.08 481.368ZM261.6 481.368H256.56V463.888C257.4 463.978 258.24 464.018 259.08 464.018C259.93 464.018 260.77 463.968 261.6 463.888V481.368ZM259.08 454.998C257.14 454.998 255.27 454.648 253.51 453.978C254.52 452.618 255.39 451.148 256.11 449.578C257.16 449.728 258.23 449.808 259.3 449.808C262.14 449.808 264.9 449.288 267.52 448.258H270.68C270.95 448.488 271.23 448.708 271.5 448.928C268.57 452.698 264.03 454.998 259.08 454.998ZM336.41 481.368H331.38V463.888C332.21 463.968 333.05 464.028 333.9 464.028C334.75 464.028 335.59 463.978 336.41 463.898V481.368ZM361.93 481.368H356.9V463.888C357.73 463.978 358.57 464.018 359.42 464.018C360.27 464.018 361.11 463.978 361.93 463.888V481.368ZM359.41 454.998C357.48 454.998 355.61 454.648 353.86 453.988C356.14 450.898 357.72 447.248 358.37 443.258C359.62 442.768 360.85 442.248 362.05 441.698C364.05 442.048 366.07 442.228 368.08 442.228C370.45 442.228 372.77 441.988 375.01 441.538C373.89 449.138 367.33 454.998 359.41 454.998ZM395.33 398.468C393.9 399.478 393.18 401.218 393.48 402.938C393.74 404.438 393.87 405.938 393.87 407.398C393.87 421.618 382.3 433.198 368.07 433.198C366.2 433.198 364.31 432.988 362.44 432.578C361.45 432.358 360.41 432.478 359.49 432.918C357.3 433.978 355.01 434.928 352.67 435.738C350.91 436.348 349.7 437.978 349.64 439.838C349.33 448.348 342.41 455.008 333.89 455.008C327.06 455.008 321.04 450.648 318.92 444.168C318.46 442.768 317.35 441.678 315.94 441.258C314.53 440.828 313 441.118 311.84 442.028C306.87 445.928 300.9 447.988 294.58 447.988C287.47 447.988 280.68 445.318 275.47 440.458C274.63 439.678 273.53 439.248 272.39 439.248H266.61C265.98 439.248 265.35 439.378 264.78 439.638C261.63 441.038 258.02 441.178 254.74 440.008C253.54 439.578 252.22 439.678 251.09 440.278C249.97 440.878 249.15 441.918 248.83 443.158C247.06 450.148 240.78 455.038 233.55 455.038C224.86 455.038 217.79 447.968 217.79 439.278V432.128C217.79 430.628 217.05 429.228 215.8 428.388C213.64 426.928 211.56 425.328 209.63 423.648C208.94 423.048 208.1 422.678 207.19 422.568C194.24 421.028 184.47 410.028 184.47 396.958C184.47 393.468 185.15 390.088 186.5 386.898C187.2 385.248 186.86 383.348 185.64 382.048C181.14 377.248 178.67 370.988 178.67 364.418C178.67 356.718 182.07 349.478 188.01 344.558C189.03 343.708 189.63 342.458 189.64 341.138C189.67 339.008 190.18 336.958 191.16 335.068C192.05 333.348 191.75 331.258 190.42 329.868C189.08 328.468 187.01 328.078 185.26 328.888C184.39 329.288 183.48 329.498 182.54 329.498C178.92 329.498 175.98 326.558 175.98 322.938C175.98 319.318 178.92 316.378 182.54 316.378C182.76 316.378 182.99 316.388 183.23 316.418C184.74 316.578 186.24 315.968 187.21 314.798C188.03 313.798 189.24 313.228 190.53 313.228C191.95 313.228 193.27 313.928 194.08 315.108C195.25 316.808 197.42 317.508 199.36 316.798C201.31 316.088 203.39 316.338 205.08 317.398C206.11 318.048 207.36 318.248 208.54 317.968C209.72 317.688 210.74 316.928 211.37 315.888C216 308.108 224.5 303.268 233.54 303.268C237.82 303.268 242.06 304.338 245.8 306.358C246.99 306.998 248.4 307.078 249.65 306.568C250.9 306.058 251.86 305.018 252.26 303.728C254.03 298.048 259.23 294.228 265.19 294.228C268.98 294.228 272.5 295.758 275.09 298.538C276.65 300.208 279.2 300.448 281.04 299.118C285.46 295.918 290.68 294.228 296.14 294.228C302.97 294.228 309.41 296.878 314.27 301.678C315.18 302.578 316.44 303.048 317.72 302.978C319 302.898 320.19 302.278 320.99 301.268C323.58 297.998 327.45 296.118 331.61 296.118C335.48 296.118 339.17 297.778 341.75 300.688C342.88 301.958 344.62 302.488 346.26 302.068C347.37 301.778 348.52 301.638 349.67 301.638C351.21 301.638 352.71 301.908 354.13 302.398C353.53 304.458 353.21 306.598 353.21 308.748C353.21 311.248 355.23 313.268 357.73 313.268C360.22 313.268 362.25 311.248 362.25 308.748C362.25 306.498 362.78 304.358 363.83 302.388C366.19 297.958 370.78 295.208 375.79 295.208C380.12 295.208 384.08 297.208 386.67 300.688C387.45 301.738 388.66 302.408 389.96 302.498C391.27 302.598 392.56 302.118 393.48 301.188C395.07 299.598 397.17 298.728 399.41 298.728C404.04 298.728 407.8 302.488 407.8 307.118C407.8 307.428 407.78 307.738 407.75 308.038C407.74 308.128 407.72 308.218 407.71 308.318C407.13 312.378 403.63 315.508 399.41 315.508C397.58 315.508 395.83 314.918 394.36 313.798C393.31 313.008 391.97 312.708 390.69 312.978C389.4 313.258 388.3 314.078 387.67 315.228C386.86 316.718 385.78 318.038 384.46 319.128C382.71 320.588 382.33 323.128 383.57 325.048C386.28 329.228 387.71 334.068 387.71 339.048C387.71 340.398 387.6 341.758 387.4 343.078C386.98 345.748 386.14 348.328 384.91 350.738C383.93 352.658 384.44 354.998 386.13 356.338C388.16 357.948 389.33 360.338 389.33 362.918C389.33 365.418 391.35 367.438 393.85 367.438H394.77C395.07 369.718 395.26 372.018 395.31 374.328C395.34 375.548 395.85 376.698 396.74 377.528C399.52 380.118 401.05 383.638 401.05 387.428C401.09 391.788 398.93 395.928 395.33 398.468ZM420.65 358.368H397.81C397.16 355.948 395.99 353.688 394.38 351.758C395.31 349.408 395.97 346.968 396.37 344.468C396.65 342.678 396.8 340.848 396.8 339.028C396.8 333.538 395.51 328.168 393.05 323.318L393.07 323.288C395.09 324.088 397.24 324.508 399.46 324.508C406.9 324.508 413.27 319.818 415.76 313.238H420.65C433.1 313.238 443.22 323.368 443.22 335.808C443.22 348.238 433.1 358.368 420.65 358.368ZM373.57 328.678C371.07 328.678 369.05 330.698 369.05 333.198V347.728C369.05 350.228 371.07 352.248 373.57 352.248C376.07 352.248 378.09 350.228 378.09 347.728V333.198C378.09 330.698 376.07 328.678 373.57 328.678ZM408.18 325.628C406.31 325.628 404.8 327.138 404.8 329.008C404.8 330.878 406.31 332.388 408.18 332.388C410.05 332.388 411.56 330.878 411.56 329.008C411.57 327.138 410.05 325.628 408.18 325.628Z" fill="#1F262C"/>
</svg>
