<svg width="417" height="506" viewBox="0 0 417 506" fill="none" xmlns="http://www.w3.org/2000/svg">
<path d="M224.95 0.511719C237.38 2.88172 250.12 4.18174 262.18 7.78174C347.94 33.4217 400.24 90.6117 414.22 178.712C425.45 249.482 402.26 310.702 350.55 360.872C331.74 379.122 309.34 391.382 284.59 403.192C285.16 394.022 285.52 386.032 286.31 378.072C286.43 376.882 288.34 375.532 289.71 374.842C354.55 342.292 389.93 289.292 393.71 217.462C397.94 136.942 353.47 68.9617 279.6 36.9817C197.91 1.61169 95.8002 34.1417 50.6602 111.472C9.78018 181.502 13.18 251.032 58.73 317.972C74.2 340.702 94.78 358.752 119.46 370.992C129.88 376.162 134.19 382.252 132.31 393.342C131.9 395.732 132.25 398.252 132.25 402.432C124.72 399.012 118.05 396.552 111.93 393.122C79.6702 374.992 52.5899 351.272 32.5899 319.762C-31.8101 218.262 3.85014 82.3417 109.87 25.4917C134.31 12.3817 160.25 4.37169 187.86 1.73169C189.28 1.59169 190.66 0.941729 192.06 0.521729C203.01 0.511729 213.98 0.511719 224.95 0.511719Z" fill="white"/>
<path d="M271.34 319.342C269.3 342.342 267.41 365.352 265.09 388.312C264.69 392.332 263.52 397.062 260.97 399.922C252.45 409.462 252.63 421.472 250.4 432.782C246.35 453.262 242.54 473.792 238.66 494.302C237.2 502.042 233.31 505.622 224.75 504.982C213.85 504.172 202.8 504.222 191.89 504.952C184.01 505.482 180.22 502.192 178.8 495.132C175.23 477.342 171.7 459.542 168.31 441.712C167.01 434.872 166.76 427.762 164.85 421.122C162.84 414.132 159.03 407.682 156.72 400.762C154.23 393.312 151.23 385.662 150.79 377.962C149.19 349.922 148.48 321.822 147.63 293.732C147.33 283.712 154.65 278.512 162.5 276.312C176.51 272.382 190.93 269.102 205.39 267.752C221.83 266.212 238.13 269.182 253.63 275.512C264.24 279.852 271.17 286.412 270.11 299.072C269.55 305.752 270.01 312.512 270.01 319.232C270.44 319.272 270.89 319.312 271.34 319.342Z" fill="white"/>
<path d="M292.48 343.252C292.48 334.462 292.15 326.572 292.69 318.742C292.84 316.532 295.19 314.122 297.09 312.432C332.68 280.772 348.48 241.182 344.42 193.822C339.3 134.142 288.75 81.7424 228.94 73.7224C151.5 63.3324 83.3198 114.402 73.3198 191.932C67.3198 238.492 83.0398 278.292 117.8 309.982C123.21 314.912 125.5 319.632 124.95 326.572C124.54 331.742 124.87 336.972 124.87 342.182C87.2701 323.292 44.5299 266.732 50.0899 195.162C55.6699 123.382 113.53 61.2924 184.54 51.5424C262.29 40.8724 333.33 83.9324 359.25 157.452C383.27 225.542 355.14 304.762 292.48 343.252Z" fill="white"/>
<path d="M139.7 262.571C135.05 268.821 130.78 274.561 126.56 280.231C92.8502 246.171 85.7602 178.781 129.12 133.041C171.56 88.2713 241.92 87.5414 286.54 131.321C327.08 171.091 328.95 242.451 290.75 280.251C286.38 274.441 281.97 268.581 277.52 262.661C308.65 220.941 297.14 169.381 265.91 142.861C231.76 113.851 184.3 114.021 150.51 143.621C119.72 170.601 108.94 221.051 139.7 262.571Z" fill="white"/>
<path d="M256.39 208.37C256.47 234.84 235.58 256.13 209.34 256.34C182.18 256.56 160.73 235.37 160.77 208.36C160.81 182.32 182.11 160.93 208.29 160.64C234.67 160.34 256.31 181.82 256.39 208.37Z" fill="white"/>
</svg>
