<svg width="125" height="151" viewBox="0 0 125 151" fill="none" xmlns="http://www.w3.org/2000/svg">
<path d="M67.18 0.551239C70.89 1.25124 74.69 1.64125 78.28 2.72125C103.86 10.3613 119.45 27.4212 123.62 53.7212C126.97 74.8212 120.05 93.0813 104.62 108.031C99.01 113.481 92.33 117.131 84.95 120.651C85.12 117.921 85.2299 115.541 85.4699 113.161C85.4699 112.811 86.0699 112.411 86.4699 112.161C105.81 102.451 116.36 86.6512 117.47 65.2312C118.73 41.2312 105.47 20.9513 83.4699 11.4113C59.1099 0.861255 28.66 10.5612 15.2 33.6212C2.99998 54.5212 3.99995 75.2513 17.6099 95.2113C22.1766 101.955 28.4172 107.396 35.7199 111.001C38.8299 112.541 40.11 114.361 39.55 117.671C39.4876 118.573 39.4876 119.479 39.55 120.381C37.3 119.381 35.31 118.631 33.49 117.601C23.8917 112.41 15.755 104.885 9.82998 95.7212C5.29083 88.5275 2.27844 80.4777 0.979762 72.0713C-0.318914 63.6649 0.123816 55.0814 2.28048 46.8532C4.43715 38.6251 8.26175 30.9279 13.5169 24.2393C18.7721 17.5508 25.3458 12.0136 32.83 7.97125C40.0287 4.07205 47.9396 1.66409 56.09 0.891266C56.5165 0.808445 56.9348 0.687958 57.34 0.53125L67.18 0.551239Z" fill="url(#paint0_linear)"/>
<path d="M81.0001 95.6196C80.3901 102.48 79.8201 109.34 79.1301 116.19C79.0687 117.439 78.6409 118.642 77.9002 119.65C75.3602 122.5 75.4201 126.08 74.7501 129.45C73.5401 135.56 72.4001 141.68 71.2501 147.8C70.8101 150.1 69.6501 151.17 67.1001 150.98C63.8373 150.755 60.5629 150.755 57.3001 150.98C54.9501 151.14 53.8202 150.16 53.4002 148.05C52.3335 142.75 51.2901 137.443 50.2701 132.13C49.8801 130.13 49.8101 127.97 49.2701 125.98C48.7301 123.99 47.5302 121.98 46.8402 119.91C45.9572 117.729 45.3622 115.444 45.0701 113.11C44.6001 104.75 44.3801 96.3696 44.1301 87.9996C44.0401 84.9996 46.2201 83.4596 48.5601 82.7996C52.7386 81.5686 57.0191 80.7151 61.3501 80.2496C66.2632 79.8398 71.2022 80.6326 75.7401 82.5596C78.9001 83.8596 80.9702 85.8196 80.6502 89.5596C80.4802 91.5596 80.6502 93.5596 80.6502 95.5596L81.0001 95.6196Z" fill="url(#paint1_linear)"/>
<path d="M87.3202 102.752C87.3202 100.132 87.2202 97.7517 87.3802 95.4517C87.5972 94.6948 88.0576 94.0305 88.6902 93.5617C99.3102 84.1217 104.017 72.3317 102.81 58.1917C101.28 40.4017 86.2102 24.7717 68.3702 22.3817C45.2802 19.2817 24.9502 34.5117 21.9702 57.6317C20.1802 71.5117 24.8602 83.3817 35.2302 92.8317C35.9786 93.406 36.5674 94.1625 36.9403 95.0291C37.3132 95.8956 37.4578 96.8434 37.3602 97.7817C37.2402 99.3217 37.3602 100.882 37.3602 102.432C26.1502 96.8017 13.3602 79.9317 15.0602 58.5917C16.7602 37.2517 33.9802 18.6717 55.1602 15.7617C78.3402 12.5817 99.5202 25.4216 107.25 47.3516C114.39 67.6516 106 91.2817 87.3202 102.752Z" fill="url(#paint2_linear)"/>
<path d="M41.7599 78.7015L37.8399 84.0014C27.7899 73.8514 25.6799 53.7514 38.6099 40.1114C41.6281 36.9435 45.2504 34.4123 49.263 32.6673C53.2755 30.9222 57.5969 29.9987 61.9722 29.9512C66.3476 29.9036 70.6881 30.7331 74.7376 32.3905C78.7871 34.048 82.4635 36.4998 85.5499 39.6014C97.6299 51.4614 98.1899 72.7415 86.7999 84.0115C85.4999 82.2815 84.1799 80.5315 82.8599 78.7615C86.9592 73.4857 88.8836 66.8411 88.2384 60.1912C87.5931 53.5413 84.427 47.3906 79.3899 43.0014C74.6249 38.8117 68.4859 36.52 62.1411 36.5624C55.7962 36.6048 49.6884 38.9784 44.9799 43.2314C35.7999 51.2714 32.5899 66.3115 41.7599 78.7015Z" fill="url(#paint3_linear)"/>
<path d="M76.5601 62.5295C76.5601 64.4022 76.1912 66.2565 75.4746 67.9866C74.758 69.7167 73.7076 71.2887 72.3834 72.6129C71.0593 73.937 69.4872 74.9874 67.7571 75.704C66.027 76.4207 64.1727 76.7895 62.3 76.7895C60.4274 76.7895 58.5731 76.4207 56.843 75.704C55.1129 74.9874 53.5409 73.937 52.2167 72.6129C50.8926 71.2887 49.8422 69.7167 49.1255 67.9866C48.4089 66.2565 48.04 64.4022 48.04 62.5295C48.04 58.7476 49.5425 55.1204 52.2167 52.4462C54.891 49.7719 58.5181 48.2695 62.3 48.2695C66.082 48.2695 69.7092 49.7719 72.3834 52.4462C75.0577 55.1204 76.5601 58.7476 76.5601 62.5295V62.5295Z" fill="url(#paint4_linear)"/>
</svg>
