<svg width="538" height="511" viewBox="0 0 538 511" fill="none" xmlns="http://www.w3.org/2000/svg">
<path d="M165.92 304.639L108.23 315.899L40.54 278.739L22.52 217.919L31.66 166.109L57.43 139.079L94.6 110.929L108.23 80.5193L165.92 31.6792L230.87 19.6992L279.3 31.6792L304.08 44.4792H377.28L417.83 57.9993L444.86 101.919L457.25 132.329L501.17 167.799L528.2 219.049L512.43 253.959L479.77 284.369L443.73 289.999L421.21 297.879L380.66 299.009L346.88 323.789L305.21 341.809H260.16L223.6 337.299L165.92 304.639Z" fill="white"/>
<path d="M167.59 318.499C196.1 346.799 234.51 362.799 274.83 362.799C318.83 362.799 360.74 343.559 389.46 310.729C402.89 316.739 417.42 319.869 432.16 319.869C490.08 319.869 537.21 272.739 537.21 214.819C537.21 191.779 529.86 169.889 515.96 151.519C504.79 136.759 489.71 125.089 472.75 117.929C466.62 65.8387 421.96 25.1487 368.41 25.1487C350.01 25.1487 332.39 29.7787 316.74 38.6487C291.3 14.0787 257.34 0.21875 221.6 0.21875C159.61 0.21875 105.65 41.9289 89.4102 100.839C66.1402 106.429 45.0002 119.169 29.0302 137.399C10.4402 158.619 0.200195 185.829 0.200195 213.999C0.200195 278.169 52.4002 330.369 116.57 330.369C134.3 330.369 151.7 326.299 167.59 318.499ZM162.22 285.469C148.48 294.259 132.69 298.899 116.56 298.899C69.7402 298.899 31.6602 260.809 31.6602 213.999C31.6602 171.959 63.0202 135.819 104.6 129.939C111.25 128.999 116.58 123.929 117.85 117.329C127.4 67.6989 171.03 31.6787 221.6 31.6787C252.76 31.6787 282.17 45.3587 302.29 69.1987C307.7 75.6087 317.18 76.6488 323.85 71.5688C336.69 61.7888 352.1 56.6089 368.41 56.6089C408.55 56.6089 441.56 89.2587 441.99 129.389C442.06 136.279 446.61 142.319 453.21 144.289C484.14 153.539 505.74 182.539 505.74 214.809C505.74 255.389 472.73 288.399 432.15 288.399C418.57 288.399 405.22 284.589 393.55 277.369C390.98 275.779 388.12 275.019 385.29 275.019C380.41 275.019 375.61 277.289 372.55 281.509C349.92 312.699 313.38 331.319 274.83 331.319C239.4 331.319 205.82 315.719 182.68 288.519C177.59 282.539 168.85 281.229 162.22 285.469Z" fill="white"/>
<path d="M108.23 411.17C108.23 442.98 134.11 468.861 165.92 468.861C197.73 468.861 223.61 442.98 223.61 411.17C223.61 379.36 197.73 353.48 165.92 353.48C134.11 353.48 108.23 379.36 108.23 411.17ZM139.7 411.17C139.7 396.71 151.46 384.95 165.92 384.95C180.38 384.95 192.14 396.71 192.14 411.17C192.14 425.63 180.38 437.39 165.92 437.39C151.46 437.39 139.7 425.63 139.7 411.17Z" fill="white"/>
<path d="M0.200195 463.61C0.200195 489.64 21.3702 510.81 47.4002 510.81C73.4302 510.81 94.6002 489.64 94.6002 463.61C94.6002 437.58 73.4302 416.41 47.4002 416.41C21.3702 416.42 0.200195 437.59 0.200195 463.61ZM31.6602 463.61C31.6602 454.93 38.7202 447.88 47.3902 447.88C56.0602 447.88 63.1202 454.94 63.1202 463.61C63.1202 472.28 56.0602 479.34 47.3902 479.34C38.7202 479.34 31.6602 472.29 31.6602 463.61Z" fill="white"/>
<path d="M171.33 455.357C188.799 455.357 202.96 434.637 202.96 409.077C202.96 383.517 188.799 362.797 171.33 362.797C153.861 362.797 139.7 383.517 139.7 409.077C139.7 434.637 153.861 455.357 171.33 455.357Z" fill="white"/>
<path d="M39.4503 488.489C54.1797 488.489 66.1202 476.548 66.1202 461.819C66.1202 447.089 54.1797 435.148 39.4503 435.148C24.7208 435.148 12.7803 447.089 12.7803 461.819C12.7803 476.548 24.7208 488.489 39.4503 488.489Z" fill="white"/>
</svg>
