<svg width="139" height="132" viewBox="0 0 139 132" fill="none" xmlns="http://www.w3.org/2000/svg">
<path d="M133 38.1304C130.182 34.4274 126.445 31.5249 122.16 29.7104C121.385 23.3098 118.298 17.4126 113.481 13.1275C108.664 8.84236 102.447 6.46434 95.9999 6.44041C91.445 6.41713 86.9634 7.58582 82.9999 9.83041C78.7114 5.69162 73.4205 2.7391 67.6463 1.26269C61.8722 -0.213722 55.8133 -0.16327 50.0646 1.40907C44.3158 2.9814 39.0747 6.02158 34.8557 10.2312C30.6368 14.4408 27.585 19.6751 25.9999 25.4204C22.0026 26.3668 18.2501 28.1466 14.988 30.6433C11.726 33.1399 9.02783 36.2972 7.07008 39.9085C5.11233 43.5198 3.93912 47.5037 3.62721 51.5997C3.3153 55.6956 3.87174 59.8113 5.26008 63.6774C6.64842 67.5435 8.83739 71.073 11.6838 74.0348C14.5302 76.9966 17.9699 79.324 21.7778 80.8648C25.5857 82.4057 29.676 83.1251 33.7811 82.9761C37.8863 82.8272 41.9136 81.8132 45.5999 80.0004C49.2977 83.6818 53.7119 86.5651 58.569 88.4718C63.4261 90.3785 68.6228 91.2679 73.8376 91.0852C79.0524 90.9024 84.1741 89.6512 88.8858 87.4091C93.5975 85.167 97.7989 81.9817 101.23 78.0504C106.566 80.4549 112.551 81.0125 118.239 79.635C123.927 78.2574 128.993 75.0234 132.638 70.4441C136.282 65.8648 138.296 60.2015 138.362 54.3494C138.427 48.4973 136.541 42.7902 133 38.1304V38.1304Z" fill="#628FCA"/>
<path d="M45.1802 88.7695C42.3179 88.7676 39.5193 89.6145 37.1384 91.2033C34.7575 92.7921 32.9013 95.0513 31.8045 97.6952C30.7078 100.339 30.4198 103.249 30.977 106.056C31.5342 108.864 32.9116 111.443 34.9348 113.468C36.9581 115.493 39.5364 116.872 42.3436 117.431C45.1508 117.99 48.0607 117.704 50.7054 116.609C53.35 115.514 55.6105 113.659 57.2009 111.28C58.7913 108.9 59.6402 106.102 59.6402 103.24C59.6376 99.4044 58.1136 95.727 55.4027 93.0142C52.6918 90.3014 49.0153 88.7748 45.1802 88.7695V88.7695ZM38.6102 103C38.6102 103.37 38.6102 103.72 38.6102 104.08C38.57 103.795 38.5499 103.507 38.5502 103.22C38.565 103.145 38.5851 103.071 38.6102 103Z" fill="#628FCA"/>
<path d="M26.391 120.91C28.8913 114.874 26.0249 107.954 19.9887 105.453C13.9525 102.953 7.03231 105.819 4.53203 111.856C2.03176 117.892 4.8982 124.812 10.9344 127.312C16.9706 129.813 23.8908 126.946 26.391 120.91Z" fill="#628FCA"/>
</svg>
